<svg width="48" height="48" viewBox="0 0 48 48" fill="none" xmlns="http://www.w3.org/2000/svg">
<path d="M24 48C17.9226 48 12.3774 45.7368 8.1486 42.0126L21.7752 32.2884C22.614 31.6902 23.7678 32.3574 23.6664 33.3834L23.1294 38.8326C23.0184 39.954 24.375 40.5954 25.1718 39.7986L32.4852 32.4852C37.2744 27.696 37.1694 19.8666 32.1702 15.2106C27.4086 10.776 19.9122 11.1168 15.3114 15.7182L8.2236 22.8054C7.4244 23.6052 8.073 24.9654 9.1974 24.8478L14.6508 24.2772C15.6786 24.1698 16.353 25.326 15.7524 26.1678L5.9874 39.8514C2.2632 35.6226 0 30.0774 0 24C0 10.7454 10.7454 0 24 0C37.2546 0 48 10.7454 48 24C48 37.2546 37.2546 48 24 48Z" fill="white"/>
</svg>
