<?xml version="1.0" encoding="UTF-8" standalone="no"?><!-- Generator: Gravit.io --><svg xmlns="http://www.w3.org/2000/svg" xmlns:xlink="http://www.w3.org/1999/xlink" style="isolation:isolate" viewBox="0 0 100 25" width="100pt" height="25pt"><defs><clipPath id="_clipPath_VgQtUQipYixbsrJf0rBi9DRcf6kBs2G0"><rect width="100" height="25"/></clipPath></defs><g clip-path="url(#_clipPath_VgQtUQipYixbsrJf0rBi9DRcf6kBs2G0)"><path d=" M 5.482 19.985 L 3.163 19.985 L 0 5.226 L 2.593 5.226 L 4.343 13.913 L 4.343 13.913 Q 4.575 15.135 4.596 15.325 L 4.596 15.325 L 4.596 15.325 Q 4.659 14.861 4.891 13.913 L 4.891 13.913 L 7.063 5.226 L 9.214 5.226 L 11.427 13.892 L 11.427 13.892 Q 11.638 14.651 11.723 15.304 L 11.723 15.304 L 11.723 15.304 Q 11.807 14.693 11.976 13.913 L 11.976 13.913 L 13.725 5.226 L 16.277 5.226 L 13.093 19.985 L 10.774 19.985 L 8.391 10.855 L 8.391 10.855 Q 8.159 10.033 8.096 9.485 L 8.096 9.485 L 8.096 9.485 Q 8.033 9.991 7.822 10.834 L 7.822 10.834 L 5.482 19.985 Z  M 26.502 19.985 L 24.099 19.985 L 24.099 19.12 L 24.099 19.12 Q 23.023 20.238 21.231 20.238 L 21.231 20.238 L 21.231 20.238 Q 19.502 20.238 18.417 19.299 L 18.417 19.299 L 18.417 19.299 Q 17.331 18.361 17.331 16.653 L 17.331 16.653 L 17.331 16.653 Q 17.331 14.904 18.564 13.997 L 18.564 13.997 L 18.564 13.997 Q 19.798 13.09 21.548 13.09 L 21.548 13.09 L 21.548 13.09 Q 23.087 13.09 24.099 13.66 L 24.099 13.66 L 24.099 13.09 L 24.099 13.09 Q 24.099 12.057 23.582 11.593 L 23.582 11.593 L 23.582 11.593 Q 23.066 11.13 21.99 11.13 L 21.99 11.13 L 21.99 11.13 Q 20.24 11.13 18.786 12.142 L 18.786 12.142 L 18.027 10.139 L 18.027 10.139 Q 19.777 8.958 22.243 8.958 L 22.243 8.958 L 22.243 8.958 Q 23.087 8.958 23.73 9.095 L 23.73 9.095 L 23.73 9.095 Q 24.373 9.232 25.058 9.633 L 25.058 9.633 L 25.058 9.633 Q 25.743 10.033 26.123 10.898 L 26.123 10.898 L 26.123 10.898 Q 26.502 11.762 26.502 13.048 L 26.502 13.048 L 26.502 19.985 Z  M 21.695 18.066 L 21.695 18.066 L 21.695 18.066 Q 23.108 18.066 24.099 17.033 L 24.099 17.033 L 24.099 15.641 L 24.099 15.641 Q 23.171 15.199 21.948 15.199 L 21.948 15.199 L 21.948 15.199 Q 20.957 15.199 20.346 15.557 L 20.346 15.557 L 20.346 15.557 Q 19.734 15.916 19.734 16.653 L 19.734 16.653 L 19.734 16.653 Q 19.734 17.307 20.24 17.687 L 20.24 17.687 L 20.24 17.687 Q 20.746 18.066 21.695 18.066 Z  M 32.026 19.985 L 29.559 19.985 L 29.559 5.922 L 32.026 4.762 L 32.026 19.985 Z  M 37.866 19.985 L 35.4 19.985 L 35.4 5.922 L 37.866 4.762 L 37.866 19.985 Z  M 45.583 20.238 L 45.583 20.238 L 45.583 20.238 Q 43.285 20.238 41.946 18.73 L 41.946 18.73 L 41.946 18.73 Q 40.607 17.223 40.607 14.587 L 40.607 14.587 L 40.607 14.587 Q 40.607 11.973 41.957 10.465 L 41.957 10.465 L 41.957 10.465 Q 43.306 8.958 45.583 8.958 L 45.583 8.958 L 45.583 8.958 Q 47.649 8.958 48.967 10.244 L 48.967 10.244 L 48.967 10.244 Q 50.285 11.53 50.285 14.018 L 50.285 14.018 L 50.285 14.018 Q 50.285 14.882 50.2 15.536 L 50.2 15.536 L 43.053 15.536 L 43.053 15.536 Q 43.116 16.675 43.844 17.37 L 43.844 17.37 L 43.844 17.37 Q 44.571 18.066 45.583 18.066 L 45.583 18.066 L 45.583 18.066 Q 47.017 18.066 47.86 16.949 L 47.86 16.949 L 49.42 18.551 L 49.42 18.551 Q 48.008 20.238 45.583 20.238 Z  M 43.074 13.491 L 43.074 13.491 L 47.839 13.491 L 47.839 13.491 Q 47.755 12.331 47.122 11.73 L 47.122 11.73 L 47.122 11.73 Q 46.49 11.13 45.583 11.13 L 45.583 11.13 L 45.583 11.13 Q 44.529 11.13 43.844 11.709 L 43.844 11.709 L 43.844 11.709 Q 43.158 12.289 43.074 13.491 Z  M 55.809 20.238 L 55.809 20.238 L 55.809 20.238 Q 53.3 20.238 53.3 17.476 L 53.3 17.476 L 53.3 11.361 L 51.697 11.361 L 51.697 9.211 L 53.3 9.211 L 53.3 5.943 L 55.766 4.762 L 55.766 9.211 L 58.254 9.211 L 58.254 11.361 L 55.766 11.361 L 55.766 16.991 L 55.766 16.991 Q 55.766 18.024 56.673 18.024 L 56.673 18.024 L 56.673 18.024 Q 57.495 18.024 58.36 17.539 L 58.36 17.539 L 58.065 19.753 L 58.065 19.753 Q 57.137 20.238 55.809 20.238 Z  M 70.694 19.985 L 60.995 19.985 L 60.995 5.226 L 63.525 5.226 L 63.525 17.56 L 70.694 17.56 L 70.694 19.985 Z  M 74.995 7.303 L 74.995 7.303 L 74.995 7.303 Q 74.573 7.735 73.962 7.735 L 73.962 7.735 L 73.962 7.735 Q 73.35 7.735 72.918 7.303 L 72.918 7.303 L 72.918 7.303 Q 72.486 6.871 72.486 6.259 L 72.486 6.259 L 72.486 6.259 Q 72.486 5.648 72.918 5.226 L 72.918 5.226 L 72.918 5.226 Q 73.35 4.804 73.962 4.804 L 73.962 4.804 L 73.962 4.804 Q 74.573 4.804 74.995 5.226 L 74.995 5.226 L 74.995 5.226 Q 75.416 5.648 75.416 6.259 L 75.416 6.259 L 75.416 6.259 Q 75.416 6.871 74.995 7.303 Z  M 75.184 19.985 L 72.718 19.985 L 72.718 9.211 L 75.184 9.211 L 75.184 19.985 Z  M 87.497 19.985 L 85.031 19.985 L 85.031 13.807 L 85.031 13.807 Q 85.031 11.298 83.028 11.298 L 83.028 11.298 L 83.028 11.298 Q 80.835 11.298 80.835 13.765 L 80.835 13.765 L 80.835 19.985 L 78.368 19.985 L 78.368 9.211 L 80.835 9.211 L 80.835 10.223 L 80.835 10.223 Q 81.889 8.958 83.681 8.958 L 83.681 8.958 L 83.681 8.958 Q 85.368 8.958 86.433 10.012 L 86.433 10.012 L 86.433 10.012 Q 87.497 11.066 87.497 13.364 L 87.497 13.364 L 87.497 19.985 Z  M 95.994 12.268 L 100 19.985 L 97.301 19.985 L 94.223 14.039 L 93.021 15.22 L 93.021 19.985 L 90.554 19.985 L 90.554 5.922 L 93.021 4.762 L 93.021 12.331 L 96.057 9.211 L 99.051 9.211 L 95.994 12.268 Z " fill="rgb(255,255,255)"/></g></svg>