<svg width="196" height="196" viewBox="0 0 196 196" fill="none" xmlns="http://www.w3.org/2000/svg">
<path d="M6 178.306V120.871H17.4871V109.384H28.9742V74.9225H40.4612V51.9483H28.9742V17.4871H40.4612V6H74.9225V40.4612H120.871V28.9742V6H155.332V17.4871H166.819V51.9483H155.332V74.9225H166.819V109.384H178.306V120.871H189.793V178.306H178.306V189.793H17.4871V178.306H6Z" fill="#252525"/>
<path d="M120.871 28.9742V6H155.332V17.4871H166.819V51.9483H155.332V74.9225H166.819V109.384H178.306V120.871H189.793V178.306H178.306V189.793H17.4871V178.306H6V120.871H17.4871V109.384H28.9742V74.9225H40.4612V51.9483H28.9742V17.4871H40.4612V6H74.9225V40.4612H120.871V28.9742ZM120.871 28.9742H138.101" stroke="#252525" stroke-width="10.5594"/>
<path d="M23.2302 184.051H69.1785V161.077H57.6915V149.59H69.1785V161.077H80.6656V184.051H115.127V161.077H126.614V149.59H138.101V161.077H126.614V184.051H172.562V172.564H184.049V126.616H172.562V115.129H161.075V80.6675H149.588V69.1805H138.101V57.6934H126.614V46.2063H69.1785V57.6934H57.6915V69.1805H46.2044V80.6675H34.7173V115.129H23.2302V126.616H11.7432V172.564H23.2302V184.051ZM92.1527 80.6675H103.64V92.1546H115.127V103.642H80.6656V92.1546H92.1527V80.6675ZM126.614 80.6675H115.127V69.1805H126.614V80.6675ZM80.6656 69.1805V80.6675H69.1785V69.1805H80.6656Z" fill="white"/>
<path d="M138.101 57.692H149.588V46.2049H161.075V23.2307H149.588V11.7437H126.614V23.2307H138.101V34.7178H126.614V46.2049H138.101V57.692Z" fill="white"/>
<path d="M69.1668 46.2049V34.7178H57.6797V23.2307H69.1668V11.7437H46.1926V23.2307H34.7056V46.2049H46.1926V57.692H57.6797V46.2049H69.1668Z" fill="white"/>
</svg>
