<svg width="193" height="204" viewBox="0 0 193 204" fill="none" xmlns="http://www.w3.org/2000/svg">
<path d="M130.438 6H62.5625V17.3125H51.25V28.625H39.9375V73.875H28.625V85.1875H17.3125V96.5H6V119.125H17.3125V141.75H6V175.688H17.3125V187H28.625V198.312H164.375V187H175.688V175.688H187V96.5H175.688V85.1875H164.375V73.875H153.062V28.625H141.75V17.3125H130.438V6Z" fill="#252525" stroke="#252525" stroke-width="11.3125"/>
<path d="M170.033 90.8453H158.72V79.5327H147.408V34.2822H136.095V79.5327H124.782V90.8453H113.47V102.158H124.782V124.783H102.157V102.158H90.8445V124.783H68.2193V102.158H79.5319V90.8453H68.2193V79.5327H56.9067V34.2822H45.5941V79.5327H34.2815V90.8453H22.9689V102.158H11.6562V113.47H22.9689V124.783H34.2815V136.096H22.9689V147.408H11.6562V170.034H22.9689V181.346H34.2815V192.659H158.72V181.346H170.033V170.034H181.345V136.096H170.033V124.783H181.345V102.158H170.033V90.8453ZM79.5319 147.408V158.721H68.2193V170.034H56.9067V158.721H45.5941V147.408H56.9067V136.096H68.2193V147.408H79.5319ZM56.9067 113.47H45.5941V102.158H56.9067V113.47ZM102.157 181.346V170.034H90.8445V158.721H102.157V147.408H113.47V158.721H124.782V170.034H113.47V181.346H102.157ZM170.033 147.408V158.721H158.72V170.034H147.408V158.721H136.095V147.408H147.408V136.096H158.72V147.408H170.033ZM158.72 113.47H147.408V102.158H158.72V113.47Z" fill="white"/>
<path d="M124.782 45.5942H68.2188V79.5321H124.782V45.5942ZM79.5314 68.2195V56.9068H90.844V68.2195H79.5314ZM102.157 68.2195V56.9068H113.469V68.2195H102.157Z" fill="white"/>
<path d="M136.1 34.282V22.9693H124.787V11.6567H68.2242V22.9693H56.9116V34.282H136.1Z" fill="white"/>
</svg>
