<svg width="1512" height="108" viewBox="0 0 1512 108" fill="none" xmlns="http://www.w3.org/2000/svg">
<path d="M822.3 8.60059V17.2006M813.7 17.2006V30.1006M813.7 30.1006H800.8M813.7 30.1006V38.7006H822.3M826.6 38.7006H822.3M822.3 38.7006V47.3006H813.7M805.1 73V55.9006V47.3006H813.7M805.1 73V107.501H796.5L797 73.1006L805.1 73ZM805.1 73L813.7 64.5006M813.7 64.5006V47.3006M813.7 64.5006H822.3V73.1006H839.5V64.5006M813.7 64.5006V81.7006H839.5V90.3006H848.1V98.9006M839.5 51.6006V64.5006M839.5 64.5006H848.1V81.7006H856.7V98.9006H873.9V90.3006H882.5V81.7006V73.1006M882.5 73.1006H873.9V64.5006H865.3M882.5 73.1006H891.1V81.7006H916.9V64.5006H925.5M865.3 64.5006V51.6006M865.3 64.5006H891.1V55.9006H899.7V38.7006H891.1V25.8006M925.5 64.5006V55.9006H934.1V43.0006M925.5 64.5006V73.1006H934.1V81.7006H942.7V98.9006H959.9V90.3006H968.5V81.7006M968.5 38.7006V55.9006H959.9V64.5006H951.3V73.1006H968.5V81.7006M968.5 38.7006V30.1006H959.9V21.5006H951.3V8.60059M968.5 38.7006H977.1V47.3006H985.7V55.9006H977.1V64.5006H968.5V81.7006M968.5 81.7006H977.1V90.3006H994.3V73.1006H1002.9V55.9006H1011.5M1011.5 55.9006V47.3006M1011.5 55.9006V64.5006H1020.1V73.1006H1037.3V64.5006M1011.5 25.8006V38.7006M1011.5 38.7006H1020.1V47.3006H1011.5M1011.5 38.7006V47.3006M1037.3 51.6006V64.5006M1037.3 64.5006H1045.9V81.7006H1054.5V98.9006H1071.7V90.3006H1080.3V73.1006H1071.7V64.5006M1071.7 64.5006H1063.1V51.6006M1071.7 64.5006H1088.9M1088.9 25.8006V38.7006H1097.5V55.9006M1097.5 55.9006V64.5006H1088.9M1097.5 55.9006H1088.9V64.5006M1088.9 64.5006V81.7006H1114.7V64.5006H1123.3V55.9006M1123.3 55.9006H1131.9V43.0006M1123.3 55.9006V73.1006H1131.9V81.7006H1140.5V98.9006H1157.7V90.3006H1166.3V81.7006M1157.7 64.5006H1149.1V73.1006H1166.3V81.7006M1157.7 64.5006H1166.3H1174.9V47.3006M1157.7 64.5006V55.9006H1166.3V38.7006M1157.7 17.2006V30.1006H1166.3V38.7006M1166.3 38.7006H1174.9V47.3006M1174.9 47.3006H1187.8M1166.3 81.7006H1174.9V90.3006H1200.7V81.7006H1209.3V64.5006H1200.7V55.9006M1200.7 55.9006H1187.8M1200.7 55.9006V38.7006H1209.3M1209.3 38.7006V30.1006H1217.9V21.5006H1226.5V8.60059M1209.3 38.7006V55.9006H1217.9V64.5006H1226.5V73.1006H1217.9V90.3006H1226.5V98.9006H1243.7V81.7006H1252.3V73.1006H1260.9M1260.9 73.1006V64.5006M1260.9 73.1006V90.3006M1252.3 43.0006V55.9006H1260.9V64.5006M1260.9 64.5006H1269.5V81.7006H1295.3V64.5006M1295.3 64.5006H1286.7V55.9006M1295.3 64.5006V55.9006H1286.7M1295.3 64.5006H1312.5M1295.3 25.8006V38.7006H1286.7V55.9006M1321.1 51.6006V64.5006H1312.5M1312.5 64.5006V73.1006H1303.9V90.3006H1312.5V98.9006H1329.7V81.7006H1338.3V64.5006H1346.9V51.6006V73.1006H1364.1V64.5006H1372.7V47.3006M1372.7 47.3006H1364.1V38.7006H1372.7V30.1006M1372.7 47.3006V17.2006V30.1006M1372.7 47.3006H1381.3V64.5006V90.3006H1398.5V81.7006H1407.1V64.5006H1398.5V55.9006M1372.7 30.1006H1385.6M1424.3 17.2006V30.1006H1415.7V38.7006H1407.1V47.3006H1398.5V55.9006M1398.5 55.9006H1415.7V64.5006H1424.3V73.1006H1415.7V90.3006H1424.3V98.9006H1441.5V81.7006H1450.1V73.1006H1458.7V64.5006M1450.1 43.0006V55.9006H1458.7V64.5006M1458.7 64.5006H1467.3V81.7006H1493.1V64.5006M1493.1 64.5006H1484.5V55.9006M1493.1 64.5006V55.9006H1484.5M1493.1 64.5006H1510.3M1493.1 25.8006V38.7006H1484.5V55.9006M1518.9 51.6006V64.5006H1510.3M1510.3 64.5006V73.1006H1501.7V90.3006H1510.3V98.9006H1527.5V81.7006H1536.1V64.5006H1544.7V51.6006V73.1006H1561.9V64.5006H1570.5M1570.5 64.5006V55.9006M1570.5 64.5006V81.7006M1570.5 55.9006V47.3006H1561.9V38.7006H1570.5V25.8006V55.9006ZM1570.5 55.9006H1579.1V73.1006H1587.7V107.501H1579.1V81.7006H1570.5M1570.5 81.7006V107.501H1561.9V90.3006M1544.7 90.3006V81.7006H1561.9V90.3006M1544.7 90.3006H1561.9M1544.7 90.3006H1536.1V98.9006H1553.3V107.501H1501.7V98.9006H1493.1V90.3006H1458.7M1458.7 90.3006V77.4006M1458.7 90.3006H1450.1V98.9006H1484.5V107.501H1497.4H1415.7V98.9006H1407.1V86.0006V107.501H1338.3M1338.3 107.501V98.9006M1338.3 107.501H1303.9M1338.3 98.9006V90.3006H1346.9V81.7006H1372.7V68.8006V98.9006H1402.8H1364.1M1338.3 98.9006H1355.5M1355.5 98.9006V90.3006H1364.1V98.9006M1355.5 98.9006H1364.1M1303.9 107.501V98.9006H1295.3V90.3006H1260.9M1303.9 107.501H1286.7M1260.9 90.3006H1252.3V107.501M1252.3 107.501H1260.9M1252.3 107.501H1217.9M1286.7 107.501V98.9006H1260.9V107.501M1286.7 107.501H1260.9M1217.9 107.501V98.9006H1209.3M1217.9 107.501H1166.3M1209.3 98.9006V86.0006M1209.3 98.9006H1166.3V107.501M1166.3 107.501H1131.9V90.3006H1123.3M1123.3 90.3006V77.4006M1123.3 90.3006H1088.9V98.9006H1076H1123.3V107.501H1045.9V90.3006H1037.3V81.7006H1011.5M1011.5 81.7006V68.8006M1011.5 81.7006H1002.9V107.501M1002.9 107.501H1037.3V98.9006H1028.7V90.3006H1011.5V98.9006H1024.4H968.5V107.501M1002.9 107.501H968.5M968.5 107.501H934.1V90.3006H925.5V77.4006V107.501H882.5M882.5 107.501V98.9006H891.1M882.5 107.501H848.1M891.1 98.9006V90.3006H916.9V98.9006H891.1ZM848.1 107.501H813.7V98.9006M848.1 107.501V98.9006M830.9 98.9006V90.3006H813.7V98.9006M830.9 98.9006H848.1M830.9 98.9006H813.7" stroke="white" stroke-width="8.6"/>
<path d="M26.8 8.60059V17.2006M18.2 17.2006V30.1006M18.2 30.1006H5.3M18.2 30.1006V38.7006H26.8M31.1 38.7006H26.8M26.8 38.7006V47.3006H18.2M18.2 64.5006H9.6V107.501H1V55.9006H9.6V47.3006H18.2M18.2 64.5006V47.3006M18.2 64.5006H26.8V73.1006H44V64.5006M18.2 64.5006V81.7006H44V90.3006H52.6V98.9006M44 51.6006V64.5006M44 64.5006H52.6V81.7006H61.2V98.9006H78.4V90.3006H87V81.7006V73.1006M87 73.1006H78.4V64.5006H69.8M87 73.1006H95.6V81.7006H121.4V64.5006H130M69.8 64.5006V51.6006M69.8 64.5006H95.6V55.9006H104.2V38.7006H95.6V25.8006M130 64.5006V55.9006H138.6V43.0006M130 64.5006V73.1006H138.6V81.7006H147.2V98.9006H164.4V90.3006H173V81.7006M173 38.7006V55.9006H164.4V64.5006H155.8V73.1006H173V81.7006M173 38.7006V30.1006H164.4V21.5006H155.8V8.60059M173 38.7006H181.6V47.3006H190.2V55.9006H181.6V64.5006H173V81.7006M173 81.7006H181.6V90.3006H198.8V73.1006H207.4V55.9006H216M216 55.9006V47.3006M216 55.9006V64.5006H224.6V73.1006H241.8V64.5006M216 25.8006V38.7006M216 38.7006H224.6V47.3006H216M216 38.7006V47.3006M241.8 51.6006V64.5006M241.8 64.5006H250.4V81.7006H259V98.9006H276.2V90.3006H284.8V73.1006H276.2V64.5006M276.2 64.5006H267.6V51.6006M276.2 64.5006H293.4M293.4 25.8006V38.7006H302V55.9006M302 55.9006V64.5006H293.4M302 55.9006H293.4V64.5006M293.4 64.5006V81.7006H319.2V64.5006H327.8V55.9006M327.8 55.9006H336.4V43.0006M327.8 55.9006V73.1006H336.4V81.7006H345V98.9006H362.2V90.3006H370.8V81.7006M362.2 64.5006H353.6V73.1006H370.8V81.7006M362.2 64.5006H370.8H379.4V47.3006M362.2 64.5006V55.9006H370.8V38.7006M362.2 17.2006V30.1006H370.8V38.7006M370.8 38.7006H379.4V47.3006M379.4 47.3006H392.3M370.8 81.7006H379.4V90.3006H405.2V81.7006H413.8V64.5006H405.2V55.9006M405.2 55.9006H392.3M405.2 55.9006V38.7006H413.8M413.8 38.7006V30.1006H422.4V21.5006H431V8.60059M413.8 38.7006V55.9006H422.4V64.5006H431V73.1006H422.4V90.3006H431V98.9006H448.2V81.7006H456.8V73.1006H465.4M465.4 73.1006V64.5006M465.4 73.1006V90.3006M456.8 43.0006V55.9006H465.4V64.5006M465.4 64.5006H474V81.7006H499.8V64.5006M499.8 64.5006H491.2V55.9006M499.8 64.5006V55.9006H491.2M499.8 64.5006H517M499.8 25.8006V38.7006H491.2V55.9006M525.6 51.6006V64.5006H517M517 64.5006V73.1006H508.4V90.3006H517V98.9006H534.2V81.7006H542.8V64.5006H551.4V51.6006V73.1006H568.6V64.5006H577.2V47.3006M577.2 47.3006H568.6V38.7006H577.2V30.1006M577.2 47.3006V17.2006V30.1006M577.2 47.3006H585.8V64.5006V90.3006H603V81.7006H611.6V64.5006H603V55.9006M577.2 30.1006H590.1M628.8 17.2006V30.1006H620.2V38.7006H611.6V47.3006H603V55.9006M603 55.9006H620.2V64.5006H628.8V73.1006H620.2V90.3006H628.8V98.9006H646V81.7006H654.6V73.1006H663.2V64.5006M654.6 43.0006V55.9006H663.2V64.5006M663.2 64.5006H671.8V81.7006H697.6V64.5006M697.6 64.5006H689V55.9006M697.6 64.5006V55.9006H689M697.6 64.5006H714.8M697.6 25.8006V38.7006H689V55.9006M723.4 51.6006V64.5006H714.8M714.8 64.5006V73.1006H706.2V90.3006H714.8V98.9006H732V81.7006H740.6V64.5006H749.2V51.6006V73.1006H766.4V64.5006H775M775 64.5006V55.9006M775 64.5006V81.7006M775 55.9006V47.3006H766.4V38.7006H775V25.8006V55.9006ZM775 55.9006H783.6V73.1006H792.2V107.501H783.6V81.7006H775M775 81.7006V107.501H766.4V90.3006M749.2 90.3006V81.7006H766.4V90.3006M749.2 90.3006H766.4M749.2 90.3006H740.6V98.9006H757.8V107.501H706.2V98.9006H697.6V90.3006H663.2M663.2 90.3006V77.4006M663.2 90.3006H654.6V98.9006H689V107.501H701.9H620.2V98.9006H611.6V86.0006V107.501H542.8M542.8 107.501V98.9006M542.8 107.501H508.4M542.8 98.9006V90.3006H551.4V81.7006H577.2V68.8006V98.9006H607.3H568.6M542.8 98.9006H560M560 98.9006V90.3006H568.6V98.9006M560 98.9006H568.6M508.4 107.501V98.9006H499.8V90.3006H465.4M508.4 107.501H491.2M465.4 90.3006H456.8V107.501M456.8 107.501H465.4M456.8 107.501H422.4M491.2 107.501V98.9006H465.4V107.501M491.2 107.501H465.4M422.4 107.501V98.9006H413.8M422.4 107.501H370.8M413.8 98.9006V86.0006M413.8 98.9006H370.8V107.501M370.8 107.501H336.4V90.3006H327.8M327.8 90.3006V77.4006M327.8 90.3006H293.4V98.9006H280.5H327.8V107.501H250.4V90.3006H241.8V81.7006H216M216 81.7006V68.8006M216 81.7006H207.4V107.501M207.4 107.501H241.8V98.9006H233.2V90.3006H216V98.9006H228.9H173V107.501M207.4 107.501H173M173 107.501H138.6V90.3006H130V77.4006V107.501H87M87 107.501V98.9006H95.6M87 107.501H52.6M95.6 98.9006V90.3006H121.4V98.9006H95.6ZM52.6 107.501H18.2V98.9006M52.6 107.501V98.9006M35.4 98.9006V90.3006H18.2V98.9006M35.4 98.9006H52.6M35.4 98.9006H18.2" stroke="white" stroke-width="8.6"/>
<path d="M276.2 43.001V51.601" stroke="white" stroke-width="8.6"/>
<path d="M43.9998 34.3994V42.9994" stroke="white" stroke-width="8.6"/>
<path d="M52.5999 43.001V51.601" stroke="white" stroke-width="8.6"/>
<path d="M78.3999 43.001V51.601" stroke="white" stroke-width="8.6"/>
<path d="M87 17.2002V25.8002" stroke="white" stroke-width="8.6"/>
<path d="M130 34.3994V42.9994" stroke="white" stroke-width="8.6"/>
<path d="M138.6 25.7998V34.3998" stroke="white" stroke-width="8.6"/>
<path d="M164.4 0V8.6" stroke="white" stroke-width="8.6"/>
<path d="M224.6 8.60059V17.2006" stroke="white" stroke-width="8.6"/>
<path d="M241.8 34.3994V42.9994" stroke="white" stroke-width="8.6"/>
<path d="M250.4 43.001V51.601" stroke="white" stroke-width="8.6"/>
<path d="M284.8 17.2002V25.8002" stroke="white" stroke-width="8.6"/>
<path d="M327.8 34.3994V42.9994" stroke="white" stroke-width="8.6"/>
<path d="M336.4 25.7998V34.3998" stroke="white" stroke-width="8.6"/>
<path d="M422.4 0V8.6" stroke="white" stroke-width="8.6"/>
<path d="M465.4 34.3994V42.9994" stroke="white" stroke-width="8.6"/>
<path d="M456.8 25.7998V34.3998" stroke="white" stroke-width="8.6"/>
<path d="M508.4 17.2002V25.8002" stroke="white" stroke-width="8.6"/>
<path d="M517 43.001V51.601" stroke="white" stroke-width="8.6"/>
<path d="M542.8 43.001V51.601" stroke="white" stroke-width="8.6"/>
<path d="M551.4 34.3994V42.9994" stroke="white" stroke-width="8.6"/>
<path d="M568.6 8.60059V17.2006" stroke="white" stroke-width="8.6"/>
<path d="M654.6 25.7998V34.3998" stroke="white" stroke-width="8.6"/>
<path d="M663.2 34.3994V42.9994" stroke="white" stroke-width="8.6"/>
<path d="M706.2 17.2002V25.8002" stroke="white" stroke-width="8.6"/>
<path d="M714.8 43.001V51.601" stroke="white" stroke-width="8.6"/>
<path d="M740.6 43.001V51.601" stroke="white" stroke-width="8.6"/>
<path d="M749.2 34.3994V42.9994" stroke="white" stroke-width="8.6"/>
<path d="M766.4 8.60059V17.2006" stroke="white" stroke-width="8.6"/>
</svg>
