<svg width="1512" height="205" viewBox="0 0 1512 205" fill="none" xmlns="http://www.w3.org/2000/svg">
<rect x="157.5" y="31.8955" width="15.75" height="15.75" fill="white"/>
<rect x="173.25" y="47.6465" width="15.75" height="15.75" fill="white"/>
<rect x="189" y="63.3965" width="15.75" height="15.75" fill="white"/>
<rect x="189" y="79.1465" width="15.75" height="15.75" fill="white"/>
<rect x="189" y="94.8965" width="15.75" height="15.75" fill="white"/>
<rect x="173.25" y="94.8965" width="15.75" height="15.75" fill="white"/>
<rect x="157.5" y="110.647" width="15.75" height="15.75" fill="white"/>
<rect x="173.25" y="110.647" width="15.75" height="15.75" fill="white"/>
<rect x="189" y="110.647" width="15.75" height="15.75" fill="white"/>
<rect x="173.25" y="126.396" width="15.75" height="15.75" fill="white"/>
<rect x="173.25" y="142.146" width="15.75" height="15.75" fill="white"/>
<rect x="189" y="142.146" width="15.75" height="15.75" fill="white"/>
<rect x="189" y="157.896" width="15.75" height="15.75" fill="white"/>
<rect x="204.75" y="157.896" width="15.75" height="15.75" fill="white"/>
<rect x="220.5" y="142.146" width="15.75" height="15.75" fill="white"/>
<rect x="220.5" y="126.396" width="15.75" height="15.75" fill="white"/>
<rect x="220.5" y="110.647" width="15.75" height="15.75" fill="white"/>
<rect x="236.25" y="94.8965" width="15.75" height="15.75" fill="white"/>
<rect x="252" y="79.1465" width="15.75" height="15.75" fill="white"/>
<rect x="236.25" y="63.3965" width="15.75" height="15.75" fill="white"/>
<rect x="252" y="94.8965" width="15.75" height="15.75" fill="white"/>
<rect x="236.25" y="110.647" width="15.75" height="15.75" fill="white"/>
<rect x="252" y="126.396" width="15.75" height="15.75" fill="white"/>
<rect x="236.25" y="126.396" width="15.75" height="15.75" fill="white"/>
<rect x="141.75" y="110.647" width="15.75" height="15.75" fill="white"/>
<rect x="126.001" y="110.647" width="15.75" height="15.75" fill="white"/>
<rect x="141.75" y="126.396" width="15.75" height="15.75" fill="white"/>
<rect x="157.5" y="126.396" width="15.75" height="15.75" fill="white"/>
<rect x="157.5" y="142.146" width="15.75" height="15.75" fill="white"/>
<rect x="141.75" y="157.896" width="15.75" height="15.75" fill="white"/>
<rect y="173.646" width="267.75" height="15.75" fill="white"/>
<rect y="189.396" width="283.5" height="15.75" fill="white"/>
<rect x="94.4998" y="157.896" width="15.75" height="15.75" fill="white"/>
<rect width="15.75" height="15.75" transform="matrix(-1 0 0 1 126.001 157.896)" fill="white"/>
<rect x="220.5" y="157.896" width="31.5" height="15.75" fill="white"/>
<rect x="157.5" y="157.896" width="31.5" height="15.75" fill="white"/>
<rect x="252" y="142.146" width="15.75" height="15.75" fill="white"/>
<rect x="267.75" y="142.146" width="15.75" height="15.75" fill="white"/>
<rect x="267.75" y="157.896" width="15.75" height="15.75" fill="white"/>
<rect x="299.25" y="157.896" width="15.75" height="15.75" fill="white"/>
<rect x="315.001" y="157.896" width="15.75" height="15.75" fill="white"/>
<rect x="267.75" y="173.646" width="47.25" height="15.75" fill="white"/>
<rect x="283.5" y="189.396" width="94.5" height="15.75" fill="white"/>
<rect x="315.001" y="173.646" width="63" height="15.75" fill="white"/>
<rect x="330.75" y="157.896" width="15.75" height="15.75" fill="white"/>
<rect x="315.001" y="142.146" width="15.75" height="15.75" fill="white"/>
<rect x="299.25" y="126.396" width="15.75" height="15.75" fill="white"/>
<rect x="299.25" y="110.647" width="15.75" height="15.75" fill="white"/>
<rect x="315.001" y="94.8965" width="15.75" height="15.75" fill="white"/>
<rect x="330.75" y="79.1465" width="15.75" height="15.75" fill="white"/>
<rect x="330.75" y="63.3965" width="15.75" height="15.75" fill="white"/>
<rect x="315.001" y="47.6465" width="15.75" height="15.75" fill="white"/>
<rect x="299.25" y="31.8955" width="15.75" height="15.75" fill="white"/>
<rect x="299.25" y="16.1465" width="15.75" height="15.75" fill="white"/>
<rect x="315.001" y="0.396484" width="15.75" height="15.75" fill="white"/>
<rect x="204.75" y="142.146" width="15.75" height="15.75" fill="white"/>
<rect x="236.25" y="142.146" width="15.75" height="15.75" fill="white"/>
<rect x="252" y="157.896" width="15.75" height="15.75" fill="white"/>
<rect x="315.001" y="31.8955" width="15.75" height="15.75" fill="white"/>
<rect x="330.75" y="47.6465" width="15.75" height="15.75" fill="white"/>
<rect x="330.75" y="126.396" width="15.75" height="15.75" fill="white"/>
<rect x="330.75" y="110.647" width="15.75" height="15.75" fill="white"/>
<rect x="315.001" y="110.647" width="15.75" height="15.75" fill="white"/>
<rect x="315.001" y="126.396" width="15.75" height="15.75" fill="white"/>
<rect x="330.75" y="142.146" width="15.75" height="15.75" fill="white"/>
<rect x="346.5" y="142.146" width="15.75" height="15.75" fill="white"/>
<rect x="362.251" y="157.896" width="15.75" height="15.75" fill="white"/>
<rect x="346.5" y="157.896" width="15.75" height="15.75" fill="white"/>
<rect x="47.2498" y="142.146" width="15.75" height="15.75" fill="white"/>
<rect x="47.2498" y="126.396" width="15.75" height="15.75" fill="white"/>
<rect x="47.2498" y="110.647" width="15.75" height="15.75" fill="white"/>
<rect x="31.5002" y="126.396" width="15.75" height="15.75" fill="white"/>
<rect x="31.5002" y="110.647" width="15.75" height="15.75" fill="white"/>
<rect x="31.5002" y="94.8965" width="15.75" height="15.75" fill="white"/>
<rect x="47.2498" y="79.1465" width="15.75" height="15.75" fill="white"/>
<rect x="47.2498" y="63.3965" width="15.75" height="15.75" fill="white"/>
<rect x="31.5002" y="47.6465" width="15.75" height="15.75" fill="white"/>
<rect x="31.5002" y="31.8955" width="15.75" height="15.75" fill="white"/>
<rect x="47.2498" y="16.1465" width="15.75" height="15.75" fill="white"/>
<rect x="15.7493" y="47.6465" width="15.75" height="15.75" fill="white"/>
<rect x="31.5002" y="63.3965" width="15.75" height="15.75" fill="white"/>
<rect x="31.5002" y="79.1465" width="15.75" height="15.75" fill="white"/>
<rect x="15.7493" y="79.1465" width="15.75" height="15.75" fill="white"/>
<rect x="15.7493" y="94.8965" width="15.75" height="15.75" fill="white"/>
<rect y="94.9766" width="15.75" height="15.75" fill="white"/>
<rect width="15.75" height="47.25" transform="matrix(1 0 0 -1 0 157.896)" fill="white"/>
<rect y="110.647" width="15.75" height="15.75" fill="white"/>
<rect y="126.396" width="15.75" height="15.75" fill="white"/>
<rect x="15.7493" y="110.647" width="15.75" height="15.75" fill="white"/>
<rect x="15.7493" y="126.396" width="15.75" height="15.75" fill="white"/>
<rect x="15.7493" y="142.146" width="15.75" height="15.75" fill="white"/>
<rect y="157.896" width="15.75" height="15.75" fill="white"/>
<rect x="15.7493" y="157.896" width="15.75" height="15.75" fill="white"/>
<rect x="31.5002" y="142.146" width="15.75" height="15.75" fill="white"/>
<rect x="47.2498" y="157.896" width="15.75" height="15.75" fill="white"/>
<rect x="31.5002" y="157.896" width="15.75" height="15.75" fill="white"/>
<rect x="346.5" y="79.1465" width="15.75" height="15.75" fill="white"/>
<rect x="362.251" y="79.1465" width="15.75" height="15.75" fill="white"/>
<rect x="362.251" y="94.8965" width="15.75" height="15.75" fill="white"/>
<rect x="346.5" y="110.647" width="15.75" height="15.75" fill="white"/>
<rect x="346.5" y="94.8965" width="15.75" height="15.75" fill="white"/>
<rect x="330.75" y="94.8965" width="15.75" height="15.75" fill="white"/>
<rect x="346.5" y="63.3965" width="15.75" height="15.75" fill="white"/>
<rect x="94.4998" y="142.146" width="15.75" height="15.75" fill="white"/>
<rect x="94.4998" y="126.396" width="15.75" height="15.75" fill="white"/>
<rect x="78.7502" y="110.647" width="15.75" height="15.75" fill="white"/>
<rect x="94.4998" y="110.647" width="15.75" height="15.75" fill="white"/>
<rect x="110.249" y="142.146" width="15.75" height="15.75" fill="white"/>
<rect x="62.9995" y="142.146" width="15.75" height="15.75" fill="white"/>
<rect x="62.9995" y="126.396" width="15.75" height="15.75" fill="white"/>
<rect x="78.7502" y="126.396" width="15.75" height="15.75" fill="white"/>
<rect x="78.7502" y="142.146" width="15.75" height="15.75" fill="white"/>
<rect x="62.9995" y="157.896" width="15.75" height="15.75" fill="white"/>
<rect x="78.7502" y="157.896" width="15.75" height="15.75" fill="white"/>
<rect x="78.7502" y="94.8965" width="15.75" height="15.75" fill="white"/>
<rect x="94.4998" y="79.1465" width="15.75" height="15.75" fill="white"/>
<rect x="78.7502" y="63.3965" width="15.75" height="15.75" fill="white"/>
<rect x="252" y="47.6465" width="15.75" height="15.75" fill="white"/>
<rect x="126.001" y="94.8965" width="15.75" height="15.75" fill="white"/>
<rect x="141.75" y="79.1465" width="15.75" height="15.75" fill="white"/>
<rect x="173.25" y="63.3965" width="15.75" height="15.75" fill="white"/>
<rect width="15.75" height="15.75" transform="matrix(-1 0 0 1 976.501 31.8955)" fill="white"/>
<rect width="15.75" height="15.75" transform="matrix(-1 0 0 1 960.75 47.6465)" fill="white"/>
<rect width="15.75" height="15.75" transform="matrix(-1 0 0 1 945 63.3965)" fill="white"/>
<rect width="15.75" height="15.75" transform="matrix(-1 0 0 1 945 79.1465)" fill="white"/>
<rect width="15.75" height="15.75" transform="matrix(-1 0 0 1 945 94.8965)" fill="white"/>
<rect width="15.75" height="15.75" transform="matrix(-1 0 0 1 960.75 94.8965)" fill="white"/>
<rect width="15.75" height="15.75" transform="matrix(-1 0 0 1 976.501 110.647)" fill="white"/>
<rect width="15.75" height="15.75" transform="matrix(-1 0 0 1 960.75 110.647)" fill="white"/>
<rect width="15.75" height="15.75" transform="matrix(-1 0 0 1 945 110.647)" fill="white"/>
<rect width="15.75" height="15.75" transform="matrix(-1 0 0 1 960.75 126.396)" fill="white"/>
<rect width="15.75" height="15.75" transform="matrix(-1 0 0 1 960.75 142.146)" fill="white"/>
<rect width="15.75" height="15.75" transform="matrix(-1 0 0 1 945 142.146)" fill="white"/>
<rect width="15.75" height="15.75" transform="matrix(-1 0 0 1 945 157.898)" fill="white"/>
<rect width="15.75" height="15.75" transform="matrix(-1 0 0 1 929.251 157.898)" fill="white"/>
<rect width="15.75" height="15.75" transform="matrix(-1 0 0 1 913.5 142.146)" fill="white"/>
<rect width="15.75" height="15.75" transform="matrix(-1 0 0 1 913.5 126.396)" fill="white"/>
<rect width="15.75" height="15.75" transform="matrix(-1 0 0 1 913.5 110.647)" fill="white"/>
<rect width="15.75" height="15.75" transform="matrix(-1 0 0 1 897.751 94.8965)" fill="white"/>
<rect width="15.75" height="15.75" transform="matrix(-1 0 0 1 882.001 79.1465)" fill="white"/>
<rect width="15.75" height="15.75" transform="matrix(-1 0 0 1 897.751 63.3965)" fill="white"/>
<rect width="15.75" height="15.75" transform="matrix(-1 0 0 1 882.001 94.8965)" fill="white"/>
<rect width="15.75" height="15.75" transform="matrix(-1 0 0 1 897.751 110.647)" fill="white"/>
<rect width="15.75" height="15.75" transform="matrix(-1 0 0 1 882.001 126.396)" fill="white"/>
<rect width="15.75" height="15.75" transform="matrix(-1 0 0 1 897.751 126.396)" fill="white"/>
<rect width="15.75" height="15.75" transform="matrix(-1 0 0 1 992.25 110.647)" fill="white"/>
<rect width="15.75" height="15.75" transform="matrix(-1 0 0 1 1008 110.647)" fill="white"/>
<rect width="15.75" height="15.75" transform="matrix(-1 0 0 1 992.25 126.396)" fill="white"/>
<rect width="15.75" height="15.75" transform="matrix(-1 0 0 1 976.501 126.396)" fill="white"/>
<rect width="15.75" height="15.75" transform="matrix(-1 0 0 1 976.501 142.146)" fill="white"/>
<rect width="15.75" height="15.75" transform="matrix(-1 0 0 1 992.25 157.898)" fill="white"/>
<rect width="267.75" height="15.75" transform="matrix(-1 0 0 1 1134 173.646)" fill="white"/>
<rect width="283.5" height="15.75" transform="matrix(-1 0 0 1 1134 189.396)" fill="white"/>
<rect width="15.75" height="15.75" transform="matrix(-1 0 0 1 1039.5 157.898)" fill="white"/>
<rect x="1008" y="157.898" width="15.75" height="15.75" fill="white"/>
<rect width="31.5" height="15.75" transform="matrix(-1 0 0 1 913.5 157.898)" fill="white"/>
<rect width="31.5" height="15.75" transform="matrix(-1 0 0 1 976.501 157.898)" fill="white"/>
<rect width="15.75" height="15.75" transform="matrix(-1 0 0 1 882.001 142.146)" fill="white"/>
<rect width="15.75" height="15.75" transform="matrix(-1 0 0 1 866.25 142.146)" fill="white"/>
<rect width="15.75" height="15.75" transform="matrix(-1 0 0 1 866.25 157.898)" fill="white"/>
<rect width="15.75" height="15.75" transform="matrix(-1 0 0 1 834.751 157.898)" fill="white"/>
<rect width="15.75" height="15.75" transform="matrix(-1 0 0 1 819 157.898)" fill="white"/>
<rect width="47.25" height="15.75" transform="matrix(-1 0 0 1 866.25 173.646)" fill="white"/>
<rect width="94.5" height="15.75" transform="matrix(-1 0 0 1 850.501 189.396)" fill="white"/>
<rect width="63" height="15.75" transform="matrix(-1 0 0 1 819 173.646)" fill="white"/>
<rect width="15.75" height="15.75" transform="matrix(-1 0 0 1 803.251 157.898)" fill="white"/>
<rect width="15.75" height="15.75" transform="matrix(-1 0 0 1 819 142.146)" fill="white"/>
<rect width="15.75" height="15.75" transform="matrix(-1 0 0 1 834.751 126.396)" fill="white"/>
<rect width="15.75" height="15.75" transform="matrix(-1 0 0 1 834.751 110.647)" fill="white"/>
<rect width="15.75" height="15.75" transform="matrix(-1 0 0 1 819 94.8965)" fill="white"/>
<rect width="15.75" height="15.75" transform="matrix(-1 0 0 1 803.251 79.1465)" fill="white"/>
<rect width="15.75" height="15.75" transform="matrix(-1 0 0 1 803.251 63.3965)" fill="white"/>
<rect width="15.75" height="15.75" transform="matrix(-1 0 0 1 819 47.6465)" fill="white"/>
<rect width="15.75" height="15.75" transform="matrix(-1 0 0 1 834.751 31.8955)" fill="white"/>
<rect width="15.75" height="15.75" transform="matrix(-1 0 0 1 834.751 16.1465)" fill="white"/>
<rect width="15.75" height="15.75" transform="matrix(-1 0 0 1 819 0.396484)" fill="white"/>
<rect width="15.75" height="15.75" transform="matrix(-1 0 0 1 929.251 142.146)" fill="white"/>
<rect width="15.75" height="15.75" transform="matrix(-1 0 0 1 897.751 142.146)" fill="white"/>
<rect width="15.75" height="15.75" transform="matrix(-1 0 0 1 882.001 157.898)" fill="white"/>
<rect width="15.75" height="15.75" transform="matrix(-1 0 0 1 819 31.8955)" fill="white"/>
<rect width="15.75" height="15.75" transform="matrix(-1 0 0 1 803.251 47.6465)" fill="white"/>
<rect width="15.75" height="15.75" transform="matrix(-1 0 0 1 803.251 126.396)" fill="white"/>
<rect width="15.75" height="15.75" transform="matrix(-1 0 0 1 803.251 110.647)" fill="white"/>
<rect width="15.75" height="15.75" transform="matrix(-1 0 0 1 819 110.647)" fill="white"/>
<rect width="15.75" height="15.75" transform="matrix(-1 0 0 1 819 126.396)" fill="white"/>
<rect width="15.75" height="15.75" transform="matrix(-1 0 0 1 803.251 142.146)" fill="white"/>
<rect width="15.75" height="15.75" transform="matrix(-1 0 0 1 787.501 142.146)" fill="white"/>
<rect width="15.75" height="15.75" transform="matrix(-1 0 0 1 771.75 157.898)" fill="white"/>
<rect width="15.75" height="15.75" transform="matrix(-1 0 0 1 787.501 157.898)" fill="white"/>
<rect width="15.75" height="15.75" transform="matrix(-1 0 0 1 1086.75 142.146)" fill="white"/>
<rect width="15.75" height="15.75" transform="matrix(-1 0 0 1 1086.75 126.396)" fill="white"/>
<rect width="15.75" height="15.75" transform="matrix(-1 0 0 1 1086.75 110.647)" fill="white"/>
<rect width="15.75" height="15.75" transform="matrix(-1 0 0 1 1102.5 126.396)" fill="white"/>
<rect width="15.75" height="15.75" transform="matrix(-1 0 0 1 1102.5 110.647)" fill="white"/>
<rect width="15.75" height="15.75" transform="matrix(-1 0 0 1 1102.5 94.8965)" fill="white"/>
<rect width="15.75" height="15.75" transform="matrix(-1 0 0 1 1086.75 79.1465)" fill="white"/>
<rect width="15.75" height="15.75" transform="matrix(-1 0 0 1 1086.75 63.3965)" fill="white"/>
<rect width="15.75" height="15.75" transform="matrix(-1 0 0 1 1102.5 47.6465)" fill="white"/>
<rect width="15.75" height="15.75" transform="matrix(-1 0 0 1 1102.5 31.8955)" fill="white"/>
<rect width="15.75" height="15.75" transform="matrix(-1 0 0 1 1086.75 16.1465)" fill="white"/>
<rect width="15.75" height="15.75" transform="matrix(-1 0 0 1 1118.25 47.6465)" fill="white"/>
<rect width="15.75" height="15.75" transform="matrix(-1 0 0 1 1102.5 63.3965)" fill="white"/>
<rect width="15.75" height="15.75" transform="matrix(-1 0 0 1 1102.5 79.1465)" fill="white"/>
<rect width="15.75" height="15.75" transform="matrix(-1 0 0 1 1118.25 79.1465)" fill="white"/>
<rect width="15.75" height="15.75" transform="matrix(-1 0 0 1 1118.25 94.8965)" fill="white"/>
<rect width="15.75" height="15.75" transform="matrix(-1 0 0 1 1134 94.9766)" fill="white"/>
<rect x="1134" y="157.898" width="15.75" height="47.25" transform="rotate(180 1134 157.898)" fill="white"/>
<rect width="15.75" height="15.75" transform="matrix(-1 0 0 1 1134 110.647)" fill="white"/>
<rect width="15.75" height="15.75" transform="matrix(-1 0 0 1 1134 126.396)" fill="white"/>
<rect width="15.75" height="15.75" transform="matrix(-1 0 0 1 1118.25 110.647)" fill="white"/>
<rect width="15.75" height="15.75" transform="matrix(-1 0 0 1 1118.25 126.396)" fill="white"/>
<rect width="15.75" height="15.75" transform="matrix(-1 0 0 1 1118.25 142.146)" fill="white"/>
<rect width="15.75" height="15.75" transform="matrix(-1 0 0 1 1134 157.898)" fill="white"/>
<rect width="15.75" height="15.75" transform="matrix(-1 0 0 1 1118.25 157.898)" fill="white"/>
<rect width="15.75" height="15.75" transform="matrix(-1 0 0 1 1102.5 142.146)" fill="white"/>
<rect width="15.75" height="15.75" transform="matrix(-1 0 0 1 1086.75 157.898)" fill="white"/>
<rect width="15.75" height="15.75" transform="matrix(-1 0 0 1 1102.5 157.898)" fill="white"/>
<rect width="15.75" height="15.75" transform="matrix(-1 0 0 1 787.501 79.1465)" fill="white"/>
<rect width="15.75" height="15.75" transform="matrix(-1 0 0 1 771.75 94.8965)" fill="white"/>
<rect width="15.75" height="15.75" transform="matrix(-1 0 0 1 787.501 110.647)" fill="white"/>
<rect width="15.75" height="15.75" transform="matrix(-1 0 0 1 787.501 94.8965)" fill="white"/>
<rect width="15.75" height="15.75" transform="matrix(-1 0 0 1 803.251 94.8965)" fill="white"/>
<rect width="15.75" height="15.75" transform="matrix(-1 0 0 1 787.501 63.3965)" fill="white"/>
<rect width="15.75" height="15.75" transform="matrix(-1 0 0 1 1039.5 142.146)" fill="white"/>
<rect width="15.75" height="15.75" transform="matrix(-1 0 0 1 1039.5 126.396)" fill="white"/>
<rect width="15.75" height="15.75" transform="matrix(-1 0 0 1 1055.25 110.647)" fill="white"/>
<rect width="15.75" height="15.75" transform="matrix(-1 0 0 1 1039.5 110.647)" fill="white"/>
<rect width="15.75" height="15.75" transform="matrix(-1 0 0 1 1023.75 142.146)" fill="white"/>
<rect width="15.75" height="15.75" transform="matrix(-1 0 0 1 1071 142.146)" fill="white"/>
<rect width="15.75" height="15.75" transform="matrix(-1 0 0 1 1071 126.396)" fill="white"/>
<rect width="15.75" height="15.75" transform="matrix(-1 0 0 1 1055.25 126.396)" fill="white"/>
<rect width="15.75" height="15.75" transform="matrix(-1 0 0 1 1055.25 142.146)" fill="white"/>
<rect width="15.75" height="15.75" transform="matrix(-1 0 0 1 1071 157.898)" fill="white"/>
<rect width="15.75" height="15.75" transform="matrix(-1 0 0 1 1055.25 157.898)" fill="white"/>
<rect width="15.75" height="15.75" transform="matrix(-1 0 0 1 1055.25 94.8965)" fill="white"/>
<rect width="15.75" height="15.75" transform="matrix(-1 0 0 1 1039.5 79.1465)" fill="white"/>
<rect width="15.75" height="15.75" transform="matrix(-1 0 0 1 1055.25 63.3965)" fill="white"/>
<rect width="15.75" height="15.75" transform="matrix(-1 0 0 1 882.001 47.6465)" fill="white"/>
<rect width="15.75" height="15.75" transform="matrix(-1 0 0 1 1008 94.8965)" fill="white"/>
<rect width="15.75" height="15.75" transform="matrix(-1 0 0 1 992.25 79.1465)" fill="white"/>
<rect width="15.75" height="15.75" transform="matrix(-1 0 0 1 960.75 63.3965)" fill="white"/>
<rect x="535.5" y="31.8965" width="15.75" height="15.75" fill="white"/>
<rect x="551.251" y="47.6455" width="15.75" height="15.75" fill="white"/>
<rect x="567" y="63.3965" width="15.75" height="15.75" fill="white"/>
<rect x="567" y="79.1465" width="15.75" height="15.75" fill="white"/>
<rect x="567" y="94.8965" width="15.75" height="15.75" fill="white"/>
<rect x="551.251" y="94.8965" width="15.75" height="15.75" fill="white"/>
<rect x="535.5" y="110.646" width="15.75" height="15.75" fill="white"/>
<rect x="551.251" y="110.646" width="15.75" height="15.75" fill="white"/>
<rect x="567" y="110.646" width="15.75" height="15.75" fill="white"/>
<rect x="551.251" y="126.396" width="15.75" height="15.75" fill="white"/>
<rect x="551.251" y="142.146" width="15.75" height="15.75" fill="white"/>
<rect x="567" y="142.146" width="15.75" height="15.75" fill="white"/>
<rect x="567" y="157.896" width="15.75" height="15.75" fill="white"/>
<rect x="582.75" y="157.896" width="15.75" height="15.75" fill="white"/>
<rect x="598.501" y="142.146" width="15.75" height="15.75" fill="white"/>
<rect x="598.501" y="126.396" width="15.75" height="15.75" fill="white"/>
<rect x="598.501" y="110.646" width="15.75" height="15.75" fill="white"/>
<rect x="614.25" y="94.8965" width="15.75" height="15.75" fill="white"/>
<rect x="630" y="79.1465" width="15.75" height="15.75" fill="white"/>
<rect x="614.25" y="63.3965" width="15.75" height="15.75" fill="white"/>
<rect x="630" y="94.8965" width="15.75" height="15.75" fill="white"/>
<rect x="614.25" y="110.646" width="15.75" height="15.75" fill="white"/>
<rect x="630" y="126.396" width="15.75" height="15.75" fill="white"/>
<rect x="614.25" y="126.396" width="15.75" height="15.75" fill="white"/>
<rect x="519.75" y="110.646" width="15.75" height="15.75" fill="white"/>
<rect x="504.001" y="110.646" width="15.75" height="15.75" fill="white"/>
<rect x="519.75" y="126.396" width="15.75" height="15.75" fill="white"/>
<rect x="535.5" y="126.396" width="15.75" height="15.75" fill="white"/>
<rect x="535.5" y="142.146" width="15.75" height="15.75" fill="white"/>
<rect x="519.75" y="157.896" width="15.75" height="15.75" fill="white"/>
<rect x="378" y="173.646" width="267.75" height="15.75" fill="white"/>
<rect x="378" y="189.396" width="283.5" height="15.75" fill="white"/>
<rect x="472.5" y="157.896" width="15.75" height="15.75" fill="white"/>
<rect width="15.75" height="15.75" transform="matrix(-1 0 0 1 504.001 157.896)" fill="white"/>
<rect x="598.501" y="157.896" width="31.5" height="15.75" fill="white"/>
<rect x="535.5" y="157.896" width="31.5" height="15.75" fill="white"/>
<rect x="630" y="142.146" width="15.75" height="15.75" fill="white"/>
<rect x="645.75" y="142.146" width="15.75" height="15.75" fill="white"/>
<rect x="645.75" y="157.896" width="15.75" height="15.75" fill="white"/>
<rect x="677.25" y="157.896" width="15.75" height="15.75" fill="white"/>
<rect x="693.001" y="157.896" width="15.75" height="15.75" fill="white"/>
<rect x="645.75" y="173.646" width="47.25" height="15.75" fill="white"/>
<rect x="661.5" y="189.396" width="94.5" height="15.75" fill="white"/>
<rect x="693.001" y="173.646" width="63" height="15.75" fill="white"/>
<rect x="708.75" y="157.896" width="15.75" height="15.75" fill="white"/>
<rect x="693.001" y="142.146" width="15.75" height="15.75" fill="white"/>
<rect x="677.25" y="126.396" width="15.75" height="15.75" fill="white"/>
<rect x="677.25" y="110.646" width="15.75" height="15.75" fill="white"/>
<rect x="693.001" y="94.8965" width="15.75" height="15.75" fill="white"/>
<rect x="708.75" y="79.1465" width="15.75" height="15.75" fill="white"/>
<rect x="708.75" y="63.3965" width="15.75" height="15.75" fill="white"/>
<rect x="693.001" y="47.6455" width="15.75" height="15.75" fill="white"/>
<rect x="582.75" y="142.146" width="15.75" height="15.75" fill="white"/>
<rect x="614.25" y="142.146" width="15.75" height="15.75" fill="white"/>
<rect x="630" y="157.896" width="15.75" height="15.75" fill="white"/>
<rect x="693.001" y="31.8965" width="15.75" height="15.75" fill="white"/>
<rect x="708.75" y="47.6455" width="15.75" height="15.75" fill="white"/>
<rect x="708.75" y="126.396" width="15.75" height="15.75" fill="white"/>
<rect x="708.75" y="110.646" width="15.75" height="15.75" fill="white"/>
<rect x="693.001" y="110.646" width="15.75" height="15.75" fill="white"/>
<rect x="693.001" y="126.396" width="15.75" height="15.75" fill="white"/>
<rect x="708.75" y="142.146" width="15.75" height="15.75" fill="white"/>
<rect x="724.5" y="142.146" width="15.75" height="15.75" fill="white"/>
<rect x="740.251" y="157.896" width="15.75" height="15.75" fill="white"/>
<rect x="724.5" y="157.896" width="15.75" height="15.75" fill="white"/>
<rect x="425.25" y="142.146" width="15.75" height="15.75" fill="white"/>
<rect x="425.25" y="126.396" width="15.75" height="15.75" fill="white"/>
<rect x="425.25" y="110.646" width="15.75" height="15.75" fill="white"/>
<rect x="409.501" y="126.396" width="15.75" height="15.75" fill="white"/>
<rect x="409.501" y="110.646" width="15.75" height="15.75" fill="white"/>
<rect x="409.501" y="94.8965" width="15.75" height="15.75" fill="white"/>
<rect x="425.25" y="79.1465" width="15.75" height="15.75" fill="white"/>
<rect x="425.25" y="63.3965" width="15.75" height="15.75" fill="white"/>
<rect x="409.501" y="47.6455" width="15.75" height="15.75" fill="white"/>
<rect x="425.25" y="16.1465" width="15.75" height="15.75" fill="white"/>
<rect x="409.501" y="63.3965" width="15.75" height="15.75" fill="white"/>
<rect x="409.501" y="79.1465" width="15.75" height="15.75" fill="white"/>
<rect x="393.75" y="94.8965" width="15.75" height="15.75" fill="white"/>
<rect width="15.75" height="31.5" transform="matrix(1 0 0 -1 378 157.896)" fill="white"/>
<rect x="378" y="126.396" width="15.75" height="15.75" fill="white"/>
<rect x="393.75" y="110.646" width="15.75" height="15.75" fill="white"/>
<rect x="393.75" y="126.396" width="15.75" height="15.75" fill="white"/>
<rect x="393.75" y="142.146" width="15.75" height="15.75" fill="white"/>
<rect x="378" y="157.896" width="15.75" height="15.75" fill="white"/>
<rect x="393.75" y="157.896" width="15.75" height="15.75" fill="white"/>
<rect x="409.501" y="142.146" width="15.75" height="15.75" fill="white"/>
<rect x="425.25" y="157.896" width="15.75" height="15.75" fill="white"/>
<rect x="409.501" y="157.896" width="15.75" height="15.75" fill="white"/>
<rect x="724.5" y="79.1465" width="15.75" height="15.75" fill="white"/>
<rect x="740.251" y="79.1465" width="15.75" height="15.75" fill="white"/>
<rect x="724.5" y="110.646" width="15.75" height="15.75" fill="white"/>
<rect x="724.5" y="94.8965" width="15.75" height="15.75" fill="white"/>
<rect x="708.75" y="94.8965" width="15.75" height="15.75" fill="white"/>
<rect x="724.5" y="63.3965" width="15.75" height="15.75" fill="white"/>
<rect x="472.5" y="142.146" width="15.75" height="15.75" fill="white"/>
<rect x="472.5" y="126.396" width="15.75" height="15.75" fill="white"/>
<rect x="456.751" y="110.646" width="15.75" height="15.75" fill="white"/>
<rect x="472.5" y="110.646" width="15.75" height="15.75" fill="white"/>
<rect x="488.25" y="142.146" width="15.75" height="15.75" fill="white"/>
<rect x="441" y="142.146" width="15.75" height="15.75" fill="white"/>
<rect x="441" y="126.396" width="15.75" height="15.75" fill="white"/>
<rect x="456.751" y="126.396" width="15.75" height="15.75" fill="white"/>
<rect x="456.751" y="142.146" width="15.75" height="15.75" fill="white"/>
<rect x="441" y="157.896" width="15.75" height="15.75" fill="white"/>
<rect x="456.751" y="157.896" width="15.75" height="15.75" fill="white"/>
<rect x="456.751" y="94.8965" width="15.75" height="15.75" fill="white"/>
<rect x="472.5" y="79.1465" width="15.75" height="15.75" fill="white"/>
<rect x="456.751" y="63.3965" width="15.75" height="15.75" fill="white"/>
<rect x="630" y="47.6455" width="15.75" height="15.75" fill="white"/>
<rect x="504.001" y="94.8965" width="15.75" height="15.75" fill="white"/>
<rect x="519.75" y="79.1465" width="15.75" height="15.75" fill="white"/>
<rect x="551.251" y="63.3965" width="15.75" height="15.75" fill="white"/>
<rect width="15.75" height="15.75" transform="matrix(-1 0 0 1 1354.5 31.8965)" fill="white"/>
<rect width="15.75" height="15.75" transform="matrix(-1 0 0 1 1338.75 47.6455)" fill="white"/>
<rect width="15.75" height="15.75" transform="matrix(-1 0 0 1 1323 63.3965)" fill="white"/>
<rect width="15.75" height="15.75" transform="matrix(-1 0 0 1 1323 79.1465)" fill="white"/>
<rect width="15.75" height="15.75" transform="matrix(-1 0 0 1 1323 94.8965)" fill="white"/>
<rect width="15.75" height="15.75" transform="matrix(-1 0 0 1 1338.75 94.8965)" fill="white"/>
<rect width="15.75" height="15.75" transform="matrix(-1 0 0 1 1354.5 110.646)" fill="white"/>
<rect width="15.75" height="15.75" transform="matrix(-1 0 0 1 1338.75 110.646)" fill="white"/>
<rect width="15.75" height="15.75" transform="matrix(-1 0 0 1 1323 110.646)" fill="white"/>
<rect width="15.75" height="15.75" transform="matrix(-1 0 0 1 1338.75 126.396)" fill="white"/>
<rect width="15.75" height="15.75" transform="matrix(-1 0 0 1 1338.75 142.146)" fill="white"/>
<rect width="15.75" height="15.75" transform="matrix(-1 0 0 1 1323 142.146)" fill="white"/>
<rect width="15.75" height="15.75" transform="matrix(-1 0 0 1 1323 157.896)" fill="white"/>
<rect width="15.75" height="15.75" transform="matrix(-1 0 0 1 1307.25 157.896)" fill="white"/>
<rect width="15.75" height="15.75" transform="matrix(-1 0 0 1 1291.5 142.146)" fill="white"/>
<rect width="15.75" height="15.75" transform="matrix(-1 0 0 1 1291.5 126.396)" fill="white"/>
<rect width="15.75" height="15.75" transform="matrix(-1 0 0 1 1291.5 110.646)" fill="white"/>
<rect width="15.75" height="15.75" transform="matrix(-1 0 0 1 1275.75 94.8965)" fill="white"/>
<rect width="15.75" height="15.75" transform="matrix(-1 0 0 1 1260 79.1465)" fill="white"/>
<rect width="15.75" height="15.75" transform="matrix(-1 0 0 1 1275.75 63.3965)" fill="white"/>
<rect width="15.75" height="15.75" transform="matrix(-1 0 0 1 1260 94.8965)" fill="white"/>
<rect width="15.75" height="15.75" transform="matrix(-1 0 0 1 1275.75 110.646)" fill="white"/>
<rect width="15.75" height="15.75" transform="matrix(-1 0 0 1 1260 126.396)" fill="white"/>
<rect width="15.75" height="15.75" transform="matrix(-1 0 0 1 1275.75 126.396)" fill="white"/>
<rect width="15.75" height="15.75" transform="matrix(-1 0 0 1 1370.25 110.646)" fill="white"/>
<rect width="15.75" height="15.75" transform="matrix(-1 0 0 1 1386 110.646)" fill="white"/>
<rect width="15.75" height="15.75" transform="matrix(-1 0 0 1 1370.25 126.396)" fill="white"/>
<rect width="15.75" height="15.75" transform="matrix(-1 0 0 1 1354.5 126.396)" fill="white"/>
<rect width="15.75" height="15.75" transform="matrix(-1 0 0 1 1354.5 142.146)" fill="white"/>
<rect width="15.75" height="15.75" transform="matrix(-1 0 0 1 1370.25 157.896)" fill="white"/>
<rect width="267.75" height="15.75" transform="matrix(-1 0 0 1 1512 173.646)" fill="white"/>
<rect width="283.5" height="15.75" transform="matrix(-1 0 0 1 1512 189.396)" fill="white"/>
<rect width="15.75" height="15.75" transform="matrix(-1 0 0 1 1417.5 157.896)" fill="white"/>
<rect x="1386" y="157.896" width="15.75" height="15.75" fill="white"/>
<rect width="31.5" height="15.75" transform="matrix(-1 0 0 1 1291.5 157.896)" fill="white"/>
<rect width="31.5" height="15.75" transform="matrix(-1 0 0 1 1354.5 157.896)" fill="white"/>
<rect width="15.75" height="15.75" transform="matrix(-1 0 0 1 1260 142.146)" fill="white"/>
<rect width="15.75" height="15.75" transform="matrix(-1 0 0 1 1244.25 142.146)" fill="white"/>
<rect width="15.75" height="15.75" transform="matrix(-1 0 0 1 1244.25 157.896)" fill="white"/>
<rect width="15.75" height="15.75" transform="matrix(-1 0 0 1 1212.75 157.896)" fill="white"/>
<rect width="15.75" height="15.75" transform="matrix(-1 0 0 1 1197 157.896)" fill="white"/>
<rect width="47.25" height="15.75" transform="matrix(-1 0 0 1 1244.25 173.646)" fill="white"/>
<rect width="94.5" height="15.75" transform="matrix(-1 0 0 1 1228.5 189.396)" fill="white"/>
<rect width="63" height="15.75" transform="matrix(-1 0 0 1 1197 173.646)" fill="white"/>
<rect width="15.75" height="15.75" transform="matrix(-1 0 0 1 1181.25 157.896)" fill="white"/>
<rect width="15.75" height="15.75" transform="matrix(-1 0 0 1 1197 142.146)" fill="white"/>
<rect width="15.75" height="15.75" transform="matrix(-1 0 0 1 1212.75 126.396)" fill="white"/>
<rect width="15.75" height="15.75" transform="matrix(-1 0 0 1 1212.75 110.646)" fill="white"/>
<rect width="15.75" height="15.75" transform="matrix(-1 0 0 1 1197 94.8965)" fill="white"/>
<rect width="15.75" height="15.75" transform="matrix(-1 0 0 1 1181.25 79.1465)" fill="white"/>
<rect width="15.75" height="15.75" transform="matrix(-1 0 0 1 1181.25 63.3965)" fill="white"/>
<rect width="15.75" height="15.75" transform="matrix(-1 0 0 1 1197 47.6455)" fill="white"/>
<rect width="15.75" height="15.75" transform="matrix(-1 0 0 1 1307.25 142.146)" fill="white"/>
<rect width="15.75" height="15.75" transform="matrix(-1 0 0 1 1275.75 142.146)" fill="white"/>
<rect width="15.75" height="15.75" transform="matrix(-1 0 0 1 1260 157.896)" fill="white"/>
<rect width="15.75" height="15.75" transform="matrix(-1 0 0 1 1197 31.8965)" fill="white"/>
<rect width="15.75" height="15.75" transform="matrix(-1 0 0 1 1181.25 47.6455)" fill="white"/>
<rect width="15.75" height="15.75" transform="matrix(-1 0 0 1 1181.25 126.396)" fill="white"/>
<rect width="15.75" height="15.75" transform="matrix(-1 0 0 1 1181.25 110.646)" fill="white"/>
<rect width="15.75" height="15.75" transform="matrix(-1 0 0 1 1197 110.646)" fill="white"/>
<rect width="15.75" height="15.75" transform="matrix(-1 0 0 1 1197 126.396)" fill="white"/>
<rect width="15.75" height="15.75" transform="matrix(-1 0 0 1 1181.25 142.146)" fill="white"/>
<rect width="15.75" height="15.75" transform="matrix(-1 0 0 1 1165.5 142.146)" fill="white"/>
<rect width="15.75" height="15.75" transform="matrix(-1 0 0 1 1149.75 157.896)" fill="white"/>
<rect width="15.75" height="15.75" transform="matrix(-1 0 0 1 1165.5 157.896)" fill="white"/>
<rect width="15.75" height="15.75" transform="matrix(-1 0 0 1 1464.75 142.146)" fill="white"/>
<rect width="15.75" height="15.75" transform="matrix(-1 0 0 1 1464.75 126.396)" fill="white"/>
<rect width="15.75" height="15.75" transform="matrix(-1 0 0 1 1464.75 110.646)" fill="white"/>
<rect width="15.75" height="15.75" transform="matrix(-1 0 0 1 1480.5 126.396)" fill="white"/>
<rect width="15.75" height="15.75" transform="matrix(-1 0 0 1 1480.5 110.646)" fill="white"/>
<rect width="15.75" height="15.75" transform="matrix(-1 0 0 1 1480.5 94.8965)" fill="white"/>
<rect width="15.75" height="15.75" transform="matrix(-1 0 0 1 1464.75 79.1465)" fill="white"/>
<rect width="15.75" height="15.75" transform="matrix(-1 0 0 1 1464.75 63.3965)" fill="white"/>
<rect width="15.75" height="15.75" transform="matrix(-1 0 0 1 1480.5 47.6455)" fill="white"/>
<rect width="15.75" height="15.75" transform="matrix(-1 0 0 1 1464.75 16.1465)" fill="white"/>
<rect width="15.75" height="15.75" transform="matrix(-1 0 0 1 1480.5 63.3965)" fill="white"/>
<rect width="15.75" height="15.75" transform="matrix(-1 0 0 1 1480.5 79.1465)" fill="white"/>
<rect width="15.75" height="15.75" transform="matrix(-1 0 0 1 1496.25 94.8965)" fill="white"/>
<rect x="1512" y="157.896" width="15.75" height="31.5" transform="rotate(180 1512 157.896)" fill="white"/>
<rect width="15.75" height="15.75" transform="matrix(-1 0 0 1 1512 126.396)" fill="white"/>
<rect width="15.75" height="15.75" transform="matrix(-1 0 0 1 1496.25 110.646)" fill="white"/>
<rect width="15.75" height="15.75" transform="matrix(-1 0 0 1 1496.25 126.396)" fill="white"/>
<rect width="15.75" height="15.75" transform="matrix(-1 0 0 1 1496.25 142.146)" fill="white"/>
<rect width="15.75" height="15.75" transform="matrix(-1 0 0 1 1512 157.896)" fill="white"/>
<rect width="15.75" height="15.75" transform="matrix(-1 0 0 1 1496.25 157.896)" fill="white"/>
<rect width="15.75" height="15.75" transform="matrix(-1 0 0 1 1480.5 142.146)" fill="white"/>
<rect width="15.75" height="15.75" transform="matrix(-1 0 0 1 1464.75 157.896)" fill="white"/>
<rect width="15.75" height="15.75" transform="matrix(-1 0 0 1 1480.5 157.896)" fill="white"/>
<rect width="15.75" height="15.75" transform="matrix(-1 0 0 1 1165.5 79.1465)" fill="white"/>
<rect width="15.75" height="15.75" transform="matrix(-1 0 0 1 1149.75 79.1465)" fill="white"/>
<rect width="15.75" height="15.75" transform="matrix(-1 0 0 1 1165.5 110.646)" fill="white"/>
<rect width="15.75" height="15.75" transform="matrix(-1 0 0 1 1165.5 94.8965)" fill="white"/>
<rect width="15.75" height="15.75" transform="matrix(-1 0 0 1 1181.25 94.8965)" fill="white"/>
<rect width="15.75" height="15.75" transform="matrix(-1 0 0 1 1165.5 63.3965)" fill="white"/>
<rect width="15.75" height="15.75" transform="matrix(-1 0 0 1 1417.5 142.146)" fill="white"/>
<rect width="15.75" height="15.75" transform="matrix(-1 0 0 1 1417.5 126.396)" fill="white"/>
<rect width="15.75" height="15.75" transform="matrix(-1 0 0 1 1433.25 110.646)" fill="white"/>
<rect width="15.75" height="15.75" transform="matrix(-1 0 0 1 1417.5 110.646)" fill="white"/>
<rect width="15.75" height="15.75" transform="matrix(-1 0 0 1 1401.75 142.146)" fill="white"/>
<rect width="15.75" height="15.75" transform="matrix(-1 0 0 1 1449 142.146)" fill="white"/>
<rect width="15.75" height="15.75" transform="matrix(-1 0 0 1 1449 126.396)" fill="white"/>
<rect width="15.75" height="15.75" transform="matrix(-1 0 0 1 1433.25 126.396)" fill="white"/>
<rect width="15.75" height="15.75" transform="matrix(-1 0 0 1 1433.25 142.146)" fill="white"/>
<rect width="15.75" height="15.75" transform="matrix(-1 0 0 1 1449 157.896)" fill="white"/>
<rect width="15.75" height="15.75" transform="matrix(-1 0 0 1 1433.25 157.896)" fill="white"/>
<rect width="15.75" height="15.75" transform="matrix(-1 0 0 1 1433.25 94.8965)" fill="white"/>
<rect width="15.75" height="15.75" transform="matrix(-1 0 0 1 1417.5 79.1465)" fill="white"/>
<rect width="15.75" height="15.75" transform="matrix(-1 0 0 1 1433.25 63.3965)" fill="white"/>
<rect width="15.75" height="15.75" transform="matrix(-1 0 0 1 1260 47.6455)" fill="white"/>
<rect width="15.75" height="15.75" transform="matrix(-1 0 0 1 1386 94.8965)" fill="white"/>
<rect width="15.75" height="15.75" transform="matrix(-1 0 0 1 1370.25 79.1465)" fill="white"/>
<rect width="15.75" height="15.75" transform="matrix(-1 0 0 1 1338.75 63.3965)" fill="white"/>
</svg>
