<svg width="226" height="213" viewBox="0 0 226 213" fill="none" xmlns="http://www.w3.org/2000/svg">
<path d="M179.412 113.1V33.525V20.2625H166.15V7H138.534V46.7875H126.362V20.2625H113.1V7H86.575V46.7875H73.3125V60.05H60.05V86.575H20.2625V99.8375H7V126.362H60.05V192.675H86.575V205.938H113.1V192.675H125.437V205.938H152.887V192.675H179.412V179.412H205.938V166.15H219.2V126.362H205.938V113.1H179.412Z" fill="#252525" stroke="#252525" stroke-width="13.0608"/>
<path fill-rule="evenodd" clip-rule="evenodd" d="M106.468 13.6313V27.0214H119.731V53.8014H146.256V13.6313H159.518V27.0214H172.781V159.519H199.306V172.781H172.781V186.044H146.256V199.306H132.993V186.044H106.468V199.306H93.2059V186.044H66.6809V132.994H119.731V119.731H13.6309V106.469H26.8934V93.2063H66.6809V66.6813H79.9434V53.8014H93.2059V13.6313H106.468ZM93.2059 79.9438V93.2063H106.468V79.9438H93.2059ZM119.731 79.9438V93.2063H132.993V79.9438H119.731ZM199.306 132.994H212.568V159.519H199.306V132.994ZM199.306 132.994V119.731H186.043V132.994H199.306Z" fill="white"/>
</svg>
