<svg width="168" height="204" viewBox="0 0 168 204" fill="none" xmlns="http://www.w3.org/2000/svg">
<path d="M6 60L30 30L162 48V78L138 102V174H30V114L6 96V60Z" fill="#252525"/>
<path fill-rule="evenodd" clip-rule="evenodd" d="M35.999 12V24H23.999V36H11.999V60H23.999V48H47.999V60H83.999V48H107.999V60H155.999V36H143.999V24H131.999V12H35.999ZM107.999 84H119.999V72H155.999V96H143.999V108H131.999V120H35.999V108H23.999V96H11.999V84H23.999V60H47.999V84H59.999V72H71.999V84H83.999V60H107.999V84ZM83.999 96V84H107.999V96H83.999ZM47.999 96H23.999V84H47.999V96ZM131.999 132H71.999V168H83.999V180H95.999V192H155.999V156H143.999V144H131.999V132ZM59.999 132H35.999V144H23.999V192H59.999V132Z" fill="white"/>
<path d="M138 6H42H30V18H18V30H6V102H18V114H30V138H18V198H66V174H78V186H90V198H162V150H150V138H138V114H150V102H162V30H150V18H138V6Z" stroke="#252525" stroke-width="12"/>
</svg>
