<svg width="333" height="197" viewBox="0 0 333 197" fill="none" xmlns="http://www.w3.org/2000/svg">
<path d="M27.7276 62.1068C40.7319 62.1068 48.5046 53.5867 50.8962 49.7751V28.6992H27.7276V40.6572H38.2656V46.7109C35.2761 49.4762 32.436 50.2983 27.7276 50.2983C19.5065 50.2983 12.7801 43.4224 12.7801 34.3045C12.7801 25.037 19.5065 18.2359 27.7276 18.2359C34.0803 18.2359 37.294 19.9549 40.6572 23.3181L48.2804 14.9475C43.7961 9.34218 35.3508 6.50216 27.7276 6.50216C12.3317 6.50216 0 18.8338 0 34.3045C0 49.6257 12.3317 62.1068 27.7276 62.1068Z" fill="white"/>
<path d="M75.9385 62.1068C86.7754 62.1068 94.2492 54.5583 94.2492 44.5435V19.357H81.3943V45.3656C81.3943 48.0562 79.8996 50.1488 75.9385 50.1488C72.3511 50.1488 70.4079 48.4299 70.4079 45.3656V19.357H57.6278V44.5435C57.6278 54.5583 65.1763 62.1068 75.9385 62.1068Z" fill="white"/>
<path d="M109.26 14.2749C113.146 14.2749 116.36 11.0611 116.36 7.10006C116.36 3.21371 113.146 0 109.26 0C105.299 0 102.085 3.21371 102.085 7.10006C102.085 11.0611 105.299 14.2749 109.26 14.2749ZM115.612 60.8363V19.357H102.758V60.8363H115.612Z" fill="white"/>
<path d="M137.87 60.9857V7.62322H125.164V60.9857H137.87Z" fill="white"/>
<path d="M163.193 62.1068C168.798 62.1068 173.88 60.5373 177.692 55.0067H178.065V60.9857H190.547V7.62322H177.692V25.7844H177.318C175.001 21.3749 169.545 18.2359 163.193 18.2359C152.356 18.2359 144.209 27.9518 144.209 40.2087C144.209 52.3909 152.356 62.1068 163.193 62.1068ZM166.93 50.1488C161.025 50.1488 157.886 46.0383 157.886 40.2087C157.886 34.3045 161.025 30.1939 166.93 30.1939C172.759 30.1939 176.197 34.3045 176.197 40.2087C176.197 46.0383 172.759 50.1488 166.93 50.1488Z" fill="white"/>
<path d="M203.932 62.1068C207.893 62.1068 211.107 58.8931 211.107 55.0067C211.107 51.0457 207.893 47.9067 203.932 47.9067C200.046 47.9067 196.832 51.0457 196.832 55.0067C196.832 58.8931 200.046 62.1068 203.932 62.1068Z" fill="white"/>
<path d="M227.207 60.9857L233.56 50.373L239.987 60.9857H255.159L240.585 39.6108L254.561 19.357H239.24L233.56 29.0729L227.88 19.357H212.559L226.534 39.6108L211.961 60.9857H227.207Z" fill="white"/>
<path d="M274.188 72.869L297.581 19.357H283.68L276.131 39.4614L267.163 19.357H253.262L268.957 54.4089L260.212 72.869H274.188Z" fill="white"/>
<path d="M332.594 60.9857V49.3267H316.077L331.996 30.4929V19.357H299.635V31.016H315.853L299.111 50.8215V60.9857H332.594Z" fill="white"/>
<path d="M40.1559 82.0341V80.1438H38.2656H29.6179V71.9664H49.0059V90.5898C46.5124 94.2662 39.361 101.593 27.7276 101.593C13.3856 101.593 1.89031 89.9686 1.89031 75.6814C1.89031 61.2515 13.379 49.7694 27.7276 49.7694C34.4064 49.7694 41.5166 52.0693 45.7359 56.3109L40.5481 62.0074C39.1948 60.8375 37.7495 59.8678 36.0473 59.1507C33.732 58.1753 31.0741 57.7226 27.7276 57.7226C18.3681 57.7226 10.8898 65.4669 10.8898 75.6814C10.8898 85.7465 18.3681 93.5656 27.7276 93.5656C30.1792 93.5656 32.2914 93.3538 34.2329 92.7138C36.2033 92.0644 37.89 91.0103 39.5492 89.4755L40.1559 88.9143V88.0878V82.0341ZM177.692 94.4934H176.699L176.135 95.311C172.778 100.183 168.379 101.593 163.193 101.593C153.661 101.593 146.1 93.0055 146.1 81.5857C146.1 70.0866 153.665 61.5032 163.193 61.5032C168.977 61.5032 173.712 64.363 175.645 68.0406L176.176 69.0517H177.318H177.692H179.582V67.1614V50.8905H188.656V100.472H179.956V96.3837V94.4934H178.065H177.692ZM215.537 100.472L228.096 82.0527L228.827 80.9814L228.09 79.9142L216.16 62.6243H226.795L231.928 71.4039L233.56 74.1953L235.192 71.4039L240.324 62.6243H250.96L239.029 79.9142L238.293 80.9814L239.023 82.0527L251.582 100.472H241.052L235.177 90.7707L233.55 88.0853L231.938 90.7791L226.135 100.472H215.537ZM301.525 70.5027V62.6243H330.106V71.178L314.633 89.4834L312.004 92.594H316.077H330.704V100.472H301.002V92.8903L317.296 73.6133L319.926 70.5027H315.853H301.525ZM294.692 62.6243L272.952 112.356H263.199L270.665 96.595L271.038 95.8081L270.682 95.0133L256.179 62.6243H265.936L274.405 81.6084L276.282 85.8155L277.901 81.5028L284.989 62.6243H294.692ZM92.3588 85.9205C92.3588 94.8445 85.7788 101.593 75.9385 101.593C66.1676 101.593 59.5181 94.8394 59.5181 85.9205V62.6243H68.5176V86.7426C68.5176 88.6913 69.1512 90.4601 70.5872 91.7094C71.9816 92.9226 73.8708 93.4161 75.9385 93.4161C78.2392 93.4161 80.1496 92.8043 81.4812 91.487C82.8125 90.17 83.2846 88.4256 83.2846 86.7426V62.6243H92.3588V85.9205ZM114.469 48.477C114.469 51.407 112.089 53.7615 109.26 53.7615C106.343 53.7615 103.975 51.3941 103.975 48.477C103.975 45.6475 106.33 43.2673 109.26 43.2673C112.102 43.2673 114.469 45.6346 114.469 48.477ZM104.648 62.6243H113.722V100.323H104.648V62.6243ZM127.054 50.8905H135.979V100.472H127.054V50.8905ZM155.996 81.5857C155.996 84.8217 156.868 87.791 158.766 89.9801C160.696 92.2064 163.508 93.4161 166.93 93.4161C170.315 93.4161 173.164 92.2073 175.151 90.0097C177.118 87.835 178.087 84.8639 178.087 81.5857C178.087 78.2758 177.121 75.2861 175.155 73.1C173.167 70.8898 170.315 69.6806 166.93 69.6806C163.507 69.6806 160.693 70.8907 158.762 73.1296C156.865 75.3299 155.996 78.3176 155.996 81.5857ZM209.217 96.3837C209.217 99.2132 206.862 101.593 203.932 101.593C201.09 101.593 198.722 99.2261 198.722 96.3837C198.722 93.4795 201.077 91.174 203.932 91.174C206.875 91.174 209.217 93.4923 209.217 96.3837Z" stroke="white" stroke-width="3.78063"/>
<path d="M39.3157 123.411V122.361H38.2656H28.7778V112.503H49.846V132.221C47.3897 135.967 39.9617 143.811 27.7276 143.811C12.9172 143.811 1.05017 131.805 1.05017 117.058C1.05017 102.166 12.9135 90.3062 27.7276 90.3062C34.8339 90.3062 42.5346 92.8479 46.8823 97.6769L40.6082 104.566C39.1208 103.187 37.5763 102.083 35.7212 101.302C33.538 100.382 30.9985 99.9397 27.7276 99.9397C18.874 99.9397 11.7299 107.265 11.7299 117.058C11.7299 126.702 18.874 134.102 27.7276 134.102C30.1359 134.102 32.1481 133.893 33.9699 133.293C35.8078 132.687 37.3926 131.703 38.9787 130.236L39.3157 129.924V129.465V123.411ZM177.692 136.71H177.14L176.827 137.165C173.268 142.329 168.565 143.811 163.193 143.811C153.081 143.811 145.26 134.721 145.26 122.963C145.26 111.127 153.083 102.04 163.193 102.04C169.23 102.04 174.285 105.024 176.388 109.027L176.684 109.588H177.318H177.692H178.742V108.538V91.4273H189.496V142.689H179.116V137.761V136.71H178.065H177.692ZM227.399 121.768L214.559 103.161H227.277L232.653 112.357L233.56 113.908L234.466 112.357L239.842 103.161H252.56L239.721 121.768L239.312 122.361L239.717 122.956L253.172 142.689H240.579L234.458 132.583L233.554 131.091L232.659 132.588L226.612 142.689H213.948L227.402 122.956L227.808 122.361L227.399 121.768ZM331.544 133.131V142.689H300.162V133.96L316.655 114.448L318.115 112.72H315.853H300.685V103.161H330.946V112.862L315.275 131.403L313.814 133.131H316.077H331.544ZM269.915 136.734L254.973 103.363L255.112 103.161H266.482L275.172 122.643L276.215 124.98L277.115 122.584L284.407 103.161H295.976L273.501 154.573H261.872L269.906 137.612L270.113 137.175L269.915 136.734ZM93.199 127.297C93.199 136.706 86.2217 143.811 75.9385 143.811C65.727 143.811 58.678 136.703 58.678 127.297V103.161H69.3577V128.12C69.3577 129.883 69.9257 131.397 71.1386 132.453C72.3285 133.488 73.9926 133.953 75.9385 133.953C78.0969 133.953 79.7644 133.38 80.8904 132.267C82.0161 131.153 82.4445 129.652 82.4445 128.12V103.161H93.199V127.297ZM115.31 89.854C115.31 93.2422 112.559 95.9786 109.26 95.9786C105.879 95.9786 103.135 93.235 103.135 89.854C103.135 86.5547 105.871 83.8041 109.26 83.8041C112.566 83.8041 115.31 86.5476 115.31 89.854ZM103.808 103.161H114.562V142.54H103.808V103.161ZM126.214 91.4273H136.819V142.689H126.214V91.4273ZM156.836 122.963C156.836 126.056 157.669 128.81 159.4 130.807C161.15 132.824 163.717 133.953 166.93 133.953C170.106 133.953 172.718 132.825 174.528 130.823C176.327 128.834 177.247 126.079 177.247 122.963C177.247 119.812 176.328 117.038 174.53 115.039C172.72 113.026 170.106 111.898 166.93 111.898C163.716 111.898 161.148 113.027 159.399 115.055C157.668 117.062 156.836 119.835 156.836 122.963ZM210.057 137.761C210.057 141.06 207.32 143.811 203.932 143.811C200.626 143.811 197.882 141.067 197.882 137.761C197.882 134.387 200.619 131.711 203.932 131.711C207.328 131.711 210.057 134.394 210.057 137.761Z" stroke="white" stroke-width="2.10035"/>
<path d="M38.5806 164.788V164.473H38.2656H28.0426V153.145H50.5811V173.815C48.1678 177.609 40.4985 185.923 27.7276 185.923C12.5073 185.923 0.315052 173.584 0.315052 158.435C0.315052 143.138 12.5062 130.948 27.7276 130.948C35.1977 130.948 43.4189 133.699 47.8648 139.067L40.6453 146.994C39.0261 145.409 37.4088 144.188 35.4358 143.356C33.3683 142.485 30.9323 142.052 27.7276 142.052C19.3167 142.052 12.465 149.01 12.465 158.435C12.465 167.711 19.3167 174.744 27.7276 174.744C30.098 174.744 32.0227 174.538 33.7398 173.972C35.4618 173.404 36.9573 172.481 38.4795 171.073L38.5806 170.979V170.842V164.788ZM177.692 178.823H177.526L177.432 178.959C173.696 184.38 168.728 185.923 163.193 185.923C152.573 185.923 144.524 176.395 144.524 164.34C144.524 152.209 152.574 142.682 163.193 142.682C169.451 142.682 174.786 145.774 177.039 150.062L177.128 150.23H177.318H177.692H178.007V149.915V132.069H190.232V184.802H178.38V179.138V178.823H178.065H177.692ZM213.159 143.803H227.699L233.288 153.363L233.56 153.828L233.832 153.363L239.421 143.803H253.058L253.413 144.597L240.326 163.563L240.203 163.741L240.325 163.919L254.563 184.802H240.165L233.829 174.341L233.558 173.893L233.289 174.342L227.028 184.802H212.557L226.795 163.919L226.916 163.741L226.794 163.563L213.159 143.803ZM253.748 143.803H253.961L253.832 143.99L253.748 143.803ZM260.71 196.685L269.241 178.675L269.303 178.543L269.244 178.411L254.133 144.663L254.726 143.803H266.959L275.844 163.721L276.156 164.422L276.426 163.703L283.898 143.803H297.1L273.982 196.685H260.71ZM315.853 154.832H299.95V143.803H331.681V154.508L315.836 173.254L315.398 173.773H316.077H332.279V184.802H299.427V175.068L316.093 155.35L316.531 154.832H315.853ZM93.9341 168.674C93.9341 178.507 86.6093 185.923 75.9385 185.923C65.3415 185.923 57.9429 178.507 57.9429 168.674V143.803H70.0929V169.496C70.0929 171.098 70.6033 172.389 71.6211 173.275C72.6321 174.154 74.0991 174.595 75.9385 174.595C77.9724 174.595 79.4274 174.057 80.3734 173.121C81.3193 172.185 81.7094 170.898 81.7094 169.496V143.803H93.9341V168.674ZM116.045 131.231C116.045 135.02 112.97 138.091 109.26 138.091C105.473 138.091 102.4 135.018 102.4 131.231C102.4 127.521 105.47 124.446 109.26 124.446C112.972 124.446 116.045 127.519 116.045 131.231ZM103.073 143.803H115.297V184.652H103.073V143.803ZM125.479 132.069H137.554V184.802H125.479V132.069ZM157.571 164.34C157.571 167.308 158.37 169.874 159.956 171.702C161.546 173.537 163.899 174.595 166.93 174.595C169.923 174.595 172.328 173.537 173.983 171.707C175.634 169.881 176.512 167.315 176.512 164.34C176.512 161.328 175.635 158.743 173.984 156.907C172.329 155.068 169.923 154.01 166.93 154.01C163.899 154.01 161.546 155.068 159.955 156.912C158.37 158.75 157.571 161.335 157.571 164.34ZM210.792 179.138C210.792 182.848 207.721 185.923 203.932 185.923C200.22 185.923 197.147 182.85 197.147 179.138C197.147 175.353 200.218 172.353 203.932 172.353C207.724 172.353 210.792 175.355 210.792 179.138Z" stroke="white" stroke-width="0.630105"/>
</svg>
