<?xml version="1.0" encoding="UTF-8" standalone="no"?><!-- Generator: Gravit.io --><svg xmlns="http://www.w3.org/2000/svg" xmlns:xlink="http://www.w3.org/1999/xlink" style="isolation:isolate" viewBox="0 0 188 208" width="188pt" height="208pt"><defs><clipPath id="_clipPath_RBYArUtgA2XKcheE4oKkd5PsNv3fp8HN"><rect width="188" height="208"/></clipPath></defs><g clip-path="url(#_clipPath_RBYArUtgA2XKcheE4oKkd5PsNv3fp8HN)"><g><path d=" M 7 6.69 L 137.5 6.69 L 137.5 18.853 L 148.375 18.853 L 148.375 31.017 L 159.25 31.017 L 159.25 55.345 L 181 55.345 L 181 104.001 L 159.25 104.001 L 159.25 116.164 L 170.125 116.164 L 170.125 128.328 L 181 128.328 L 181 152.656 L 159.25 152.656 L 159.25 164.82 L 170.125 164.82 L 170.125 201.311 L 148.375 201.311 L 148.375 176.983 L 137.5 176.983 L 137.5 164.82 L 104.877 164.82 L 98 164.82 L 98 207.5 L 50.5 207.5 L 50.5 176.983 L 39.625 176.983 L 39.625 201.311 L 17.875 201.311 L 17.875 164.82 L 28.75 164.82 L 28.75 140.492 L 7 140.492 L 7 116.164 L 17.875 116.164 L 17.875 104.001 L 28.75 104.001 L 28.75 79.672 L 17.875 79.672 L 17.875 55.345 L 7 55.345 L 7 6.69 Z " fill="rgb(39,39,39)"/><path d=" M 50.5 176.983 L 50.5 164.82 L 65 164.82 M 50.5 176.983 L 39.625 176.983 L 39.625 201.311 L 17.875 201.311 L 17.875 164.82 L 28.75 164.82 L 28.75 140.492 L 7 140.492 L 7 116.164 L 17.875 116.164 L 17.875 104.001 L 28.75 104.001 L 28.75 79.672 L 17.875 79.672 L 17.875 55.345 L 7 55.345 L 7 6.69 L 137.5 6.69 L 137.5 18.853 L 148.375 18.853 L 148.375 31.017 L 159.25 31.017 L 159.25 55.345 L 181 55.345 L 181 104.001 L 159.25 104.001 L 159.25 116.164 L 170.125 116.164 L 170.125 128.328 L 181 128.328 L 181 152.656 L 159.25 152.656 L 159.25 164.82 L 170.125 164.82 L 170.125 201.311 L 148.375 201.311 L 148.375 176.983 L 137.5 176.983 L 137.5 164.82 L 77.5 164.82 L 65 164.82 M 50.5 176.983 L 50.5 201.311 L 65 201.311 L 65 164.82" fill="none" vector-effect="non-scaling-stroke" stroke-width="12.644" stroke="rgb(39,39,39)" stroke-linejoin="miter" stroke-linecap="butt" stroke-miterlimit="4"/><path d=" M 153.814 43.182 L 137.502 43.182 M 137.502 43.182 L 137.502 31.018 L 126.627 31.018 L 126.627 18.854 L 50.502 18.854 M 137.502 43.182 L 115.752 43.182 M 12.439 18.854 L 50.502 18.854 M 50.502 18.854 L 50.502 31.018 L 115.752 31.018 L 115.752 43.182 M 115.752 43.182 L 39.627 43.182 M 12.439 43.182 L 39.627 43.182 M 39.627 43.182 L 39.627 67.509 M 39.627 67.509 L 23.314 67.509 M 39.627 67.509 L 39.627 116.165 L 23.314 116.165 L 148.377 116.165 L 148.377 128.329 M 148.377 128.329 L 164.689 128.329 M 148.377 128.329 L 148.377 140.493 L 137.502 140.493 M 137.502 140.493 L 137.502 152.657 L 50.502 152.657 L 50.502 140.493 M 137.502 140.493 L 137.502 128.329 L 39.627 128.329 L 39.627 140.493 L 50.502 140.493 M 137.502 140.493 L 50.502 140.493 M 17.877 122.247 L 17.877 134.411 M 170.127 134.411 L 170.127 146.575 M 39.627 158.738 L 39.627 170.902 M 28.752 170.902 L 28.752 195.23 M 148.377 158.738 L 148.377 170.902 M 159.252 170.902 L 159.252 195.23 M 61.377 67.509 L 61.377 91.837 L 104.877 91.837 L 104.877 67.509 L 61.377 67.509 Z  M 126.627 67.509 L 126.627 91.837 L 170.127 91.837 L 170.127 67.509 L 126.627 67.509 Z " fill="none" vector-effect="non-scaling-stroke" stroke-width="12.644" stroke="rgb(255,255,255)" stroke-linejoin="miter" stroke-linecap="butt" stroke-miterlimit="4"/></g></g></svg>