<svg width="188" height="208" viewBox="0 0 188 208" fill="none" xmlns="http://www.w3.org/2000/svg">
<path d="M7 7H137.5V19.1638H148.375V31.3276H159.25V55.6553H181V104.311H159.25V116.474H170.125V128.638H181V152.966H159.25V165.13H170.125V201.621H148.375V177.293H137.5V165.13H91.5V201.621H50.5V177.293H39.625V201.621H17.875V165.13H28.75V140.802H7V116.474H17.875V104.311H28.75V79.9829H17.875V55.6553H7V7Z" fill="#272727"/>
<path d="M50.5 177.293V165.13H91.5M50.5 177.293H39.625V201.621H17.875V165.13H28.75V140.802H7V116.474H17.875V104.311H28.75V79.9829H17.875V55.6553H7V7H137.5V19.1638H148.375V31.3276H159.25V55.6553H181V104.311H159.25V116.474H170.125V128.638H181V152.966H159.25V165.13H170.125V201.621H148.375V177.293H137.5V165.13H77.5H91.5M50.5 177.293V201.621H91.5V165.13" stroke="#272727" stroke-width="12.6436"/>
<path d="M153.814 43.4922H137.502M137.502 43.4922V31.3284H126.627V19.1646H50.5016M137.502 43.4922H115.752M12.4391 19.1646H50.5016M50.5016 19.1646V31.3284H115.752V43.4922M115.752 43.4922H39.6266M12.4391 43.4922H39.6266M39.6266 43.4922V67.8198M39.6266 67.8198H23.3141M39.6266 67.8198V116.475H23.3141H148.377V128.639M148.377 128.639H164.689M148.377 128.639V140.803H137.502M137.502 140.803V152.967H50.5016V140.803M137.502 140.803V128.639H39.6266V140.803H50.5016M137.502 140.803H50.5016M17.8766 122.557V134.721M170.127 134.721V146.885M39.6266 159.048V171.212M28.7516 171.212V195.54M148.377 159.048V171.212M159.252 171.212V195.54M61.3766 67.8198V92.1475H104.877V67.8198H61.3766ZM126.627 67.8198V92.1475H170.127V67.8198H126.627Z" stroke="white" stroke-width="12.6436"/>
</svg>
