<svg width="175" height="223" viewBox="0 0 175 223" fill="none" xmlns="http://www.w3.org/2000/svg">
<path d="M168 31.5694V7H33.8333V19.2847H20.4167V68.4235H7V105.278H20.4167V191.27H33.8333V215.84H60.6667V178.986H114.333V191.27H127.75V215.84H154.583V154.416H141.167V56.1388H127.75V43.8541H154.583V31.5694H168Z" fill="#252525" stroke="#252525" stroke-width="13.5166"/>
<path d="M141.167 185.128V209.697" stroke="white" stroke-width="13.5166"/>
<path d="M127.75 172.846V185.13" stroke="white" stroke-width="13.5166"/>
<path d="M154.584 19.2852H141.167M33.8339 31.5698H47.2506V19.2852H141.167M33.8339 31.5698V49.9969M33.8339 31.5698H141.167V19.2852M47.2506 92.9933H33.8339M47.2506 92.9933V68.4239M47.2506 92.9933H74.0839M20.4172 74.5663V92.9933H33.8339M33.8339 92.9933V105.278M114.334 68.4239H127.751V92.9933M114.334 68.4239V56.1392H47.2506V68.4239M114.334 68.4239H100.917M47.2506 68.4239H74.0839M100.917 68.4239V80.7086H85.133V68.4239M100.917 68.4239H85.133M85.133 68.4239H74.0839M74.0839 68.4239V92.9933M74.0839 105.278H114.334M74.0839 105.278V92.9933M74.0839 105.278H33.8339M114.334 105.278V92.9933H127.751M114.334 105.278H127.751M127.751 92.9933V105.278M33.8339 105.278V117.563H127.751V105.278M47.2506 178.986H33.8339V166.701M47.2506 178.986V209.698M47.2506 178.986V154.417M47.2506 142.132H127.751V154.417H114.334M47.2506 142.132H33.8339V154.417M47.2506 142.132V154.417M114.334 154.417V166.701H33.8339M114.334 154.417H47.2506M33.8339 166.701V154.417M47.2506 154.417L33.8339 154.417M141.167 160.559V172.844" stroke="white" stroke-width="13.5166"/>
</svg>
