<svg width="188" height="208" viewBox="0 0 188 208" fill="none" xmlns="http://www.w3.org/2000/svg">
<path d="M137.5 7H7V55.6553H17.875V79.9829H28.75V104.311H17.875V116.474H7V140.802H28.75V165.13H17.875V201.621H39.625V177.293H50.5V165.13H137.5V177.293H148.375V201.621H170.125V165.13H159.25V152.966H181V128.638H170.125V116.474H159.25V104.311H181V55.6553H159.25V31.3276H148.375V19.1638H137.5V7Z" fill="#252525" stroke="#252525" stroke-width="12.6436"/>
<path d="M153.814 43.4922H137.502M137.502 43.4922V31.3284H126.627V19.1646H50.5017M137.502 43.4922H115.752M12.4392 19.1646H50.5017M50.5017 19.1646V31.3284H115.752V43.4922M115.752 43.4922H39.6267M12.4392 43.4922H39.6267M39.6267 43.4922V67.8198M39.6267 67.8198H23.3142M39.6267 67.8198V116.475H23.3142H148.377V128.639M148.377 128.639H164.689M148.377 128.639V140.803H137.502M137.502 140.803V152.967H50.5017V140.803M137.502 140.803V128.639H39.6267V140.803H50.5017M137.502 140.803H50.5017M17.8767 122.557V134.721M170.127 134.721V146.885M39.6267 159.048V171.212M28.7517 171.212V195.54M148.377 159.048V171.212M159.252 171.212V195.54M61.3767 67.8198V92.1475H104.877V67.8198H61.3767ZM126.627 67.8198V92.1475H170.127V67.8198H126.627Z" stroke="white" stroke-width="12.6436"/>
</svg>
