<svg width="169" height="179" viewBox="0 0 169 179" fill="none" xmlns="http://www.w3.org/2000/svg">
<path d="M134.186 139.13V134.13H129.186H99.3872H94.3872V139.13V168.929V173.929H99.3872H139.119H144.119V168.929V158.996V153.996H139.119H134.186V139.13Z" fill="white" stroke="#252525" stroke-width="10"/>
<path d="M74.598 139.13V134.13H69.598H49.7319H44.7319V139.13V144.063H39.7988H34.7988V149.063V168.929V173.929H39.7988H79.531H84.531V168.929V158.996V153.996H79.531H74.598V139.13Z" fill="white" stroke="#252525" stroke-width="10"/>
<path d="M139.124 124.197H134.124V129.197V139.135V144.135H139.124H159H164V139.135V129.197V124.197H159H139.124Z" fill="white" stroke="#252525" stroke-width="10"/>
<path d="M29.8623 64.5981H24.8623V69.5981V139.129V144.129H29.8623H49.7284H54.7284V139.129V69.5981V64.5981H49.7284H29.8623Z" fill="white" stroke="#252525" stroke-width="10"/>
<path d="M59.6621 64.5981H54.6621V69.5981V119.263V124.263H59.6621H158.993H163.993V119.263V69.5981V64.5981H158.993H59.6621Z" fill="white" stroke="#252525" stroke-width="10"/>
<path d="M10 64.5981H5V69.5981V119.263V124.263H10H19.933H24.933V119.263V69.5981V64.5981H19.933H10Z" fill="white" stroke="#252525" stroke-width="10"/>
<path d="M149.056 64.6652H154.056V59.6652V10V5H149.056H49.7251H44.7251V10V59.6652V64.6652H49.7251H149.056Z" fill="white" stroke="#252525" stroke-width="10"/>
<path d="M19.9253 5H14.9253V10V59.6652V64.6652H19.9253H39.7914H44.7914V59.6652V10V5H39.7914H19.9253Z" fill="white" stroke="#252525" stroke-width="10"/>
<path d="M74.5 20V40" stroke="#252525" stroke-width="10"/>
<path d="M124 20V40" stroke="#252525" stroke-width="10"/>
<path d="M89.5 45H109.5" stroke="#252525" stroke-width="10"/>
<path d="M69.5 84.5H144V109" stroke="#252525" stroke-width="10"/>
</svg>
