<svg width="324" height="341" viewBox="0 0 324 341" fill="none" xmlns="http://www.w3.org/2000/svg">
<path d="M149.282 5H174.744V13.4872H183.231V21.9744H191.718V81.3846H208.692V89.8718H217.179V140.795H191.718V149.282H200.205V157.769H208.692V174.744H200.205V183.231H183.231V191.718H191.718V217.179H200.205V242.641H208.692V268.102H217.179V285.077H225.667V259.615H242.641V268.102H251.128V251.128H268.103V268.102H276.59V276.59H285.077V268.102H302.051V285.077H293.564V293.564H319.026V327.513H302.051V336H21.9744V327.513H5V310.538H13.4872V293.564H30.4615V285.077H21.9744V268.102H38.9487V259.615H64.4102V251.128H81.3846V268.102H98.359V251.128H115.333V242.641H123.82V217.179H132.308V191.718H140.795V183.231H115.333V149.282H132.308V140.795H106.846V89.8718H115.333V81.3846H132.308V21.9744H140.795V13.4872H149.282V5Z" fill="#252525"/>
<path d="M217.179 297.808V285.077M217.179 285.077V268.102H208.692V242.641H200.205V217.179H191.718V191.718H183.231V183.231H200.205V174.744H208.692V157.769H200.205V149.282H191.718V140.795H217.179V89.8718H208.692V81.3846H191.718V21.9744H183.231V13.4872H174.744V5H149.282V13.4872H140.795V21.9744H132.308V81.3846H115.333V89.8718H106.846V140.795H132.308V149.282H115.333V183.231H140.795V191.718H132.308V217.179H123.82V242.641H115.333V251.128M217.179 285.077H225.667V259.615H242.641V268.102H251.128V251.128H268.103V268.102H276.59V276.59H285.077V268.102H302.051V285.077H293.564V293.564H319.026V327.513H302.051V336H21.9744V327.513H5V310.538H13.4872V293.564H30.4615V285.077H21.9744V268.102H38.9487V259.615H64.4102V251.128H81.3846V268.102H98.359M98.359 268.102V276.59H106.846V285.077H115.333V268.102M98.359 268.102V251.128H115.333M98.359 268.102H115.333M115.333 251.128V268.102" stroke="#252525" stroke-width="8.48718"/>
<path d="M179.216 128.254H145.224V136.752H179.216V128.254Z" fill="white"/>
<path d="M188.354 69.0371H136.94V120.243H188.354V69.0371Z" fill="white"/>
<path d="M111.226 137.311H128.364V86.1047H119.795V94.6391H111.226V137.311Z" fill="white"/>
<path d="M196.916 86.1047V137.311H214.053V94.6391H205.484V86.1047H196.916Z" fill="white"/>
<path d="M188.354 51.95H136.94V60.4843H188.354V51.95Z" fill="white"/>
<path d="M188.354 26.36H179.785V17.8256H171.216V9.29126H154.078V17.8256H145.509V26.36H136.94V43.4288H188.354V26.36Z" fill="white"/>
<path d="M124.077 97.9261V89.3572V115.064M124.077 97.9261H115.508V106.495V123.633M124.077 97.9261V115.064M124.077 115.064V123.633M115.508 123.633V132.202H124.077V123.633M115.508 123.633H124.077" stroke="white" stroke-width="8.56893"/>
<path d="M201.222 85.0659V97.9193M201.222 97.9193V132.195H209.791V97.9193H201.222Z" stroke="white" stroke-width="8.56893"/>
<path d="M184.069 115.048V72.2035H141.224V115.048H184.069Z" fill="white"/>
<path d="M136.94 55.0657H188.354M184.069 72.2035V115.048H141.224V72.2035H184.069Z" stroke="white" stroke-width="8.56893"/>
<path d="M166.943 20.7994H175.512V29.3683H184.081V37.9373H166.943M166.943 20.7994V12.2305H158.374V20.7994M166.943 20.7994V37.9373M158.374 20.7994H149.805V29.3683H141.236V37.9373H158.374M158.374 20.7994V37.9373M166.943 37.9373H158.374" stroke="white" stroke-width="8.56893"/>
<rect x="153.704" y="145.223" width="16.9961" height="25.4941" fill="white"/>
<rect width="8.49805" height="8.49805" transform="matrix(1 0 0 -1 136.709 153.728)" fill="white"/>
<rect width="8.49805" height="8.49805" transform="matrix(1 0 0 -1 145.208 145.223)" fill="white"/>
<rect width="8.49805" height="8.49805" transform="matrix(1 0 0 -1 136.709 162.212)" fill="white"/>
<rect width="8.49805" height="8.49805" transform="matrix(1 0 0 -1 145.208 170.717)" fill="white"/>
<rect width="8.49805" height="8.49805" transform="matrix(1 0 0 -1 128.21 170.717)" fill="white"/>
<rect width="8.49805" height="8.49805" transform="matrix(1 0 0 -1 170.692 145.223)" fill="white"/>
<rect width="8.49805" height="8.49805" transform="matrix(1 0 0 -1 179.187 153.728)" fill="white"/>
<rect width="8.49805" height="8.49805" transform="matrix(1 0 0 -1 187.701 162.212)" fill="white"/>
<rect width="8.49805" height="8.49805" transform="matrix(1 0 0 -1 119.701 179.221)" fill="white"/>
<rect width="8.49805" height="8.49805" transform="matrix(1 0 0 -1 187.701 179.221)" fill="white"/>
<rect width="16.9961" height="8.49805" transform="matrix(1 0 0 -1 170.692 170.717)" fill="white"/>
<rect width="8.49805" height="8.49805" transform="matrix(1 0 0 -1 136.709 179.221)" fill="white"/>
<rect width="8.49805" height="8.49805" transform="matrix(1 0 0 -1 196.196 170.717)" fill="white"/>
<rect width="8.49805" height="8.49805" transform="matrix(1 0 0 -1 119.701 162.212)" fill="white"/>
<rect x="145.208" y="170.717" width="33.9922" height="25.4941" fill="white"/>
<rect x="136.709" y="196.229" width="50.9883" height="25.4941" fill="white"/>
<rect x="128.21" y="221.703" width="67.9844" height="25.4941" fill="white"/>
<rect x="119.701" y="247.216" width="84.9805" height="25.4941" fill="white"/>
<rect x="196.196" y="272.69" width="16.9961" height="25.4941" fill="white"/>
<rect x="187.701" y="289.698" width="8.49805" height="8.49805" fill="white"/>
<rect x="162.212" y="281.194" width="8.49805" height="8.49805" fill="white"/>
<rect x="136.709" y="272.69" width="8.49805" height="8.49805" fill="white"/>
<rect x="170.692" y="272.69" width="16.9961" height="25.4941" fill="white"/>
<rect x="119.701" y="272.69" width="16.9961" height="25.4941" fill="white"/>
<rect x="145.208" y="272.69" width="16.9961" height="25.4941" fill="white"/>
<rect x="102.707" y="298.183" width="16.9961" height="16.9961" fill="white"/>
<rect x="128.21" y="289.698" width="16.9961" height="16.9961" fill="white"/>
<rect x="136.709" y="306.668" width="16.9961" height="16.9961" fill="white"/>
<rect x="153.704" y="298.183" width="16.9961" height="16.9961" fill="white"/>
<rect x="179.187" y="298.183" width="16.9961" height="16.9961" fill="white"/>
<rect x="204.69" y="298.183" width="16.9961" height="16.9961" fill="white"/>
<rect x="196.196" y="298.183" width="8.49805" height="8.49805" fill="white"/>
<rect x="94.2124" y="315.172" width="8.49805" height="16.9961" fill="white"/>
<rect x="111.206" y="315.172" width="8.49805" height="16.9961" fill="white"/>
<rect x="119.701" y="315.172" width="16.9961" height="16.9961" fill="white"/>
<rect x="145.208" y="323.676" width="25.4941" height="8.49805" fill="white"/>
<rect x="162.212" y="315.172" width="25.4941" height="8.49805" fill="white"/>
<rect x="187.701" y="323.676" width="25.4941" height="8.49805" fill="white"/>
<rect x="196.196" y="315.172" width="25.4941" height="8.49805" fill="white"/>
<rect x="221.704" y="315.172" width="16.9961" height="8.49805" fill="white"/>
<rect x="221.704" y="323.676" width="8.49805" height="8.49805" fill="white"/>
<rect x="77.2231" y="323.676" width="16.9961" height="8.49805" fill="white"/>
<rect x="43.2354" y="306.668" width="8.49805" height="8.49805" fill="white"/>
<rect x="51.73" y="289.698" width="8.49805" height="8.49805" fill="white"/>
<rect x="77.2231" y="289.698" width="8.49805" height="8.49805" fill="white"/>
<rect x="94.2124" y="298.183" width="8.49805" height="8.49805" fill="white"/>
<rect x="51.73" y="298.183" width="8.49805" height="8.49805" fill="white"/>
<rect x="43.2354" y="298.183" width="8.49805" height="8.49805" fill="white"/>
<rect x="85.7183" y="289.698" width="8.49805" height="8.49805" fill="white"/>
<rect x="94.2124" y="281.194" width="8.49805" height="8.49805" fill="white"/>
<rect x="85.7183" y="272.69" width="8.49805" height="8.49805" fill="white"/>
<rect x="102.707" y="255.701" width="8.49805" height="8.49805" fill="white"/>
<rect x="102.707" y="323.676" width="8.49805" height="8.49805" fill="white"/>
<rect x="255.687" y="323.676" width="8.49805" height="8.49805" fill="white"/>
<rect x="170.692" y="323.676" width="16.9961" height="8.49805" fill="white"/>
<rect x="111.206" y="289.698" width="8.49805" height="8.49805" fill="white"/>
<rect x="43.2354" y="264.205" width="8.49805" height="8.49805" fill="white"/>
<rect x="26.2461" y="272.69" width="8.49805" height="8.49805" fill="white"/>
<rect x="68.729" y="255.701" width="8.49805" height="8.49805" fill="white"/>
<rect x="230.198" y="264.205" width="8.49805" height="8.49805" fill="white"/>
<rect x="255.687" y="255.701" width="8.49805" height="8.49805" fill="white"/>
<rect x="289.669" y="272.69" width="8.49805" height="8.49805" fill="white"/>
<rect x="306.663" y="298.183" width="8.49805" height="8.49805" fill="white"/>
<rect x="306.722" y="315.172" width="8.49805" height="8.49805" fill="white"/>
<rect x="9.23779" y="315.172" width="8.49805" height="8.49805" fill="white"/>
<rect x="17.7324" y="298.183" width="8.49805" height="8.49805" fill="white"/>
<rect x="77.2231" y="281.194" width="8.49805" height="8.49805" fill="white"/>
<rect x="102.707" y="289.698" width="8.49805" height="8.49805" fill="white"/>
<rect width="8.49805" height="8.49805" transform="matrix(-1 0 0 1 238.692 281.194)" fill="white"/>
<rect width="8.49805" height="8.49805" transform="matrix(-1 0 0 1 255.687 272.69)" fill="white"/>
<rect width="8.49805" height="8.49805" transform="matrix(-1 0 0 1 264.181 281.194)" fill="white"/>
<rect width="8.49805" height="8.49805" transform="matrix(-1 0 0 1 255.687 289.698)" fill="white"/>
<rect width="8.49805" height="8.49805" transform="matrix(-1 0 0 1 247.192 289.698)" fill="white"/>
<rect width="8.49805" height="8.49805" transform="matrix(-1 0 0 1 272.676 272.69)" fill="white"/>
<rect width="8.49805" height="8.49805" transform="matrix(-1 0 0 1 289.669 289.698)" fill="white"/>
<rect width="8.49805" height="8.49805" transform="matrix(-1 0 0 1 77.2231 281.194)" fill="white"/>
<rect width="8.49805" height="8.49805" transform="matrix(-1 0 0 1 68.729 289.698)" fill="white"/>
<rect width="8.49805" height="8.49805" transform="matrix(-1 0 0 1 43.2354 289.698)" fill="white"/>
<rect width="8.49805" height="8.49805" transform="matrix(-1 0 0 1 77.2231 315.172)" fill="white"/>
<rect width="8.49805" height="8.49805" transform="matrix(-1 0 0 1 51.73 281.194)" fill="white"/>
<rect x="60.249" y="272.69" width="8.49805" height="8.49805" fill="white"/>
<rect x="85.7183" y="315.172" width="8.49805" height="8.49805" fill="white"/>
<rect x="60.249" y="298.183" width="16.9961" height="16.9961" fill="white"/>
<rect x="77.2231" y="306.668" width="16.9961" height="8.49805" fill="white"/>
<rect x="51.73" y="315.172" width="16.9961" height="8.49805" fill="white"/>
<rect x="43.2354" y="323.676" width="25.4941" height="8.49805" fill="white"/>
<rect x="230.198" y="323.676" width="25.4941" height="8.49805" fill="white"/>
<rect x="264.181" y="323.676" width="16.9961" height="8.49805" fill="white"/>
<rect x="247.192" y="315.172" width="16.9961" height="8.49805" fill="white"/>
<rect x="264.181" y="306.668" width="16.9961" height="8.49805" fill="white"/>
<rect x="272.676" y="315.172" width="16.9961" height="8.49805" fill="white"/>
<rect x="238.692" y="306.668" width="25.4941" height="8.49805" fill="white"/>
<rect x="247.192" y="298.183" width="25.4941" height="8.49805" fill="white"/>
<rect x="230.198" y="298.183" width="8.49805" height="8.49805" fill="white"/>
<rect x="221.704" y="298.183" width="8.49805" height="8.49805" fill="white"/>
<rect x="221.704" y="289.698" width="8.49805" height="8.49805" fill="white"/>
<rect x="230.198" y="306.668" width="8.49805" height="8.49805" fill="white"/>
<rect x="238.692" y="281.194" width="8.49805" height="8.49805" fill="white"/>
<rect x="255.687" y="289.698" width="8.49805" height="8.49805" fill="white"/>
<rect x="272.676" y="281.194" width="8.49805" height="8.49805" fill="white"/>
<rect x="289.669" y="306.668" width="8.49805" height="8.49805" fill="white"/>
<rect x="281.155" y="298.183" width="8.49805" height="8.49805" fill="white"/>
<rect x="289.669" y="323.676" width="8.49805" height="8.49805" fill="white"/>
<rect x="34.7407" y="315.172" width="8.49805" height="8.49805" fill="white"/>
<rect x="26.2461" y="306.668" width="8.49805" height="8.49805" fill="white"/>
<rect x="26.2461" y="323.676" width="8.49805" height="8.49805" fill="white"/>
</svg>
