<svg width="330" height="348" viewBox="0 0 330 348" fill="none" xmlns="http://www.w3.org/2000/svg">
<path d="M308.333 343H22.3333V334.333H5V317H13.6667V299.667H31V291H22.3333V273.667H39.6667V265H57V273.667H65.6667V256.333H83V273.667H100.333V256.333H117.667V247.667H126.333V221.667H135V195.667H143.667V187H117.667V152.333H135V143.667H109V91.6667H117.667V83H135V22.3333H143.667V13.6667H152.333V5H178.333V13.6667H187V22.3333H195.667V83H213V91.6667H221.667V143.667H195.667V152.333H204.333V161H213V178.333H204.333V187H187V195.667H195.667V221.667H204.333V247.667H213V273.667H221.667V282.333H230.333V265H256.333V256.333H273.667V273.667H308.333V299.667H325.667V334.333H308.333V343Z" fill="#252525"/>
<path d="M117.667 256.333V247.667H126.333V221.667H135V195.667H143.667V187H117.667V152.333H135V143.667H109V91.6667H117.667V83H135V22.3333H143.667V13.6667H152.333V5H178.333V13.6667H187V22.3333H195.667V83H213V91.6667H221.667V143.667H195.667V152.333H204.333V161H213V178.333H204.333V187H187V195.667H195.667V221.667H204.333V247.667H213V273.667H221.667V282.333H230.333V265H256.333V256.333H273.667V273.667H308.333V299.667H325.667V334.333H308.333V343H22.3333V334.333H5V317H13.6667V299.667H31V291H22.3333V273.667H39.6667V265H57V273.667H65.6667V256.333H83V273.667H100.333M117.667 256.333V291H109V282.333H100.333V273.667M117.667 256.333H100.333V273.667" stroke="#252525" stroke-width="8.66667"/>
<path d="M44 334.334H65.6667V325.667M65.6667 325.667H52.6667M65.6667 325.667H78.6667M65.6667 325.667V308.334M65.6667 308.334H57M65.6667 308.334V299.667H57V308.334M65.6667 308.334H74.3333V317H91.6667V334.334H78.6667H100.333M48.3333 321.334V308.334H57M100.333 334.334V321.334M100.333 334.334H135V325.667H117.667V317M117.667 317H109V308.334M117.667 317V299.667M109 308.334H96M109 308.334V299.667H117.667M117.667 299.667H126.333M135 299.667V308.334H143.667V317M135 299.667H126.333M135 299.667V282.334M135 299.667H152.333M213 325.667V334.334H152.333V325.667H143.667V317M213 325.667H221.667M213 325.667H200M213 325.667V299.667M282.333 325.667V334.334H265M282.333 325.667H295.333M282.333 325.667V317H273.667V308.334H265V286.667V334.334M265 334.334H256.333M256.333 334.334V317M256.333 334.334H239M234.667 291H247.667V299.667H256.333V317M256.333 317H239M239 317V334.334M239 317V308.334H230.333M239 334.334H230.333V325.667H221.667M230.333 308.334V295.334M230.333 308.334H221.667V325.667M187 317H195.667V308.334H204.333V299.667M187 317V325.667H169.667V317M187 317V299.667M169.667 317H161M169.667 317V308.334H161M143.667 317H161M161 317V308.334M161 308.334V299.667M161 299.667V291M161 299.667H152.333M161 291H178.333M161 291V282.334M178.333 291V299.667H187M178.333 291V273.667M187 299.667H204.333M187 299.667H213M187 299.667V273.667H204.333V256.333H195.667M204.333 299.667V282.334H213V299.667M126.333 299.667V256.333H135M200 265H178.333M178.333 265H135V273.667M178.333 265V273.667M161 273.667H178.333M161 273.667H135M161 273.667V282.334M135 273.667V282.334M161 282.334H152.333M135 282.334H152.333M152.333 282.334V299.667M135 256.333V230.333H143.667V204.333H152.333V178.333M135 256.333H187M152.333 178.333H139.333M152.333 178.333V169.667H161V152.333H169.667V169.667H178.333M191.333 169.667H178.333M178.333 169.667V204.333H187V230.333H195.667V256.333M195.667 256.333H187M187 256.333V239H178.333V213H169.667V178.333H161V213H152.333V239H143.667V247.667H161M182.667 247.667H169.667M169.667 247.667V221.667H161V247.667M169.667 247.667H161M96 299.667H83V291H70" stroke="white" stroke-width="8.66667"/>
<path d="M31 338.667V330" stroke="white" stroke-width="8.66667"/>
<path d="M39.6665 330V321.333" stroke="white" stroke-width="8.66667"/>
<path d="M178.333 148V135H152.333V148" stroke="white" stroke-width="8.66667"/>
<path d="M204.333 87.3335V100.333M204.333 100.333V135H213V100.333H204.333Z" stroke="white" stroke-width="8.66667"/>
<path d="M126.333 87.3335V100.333M126.333 100.333V135H117.667V100.333H126.333Z" stroke="white" stroke-width="8.66667"/>
<path d="M152.333 117.667H143.667V74.3333H187V117.667H178.333M152.333 117.667V83H178.333V117.667M152.333 117.667H161M178.333 117.667H169.667M169.667 117.667V91.6667H161V117.667M169.667 117.667H161M139.333 57H191.333" stroke="white" stroke-width="8.66667"/>
<path d="M161 39.6667H143.667V31.0001H152.333V22.3334H161V13.6667H169.667V22.3334H178.333V31.0001H187V39.6667H169.667M161 39.6667V31.0001H169.667V39.6667M161 39.6667H169.667" stroke="white" stroke-width="8.66667"/>
<path d="M143.667 148V165.334" stroke="white" stroke-width="8.66667"/>
<path d="M126.333 156.667V165.334" stroke="white" stroke-width="8.66667"/>
<path d="M135 165.333V174" stroke="white" stroke-width="8.66667"/>
<path d="M126.333 174V182.667" stroke="white" stroke-width="8.66667"/>
<path d="M187 148V156.667" stroke="white" stroke-width="8.66667"/>
<path d="M195.667 156.667V165.334" stroke="white" stroke-width="8.66667"/>
<path d="M204.333 165.333V174" stroke="white" stroke-width="8.66667"/>
<path d="M195.667 174V182.667" stroke="white" stroke-width="8.66667"/>
<path d="M291 295.333V312.667" stroke="white" stroke-width="8.66667"/>
<path d="M299.666 312.667V321.333" stroke="white" stroke-width="8.66667"/>
<path d="M299.666 330V338.667" stroke="white" stroke-width="8.66667"/>
<path d="M317 304V312.666" stroke="white" stroke-width="8.66667"/>
<path d="M317 321.333V330" stroke="white" stroke-width="8.66667"/>
<path d="M299.666 278V286.667" stroke="white" stroke-width="8.66667"/>
<path d="M282.333 286.667V295.334" stroke="white" stroke-width="8.66667"/>
<path d="M265 260.667V269.333" stroke="white" stroke-width="8.66667"/>
<path d="M273.667 278V286.667" stroke="white" stroke-width="8.66667"/>
<path d="M256.333 278V286.667" stroke="white" stroke-width="8.66667"/>
<path d="M239 269.333V278" stroke="white" stroke-width="8.66667"/>
<path d="M109 260.667V269.333" stroke="white" stroke-width="8.66667"/>
<path d="M91.6665 278V286.667" stroke="white" stroke-width="8.66667"/>
<path d="M100.333 286.667V295.334" stroke="white" stroke-width="8.66667"/>
<path d="M74.333 260.667V269.333" stroke="white" stroke-width="8.66667"/>
<path d="M48.333 269.333V278" stroke="white" stroke-width="8.66667"/>
<path d="M31 278V286.667" stroke="white" stroke-width="8.66667"/>
<path d="M65.6665 278V286.667" stroke="white" stroke-width="8.66667"/>
<path d="M48.333 286.667V295.334" stroke="white" stroke-width="8.66667"/>
<path d="M39.6665 295.333V304" stroke="white" stroke-width="8.66667"/>
<path d="M22.3335 304V312.666" stroke="white" stroke-width="8.66667"/>
<path d="M31 312.667V321.333" stroke="white" stroke-width="8.66667"/>
<path d="M13.6665 321.333V330" stroke="white" stroke-width="8.66667"/>
</svg>
