<svg width="605" height="121" viewBox="0 0 605 121" fill="none" xmlns="http://www.w3.org/2000/svg">
<path d="M524.343 62.5625V68.1094H513.249V79.2033H518.796V84.7502H513.249V118.032H535.437V101.391H540.984V95.8441H546.531V90.2972H552.078V95.8441H563.172V118.032H585.359V95.8441H590.906V90.2972H596.453V68.1094H590.906V62.5625H602V45.9216H596.453V34.8278H602V23.7339H590.906V29.2808H557.625V34.8278H552.078V29.2808H518.796V40.3747H507.702V51.4686H513.249V57.0155H518.796V62.5625H524.343Z" fill="#252525"/>
<path d="M538.21 68.1094H524.343M524.343 68.1094V62.5625H518.796V57.0155H513.249V51.4686H507.702V40.3747H518.796V29.2808H552.078V34.8278H557.625V29.2808H590.906V23.7339H602V34.8278H596.453V45.9216H602V62.5625H590.906V68.1094H596.453V90.2972H590.906V95.8441H585.359V118.032H563.172V95.8441H552.078V90.2972H546.531M524.343 68.1094H513.249V79.2033H518.796V84.7502H513.249V118.032H535.437V101.391H540.984V95.8441H546.531V90.2972M546.531 90.2972V81.9768" stroke="#252525" stroke-width="5.54694"/>
<path d="M431.198 37.0877L515.679 70.6531L515.833 76.188L431.198 58.4278L315 97.9998L176.5 51.4998L4.5 86.9998V20.9998L165.5 4.99976L309.937 57.8752L431.198 37.0877Z" fill="white"/>
<path d="M593.658 31.5774H588.084V37.1511H593.658V31.5774Z" fill="white"/>
<path d="M515.659 53.8559H521.23V59.4269H526.801V64.9979H537.943V70.5689H515.659V76.14H521.23V87.282H515.659V115.137H521.23V92.853H526.801V115.137H532.372V98.4241H537.943V92.853H543.514V81.711H549.085V87.282H554.656V92.853H565.798V115.137H571.369V92.853H576.94V115.137H582.511V92.853H588.082V87.282H593.653V70.5689H588.082V64.9979H582.511V53.8559H588.082V59.4269H599.224V48.2848H593.653V42.7138H588.082V37.1428H576.94V31.5718H571.369V37.1428H565.798V70.5689H560.227V42.7138H554.656V59.4269H549.085V48.2848H543.514V42.7138H526.801V48.2848H532.372V53.8559H526.801V48.2848H521.23V42.7138H510.088V48.2848H515.659V53.8559ZM571.369 42.7138H576.94V48.2848H571.369V42.7138Z" fill="white"/>
<path d="M554.663 37.1375H549.089V42.7112H554.663V37.1375Z" fill="white"/>
<path d="M565.802 31.5718H560.229V37.1455H565.802V31.5718Z" fill="white"/>
<path d="M549.089 31.5718H521.233V37.1428H549.089V31.5718Z" fill="white"/>
<path d="M599.227 26.0063H593.653V31.5801H599.227V26.0063Z" fill="white"/>
<path d="M516.447 68.005L431.267 34.2033L310 60.5686L166 3L3 19.5V89L176.5 52.5L315 99.5L431.605 60.5686L515.433 78.8215" stroke="#252525" stroke-width="5.40827"/>
</svg>
