<svg width="171" height="207" viewBox="0 0 171 207" fill="none" xmlns="http://www.w3.org/2000/svg">
<path d="M123.841 19.3691H48.9558L19.5366 62.3279V132.867H152.09V69.0141L123.841 19.3691Z" fill="#252525"/>
<path d="M157.962 157.962V133.808H145.885V121.731H25.1155V133.808H13.0386V157.962H37.1924V145.885H49.2694V157.962H61.3463V182.116H49.2694V194.193H73.4232V157.962H97.5771V194.193H121.731V182.116H109.654V157.962H121.731V145.885H133.808V157.962H157.962Z" fill="white"/>
<path d="M157.962 37.1924H145.885V25.1155H133.808V13.0386H37.1924V25.1155H25.1155V37.1924H13.0386V97.5771H25.1155V109.654H37.1924V49.2694H49.2694V37.1924H61.3463V25.1155H109.654V37.1924H121.731V49.2694H133.808V109.654H145.885V97.5771H157.962V37.1924Z" fill="white"/>
<path d="M109.654 37.1924H61.3465V49.2693H49.2695V109.654H121.731V49.2693H109.654V37.1924ZM109.654 85.5001H97.5772V97.577H73.4234V85.5001H61.3465V61.3462H73.4234V85.5001H97.5772V61.3462H109.654V85.5001Z" fill="white"/>
<path d="M127.769 164H164V127.769H151.923V103.615H164V31.1538H151.923V19.0769H139.846V7H43.2308H31.1538V19.0769H19.0769V31.1538H7V103.615H19.0769V127.769H7V164H43.2308M127.769 164V145.885M127.769 164H115.692V176.077H127.769V200.231H91.5385V164H79.4615V200.231H43.2308V176.077H55.3077V164H43.2308M43.2308 164V145.885" stroke="#252525" stroke-width="12.0769"/>
</svg>
