<svg width="16" height="16" viewBox="0 0 16 16" fill="none" xmlns="http://www.w3.org/2000/svg">
<path d="M1 5H2V6H3V7H5V8H1V9H2V11H1V16H2V12H3V16H4V13H5V12H6V10H7V11H8V12H10V16H11V12H12V16H13V12H14V11H15V8H14V7H13V5H14V6H16V4H15V3H14V2H12V1H11V2H10V8H9V3H8V6H7V4H6V3H3V4H4V5H3V4H2V3H0V4H1V5ZM11 3H12V4H11V3Z" fill="white"/>
<path d="M8 2H7V3H8V2Z" fill="white"/>
<path d="M15 1H14V2H15V1Z" fill="white"/>
<path d="M10 1H9V2H10V1Z" fill="white"/>
<path d="M7 1H2V2H7V1Z" fill="white"/>
<path d="M16 0H15V1H16V0Z" fill="white"/>
</svg>
