<svg width="14" height="16" viewBox="0 0 14 16" fill="none" xmlns="http://www.w3.org/2000/svg">
<path d="M8 11H6V14H5V15H2V16H12V15H9V14H8V11Z" fill="white"/>
<path d="M8 9H6V10H8V9Z" fill="white"/>
<path d="M9 8H8V9H9V8Z" fill="white"/>
<path d="M6 8H5V9H6V8Z" fill="white"/>
<path d="M10 7H9V8H10V7Z" fill="white"/>
<path d="M5 7H4V8H5V7Z" fill="white"/>
<path d="M11 6H10V7H11V6Z" fill="white"/>
<path d="M8 6H7V7H8V6Z" fill="white"/>
<path d="M4 6H3V7H4V6Z" fill="white"/>
<path d="M0 3V4H1V5H2V6H3V5H8V6H9V5H11V6H12V5H13V4H14V3H12V2H11V3H0Z" fill="white"/>
<path d="M13 1H12V2H13V1Z" fill="white"/>
<path d="M14 0H13V1H14V0Z" fill="white"/>
</svg>
