<svg width="15" height="15" viewBox="0 0 15 15" fill="none" xmlns="http://www.w3.org/2000/svg">
<path d="M13 10H10V15H13V10Z" fill="white"/>
<path d="M4 9H1V15H4V9Z" fill="white"/>
<path d="M13 8H10V9H13V8Z" fill="white"/>
<path d="M10 5H9V6H10V5Z" fill="white"/>
<path d="M5 6V0H4V4H3V0H2V4H1V0H0V6H2V7H1V8H4V7H3V6H5Z" fill="white"/>
<path d="M9 2H8V5H9V2Z" fill="white"/>
<path d="M14 3H13V2H10V5H11V6H10V7H13V6H14V5H15V2H14V3Z" fill="white"/>
<path d="M14 1H13V2H14V1Z" fill="white"/>
<path d="M10 1H9V2H10V1Z" fill="white"/>
<path d="M13 0H10V1H13V0Z" fill="white"/>
</svg>
