<svg width="13" height="14" viewBox="0 0 13 14" fill="none" xmlns="http://www.w3.org/2000/svg">
<path d="M9 13H4V14H9V13Z" fill="white"/>
<path d="M10 12H9V13H10V12Z" fill="white"/>
<path d="M4 12H3V13H4V12Z" fill="white"/>
<path d="M5 11H4V12H5V11Z" fill="white"/>
<path d="M3 8H2V12H3V8Z" fill="white"/>
<path d="M12 7H11V8H12V7Z" fill="white"/>
<path d="M4 7H3V8H4V7Z" fill="white"/>
<path d="M2 7H1V8H2V7Z" fill="white"/>
<path d="M13 5H12V7H13V5Z" fill="white"/>
<path d="M5 7V8H6V9H5V8H4V10H5V11H6V10H7V11H6V12H9V11H10V12H11V8H10V7H9V6H8V4H5V6H4V7H5ZM8 10V9H9V10H8Z" fill="white"/>
<path d="M10 5H9V6H10V5Z" fill="white"/>
<path d="M4 5H3V6H4V5Z" fill="white"/>
<path d="M1 5H0V7H1V5Z" fill="white"/>
<path d="M12 4H10V5H12V4Z" fill="white"/>
<path d="M3 4H1V5H3V4Z" fill="white"/>
<path d="M4 0V3H9V0H4ZM8 2H5V1H8V2Z" fill="white"/>
</svg>
