<svg width="14" height="15" viewBox="0 0 14 15" fill="none" xmlns="http://www.w3.org/2000/svg">
<path d="M12 14H2V15H12V14Z" fill="white"/>
<path d="M13 13H12V14H13V13Z" fill="white"/>
<path d="M2 13H1V14H2V13Z" fill="white"/>
<path d="M14 9H13V13H14V9Z" fill="white"/>
<path d="M11 13V12H12V10H5V12H6V13H11Z" fill="white"/>
<path d="M4 12H3V13H4V12Z" fill="white"/>
<path d="M3 10H2V12H3V10Z" fill="white"/>
<path d="M1 9H0V13H1V9Z" fill="white"/>
<path d="M13 8H12V9H13V8Z" fill="white"/>
<path d="M2 8H1V9H2V8Z" fill="white"/>
<path d="M12 7H9V8H12V7Z" fill="white"/>
<path d="M5 7H2V8H5V7Z" fill="white"/>
<path d="M6 5H5V7H6V5Z" fill="white"/>
<path d="M9 5H8V7H9V5Z" fill="white"/>
<path d="M10 3H4V4H10V3Z" fill="white"/>
<path d="M9 2V0H5V2H6V1H7V2H9Z" fill="white"/>
</svg>
