<svg width="14" height="14" viewBox="0 0 14 14" fill="none" xmlns="http://www.w3.org/2000/svg">
<path d="M12 13H2V14H12V13Z" fill="white"/>
<path d="M13 12H12V13H13V12Z" fill="white"/>
<path d="M2 12H1V13H2V12Z" fill="white"/>
<path d="M6 11H4V12H6V11Z" fill="white"/>
<path d="M7 10H6V11H7V10Z" fill="white"/>
<path d="M1 7H2V8H4V7H3V6H2V5H1V3H0V12H1V7Z" fill="white"/>
<path d="M9 9H7V10H9V9Z" fill="white"/>
<path d="M6 10V9H7V8H9V9H10V7H9V6H7V7H6V8H4V9H2V11H4V10H6Z" fill="white"/>
<path d="M5 6H7V5H8V3H6V4H5V5H4V7H5V6Z" fill="white"/>
<path d="M11 4H9V6H11V4Z" fill="white"/>
<path d="M4 4H2V5H4V4Z" fill="white"/>
<path d="M13 6H12V7H13V8H12V7H11V9H12V10H9V11H8V12H12V11H13V12H14V3H13V6Z" fill="white"/>
<path d="M13 2H12V3H13V2Z" fill="white"/>
<path d="M2 2H1V3H2V2Z" fill="white"/>
<path d="M12 0H2V2H12V0Z" fill="white"/>
</svg>
