<svg width="16" height="16" viewBox="0 0 16 16" fill="none" xmlns="http://www.w3.org/2000/svg">
<path d="M14 14H13V16H14V14Z" fill="white"/>
<path d="M16 13H15V16H16V13Z" fill="white"/>
<path d="M3 14H2V16H3V14Z" fill="white"/>
<path d="M1 13H0V16H1V13Z" fill="white"/>
<path d="M11 7V6H10V5H11V3H9V6H7V3H5V5H6V6H5V7H3V8H2V11H3V12H1V13H3V14H5V13H4V12H5V13H11V12H12V13H11V14H13V13H15V12H13V11H14V8H13V7H11ZM10 7V8H11V9H10V8H9V7H10ZM6 8V7H7V8H6V9H5V8H6Z" fill="white"/>
<path d="M14 6H13V7H14V6Z" fill="white"/>
<path d="M3 6H2V7H3V6Z" fill="white"/>
<path d="M3 5V4H4V2H3V3H2V2H3V1H4V0H1V1H0V5H1V6H2V5H3Z" fill="white"/>
<path d="M15 0H12V1H13V2H14V3H13V2H12V4H13V5H14V6H15V5H16V1H15V0Z" fill="white"/>
</svg>
