<svg width="15" height="15" viewBox="0 0 15 15" fill="none" xmlns="http://www.w3.org/2000/svg">
<path d="M11 13H9V14H11V13Z" fill="white"/>
<path d="M8 11H10V10H11V8H9V9H8V7H7V14H6V15H9V14H8V11Z" fill="white"/>
<path d="M6 13H4V14H6V13Z" fill="white"/>
<path d="M13 12H11V13H13V12Z" fill="white"/>
<path d="M4 12H2V13H4V12Z" fill="white"/>
<path d="M14 11H13V12H14V11Z" fill="white"/>
<path d="M6 11H5V12H6V11Z" fill="white"/>
<path d="M2 11H1V12H2V11Z" fill="white"/>
<path d="M1 4H0V11H1V4Z" fill="white"/>
<path d="M13 7H12V8H13V7Z" fill="white"/>
<path d="M10 6H8V7H10V6Z" fill="white"/>
<path d="M7 6H5V7H7V6Z" fill="white"/>
<path d="M2 10H3V11H5V10H6V9H5V8H4V9H3V8H4V7H3V6H2V10Z" fill="white"/>
<path d="M12 5H10V6H12V5Z" fill="white"/>
<path d="M5 5H3V6H5V5Z" fill="white"/>
<path d="M15 4H14V11H15V4Z" fill="white"/>
<path d="M13 4H12V5H13V4Z" fill="white"/>
<path d="M3 4H2V5H3V4Z" fill="white"/>
<path d="M14 3H13V4H14V3Z" fill="white"/>
<path d="M5 3V4H6V5H9V4H8V3H5Z" fill="white"/>
<path d="M2 3H1V4H2V3Z" fill="white"/>
<path d="M13 2H11V3H13V2Z" fill="white"/>
<path d="M9 2H8V3H9V2Z" fill="white"/>
<path d="M4 2H2V3H4V2Z" fill="white"/>
<path d="M11 1H9V2H11V1Z" fill="white"/>
<path d="M6 1H4V2H6V1Z" fill="white"/>
<path d="M9 0H6V1H9V0Z" fill="white"/>
</svg>
