<svg width="15" height="16" viewBox="0 0 15 16" fill="none" xmlns="http://www.w3.org/2000/svg">
<path d="M9 16V15H10V11H9V10H6V11H5V15H6V16H9Z" fill="white"/>
<path d="M14 13H13V14H14V13Z" fill="white"/>
<path d="M2 13H1V14H2V13Z" fill="white"/>
<path d="M13 11H12V13H13V11Z" fill="white"/>
<path d="M3 11H2V13H3V11Z" fill="white"/>
<path d="M12 10H11V11H12V10Z" fill="white"/>
<path d="M4 10H3V11H4V10Z" fill="white"/>
<path d="M11 9H10V10H11V9Z" fill="white"/>
<path d="M5 9H4V10H5V9Z" fill="white"/>
<path d="M12 7H11V8H12V7Z" fill="white"/>
<path d="M10 6H9V5H6V6H5V8H6V9H9V8H10V6Z" fill="white"/>
<path d="M4 7H3V8H4V7Z" fill="white"/>
<path d="M13 6H12V7H13V6Z" fill="white"/>
<path d="M3 6H2V7H3V6Z" fill="white"/>
<path d="M15 5H13V6H15V5Z" fill="white"/>
<path d="M2 5H0V6H2V5Z" fill="white"/>
<path d="M11 4H10V5H11V4Z" fill="white"/>
<path d="M5 4H4V5H5V4Z" fill="white"/>
<path d="M12 3H11V4H12V3Z" fill="white"/>
<path d="M4 3H3V4H4V3Z" fill="white"/>
<path d="M13 1H12V3H13V1Z" fill="white"/>
<path d="M10 2H9V1H6V2H5V4H10V2Z" fill="white"/>
<path d="M3 1H2V3H3V1Z" fill="white"/>
<path d="M14 0H13V1H14V0Z" fill="white"/>
<path d="M10 0H9V1H10V0Z" fill="white"/>
<path d="M6 0H5V1H6V0Z" fill="white"/>
<path d="M2 0H1V1H2V0Z" fill="white"/>
</svg>
