<svg width="12" height="16" viewBox="0 0 12 16" fill="none" xmlns="http://www.w3.org/2000/svg">
<path d="M12 10H6V14H12V10ZM7 13V11H9V13H7ZM11 13H10V12H11V13Z" fill="white"/>
<path d="M0 16H12V15H1V8H0V16Z" fill="white"/>
<path d="M10 7V6H9V5H6V6H5V7H4V8H3V11H5V9H12V8H11V7H10Z" fill="white"/>
<path d="M2 7H1V8H2V7Z" fill="white"/>
<path d="M3 6H2V7H3V6Z" fill="white"/>
<path d="M4 5H3V6H4V5Z" fill="white"/>
<path d="M3 2H2V4H3V2Z" fill="white"/>
<path d="M10 2H5V4H10V2Z" fill="white"/>
<path d="M9 0H3V1H9V0Z" fill="white"/>
</svg>
