<svg width="16" height="15" viewBox="0 0 16 15" fill="none" xmlns="http://www.w3.org/2000/svg">
<path d="M9 12H8V13H9V12Z" fill="white"/>
<path d="M14 11V2H13V14H3V15H14V13H16V11H14Z" fill="white"/>
<path d="M12 11H11V12H12V11Z" fill="white"/>
<path d="M10 11H9V12H10V11Z" fill="white"/>
<path d="M8 11H7V12H8V11Z" fill="white"/>
<path d="M6 11H5V12H6V11Z" fill="white"/>
<path d="M4 10H3V13H4V10Z" fill="white"/>
<path d="M11 10H10V11H11V10Z" fill="white"/>
<path d="M7 10H6V11H7V10Z" fill="white"/>
<path d="M12 9H11V10H12V9Z" fill="white"/>
<path d="M10 9H9V10H10V9Z" fill="white"/>
<path d="M8 9H7V10H8V9Z" fill="white"/>
<path d="M6 9H5V10H6V9Z" fill="white"/>
<path d="M3 9H2V10H3V9Z" fill="white"/>
<path d="M9 8H8V9H9V8Z" fill="white"/>
<path d="M5 8H4V9H5V8Z" fill="white"/>
<path d="M2 8H1V9H2V8Z" fill="white"/>
<path d="M12 7H11V8H12V7Z" fill="white"/>
<path d="M10 7H9V8H10V7Z" fill="white"/>
<path d="M8 7H7V8H8V7Z" fill="white"/>
<path d="M6 7H5V8H6V7Z" fill="white"/>
<path d="M4 7H3V8H4V7Z" fill="white"/>
<path d="M11 6H10V7H11V6Z" fill="white"/>
<path d="M7 6H6V7H7V6Z" fill="white"/>
<path d="M3 6H2V7H3V6Z" fill="white"/>
<path d="M12 5H11V6H12V5Z" fill="white"/>
<path d="M10 5H9V6H10V5Z" fill="white"/>
<path d="M8 5H7V6H8V5Z" fill="white"/>
<path d="M6 5H5V6H6V5Z" fill="white"/>
<path d="M4 5H3V6H4V5Z" fill="white"/>
<path d="M1 5H0V8H1V5Z" fill="white"/>
<path d="M9 4H8V5H9V4Z" fill="white"/>
<path d="M5 4H4V5H5V4Z" fill="white"/>
<path d="M3 4H1V5H3V4Z" fill="white"/>
<path d="M12 3H11V4H12V3Z" fill="white"/>
<path d="M10 3H9V4H10V3Z" fill="white"/>
<path d="M8 3H7V4H8V3Z" fill="white"/>
<path d="M6 3H5V4H6V3Z" fill="white"/>
<path d="M11 2H10V3H11V2Z" fill="white"/>
<path d="M7 2H6V3H7V2Z" fill="white"/>
<path d="M4 2H3V4H4V2Z" fill="white"/>
<path d="M13 1H12V2H13V1Z" fill="white"/>
<path d="M5 1H4V2H5V1Z" fill="white"/>
<path d="M12 0H5V1H12V0Z" fill="white"/>
</svg>
