<svg width="14" height="14" viewBox="0 0 14 14" fill="none" xmlns="http://www.w3.org/2000/svg">
<path d="M14 7H12V10H11V11H10V12H2V13H3V14H13V13H14V7Z" fill="white"/>
<path d="M10 9H1V10H10V9Z" fill="white"/>
<path d="M11 8H10V9H11V8Z" fill="white"/>
<path d="M9 7H3V8H9V7Z" fill="white"/>
<path d="M13 5H3V6H13V5Z" fill="white"/>
<path d="M2 5H3V1H2V3H1V4H2V5Z" fill="white"/>
<path d="M1 4H0V9H1V4Z" fill="white"/>
<path d="M11 3H4V4H11V3Z" fill="white"/>
<path d="M14 1H13V5H14V1Z" fill="white"/>
<path d="M13 0H3V1H13V0Z" fill="white"/>
</svg>
