<svg width="10" height="16" viewBox="0 0 10 16" fill="none" xmlns="http://www.w3.org/2000/svg">
<path d="M10 14H4V16H10V14Z" fill="white"/>
<path d="M2 14H0V16H2V14Z" fill="white"/>
<path d="M3 11H2V13H3V11Z" fill="white"/>
<path d="M5 10H4V11H5V10Z" fill="white"/>
<path d="M6 8H5V9H6V8Z" fill="white"/>
<path d="M6 5H5V6H6V5Z" fill="white"/>
<path d="M10 3H9V13H10V3Z" fill="white"/>
<path d="M8 3H7V13H8V3Z" fill="white"/>
<path d="M0 13H1V4H2V10H3V3H0V13Z" fill="white"/>
<path d="M10 0H4V2H10V0Z" fill="white"/>
<path d="M2 0H0V2H2V0Z" fill="white"/>
</svg>
