<svg width="13" height="14" viewBox="0 0 13 14" fill="none" xmlns="http://www.w3.org/2000/svg">
<path d="M11 7V8H2V7H1V6H0V8H1V10H2V13H3V14H10V13H11V10H12V8H13V6H12V7H11Z" fill="white"/>
<path d="M12 5H11V6H12V5Z" fill="white"/>
<path d="M2 6V7H11V6H5V5H4V6H3V5H2V4H3V3H2V2H3V1H4V2H5V1H6V2H7V1H8V2H9V1H11V0H2V1H1V2H0V5H1V6H2Z" fill="white"/>
<path d="M8 4H7V5H8V4Z" fill="white"/>
<path d="M6 4H5V5H6V4Z" fill="white"/>
<path d="M4 4H3V5H4V4Z" fill="white"/>
<path d="M13 2H12V5H13V2Z" fill="white"/>
<path d="M9 3H8V4H9V3Z" fill="white"/>
<path d="M7 3H6V4H7V3Z" fill="white"/>
<path d="M5 3H4V4H5V3Z" fill="white"/>
<path d="M8 2H7V3H8V2Z" fill="white"/>
<path d="M6 2H5V3H6V2Z" fill="white"/>
<path d="M4 2H3V3H4V2Z" fill="white"/>
<path d="M12 1H11V2H12V1Z" fill="white"/>
</svg>
