<svg width="16" height="13" viewBox="0 0 16 13" fill="none" xmlns="http://www.w3.org/2000/svg">
<path d="M15 8H14V9H15V8Z" fill="white"/>
<path d="M2 8H1V9H2V8Z" fill="white"/>
<path d="M16 6H15V8H16V6Z" fill="white"/>
<path d="M1 6H0V8H1V6Z" fill="white"/>
<path d="M15 5H13V6H15V5Z" fill="white"/>
<path d="M12 5H11V4H10V5H6V4H5V5H4V6H3V11H4V12H5V13H11V12H12V11H13V6H12V5Z" fill="white"/>
<path d="M3 5H1V6H3V5Z" fill="white"/>
<path d="M10 3H6V4H10V3Z" fill="white"/>
<path d="M11 1H10V3H11V1Z" fill="white"/>
<path d="M6 1H5V3H6V1Z" fill="white"/>
<path d="M10 0H6V1H10V0Z" fill="white"/>
</svg>
