<svg width="15" height="15" viewBox="0 0 15 15" fill="none" xmlns="http://www.w3.org/2000/svg">
<path d="M3 14V13H2V12H1V10H0V13H1V14H2V15H5V14H3Z" fill="white"/>
<path d="M6 13H5V14H6V13Z" fill="white"/>
<path d="M7 12H6V13H7V12Z" fill="white"/>
<path d="M4 12H3V13H4V12Z" fill="white"/>
<path d="M8 11H7V12H8V11Z" fill="white"/>
<path d="M9 10H8V11H9V10Z" fill="white"/>
<path d="M10 9H9V10H10V9Z" fill="white"/>
<path d="M4 9H3V10H4V9Z" fill="white"/>
<path d="M2 9H1V10H2V9Z" fill="white"/>
<path d="M11 8H10V9H11V8Z" fill="white"/>
<path d="M3 8H2V9H3V8Z" fill="white"/>
<path d="M14 5H13V6H14V5Z" fill="white"/>
<path d="M12 5H11V4H10V3H9V2H7V3H8V4H9V5H10V6H11V7H12V8H13V6H12V5Z" fill="white"/>
<path d="M15 4H14V5H15V4Z" fill="white"/>
<path d="M6 4V5H5V6H4V7H3V8H6V9H7V8H10V7H9V6H8V5H7V4H6Z" fill="white"/>
<path d="M14 3H13V4H14V3Z" fill="white"/>
<path d="M10 3H11V4H12V3H13V2H12V1H11V0H10V1H9V2H10V3Z" fill="white"/>
</svg>
