<svg width="16" height="16" viewBox="0 0 16 16" fill="none" xmlns="http://www.w3.org/2000/svg">
<path d="M14 14H13V15H14V14Z" fill="white"/>
<path d="M3 14H2V15H3V14Z" fill="white"/>
<path d="M15 13H14V14H15V13Z" fill="white"/>
<path d="M2 13H1V14H2V13Z" fill="white"/>
<path d="M10 7H9V8H10V7Z" fill="white"/>
<path d="M9 6H8V7H9V6Z" fill="white"/>
<path d="M15 4H12V1H13V0H3V1H4V4H1V3H0V13H1V12H4V15H3V16H13V15H12V12H15V13H16V3H15V4ZM11 8H10V9H11V11H9V10H8V9H7V8H6V7H5V5H7V6H8V5H11V8ZM5 11V9H6V10H7V11H5ZM11 1V3H10V2H9V1H11ZM5 1H7V2H8V3H9V4H5V1ZM1 11V9H2V10H3V7H2V6H1V5H4V11H1ZM5 15V12H6V13H7V14H8V15H5ZM11 15H10V14H9V13H8V12H11V15ZM15 11H12V5H15V11Z" fill="white"/>
<path d="M15 2H14V3H15V2Z" fill="white"/>
<path d="M2 2H1V3H2V2Z" fill="white"/>
<path d="M14 1H13V2H14V1Z" fill="white"/>
<path d="M3 1H2V2H3V1Z" fill="white"/>
</svg>
