<svg width="16" height="15" viewBox="0 0 16 15" fill="none" xmlns="http://www.w3.org/2000/svg">
<path d="M4 14H3V15H4V14Z" fill="white"/>
<path d="M3 13H2V14H3V13Z" fill="white"/>
<path d="M2 12H1V13H2V12Z" fill="white"/>
<path d="M1 3H0V12H1V3Z" fill="white"/>
<path d="M10 8H9V10H10V8Z" fill="white"/>
<path d="M8 5H7V7H8V5Z" fill="white"/>
<path d="M15 2H14V1H13V0H5V1H4V2H3V3H2V12H3V13H4V14H5V15H13V14H14V13H15V12H16V3H15V2ZM5 9H6V10H8V8H6V7H5V5H6V4H8V3H9V4H11V5H12V6H11V5H9V7H11V8H12V10H11V11H9V12H8V11H6V10H5V9ZM15 4V11H14V12H13V13H12V14H11V13H12V12H13V11H14V4H13V3H12V2H6V3H5V4H4V10H3V4H4V3H5V2H6V1H12V2H13V3H14V4H15Z" fill="white"/>
<path d="M2 2H1V3H2V2Z" fill="white"/>
<path d="M3 1H2V2H3V1Z" fill="white"/>
<path d="M4 0H3V1H4V0Z" fill="white"/>
</svg>
