<svg width="14" height="14" viewBox="0 0 14 14" fill="none" xmlns="http://www.w3.org/2000/svg">
<path d="M6 13H2V14H6V13Z" fill="white"/>
<path d="M1 13H0V14H1V13Z" fill="white"/>
<path d="M2 12H1V13H2V12Z" fill="white"/>
<path d="M8 11H4V12H8V11Z" fill="white"/>
<path d="M3 11H2V12H3V11Z" fill="white"/>
<path d="M4 10H3V11H4V10Z" fill="white"/>
<path d="M1 8H0V12H1V8Z" fill="white"/>
<path d="M9 9H6V10H9V9Z" fill="white"/>
<path d="M5 9H4V10H5V9Z" fill="white"/>
<path d="M6 8H5V9H6V8Z" fill="white"/>
<path d="M3 6H2V10H3V6Z" fill="white"/>
<path d="M11 7H8V8H11V7Z" fill="white"/>
<path d="M7 7H6V8H7V7Z" fill="white"/>
<path d="M8 6H7V7H8V6Z" fill="white"/>
<path d="M5 5H4V8H5V5Z" fill="white"/>
<path d="M13 5H10V6H13V5Z" fill="white"/>
<path d="M9 5H8V6H9V5Z" fill="white"/>
<path d="M10 4H9V5H10V4Z" fill="white"/>
<path d="M7 3H6V6H7V3Z" fill="white"/>
<path d="M14 3H12V4H14V3Z" fill="white"/>
<path d="M11 3H10V4H11V3Z" fill="white"/>
<path d="M12 2H11V3H12V2Z" fill="white"/>
<path d="M9 1H8V4H9V1Z" fill="white"/>
<path d="M13 1H12V2H13V1Z" fill="white"/>
<path d="M11 0H10V2H11V0Z" fill="white"/>
</svg>
