<svg width="13" height="15" viewBox="0 0 13 15" fill="none" xmlns="http://www.w3.org/2000/svg">
<path d="M8 14H5V15H8V14Z" fill="white"/>
<path d="M0 12H1V13H12V12H13V11H11V10H12V9H10V10H9V11H8V10H9V9H10V8H11V7H9V8H8V9H7V8H8V7H9V6H10V5H8V6H7V7H6V6H5V5H3V6H4V7H5V8H6V9H5V8H4V7H2V8H3V9H4V10H5V11H4V10H3V9H1V10H2V11H0V12Z" fill="white"/>
<path d="M7 5H6V6H7V5Z" fill="white"/>
<path d="M6 4H7V5H8V4H9V3H7V2H6V3H4V4H5V5H6V4Z" fill="white"/>
<path d="M8 1H7V2H8V1Z" fill="white"/>
<path d="M6 1H5V2H6V1Z" fill="white"/>
<path d="M7 0H6V1H7V0Z" fill="white"/>
</svg>
