<svg width="14" height="14" viewBox="0 0 14 14" fill="none" xmlns="http://www.w3.org/2000/svg">
<path d="M14 10H13V13H14V10Z" fill="white"/>
<path d="M12 6H11V7H10V6H9V5H8V13H9V14H10V12H9V10H10V8H11V10H10V12H11V14H13V13H12V10H13V8H14V6H13V5H12V6Z" fill="white"/>
<path d="M10 5V6H11V5H12V4H13V5H14V3H13V2H12V0H10V2H9V3H8V4H9V5H10Z" fill="white"/>
<path d="M4 4H3V5H2V8H3V10H2V8H1V5H0V10H1V12H0V13H1V14H2V12H3V14H5V13H4V11H5V13H6V6H5V8H4V6H5V5H4V4Z" fill="white"/>
<path d="M4 0H2V2H1V3H0V4H1V5H2V4H3V3H4V4H5V5H6V3H5V2H4V0Z" fill="white"/>
</svg>
