<svg width="14" height="15" viewBox="0 0 14 15" fill="none" xmlns="http://www.w3.org/2000/svg">
<path d="M14 13H13V14H14V13Z" fill="white"/>
<path d="M10 13V14H9V15H11V14H12V13H13V12H11V13H10Z" fill="white"/>
<path d="M3 13H1V14H2V15H4V14H3V13Z" fill="white"/>
<path d="M1 10H0V11H1V10Z" fill="white"/>
<path d="M14 9H13V10H14V9Z" fill="white"/>
<path d="M1 9V10H2V12H3V13H4V14H5V15H8V14H9V13H10V12H11V10H12V9H13V8H10V9H9V10H8V13H7V9H6V13H5V11H4V10H3V9H1Z" fill="white"/>
<path d="M11 7V5H9V6H8V8H10V7H11Z" fill="white"/>
<path d="M4 5H2V7H3V8H6V7H5V6H4V5Z" fill="white"/>
<path d="M9 5V4H8V3H5V4H4V5H5V6H8V5H9Z" fill="white"/>
<path d="M8 3H9V4H11V2H10V1H8V3Z" fill="white"/>
<path d="M5 3V2H2V4H4V3H5Z" fill="white"/>
<path d="M7 2V1H8V0H4V1H5V2H7Z" fill="white"/>
</svg>
