<svg width="11" height="15" viewBox="0 0 11 15" fill="none" xmlns="http://www.w3.org/2000/svg">
<path d="M9 15V14H10V13H11V12H8V13H7V15H9Z" fill="white"/>
<path d="M0 12H1V14H2V15H4V12H3V11H0V12Z" fill="white"/>
<path d="M6 8H5V15H6V8Z" fill="white"/>
<path d="M6 6V7H7V8H8V9H10V7H9V6H6Z" fill="white"/>
<path d="M5 6H3V7H2V9H4V8H5V6Z" fill="white"/>
<path d="M11 4H10V3H8V4H7V5H10V6H11V4Z" fill="white"/>
<path d="M6 4H5V5H6V4Z" fill="white"/>
<path d="M1 3V4H0V6H2V5H4V4H3V3H1Z" fill="white"/>
<path d="M5 3V1H4V0H1V2H3V3H5Z" fill="white"/>
<path d="M9 2V0H7V1H6V3H8V2H9Z" fill="white"/>
</svg>
