<svg width="15" height="15" viewBox="0 0 15 15" fill="none" xmlns="http://www.w3.org/2000/svg">
<path d="M9 14H6V15H9V14Z" fill="white"/>
<path d="M9 12H6V13H9V12Z" fill="white"/>
<path d="M9 10H6V11H9V10Z" fill="white"/>
<path d="M9 8H6V9H9V8Z" fill="white"/>
<path d="M3 5V8H4V7H5V6H6V4H4V5H3Z" fill="white"/>
<path d="M12 4H11V7H12V8H13V5H12V4Z" fill="white"/>
<path d="M9 3H7V6H8V7H9V8H10V4H9V3Z" fill="white"/>
<path d="M14 2H13V3H12V4H13V5H14V6H15V3H14V2Z" fill="white"/>
<path d="M12 3V1H11V0H8V1H7V2H9V3H10V4H11V3H12Z" fill="white"/>
<path d="M6 2V1H2V2H1V3H0V6H2V5H3V4H4V3H7V2H6Z" fill="white"/>
</svg>
