<svg width="14" height="14" viewBox="0 0 14 14" fill="none" xmlns="http://www.w3.org/2000/svg">
<path d="M10 12H12V11H13V8H11V9H10V10H9V13H10V12Z" fill="white"/>
<path d="M7 12H6V13H4V14H8V10H7V12Z" fill="white"/>
<path d="M4 10V11H1V12H2V13H4V12H6V10H7V9H5V10H4Z" fill="white"/>
<path d="M3 8V7H1V6H0V10H4V9H5V8H3Z" fill="white"/>
<path d="M9 6V5H8V3H9V2H6V6H7V7H11V6H9Z" fill="white"/>
<path d="M6 6H5V3H3V4H1V6H3V7H5V8H7V7H6V6Z" fill="white"/>
<path d="M12 3V5H11V6H13V5H14V3H12Z" fill="white"/>
<path d="M10 3H9V4H10V3Z" fill="white"/>
<path d="M12 2H11V3H12V2Z" fill="white"/>
<path d="M11 1H10V2H11V1Z" fill="white"/>
<path d="M10 0H2V1H10V0Z" fill="white"/>
</svg>
