<svg width="11" height="14" viewBox="0 0 11 14" fill="none" xmlns="http://www.w3.org/2000/svg">
<path d="M10 14V13H11V10H9V11H10V12H9V13H8V14H10Z" fill="white"/>
<path d="M6 9H5V14H6V9Z" fill="white"/>
<path d="M8 12H7V13H8V12Z" fill="white"/>
<path d="M4 12H3V13H4V12Z" fill="white"/>
<path d="M9 11H8V12H9V11Z" fill="white"/>
<path d="M3 11H2V12H3V11Z" fill="white"/>
<path d="M0 13H1V14H3V13H2V12H1V11H2V10H0V13Z" fill="white"/>
<path d="M8 3H9V0H7V1H6V3H7V4H8V3Z" fill="white"/>
<path d="M3 4H4V3H5V1H4V0H2V3H3V4Z" fill="white"/>
<path d="M0 2V6H1V7H2V8H9V7H10V6H11V2H10V3H9V6H8V5H7V4H4V5H3V6H2V3H1V2H0Z" fill="white"/>
</svg>
