<svg width="16" height="16" viewBox="0 0 16 16" fill="none" xmlns="http://www.w3.org/2000/svg">
<path d="M5 14H4V15H5V14Z" fill="white"/>
<path d="M4 13H3V14H4V13Z" fill="white"/>
<path d="M3 12H2V13H3V12Z" fill="white"/>
<path d="M5 11V12H6V15H5V16H7V12H8V11H5Z" fill="white"/>
<path d="M2 11H1V12H2V11Z" fill="white"/>
<path d="M9 10H8V11H9V10Z" fill="white"/>
<path d="M5 10H4V11H5V10Z" fill="white"/>
<path d="M10 9H9V10H10V9Z" fill="white"/>
<path d="M4 9H3V10H4V9Z" fill="white"/>
<path d="M1 9H0V11H1V9Z" fill="white"/>
<path d="M11 8H10V9H11V8Z" fill="white"/>
<path d="M7 8H6V9H7V8Z" fill="white"/>
<path d="M3 9V7H2V8H1V9H3Z" fill="white"/>
<path d="M12 7H11V8H12V7Z" fill="white"/>
<path d="M8 7H7V8H8V7Z" fill="white"/>
<path d="M6 7H5V8H6V7Z" fill="white"/>
<path d="M13 6H12V7H13V6Z" fill="white"/>
<path d="M9 6H8V7H9V6Z" fill="white"/>
<path d="M7 6H6V7H7V6Z" fill="white"/>
<path d="M4 6H3V7H4V6Z" fill="white"/>
<path d="M15 5H14V4H13V6H14V7H13V8H12V9H11V10H10V11H9V12H8V14H9V13H10V12H11V11H12V10H13V9H14V8H15V7H16V6H15V5Z" fill="white"/>
<path d="M10 5H9V6H10V5Z" fill="white"/>
<path d="M5 5H4V6H5V5Z" fill="white"/>
<path d="M11 4H10V5H11V4Z" fill="white"/>
<path d="M9 4H8V5H9V4Z" fill="white"/>
<path d="M6 4H5V5H6V4Z" fill="white"/>
<path d="M13 3H12V4H13V3Z" fill="white"/>
<path d="M7 3H6V4H7V3Z" fill="white"/>
<path d="M12 2H11V3H12V2Z" fill="white"/>
<path d="M8 2H7V3H8V2Z" fill="white"/>
<path d="M11 1H10V2H11V1Z" fill="white"/>
<path d="M9 1H8V2H9V1Z" fill="white"/>
<path d="M10 0H9V1H10V0Z" fill="white"/>
</svg>
