<svg width="16" height="16" viewBox="0 0 16 16" fill="none" xmlns="http://www.w3.org/2000/svg">
<path d="M10 15H11V16H13V14H12V13H10V15Z" fill="white"/>
<path d="M7 12V13H6V15H8V14H9V13H10V12H7Z" fill="white"/>
<path d="M2 10V11H1V14H3V13H4V12H6V11H5V10H2Z" fill="white"/>
<path d="M8 9H7V10H8V9Z" fill="white"/>
<path d="M1 8H4V9H5V10H6V7H5V6H4V5H1V6H0V9H1V8Z" fill="white"/>
<path d="M12 7V8H14V9H16V7H15V6H13V7H12Z" fill="white"/>
<path d="M11 7H9V8H8V9H9V10H10V11H11V12H13V9H12V8H11V7Z" fill="white"/>
<path d="M13 5H12V6H13V5Z" fill="white"/>
<path d="M5 6H6V7H7V3H6V2H2V3H1V4H4V5H5V6Z" fill="white"/>
<path d="M14 4H13V5H14V4Z" fill="white"/>
<path d="M16 3H14V4H16V3Z" fill="white"/>
<path d="M7 3H8V6H9V1H8V0H5V1H6V2H7V3Z" fill="white"/>
<path d="M12 0V1H11V2H10V6H11V5H12V4H13V3H14V2H15V1H16V0H12Z" fill="white"/>
</svg>
