<svg width="15" height="16" viewBox="0 0 15 16" fill="none" xmlns="http://www.w3.org/2000/svg">
<path d="M15 13H14V14H15V13Z" fill="white"/>
<path d="M2 14H3V6H1V7H2V9H1V10H2V12H1V13H2V14Z" fill="white"/>
<path d="M1 13H0V14H1V13Z" fill="white"/>
<path d="M15 10H14V11H15V10Z" fill="white"/>
<path d="M1 10H0V11H1V10Z" fill="white"/>
<path d="M15 7H14V8H15V7Z" fill="white"/>
<path d="M12 14H13V13H14V12H13V10H14V9H13V7H14V6H12V14Z" fill="white"/>
<path d="M1 7H0V8H1V7Z" fill="white"/>
<path d="M4 14H3V15H4V16H11V15H12V14H11V6H12V5H3V6H4V14ZM10 6V15H9V6H10ZM8 6V15H7V6H8ZM6 6V15H5V6H6Z" fill="white"/>
<path d="M6 2V3H5V4H10V3H9V2H6Z" fill="white"/>
<path d="M11 2V0H10V1H9V2H11Z" fill="white"/>
<path d="M5 1V0H4V2H6V1H5Z" fill="white"/>
</svg>
