<svg width="14" height="14" viewBox="0 0 14 14" fill="none" xmlns="http://www.w3.org/2000/svg">
<path d="M3 14H5V13H6V11H4V12H3V14Z" fill="white"/>
<path d="M8 12V13H9V14H12V13H11V12H8Z" fill="white"/>
<path d="M0 13H2V12H3V11H1V12H0V13Z" fill="white"/>
<path d="M14 12V10H13V9H11V11H12V12H14Z" fill="white"/>
<path d="M7 8V10H8V11H10V9H9V8H7Z" fill="white"/>
<path d="M0 10H2V9H3V10H5V9H6V7H4V8H3V7H1V8H0V10Z" fill="white"/>
<path d="M8 7V5H7V4H5V6H6V7H8Z" fill="white"/>
<path d="M11 5H9V7H10V8H12V6H11V5Z" fill="white"/>
<path d="M12 5V6H14V5H13V4H11V5H12Z" fill="white"/>
<path d="M0 3V5H1V6H4V4H3V3H0Z" fill="white"/>
<path d="M13 3V2H12V1H10V2H9V4H11V3H13Z" fill="white"/>
<path d="M5 3V1H4V0H2V2H3V3H5Z" fill="white"/>
<path d="M9 0H7V1H6V3H8V2H9V0Z" fill="white"/>
</svg>
