<svg width="14" height="15" viewBox="0 0 14 15" fill="none" xmlns="http://www.w3.org/2000/svg">
<path d="M4 14H3V15H4V14Z" fill="white"/>
<path d="M8 12H7V13H8V12Z" fill="white"/>
<path d="M6 6H5V5H4V4H3V1H2V2H1V5H2V6H3V7H4V14H5V15H7V13H6V6Z" fill="white"/>
<path d="M3 9H2V8H1V13H2V14H3V9Z" fill="white"/>
<path d="M9 11H10V4H9V3H8V1H7V2H6V4H7V5H8V12H9V11Z" fill="white"/>
<path d="M1 7H0V8H1V7Z" fill="white"/>
<path d="M12 7H11V11H10V12H9V13H8V15H10V14H11V13H12V12H13V6H12V7Z" fill="white"/>
<path d="M14 5H13V6H14V5Z" fill="white"/>
<path d="M9 0H8V1H9V0Z" fill="white"/>
<path d="M4 0H3V1H4V0Z" fill="white"/>
</svg>
