<svg width="14" height="15" viewBox="0 0 14 15" fill="none" xmlns="http://www.w3.org/2000/svg">
<path d="M10 14V15H12V14H13V13H11V14H10Z" fill="white"/>
<path d="M4 13H3V12H1V13H2V15H5V14H4V13Z" fill="white"/>
<path d="M1 13H0V14H1V13Z" fill="white"/>
<path d="M3 12H4V13H5V14H6V15H9V14H10V13H11V12H12V10H13V9H11V10H10V11H9V13H8V9H9V8H10V7H11V6H12V5H10V6H8V7H7V13H6V10H5V9H4V8H1V9H2V10H3V12Z" fill="white"/>
<path d="M14 10H13V11H14V10Z" fill="white"/>
<path d="M1 9H0V10H1V9Z" fill="white"/>
<path d="M13 6H12V7H13V6Z" fill="white"/>
<path d="M8 6V3H10V2H11V1H12V0H9V1H8V2H7V3H6V2H3V3H2V5H3V4H5V6H6V7H7V6H8Z" fill="white"/>
<path d="M2 5H1V6H2V5Z" fill="white"/>
<path d="M13 1H12V2H13V1Z" fill="white"/>
</svg>
