<svg width="14" height="13" viewBox="0 0 14 13" fill="none" xmlns="http://www.w3.org/2000/svg">
<path d="M12 12H11V13H12V12Z" fill="white"/>
<path d="M13 11H12V12H13V11Z" fill="white"/>
<path d="M14 9H13V11H14V9Z" fill="white"/>
<path d="M12 11V10H8V11H7V12H6V13H10V12H11V11H12Z" fill="white"/>
<path d="M7 11V8H6V7H5V8H3V9H2V10H1V11H2V12H3V13H5V12H6V11H7Z" fill="white"/>
<path d="M2 9V8H3V6H4V5H5V1H4V2H3V3H2V4H1V6H0V10H1V9H2Z" fill="white"/>
<path d="M6 0V7H7V8H8V9H13V8H14V6H13V5H12V4H11V3H10V2H8V1H7V0H6Z" fill="white"/>
</svg>
