<svg width="15" height="12" viewBox="0 0 15 12" fill="none" xmlns="http://www.w3.org/2000/svg">
<path d="M8 11H7V12H8V11Z" fill="white"/>
<path d="M9 10H8V11H9V10Z" fill="white"/>
<path d="M10 9H9V10H10V9Z" fill="white"/>
<path d="M7 8H4V9H5V10H6V11H7V8Z" fill="white"/>
<path d="M4 7H3V8H4V7Z" fill="white"/>
<path d="M5 6H4V7H5V6Z" fill="white"/>
<path d="M3 6H2V7H3V6Z" fill="white"/>
<path d="M6 5H5V6H6V5Z" fill="white"/>
<path d="M2 5H1V6H2V5Z" fill="white"/>
<path d="M1 4H3V1H2V2H1V3H0V5H1V4Z" fill="white"/>
<path d="M14 2H13V3H14V2Z" fill="white"/>
<path d="M13 1H12V2H13V1Z" fill="white"/>
<path d="M4 2H5V3H6V5H7V8H10V9H11V8H12V7H13V6H14V5H15V3H14V4H11V7H10V6H9V5H8V4H7V1H10V2H9V3H8V4H11V1H12V0H3V1H4V2Z" fill="white"/>
</svg>
