<svg width="13" height="14" viewBox="0 0 13 14" fill="none" xmlns="http://www.w3.org/2000/svg">
<path d="M7 13H6V14H7V13Z" fill="white"/>
<path d="M8 12H7V13H8V12Z" fill="white"/>
<path d="M9 11H8V12H9V11Z" fill="white"/>
<path d="M10 10H9V11H10V10Z" fill="white"/>
<path d="M11 9H10V10H11V9Z" fill="white"/>
<path d="M3 9H2V10H3V9Z" fill="white"/>
<path d="M12 8H11V9H12V8Z" fill="white"/>
<path d="M2 5H1V6H2V5Z" fill="white"/>
<path d="M3 4H2V5H3V4Z" fill="white"/>
<path d="M4 3H3V4H4V3Z" fill="white"/>
<path d="M6 4H5V5H4V6H3V7H1V6H0V8H1V9H2V8H6V10H3V11H4V12H5V13H6V12H7V7H12V8H13V6H12V5H11V4H10V3H9V2H8V1H7V0H6V1H5V2H6V4ZM9 4V5H10V6H7V3H8V4H9Z" fill="white"/>
<path d="M5 2H4V3H5V2Z" fill="white"/>
</svg>
