<svg width="15" height="12" viewBox="0 0 15 12" fill="none" xmlns="http://www.w3.org/2000/svg">
<path d="M12 11H11V12H12V11Z" fill="white"/>
<path d="M5 11H4V12H5V11Z" fill="white"/>
<path d="M3 11H2V12H3V11Z" fill="white"/>
<path d="M1 11H0V12H1V11Z" fill="white"/>
<path d="M14 10H13V9H2V10H3V11H4V10H5V11H6V12H10V11H11V10H12V11H13V12H15V11H14V10Z" fill="white"/>
<path d="M2 10H1V11H2V10Z" fill="white"/>
<path d="M13 7H12V8H13V7Z" fill="white"/>
<path d="M7 7H6V8H7V7Z" fill="white"/>
<path d="M5 7H4V8H5V7Z" fill="white"/>
<path d="M3 7H2V8H3V7Z" fill="white"/>
<path d="M12 6H11V7H12V6Z" fill="white"/>
<path d="M10 6H11V5H4V6H5V7H6V6H7V7H8V8H11V7H10V6Z" fill="white"/>
<path d="M4 6H3V7H4V6Z" fill="white"/>
<path d="M7 3H6V4H7V3Z" fill="white"/>
<path d="M5 3H4V4H5V3Z" fill="white"/>
<path d="M7 2V3H8V4H11V3H10V2H9V1H8V2H7Z" fill="white"/>
<path d="M6 2H5V3H6V2Z" fill="white"/>
<path d="M7 1H6V2H7V1Z" fill="white"/>
<path d="M8 0H7V1H8V0Z" fill="white"/>
</svg>
