<svg width="13" height="15" viewBox="0 0 13 15" fill="none" xmlns="http://www.w3.org/2000/svg">
<path d="M6 14H5V15H6V14Z" fill="white"/>
<path d="M5 13H4V14H5V13Z" fill="white"/>
<path d="M4 12H3V13H4V12Z" fill="white"/>
<path d="M7 11H6V14H7V13H8V12H7V11Z" fill="white"/>
<path d="M3 11H2V12H3V11Z" fill="white"/>
<path d="M2 10H1V11H2V10Z" fill="white"/>
<path d="M10 8H9V9H8V10H7V11H8V12H9V11H10V10H11V9H10V8Z" fill="white"/>
<path d="M1 7H0V10H1V7Z" fill="white"/>
<path d="M13 5H12V6H11V7H10V8H11V9H12V8H13V5Z" fill="white"/>
<path d="M2 8H3V9H4V8H5V9H4V10H5V11H6V10H7V9H8V8H9V7H8V4H9V3H10V2H9V1H8V2H7V1H6V2H5V3H6V4H5V6H4V4H3V5H2V6H1V7H2V8Z" fill="white"/>
<path d="M9 4V7H10V6H11V5H12V4H11V3H10V4H9Z" fill="white"/>
<path d="M5 3H4V4H5V3Z" fill="white"/>
<path d="M8 0H7V1H8V0Z" fill="white"/>
</svg>
