<svg width="13" height="14" viewBox="0 0 13 14" fill="none" xmlns="http://www.w3.org/2000/svg">
<path d="M9 13H4V14H9V13Z" fill="white"/>
<path d="M10 12H9V13H10V12Z" fill="white"/>
<path d="M4 12H3V13H4V12Z" fill="white"/>
<path d="M11 11H10V12H11V11Z" fill="white"/>
<path d="M9 11H8V12H9V11Z" fill="white"/>
<path d="M5 11H4V12H5V11Z" fill="white"/>
<path d="M3 11H2V12H3V11Z" fill="white"/>
<path d="M12 10H11V11H12V10Z" fill="white"/>
<path d="M8 10H7V11H8V10Z" fill="white"/>
<path d="M6 10H5V11H6V10Z" fill="white"/>
<path d="M2 10H1V11H2V10Z" fill="white"/>
<path d="M11 9H10V10H11V9Z" fill="white"/>
<path d="M3 9H2V10H3V9Z" fill="white"/>
<path d="M10 8H9V9H10V8Z" fill="white"/>
<path d="M4 8H3V9H4V8Z" fill="white"/>
<path d="M2 9V8H3V6H2V5H1V4H0V10H1V9H2Z" fill="white"/>
<path d="M11 5V6H10V8H11V9H12V10H13V4H12V5H11Z" fill="white"/>
<path d="M6 5H5V6H4V8H5V9H6V10H7V9H8V8H9V6H8V5H7V4H6V5Z" fill="white"/>
<path d="M2 5H3V6H4V5H5V4H6V3H5V2H4V1H3V2H2V3H1V4H2V5Z" fill="white"/>
<path d="M8 2V3H7V4H8V5H9V6H10V5H11V4H12V3H11V2H10V1H9V2H8Z" fill="white"/>
<path d="M4 0V1H5V2H6V3H7V2H8V1H9V0H4Z" fill="white"/>
</svg>
