<svg width="13" height="15" viewBox="0 0 13 15" fill="none" xmlns="http://www.w3.org/2000/svg">
<path d="M11 15V14H10V13H9V14H8V15H11Z" fill="white"/>
<path d="M3 14H2V15H3V14Z" fill="white"/>
<path d="M4 13H3V14H4V13Z" fill="white"/>
<path d="M9 13V11H7V12H6V13H5V14H4V15H7V14H8V13H9Z" fill="white"/>
<path d="M5 12H6V11H4V13H5V12Z" fill="white"/>
<path d="M12 8H11V9H12V8Z" fill="white"/>
<path d="M0 8H1V9H2V10H11V9H10V8H9V9H8V8H7V9H3V8H2V7H1V4H0V8Z" fill="white"/>
<path d="M2 3H1V4H2V3Z" fill="white"/>
<path d="M3 2H2V3H3V2Z" fill="white"/>
<path d="M4 1H3V2H4V1Z" fill="white"/>
<path d="M6 1V3H5V5H6V6H8V8H9V6H10V8H11V7H12V8H13V4H12V3H11V2H10V1H9V0H4V1H6Z" fill="white"/>
</svg>
