<svg width="14" height="15" viewBox="0 0 14 15" fill="none" xmlns="http://www.w3.org/2000/svg">
<path d="M5 13H4V14H5V13Z" fill="white"/>
<path d="M3 13H2V14H3V13Z" fill="white"/>
<path d="M13 12H12V13H13V12Z" fill="white"/>
<path d="M11 12H10V14H11V12Z" fill="white"/>
<path d="M4 12H3V13H4V12Z" fill="white"/>
<path d="M4 0V1H3V4H1V5H0V12H1V13H2V11H1V9H2V11H3V8H2V6H3V8H4V11H5V12H6V15H8V12H9V11H10V8H9V10H8V11H6V10H5V7H4V5H5V7H6V9H7V4H8V8H9V6H10V8H11V6H12V9H11V12H12V10H13V12H14V4H13V3H11V5H10V1H9V0H4Z" fill="white"/>
</svg>
