<svg width="16" height="15" viewBox="0 0 16 15" fill="none" xmlns="http://www.w3.org/2000/svg">
<path d="M13 14H9V15H13V14Z" fill="white"/>
<path d="M7 14H3V15H7V14Z" fill="white"/>
<path d="M14 13H13V14H14V13Z" fill="white"/>
<path d="M9 13H7V14H9V13Z" fill="white"/>
<path d="M3 13H2V14H3V13Z" fill="white"/>
<path d="M15 12H14V13H15V12Z" fill="white"/>
<path d="M2 12H1V13H2V12Z" fill="white"/>
<path d="M1 8H0V12H1V8Z" fill="white"/>
<path d="M8 9H7V10H8V9Z" fill="white"/>
<path d="M10 8H9V12H10V11H11V9H10V8Z" fill="white"/>
<path d="M4 8H2V11H3V12H4V13H5V12H6V10H5V9H4V8Z" fill="white"/>
<path d="M16 7H15V12H16V7Z" fill="white"/>
<path d="M2 7H1V8H2V7Z" fill="white"/>
<path d="M15 6H14V7H15V6Z" fill="white"/>
<path d="M13 6H11V7H10V8H11V9H12V11H13V10H14V7H13V6Z" fill="white"/>
<path d="M4 8H5V9H7V8H6V7H8V6H9V5H10V3H9V2H8V1H10V0H6V1H7V2H6V3H5V2H4V3H3V6H4V8ZM4 4H5V5H4V4Z" fill="white"/>
<path d="M3 6H2V7H3V6Z" fill="white"/>
<path d="M14 5H13V6H14V5Z" fill="white"/>
<path d="M13 3H12V5H13V3Z" fill="white"/>
<path d="M12 2H11V3H12V2Z" fill="white"/>
<path d="M11 1H10V2H11V1Z" fill="white"/>
<path d="M6 1H5V2H6V1Z" fill="white"/>
</svg>
