<svg width="14" height="14" viewBox="0 0 14 14" fill="none" xmlns="http://www.w3.org/2000/svg">
<path d="M10 11V13H11V12H12V11H13V10H11V11H10Z" fill="white"/>
<path d="M8 10H6V11H5V14H9V11H8V10Z" fill="white"/>
<path d="M3 10H1V11H2V12H3V13H4V11H3V10Z" fill="white"/>
<path d="M6 10V9H5V8H4V9H3V10H4V11H5V10H6Z" fill="white"/>
<path d="M10 8H9V9H8V10H9V11H10V10H11V9H10V8Z" fill="white"/>
<path d="M5 8H6V9H8V8H9V6H8V5H6V6H5V8Z" fill="white"/>
<path d="M4 8V6H3V5H0V9H3V8H4Z" fill="white"/>
<path d="M10 6V8H11V9H14V5H11V6H10Z" fill="white"/>
<path d="M8 4V5H9V6H10V5H11V4H10V3H9V4H8Z" fill="white"/>
<path d="M4 5V6H5V5H6V4H5V3H4V4H3V5H4Z" fill="white"/>
<path d="M11 4H13V3H12V2H11V1H10V3H11V4Z" fill="white"/>
<path d="M6 4H8V3H9V0H5V3H6V4Z" fill="white"/>
<path d="M4 3V1H3V2H2V3H1V4H3V3H4Z" fill="white"/>
</svg>
