<svg width="14" height="14" viewBox="0 0 14 14" fill="none" xmlns="http://www.w3.org/2000/svg">
<path d="M13 13H12V14H13V13Z" fill="white"/>
<path d="M2 13H1V14H2V13Z" fill="white"/>
<path d="M12 12H11V13H12V12Z" fill="white"/>
<path d="M3 12H2V13H3V12Z" fill="white"/>
<path d="M8 12V11H9V10H5V11H6V12H8Z" fill="white"/>
<path d="M14 7H13V6H12V5H11V4H10V10H11V11H13V10H14V7Z" fill="white"/>
<path d="M9 8H5V9H9V8Z" fill="white"/>
<path d="M9 6H5V7H9V6Z" fill="white"/>
<path d="M2 5V6H1V7H0V10H1V11H3V10H4V4H3V5H2Z" fill="white"/>
<path d="M12 3H11V4H12V3Z" fill="white"/>
<path d="M3 3H2V4H3V3Z" fill="white"/>
<path d="M13 2H12V3H13V2Z" fill="white"/>
<path d="M8 2H6V3H5V5H9V3H8V2Z" fill="white"/>
<path d="M2 2H1V3H2V2Z" fill="white"/>
<path d="M11 1H10V0H8V2H9V3H11V1Z" fill="white"/>
<path d="M6 2V0H4V1H3V3H5V2H6Z" fill="white"/>
</svg>
