<svg width="13" height="14" viewBox="0 0 13 14" fill="none" xmlns="http://www.w3.org/2000/svg">
<path d="M11 10H10V9H9V10H8V11H7V14H10V13H11V12H12V11H11V10Z" fill="white"/>
<path d="M5 10H4V9H3V10H2V11H1V12H2V13H3V14H6V11H5V10Z" fill="white"/>
<path d="M11 4V5H10V9H11V10H12V11H13V3H12V4H11Z" fill="white"/>
<path d="M5 4V5H4V9H5V10H6V11H7V10H8V9H9V5H8V4H7V3H6V4H5Z" fill="white"/>
<path d="M8 4H9V5H10V4H11V3H12V2H11V1H10V0H7V3H8V4Z" fill="white"/>
<path d="M2 4H3V5H4V4H5V3H6V0H3V1H2V2H1V3H2V4Z" fill="white"/>
<path d="M0 11H1V10H2V9H3V5H2V4H1V3H0V11Z" fill="white"/>
</svg>
