<svg width="15" height="15" viewBox="0 0 15 15" fill="none" xmlns="http://www.w3.org/2000/svg">
<path d="M13 14H2V15H13V14Z" fill="white"/>
<path d="M14 13H13V14H14V13Z" fill="white"/>
<path d="M2 13H1V14H2V13Z" fill="white"/>
<path d="M15 11H14V13H15V11Z" fill="white"/>
<path d="M1 11H0V13H1V11Z" fill="white"/>
<path d="M14 10H13V11H14V10Z" fill="white"/>
<path d="M2 10H1V11H2V10Z" fill="white"/>
<path d="M13 9H2V10H13V9Z" fill="white"/>
<path d="M2 9V8H13V9H14V10H15V6H14V5H13V4H14V3H15V1H14V2H13V3H12V4H11V3H10V2H9V1H8V0H7V1H6V2H5V3H4V4H3V3H2V2H1V1H0V3H1V4H2V5H1V6H0V10H1V9H2ZM6 4V3H7V2H8V3H9V4H10V5H9V6H8V7H7V6H6V5H5V4H6Z" fill="white"/>
<path d="M15 4H14V5H15V4Z" fill="white"/>
<path d="M8 4H7V5H8V4Z" fill="white"/>
<path d="M1 4H0V5H1V4Z" fill="white"/>
</svg>
