<svg width="14" height="14" viewBox="0 0 14 14" fill="none" xmlns="http://www.w3.org/2000/svg">
<path d="M1 13H0V14H1V13Z" fill="white"/>
<path d="M13 7H12V6H11V7H10V8H4V9H6V10H4V11H5V12H6V13H3V14H14V13H13V7ZM9 13V12H10V11H9V10H10V9H11V10H10V11H11V12H10V13H9Z" fill="white"/>
<path d="M3 12H2V13H3V12Z" fill="white"/>
<path d="M2 11H1V12H2V11Z" fill="white"/>
<path d="M4 9H3V10H4V9Z" fill="white"/>
<path d="M2 9H1V10H2V9Z" fill="white"/>
<path d="M3 8H2V9H3V8Z" fill="white"/>
<path d="M4 7H3V8H4V7Z" fill="white"/>
<path d="M2 7H1V8H2V7Z" fill="white"/>
<path d="M10 6H4V7H10V6Z" fill="white"/>
<path d="M3 6H2V7H3V6Z" fill="white"/>
<path d="M11 5H10V6H11V5Z" fill="white"/>
<path d="M4 5H3V6H4V5Z" fill="white"/>
<path d="M10 5V4H11V1H10V3H9V4H5V3H4V2H5V3H7V2H8V1H10V0H4V1H3V4H4V5H10Z" fill="white"/>
</svg>
