<svg width="14" height="14" viewBox="0 0 14 14" fill="none" xmlns="http://www.w3.org/2000/svg">
<path d="M5 13H4V14H5V13Z" fill="white"/>
<path d="M6 12V14H7V13H8V14H10V13H9V12H6Z" fill="white"/>
<path d="M12 10H13V9H14V5H13V4H12V2H11V1H10V0H4V1H3V2H2V4H1V5H0V9H1V10H2V11H5V10H4V9H3V8H4V9H5V10H6V9H7V8H8V9H7V10H8V11H9V10H10V9H11V10H10V11H12V10ZM3 5H4V6H3V5ZM6 4H7V5H6V4ZM13 7H12V6H13V7ZM1 8V7H2V8H1ZM5 8V7H6V8H5ZM7 7V6H8V7H7ZM10 8V7H11V8H10Z" fill="white"/>
<path d="M7 10H6V11H7V10Z" fill="white"/>
</svg>
