<svg width="16" height="13" viewBox="0 0 16 13" fill="none" xmlns="http://www.w3.org/2000/svg">
<path d="M10 7H8V8H7V10H8V11H10V10H11V8H10V7Z" fill="white"/>
<path d="M15 6H14V7H15V6Z" fill="white"/>
<path d="M13 6H12V5H10V4H9V5H7V4H6V5H4V6H3V7H2V8H1V11H2V12H3V13H6V12H5V11H4V8H5V7H6V6H10V7H11V8H12V11H11V12H10V13H13V12H14V11H15V8H14V7H13V6Z" fill="white"/>
<path d="M2 6H1V7H2V6Z" fill="white"/>
<path d="M16 4H15V6H16V4Z" fill="white"/>
<path d="M13 4H12V5H13V4Z" fill="white"/>
<path d="M4 4H3V5H4V4Z" fill="white"/>
<path d="M1 4H0V6H1V4Z" fill="white"/>
<path d="M14 2H13V4H14V2Z" fill="white"/>
<path d="M11 1H10V4H11V1Z" fill="white"/>
<path d="M6 1H5V4H6V1Z" fill="white"/>
<path d="M3 2H2V4H3V2Z" fill="white"/>
<path d="M13 1H12V2H13V1Z" fill="white"/>
<path d="M4 1H3V2H4V1Z" fill="white"/>
<path d="M10 0H9V1H10V0Z" fill="white"/>
<path d="M7 0H6V1H7V0Z" fill="white"/>
</svg>
