<svg width="16" height="16" viewBox="0 0 16 16" fill="none" xmlns="http://www.w3.org/2000/svg">
<path d="M2 15H1V16H2V15Z" fill="white"/>
<path d="M2 15H3V14H4V13H3V12H2V13H1V14H2V15Z" fill="white"/>
<path d="M1 14H0V15H1V14Z" fill="white"/>
<path d="M4 13H5V12H6V11H7V10H8V9H9V8H8V7H7V8H6V9H5V10H4V11H3V12H4V13Z" fill="white"/>
<path d="M15 9H14V10H15V9Z" fill="white"/>
<path d="M11 9H10V11H11V9Z" fill="white"/>
<path d="M14 8H13V9H14V8Z" fill="white"/>
<path d="M12 7H9V8H12V7Z" fill="white"/>
<path d="M9 6H10V5H11V4H12V3H9V4H8V7H9V6Z" fill="white"/>
<path d="M16 5H14V6H16V5Z" fill="white"/>
<path d="M13 4H12V7H13V4Z" fill="white"/>
<path d="M7 5H5V6H7V5Z" fill="white"/>
<path d="M14 2H13V3H14V2Z" fill="white"/>
<path d="M8 2H7V3H8V2Z" fill="white"/>
<path d="M15 1H14V2H15V1Z" fill="white"/>
<path d="M7 1H6V2H7V1Z" fill="white"/>
<path d="M11 0H10V2H11V0Z" fill="white"/>
</svg>
