<svg width="16" height="16" viewBox="0 0 16 16" fill="none" xmlns="http://www.w3.org/2000/svg">
<path d="M2 16V15H3V14H2V13H1V14H0V16H2Z" fill="white"/>
<path d="M13 10H11V11H13V10Z" fill="white"/>
<path d="M14 9H13V10H14V9Z" fill="white"/>
<path d="M5 10H4V11H3V13H5V12H6V11H7V10H8V9H10V8H9V7H8V6H7V8H6V9H5V10Z" fill="white"/>
<path d="M15 8H14V9H15V8Z" fill="white"/>
<path d="M12 7H11V8H12V7Z" fill="white"/>
<path d="M12 7H13V3H9V4H11V5H12V7Z" fill="white"/>
<path d="M16 5H15V8H16V5Z" fill="white"/>
<path d="M10 5H9V6H10V5Z" fill="white"/>
<path d="M9 4H8V5H9V4Z" fill="white"/>
<path d="M6 3H5V5H6V3Z" fill="white"/>
<path d="M7 2H6V3H7V2Z" fill="white"/>
<path d="M8 1H7V2H8V1Z" fill="white"/>
<path d="M11 0H8V1H11V0Z" fill="white"/>
</svg>
