<svg width="14" height="14" viewBox="0 0 14 14" fill="none" xmlns="http://www.w3.org/2000/svg">
<path d="M12 12H13V2H14V0H12V1H4V0H2V2H3V12H4V13H7V12H5V11H4V2H8V5H9V7H8V8H7V9H8V13H7V14H9V13H12V12ZM10 12V11H11V2H12V11H11V12H10Z" fill="white"/>
<path d="M3 12H2V13H3V12Z" fill="white"/>
<path d="M2 2H1V12H2V2Z" fill="white"/>
<path d="M7 7H6V8H7V7Z" fill="white"/>
<path d="M8 5H7V6H8V5Z" fill="white"/>
<path d="M6 5H5V7H6V5Z" fill="white"/>
<path d="M7 4H6V5H7V4Z" fill="white"/>
<path d="M1 0H0V2H1V0Z" fill="white"/>
</svg>
