<svg width="14" height="14" viewBox="0 0 14 14" fill="none" xmlns="http://www.w3.org/2000/svg">
<path d="M3 13H2V14H3V13Z" fill="white"/>
<path d="M2 12H1V13H2V12Z" fill="white"/>
<path d="M9 10H8V12H9V10Z" fill="white"/>
<path d="M7 9H6V12H7V9Z" fill="white"/>
<path d="M11 9H10V12H11V9Z" fill="white"/>
<path d="M12 5H11V9H12V5Z" fill="white"/>
<path d="M10 6H8V8H10V6Z" fill="white"/>
<path d="M7 2H6V5H7V2Z" fill="white"/>
<path d="M5 3H4V11H5V3Z" fill="white"/>
<path d="M9 2H8V4H9V2Z" fill="white"/>
<path d="M11 2H10V5H11V2Z" fill="white"/>
<path d="M2 2V12H3V13H4V14H12V13H13V12H14V2H13V1H12V0H4V1H3V2H2ZM4 3V2H5V1H11V2H12V3H13V11H12V12H11V13H5V12H4V11H3V3H4Z" fill="white"/>
<path d="M1 2H0V12H1V2Z" fill="white"/>
<path d="M2 1H1V2H2V1Z" fill="white"/>
<path d="M3 0H2V1H3V0Z" fill="white"/>
</svg>
