<svg width="14" height="14" viewBox="0 0 14 14" fill="none" xmlns="http://www.w3.org/2000/svg">
<path d="M4 12H2V14H4V12Z" fill="white"/>
<path d="M12 12H10V14H12V12Z" fill="white"/>
<path d="M9 12H5V14H9V12Z" fill="white"/>
<path d="M2 11H12V8H10V10H9V8H5V10H4V8H2V11Z" fill="white"/>
<path d="M14 4H13V14H14V4Z" fill="white"/>
<path d="M4 4H3V5H2V7H12V5H11V4H10V6H9V3H5V6H4V4Z" fill="white"/>
<path d="M1 4H0V14H1V4Z" fill="white"/>
<path d="M13 3H12V4H13V3Z" fill="white"/>
<path d="M2 3H1V4H2V3Z" fill="white"/>
<path d="M12 2H11V3H12V2Z" fill="white"/>
<path d="M3 2H2V3H3V2Z" fill="white"/>
<path d="M11 1H10V2H11V1Z" fill="white"/>
<path d="M4 1H3V2H4V1Z" fill="white"/>
<path d="M10 0H4V1H10V0Z" fill="white"/>
</svg>
