<svg width="14" height="14" viewBox="0 0 14 14" fill="none" xmlns="http://www.w3.org/2000/svg">
<path d="M13 13H14V12H13V11H12V10H11V11H10V12H11V13H12V14H13V13Z" fill="white"/>
<path d="M5 11V13H8V11H7V12H6V11H5Z" fill="white"/>
<path d="M11 10V9H9V11H10V10H11Z" fill="white"/>
<path d="M11 7V8H13V5H11V6H12V7H11Z" fill="white"/>
<path d="M7 7V10H8V8H10V7H7Z" fill="white"/>
<path d="M6 7H5V8H6V7Z" fill="white"/>
<path d="M5 6H4V7H5V6Z" fill="white"/>
<path d="M8 5H7V6H8V5Z" fill="white"/>
<path d="M6 5H5V6H6V5Z" fill="white"/>
<path d="M4 5H3V6H4V5Z" fill="white"/>
<path d="M7 4H6V5H7V4Z" fill="white"/>
<path d="M3 4H2V5H3V4Z" fill="white"/>
<path d="M2 3H1V4H2V3Z" fill="white"/>
<path d="M1 2H0V3H1V2Z" fill="white"/>
<path d="M2 2V3H3V4H4V5H5V4H6V3H5V2H4V1H3V0H0V1H1V2H2Z" fill="white"/>
</svg>
