<svg width="13" height="14" viewBox="0 0 13 14" fill="none" xmlns="http://www.w3.org/2000/svg">
<path d="M6 9H5V13H6V9Z" fill="white"/>
<path d="M11 9H10V13H11V9Z" fill="white"/>
<path d="M12 8H11V9H12V8Z" fill="white"/>
<path d="M5 8H4V9H5V8Z" fill="white"/>
<path d="M0 9H1V10H2V13H3V14H5V13H4V9H3V8H2V3H3V2H4V1H5V0H3V1H2V2H1V3H0V9Z" fill="white"/>
<path d="M12 2H11V3H12V2Z" fill="white"/>
<path d="M5 2H4V3H5V2Z" fill="white"/>
<path d="M11 1H10V2H11V1Z" fill="white"/>
<path d="M7 5H4V3H3V8H4V7H7V13H6V14H10V13H9V7H12V8H13V3H12V5H9V1H10V0H6V1H7V5Z" fill="white"/>
<path d="M6 1H5V2H6V1Z" fill="white"/>
</svg>
