<svg width="14" height="14" viewBox="0 0 14 14" fill="none" xmlns="http://www.w3.org/2000/svg">
<path d="M10 11V12H11V13H12V14H14V12H13V11H12V10H11V11H10Z" fill="white"/>
<path d="M7 11V12H6V13H8V12H9V11H7Z" fill="white"/>
<path d="M10 10H9V11H10V10Z" fill="white"/>
<path d="M11 9H10V10H11V9Z" fill="white"/>
<path d="M8 9V8H7V7H6V6H5V5H4V4H3V3H2V2H1V1H2V2H3V3H4V4H5V5H6V6H7V7H8V8H9V9H10V6H9V5H8V4H7V3H5V2H4V1H3V0H0V3H1V4H2V5H3V7H4V8H5V9H6V10H9V9H8Z" fill="white"/>
<path d="M12 8H13V6H12V7H11V9H12V8Z" fill="white"/>
</svg>
