<svg width="16" height="16" viewBox="0 0 16 16" fill="none" xmlns="http://www.w3.org/2000/svg">
<path d="M10 13H9V16H10V13Z" fill="white"/>
<path d="M9 12H8V13H9V12Z" fill="white"/>
<path d="M2 12H1V15H2V12Z" fill="white"/>
<path d="M16 11H15V12H16V11Z" fill="white"/>
<path d="M3 11H2V12H3V11Z" fill="white"/>
<path d="M15 8H14V11H15V8Z" fill="white"/>
<path d="M14 7H13V8H14V7Z" fill="white"/>
<path d="M12 7H8V8H7V7H6V4H5V3H4V2H3V1H2V3H3V4H2V3H1V4H0V6H2V5H3V7H2V10H3V11H4V12H5V16H6V11H10V10H11V13H12V16H13V8H12V7Z" fill="white"/>
<path d="M8 6H9V5H8V3H9V2H10V1H13V2H14V1H15V0H8V1H7V7H8V6Z" fill="white"/>
<path d="M10 4H9V5H10V4Z" fill="white"/>
<path d="M11 2V3H10V4H12V3H13V2H11Z" fill="white"/>
<path d="M5 1H4V2H5V1Z" fill="white"/>
<path d="M2 0H1V1H2V0Z" fill="white"/>
</svg>
