<svg width="13" height="14" viewBox="0 0 13 14" fill="none" xmlns="http://www.w3.org/2000/svg">
<path d="M10 13H9V14H10V13Z" fill="white"/>
<path d="M3 13H2V14H3V13Z" fill="white"/>
<path d="M4 12H3V13H4V12Z" fill="white"/>
<path d="M11 10H10V11H11V10Z" fill="white"/>
<path d="M12 9H11V10H12V9Z" fill="white"/>
<path d="M10 10V9H11V8H7V10H10Z" fill="white"/>
<path d="M9 2H8V1H3V2H4V3H3V2H2V3H0V4H1V5H2V10H3V11H4V12H8V13H9V12H10V11H7V10H6V8H7V7H12V9H13V4H12V5H11V6H9V2ZM5 2H6V3H5V2Z" fill="white"/>
<path d="M9 2H10V0H8V1H9V2Z" fill="white"/>
</svg>
