<svg width="14" height="15" viewBox="0 0 14 15" fill="none" xmlns="http://www.w3.org/2000/svg">
<path d="M11 10H10V11H11V10Z" fill="white"/>
<path d="M12 7H11V10H12V7Z" fill="white"/>
<path d="M11 6H10V7H11V6Z" fill="white"/>
<path d="M14 2H13V15H14V2Z" fill="white"/>
<path d="M2 2V6H1V2H0V15H1V11H3V12H2V15H12V11H11V12H9V9H10V7H9V5H11V6H12V2H2ZM1 10V7H3V8H2V10H1Z" fill="white"/>
<path d="M13 1H12V2H13V1Z" fill="white"/>
<path d="M2 1H1V2H2V1Z" fill="white"/>
<path d="M12 0H2V1H12V0Z" fill="white"/>
</svg>
