<svg width="13" height="13" viewBox="0 0 13 13" fill="none" xmlns="http://www.w3.org/2000/svg">
<path d="M13 12H12V13H13V12Z" fill="white"/>
<path d="M2 10H1V11H0V12H1V13H2V12H3V11H2V10Z" fill="white"/>
<path d="M11 10H4V9H3V2H6V1H1V2H2V10H3V11H11V12H12V7H11V10Z" fill="white"/>
<path d="M5 8H4V9H5V8Z" fill="white"/>
<path d="M6 7H5V8H6V7Z" fill="white"/>
<path d="M7 6H6V7H7V6Z" fill="white"/>
<path d="M10 6V7H11V5H9V6H10Z" fill="white"/>
<path d="M8 5H7V6H8V5Z" fill="white"/>
<path d="M9 4H8V5H9V4Z" fill="white"/>
<path d="M10 3H9V4H10V3Z" fill="white"/>
<path d="M13 3V0H10V1H11V2H12V3H13Z" fill="white"/>
<path d="M11 2H10V3H11V2Z" fill="white"/>
<path d="M7 3V4H8V2H6V3H7Z" fill="white"/>
<path d="M1 0H0V1H1V0Z" fill="white"/>
</svg>
