<svg width="16" height="16" viewBox="0 0 16 16" fill="none" xmlns="http://www.w3.org/2000/svg">
<path d="M11 11V12H9V13H7V12H8V11H6V12H3V11H4V10H5V9H3V10H2V8H3V7H4V5H5V3H4V4H3V6H2V7H1V9H0V11H2V12H1V14H3V13H5V14H4V15H3V16H5V15H8V14H10V13H12V12H13V11H11Z" fill="white"/>
<path d="M14 10H13V11H14V10Z" fill="white"/>
<path d="M15 9H14V10H15V9Z" fill="white"/>
<path d="M15 2H14V1H13V0H7V1H12V2H13V3H14V4H15V9H16V3H15V2Z" fill="white"/>
<path d="M8 2V3H7V4H6V8H7V9H8V10H12V9H13V8H14V4H13V3H12V2H8ZM7 7V5H8V4H10V5H11V7H10V8H8V7H7Z" fill="white"/>
<path d="M6 2H5V3H6V2Z" fill="white"/>
<path d="M7 1H6V2H7V1Z" fill="white"/>
</svg>
