<svg width="14" height="14" viewBox="0 0 14 14" fill="none" xmlns="http://www.w3.org/2000/svg">
<path d="M1 13H0V14H1V13Z" fill="white"/>
<path d="M2 12H1V13H2V12Z" fill="white"/>
<path d="M3 11H2V12H3V11Z" fill="white"/>
<path d="M4 10H3V11H4V10Z" fill="white"/>
<path d="M5 9H4V10H5V9Z" fill="white"/>
<path d="M6 8H5V9H6V8Z" fill="white"/>
<path d="M8 9H9V8H10V9H11V8H12V7H9V6H13V5H11V4H12V2H10V3H9V1H8V5H7V2H6V3H5V4H6V5H5V6H7V7H8V9ZM9 4H10V5H9V4Z" fill="white"/>
<path d="M7 7H6V8H7V7Z" fill="white"/>
<path d="M13 1H12V2H13V1Z" fill="white"/>
<path d="M14 0H13V1H14V0Z" fill="white"/>
</svg>
