<svg width="13" height="14" viewBox="0 0 13 14" fill="none" xmlns="http://www.w3.org/2000/svg">
<path d="M3 10H2V11H1V12H0V14H2V13H3V12H4V11H3V10Z" fill="white"/>
<path d="M7 9H6V10H7V9Z" fill="white"/>
<path d="M5 9H4V8H3V7H2V9H3V10H4V11H5V12H7V11H6V10H5V9Z" fill="white"/>
<path d="M8 8H7V9H8V8Z" fill="white"/>
<path d="M5 7H4V8H5V7Z" fill="white"/>
<path d="M6 6H5V7H6V6Z" fill="white"/>
<path d="M7 5H6V6H7V5Z" fill="white"/>
<path d="M12 4H11V5H12V4Z" fill="white"/>
<path d="M10 2H9V3H8V4H7V5H8V8H9V7H10V6H11V5H10V2Z" fill="white"/>
<path d="M13 0H11V1H12V4H13V0Z" fill="white"/>
<path d="M11 1H10V2H11V1Z" fill="white"/>
</svg>
