<svg width="12" height="15" viewBox="0 0 12 15" fill="none" xmlns="http://www.w3.org/2000/svg">
<path d="M12 10H11V13H12V10Z" fill="white"/>
<path d="M7 10H6V11H7V10Z" fill="white"/>
<path d="M2 10H1V11H2V10Z" fill="white"/>
<path d="M6 9H5V10H6V9Z" fill="white"/>
<path d="M11 5H10V2H11V0H1V4H3V6H2V10H3V12H1V15H11V13H10V10H11V5ZM4 2H8V3H7V4H8V5H7V6H8V7H7V8H8V9H7V10H8V11H7V12H6V11H5V12H4V2Z" fill="white"/>
<path d="M7 8H6V9H7V8Z" fill="white"/>
<path d="M6 7H5V8H6V7Z" fill="white"/>
<path d="M7 6H6V7H7V6Z" fill="white"/>
<path d="M1 6H0V9H1V6Z" fill="white"/>
<path d="M6 5H5V6H6V5Z" fill="white"/>
<path d="M2 5H1V6H2V5Z" fill="white"/>
<path d="M7 4H6V5H7V4Z" fill="white"/>
<path d="M12 2H11V5H12V2Z" fill="white"/>
<path d="M6 3H5V4H6V3Z" fill="white"/>
</svg>
