<svg width="16" height="15" viewBox="0 0 16 15" fill="none" xmlns="http://www.w3.org/2000/svg">
<path d="M11 14H10V15H11V14Z" fill="white"/>
<path d="M5 14H4V15H5V14Z" fill="white"/>
<path d="M12 13H11V14H12V13Z" fill="white"/>
<path d="M6 13H5V14H6V13Z" fill="white"/>
<path d="M13 12H12V13H13V12Z" fill="white"/>
<path d="M2 11H1V12H2V11Z" fill="white"/>
<path d="M3 10H2V11H3V10Z" fill="white"/>
<path d="M13 9H12V10H13V9Z" fill="white"/>
<path d="M6 10H5V11H7V12H6V13H8V12H9V11H10V10H7V9H6V10Z" fill="white"/>
<path d="M4 9H3V10H4V9Z" fill="white"/>
<path d="M14 8H13V9H14V8Z" fill="white"/>
<path d="M8 8H7V9H8V8Z" fill="white"/>
<path d="M15 7H14V8H15V7Z" fill="white"/>
<path d="M1 6H0V7H1V6Z" fill="white"/>
<path d="M2 5H1V6H2V5Z" fill="white"/>
<path d="M3 4H2V5H3V4Z" fill="white"/>
<path d="M4 3H3V4H4V3Z" fill="white"/>
<path d="M5 2H4V3H5V2Z" fill="white"/>
<path d="M10 0V1H9V2H8V3H7V4H6V5H5V6H9V7H8V8H10V7H11V6H12V5H8V4H10V3H12V2H14V1H16V0H10Z" fill="white"/>
</svg>
