<svg width="12" height="13" viewBox="0 0 12 13" fill="none" xmlns="http://www.w3.org/2000/svg">
<path d="M5 10H4V11H5V10Z" fill="white"/>
<path d="M7 9V10H8V11H9V12H10V13H11V12H12V11H11V10H10V9H9V8H8V9H7Z" fill="white"/>
<path d="M6 9H5V10H6V9Z" fill="white"/>
<path d="M7 8H6V9H7V8Z" fill="white"/>
<path d="M8 7H7V8H8V7Z" fill="white"/>
<path d="M9 6H8V7H9V6Z" fill="white"/>
<path d="M0 0V5H1V6H2V7H3V8H4V9H5V8H6V7H7V6H6V5H5V4H4V3H3V2H2V1H1V0H0ZM3 4V5H4V6H5V7H4V6H3V5H2V4H1V3H2V4H3Z" fill="white"/>
</svg>
