<svg width="15" height="15" viewBox="0 0 15 15" fill="none" xmlns="http://www.w3.org/2000/svg">
<path d="M7 15H8V13H9V12H6V13H7V15Z" fill="white"/>
<path d="M4 13H3V14H4V13Z" fill="white"/>
<path d="M3 12H2V13H3V12Z" fill="white"/>
<path d="M13 11H12V12H13V11Z" fill="white"/>
<path d="M2 11H1V12H2V11Z" fill="white"/>
<path d="M14 10H13V11H14V10Z" fill="white"/>
<path d="M10 10H5V11H10V10Z" fill="white"/>
<path d="M15 9H14V10H15V9Z" fill="white"/>
<path d="M11 8H4V9H11V8Z" fill="white"/>
<path d="M12 6H4V5H3V6H2V7H12V6Z" fill="white"/>
<path d="M13 5H12V6H13V5Z" fill="white"/>
<path d="M2 5H1V6H2V5Z" fill="white"/>
<path d="M10 4H4V5H10V4Z" fill="white"/>
<path d="M14 2H13V5H14V2Z" fill="white"/>
<path d="M3 3H2V4H3V3Z" fill="white"/>
<path d="M1 2H0V5H1V2Z" fill="white"/>
<path d="M11 2H3V3H11V2Z" fill="white"/>
<path d="M13 1H12V2H13V1Z" fill="white"/>
<path d="M2 1H1V2H2V1Z" fill="white"/>
<path d="M12 0H2V1H12V0Z" fill="white"/>
</svg>
