<svg width="14" height="10" viewBox="0 0 14 10" fill="none" xmlns="http://www.w3.org/2000/svg">
<path d="M9 6H8V7H9V6Z" fill="white"/>
<path d="M1 4H0V6H1V4Z" fill="white"/>
<path d="M11 4V3H10V7H9V8H5V7H4V3H3V4H2V6H1V7H2V8H3V9H4V10H10V9H11V8H12V7H13V6H14V4H13V3H12V4H11Z" fill="white"/>
<path d="M7 3H5V5H7V3Z" fill="white"/>
<path d="M2 3H1V4H2V3Z" fill="white"/>
<path d="M12 2H11V3H12V2Z" fill="white"/>
<path d="M10 2H9V3H10V2Z" fill="white"/>
<path d="M5 2H4V3H5V2Z" fill="white"/>
<path d="M3 2H2V3H3V2Z" fill="white"/>
<path d="M11 1H10V2H11V1Z" fill="white"/>
<path d="M4 1H3V2H4V1Z" fill="white"/>
<path d="M10 0H4V1H10V0Z" fill="white"/>
</svg>
