<svg width="14" height="15" viewBox="0 0 14 15" fill="none" xmlns="http://www.w3.org/2000/svg">
<path d="M3 13H6V14H7V15H8V14H9V13H13V12H14V0H13V1H12V2H13V11H12V12H8V13H7V12H6V11H5V12H4V11H3V10H4V9H3V8H4V7H3V6H4V5H3V4H4V3H3V2H4V1H3V0H2V12H3V13Z" fill="white"/>
<path d="M2 12H1V13H2V12Z" fill="white"/>
<path d="M8 11H7V12H8V11Z" fill="white"/>
<path d="M9 10H8V11H9V10Z" fill="white"/>
<path d="M7 10H6V11H7V10Z" fill="white"/>
<path d="M5 10H4V11H5V10Z" fill="white"/>
<path d="M1 0H0V12H1V0Z" fill="white"/>
<path d="M8 9H7V10H8V9Z" fill="white"/>
<path d="M6 9H5V10H6V9Z" fill="white"/>
<path d="M9 8H8V9H9V8Z" fill="white"/>
<path d="M7 8H6V9H7V8Z" fill="white"/>
<path d="M5 8H4V9H5V8Z" fill="white"/>
<path d="M8 7H7V8H8V7Z" fill="white"/>
<path d="M6 7H5V8H6V7Z" fill="white"/>
<path d="M9 6H8V7H9V6Z" fill="white"/>
<path d="M7 6H6V7H7V6Z" fill="white"/>
<path d="M5 6H4V7H5V6Z" fill="white"/>
<path d="M8 5H7V6H8V5Z" fill="white"/>
<path d="M6 5H5V6H6V5Z" fill="white"/>
<path d="M9 4H8V5H9V4Z" fill="white"/>
<path d="M7 4H6V5H7V4Z" fill="white"/>
<path d="M5 4H4V5H5V4Z" fill="white"/>
<path d="M5 3V4H6V3H7V4H8V3H12V2H4V3H5Z" fill="white"/>
</svg>
