<svg width="12" height="16" viewBox="0 0 12 16" fill="none" xmlns="http://www.w3.org/2000/svg">
<path d="M6 15H5V16H6V15Z" fill="white"/>
<path d="M5 14H4V15H5V14Z" fill="white"/>
<path d="M6 13H5V14H6V13Z" fill="white"/>
<path d="M4 13H3V14H4V13Z" fill="white"/>
<path d="M5 12H4V13H5V12Z" fill="white"/>
<path d="M3 12H2V13H3V12Z" fill="white"/>
<path d="M4 11H3V12H4V11Z" fill="white"/>
<path d="M2 11H1V12H2V11Z" fill="white"/>
<path d="M3 2H7V5H8V4H9V5H8V6H7V9H8V8H9V9H8V10H7V14H6V15H8V14H9V13H10V12H11V11H12V1H2V11H3V2Z" fill="white"/>
<path d="M7 9H6V10H7V9Z" fill="white"/>
<path d="M1 0H0V11H1V0Z" fill="white"/>
<path d="M6 8H5V9H6V8Z" fill="white"/>
<path d="M7 5H6V6H7V5Z" fill="white"/>
<path d="M6 4H5V5H6V4Z" fill="white"/>
</svg>
