<svg width="15" height="16" viewBox="0 0 15 16" fill="none" xmlns="http://www.w3.org/2000/svg">
<path d="M15 7H14V8H15V7Z" fill="white"/>
<path d="M1 7H0V8H1V7Z" fill="white"/>
<path d="M14 6H13V7H14V6Z" fill="white"/>
<path d="M12 6H11V5H10V4H9V3H8V2H7V3H6V4H5V5H4V6H3V7H2V16H13V7H12V6ZM10 10H8V8H10V10ZM10 13H8V11H10V13ZM5 11H7V13H5V11ZM7 8V10H5V8H7Z" fill="white"/>
<path d="M2 6H1V7H2V6Z" fill="white"/>
<path d="M13 5H12V6H13V5Z" fill="white"/>
<path d="M3 5H2V6H3V5Z" fill="white"/>
<path d="M12 4H11V5H12V4Z" fill="white"/>
<path d="M4 4H3V5H4V4Z" fill="white"/>
<path d="M11 3H10V4H11V3Z" fill="white"/>
<path d="M5 3H4V4H5V3Z" fill="white"/>
<path d="M10 2H9V3H10V2Z" fill="white"/>
<path d="M6 2H5V3H6V2Z" fill="white"/>
<path d="M4 3V1H2V4H3V3H4Z" fill="white"/>
<path d="M9 1H8V2H9V1Z" fill="white"/>
<path d="M7 1H6V2H7V1Z" fill="white"/>
<path d="M8 0H7V1H8V0Z" fill="white"/>
</svg>
