<svg width="16" height="16" viewBox="0 0 16 16" fill="none" xmlns="http://www.w3.org/2000/svg">
<path d="M14 12H12V13H11V15H12V16H14V15H15V13H14V12Z" fill="white"/>
<path d="M4 10V11H3V12H2V13H1V14H0V15H1V16H2V15H3V14H4V13H5V12H6V10H4Z" fill="white"/>
<path d="M15 4H14V3H13V4H12V3H13V2H8V3H9V4H8V3H7V4H6V3H5V8H6V7H7V8H6V9H7V10H8V9H9V10H8V11H13V10H12V9H13V10H14V9H15V8H14V7H15V8H16V3H15V4ZM13 5V6H12V5H13ZM11 8H10V7H11V8ZM10 6V5H11V6H10ZM10 3H11V4H10V3ZM9 5V6H8V5H9ZM6 6V5H7V6H6ZM8 8V7H9V8H8ZM11 10H10V9H11V10ZM13 8H12V7H13V8ZM15 6H14V5H15V6Z" fill="white"/>
<path d="M15 2H14V3H15V2Z" fill="white"/>
<path d="M7 2H6V3H7V2Z" fill="white"/>
<path d="M14 1H13V2H14V1Z" fill="white"/>
<path d="M8 1H7V2H8V1Z" fill="white"/>
<path d="M13 0H8V1H13V0Z" fill="white"/>
</svg>
