<svg width="15" height="15" viewBox="0 0 15 15" fill="none" xmlns="http://www.w3.org/2000/svg">
<path d="M13 14H11V15H13V14Z" fill="white"/>
<path d="M14 12H13V14H14V12Z" fill="white"/>
<path d="M10 11V12H9V13H10V14H11V12H13V11H12V10H11V11H10Z" fill="white"/>
<path d="M6 6H5V7H6V6Z" fill="white"/>
<path d="M5 5H4V6H5V5Z" fill="white"/>
<path d="M4 4H3V5H4V4Z" fill="white"/>
<path d="M13 3H11V4H13V3Z" fill="white"/>
<path d="M0 6H1V7H2V8H3V9H4V10H5V11H6V12H9V11H10V10H11V7H10V6H9V5H8V4H7V3H6V2H5V1H2V2H4V4H5V5H6V6H7V7H8V8H9V9H8V10H6V9H5V8H4V7H3V6H2V5H1V3H0V6Z" fill="white"/>
<path d="M2 2H1V3H2V2Z" fill="white"/>
<path d="M11 1H10V3H11V1Z" fill="white"/>
<path d="M15 0H14V1H15V0Z" fill="white"/>
<path d="M13 0H11V1H13V0Z" fill="white"/>
</svg>
