<svg width="13" height="14" viewBox="0 0 13 14" fill="none" xmlns="http://www.w3.org/2000/svg">
<path d="M9 13H8V14H9V13Z" fill="white"/>
<path d="M10 12H9V13H10V12Z" fill="white"/>
<path d="M8 12H7V13H8V12Z" fill="white"/>
<path d="M9 11H8V12H9V11Z" fill="white"/>
<path d="M13 9H12V10H13V9Z" fill="white"/>
<path d="M11 9H10V10H9V11H10V12H11V11H12V10H11V9Z" fill="white"/>
<path d="M12 8H11V9H12V8Z" fill="white"/>
<path d="M7 3V6H9V5H10V6H9V7H7V6H6V7H5V8H4V9H2V10H3V11H7V10H8V9H9V8H10V7H11V6H12V3H11V2H8V3H7Z" fill="white"/>
<path d="M4 0V1H3V2H2V3H1V4H0V8H1V9H2V8H4V7H5V6H6V3H7V2H8V1H7V0H4Z" fill="white"/>
</svg>
