<svg width="14" height="14" viewBox="0 0 14 14" fill="none" xmlns="http://www.w3.org/2000/svg">
<path d="M13 12H9V13H10V14H14V13H13V12Z" fill="white"/>
<path d="M8 12H6V13H5V14H9V13H8V12Z" fill="white"/>
<path d="M1 12V13H0V14H4V13H5V12H1Z" fill="white"/>
<path d="M12 9H9V11H12V9Z" fill="white"/>
<path d="M5 9H2V11H5V9Z" fill="white"/>
<path d="M8 3V2H6V3H4V5H10V3H8Z" fill="white"/>
<path d="M2 5H1V7H13V5H12V3H11V6H3V3H2V5Z" fill="white"/>
<path d="M11 2H10V3H11V2Z" fill="white"/>
<path d="M4 2H3V3H4V2Z" fill="white"/>
<path d="M10 1H8V2H10V1Z" fill="white"/>
<path d="M6 1H4V2H6V1Z" fill="white"/>
<path d="M8 0H6V1H8V0Z" fill="white"/>
</svg>
