<svg width="16" height="16" viewBox="0 0 16 16" fill="none" xmlns="http://www.w3.org/2000/svg">
<path d="M6 6V10H10V6H6ZM9 9H7V7H9V9Z" fill="white"/>
<path d="M11 4H5V5H4V11H5V12H11V11H12V5H11V4ZM11 6V10H10V11H6V10H5V6H6V5H10V6H11Z" fill="white"/>
<path d="M13 3H12V2H4V3H3V4H2V12H3V13H4V14H12V13H13V12H14V4H13V3ZM13 5V11H12V12H11V13H5V12H4V11H3V5H4V4H5V3H11V4H12V5H13Z" fill="white"/>
<path d="M15 2H14V1H13V0H3V1H2V2H1V3H0V13H1V14H2V15H3V16H13V15H14V14H15V13H16V3H15V2ZM15 4V12H14V13H13V14H12V15H4V14H3V13H2V12H1V4H2V3H3V2H4V1H12V2H13V3H14V4H15Z" fill="white"/>
</svg>
