<svg width="14" height="14" viewBox="0 0 14 14" fill="none" xmlns="http://www.w3.org/2000/svg">
<path d="M14 13H4V14H14V13Z" fill="white"/>
<path d="M2 13H0V14H2V13Z" fill="white"/>
<path d="M2 11H1V12H3V7H2V11Z" fill="white"/>
<path d="M11 6H10V5H4V6H6V8H5V12H13V11H12V7H11V6Z" fill="white"/>
<path d="M4 6H3V7H4V6Z" fill="white"/>
<path d="M3 6V5H4V2H0V3H1V4H2V5H1V6H0V7H2V6H3Z" fill="white"/>
<path d="M9 3H5V4H9V3Z" fill="white"/>
<path d="M10 2V5H11V6H12V7H14V6H13V5H12V4H13V3H14V2H10Z" fill="white"/>
<path d="M9 0H5V2H9V0Z" fill="white"/>
</svg>
