<svg width="14" height="14" viewBox="0 0 14 14" fill="none" xmlns="http://www.w3.org/2000/svg">
<path d="M8 13V14H10V12H9V13H8Z" fill="white"/>
<path d="M11 12V14H12V13H13V12H14V10H13V11H12V12H11Z" fill="white"/>
<path d="M1 12V13H2V14H4V13H3V12H1Z" fill="white"/>
<path d="M1 11H2V10H0V12H1V11Z" fill="white"/>
<path d="M3 12H5V14H6V11H4V9H3V8H1V6H2V7H5V8H4V9H5V10H6V5H4V6H3V4H6V0H4V2H5V3H3V0H2V1H1V2H0V4H1V3H2V5H0V9H2V10H3V12Z" fill="white"/>
<path d="M14 6V2H13V1H12V0H8V2H9V1H10V4H9V3H8V5H9V6H8V9H10V8H9V7H12V8H11V10H8V12H9V11H12V9H14V7H13V6H14ZM10 6V5H11V2H12V3H13V4H12V6H10Z" fill="white"/>
</svg>
