<svg width="15" height="15" viewBox="0 0 15 15" fill="none" xmlns="http://www.w3.org/2000/svg">
<path d="M11 15H13V11H8V15H10V13H9V12H11V15Z" fill="white"/>
<path d="M1 8H0V9H1V8Z" fill="white"/>
<path d="M14 6H13V4H12V2H11V1H10V3H9V4H8V3H9V0H7V1H4V2H5V4H6V6H7V8H8V9H15V8H14V6Z" fill="white"/>
<path d="M6 6H5V4H4V6H3V8H2V15H7V8H6V6ZM6 12H4V14H3V11H6V12ZM5 9H4V7H5V9Z" fill="white"/>
<path d="M2 6H1V8H2V6Z" fill="white"/>
<path d="M3 4H2V6H3V4Z" fill="white"/>
<path d="M4 2H3V4H4V2Z" fill="white"/>
</svg>
