<svg width="9" height="16" viewBox="0 0 9 16" fill="none" xmlns="http://www.w3.org/2000/svg">
<path d="M7 15H2V16H7V15Z" fill="white"/>
<path d="M8 14H7V15H8V14Z" fill="white"/>
<path d="M2 14H1V15H2V14Z" fill="white"/>
<path d="M9 11H8V14H9V11Z" fill="white"/>
<path d="M1 11H0V14H1V11Z" fill="white"/>
<path d="M8 10H7V11H8V10Z" fill="white"/>
<path d="M2 10H1V11H2V10Z" fill="white"/>
<path d="M7 9H6V10H7V9Z" fill="white"/>
<path d="M3 9H2V10H3V9Z" fill="white"/>
<path d="M5 8H3V9H5V8Z" fill="white"/>
<path d="M6 7H5V8H6V7Z" fill="white"/>
<path d="M3 6V7H5V6H6V5H4V6H3Z" fill="white"/>
<path d="M4 4H3V5H4V4Z" fill="white"/>
<path d="M6 3H4V4H6V3Z" fill="white"/>
<path d="M5 0H4V2H5V0Z" fill="white"/>
</svg>
