<svg width="16" height="16" viewBox="0 0 16 16" fill="none" xmlns="http://www.w3.org/2000/svg">
<path d="M10 15H6V16H10V15Z" fill="white"/>
<path d="M5 15H4V16H5V15Z" fill="white"/>
<path d="M6 9H5V15H6V9Z" fill="white"/>
<path d="M4 9H3V15H4V9Z" fill="white"/>
<path d="M11 10H10V15H11V10Z" fill="white"/>
<path d="M12 9H11V10H12V9Z" fill="white"/>
<path d="M13 8H12V9H13V8Z" fill="white"/>
<path d="M7 8H6V9H7V8Z" fill="white"/>
<path d="M5 8H4V9H5V8Z" fill="white"/>
<path d="M14 7H13V8H14V7Z" fill="white"/>
<path d="M8 7H7V8H8V7Z" fill="white"/>
<path d="M6 7H5V8H6V7Z" fill="white"/>
<path d="M15 6H14V7H15V6Z" fill="white"/>
<path d="M9 6H10V5H3V6H8V7H9V6Z" fill="white"/>
<path d="M2 5H1V6H2V5Z" fill="white"/>
<path d="M3 1H2V5H3V1Z" fill="white"/>
<path d="M1 1H0V5H1V1Z" fill="white"/>
<path d="M16 1H15V6H16V1Z" fill="white"/>
<path d="M15 0H3V1H15V0Z" fill="white"/>
<path d="M2 0H1V1H2V0Z" fill="white"/>
</svg>
