<svg width="15" height="16" viewBox="0 0 15 16" fill="none" xmlns="http://www.w3.org/2000/svg">
<path d="M11 13V15H12V16H14V15H15V13H14V12H12V13H11Z" fill="white"/>
<path d="M3 12H1V13H0V15H1V16H3V15H4V13H3V12Z" fill="white"/>
<path d="M9 9H6V11H9V9Z" fill="white"/>
<path d="M11 7H4V8H3V12H4V13H11V12H12V8H11V7ZM6 12V11H5V9H6V8H9V9H10V11H9V12H6Z" fill="white"/>
<path d="M14 6H12V8H13V9H15V7H14V6Z" fill="white"/>
<path d="M3 6H1V7H0V9H2V8H3V6Z" fill="white"/>
<path d="M10 2V1H5V2H4V3H3V5H4V6H11V5H12V3H11V2H10ZM6 3V4H5V3H6ZM7 5V4H8V5H7ZM10 4H9V3H10V4Z" fill="white"/>
<path d="M13 0H11V2H13V0Z" fill="white"/>
<path d="M4 0H2V2H4V0Z" fill="white"/>
</svg>
