<svg width="16" height="16" viewBox="0 0 16 16" fill="none" xmlns="http://www.w3.org/2000/svg">
<path d="M9 11H8V16H9V11Z" fill="white"/>
<path d="M7 13H2V14H7V13Z" fill="white"/>
<path d="M16 12H10V15H16V12Z" fill="white"/>
<path d="M2 12H1V13H2V12Z" fill="white"/>
<path d="M1 10H0V12H1V10Z" fill="white"/>
<path d="M2 9H1V10H2V9Z" fill="white"/>
<path d="M14 8H2V9H14V8Z" fill="white"/>
<path d="M15 7H14V8H15V7Z" fill="white"/>
<path d="M16 4H15V7H16V4Z" fill="white"/>
<path d="M15 3H14V4H15V3Z" fill="white"/>
<path d="M14 2H9V3H14V2Z" fill="white"/>
<path d="M6 1H0V4H6V1Z" fill="white"/>
<path d="M8 0H7V5H8V0Z" fill="white"/>
</svg>
