<svg width="16" height="15" viewBox="0 0 16 15" fill="none" xmlns="http://www.w3.org/2000/svg">
<path d="M15 14H1V15H15V14Z" fill="white"/>
<path d="M0 12V14H1V13H15V14H16V12H0Z" fill="white"/>
<path d="M15 8H14V11H15V8Z" fill="white"/>
<path d="M5 8H4V10H5V8Z" fill="white"/>
<path d="M15 5H14V7H15V5Z" fill="white"/>
<path d="M9 7H7V5H6V11H7V8H9V11H10V5H9V7Z" fill="white"/>
<path d="M5 5H4V7H5V5Z" fill="white"/>
<path d="M11 4V11H12V8H14V7H12V5H14V4H11Z" fill="white"/>
<path d="M9 4H7V5H9V4Z" fill="white"/>
<path d="M1 4V11H4V10H2V8H4V7H2V5H4V4H1Z" fill="white"/>
<path d="M15 2H1V1H0V3H16V1H15V2Z" fill="white"/>
<path d="M15 0H1V1H15V0Z" fill="white"/>
</svg>
