<svg width="15" height="16" viewBox="0 0 15 16" fill="none" xmlns="http://www.w3.org/2000/svg">
<path d="M9 13H8V14H9V13Z" fill="white"/>
<path d="M13 12H12V13H13V12Z" fill="white"/>
<path d="M5 12H4V13H5V12Z" fill="white"/>
<path d="M1 10H0V11H1V10Z" fill="white"/>
<path d="M14 7H13V6H12V2H11V6H10V7H9V8H10V10H8V8H7V10H5V8H6V7H5V6H4V2H3V6H2V7H1V8H0V9H1V10H2V11H1V12H0V14H1V15H2V16H13V15H14V14H15V11H14V10H15V8H14V7ZM6 12V13H5V14H4V13H3V12H4V11H5V12H6ZM4 9H3V8H4V9ZM8 15V14H7V13H8V12H9V13H10V14H9V15H8ZM14 12V13H13V14H12V13H11V12H12V11H13V12H14ZM13 9H12V8H13V9Z" fill="white"/>
<path d="M10 3H5V6H10V3ZM6 5V4H7V5H6ZM8 5V4H9V5H8Z" fill="white"/>
<path d="M11 2V1H10V0H5V1H4V2H11Z" fill="white"/>
</svg>
