<svg width="16" height="13" viewBox="0 0 16 13" fill="none" xmlns="http://www.w3.org/2000/svg">
<path d="M15 11H1V12H0V13H16V12H15V11Z" fill="white"/>
<path d="M13 7H12V10H13V7Z" fill="white"/>
<path d="M9 7H8V10H9V7Z" fill="white"/>
<path d="M4 7H3V10H4V7Z" fill="white"/>
<path d="M15 4H14V3H13V2H12V1H11V0H7V1H8V2H9V3H10V4H11V5H12V6H16V5H15V4Z" fill="white"/>
<path d="M10 4H9V5H8V4H7V3H5V4H4V5H2V4H1V5H0V6H11V5H10V4Z" fill="white"/>
<path d="M9 3H8V4H9V3Z" fill="white"/>
<path d="M3 3H2V4H3V3Z" fill="white"/>
<path d="M8 2H7V3H8V2Z" fill="white"/>
<path d="M4 2H3V3H4V2Z" fill="white"/>
<path d="M7 1H6V2H7V1Z" fill="white"/>
<path d="M5 1H4V2H5V1Z" fill="white"/>
<path d="M6 0H5V1H6V0Z" fill="white"/>
</svg>
