<svg width="14" height="15" viewBox="0 0 14 15" fill="none" xmlns="http://www.w3.org/2000/svg">
<path d="M13 13H1V14H0V15H14V14H13V13Z" fill="white"/>
<path d="M12 9H11V12H12V9Z" fill="white"/>
<path d="M3 9H2V12H3V9Z" fill="white"/>
<path d="M5 6H4V7H5V6Z" fill="white"/>
<path d="M6 5H5V6H6V5Z" fill="white"/>
<path d="M7 5V6H6V7H12V6H13V4H12V5H10V4H9V3H7V4H6V5H7Z" fill="white"/>
<path d="M5 4H4V5H5V4Z" fill="white"/>
<path d="M1 4V6H2V7H3V6H4V5H2V4H1Z" fill="white"/>
<path d="M6 3H5V4H6V3Z" fill="white"/>
<path d="M8 0H6V2H8V0Z" fill="white"/>
</svg>
