<svg width="16" height="15" viewBox="0 0 16 15" fill="none" xmlns="http://www.w3.org/2000/svg">
<path d="M15 12H14V11H15V5H14V4H13V3H6V4H7V5H8V4H9V5H8V6H7V7H8V8H7V7H6V8H5V7H6V6H5V5H4V7H3V4H2V3H0V6H1V7H2V9H1V10H0V13H2V12H3V9H4V12H5V13H6V14H7V15H14V14H15V13H16V11H15V12ZM14 7H13V8H14V10H12V9H11V7H12V6H14V7ZM6 12V11H5V10H6V9H9V6H10V5H11V6H10V11H11V12H10V11H9V10H6V11H7V12H9V13H7V12H6Z" fill="white"/>
<path d="M7 5H6V6H7V5Z" fill="white"/>
<path d="M6 4H5V5H6V4Z" fill="white"/>
<path d="M7 0V2H10V1H9V0H7Z" fill="white"/>
</svg>
