<svg width="16" height="15" viewBox="0 0 16 15" fill="none" xmlns="http://www.w3.org/2000/svg">
<path d="M6 14H4V15H6V14Z" fill="white"/>
<path d="M7 13H6V14H7V13Z" fill="white"/>
<path d="M9 11H7V13H8V14H7V15H12V14H10V13H9V11Z" fill="white"/>
<path d="M12 7V5H13V4H12V3H7V9H6V8H5V3H4V4H3V5H4V7H2V8H4V9H5V10H11V9H12V8H14V7H12Z" fill="white"/>
<path d="M15 6H14V7H15V6Z" fill="white"/>
<path d="M2 6H1V7H2V6Z" fill="white"/>
<path d="M16 4H15V6H16V4Z" fill="white"/>
<path d="M1 4H0V6H1V4Z" fill="white"/>
<path d="M15 3H13V4H15V3Z" fill="white"/>
<path d="M3 3H1V4H3V3Z" fill="white"/>
<path d="M13 2V1H14V0H6V1H7V2H13Z" fill="white"/>
<path d="M5 2V1H4V0H2V1H3V2H5Z" fill="white"/>
</svg>
