<svg width="15" height="15" viewBox="0 0 15 15" fill="none" xmlns="http://www.w3.org/2000/svg">
<path d="M11 14H8V15H11V14Z" fill="white"/>
<path d="M7 14H4V15H7V14Z" fill="white"/>
<path d="M12 13H11V14H12V13Z" fill="white"/>
<path d="M4 13H3V14H4V13Z" fill="white"/>
<path d="M13 12H12V13H13V12Z" fill="white"/>
<path d="M3 12H2V13H3V12Z" fill="white"/>
<path d="M14 11H13V12H14V11Z" fill="white"/>
<path d="M2 11H1V12H2V11Z" fill="white"/>
<path d="M10 8H8V11H10V8Z" fill="white"/>
<path d="M1 9H2V10H4V8H0V11H1V9Z" fill="white"/>
<path d="M11 8V11H12V10H13V9H14V11H15V8H11Z" fill="white"/>
<path d="M7 8H5V11H7V8Z" fill="white"/>
<path d="M7 0H4V1H3V2H4V3H5V7H7V0Z" fill="white"/>
<path d="M14 3H13V2H12V3H11V7H15V4H14V3Z" fill="white"/>
<path d="M3 2H2V3H1V4H0V7H4V3H3V2Z" fill="white"/>
<path d="M12 2V1H11V0H8V7H10V3H11V2H12Z" fill="white"/>
</svg>
