<svg width="14" height="14" viewBox="0 0 14 14" fill="none" xmlns="http://www.w3.org/2000/svg">
<path d="M11 14V13H12V12H13V11H14V3H13V2H12V1H11V0H3V1H2V2H1V3H0V11H1V12H2V13H3V14H11ZM3 12V11H2V10H1V6H2V7H4V4H5V3H6V2H8V3H9V4H10V7H12V6H13V10H12V11H11V12H10V13H4V12H3Z" fill="white"/>
<path d="M8 9H6V10H8V9Z" fill="white"/>
<path d="M9 7H8V9H9V7Z" fill="white"/>
<path d="M6 7H5V9H6V7Z" fill="white"/>
<path d="M8 6H6V7H8V6Z" fill="white"/>
<path d="M6 4H5V6H6V4Z" fill="white"/>
<path d="M9 4H8V6H9V4Z" fill="white"/>
<path d="M8 3H6V4H8V3Z" fill="white"/>
</svg>
