<svg width="15" height="15" viewBox="0 0 15 15" fill="none" xmlns="http://www.w3.org/2000/svg">
<path d="M15 14H14V15H15V14Z" fill="white"/>
<path d="M1 14H0V15H1V14Z" fill="white"/>
<path d="M14 13H12V14H14V13Z" fill="white"/>
<path d="M3 13H1V14H3V13Z" fill="white"/>
<path d="M11 12H9V13H11V12Z" fill="white"/>
<path d="M6 12H4V13H6V12Z" fill="white"/>
<path d="M15 11H14V12H15V11Z" fill="white"/>
<path d="M12 11H11V12H12V11Z" fill="white"/>
<path d="M8 11V9H9V8H11V7H4V8H6V9H7V11H6V12H7V13H8V12H9V11H8Z" fill="white"/>
<path d="M4 11H3V12H4V11Z" fill="white"/>
<path d="M1 11H0V12H1V11Z" fill="white"/>
<path d="M13 9H12V11H13V9Z" fill="white"/>
<path d="M10 9H9V10H10V9Z" fill="white"/>
<path d="M5 9H4V10H5V9Z" fill="white"/>
<path d="M3 9H2V11H3V9Z" fill="white"/>
<path d="M12 8H11V9H12V8Z" fill="white"/>
<path d="M4 8H3V9H4V8Z" fill="white"/>
<path d="M14 6H13V7H14V6Z" fill="white"/>
<path d="M2 6H1V7H2V6Z" fill="white"/>
<path d="M1 2H0V6H1V2Z" fill="white"/>
<path d="M15 2H14V6H15V2Z" fill="white"/>
<path d="M10 2V3H9V5H8V6H12V5H13V3H12V2H10Z" fill="white"/>
<path d="M3 2V3H2V5H3V6H7V5H6V3H5V2H3Z" fill="white"/>
<path d="M14 1H13V2H14V1Z" fill="white"/>
<path d="M9 1H8V2H9V1Z" fill="white"/>
<path d="M7 1H6V2H7V1Z" fill="white"/>
<path d="M2 1H1V2H2V1Z" fill="white"/>
<path d="M13 0H9V1H13V0Z" fill="white"/>
<path d="M6 0H2V1H6V0Z" fill="white"/>
</svg>
