<svg width="16" height="15" viewBox="0 0 16 15" fill="none" xmlns="http://www.w3.org/2000/svg">
<path d="M14 13H13V14H14V13Z" fill="white"/>
<path d="M12 13H13V12H11V14H10V15H13V14H12V13Z" fill="white"/>
<path d="M5 12H3V13H2V14H3V15H6V14H5V12Z" fill="white"/>
<path d="M15 12H14V13H15V12Z" fill="white"/>
<path d="M10 12H6V14H7V15H9V14H10V12Z" fill="white"/>
<path d="M2 12H1V13H2V12Z" fill="white"/>
<path d="M16 10H0V11H16V10Z" fill="white"/>
<path d="M13 6H11V9H13V6Z" fill="white"/>
<path d="M10 6H6V9H10V6Z" fill="white"/>
<path d="M5 6H3V9H5V6Z" fill="white"/>
<path d="M2 6H0V9H2V6Z" fill="white"/>
<path d="M16 6H14V9H16V6Z" fill="white"/>
<path d="M16 4H0V5H16V4Z" fill="white"/>
<path d="M15 2H14V3H15V2Z" fill="white"/>
<path d="M2 2H1V3H2V2Z" fill="white"/>
<path d="M13 1V0H10V1H11V3H13V2H14V1H13Z" fill="white"/>
<path d="M3 1H2V2H3V1Z" fill="white"/>
<path d="M9 0H7V1H6V3H10V1H9V0Z" fill="white"/>
<path d="M3 0V1H4V2H3V3H5V1H6V0H3Z" fill="white"/>
</svg>
