<svg width="15" height="16" viewBox="0 0 15 16" fill="none" xmlns="http://www.w3.org/2000/svg">
<path d="M10 14H6V16H10V14Z" fill="white"/>
<path d="M5 14H4V16H5V14Z" fill="white"/>
<path d="M9 10V13H10V11H13V10H9Z" fill="white"/>
<path d="M14 9H13V10H14V9Z" fill="white"/>
<path d="M7 9H6V13H7V9Z" fill="white"/>
<path d="M5 9H4V13H5V9Z" fill="white"/>
<path d="M8 8H7V9H8V8Z" fill="white"/>
<path d="M6 8H5V9H6V8Z" fill="white"/>
<path d="M7 7H6V8H7V7Z" fill="white"/>
<path d="M10 5H9V7H8V8H11V7H10V5Z" fill="white"/>
<path d="M12 4H11V7H12V4Z" fill="white"/>
<path d="M11 3H6V4H11V3Z" fill="white"/>
<path d="M15 2H14V9H15V2Z" fill="white"/>
<path d="M2 7H6V4H5V6H3V2H2V7Z" fill="white"/>
<path d="M1 2H0V7H1V2Z" fill="white"/>
<path d="M14 1H13V2H14V1Z" fill="white"/>
<path d="M4 1H3V2H4V1Z" fill="white"/>
<path d="M2 1H1V2H2V1Z" fill="white"/>
<path d="M13 0H4V1H13V0Z" fill="white"/>
<path d="M3 0H2V1H3V0Z" fill="white"/>
</svg>
