<svg width="16" height="16" viewBox="0 0 16 16" fill="none" xmlns="http://www.w3.org/2000/svg">
<path d="M4 14H3V15H4V14Z" fill="white"/>
<path d="M3 13H2V14H3V13Z" fill="white"/>
<path d="M2 12H1V13H2V12Z" fill="white"/>
<path d="M10 9H9V8H5V9H4V10H3V13H4V14H8V13H9V12H10V9Z" fill="white"/>
<path d="M1 9H0V12H1V9Z" fill="white"/>
<path d="M2 8H1V9H2V8Z" fill="white"/>
<path d="M3 7H2V8H3V7Z" fill="white"/>
<path d="M4 6H3V7H4V6Z" fill="white"/>
<path d="M11 5H10V4H5V5H9V6H10V7H11V8H12V11H11V12H10V13H9V14H8V15H4V16H10V15H11V14H12V13H13V7H12V6H11V5Z" fill="white"/>
<path d="M5 5H4V6H5V5Z" fill="white"/>
<path d="M13 3V1H12V2H11V3H10V4H11V5H12V6H13V5H14V4H15V3H13Z" fill="white"/>
<path d="M16 1H15V3H16V1Z" fill="white"/>
<path d="M15 0H13V1H15V0Z" fill="white"/>
</svg>
