<svg width="16" height="15" viewBox="0 0 16 15" fill="none" xmlns="http://www.w3.org/2000/svg">
<path d="M7 11H4V12H7V11Z" fill="white"/>
<path d="M8 10H7V11H8V10Z" fill="white"/>
<path d="M4 10H3V11H4V10Z" fill="white"/>
<path d="M9 7H8V10H9V7Z" fill="white"/>
<path d="M5 7H4V8H5V7Z" fill="white"/>
<path d="M8 6H7V7H8V6Z" fill="white"/>
<path d="M4 6H3V7H4V6Z" fill="white"/>
<path d="M7 5H4V6H7V5Z" fill="white"/>
<path d="M12 3V15H16V3H12ZM15 13H13V12H15V13ZM15 8H13V4H15V8Z" fill="white"/>
<path d="M0 3V15H11V3H0ZM1 8H2V9H1V8ZM10 10H9V11H8V12H7V13H4V12H3V11H2V10H3V7H2V6H3V5H4V4H7V5H8V6H9V7H10V10Z" fill="white"/>
<path d="M16 0H12V2H16V0Z" fill="white"/>
<path d="M0 0V2H2V1H5V2H7V1H9V2H11V0H0Z" fill="white"/>
</svg>
