<svg width="15" height="15" viewBox="0 0 15 15" fill="none" xmlns="http://www.w3.org/2000/svg">
<path d="M6 14H3V15H6V14Z" fill="white"/>
<path d="M4 13V12H3V11H2V14H3V13H4Z" fill="white"/>
<path d="M13 11H10V12H13V11Z" fill="white"/>
<path d="M7 11H6V14H7V11Z" fill="white"/>
<path d="M4 12H5V11H6V10H3V11H4V12Z" fill="white"/>
<path d="M14 10H13V11H14V10Z" fill="white"/>
<path d="M10 10H9V11H10V10Z" fill="white"/>
<path d="M13 9H12V10H13V9Z" fill="white"/>
<path d="M12 7H10V9H12V7Z" fill="white"/>
<path d="M9 7H8V10H9V7Z" fill="white"/>
<path d="M15 7H14V10H15V7Z" fill="white"/>
<path d="M6 7H2V8H6V7Z" fill="white"/>
<path d="M14 6H13V7H14V6Z" fill="white"/>
<path d="M10 6H9V7H10V6Z" fill="white"/>
<path d="M7 6H6V7H7V6Z" fill="white"/>
<path d="M2 6H1V7H2V6Z" fill="white"/>
<path d="M13 5H10V6H13V5Z" fill="white"/>
<path d="M8 2H7V6H8V2Z" fill="white"/>
<path d="M5 5H4V6H5V5Z" fill="white"/>
<path d="M6 4H5V5H6V4Z" fill="white"/>
<path d="M1 2H0V6H1V2Z" fill="white"/>
<path d="M4 2H2V4H4V2Z" fill="white"/>
<path d="M7 1H6V2H7V1Z" fill="white"/>
<path d="M2 1H1V2H2V1Z" fill="white"/>
<path d="M6 0H2V1H6V0Z" fill="white"/>
</svg>
