<svg width="14" height="14" viewBox="0 0 14 14" fill="none" xmlns="http://www.w3.org/2000/svg">
<path d="M14 13H0V14H14V13Z" fill="white"/>
<path d="M13 11H1V12H13V11Z" fill="white"/>
<path d="M12 8H11V10H12V8Z" fill="white"/>
<path d="M3 8H2V10H3V8Z" fill="white"/>
<path d="M12 5H11V3H9V2H5V3H3V5H2V3H1V6H13V3H12V5ZM6 5V3H8V4H7V5H6Z" fill="white"/>
<path d="M12 2H11V3H12V2Z" fill="white"/>
<path d="M3 2H2V3H3V2Z" fill="white"/>
<path d="M11 1H9V2H11V1Z" fill="white"/>
<path d="M5 1H3V2H5V1Z" fill="white"/>
<path d="M9 0H5V1H9V0Z" fill="white"/>
</svg>
