<svg width="14" height="15" viewBox="0 0 14 15" fill="none" xmlns="http://www.w3.org/2000/svg">
<path d="M5 10V15H8V13H7V12H9V15H12V13H11V12H13V15H14V10H5Z" fill="white"/>
<path d="M4 10H0V15H4V10Z" fill="white"/>
<path d="M12 9V8H5V7H4V6H3V5H0V9H12Z" fill="white"/>
<path d="M10 6V5H9V4H7V7H13V9H14V6H10Z" fill="white"/>
<path d="M6 6V4H4V5H5V6H6Z" fill="white"/>
<path d="M12 5V2H10V4H11V5H12Z" fill="white"/>
<path d="M6 1H4V3H6V1Z" fill="white"/>
<path d="M12 0H10V1H12V0Z" fill="white"/>
</svg>
