<svg width="16" height="14" viewBox="0 0 16 14" fill="none" xmlns="http://www.w3.org/2000/svg">
<path d="M14 12H13V13H14V12Z" fill="white"/>
<path d="M6 12H5V13H4V14H7V13H6V12Z" fill="white"/>
<path d="M15 11H14V12H15V11Z" fill="white"/>
<path d="M13 11H12V12H13V11Z" fill="white"/>
<path d="M11 11H10V12H11V11Z" fill="white"/>
<path d="M11 4V7H14V4H11ZM13 6H12V5H13V6Z" fill="white"/>
<path d="M15 2H14V1H13V0H8V1H7V2H6V3H5V4H4V5H3V3H2V2H0V5H1V6H2V7H1V8H0V11H2V10H3V9H4V10H5V11H6V12H7V13H8V14H13V13H12V12H11V13H10V12H9V11H8V10H9V11H10V10H11V11H12V10H13V11H14V10H15V11H16V9H15V8H16V3H15V2ZM8 9V8H7V4H8V3H9V4H8V8H9V9H8ZM15 4V7H14V8H11V7H10V4H11V3H14V4H15Z" fill="white"/>
<path d="M7 1V0H4V1H5V2H6V1H7Z" fill="white"/>
</svg>
