<svg width="16" height="16" viewBox="0 0 16 16" fill="none" xmlns="http://www.w3.org/2000/svg">
<path d="M13 15H12V16H13V15Z" fill="white"/>
<path d="M14 14H13V15H14V14Z" fill="white"/>
<path d="M12 5H11V4H1V5H0V15H1V16H11V15H12V5ZM2 9H4V11H2V9ZM10 11H8V9H10V11ZM10 5V7H8V5H10ZM4 5V7H2V5H4ZM2 15V13H4V15H2ZM8 15V13H10V15H8Z" fill="white"/>
<path d="M13 3H11V4H12V5H13V3Z" fill="white"/>
<path d="M1 3H0V4H1V3Z" fill="white"/>
<path d="M15 3H14V5H15V7H14V5H13V13H14V14H15V13H16V2H15V3ZM15 11H14V9H15V11Z" fill="white"/>
<path d="M11 3V2H13V3H14V2H15V1H14V0H3V1H2V2H1V3H11ZM9 1V2H6V1H9Z" fill="white"/>
</svg>
