<svg width="15" height="16" viewBox="0 0 15 16" fill="none" xmlns="http://www.w3.org/2000/svg">
<path d="M10 15H5V16H10V15Z" fill="white"/>
<path d="M5 11H4V15H5V11Z" fill="white"/>
<path d="M11 11H10V15H11V11Z" fill="white"/>
<path d="M9 12H6V14H9V12Z" fill="white"/>
<path d="M14 2H13V3H12V4H11V5H10V6H9V7H8V8H7V7H6V6H5V5H4V4H3V3H2V2H1V3H0V5H1V6H2V7H3V8H4V9H7V10H5V11H10V10H8V9H11V8H12V7H13V6H14V5H15V3H14V2Z" fill="white"/>
<path d="M3 3H4V4H11V3H12V2H13V1H12V0H3V1H2V2H3V3Z" fill="white"/>
</svg>
