<svg width="15" height="16" viewBox="0 0 15 16" fill="none" xmlns="http://www.w3.org/2000/svg">
<path d="M12 13H9V16H13V15H12V13Z" fill="white"/>
<path d="M6 13H4V14H3V16H7V15H6V13Z" fill="white"/>
<path d="M15 12H13V13H15V12Z" fill="white"/>
<path d="M4 6H2V13H4V6Z" fill="white"/>
<path d="M5 6V11H15V6H5ZM14 10H13V8H6V7H14V10Z" fill="white"/>
<path d="M1 6H0V11H1V6Z" fill="white"/>
<path d="M14 5V0H4V5H14ZM8 4V3H10V4H8ZM12 1V3H11V1H12ZM7 1V3H6V1H7Z" fill="white"/>
<path d="M3 0H1V5H3V0Z" fill="white"/>
</svg>
