<svg width="15" height="14" viewBox="0 0 15 14" fill="none" xmlns="http://www.w3.org/2000/svg">
<path d="M1 8H2V9H3V10H2V11H1V13H2V14H4V13H5V12H6V3H5V2H2V3H1V4H0V7H1V8Z" fill="white"/>
<path d="M15 4H14V3H13V2H10V3H9V12H10V13H11V14H13V13H14V11H13V10H12V9H13V8H14V7H15V4Z" fill="white"/>
<path d="M8 5H7V12H8V5Z" fill="white"/>
<path d="M8 2H7V4H8V2Z" fill="white"/>
<path d="M9 1H8V2H9V1Z" fill="white"/>
<path d="M7 1H6V2H7V1Z" fill="white"/>
<path d="M10 0H9V1H10V0Z" fill="white"/>
<path d="M6 0H5V1H6V0Z" fill="white"/>
</svg>
