<svg width="15" height="15" viewBox="0 0 15 15" fill="none" xmlns="http://www.w3.org/2000/svg">
<path d="M8 11V9H7V8H6V10H5V11H3V9H2V12H3V13H6V12H7V11H8Z" fill="white"/>
<path d="M10 9V10H9V11H8V12H7V14H8V15H11V14H12V8H11V9H10Z" fill="white"/>
<path d="M4 8H3V9H4V8Z" fill="white"/>
<path d="M6 7H4V8H6V7Z" fill="white"/>
<path d="M4 7V6H5V5H6V4H7V3H1V4H0V7H1V8H3V7H4Z" fill="white"/>
<path d="M13 4H14V3H12V4H11V6H12V7H14V6H13V4Z" fill="white"/>
<path d="M10 5H9V7H7V8H8V9H10V8H11V6H10V5Z" fill="white"/>
<path d="M7 5H6V7H7V5Z" fill="white"/>
<path d="M15 4H14V6H15V4Z" fill="white"/>
<path d="M9 4H7V5H9V4Z" fill="white"/>
<path d="M11 4V3H10V1H11V0H9V1H8V3H9V4H11Z" fill="white"/>
<path d="M12 1H11V3H12V1Z" fill="white"/>
<path d="M14 1H13V2H14V1Z" fill="white"/>
</svg>
