<svg width="16" height="15" viewBox="0 0 16 15" fill="none" xmlns="http://www.w3.org/2000/svg">
<path d="M12 14H11V15H12V14Z" fill="white"/>
<path d="M13 12H12V14H13V12Z" fill="white"/>
<path d="M6 13H3V14H6V13Z" fill="white"/>
<path d="M3 12H2V13H3V12Z" fill="white"/>
<path d="M12 11H10V12H12V11Z" fill="white"/>
<path d="M7 10H6V13H7V10Z" fill="white"/>
<path d="M15 10H13V11H15V10Z" fill="white"/>
<path d="M3 10H1V11H3V10Z" fill="white"/>
<path d="M16 9H15V10H16V9Z" fill="white"/>
<path d="M10 9H9V11H10V9Z" fill="white"/>
<path d="M4 8H3V10H4V8Z" fill="white"/>
<path d="M1 9H0V10H1V9Z" fill="white"/>
<path d="M13 8H12V10H13V8Z" fill="white"/>
<path d="M6 8H10V9H11V1H10V0H6V1H5V10H6V8ZM7 7V6H9V7H7ZM10 5H9V4H10V5ZM6 4H7V5H6V4Z" fill="white"/>
<path d="M14 6H13V8H14V6Z" fill="white"/>
<path d="M3 6H2V8H3V6Z" fill="white"/>
<path d="M13 5H12V6H13V5Z" fill="white"/>
<path d="M4 5H3V6H4V5Z" fill="white"/>
</svg>
