<svg width="16" height="15" viewBox="0 0 16 15" fill="none" xmlns="http://www.w3.org/2000/svg">
<path d="M11 14H10V15H11V14Z" fill="white"/>
<path d="M12 13H11V14H12V13Z" fill="white"/>
<path d="M13 6H12V7H13V6Z" fill="white"/>
<path d="M15 5H14V4H13V3H6V4H5V5H4V6H3V4H2V3H0V5H1V6H2V9H1V10H0V12H2V11H3V9H4V10H5V11H6V12H8V15H9V14H10V11H11V12H13V11H14V10H15V9H16V8H15V7H16V6H15V5ZM5 9V8H6V7H5V6H6V5H7V6H6V7H7V8H6V9H7V10H6V9H5ZM9 10V9H8V5H9V4H10V5H9V9H10V10H9ZM14 8H13V9H11V8H10V6H11V5H13V6H14V8Z" fill="white"/>
<path d="M7 0V2H10V1H9V0H7Z" fill="white"/>
</svg>
