<svg width="14" height="15" viewBox="0 0 14 15" fill="none" xmlns="http://www.w3.org/2000/svg">
<path d="M11 14H10V15H11V14Z" fill="white"/>
<path d="M4 14H3V15H4V14Z" fill="white"/>
<path d="M12 12H11V14H12V12Z" fill="white"/>
<path d="M3 12H2V14H3V12Z" fill="white"/>
<path d="M14 9H13V11H14V9Z" fill="white"/>
<path d="M1 9H0V11H1V9Z" fill="white"/>
<path d="M13 8H12V9H13V8Z" fill="white"/>
<path d="M2 8H1V9H2V8Z" fill="white"/>
<path d="M10 6H8V7H9V8H8V7H6V8H5V7H6V6H4V8H3V12H4V13H10V12H11V8H10V6ZM4 9H6V10H4V9ZM10 10H8V9H10V10Z" fill="white"/>
<path d="M2 5H1V6H2V5Z" fill="white"/>
<path d="M10 3H9V4H10V3Z" fill="white"/>
<path d="M10 2V3H12V4H10V5H11V6H13V5H14V3H13V2H10Z" fill="white"/>
<path d="M5 2H4V3H5V2Z" fill="white"/>
<path d="M2 0V1H1V4H4V3H2V2H4V1H6V0H2Z" fill="white"/>
</svg>
