<svg width="15" height="14" viewBox="0 0 15 14" fill="none" xmlns="http://www.w3.org/2000/svg">
<path d="M15 13H14V14H15V13Z" fill="white"/>
<path d="M1 13H0V14H1V13Z" fill="white"/>
<path d="M14 12H13V13H14V12Z" fill="white"/>
<path d="M2 12H1V13H2V12Z" fill="white"/>
<path d="M3 12V13H4V14H7V3H4V4H3V5H2V6H1V11H2V12H3ZM6 12H5V11H6V12ZM6 10H4V8H6V10ZM6 6H5V5H6V6ZM4 6V7H3V6H4Z" fill="white"/>
<path d="M14 11V6H13V5H12V4H11V3H8V14H11V13H12V12H13V11H14ZM10 8H11V9H10V8ZM9 5H11V7H9V5ZM9 12V10H11V12H9Z" fill="white"/>
<path d="M13 3H12V4H13V3Z" fill="white"/>
<path d="M3 3H2V4H3V3Z" fill="white"/>
<path d="M14 1H13V3H14V1Z" fill="white"/>
<path d="M10 2V1H9V0H6V1H5V2H10Z" fill="white"/>
<path d="M2 1H1V3H2V1Z" fill="white"/>
<path d="M11 0H10V1H11V0Z" fill="white"/>
<path d="M5 0H4V1H5V0Z" fill="white"/>
</svg>
