<svg width="16" height="11" viewBox="0 0 16 11" fill="none" xmlns="http://www.w3.org/2000/svg">
<path d="M8 10H7V11H8V10Z" fill="white"/>
<path d="M6 9H5V10H6V9Z" fill="white"/>
<path d="M4 8H3V9H4V8Z" fill="white"/>
<path d="M15 7H14V8H15V7Z" fill="white"/>
<path d="M13 7H14V6H11V3H14V2H13V1H12V0H10V5H9V1H8V5H7V2H6V5H5V3H4V5H3V4H2V3H0V5H1V6H0V8H2V7H3V6H10V11H12V10H13V9H14V8H13V7Z" fill="white"/>
<path d="M9 7H8V10H9V7Z" fill="white"/>
<path d="M7 7H6V9H7V7Z" fill="white"/>
<path d="M5 7H4V8H5V7Z" fill="white"/>
<path d="M16 6H15V7H16V6Z" fill="white"/>
<path d="M15 3H14V6H15V5H16V4H15V3Z" fill="white"/>
<path d="M4 2H3V3H4V2Z" fill="white"/>
<path d="M6 1H5V2H6V1Z" fill="white"/>
<path d="M8 0H7V1H8V0Z" fill="white"/>
</svg>
