<svg width="14" height="10" viewBox="0 0 14 10" fill="none" xmlns="http://www.w3.org/2000/svg">
<path d="M9 9H8V10H9V9Z" fill="white"/>
<path d="M6 9H5V10H6V9Z" fill="white"/>
<path d="M9 7V8H11V9H12V10H13V8H12V7H9Z" fill="white"/>
<path d="M8 6H6V8H8V6Z" fill="white"/>
<path d="M5 7H2V8H1V10H2V9H3V8H5V7Z" fill="white"/>
<path d="M14 4H10V5H9V6H11V5H14V4Z" fill="white"/>
<path d="M0 4V5H3V6H5V5H4V4H0Z" fill="white"/>
<path d="M11 2H12V1H13V0H11V1H10V3H11V2Z" fill="white"/>
<path d="M5 4H6V5H8V4H9V1H8V0H6V1H5V4Z" fill="white"/>
<path d="M1 0V1H2V2H3V3H4V1H3V0H1Z" fill="white"/>
</svg>
