<svg width="15" height="15" viewBox="0 0 15 15" fill="none" xmlns="http://www.w3.org/2000/svg">
<path d="M12 14H3V15H12V14Z" fill="white"/>
<path d="M13 13H12V14H13V13Z" fill="white"/>
<path d="M3 13H2V14H3V13Z" fill="white"/>
<path d="M14 12H13V13H14V12Z" fill="white"/>
<path d="M2 12H1V13H2V12Z" fill="white"/>
<path d="M1 3H0V12H1V3Z" fill="white"/>
<path d="M15 3H14V12H15V3Z" fill="white"/>
<path d="M14 2H13V3H14V2Z" fill="white"/>
<path d="M12 2H8V3H7V2H3V3H2V7H3V8H2V12H3V13H7V12H8V13H12V12H13V8H12V7H13V3H12V2ZM11 8H7V4H8V7H11V8Z" fill="white"/>
<path d="M2 2H1V3H2V2Z" fill="white"/>
<path d="M13 1H12V2H13V1Z" fill="white"/>
<path d="M3 1H2V2H3V1Z" fill="white"/>
<path d="M12 0H3V1H12V0Z" fill="white"/>
</svg>
