<svg width="15" height="16" viewBox="0 0 15 16" fill="none" xmlns="http://www.w3.org/2000/svg">
<path d="M13 15H11V16H13V15Z" fill="white"/>
<path d="M14 14H13V15H14V14Z" fill="white"/>
<path d="M11 14H10V15H11V14Z" fill="white"/>
<path d="M15 13H14V14H15V13Z" fill="white"/>
<path d="M14 11H13V12H14V11Z" fill="white"/>
<path d="M5 8H4V9H5V8Z" fill="white"/>
<path d="M7 7V8H6V9H5V10H6V11H7V12H8V13H9V14H10V13H11V12H12V11H13V10H12V9H11V8H10V7H9V6H8V7H7Z" fill="white"/>
<path d="M6 7H5V8H6V7Z" fill="white"/>
<path d="M4 7H3V8H4V7Z" fill="white"/>
<path d="M3 6H2V7H3V6Z" fill="white"/>
<path d="M2 5H1V6H2V5Z" fill="white"/>
<path d="M1 4H0V5H1V4Z" fill="white"/>
<path d="M3 4H4V5H5V6H6V7H7V6H8V5H7V4H6V3H5V2H4V1H3V2H2V3H3V4Z" fill="white"/>
<path d="M2 3H1V4H2V3Z" fill="white"/>
<path d="M12 2H11V5H12V6H13V7H14V10H15V5H14V4H12V2Z" fill="white"/>
<path d="M14 1H12V2H14V1Z" fill="white"/>
<path d="M15 0H14V1H15V0Z" fill="white"/>
</svg>
