<svg width="13" height="14" viewBox="0 0 13 14" fill="none" xmlns="http://www.w3.org/2000/svg">
<path d="M13 13H0V14H13V13Z" fill="white"/>
<path d="M10 12H12V10H11V9H10V12Z" fill="white"/>
<path d="M5 10H4V12H5V10Z" fill="white"/>
<path d="M2 10H1V12H2V10Z" fill="white"/>
<path d="M3 9H2V10H3V9Z" fill="white"/>
<path d="M10 8H9V9H10V8Z" fill="white"/>
<path d="M4 8H3V9H4V8Z" fill="white"/>
<path d="M9 6H8V8H9V6Z" fill="white"/>
<path d="M5 6H4V8H5V6Z" fill="white"/>
<path d="M10 5H9V6H10V5Z" fill="white"/>
<path d="M7 5V4H4V5H5V6H6V9H5V10H6V12H9V10H8V9H7V6H8V5H7Z" fill="white"/>
<path d="M4 5H3V6H4V5Z" fill="white"/>
<path d="M11 4H10V5H11V4Z" fill="white"/>
<path d="M9 2H8V5H9V2Z" fill="white"/>
<path d="M3 4H2V5H3V4Z" fill="white"/>
<path d="M12 2H11V4H12V2Z" fill="white"/>
<path d="M2 2H1V4H2V2Z" fill="white"/>
<path d="M13 0H0V1H13V0Z" fill="white"/>
</svg>
