<svg width="15" height="15" viewBox="0 0 15 15" fill="none" xmlns="http://www.w3.org/2000/svg">
<path d="M13 12H12V13H13V12Z" fill="white"/>
<path d="M3 12H2V13H3V12Z" fill="white"/>
<path d="M12 10H10V11H11V12H12V10Z" fill="white"/>
<path d="M7 10V15H8V13H9V10H7Z" fill="white"/>
<path d="M5 10H3V12H4V11H5V10Z" fill="white"/>
<path d="M15 8V7H10V9H13V8H15Z" fill="white"/>
<path d="M5 8V6H2V7H0V8H5Z" fill="white"/>
<path d="M6 9H9V6H6V9ZM8 7V8H7V7H8Z" fill="white"/>
<path d="M11 4H12V3H10V5H11V4Z" fill="white"/>
<path d="M8 5V0H7V2H6V5H8Z" fill="white"/>
<path d="M5 5V3H3V4H4V5H5Z" fill="white"/>
<path d="M13 2H12V3H13V2Z" fill="white"/>
<path d="M3 2H2V3H3V2Z" fill="white"/>
</svg>
