<svg width="16" height="15" viewBox="0 0 16 15" fill="none" xmlns="http://www.w3.org/2000/svg">
<path d="M8 14H3V15H8V14Z" fill="white"/>
<path d="M9 13H8V14H9V13Z" fill="white"/>
<path d="M3 13H2V14H3V13Z" fill="white"/>
<path d="M10 12H9V13H10V12Z" fill="white"/>
<path d="M3 13H8V12H9V11H7V12H4V11H3V9H4V8H7V9H9V6H8V5H7V4H5V6H4V7H3V8H2V12H3V13Z" fill="white"/>
<path d="M2 12H1V13H2V12Z" fill="white"/>
<path d="M11 11H10V12H11V11Z" fill="white"/>
<path d="M1 8H0V12H1V8Z" fill="white"/>
<path d="M16 9H11V11H16V9Z" fill="white"/>
<path d="M11 6H10V9H11V6Z" fill="white"/>
<path d="M2 7H1V8H2V7Z" fill="white"/>
<path d="M3 6H2V7H3V6Z" fill="white"/>
<path d="M10 4H9V6H10V4Z" fill="white"/>
<path d="M4 3H3V6H4V3Z" fill="white"/>
<path d="M5 2H7V3H8V4H9V1H8V0H5V1H4V3H5V2Z" fill="white"/>
</svg>
