<svg width="13" height="14" viewBox="0 0 13 14" fill="none" xmlns="http://www.w3.org/2000/svg">
<path d="M11 13H2V14H11V13Z" fill="white"/>
<path d="M12 12H11V13H12V12Z" fill="white"/>
<path d="M2 12H1V13H2V12Z" fill="white"/>
<path d="M13 11H12V12H13V11Z" fill="white"/>
<path d="M1 11H0V12H1V11Z" fill="white"/>
<path d="M2 11V12H11V11H12V10H13V2H12V1H11V5H10V6H9V7H8V8H7V9H6V10H2V6H3V5H4V4H5V3H6V2H7V1H11V0H2V1H1V2H0V10H1V11H2ZM12 6V9H11V10H10V11H8V10H10V9H11V6H12ZM1 3H2V2H3V1H5V2H3V3H2V5H1V3Z" fill="white"/>
<path d="M8 4H5V7H8V4ZM6 6V5H7V6H6Z" fill="white"/>
<path d="M10 2H7V3H8V4H9V5H10V2Z" fill="white"/>
</svg>
