<svg width="14" height="16" viewBox="0 0 14 16" fill="none" xmlns="http://www.w3.org/2000/svg">
<path d="M12 15H4V16H12V15Z" fill="white"/>
<path d="M3 15H2V16H3V15Z" fill="white"/>
<path d="M13 14H12V15H13V14Z" fill="white"/>
<path d="M4 14H3V15H4V14Z" fill="white"/>
<path d="M2 14H1V15H2V14Z" fill="white"/>
<path d="M1 7H0V14H1V7Z" fill="white"/>
<path d="M14 7H13V14H14V7Z" fill="white"/>
<path d="M4 13H5V14H11V13H12V8H11V7H8V10H11V11H7V7H5V8H4V13Z" fill="white"/>
<path d="M3 7H2V14H3V7Z" fill="white"/>
<path d="M13 6H12V7H13V6Z" fill="white"/>
<path d="M4 6H3V7H4V6Z" fill="white"/>
<path d="M2 6H1V7H2V6Z" fill="white"/>
<path d="M12 5H4V6H12V5Z" fill="white"/>
<path d="M3 5H2V6H3V5Z" fill="white"/>
<path d="M10 3H6V4H10V3Z" fill="white"/>
<path d="M5 3H4V4H5V3Z" fill="white"/>
<path d="M11 1H10V3H11V1Z" fill="white"/>
<path d="M6 1H5V3H6V1Z" fill="white"/>
<path d="M4 1H3V3H4V1Z" fill="white"/>
<path d="M10 0H6V1H10V0Z" fill="white"/>
<path d="M5 0H4V1H5V0Z" fill="white"/>
</svg>
