<svg width="14" height="15" viewBox="0 0 14 15" fill="none" xmlns="http://www.w3.org/2000/svg">
<path d="M14 8H12V10H14V8Z" fill="white"/>
<path d="M10 8H8V10H10V8Z" fill="white"/>
<path d="M6 8H4V10H6V8Z" fill="white"/>
<path d="M12 6H10V8H12V6Z" fill="white"/>
<path d="M8 6H6V8H8V6Z" fill="white"/>
<path d="M4 6H2V8H4V6Z" fill="white"/>
<path d="M14 4H12V6H14V4Z" fill="white"/>
<path d="M6 4H4V6H6V4Z" fill="white"/>
<path d="M10 4H8V6H10V4Z" fill="white"/>
<path d="M8 2H6V4H8V2Z" fill="white"/>
<path d="M12 2H10V4H12V2Z" fill="white"/>
<path d="M4 2H2V4H4V2Z" fill="white"/>
<path d="M14 0H12V2H14V0Z" fill="white"/>
<path d="M10 0H8V2H10V0Z" fill="white"/>
<path d="M6 0H4V2H6V0Z" fill="white"/>
<path d="M1 0H0V15H1V0Z" fill="white"/>
</svg>
