<svg width="10" height="15" viewBox="0 0 10 15" fill="none" xmlns="http://www.w3.org/2000/svg">
<path d="M7 14H3V15H7V14Z" fill="white"/>
<path d="M8 12H2V13H8V12Z" fill="white"/>
<path d="M8 10H2V11H8V10Z" fill="white"/>
<path d="M8 8H7V9H8V8Z" fill="white"/>
<path d="M3 8H2V9H3V8Z" fill="white"/>
<path d="M9 7H8V8H9V7Z" fill="white"/>
<path d="M2 7H1V8H2V7Z" fill="white"/>
<path d="M10 3H9V7H10V3Z" fill="white"/>
<path d="M2 3V5H4V4H5V2H3V3H2Z" fill="white"/>
<path d="M1 3H0V7H1V3Z" fill="white"/>
<path d="M9 2H8V3H9V2Z" fill="white"/>
<path d="M2 2H1V3H2V2Z" fill="white"/>
<path d="M8 1H7V2H8V1Z" fill="white"/>
<path d="M3 1H2V2H3V1Z" fill="white"/>
<path d="M7 0H3V1H7V0Z" fill="white"/>
</svg>
