<svg width="14" height="12" viewBox="0 0 14 12" fill="none" xmlns="http://www.w3.org/2000/svg">
<path d="M12 9H10V10H12V9Z" fill="white"/>
<path d="M4 9H2V10H4V9Z" fill="white"/>
<path d="M9 7V8H8V11H9V12H13V11H14V8H13V7H9ZM13 9V10H12V11H10V10H9V9H10V8H12V9H13Z" fill="white"/>
<path d="M1 7V8H0V11H1V12H5V11H6V8H5V7H1ZM5 9V10H4V11H2V10H1V9H2V8H4V9H5Z" fill="white"/>
<path d="M9 6H5V7H9V6Z" fill="white"/>
<path d="M5 6V5H9V6H13V7H14V1H13V0H9V1H8V2H9V3H5V2H6V1H5V0H1V1H0V7H1V6H5Z" fill="white"/>
</svg>
