<svg width="16" height="20" viewBox="0 0 16 20" fill="none" xmlns="http://www.w3.org/2000/svg">
<path d="M10 20V19H11V18H12V10H13V9H14V7H12V8H11V9H10V14H9V15H7V14H3V17H5V19H2V20H10Z" fill="white"/>
<path d="M2 18H1V19H2V18Z" fill="white"/>
<path d="M1 14H0V18H1V14Z" fill="white"/>
<path d="M1 11H0V13H1V11Z" fill="white"/>
<path d="M7 11H2V13H7V11Z" fill="white"/>
<path d="M16 7H15V9H16V7Z" fill="white"/>
<path d="M2 4H3V5H4V6H5V7H4V8H3V10H4V9H5V8H6V7H7V4H6V3H5V2H4V1H3V2H2V4Z" fill="white"/>
<path d="M5 0H4V1H5V0Z" fill="white"/>
</svg>
