<svg width="18" height="18" viewBox="0 0 18 18" fill="none" xmlns="http://www.w3.org/2000/svg">
<path d="M3 18V17H1V15H0V18H3Z" fill="white"/>
<path d="M14 16H10V17H14V16Z" fill="white"/>
<path d="M17 17H15V18H18V15H17V17Z" fill="white"/>
<path d="M15 15H14V16H15V15Z" fill="white"/>
<path d="M10 15H9V16H10V15Z" fill="white"/>
<path d="M5 15H3V16H5V15Z" fill="white"/>
<path d="M16 14H15V15H16V14Z" fill="white"/>
<path d="M6 14H5V15H6V14Z" fill="white"/>
<path d="M3 14H2V15H3V14Z" fill="white"/>
<path d="M17 13H16V14H17V13Z" fill="white"/>
<path d="M6 13V11H5V10H3V11H2V13H3V14H5V13H6Z" fill="white"/>
<path d="M10 9H6V10H10V9Z" fill="white"/>
<path d="M6 8H5V9H6V8Z" fill="white"/>
<path d="M5 7H4V8H5V7Z" fill="white"/>
<path d="M14 3V2H13V1H7V2H6V3H5V4H4V6H5V7H6V8H10V9H11V11H10V12H9V14H10V15H14V14H15V13H16V12H17V5H16V4H15V3H14ZM10 5V4H9V5H8V6H7V5H8V4H9V3H10V4H11V5H12V6H11V5H10ZM12 9H13V8H12V7H13V8H14V7H15V8H14V9H15V10H14V9H13V10H12V9Z" fill="white"/>
<path d="M1 1H3V0H0V3H1V1Z" fill="white"/>
<path d="M15 0V1H17V3H18V0H15Z" fill="white"/>
</svg>
