<svg width="14" height="16" viewBox="0 0 14 16" fill="none" xmlns="http://www.w3.org/2000/svg">
<path d="M14 16V5H2V16H14ZM3 15V6H13V15H3Z" fill="white"/>
<path d="M1 5H0V16H1V5Z" fill="white"/>
<path d="M12 7H4V14H12V7Z" fill="white"/>
<path d="M11 3H10V4H11V3Z" fill="white"/>
<path d="M4 3H3V4H4V3Z" fill="white"/>
<path d="M10 2H9V3H10V2Z" fill="white"/>
<path d="M5 2H4V3H5V2Z" fill="white"/>
<path d="M9 1H8V2H9V1Z" fill="white"/>
<path d="M6 1H5V2H6V1Z" fill="white"/>
<path d="M8 0H6V1H8V0Z" fill="white"/>
</svg>
