<svg width="13" height="15" viewBox="0 0 13 15" fill="none" xmlns="http://www.w3.org/2000/svg">
<path d="M10 14H9V15H10V14Z" fill="white"/>
<path d="M4 14H3V15H4V14Z" fill="white"/>
<path d="M11 13H10V14H11V13Z" fill="white"/>
<path d="M9 13H8V14H9V13Z" fill="white"/>
<path d="M5 13H4V14H5V13Z" fill="white"/>
<path d="M3 13H2V14H3V13Z" fill="white"/>
<path d="M12 12H11V13H12V12Z" fill="white"/>
<path d="M10 12H9V13H10V12Z" fill="white"/>
<path d="M8 12H7V13H8V12Z" fill="white"/>
<path d="M6 12H5V13H6V12Z" fill="white"/>
<path d="M4 12H3V13H4V12Z" fill="white"/>
<path d="M2 12H1V13H2V12Z" fill="white"/>
<path d="M13 11H12V12H13V11Z" fill="white"/>
<path d="M11 11H10V12H11V11Z" fill="white"/>
<path d="M9 11H8V12H9V11Z" fill="white"/>
<path d="M7 11H6V12H7V11Z" fill="white"/>
<path d="M5 11H4V12H5V11Z" fill="white"/>
<path d="M3 11H2V12H3V11Z" fill="white"/>
<path d="M1 11H0V12H1V11Z" fill="white"/>
<path d="M12 10H11V11H12V10Z" fill="white"/>
<path d="M8 10H7V11H8V10Z" fill="white"/>
<path d="M6 10H5V11H6V10Z" fill="white"/>
<path d="M2 10H1V11H2V10Z" fill="white"/>
<path d="M13 9H12V10H13V9Z" fill="white"/>
<path d="M7 9H6V10H7V9Z" fill="white"/>
<path d="M1 9H0V10H1V9Z" fill="white"/>
<path d="M12 8H11V9H12V8Z" fill="white"/>
<path d="M2 8H1V9H2V8Z" fill="white"/>
<path d="M11 7H10V8H11V7Z" fill="white"/>
<path d="M3 7H2V8H3V7Z" fill="white"/>
<path d="M12 6H11V7H12V6Z" fill="white"/>
<path d="M10 6H9V7H10V6Z" fill="white"/>
<path d="M4 6H3V7H4V6Z" fill="white"/>
<path d="M2 6H1V7H2V6Z" fill="white"/>
<path d="M13 5H12V6H13V5Z" fill="white"/>
<path d="M11 5H10V6H11V5Z" fill="white"/>
<path d="M3 5H2V6H3V5Z" fill="white"/>
<path d="M1 5H0V6H1V5Z" fill="white"/>
<path d="M12 4H11V5H12V4Z" fill="white"/>
<path d="M2 4H1V5H2V4Z" fill="white"/>
<path d="M13 3H12V4H13V3Z" fill="white"/>
<path d="M7 3H6V4H7V3Z" fill="white"/>
<path d="M1 3H0V4H1V3Z" fill="white"/>
<path d="M12 2H11V3H12V2Z" fill="white"/>
<path d="M8 2H7V3H8V2Z" fill="white"/>
<path d="M6 2H5V3H6V2Z" fill="white"/>
<path d="M2 2H1V3H2V2Z" fill="white"/>
<path d="M11 1H10V2H11V1Z" fill="white"/>
<path d="M9 1H8V2H9V1Z" fill="white"/>
<path d="M5 1H4V2H5V1Z" fill="white"/>
<path d="M3 1H2V2H3V1Z" fill="white"/>
<path d="M10 0H9V1H10V0Z" fill="white"/>
<path d="M4 0H3V1H4V0Z" fill="white"/>
</svg>
