<svg width="14" height="16" viewBox="0 0 14 16" fill="none" xmlns="http://www.w3.org/2000/svg">
<path d="M8 15H6V16H8V15Z" fill="white"/>
<path d="M9 14H8V15H9V14Z" fill="white"/>
<path d="M6 14H5V15H6V14Z" fill="white"/>
<path d="M10 13H9V14H10V13Z" fill="white"/>
<path d="M5 13H4V14H5V13Z" fill="white"/>
<path d="M11 12H10V13H11V12Z" fill="white"/>
<path d="M4 12H3V13H4V12Z" fill="white"/>
<path d="M12 11H11V12H12V11Z" fill="white"/>
<path d="M3 11H2V12H3V11Z" fill="white"/>
<path d="M13 10H12V11H13V10Z" fill="white"/>
<path d="M3 11H4V12H5V13H6V14H8V13H9V12H10V11H11V10H12V4H11V3H10V2H4V3H3V4H2V10H3V11ZM5 6H6V5H8V6H9V8H8V9H6V8H5V6Z" fill="white"/>
<path d="M2 10H1V11H2V10Z" fill="white"/>
<path d="M14 4H13V10H14V4Z" fill="white"/>
<path d="M1 4H0V10H1V4Z" fill="white"/>
<path d="M13 3H12V4H13V3Z" fill="white"/>
<path d="M2 3H1V4H2V3Z" fill="white"/>
<path d="M12 2H11V3H12V2Z" fill="white"/>
<path d="M3 2H2V3H3V2Z" fill="white"/>
<path d="M11 1H10V2H11V1Z" fill="white"/>
<path d="M4 1H3V2H4V1Z" fill="white"/>
<path d="M10 0H4V1H10V0Z" fill="white"/>
</svg>
