<svg width="14" height="15" viewBox="0 0 14 15" fill="none" xmlns="http://www.w3.org/2000/svg">
<path d="M6 15H8V12H7V13H6V15Z" fill="white"/>
<path d="M4 12V15H5V13H6V12H4Z" fill="white"/>
<path d="M11 9H10V10H11V9Z" fill="white"/>
<path d="M12 8H11V9H12V8Z" fill="white"/>
<path d="M13 7H12V8H13V7Z" fill="white"/>
<path d="M11 8V7H12V5H11V4H10V3H9V4H6V5H2V4H0V7H2V6H7V5H10V6H7V7H2V8H0V10H9V9H3V8H9V9H10V8H11Z" fill="white"/>
<path d="M14 5H13V7H14V5Z" fill="white"/>
<path d="M13 4H12V5H13V4Z" fill="white"/>
<path d="M12 3H11V4H12V3Z" fill="white"/>
<path d="M6 4V3H9V2H0V3H2V4H6Z" fill="white"/>
<path d="M11 2H10V3H11V2Z" fill="white"/>
<path d="M8 0H7V1H8V0Z" fill="white"/>
<path d="M6 0H4V1H6V0Z" fill="white"/>
</svg>
