<svg width="15" height="16" viewBox="0 0 15 16" fill="none" xmlns="http://www.w3.org/2000/svg">
<path d="M12 15H4V16H12V15Z" fill="white"/>
<path d="M1 10H0V15H1V10Z" fill="white"/>
<path d="M3 10V11H2V13H3V14H13V13H14V11H13V10H3ZM9 11V12H10V13H9V12H8V11H9Z" fill="white"/>
<path d="M14 9H13V10H14V9Z" fill="white"/>
<path d="M15 6H14V9H15V6Z" fill="white"/>
<path d="M11 8H5V9H11V8Z" fill="white"/>
<path d="M1 7H0V9H1V7Z" fill="white"/>
<path d="M2 6H1V7H2V6Z" fill="white"/>
<path d="M14 5H13V6H14V5Z" fill="white"/>
<path d="M3 5H2V6H3V5Z" fill="white"/>
<path d="M13 4H10V5H13V4Z" fill="white"/>
<path d="M6 4H3V5H6V4Z" fill="white"/>
<path d="M9 3H7V7H9V3Z" fill="white"/>
<path d="M10 2V1H11V0H5V1H6V2H10Z" fill="white"/>
</svg>
