<svg width="16" height="16" viewBox="0 0 16 16" fill="none" xmlns="http://www.w3.org/2000/svg">
<path d="M13 15H12V16H13V15Z" fill="white"/>
<path d="M11 15H10V16H11V15Z" fill="white"/>
<path d="M4 15H3V16H4V15Z" fill="white"/>
<path d="M2 15H1V16H2V15Z" fill="white"/>
<path d="M3 12H2V15H3V12Z" fill="white"/>
<path d="M12 11H11V15H12V11Z" fill="white"/>
<path d="M1 6H0V7H1V6Z" fill="white"/>
<path d="M14 3V2H13V0H12V2H11V0H10V7H1V11H0V15H1V12H2V11H3V12H4V11H5V10H6V11H7V12H9V15H10V11H11V10H12V11H13V5H15V4H16V3H14ZM11 3H12V4H11V3Z" fill="white"/>
</svg>
