<svg width="16" height="15" viewBox="0 0 16 15" fill="none" xmlns="http://www.w3.org/2000/svg">
<path d="M14 14H5V15H14V14Z" fill="white"/>
<path d="M3 14H2V15H3V14Z" fill="white"/>
<path d="M15 13H14V14H15V13Z" fill="white"/>
<path d="M5 13H4V14H5V13Z" fill="white"/>
<path d="M2 13H1V14H2V13Z" fill="white"/>
<path d="M1 9H2V5H3V4H4V3H2V4H1V5H0V13H1V9Z" fill="white"/>
<path d="M7 11H12V7H7V11ZM9 8V9H10V8H11V10H8V8H9Z" fill="white"/>
<path d="M3 5V13H4V9H6V7H7V6H12V7H13V9H15V13H16V5H15V4H14V3H5V4H4V5H3Z" fill="white"/>
<path d="M11 2V1H10V0H8V1H7V2H11Z" fill="white"/>
<path d="M6 1H5V2H6V1Z" fill="white"/>
<path d="M7 0H6V1H7V0Z" fill="white"/>
</svg>
