<svg width="10" height="16" viewBox="0 0 10 16" fill="none" xmlns="http://www.w3.org/2000/svg">
<path d="M9 15H8V16H9V15Z" fill="white"/>
<path d="M7 15H3V16H7V15Z" fill="white"/>
<path d="M2 15H1V16H2V15Z" fill="white"/>
<path d="M8 11H7V14H8V11Z" fill="white"/>
<path d="M10 10H9V15H10V10Z" fill="white"/>
<path d="M7 10H6V11H7V10Z" fill="white"/>
<path d="M1 10H0V15H1V10Z" fill="white"/>
<path d="M2 8H1V10H2V8Z" fill="white"/>
<path d="M9 8H8V10H9V8Z" fill="white"/>
<path d="M10 4H9V3H8V2H2V3H1V4H0V8H1V6H7V7H8V6H9V8H10V4Z" fill="white"/>
<path d="M8 0H2V1H8V0Z" fill="white"/>
</svg>
