<svg width="15" height="10" viewBox="0 0 15 10" fill="none" xmlns="http://www.w3.org/2000/svg">
<path d="M15 2H14V3H13V4H14V5H13V6H14V7H13V6H12V7H11V6H12V5H11V4H10V7H9V8H8V7H9V4H8V3H5V2H4V4H5V5H4V4H3V5H2V6H1V7H2V8H4V7H6V6H7V7H6V8H4V9H5V10H6V9H7V10H8V9H10V10H11V9H12V10H13V9H14V8H15V2ZM6 5V4H7V5H6Z" fill="white"/>
<path d="M1 7H0V8H1V7Z" fill="white"/>
<path d="M13 4H12V5H13V4Z" fill="white"/>
<path d="M12 3H11V4H12V3Z" fill="white"/>
<path d="M10 3H9V4H10V3Z" fill="white"/>
<path d="M13 2H12V3H13V2Z" fill="white"/>
<path d="M11 2H10V3H11V2Z" fill="white"/>
<path d="M9 2H8V3H9V2Z" fill="white"/>
<path d="M14 1H13V2H14V1Z" fill="white"/>
<path d="M8 2V1H9V2H10V1H11V2H12V1H13V0H6V1H5V2H8Z" fill="white"/>
</svg>
