<svg width="17" height="14" viewBox="0 0 17 14" fill="none" xmlns="http://www.w3.org/2000/svg">
<path d="M13 13H2V14H13V13Z" fill="white"/>
<path d="M14 12H13V13H14V12Z" fill="white"/>
<path d="M2 12H1V13H2V12Z" fill="white"/>
<path d="M12 10H11V11H12V10Z" fill="white"/>
<path d="M13 9H12V10H13V9Z" fill="white"/>
<path d="M14 7H13V6H12V5H11V4H4V5H3V6H2V7H1V8H0V12H1V9H2V8H3V9H2V10H3V11H4V10H5V11H6V10H7V11H8V10H9V11H10V10H11V9H12V8H11V7H12V8H13V9H14V12H15V8H14V7Z" fill="white"/>
<path d="M16 3H15V2H12V3H14V4H15V8H16V7H17V4H16V3Z" fill="white"/>
<path d="M12 3H11V4H12V3Z" fill="white"/>
<path d="M12 2V1H13V0H2V1H3V2H4V3H11V2H12Z" fill="white"/>
</svg>
