<svg width="12" height="12" viewBox="0 0 12 12" fill="none" xmlns="http://www.w3.org/2000/svg">
<path d="M9 11H3V12H9V11Z" fill="white"/>
<path d="M5 9H4V10H5V9Z" fill="white"/>
<path d="M5 8V9H6V10H10V9H11V7H10V8H5Z" fill="white"/>
<path d="M2 8V7H1V9H2V10H3V9H4V8H2Z" fill="white"/>
<path d="M10 6H2V7H10V6Z" fill="white"/>
<path d="M11 5H10V6H11V5Z" fill="white"/>
<path d="M2 5H1V6H2V5Z" fill="white"/>
<path d="M8 5V4H9V3H7V4H6V5H8Z" fill="white"/>
<path d="M12 2H11V5H12V2Z" fill="white"/>
<path d="M4 4V3H5V2H3V3H2V4H4Z" fill="white"/>
<path d="M1 2H0V5H1V2Z" fill="white"/>
<path d="M11 1H10V2H11V1Z" fill="white"/>
<path d="M2 1H1V2H2V1Z" fill="white"/>
<path d="M10 0H2V1H10V0Z" fill="white"/>
</svg>
