<svg width="11" height="11" viewBox="0 0 11 11" fill="none" xmlns="http://www.w3.org/2000/svg">
<path d="M9 11V10H8V8H9V7H10V9H11V4H10V5H9V6H8V7H3V6H2V5H1V4H0V9H1V10H2V11H9ZM1 7H2V8H1V7ZM6 10V9H7V10H6Z" fill="white"/>
<path d="M10 9H9V10H10V9Z" fill="white"/>
<path d="M8 5H3V6H8V5Z" fill="white"/>
<path d="M9 4H8V5H9V4Z" fill="white"/>
<path d="M3 4H2V5H3V4Z" fill="white"/>
<path d="M10 2H9V4H10V2Z" fill="white"/>
<path d="M6 4V3H5V2H3V4H6Z" fill="white"/>
<path d="M2 2H1V4H2V2Z" fill="white"/>
<path d="M9 1H8V2H9V1Z" fill="white"/>
<path d="M3 1H2V2H3V1Z" fill="white"/>
<path d="M8 0H3V1H8V0Z" fill="white"/>
</svg>
