<svg width="13" height="13" viewBox="0 0 13 13" fill="none" xmlns="http://www.w3.org/2000/svg">
<path d="M12 12H1V13H12V12Z" fill="white"/>
<path d="M13 9H12V12H13V9Z" fill="white"/>
<path d="M3 10H2V11H3V10Z" fill="white"/>
<path d="M1 9H0V12H1V9Z" fill="white"/>
<path d="M12 8H11V9H12V8Z" fill="white"/>
<path d="M10 8H8V10H10V8Z" fill="white"/>
<path d="M2 8H1V9H2V8Z" fill="white"/>
<path d="M11 7H10V8H11V7Z" fill="white"/>
<path d="M3 7H2V8H3V7Z" fill="white"/>
<path d="M5 2V5H4V6H3V7H10V6H9V5H8V1H9V0H4V1H6V2H5Z" fill="white"/>
</svg>
