<svg width="14" height="14" viewBox="0 0 14 14" fill="none" xmlns="http://www.w3.org/2000/svg">
<path d="M11 13H3V14H11V13Z" fill="white"/>
<path d="M7 11H6V12H7V11Z" fill="white"/>
<path d="M3 10H2V12H3V10Z" fill="white"/>
<path d="M6 10H5V11H6V10Z" fill="white"/>
<path d="M13 8H14V5H13V4H12V3H9V1H10V0H4V1H7V2H5V3H2V4H5V5H6V6H5V7H6V8H7V9H6V10H7V11H8V12H12V10H13V8Z" fill="white"/>
<path d="M2 8H1V10H2V8Z" fill="white"/>
<path d="M6 8H5V9H6V8Z" fill="white"/>
<path d="M5 7H4V8H5V7Z" fill="white"/>
<path d="M4 6H3V7H4V6Z" fill="white"/>
<path d="M5 5H4V6H5V5Z" fill="white"/>
<path d="M1 5H0V8H1V5Z" fill="white"/>
<path d="M2 4H1V5H2V4Z" fill="white"/>
</svg>
