<svg width="13" height="14" viewBox="0 0 13 14" fill="none" xmlns="http://www.w3.org/2000/svg">
<path d="M7 12H6V13H7V12Z" fill="white"/>
<path d="M8 11H7V12H8V11Z" fill="white"/>
<path d="M9 10H8V11H9V10Z" fill="white"/>
<path d="M7 11V10H8V9H9V7H10V5H11V7H12V5H13V0H12V1H11V2H10V3H9V4H8V5H7V6H6V7H5V8H4V9H3V10H4V11H5V12H6V11H7Z" fill="white"/>
<path d="M3 10H2V11H1V12H0V14H2V13H3V12H4V11H3V10Z" fill="white"/>
<path d="M10 9H9V10H10V9Z" fill="white"/>
<path d="M11 7H10V9H11V7Z" fill="white"/>
</svg>
