<svg width="64" height="64" viewBox="0 0 64 64" fill="none" xmlns="http://www.w3.org/2000/svg">
<g clip-path="url(#clip0_317_108)">
<path fill-rule="evenodd" clip-rule="evenodd" d="M27.52 0L36.6933 0.213333L36.9067 4.69333L40.96 4.90667L40.7467 8.96L36.6933 9.17333L36.9067 13.6533L40.96 13.8667L41.1733 27.3067L45.6533 27.52L45.8667 32L50.3467 32.2133L50.56 36.6933L55.04 36.9067L55.2533 40.96L59.3067 40.7467L59.52 32L64 32.2133L63.7867 64L40.96 63.7867L40.7467 40.96L36.6933 40.7467L36.48 36.6933L27.3067 36.9067L27.0933 40.96L23.04 41.1733L22.8267 64L0 63.7867L0.213333 32L4.69333 32.2133L4.90667 40.96L8.96 40.7467L9.17333 36.6933L13.6533 36.48L13.8667 32L18.3467 31.7867L18.56 27.3067L23.04 27.0933L23.2533 13.6533L27.3067 13.44L27.0933 8.96L23.04 8.74667L23.2533 4.69333L27.3067 4.48L27.52 0ZM9.17333 48.2133L13.6533 48.4267L13.44 52.48L8.96 52.2667L9.17333 48.2133ZM50.56 48.2133L55.04 48.4267L54.8267 52.48L50.3467 52.2667L50.56 48.2133Z" fill="#27272A"/>
</g>
<defs>
<clipPath id="clip0_317_108">
<rect width="64" height="64" fill="white"/>
</clipPath>
</defs>
</svg>
