<svg
  width="38"
  height="38"
  viewBox="0 0 38 38"
  fill="none"
  xmlns="http://www.w3.org/2000/svg"
>
  <path
    fill-rule="evenodd"
    clip-rule="evenodd"
    d="M21.2848 0.603703L22.518 1.30851C23.2264 1.72618 24.0135 1.93501 24.8006 1.93501H26.2174C27.8441 1.93501 29.3658 2.79645 30.1792 4.20608L30.8876 5.43298C31.2811 6.11169 31.8584 6.68598 32.5668 7.10365L33.7999 7.80846C35.2167 8.61769 36.0825 10.1056 36.0825 11.7502V13.1598C36.0825 13.969 36.2924 14.7522 36.686 15.4309L37.3944 16.6578C38.2077 18.0674 38.2077 19.7903 37.3944 21.1999L36.686 22.4268C36.2924 23.1055 36.0825 23.8886 36.0825 24.6979V26.1075C36.0825 27.726 35.2167 29.24 33.7999 30.0492L32.5668 30.754C31.8846 31.1456 31.3074 31.7199 30.8876 32.4247L30.1792 33.6516C29.3658 35.0612 27.8703 35.9227 26.2174 35.9227H24.8006C23.9872 35.9227 23.2001 36.1315 22.518 36.5231L21.2848 37.2279C19.868 38.0371 18.1364 38.0371 16.7196 37.2279L15.4864 36.5231C14.8042 36.1315 14.0171 35.9227 13.2038 35.9227H11.787C10.1603 35.9227 8.63857 35.0612 7.82522 33.6516L7.11681 32.4247C6.72326 31.746 6.14604 31.1717 5.43764 30.754L4.2045 30.0492C2.78769 29.24 1.92187 27.7521 1.92187 26.1075V24.6979C1.92187 23.8886 1.71197 23.1055 1.31842 22.4268L0.61001 21.1999C-0.203336 19.7903 -0.203336 18.0674 0.61001 16.6578L1.31842 15.4309C1.71197 14.7522 1.92187 13.969 1.92187 13.1598V11.7502C1.92187 10.1317 2.78769 8.61769 4.2045 7.80846L5.43764 7.10365C6.1198 6.71208 6.69702 6.13779 7.11681 5.43298L7.82522 4.20608C8.63857 2.79645 10.134 1.93501 11.787 1.93501H13.2038C14.0171 1.93501 14.8042 1.72618 15.4864 1.33461L16.7196 0.629803C18.1364 -0.205532 19.868 -0.205532 21.2848 0.603703Z"
    fill="currentColor"
  />
</svg>
