<svg width="172" height="130" viewBox="0 0 172 130" fill="none" xmlns="http://www.w3.org/2000/svg">
<path d="M14.4421 28.3901C19.5388 28.3901 22.585 25.0509 23.5223 23.5571V15.297H14.4421V19.9836H18.5722V22.3562C17.4005 23.4399 16.2875 23.7621 14.4421 23.7621C11.2201 23.7621 8.58395 21.0673 8.58395 17.4939C8.58395 13.8618 11.2201 11.1963 14.4421 11.1963C16.9319 11.1963 18.1914 11.87 19.5095 13.1881L22.4971 9.9075C20.7397 7.71068 17.4298 6.59763 14.4421 6.59763C8.4082 6.59763 3.5752 11.4306 3.5752 17.4939C3.5752 23.4985 8.4082 28.3901 14.4421 28.3901Z" fill="#515151"/>
<path d="M32.751 28.3901C36.9982 28.3901 39.9273 25.4317 39.9273 21.5067V11.6357H34.8893V21.8289C34.8893 22.8834 34.3034 23.7035 32.751 23.7035C31.3451 23.7035 30.5835 23.0298 30.5835 21.8289V11.6357H25.5747V21.5067C25.5747 25.4317 28.5331 28.3901 32.751 28.3901Z" fill="#515151"/>
<path d="M45.2244 9.64389C46.7475 9.64389 48.007 8.38437 48.007 6.83196C48.007 5.30883 46.7475 4.04932 45.2244 4.04932C43.672 4.04932 42.4125 5.30883 42.4125 6.83196C42.4125 8.38437 43.672 9.64389 45.2244 9.64389ZM47.7141 27.8921V11.6357H42.6761V27.8921H47.7141Z" fill="#515151"/>
<path d="M55.8513 27.9507V7.03699H50.8718V27.9507H55.8513Z" fill="#515151"/>
<path d="M65.1901 28.3901C67.3869 28.3901 69.3787 27.775 70.8725 25.6074H71.0189V27.9507H75.9105V7.03699H70.8725V14.1547H70.726C69.818 12.4265 67.6798 11.1963 65.1901 11.1963C60.9429 11.1963 57.7502 15.0041 57.7502 19.8078C57.7502 24.5823 60.9429 28.3901 65.1901 28.3901ZM66.6546 23.7035C64.3406 23.7035 63.1104 22.0925 63.1104 19.8078C63.1104 17.4939 64.3406 15.8829 66.6546 15.8829C68.9393 15.8829 70.2867 17.4939 70.2867 19.8078C70.2867 22.0925 68.9393 23.7035 66.6546 23.7035Z" fill="#515151"/>
<path d="M94.2233 28.3901C97.211 28.3901 99.9058 27.2477 101.839 25.256L98.9099 22.034C97.8261 23.0884 96.3616 23.6742 94.2233 23.6742C90.972 23.6742 88.5995 21.331 88.5995 17.4646C88.5995 13.686 90.972 11.3428 94.2233 11.3428C96.4494 11.3428 98.0019 12.0165 99.0856 13.1002L102.015 9.9075C100.052 7.85714 97.2403 6.59763 94.2233 6.59763C88.1601 6.59763 83.3564 11.2549 83.3564 17.4646C83.3564 23.8207 88.1601 28.3901 94.2233 28.3901Z" fill="#515151"/>
<path d="M109.235 28.3901C111.461 28.3901 113.16 27.775 114.654 25.6074H114.8V27.9507H119.692V11.6357H114.8V14.1547H114.654C113.746 12.4265 111.754 11.1963 109.235 11.1963C104.724 11.1963 101.502 15.0041 101.502 19.8078C101.502 24.5823 104.724 28.3901 109.235 28.3901ZM110.407 23.7035C108.122 23.7035 106.863 22.0925 106.863 19.8078C106.863 17.4939 108.122 15.8829 110.407 15.8829C112.721 15.8829 114.068 17.4939 114.068 19.8078C114.068 22.0925 112.721 23.7035 110.407 23.7035Z" fill="#515151"/>
<path d="M127.841 28.3901C131.238 28.3901 134.021 25.9296 134.021 22.8248C134.021 18.8412 130.945 18.0797 128.983 17.5817C127.987 17.3181 126.962 17.1717 126.962 16.4687C126.962 16 127.343 15.7364 127.987 15.7364C128.485 15.7364 129.012 15.9707 129.012 16.6737L134.021 16.703C134.021 13.5982 131.297 11.1963 127.987 11.1963C124.443 11.1963 121.953 13.5982 121.953 16.5273C121.953 19.6907 124.179 21.0674 127.108 21.8289C128.046 22.0632 129.1 22.1804 129.1 22.9127C129.1 23.5278 128.778 23.7914 127.958 23.7914C127.313 23.7914 126.669 23.5278 126.64 22.8248H121.631C121.631 25.9589 124.414 28.3901 127.841 28.3901Z" fill="#515151"/>
<path d="M144.314 27.9507V23.2642H142.146V16.3222H144.314V11.6357H142.146V7.03699H137.138V11.6357H134.911V16.3222H137.138V27.9507H144.314Z" fill="#515151"/>
<path d="M151.895 27.9507V7.03699H146.915V27.9507H151.895Z" fill="#515151"/>
<path d="M162.757 28.3901C167.004 28.3901 170.343 25.9296 171.397 22.2976H165.861C165.334 23.3813 164.192 23.7035 162.815 23.7035C160.882 23.7035 159.33 23.0884 159.066 21.4188H171.661C171.69 21.0966 171.72 20.4815 171.72 20.13C171.72 15.1799 167.853 11.1963 162.757 11.1963C157.689 11.1963 153.794 14.9455 153.794 19.72C153.794 24.5237 157.689 28.3901 162.757 28.3901ZM159.242 18.0504C159.388 16.9666 160.648 15.8829 162.669 15.8829C164.69 15.8829 165.979 17.1424 166.184 18.0504H159.242Z" fill="#515151"/>
<path d="M12.739 26.9692C17.8356 26.9692 20.8819 23.63 21.8192 22.1362V13.8761H12.739V18.5627H16.869V20.9353C15.6974 22.019 14.5843 22.3412 12.739 22.3412C9.517 22.3412 6.88082 19.6465 6.88082 16.073C6.88082 12.4409 9.517 9.77541 12.739 9.77541C15.2287 9.77541 16.4882 10.4491 17.8063 11.7672L20.794 8.4866C19.0366 6.28978 15.7267 5.17673 12.739 5.17673C6.70508 5.17673 1.87207 10.0097 1.87207 16.073C1.87207 22.0776 6.70508 26.9692 12.739 26.9692Z" fill="#767676"/>
<path d="M31.0479 26.9692C35.2951 26.9692 38.2242 24.0108 38.2242 20.0858V10.2148H33.1861V20.408C33.1861 21.4625 32.6003 22.2826 31.0479 22.2826C29.6419 22.2826 28.8804 21.6089 28.8804 20.408V10.2148H23.8716V20.0858C23.8716 24.0108 26.83 26.9692 31.0479 26.9692Z" fill="#767676"/>
<path d="M43.5213 8.22299C45.0444 8.22299 46.3039 6.96348 46.3039 5.41106C46.3039 3.88793 45.0444 2.62842 43.5213 2.62842C41.9688 2.62842 40.7093 3.88793 40.7093 5.41106C40.7093 6.96348 41.9688 8.22299 43.5213 8.22299ZM46.011 26.4712V10.2148H40.9729V26.4712H46.011Z" fill="#767676"/>
<path d="M54.1482 26.5298V5.61609H49.1687V26.5298H54.1482Z" fill="#767676"/>
<path d="M63.4869 26.9692C65.6837 26.9692 67.6755 26.3541 69.1694 24.1865H69.3158V26.5298H74.2074V5.61609H69.1694V12.7338H69.0229C68.1149 11.0056 65.9767 9.77541 63.4869 9.77541C59.2397 9.77541 56.047 13.5832 56.047 18.3869C56.047 23.1614 59.2397 26.9692 63.4869 26.9692ZM64.9515 22.2826C62.6375 22.2826 61.4073 20.6716 61.4073 18.3869C61.4073 16.073 62.6375 14.462 64.9515 14.462C67.2362 14.462 68.5835 16.073 68.5835 18.3869C68.5835 20.6716 67.2362 22.2826 64.9515 22.2826Z" fill="#767676"/>
<path d="M92.5202 26.9692C95.5079 26.9692 98.2026 25.8268 100.136 23.8351L97.2067 20.6131C96.123 21.6675 94.6584 22.2533 92.5202 22.2533C89.2689 22.2533 86.8963 19.9101 86.8963 16.0437C86.8963 12.2651 89.2689 9.92186 92.5202 9.92186C94.7463 9.92186 96.2987 10.5956 97.3825 11.6793L100.312 8.4866C98.3491 6.43624 95.5372 5.17673 92.5202 5.17673C86.457 5.17673 81.6533 9.83399 81.6533 16.0437C81.6533 22.3998 86.457 26.9692 92.5202 26.9692Z" fill="#767676"/>
<path d="M107.532 26.9692C109.758 26.9692 111.457 26.3541 112.951 24.1865H113.097V26.5298H117.989V10.2148H113.097V12.7338H112.951C112.043 11.0056 110.051 9.77541 107.532 9.77541C103.021 9.77541 99.7992 13.5832 99.7992 18.3869C99.7992 23.1614 103.021 26.9692 107.532 26.9692ZM108.704 22.2826C106.419 22.2826 105.159 20.6716 105.159 18.3869C105.159 16.073 106.419 14.462 108.704 14.462C111.018 14.462 112.365 16.073 112.365 18.3869C112.365 20.6716 111.018 22.2826 108.704 22.2826Z" fill="#767676"/>
<path d="M126.137 26.9692C129.535 26.9692 132.318 24.5087 132.318 21.4039C132.318 17.4203 129.242 16.6588 127.28 16.1608C126.284 15.8972 125.259 15.7508 125.259 15.0478C125.259 14.5791 125.64 14.3155 126.284 14.3155C126.782 14.3155 127.309 14.5498 127.309 15.2528L132.318 15.2821C132.318 12.1773 129.594 9.77541 126.284 9.77541C122.74 9.77541 120.25 12.1773 120.25 15.1064C120.25 18.2698 122.476 19.6465 125.405 20.408C126.343 20.6423 127.397 20.7595 127.397 21.4918C127.397 22.1069 127.075 22.3705 126.255 22.3705C125.61 22.3705 124.966 22.1069 124.937 21.4039H119.928C119.928 24.538 122.71 26.9692 126.137 26.9692Z" fill="#767676"/>
<path d="M142.611 26.5298V21.8433H140.443V14.9013H142.611V10.2148H140.443V5.61609H135.434V10.2148H133.208V14.9013H135.434V26.5298H142.611Z" fill="#767676"/>
<path d="M150.192 26.5298V5.61609H145.212V26.5298H150.192Z" fill="#767676"/>
<path d="M161.053 26.9692C165.301 26.9692 168.64 24.5087 169.694 20.8767H164.158C163.631 21.9604 162.489 22.2826 161.112 22.2826C159.179 22.2826 157.626 21.6675 157.363 19.9979H169.958C169.987 19.6757 170.016 19.0606 170.016 18.7091C170.016 13.759 166.15 9.77541 161.053 9.77541C155.986 9.77541 152.09 13.5246 152.09 18.2991C152.09 23.1028 155.986 26.9692 161.053 26.9692ZM157.539 16.6295C157.685 15.5457 158.944 14.462 160.966 14.462C162.987 14.462 164.275 15.7215 164.48 16.6295H157.539Z" fill="#767676"/>
<path d="M11.0339 25.2656C16.1306 25.2656 19.1768 21.9264 20.1141 20.4326V12.1725H11.0339V16.8591H15.164V19.2316C13.9923 20.3154 12.8793 20.6376 11.0339 20.6376C7.81193 20.6376 5.17574 17.9428 5.17574 14.3693C5.17574 10.7373 7.81193 8.07179 11.0339 8.07179C13.5237 8.07179 14.7832 8.74549 16.1013 10.0636L19.0889 6.78299C17.3315 4.58617 14.0216 3.47312 11.0339 3.47312C5 3.47312 0.166992 8.30612 0.166992 14.3693C0.166992 20.374 5 25.2656 11.0339 25.2656Z" fill="white"/>
<path d="M29.3428 25.2656C33.59 25.2656 36.5191 22.3072 36.5191 18.3822V8.51116H31.4811V18.7044C31.4811 19.7589 30.8952 20.579 29.3428 20.579C27.9369 20.579 27.1753 19.9053 27.1753 18.7044V8.51116H22.1665V18.3822C22.1665 22.3072 25.1249 25.2656 29.3428 25.2656Z" fill="white"/>
<path d="M41.8162 6.51937C43.3393 6.51937 44.5988 5.25986 44.5988 3.70744C44.5988 2.18431 43.3393 0.924805 41.8162 0.924805C40.2638 0.924805 39.0043 2.18431 39.0043 3.70744C39.0043 5.25986 40.2638 6.51937 41.8162 6.51937ZM44.3059 24.7676V8.51116H39.2679V24.7676H44.3059Z" fill="white"/>
<path d="M52.4431 24.8262V3.91248H47.4636V24.8262H52.4431Z" fill="white"/>
<path d="M61.7818 25.2656C63.9787 25.2656 65.9704 24.6505 67.4643 22.4829H67.6107V24.8262H72.5023V3.91248H67.4643V11.0302H67.3178C66.4098 9.30201 64.2716 8.07179 61.7818 8.07179C57.5347 8.07179 54.3419 11.8796 54.3419 16.6833C54.3419 21.4578 57.5347 25.2656 61.7818 25.2656ZM63.2464 20.579C60.9324 20.579 59.7022 18.968 59.7022 16.6833C59.7022 14.3693 60.9324 12.7583 63.2464 12.7583C65.5311 12.7583 66.8785 14.3693 66.8785 16.6833C66.8785 18.968 65.5311 20.579 63.2464 20.579Z" fill="white"/>
<path d="M90.8151 25.2656C93.8028 25.2656 96.4976 24.1232 98.4308 22.1314L95.5017 18.9094C94.4179 19.9639 92.9534 20.5497 90.8151 20.5497C87.5638 20.5497 85.1913 18.2065 85.1913 14.3401C85.1913 10.5615 87.5638 8.21825 90.8151 8.21825C93.0412 8.21825 94.5936 8.89194 95.6774 9.9757L98.6065 6.78299C96.644 4.73263 93.8321 3.47312 90.8151 3.47312C84.7519 3.47312 79.9482 8.13037 79.9482 14.3401C79.9482 20.6962 84.7519 25.2656 90.8151 25.2656Z" fill="white"/>
<path d="M105.827 25.2656C108.053 25.2656 109.752 24.6505 111.246 22.4829H111.392V24.8262H116.284V8.51116H111.392V11.0302H111.246C110.338 9.30201 108.346 8.07179 105.827 8.07179C101.316 8.07179 98.0941 11.8796 98.0941 16.6833C98.0941 21.4578 101.316 25.2656 105.827 25.2656ZM106.999 20.579C104.714 20.579 103.454 18.968 103.454 16.6833C103.454 14.3693 104.714 12.7583 106.999 12.7583C109.313 12.7583 110.66 14.3693 110.66 16.6833C110.66 18.968 109.313 20.579 106.999 20.579Z" fill="white"/>
<path d="M124.432 25.2656C127.83 25.2656 130.613 22.8051 130.613 19.7003C130.613 15.7167 127.537 14.9552 125.575 14.4572C124.579 14.1936 123.554 14.0471 123.554 13.3442C123.554 12.8755 123.934 12.6119 124.579 12.6119C125.077 12.6119 125.604 12.8462 125.604 13.5492L130.613 13.5785C130.613 10.4736 127.889 8.07179 124.579 8.07179C121.035 8.07179 118.545 10.4736 118.545 13.4027C118.545 16.5662 120.771 17.9428 123.7 18.7044C124.637 18.9387 125.692 19.0559 125.692 19.7882C125.692 20.4033 125.37 20.6669 124.55 20.6669C123.905 20.6669 123.261 20.4033 123.231 19.7003H118.223C118.223 22.8344 121.005 25.2656 124.432 25.2656Z" fill="white"/>
<path d="M140.906 24.8262V20.1397H138.738V13.1977H140.906V8.51116H138.738V3.91248H133.729V8.51116H131.503V13.1977H133.729V24.8262H140.906Z" fill="white"/>
<path d="M148.486 24.8262V3.91248H143.507V24.8262H148.486Z" fill="white"/>
<path d="M159.348 25.2656C163.596 25.2656 166.935 22.8051 167.989 19.1731H162.453C161.926 20.2568 160.784 20.579 159.407 20.579C157.474 20.579 155.921 19.9639 155.658 18.2943H168.253C168.282 17.9721 168.311 17.357 168.311 17.0055C168.311 12.0554 164.445 8.07179 159.348 8.07179C154.281 8.07179 150.385 11.821 150.385 16.5955C150.385 21.3992 154.281 25.2656 159.348 25.2656ZM155.833 14.9259C155.98 13.8421 157.239 12.7583 159.26 12.7583C161.282 12.7583 162.57 14.0179 162.775 14.9259H155.833Z" fill="white"/>
<path fill-rule="evenodd" clip-rule="evenodd" d="M123.793 94.3734H117.798V88.3789H111.804V82.3843H105.809V76.3897H99.8147V58.4061H93.8202V52.4115V46.4169L87.8256 88.3789H93.8202V94.3734H99.8147V124.346H129.788V82.3843H123.793V94.3734ZM111.804 103.365V109.36H117.798V103.365H111.804Z" fill="#515151"/>
<path d="M75.8365 52.4115H81.8311V49.4142V46.4169H75.8365V52.4115Z" fill="#515151"/>
<path d="M87.8256 49.4142L87.8256 40.4224H81.8311V46.4169L87.8256 49.4142Z" fill="#515151"/>
<path d="M93.8202 46.4169V40.4224H87.8256L87.8256 49.4142L93.8202 46.4169Z" fill="#515151"/>
<path d="M93.8202 52.4115H99.8147V46.4169H93.8202V49.4142V52.4115Z" fill="#515151"/>
<path fill-rule="evenodd" clip-rule="evenodd" d="M87.8256 88.3789L93.8202 46.4169L81.8311 52.4115V58.4061H75.8365V76.3897H69.8419V82.3843H63.8474V88.3789H57.8528V94.3734H46.5297V83.0504H40.5352V123.68L75.8365 124.346V94.3734H81.8311V88.3789H87.8256ZM63.8474 103.365V109.36H57.8528V103.365H63.8474Z" fill="#515151"/>
<path fill-rule="evenodd" clip-rule="evenodd" d="M120.514 95.6075H114.298V89.3909H108.081V83.1743H101.865V76.9577H95.648V58.308H89.4314V52.0914V45.8748L83.2148 89.3909H89.4314V95.6075H95.648V126.69H126.731V83.1743H120.514V95.6075ZM108.081 104.932V111.149H114.298V104.932H108.081Z" fill="#767676"/>
<path d="M69.0055 51.4253L81.8827 51.8694V44.3206H69.0055V51.4253Z" fill="#767676"/>
<path d="M80.8001 47.115L83.2148 39.6582H76.9983L81.8827 44.3206L80.8001 47.115Z" fill="#767676"/>
<path d="M89.4314 45.8748V39.6582H83.2148L80.8001 47.115L89.4314 45.8748Z" fill="#767676"/>
<path d="M89.4314 52.0914H95.648V45.8748H89.4314V52.0914Z" fill="#767676"/>
<path fill-rule="evenodd" clip-rule="evenodd" d="M83.2148 89.3909L89.4314 45.8748L81.8827 45.6528V51.8694L76.9983 58.308H70.7817V76.9577H64.5651V83.1743H58.3485V89.3909H52.1319V95.6075H42.8071V83.1743H36.8125V126.024L70.7817 126.69V95.6075H76.9983V89.3909H83.2148ZM58.3485 104.932V111.149H52.1319V104.932H58.3485Z" fill="#767676"/>
<path d="M69.9615 41H83.0385M83.0385 47.5385H89.5769M63.4231 47.5385H69.9615M69.9615 54.0769H79.7692M83.0385 54.0769H79.7692M79.7692 54.0769V60.6154H89.5769H66.6923M63.4231 60.6154H66.6923M66.6923 60.6154V67.1538H86.3077V73.6923H66.6923V80.2308H60.1538V86.7692H53.6154V93.3077M53.6154 93.3077H47.0769V99.8462M53.6154 93.3077H66.6923V86.7692H73.2308M47.0769 99.8462H34V83.5V126H60.1538V122.731M47.0769 99.8462H60.1538V119.462M60.1538 119.462H40.5385V106.385H53.6154V122.731H60.1538M60.1538 119.462V122.731M73.2308 86.7692V80.2308H92.8462V86.7692H99.3846V93.3077H105.923V99.8462M73.2308 86.7692H86.3077V93.3077H92.8462V99.8462M105.923 99.8462H119V83.5V126H92.8462V119.462H112.462V106.385H99.3846V112.923H92.8462V99.8462M105.923 99.8462H92.8462" stroke="white" stroke-width="6.53846"/>
</svg>
