<svg width="157" height="135" viewBox="0 0 157 135" fill="none" xmlns="http://www.w3.org/2000/svg">
<path d="M11.2286 25.0158C16.3111 25.0158 19.349 21.6859 20.2837 20.1962V11.9589H11.2286V16.6325H15.3472V18.9985C14.1788 20.0793 13.0688 20.4006 11.2286 20.4006C8.01545 20.4006 5.38654 17.7133 5.38654 14.1497C5.38654 10.5276 8.01545 7.86947 11.2286 7.86947C13.7114 7.86947 14.9675 8.5413 16.2819 9.85576L19.2614 6.58422C17.5088 4.39346 14.208 3.28347 11.2286 3.28347C5.21128 3.28347 0.391602 8.10315 0.391602 14.1497C0.391602 20.1377 5.21128 25.0158 11.2286 25.0158Z" fill="#515151"/>
<path d="M29.487 25.0158C33.7224 25.0158 36.6435 22.0656 36.6435 18.1514V8.30762H31.6193V18.4728C31.6193 19.5243 31.0351 20.3422 29.487 20.3422C28.0849 20.3422 27.3254 19.6704 27.3254 18.4728V8.30762H22.3305V18.1514C22.3305 22.0656 25.2807 25.0158 29.487 25.0158Z" fill="#515151"/>
<path d="M41.9259 6.32133C43.4449 6.32133 44.7009 5.06529 44.7009 3.51715C44.7009 1.99822 43.4449 0.742188 41.9259 0.742188C40.3778 0.742188 39.1218 1.99822 39.1218 3.51715C39.1218 5.06529 40.3778 6.32133 41.9259 6.32133ZM44.4088 24.5193V8.30762H39.3847V24.5193H44.4088Z" fill="#515151"/>
<path d="M52.5235 24.5777V3.72162H47.5578V24.5777H52.5235Z" fill="#515151"/>
<path d="M61.8365 25.0158C64.0273 25.0158 66.0136 24.4024 67.5033 22.2409H67.6494V24.5777H72.5275V3.72162H67.5033V10.8197H67.3573C66.4517 9.09629 64.3194 7.86947 61.8365 7.86947C57.6011 7.86947 54.4172 11.6668 54.4172 16.4573C54.4172 21.2185 57.6011 25.0158 61.8365 25.0158ZM63.297 20.3422C60.9894 20.3422 59.7626 18.7356 59.7626 16.4573C59.7626 14.1497 60.9894 12.5431 63.297 12.5431C65.5754 12.5431 66.9191 14.1497 66.9191 16.4573C66.9191 18.7356 65.5754 20.3422 63.297 20.3422Z" fill="#515151"/>
<path d="M88.599 24.5777C94.3534 24.5777 98.9978 19.8748 98.9978 14.1497C98.9978 8.36604 94.3534 3.69241 88.599 3.69241H81.5301V24.5777H88.599ZM86.4666 8.33683H88.599C91.5492 8.33683 94.0029 10.7905 94.0029 14.1497C94.0029 17.4504 91.5492 19.9041 88.599 19.9041H86.4666V8.33683Z" fill="#515151"/>
<path d="M107.793 25.0158C112.028 25.0158 114.95 22.0656 114.95 18.1514V8.30762H109.925V18.4728C109.925 19.5243 109.341 20.3422 107.793 20.3422C106.391 20.3422 105.631 19.6704 105.631 18.4728V8.30762H100.637V18.1514C100.637 22.0656 103.587 25.0158 107.793 25.0158Z" fill="#515151"/>
<path d="M123.825 25.0158C126.016 25.0158 128.002 24.4024 129.492 22.2409H129.638V24.5777H134.516V3.72162H129.492V10.8197H129.346C128.44 9.09629 126.308 7.86947 123.825 7.86947C119.589 7.86947 116.405 11.6668 116.405 16.4573C116.405 21.2185 119.589 25.0158 123.825 25.0158ZM125.285 20.3422C122.978 20.3422 121.751 18.7356 121.751 16.4573C121.751 14.1497 122.978 12.5431 125.285 12.5431C127.564 12.5431 128.907 14.1497 128.907 16.4573C128.907 18.7356 127.564 20.3422 125.285 20.3422Z" fill="#515151"/>
<path d="M145.326 25.0158C149.562 25.0158 152.892 22.5622 153.943 18.9401H148.423C147.897 20.0209 146.758 20.3422 145.385 20.3422C143.457 20.3422 141.909 19.7288 141.646 18.0638H154.206C154.236 17.7425 154.265 17.1291 154.265 16.7786C154.265 11.842 150.409 7.86947 145.326 7.86947C140.273 7.86947 136.388 11.6084 136.388 16.3696C136.388 21.1601 140.273 25.0158 145.326 25.0158ZM141.821 14.7046C141.967 13.6239 143.223 12.5431 145.239 12.5431C147.254 12.5431 148.54 13.7991 148.744 14.7046H141.821Z" fill="#515151"/>
<path d="M12.3633 26.9992C17.4459 26.9992 20.4838 23.6693 21.4185 22.1796V13.9423H12.3633V18.6159H16.482V20.9819C15.3136 22.0627 14.2036 22.384 12.3633 22.384C9.15022 22.384 6.5213 19.6967 6.5213 16.133C6.5213 12.511 9.15022 9.85286 12.3633 9.85286C14.8462 9.85286 16.1022 10.5247 17.4167 11.8392L20.3961 8.56762C18.6435 6.37686 15.3428 5.26687 12.3633 5.26687C6.34604 5.26687 1.52637 10.0865 1.52637 16.133C1.52637 22.1211 6.34604 26.9992 12.3633 26.9992Z" fill="#767676"/>
<path d="M30.6217 26.9992C34.8572 26.9992 37.7782 24.049 37.7782 20.1348V10.291H32.7541V20.4562C32.7541 21.5077 32.1699 22.3256 30.6217 22.3256C29.2196 22.3256 28.4602 21.6538 28.4602 20.4562V10.291H23.4652V20.1348C23.4652 24.049 26.4155 26.9992 30.6217 26.9992Z" fill="#767676"/>
<path d="M43.0607 8.30473C44.5796 8.30473 45.8357 7.04869 45.8357 5.50055C45.8357 3.98162 44.5796 2.72559 43.0607 2.72559C41.5126 2.72559 40.2565 3.98162 40.2565 5.50055C40.2565 7.04869 41.5126 8.30473 43.0607 8.30473ZM45.5436 26.5027V10.291H40.5194V26.5027H45.5436Z" fill="#767676"/>
<path d="M53.6583 26.5611V5.70502H48.6926V26.5611H53.6583Z" fill="#767676"/>
<path d="M62.9713 26.9992C65.1621 26.9992 67.1484 26.3858 68.6381 24.2243H68.7841V26.5611H73.6622V5.70502H68.6381V12.8031H68.492C67.5865 11.0797 65.4542 9.85286 62.9713 9.85286C58.7358 9.85286 55.5519 13.6502 55.5519 18.4407C55.5519 23.2019 58.7358 26.9992 62.9713 26.9992ZM64.4318 22.3256C62.1242 22.3256 60.8974 20.719 60.8974 18.4407C60.8974 16.133 62.1242 14.5265 64.4318 14.5265C66.7102 14.5265 68.0539 16.133 68.0539 18.4407C68.0539 20.719 66.7102 22.3256 64.4318 22.3256Z" fill="#767676"/>
<path d="M89.7337 26.5611C95.4881 26.5611 100.133 21.8582 100.133 16.133C100.133 10.3494 95.4881 5.67581 89.7337 5.67581H82.6649V26.5611H89.7337ZM87.6014 10.3202H89.7337C92.684 10.3202 95.1376 12.7739 95.1376 16.133C95.1376 19.4338 92.684 21.8874 89.7337 21.8874H87.6014V10.3202Z" fill="#767676"/>
<path d="M108.928 26.9992C113.163 26.9992 116.084 24.049 116.084 20.1348V10.291H111.06V20.4562C111.06 21.5077 110.476 22.3256 108.928 22.3256C107.526 22.3256 106.766 21.6538 106.766 20.4562V10.291H101.771V20.1348C101.771 24.049 104.722 26.9992 108.928 26.9992Z" fill="#767676"/>
<path d="M124.96 26.9992C127.15 26.9992 129.137 26.3858 130.626 24.2243H130.772V26.5611H135.651V5.70502H130.626V12.8031H130.48C129.575 11.0797 127.442 9.85286 124.96 9.85286C120.724 9.85286 117.54 13.6502 117.54 18.4407C117.54 23.2019 120.724 26.9992 124.96 26.9992ZM126.42 22.3256C124.113 22.3256 122.886 20.719 122.886 18.4407C122.886 16.133 124.113 14.5265 126.42 14.5265C128.698 14.5265 130.042 16.133 130.042 18.4407C130.042 20.719 128.698 22.3256 126.42 22.3256Z" fill="#767676"/>
<path d="M146.461 26.9992C150.697 26.9992 154.027 24.5456 155.078 20.9235H149.558C149.032 22.0043 147.893 22.3256 146.52 22.3256C144.592 22.3256 143.044 21.7122 142.781 20.0472H155.341C155.37 19.7259 155.4 19.1125 155.4 18.762C155.4 13.8254 151.544 9.85286 146.461 9.85286C141.408 9.85286 137.523 13.5918 137.523 18.353C137.523 23.1435 141.408 26.9992 146.461 26.9992ZM142.956 16.688C143.102 15.6073 144.358 14.5265 146.374 14.5265C148.389 14.5265 149.674 15.7825 149.879 16.688H142.956Z" fill="#767676"/>
<path d="M13.7794 29.2653C18.8619 29.2653 21.8998 25.9354 22.8345 24.4457V16.2084H13.7794V20.882H17.898V23.248C16.7296 24.3288 15.6196 24.6501 13.7794 24.6501C10.5662 24.6501 7.93732 21.9628 7.93732 18.3992C7.93732 14.7771 10.5662 12.119 13.7794 12.119C16.2622 12.119 17.5183 12.7908 18.8327 14.1053L21.8121 10.8337C20.0595 8.64297 16.7588 7.53298 13.7794 7.53298C7.76206 7.53298 2.94238 12.3527 2.94238 18.3992C2.94238 24.3872 7.76206 29.2653 13.7794 29.2653Z" fill="white"/>
<path d="M32.0378 29.2653C36.2732 29.2653 39.1942 26.3151 39.1942 22.401V12.5571H34.1701V22.7223C34.1701 23.7738 33.5859 24.5917 32.0378 24.5917C30.6357 24.5917 29.8762 23.9199 29.8762 22.7223V12.5571H24.8813V22.401C24.8813 26.3151 27.8315 29.2653 32.0378 29.2653Z" fill="white"/>
<path d="M44.4767 10.5708C45.9956 10.5708 47.2517 9.3148 47.2517 7.76666C47.2517 6.24774 45.9956 4.9917 44.4767 4.9917C42.9286 4.9917 41.6725 6.24774 41.6725 7.76666C41.6725 9.3148 42.9286 10.5708 44.4767 10.5708ZM46.9596 28.7688V12.5571H41.9354V28.7688H46.9596Z" fill="white"/>
<path d="M55.0743 28.8272V7.97114H50.1086V28.8272H55.0743Z" fill="white"/>
<path d="M64.3873 29.2653C66.5781 29.2653 68.5644 28.6519 70.0541 26.4904H70.2001V28.8272H75.0782V7.97114H70.0541V15.0692H69.908C69.0025 13.3458 66.8702 12.119 64.3873 12.119C60.1518 12.119 56.9679 15.9163 56.9679 20.7068C56.9679 25.468 60.1518 29.2653 64.3873 29.2653ZM65.8478 24.5917C63.5402 24.5917 62.3134 22.9852 62.3134 20.7068C62.3134 18.3992 63.5402 16.7926 65.8478 16.7926C68.1262 16.7926 69.4699 18.3992 69.4699 20.7068C69.4699 22.9852 68.1262 24.5917 65.8478 24.5917Z" fill="white"/>
<path d="M91.1498 28.8272C96.9042 28.8272 101.549 24.1244 101.549 18.3992C101.549 12.6156 96.9042 7.94193 91.1498 7.94193H84.0809V28.8272H91.1498ZM89.0174 12.5863H91.1498C94.1 12.5863 96.5536 15.04 96.5536 18.3992C96.5536 21.6999 94.1 24.1536 91.1498 24.1536H89.0174V12.5863Z" fill="white"/>
<path d="M110.344 29.2653C114.579 29.2653 117.5 26.3151 117.5 22.401V12.5571H112.476V22.7223C112.476 23.7738 111.892 24.5917 110.344 24.5917C108.942 24.5917 108.182 23.9199 108.182 22.7223V12.5571H103.187V22.401C103.187 26.3151 106.138 29.2653 110.344 29.2653Z" fill="white"/>
<path d="M126.376 29.2653C128.566 29.2653 130.553 28.6519 132.042 26.4904H132.188V28.8272H137.067V7.97114H132.042V15.0692H131.896C130.991 13.3458 128.858 12.119 126.376 12.119C122.14 12.119 118.956 15.9163 118.956 20.7068C118.956 25.468 122.14 29.2653 126.376 29.2653ZM127.836 24.5917C125.529 24.5917 124.302 22.9852 124.302 20.7068C124.302 18.3992 125.529 16.7926 127.836 16.7926C130.115 16.7926 131.458 18.3992 131.458 20.7068C131.458 22.9852 130.115 24.5917 127.836 24.5917Z" fill="white"/>
<path d="M147.877 29.2653C152.113 29.2653 155.443 26.8117 156.494 23.1896H150.974C150.448 24.2704 149.309 24.5917 147.936 24.5917C146.008 24.5917 144.46 23.9783 144.197 22.3133H156.757C156.786 21.992 156.816 21.3786 156.816 21.0281C156.816 16.0916 152.96 12.119 147.877 12.119C142.824 12.119 138.939 15.8579 138.939 20.6191C138.939 25.4096 142.824 29.2653 147.877 29.2653ZM144.372 18.9542C144.518 17.8734 145.774 16.7926 147.79 16.7926C149.805 16.7926 151.09 18.0486 151.295 18.9542H144.372Z" fill="white"/>
<path fill-rule="evenodd" clip-rule="evenodd" d="M107.033 49.5434L100.598 49.0871L100.805 50.9553H50.9782V55.5865H44.7498V46.4206H50.9782V41.6929H107.033V49.5434ZM44.7498 69.4801H50.9782V55.5865H88.3483V60.2177H94.5767V83.3737H44.7498V74.1113H38.5215V64.8489H44.7498V69.4801ZM63.4349 65.3313H57.2065V70.059H63.4349V65.3313ZM88.3483 65.3313H82.12V70.059H69.6633V74.7867H82.12V70.059H88.3483V65.3313ZM44.7498 88.0049H57.2065V92.6361H88.3483V88.0049H94.5767V97.2673H88.3483V101.898H57.2065V115.792H50.9782V106.53H44.7498V88.0049ZM94.5767 101.898L98.603 98.4281L100.805 97.2673H94.5767V101.898ZM94.5767 106.53H88.3483V101.898H94.5767V106.53ZM94.5767 106.53V115.792H100.805V106.53H94.5767Z" fill="#515151"/>
<path fill-rule="evenodd" clip-rule="evenodd" d="M112.256 54.9639L105.636 54.3555V55.4928L56.4713 59.1853L52.6756 60.4152H46.0556V50.6729H52.6756V45.6479H112.256V54.9639ZM46.0556 75.1825H52.6756V60.4152H94.6497V65.3376H99.0156V89.9497H46.0556V80.1049H39.4355V70.26H46.0556V75.1825ZM65.9156 70.7728H59.2956V75.7978H65.9156V70.7728ZM92.3956 70.7728H85.7756V75.7978H72.5356V80.8227H85.7756V75.7978H92.3956V70.7728ZM46.0556 94.8721H59.2956V97.9721L92.3956 98.2763V94.8721H99.0156V104.717V111.053L92.3956 109.639H59.2956V124.407H52.6756V114.562H46.0556V94.8721ZM99.0156 109.639H105.636V104.717H99.0156V109.639ZM98.4524 114.562H92.3956V109.639H99.0156L98.4524 114.562ZM98.4524 114.562V124.407L105.601 120.242V115.008L98.4524 114.562Z" fill="#767676"/>
<path fill-rule="evenodd" clip-rule="evenodd" d="M119.745 55.7854H112.64V60.958H55.8039V66.2408H48.6993V55.7854H55.8039V50.3926H119.745V55.7854ZM48.6993 82.0889H55.8039V66.2408H98.4313V71.5235H105.536V97.9371H48.6993V87.3717H41.5947V76.8062H48.6993V82.0889ZM70.013 77.3565H62.9084V82.7493H70.013V77.3565ZM98.4313 77.3565H91.3267V82.7493H77.1176V88.1421H91.3267V82.7493H98.4313V77.3565ZM48.6993 103.22H62.9084V108.503H98.4313V103.22H105.536V113.785H98.4313V119.068H62.9084V134.916H55.8039V124.351H48.6993V103.22ZM105.536 119.068H112.64V113.785H105.536V119.068ZM105.536 124.351H98.4313V119.068H105.536V124.351ZM105.536 124.351V134.916H112.64V124.351H105.536Z" fill="white"/>
</svg>
