<svg width="131" height="132" viewBox="0 0 131 132" fill="none" xmlns="http://www.w3.org/2000/svg">
<path d="M10.9715 25.1722C16.0695 25.1722 19.1166 21.8321 20.0542 20.3378V12.0755H10.9715V16.7633H15.1026V19.1366C13.9307 20.2206 12.8173 20.5429 10.9715 20.5429C7.74859 20.5429 5.11169 17.8474 5.11169 14.2729C5.11169 10.6399 7.74859 7.97366 10.9715 7.97366C13.4619 7.97366 14.7217 8.64753 16.0402 9.96599L19.0287 6.6845C17.2708 4.48708 13.96 3.37372 10.9715 3.37372C4.93589 3.37372 0.101562 8.20805 0.101562 14.2729C0.101562 20.2792 4.93589 25.1722 10.9715 25.1722Z" fill="#515151"/>
<path d="M29.2854 25.1722C33.5337 25.1722 36.4636 22.213 36.4636 18.2869V8.41314H31.4242V18.6092C31.4242 19.6639 30.8382 20.4843 29.2854 20.4843C27.879 20.4843 27.1173 19.8104 27.1173 18.6092V8.41314H22.1071V18.2869C22.1071 22.213 25.0663 25.1722 29.2854 25.1722Z" fill="#515151"/>
<path d="M41.7622 6.42081C43.2857 6.42081 44.5456 5.16096 44.5456 3.60811C44.5456 2.08456 43.2857 0.824707 41.7622 0.824707C40.2093 0.824707 38.9495 2.08456 38.9495 3.60811C38.9495 5.16096 40.2093 6.42081 41.7622 6.42081ZM44.2526 24.6741V8.41314H39.2132V24.6741H44.2526Z" fill="#515151"/>
<path d="M52.392 24.7327V3.8132H47.4112V24.7327H52.392Z" fill="#515151"/>
<path d="M61.7333 25.1722C63.9307 25.1722 65.9231 24.5569 67.4173 22.3888H67.5638V24.7327H72.4567V3.8132H67.4173V10.9329H67.2708C66.3626 9.20421 64.2237 7.97366 61.7333 7.97366C57.485 7.97366 54.2914 11.7825 54.2914 16.5876C54.2914 21.3633 57.485 25.1722 61.7333 25.1722ZM63.1983 20.4843C60.8837 20.4843 59.6531 18.8729 59.6531 16.5876C59.6531 14.2729 60.8837 12.6615 63.1983 12.6615C65.4836 12.6615 66.8313 14.2729 66.8313 16.5876C66.8313 18.8729 65.4836 20.4843 63.1983 20.4843Z" fill="#515151"/>
<path d="M86.4676 24.7327V16.5876H93.4115V11.8997H86.4676V8.44244H95.0522V3.8132H81.4868V24.7327H86.4676Z" fill="#515151"/>
<path d="M103.695 25.1722C108.471 25.1722 112.368 21.3047 112.368 16.5876C112.368 11.7825 108.471 8.00296 103.695 8.00296C98.9194 8.00296 95.0227 11.7825 95.0227 16.5876C95.0227 21.3047 98.9194 25.1722 103.695 25.1722ZM103.695 20.455C101.674 20.455 100.062 19.1073 100.062 16.5876C100.062 13.9799 101.674 12.7201 103.695 12.7201C105.717 12.7201 107.358 13.9799 107.358 16.5876C107.358 19.1073 105.717 20.455 103.695 20.455Z" fill="#515151"/>
<path d="M117.332 24.7327L119.822 20.5722L122.342 24.7327H128.289L122.576 16.3532L128.055 8.41314H122.049L119.822 12.222L117.595 8.41314H111.589L117.068 16.3532L111.355 24.7327H117.332Z" fill="#515151"/>
<path d="M12.1072 27.1614C17.2052 27.1614 20.2523 23.8213 21.1899 22.3271V14.0648H12.1072V18.7526H16.2384V21.1258C15.0664 22.2099 13.9531 22.5322 12.1072 22.5322C8.88434 22.5322 6.24743 19.8367 6.24743 16.2622C6.24743 12.6291 8.88434 9.96291 12.1072 9.96291C14.5976 9.96291 15.8575 10.6368 17.1759 11.9552L20.1644 8.67376C18.4065 6.47634 15.0957 5.36298 12.1072 5.36298C6.07164 5.36298 1.2373 10.1973 1.2373 16.2622C1.2373 22.2685 6.07164 27.1614 12.1072 27.1614Z" fill="#767676"/>
<path d="M30.4211 27.1614C34.6695 27.1614 37.5994 24.2022 37.5994 20.2762V10.4024H32.56V20.5984C32.56 21.6532 31.974 22.4736 30.4211 22.4736C29.0148 22.4736 28.253 21.7997 28.253 20.5984V10.4024H23.2429V20.2762C23.2429 24.2022 26.2021 27.1614 30.4211 27.1614Z" fill="#767676"/>
<path d="M42.8979 8.41007C44.4215 8.41007 45.6813 7.15021 45.6813 5.59737C45.6813 4.07382 44.4215 2.81396 42.8979 2.81396C41.3451 2.81396 40.0852 4.07382 40.0852 5.59737C40.0852 7.15021 41.3451 8.41007 42.8979 8.41007ZM45.3883 26.6633V10.4024H40.3489V26.6633H45.3883Z" fill="#767676"/>
<path d="M53.5277 26.7219V5.80246H48.5469V26.7219H53.5277Z" fill="#767676"/>
<path d="M62.8691 27.1614C65.0665 27.1614 67.0588 26.5461 68.5531 24.378H68.6996V26.7219H73.5925V5.80246H68.5531V12.9221H68.4066C67.4983 11.1935 65.3595 9.96291 62.8691 9.96291C58.6207 9.96291 55.4271 13.7718 55.4271 18.5768C55.4271 23.3525 58.6207 27.1614 62.8691 27.1614ZM64.334 22.4736C62.0194 22.4736 60.7888 20.8621 60.7888 18.5768C60.7888 16.2622 62.0194 14.6507 64.334 14.6507C66.6193 14.6507 67.9671 16.2622 67.9671 18.5768C67.9671 20.8621 66.6193 22.4736 64.334 22.4736Z" fill="#767676"/>
<path d="M87.6033 26.7219V18.5768H94.5472V13.889H87.6033V10.4317H96.1879V5.80246H82.6225V26.7219H87.6033Z" fill="#767676"/>
<path d="M104.831 27.1614C109.607 27.1614 113.503 23.2939 113.503 18.5768C113.503 13.7718 109.607 9.99221 104.831 9.99221C100.055 9.99221 96.1584 13.7718 96.1584 18.5768C96.1584 23.2939 100.055 27.1614 104.831 27.1614ZM104.831 22.4443C102.809 22.4443 101.198 21.0965 101.198 18.5768C101.198 15.9692 102.809 14.7093 104.831 14.7093C106.853 14.7093 108.493 15.9692 108.493 18.5768C108.493 21.0965 106.853 22.4443 104.831 22.4443Z" fill="#767676"/>
<path d="M118.467 26.7219L120.958 22.5615L123.477 26.7219H129.425L123.712 18.3424L129.191 10.4024H123.184L120.958 14.2113L118.731 10.4024H112.725L118.204 18.3424L112.49 26.7219H118.467Z" fill="#767676"/>
<path fill-rule="evenodd" clip-rule="evenodd" d="M53.2131 38.4863V44.767H59.4339V57.3284H71.8757V38.4863H78.0965V44.767H84.3174V106.916H96.7591V113.137H84.3174V119.358H71.8757V125.578H65.6548V119.358H53.2131V125.578H46.9922V119.358H34.5505V89.6188L60.0408 90.3775L59.4339 88.2533H9.66699V82.0324H15.8879V75.8115H34.5505V63.3698H40.7713V57.3284H46.9922V38.4863H53.2131ZM46.9922 69.5907L50.9371 71.8666L53.2131 75.8115V69.5907H46.9922ZM59.4339 69.5907L63.0754 71.8666L65.6548 75.8115V69.5907H59.4339ZM96.7591 94.4741H102.98V106.916H96.7591V94.4741ZM96.7591 94.4741V88.2533H90.5382V94.4741H96.7591Z" fill="#515151"/>
<path fill-rule="evenodd" clip-rule="evenodd" d="M55.924 40.895V47.1757H62.1449V59.7371H74.5866V40.895H80.8075V47.1757H87.0283V109.325H99.4701V115.545H87.0283V121.766H74.5866V127.987H68.3657V121.766H55.924V127.987H49.7031V121.766H37.2614V92.0275L62.7518 92.7861L62.1449 90.6619H12.3779V84.4411H18.5988V78.2202H37.2614V65.7785H43.4823V59.7371H49.7031V40.895H55.924ZM49.7031 71.9993L53.6481 74.2753L55.924 74.8822V71.9993H49.7031ZM62.1449 71.9993L65.7863 74.2753H68.3657V71.9993H62.1449ZM99.4701 96.8828H105.691V109.325H99.4701V96.8828ZM99.4701 96.8828V90.6619H93.2492V96.8828H99.4701Z" fill="#767676"/>
<path d="M13.2449 29.4344C18.3429 29.4344 21.39 26.0943 22.3276 24.6V16.3377H13.2449V21.0256H17.3761V23.3988C16.2041 24.4828 15.0908 24.8051 13.2449 24.8051C10.022 24.8051 7.38512 22.1096 7.38512 18.5351C7.38512 14.9021 10.022 12.2359 13.2449 12.2359C15.7353 12.2359 16.9952 12.9097 18.3136 14.2282L21.3021 10.9467C19.5442 8.74929 16.2334 7.63592 13.2449 7.63592C7.20933 7.63592 2.375 12.4703 2.375 18.5351C2.375 24.5414 7.20933 29.4344 13.2449 29.4344Z" fill="white"/>
<path d="M31.5588 29.4344C35.8072 29.4344 38.7371 26.4752 38.7371 22.5491V12.6753H33.6977V22.8714C33.6977 23.9262 33.1117 24.7465 31.5588 24.7465C30.1525 24.7465 29.3907 24.0726 29.3907 22.8714V12.6753H24.3806V22.5491C24.3806 26.4752 27.3398 29.4344 31.5588 29.4344Z" fill="white"/>
<path d="M44.0356 10.683C45.5592 10.683 46.819 9.42316 46.819 7.87032C46.819 6.34677 45.5592 5.08691 44.0356 5.08691C42.4828 5.08691 41.2229 6.34677 41.2229 7.87032C41.2229 9.42316 42.4828 10.683 44.0356 10.683ZM46.526 28.9363V12.6753H41.4866V28.9363H46.526Z" fill="white"/>
<path d="M54.6654 28.9949V8.07541H49.6846V28.9949H54.6654Z" fill="white"/>
<path d="M64.0068 29.4344C66.2042 29.4344 68.1965 28.8191 69.6908 26.651H69.8373V28.9949H74.7302V8.07541H69.6908V15.1951H69.5443C68.636 13.4664 66.4972 12.2359 64.0068 12.2359C59.7584 12.2359 56.5648 16.0447 56.5648 20.8498C56.5648 25.6255 59.7584 29.4344 64.0068 29.4344ZM65.4717 24.7465C63.1571 24.7465 61.9265 23.1351 61.9265 20.8498C61.9265 18.5351 63.1571 16.9237 65.4717 16.9237C67.757 16.9237 69.1048 18.5351 69.1048 20.8498C69.1048 23.1351 67.757 24.7465 65.4717 24.7465Z" fill="white"/>
<path d="M88.741 28.9949V20.8498H95.6849V16.1619H88.741V12.7046H97.3256V8.07541H83.7602V28.9949H88.741Z" fill="white"/>
<path d="M105.969 29.4344C110.744 29.4344 114.641 25.5669 114.641 20.8498C114.641 16.0447 110.744 12.2652 105.969 12.2652C101.193 12.2652 97.2961 16.0447 97.2961 20.8498C97.2961 25.5669 101.193 29.4344 105.969 29.4344ZM105.969 24.7172C103.947 24.7172 102.336 23.3695 102.336 20.8498C102.336 18.2422 103.947 16.9823 105.969 16.9823C107.99 16.9823 109.631 18.2422 109.631 20.8498C109.631 23.3695 107.99 24.7172 105.969 24.7172Z" fill="white"/>
<path d="M119.605 28.9949L122.095 24.8344L124.615 28.9949H130.563L124.85 20.6154L130.328 12.6753H124.322L122.095 16.4842L119.869 12.6753H113.862L119.341 20.6154L113.628 28.9949H119.605Z" fill="white"/>
<path fill-rule="evenodd" clip-rule="evenodd" d="M58.9777 44.5557V50.8363H65.1986V63.3977H77.6403V44.5557H83.8612V50.8363H90.082V112.985H102.524V119.206H90.082V125.427H77.6403V131.648H71.4194V125.427H58.9777V131.648H52.7568V125.427H40.3151V100.543H65.1986V94.3226H15.4316V88.1017H21.6525V81.8809H40.3151V69.4391H46.536V63.3977H52.7568V44.5557H58.9777ZM52.7568 75.66V81.8809H58.9777V75.66H52.7568ZM65.1986 75.66V81.8809H71.4194V75.66H65.1986ZM102.524 100.543H108.745V112.985H102.524V100.543ZM102.524 100.543V94.3226H96.3029V100.543H102.524Z" fill="white"/>
</svg>
