<svg width="165" height="131" viewBox="0 0 165 131" fill="none" xmlns="http://www.w3.org/2000/svg">
<path d="M15.7623 24.4183C20.8438 24.4183 23.881 21.089 24.8155 19.5996V11.3642H15.7623V16.0368H19.8801V18.4023C18.7119 19.4828 17.6022 19.8041 15.7623 19.8041C12.5499 19.8041 9.92159 17.1173 9.92159 13.5545C9.92159 9.93318 12.5499 7.27563 15.7623 7.27563C18.2447 7.27563 19.5004 7.94732 20.8146 9.26149L23.7934 5.99066C22.0412 3.80038 18.7411 2.69063 15.7623 2.69063C9.74636 2.69063 4.92773 7.50926 4.92773 13.5545C4.92773 19.5412 9.74636 24.4183 15.7623 24.4183Z" fill="#515151"/>
<path d="M34.0168 24.4183C38.2513 24.4183 41.1717 21.4687 41.1717 17.5554V7.71369H36.1487V17.8766C36.1487 18.928 35.5646 19.7457 34.0168 19.7457C32.615 19.7457 31.8557 19.074 31.8557 17.8766V7.71369H26.8618V17.5554C26.8618 21.4687 29.8114 24.4183 34.0168 24.4183Z" fill="#515151"/>
<path d="M46.453 5.72783C47.9716 5.72783 49.2274 4.47207 49.2274 2.92427C49.2274 1.40567 47.9716 0.149902 46.453 0.149902C44.9052 0.149902 43.6495 1.40567 43.6495 2.92427C43.6495 4.47207 44.9052 5.72783 46.453 5.72783ZM48.9354 23.9218V7.71369H43.9123V23.9218H48.9354Z" fill="#515151"/>
<path d="M57.0483 23.9802V3.12869H52.0837V23.9802H57.0483Z" fill="#515151"/>
<path d="M66.3593 24.4183C68.5496 24.4183 70.5355 23.805 72.0249 21.6439H72.1709V23.9802H77.0479V3.12869H72.0249V10.2252H71.8788C70.9735 8.50219 68.8416 7.27563 66.3593 7.27563C62.1248 7.27563 58.9415 11.0721 58.9415 15.8616C58.9415 20.6218 62.1248 24.4183 66.3593 24.4183ZM67.8195 19.7457C65.5124 19.7457 64.2858 18.1395 64.2858 15.8616C64.2858 13.5545 65.5124 11.9482 67.8195 11.9482C70.0974 11.9482 71.4408 13.5545 71.4408 15.8616C71.4408 18.1395 70.0974 19.7457 67.8195 19.7457Z" fill="#515151"/>
<path d="M95.3062 24.4183C100.388 24.4183 103.425 21.089 104.359 19.5996V11.3642H95.3062V16.0368H99.424V18.4023C98.2558 19.4828 97.1461 19.8041 95.3062 19.8041C92.0938 19.8041 89.4655 17.1173 89.4655 13.5545C89.4655 9.93318 92.0938 7.27563 95.3062 7.27563C97.7885 7.27563 99.0443 7.94732 100.358 9.26149L103.337 5.99066C101.585 3.80038 98.285 2.69063 95.3062 2.69063C89.2902 2.69063 84.4716 7.50926 84.4716 13.5545C84.4716 19.5412 89.2902 24.4183 95.3062 24.4183Z" fill="#515151"/>
<path d="M111.779 3.12869H106.815V23.9802H111.779V12.3863H116.89V23.9802H121.855V7.71369H111.779V3.12869Z" fill="#515151"/>
<path d="M132.384 24.4183C137.144 24.4183 141.028 20.5634 141.028 15.8616C141.028 11.0721 137.144 7.30484 132.384 7.30484C127.624 7.30484 123.74 11.0721 123.74 15.8616C123.74 20.5634 127.624 24.4183 132.384 24.4183ZM132.384 19.7165C130.369 19.7165 128.763 18.3731 128.763 15.8616C128.763 13.2624 130.369 12.0066 132.384 12.0066C134.399 12.0066 136.035 13.2624 136.035 15.8616C136.035 18.3731 134.399 19.7165 132.384 19.7165Z" fill="#515151"/>
<path d="M148.003 24.4183C151.391 24.4183 154.165 21.9652 154.165 18.8695C154.165 14.8978 151.099 14.1385 149.142 13.6421C148.149 13.3792 147.127 13.2332 147.127 12.5323C147.127 12.0651 147.507 11.8022 148.149 11.8022C148.646 11.8022 149.172 12.0359 149.172 12.7367L154.165 12.7659C154.165 9.67035 151.449 7.27563 148.149 7.27563C144.616 7.27563 142.133 9.67035 142.133 12.5907C142.133 15.7447 144.353 17.1173 147.273 17.8766C148.208 18.1102 149.259 18.2271 149.259 18.9572C149.259 19.5704 148.938 19.8333 148.12 19.8333C147.478 19.8333 146.835 19.5704 146.806 18.8695H141.812C141.812 21.9944 144.587 24.4183 148.003 24.4183Z" fill="#515151"/>
<path d="M164.428 23.9802V19.3076H162.266V12.3863H164.428V7.71369H162.266V3.12869H157.273V7.71369H155.053V12.3863H157.273V23.9802H164.428Z" fill="#515151"/>
<path d="M13.4977 25.8348C18.5792 25.8348 21.6164 22.5055 22.5509 21.0161V12.7807H13.4977V17.4533H17.6154V19.8188C16.4473 20.8993 15.3375 21.2206 13.4977 21.2206C10.2853 21.2206 7.65694 18.5338 7.65694 14.971C7.65694 11.3497 10.2853 8.69214 13.4977 8.69214C15.98 8.69214 17.2358 9.36382 18.55 10.678L21.5287 7.40717C19.7765 5.21688 16.4765 4.10714 13.4977 4.10714C7.48171 4.10714 2.66309 8.92577 2.66309 14.971C2.66309 20.9577 7.48171 25.8348 13.4977 25.8348Z" fill="#767676"/>
<path d="M31.7521 25.8348C35.9867 25.8348 38.9071 22.8852 38.9071 18.9719V9.13019H33.884V19.2931C33.884 20.3445 33.2999 21.1622 31.7521 21.1622C30.3504 21.1622 29.5911 20.4905 29.5911 19.2931V9.13019H24.5972V18.9719C24.5972 22.8852 27.5468 25.8348 31.7521 25.8348Z" fill="#767676"/>
<path d="M44.1884 7.14433C45.707 7.14433 46.9628 5.88857 46.9628 4.34077C46.9628 2.82217 45.707 1.56641 44.1884 1.56641C42.6406 1.56641 41.3848 2.82217 41.3848 4.34077C41.3848 5.88857 42.6406 7.14433 44.1884 7.14433ZM46.6707 25.3383V9.13019H41.6477V25.3383H46.6707Z" fill="#767676"/>
<path d="M54.7837 25.3967V4.54519H49.819V25.3967H54.7837Z" fill="#767676"/>
<path d="M64.0947 25.8348C66.285 25.8348 68.2708 25.2215 69.7602 23.0604H69.9062V25.3967H74.7833V4.54519H69.7602V11.6417H69.6142C68.7089 9.9187 66.577 8.69214 64.0947 8.69214C59.8601 8.69214 56.6769 12.4886 56.6769 17.2781C56.6769 22.0383 59.8601 25.8348 64.0947 25.8348ZM65.5549 21.1622C63.2478 21.1622 62.0212 19.556 62.0212 17.2781C62.0212 14.971 63.2478 13.3647 65.5549 13.3647C67.8328 13.3647 69.1761 14.971 69.1761 17.2781C69.1761 19.556 67.8328 21.1622 65.5549 21.1622Z" fill="#767676"/>
<path d="M93.0416 25.8348C98.123 25.8348 101.16 22.5055 102.095 21.0161V12.7807H93.0416V17.4533H97.1593V19.8188C95.9912 20.8993 94.8814 21.2206 93.0416 21.2206C89.8292 21.2206 87.2008 18.5338 87.2008 14.971C87.2008 11.3497 89.8292 8.69214 93.0416 8.69214C95.5239 8.69214 96.7797 9.36382 98.0938 10.678L101.073 7.40717C99.3204 5.21688 96.0204 4.10714 93.0416 4.10714C87.0256 4.10714 82.207 8.92577 82.207 14.971C82.207 20.9577 87.0256 25.8348 93.0416 25.8348Z" fill="#767676"/>
<path d="M109.515 4.54519H104.55V25.3967H109.515V13.8028H114.625V25.3967H119.59V9.13019H109.515V4.54519Z" fill="#767676"/>
<path d="M130.119 25.8348C134.88 25.8348 138.764 21.9799 138.764 17.2781C138.764 12.4886 134.88 8.72134 130.119 8.72134C125.359 8.72134 121.475 12.4886 121.475 17.2781C121.475 21.9799 125.359 25.8348 130.119 25.8348ZM130.119 21.133C128.104 21.133 126.498 19.7896 126.498 17.2781C126.498 14.6789 128.104 13.4232 130.119 13.4232C132.135 13.4232 133.77 14.6789 133.77 17.2781C133.77 19.7896 132.135 21.133 130.119 21.133Z" fill="#767676"/>
<path d="M145.739 25.8348C149.126 25.8348 151.901 23.3817 151.901 20.2861C151.901 16.3143 148.834 15.555 146.878 15.0586C145.885 14.7957 144.863 14.6497 144.863 13.9488C144.863 13.4816 145.242 13.2187 145.885 13.2187C146.381 13.2187 146.907 13.4524 146.907 14.1532L151.901 14.1825C151.901 11.0868 149.185 8.69214 145.885 8.69214C142.351 8.69214 139.869 11.0868 139.869 14.0072C139.869 17.1612 142.088 18.5338 145.009 19.2931C145.943 19.5268 146.994 19.6436 146.994 20.3737C146.994 20.9869 146.673 21.2498 145.856 21.2498C145.213 21.2498 144.571 20.9869 144.541 20.2861H139.548C139.548 23.4109 142.322 25.8348 145.739 25.8348Z" fill="#767676"/>
<path d="M162.163 25.3967V20.7241H160.002V13.8028H162.163V9.13019H160.002V4.54519H155.008V9.13019H152.788V13.8028H155.008V25.3967H162.163Z" fill="#767676"/>
<path d="M11.7985 28.1004C16.8799 28.1004 19.9171 24.7712 20.8517 23.2818V15.0463H11.7985V19.7189H15.9162V22.0844C14.7481 23.165 13.6383 23.4862 11.7985 23.4862C8.58606 23.4862 5.95772 20.7994 5.95772 17.2366C5.95772 13.6153 8.58606 10.9578 11.7985 10.9578C14.2808 10.9578 15.5366 11.6294 16.8507 12.9436L19.8295 9.67279C18.0773 7.48251 14.7773 6.37276 11.7985 6.37276C5.7825 6.37276 0.963867 11.1914 0.963867 17.2366C0.963867 23.2234 5.7825 28.1004 11.7985 28.1004Z" fill="white"/>
<path d="M30.0529 28.1004C34.2875 28.1004 37.2078 25.1508 37.2078 21.2375V11.3958H32.1848V21.5587C32.1848 22.6101 31.6007 23.4278 30.0529 23.4278C28.6511 23.4278 27.8918 22.7561 27.8918 21.5587V11.3958H22.898V21.2375C22.898 25.1508 25.8476 28.1004 30.0529 28.1004Z" fill="white"/>
<path d="M42.4892 9.40996C44.0078 9.40996 45.2635 8.1542 45.2635 6.60639C45.2635 5.08779 44.0078 3.83203 42.4892 3.83203C40.9414 3.83203 39.6856 5.08779 39.6856 6.60639C39.6856 8.1542 40.9414 9.40996 42.4892 9.40996ZM44.9715 27.6039V11.3958H39.9484V27.6039H44.9715Z" fill="white"/>
<path d="M53.0845 27.6623V6.81082H48.1198V27.6623H53.0845Z" fill="white"/>
<path d="M62.3955 28.1004C64.5857 28.1004 66.5716 27.4871 68.061 25.326H68.207V27.6623H73.084V6.81082H68.061V13.9073H67.915C67.0097 12.1843 64.8778 10.9578 62.3955 10.9578C58.1609 10.9578 54.9777 14.7543 54.9777 19.5437C54.9777 24.3039 58.1609 28.1004 62.3955 28.1004ZM63.8556 23.4278C61.5485 23.4278 60.322 21.8216 60.322 19.5437C60.322 17.2366 61.5485 15.6304 63.8556 15.6304C66.1335 15.6304 67.4769 17.2366 67.4769 19.5437C67.4769 21.8216 66.1335 23.4278 63.8556 23.4278Z" fill="white"/>
<path d="M91.3424 28.1004C96.4238 28.1004 99.461 24.7712 100.396 23.2818V15.0463H91.3424V19.7189H95.4601V22.0844C94.2919 23.165 93.1822 23.4862 91.3424 23.4862C88.1299 23.4862 85.5016 20.7994 85.5016 17.2366C85.5016 13.6153 88.1299 10.9578 91.3424 10.9578C93.8247 10.9578 95.0804 11.6294 96.3946 12.9436L99.3734 9.67279C97.6212 7.48251 94.3211 6.37276 91.3424 6.37276C85.3264 6.37276 80.5077 11.1914 80.5077 17.2366C80.5077 23.2234 85.3264 28.1004 91.3424 28.1004Z" fill="white"/>
<path d="M107.815 6.81082H102.851V27.6623H107.815V16.0684H112.926V27.6623H117.891V11.3958H107.815V6.81082Z" fill="white"/>
<path d="M128.42 28.1004C133.18 28.1004 137.065 24.2455 137.065 19.5437C137.065 14.7543 133.18 10.987 128.42 10.987C123.66 10.987 119.776 14.7543 119.776 19.5437C119.776 24.2455 123.66 28.1004 128.42 28.1004ZM128.42 23.3986C126.405 23.3986 124.799 22.0552 124.799 19.5437C124.799 16.9445 126.405 15.6888 128.42 15.6888C130.435 15.6888 132.071 16.9445 132.071 19.5437C132.071 22.0552 130.435 23.3986 128.42 23.3986Z" fill="white"/>
<path d="M144.039 28.1004C147.427 28.1004 150.201 25.6473 150.201 22.5517C150.201 18.58 147.135 17.8207 145.178 17.3242C144.186 17.0614 143.163 16.9153 143.163 16.2144C143.163 15.7472 143.543 15.4844 144.186 15.4844C144.682 15.4844 145.208 15.718 145.208 16.4189L150.201 16.4481C150.201 13.3525 147.486 10.9578 144.186 10.9578C140.652 10.9578 138.17 13.3525 138.17 16.2729C138.17 19.4269 140.389 20.7994 143.309 21.5587C144.244 21.7924 145.295 21.9092 145.295 22.6393C145.295 23.2526 144.974 23.5154 144.156 23.5154C143.514 23.5154 142.871 23.2526 142.842 22.5517H137.848C137.848 25.6765 140.623 28.1004 144.039 28.1004Z" fill="white"/>
<path d="M160.464 27.6623V22.9897H158.303V16.0684H160.464V11.3958H158.303V6.81082H153.309V11.3958H151.089V16.0684H153.309V27.6623H160.464Z" fill="white"/>
<path fill-rule="evenodd" clip-rule="evenodd" d="M69.7378 38.5601V43.4463H64.8515V48.3326H59.9652V58.1052H64.8515V53.2189H74.624V58.1052H89.2829V53.2189H99.0555V58.1052H118.601V48.3326H113.714V43.4463H108.828V38.5601H69.7378ZM99.0555 67.8778H103.942V62.9915H118.601V72.764H113.714V77.6503H108.828V82.5366H69.7378V77.6503H64.8515V72.764H59.9652V67.8778H64.8515V58.1052H74.624V67.8778H79.5103V62.9915H84.3966V67.8778H89.2829V58.1052H99.0555V67.8778ZM89.2829 72.764V67.8778H99.0555V72.764H89.2829ZM74.624 72.764H64.8515V67.8778H74.624V72.764ZM108.828 87.4229H84.3966V102.082H89.2829V106.968H94.1692V111.854H118.601V97.1954H113.714V92.3092H108.828V87.4229ZM79.5103 87.4229H69.7378V92.3092H64.8515V111.854H79.5103V87.4229Z" fill="#515151"/>
<path fill-rule="evenodd" clip-rule="evenodd" d="M64.5929 41.8931V47.0866H59.3994V52.2801H54.2058V62.6672H59.3994V57.4737H69.7864V62.6672H85.3671V57.4737H95.7542V62.6672H116.528V52.2801H111.335V47.0866H106.141V41.8931H64.5929ZM95.7542 73.0543H100.948V67.8608H116.528V78.2479H111.335V83.4414H106.141V88.6349H64.5929V83.4414H59.3994V78.2479H54.2058V73.0543H59.3994V62.6672H69.7864V73.0543H74.98V67.8608H80.1735V73.0543H85.3671V62.6672H95.7542V73.0543ZM85.3671 78.2479V73.0543H95.7542V78.2479H85.3671ZM69.7864 78.2479H59.3994V73.0543H69.7864V78.2479ZM106.141 93.8285H80.1735V109.409H85.3671V114.603H90.5606V119.796H116.528V104.216H111.335V99.022H106.141V93.8285ZM74.98 93.8285H64.5929V99.022H59.3994V119.796L71.641 115.068L74.98 93.8285Z" fill="#767676"/>
<path d="M54.8698 90.5884L52.6193 84.2115L47.5469 80.4071V68.7161L53.8874 62.231L93.6214 62.6537L94.0325 68.3703L109.162 68.7161V78.1393L107.346 80.8193L94.3783 90.5884H54.8698Z" fill="#767676"/>
<path d="M58.5381 103.242V95.2017L100.208 96.1141V101.599L99.4298 102.723L75.3962 106.095L75.4462 118.873H66.5694L58.5381 103.242Z" fill="#767676"/>
<path fill-rule="evenodd" clip-rule="evenodd" d="M58.6957 46.4146V51.9882H53.122V57.5619H47.5483V68.7093H53.122V63.1356H64.2694V68.7093H80.9904V63.1356H92.1378V68.7093H114.433V57.5619H108.859V51.9882H103.285V46.4146H58.6957ZM92.1378 79.8567H97.7115V74.283H114.433V85.4304H108.859V91.0041H103.285V96.5778H58.6957V91.0041H53.122V85.4304H47.5483V79.8567H53.122V68.7093H64.2694V79.8567H69.8431V74.283H75.4167V79.8567H80.9904V68.7093H92.1378V79.8567ZM80.9904 85.4304V79.8567H92.1378V85.4304H80.9904ZM64.2694 85.4304H53.122V79.8567H64.2694V85.4304ZM103.285 102.152H75.4167V118.873H80.9904V124.446H86.5641V130.02H114.433V113.299H108.859V107.725H103.285V102.152ZM69.8431 102.152H58.6957V107.725H53.122V130.02H69.8431V102.152Z" fill="white"/>
</svg>
