<svg width="24" height="24" viewBox="0 0 24 24" fill="none" xmlns="http://www.w3.org/2000/svg">
<rect width="24" height="24" fill="gray"/>
<path d="M19.9852 0.506814C20.0675 0.518763 20.1373 0.534135 20.1946 0.551123C20.4796 0.635665 20.7123 0.842646 20.8294 1.11591C21.329 2.28165 21.4482 3.56735 21.1825 4.79289L21.1202 5.04805L21.28 5.2589C22.0124 6.27236 22.4365 7.48134 22.4936 8.73885L22.5002 9.02984C22.5002 13.5547 20.5333 15.8317 16.9884 16.7078L16.7042 16.773L16.7521 16.8948C16.9322 17.3949 17.0193 17.923 17.0119 18.4038L17.0002 18.6399V22.5099C17.0002 23.0622 16.5525 23.5099 16.0002 23.5099C15.4874 23.5099 15.0647 23.1238 15.007 22.6265L15.0002 22.5099L15.0033 18.5615C15.0297 18.226 14.9844 17.889 14.8704 17.5725C14.7792 17.3193 14.6458 17.084 14.4761 16.8763L14.3422 16.7259C13.7637 16.1292 14.1234 15.1281 14.9495 15.036C18.7183 14.6159 20.5002 13.1176 20.5002 9.03005C20.5 7.89047 20.0617 6.79465 19.276 5.96936C19.0121 5.69219 18.9295 5.28871 19.0634 4.93017C19.3449 4.17595 19.3945 3.36056 19.2148 2.5865L19.2012 2.53705L19.1069 2.5605L18.9719 2.59716C18.3275 2.78265 17.5244 3.17201 16.557 3.82048C16.3166 3.98167 16.0181 4.03075 15.7387 3.95502C13.618 3.38027 11.3825 3.38027 9.26182 3.95502C8.98241 4.03075 8.6839 3.98167 8.44343 3.82048C7.56398 3.23096 6.82036 2.85559 6.2083 2.65284L5.95945 2.57781L5.79824 2.53705L5.78572 2.58649C5.62395 3.28312 5.64799 4.01326 5.85962 4.70218L5.93712 4.93019C6.07093 5.28874 5.98837 5.6922 5.72449 5.96937C4.93291 6.80081 4.4941 7.90655 4.50016 9.05984C4.50016 13.1091 6.26875 14.5962 10.0635 15.0675C10.8432 15.1643 11.1981 16.07 10.7345 16.6681L10.6588 16.7554C10.4275 16.9943 10.249 17.2795 10.1351 17.5921C10.044 17.8422 9.99583 18.1054 9.99342 18.4065L10.0002 18.6399V22.5099C10.0002 23.0622 9.55252 23.5099 9.00024 23.5099C8.4874 23.5099 8.06473 23.1238 8.00696 22.6265L8.00024 22.5099L8.00029 20.7716C5.87197 21.1187 4.48985 20.4659 3.2183 18.9713L2.94719 18.6388L2.61064 18.2148C2.25874 17.7799 2.03599 17.5793 1.82701 17.5015L1.7577 17.48C1.22191 17.3461 0.896145 16.8031 1.03009 16.2673C1.16404 15.7315 1.70698 15.4058 2.24277 15.5397C2.94402 15.715 3.43479 16.0918 4.00704 16.7655L4.21175 17.0145L4.61582 17.5235C5.56497 18.6988 6.35335 19.1032 8.00269 18.7392L8.0027 18.71C7.96581 18.1854 8.02394 17.6593 8.17355 17.1567L8.25597 16.9074L8.30224 16.789L8.24641 16.7769C4.62235 15.9283 2.59164 13.7535 2.50319 9.36758L2.50017 9.0651C2.49296 7.69385 2.92332 6.36419 3.71669 5.26406L3.87924 5.04705L3.81794 4.79284C3.57275 3.66156 3.65542 2.47904 4.06256 1.38695L4.1711 1.11589C4.28822 0.842639 4.52085 0.635664 4.80587 0.551123C4.86314 0.534135 4.93299 0.518763 5.01531 0.506814C5.927 0.374476 7.25078 0.719664 9.01465 1.8096L9.17824 1.91205L9.61315 1.81675C11.518 1.42635 13.4825 1.42635 15.3873 1.81675L15.8212 1.91205L15.9858 1.8096C17.7497 0.719664 19.0735 0.374476 19.9852 0.506814Z" fill="black"/>
</svg>
