<svg width="24" height="24" viewBox="0 0 24 24" fill="none" xmlns="http://www.w3.org/2000/svg">
<g clip-path="url(#clip0_99_614)">
<rect width="24" height="24" fill="gray"/>
<path d="M14.5256 2.36025C13.4767 2.76058 12.5761 3.47337 11.9457 4.40215L11.7943 4.63782C11.3109 5.43468 11.0387 6.34191 11.0035 7.27338L11.0001 7.515L10.8757 7.50634C9.66155 7.39934 8.47524 7.06321 7.38066 6.51227C5.95771 5.79605 4.73396 4.73903 3.81841 3.43535C3.37171 2.79928 2.40191 2.89366 2.08624 3.60392C2.05367 3.6772 2.01779 3.76339 1.97946 3.86182L1.85802 4.19317C1.77335 4.43765 1.68241 4.7284 1.59221 5.06002C0.995815 7.25262 0.891471 9.56132 1.60635 11.7582L1.7021 12.0377C2.40178 13.9801 3.72024 15.6364 5.71601 16.9185L5.91305 17.042L5.79332 17.098C4.30758 17.7601 2.68175 18.0762 1.03983 18.0108C-0.0125777 17.9689 -0.406285 19.3727 0.514411 19.8842C10.554 25.4617 22.0001 19.3695 22.0001 7.51006L21.9933 7.25309L21.9761 7.019L22.0952 6.88703C22.9987 5.84228 23.6432 4.59509 23.9717 3.2467C24.1903 2.34895 23.1787 1.6603 22.4236 2.1929L22.0932 2.41616C21.5354 2.77688 20.943 3.08037 20.325 3.3222L20.1281 3.394L20.0187 3.29603C19.3815 2.75705 18.6265 2.36825 17.8098 2.16389C16.7207 1.8914 15.5743 1.95994 14.5256 2.36025ZM17.3243 4.10407C18.0159 4.27712 18.6376 4.65838 19.1055 5.19632C19.3636 5.4931 19.7718 5.611 20.1484 5.49759L20.5542 5.36743L20.8361 5.265C20.6457 5.51562 20.44 5.74903 20.2179 5.96805C19.9802 6.20244 19.8752 6.53996 19.9378 6.86782C19.9785 7.08067 19.9994 7.29676 20.0001 7.51329L19.9971 7.82023C19.832 16.4735 12.6874 21.4181 5.1896 19.5989L4.92905 19.532L5.11804 19.4792C6.33476 19.1116 7.49672 18.5603 8.56169 17.8374C9.21066 17.3969 9.12295 16.4148 8.40619 16.0962C5.73507 14.909 4.18523 13.22 3.5082 11.1394L3.40782 10.8054C3.00605 9.35023 3.03231 7.79842 3.35343 6.2819L3.40593 6.05492C4.29826 6.96324 5.33643 7.7224 6.48147 8.29873C8.19903 9.16324 10.1037 9.58956 12.026 9.53972C12.568 9.52567 13.0001 9.08225 13.0001 8.54006V7.54006C12.9904 6.81379 13.2 6.11524 13.6004 5.52545C14.0008 4.93564 14.5727 4.483 15.2387 4.22877C15.9048 3.97456 16.6327 3.93104 17.3243 4.10407Z" fill="black"/>
</g>
<defs>
<clipPath id="clip0_99_614">
<rect width="24" height="24" fill="gray"/>
</clipPath>
</defs>
</svg>
