<svg width="300" height="299" viewBox="0 0 300 299" fill="none" xmlns="http://www.w3.org/2000/svg">
<path fill-rule="evenodd" clip-rule="evenodd" d="M0 0H300V42.6351H278.571V21.3175H21.4286V277.128H278.571V149.223H300V298.446H0V0ZM257.143 63.9526H300V106.588H278.571V127.905H257.143V149.223H235.714V170.54H214.286V191.858H192.857V213.175H171.429V234.493H150V255.81H128.571V234.493H107.143V213.175H85.7143V191.858H64.2857V170.54H42.8571V149.223H64.2857V127.905H85.7143V149.223H107.143V170.54H128.571V191.858H150V170.54H171.429V149.223H192.857V127.905H214.286V106.588H235.714V85.2702H257.143V63.9526Z" fill="white"/>
</svg>
