<svg width="301" height="300" viewBox="0 0 301 300" fill="none" xmlns="http://www.w3.org/2000/svg">
<path fill-rule="evenodd" clip-rule="evenodd" d="M60.998 20V0H80.998V20H60.998ZM120.998 0V20H100.998V0H120.998ZM140.998 20V0H160.998V20H140.998ZM200.998 0V20H180.998V0H200.998ZM220.998 20V0H240.998V20H220.998ZM40.998 40H260.998V220H40.998V40ZM60.998 60V200H240.998V60H60.998ZM20.998 60V80H0.998047V60H20.998ZM280.998 80V60H300.998V80H280.998ZM80.998 80H220.998V180H200.998V100H100.998V180H80.998V80ZM20.998 100V120H0.998047V100H20.998ZM280.998 120V100H300.998V120H280.998ZM20.998 140V160H0.998047V140H20.998ZM280.998 160V140H300.998V160H280.998ZM20.998 180V200H0.998047V180H20.998ZM280.998 200V180H300.998V200H280.998ZM20.998 220V240H0.998047V220H20.998ZM280.998 240V220H300.998V240H280.998ZM40.998 240H260.998V260H240.998V300H220.998V260H200.998V300H180.998V260H160.998V300H140.998V260H120.998V300H100.998V260H80.998V300H60.998V260H40.998V240Z" fill="#fff"/>
</svg>
