<svg width="202" height="300" viewBox="0 0 202 300" fill="none" xmlns="http://www.w3.org/2000/svg">
<path fill-rule="evenodd" clip-rule="evenodd" d="M61.2203 0H141.665V20H61.2203V0ZM61.2203 40H41.1092V20H61.2203V40ZM41.1092 60H20.9981V40H41.1092V60ZM20.9981 140H0.886963V60H20.9981V140ZM41.1092 160H20.9981V140H41.1092V160ZM41.1092 160V180H61.2203V160H41.1092ZM41.1092 60V100H81.3314V80H101.443V40H61.2203V60H41.1092ZM161.776 40H141.665V20H161.776V40ZM161.776 40V60H181.887V140H161.776V160H141.665V180H161.776V160H181.887V140H201.998V60H181.887V40H161.776ZM161.776 200V220H41.1092V200H161.776ZM41.1092 260V240H161.776V260H41.1092ZM141.665 280V300H61.2203V280H141.665Z" fill="#fff"/>
</svg>
