<svg width="300" height="300" viewBox="0 0 300 300" fill="none" xmlns="http://www.w3.org/2000/svg">
<path fill-rule="evenodd" clip-rule="evenodd" d="M18.75 0H281.25V18.75H300V300H281.25V281.25H253.125V262.5H225V281.25H18.75V262.5H0V18.75H18.75V0ZM18.75 37.5V243.75H37.5V262.5H206.25V243.75H271.875V262.5H281.25V37.5H262.5V18.75H37.5V37.5H18.75ZM75 46.875H121.875V65.625H93.75V93.75H206.25V65.625H178.125V46.875H225V75H253.125V112.5H271.875V187.5H253.125V206.25H206.25V187.5H93.75V206.25H46.875V187.5H28.125V112.5H46.875V75H75V46.875ZM93.75 168.75H121.875V112.5H93.75V168.75ZM178.125 112.5V168.75H206.25V112.5H178.125Z" fill="#fff"/>
</svg>
