<svg width="284" height="300" viewBox="0 0 284 300" fill="none" xmlns="http://www.w3.org/2000/svg">
<path fill-rule="evenodd" clip-rule="evenodd" d="M151.4 0V18.75H132.553V0H151.4ZM132.553 37.5H113.706V18.75H132.553V37.5ZM113.706 56.25H94.8586V37.5H113.706V56.25ZM94.8586 75H76.0114V56.25H94.8586V75ZM76.0114 93.75H57.1641V75H76.0114V93.75ZM57.1641 112.5H38.3168V93.75H57.1641V112.5ZM38.3168 131.25H19.4696V112.5H38.3168V131.25ZM38.3168 131.25V300H245.637V131.25H264.484V150H283.331V131.25H264.484V112.5H245.637V93.75H226.789V75H245.637V18.75H207.942V56.25H189.095V37.5H170.248V18.75H151.4V37.5H132.553V56.25H113.706V75H94.8586V93.75H76.0114V112.5H57.1641V131.25H38.3168ZM189.095 150H151.4V187.5H189.095V150ZM189.095 206.25H151.4V243.75H189.095V206.25ZM132.553 187.5V150H94.8586V187.5H132.553ZM94.8586 206.25H132.553V243.75H94.8586V206.25ZM207.942 112.5H226.789V131.25H245.637V112.5H226.789V93.75H207.942V75H226.789V56.25H207.942V75H189.095V56.25H170.248V37.5H151.4V56.25H170.248V75H189.095V93.75H207.942V112.5ZM19.4696 131.25H0.622314V150H19.4696V131.25Z" fill="#fff"/>
</svg>
