<svg width="300" height="261" viewBox="0 0 300 261" fill="none" xmlns="http://www.w3.org/2000/svg">
<path fill-rule="evenodd" clip-rule="evenodd" d="M40 0H260V20.0327H280V40.0655H300V180.295H280V200.327H260V220.36H180V240.393H160V260.426H140V240.393H120V220.36H40V200.327H20V180.295H0V40.0655H20V20.0327H40V0ZM120 40.0655V60.0982H100V80.1309H80V140.229H100V160.262H120V180.295H180V160.262H200V140.229H220V80.1309H200V60.0982H180V40.0655H120ZM180 60.0982H120V80.1309H100V140.229H120V160.262H140V120.196H160V160.262H180V140.229H200V80.1309H180V60.0982ZM140 80.1309V100.164H160V80.1309H140Z" fill="white"/>
</svg>
