<svg
  width="16"
  height="16"
  viewBox="0 0 16 16"
  fill="none"
  xmlns="http://www.w3.org/2000/svg"
>
  <g clip-path="url(#clip0_1163_51)">
    <path
      d="M12.8172 9.49377V8.40666H13.9087V7.31955H15.0002V2.9711H13.9087V1.88399H12.8172V0.796875H8.45114V1.88399H7.35963V2.9711H6.26812V6.23244H7.35963V7.31955H6.26812V8.40666H5.1766V9.49377H4.08509V10.5809H2.99357V11.668H1.90206V12.7551H0.810547V14.9293H2.99357V13.8422H4.08509V16.0164H5.1766V14.9293H6.26812V13.8422H7.35963V12.7551H5.1766V11.668H6.26812V10.5809H7.35963V9.49377H8.45114V8.40666H9.54266V9.49377H12.8172ZM8.45114 6.23244V4.05821H9.54266V2.9711H11.7257V4.05821H12.8172V6.23244H11.7257V7.31955H9.54266V6.23244H8.45114Z"
      fill="currentColor"
    />
    <path
      fill-rule="evenodd"
      clip-rule="evenodd"
      d="M11.7253 4.10059H10.5748V5.16217H9.5127V6.22418H10.5748V6.22461H11.7253V4.10059Z"
      fill="currentColor"
    />
  </g>
  <defs>
    <clipPath id="clip0_1163_51">
      <rect width="16" height="16" fill="white" />
    </clipPath>
  </defs>
</svg>
