<svg width="201" height="300" viewBox="0 0 201 300" fill="none" xmlns="http://www.w3.org/2000/svg">
<path d="M60.498 160V180H140.72V160H60.498Z" fill="#fff"/>
<path d="M140.72 20H60.498V40H100.609V80H80.5535V100H40.4424V60H20.3869V140H40.4424V160H60.498H140.72H160.776V140H180.831V60H160.776V40H140.72V20Z" fill="#fff"/>
<path d="M60.498 40H40.4424V60H60.498V40Z" fill="#fff"/>
<path fill-rule="evenodd" clip-rule="evenodd" d="M140.72 0H60.498V20H40.4424V40H20.3869V60H0.331299V140H20.3869V160H40.4424V180H60.498V160H40.4424V140H20.3869V60H40.4424V40H60.498V20H140.72V40H160.776V60H180.831V140H160.776V160H140.72V180H160.776V160H180.831V140H200.887V60H180.831V40H160.776V20H140.72V0ZM160.776 220V200H40.4424V220H160.776ZM40.4424 240V260H160.776V240H40.4424ZM140.72 300V280H60.498V300H140.72Z" fill="#fff"/>
</svg>
