<svg width="278" height="300" viewBox="0 0 278 300" fill="none" xmlns="http://www.w3.org/2000/svg">
<path fill-rule="evenodd" clip-rule="evenodd" d="M277.622 21.4286H0V0H277.622V21.4286ZM42.7111 42.8571V85.7143H21.3556V42.8571H42.7111ZM64.0667 107.143H42.7111V85.7143H64.0667V107.143ZM64.0667 107.143V128.571H85.4223V171.429H64.0667V192.857H42.7111V214.286H21.3556V257.143H42.7111V214.286H64.0667V192.857H85.4223V171.429H106.778V128.571H128.133V192.857H106.778V214.286H85.4223V257.143H106.778V214.286H128.133V257.143H192.2V214.286H170.845V192.857H149.489V128.571H170.845V171.429H192.2V192.857H213.556V257.143H256.267V214.286H234.911V192.857H213.556V171.429H192.2V128.571H213.556V107.143H234.911V85.7143H256.267V42.8571H234.911V85.7143H213.556V107.143H192.2V42.8571H170.845V107.143H149.489V85.7143H85.4223V107.143H64.0667ZM85.4223 107.143V128.571H106.778V107.143H85.4223ZM170.845 107.143V128.571H192.2V107.143H170.845ZM277.622 300H0V278.571H277.622V300Z" fill="#fff"/>
</svg>
