<svg width="300" height="300" viewBox="0 0 300 300" fill="none" xmlns="http://www.w3.org/2000/svg">
<path fill-rule="evenodd" clip-rule="evenodd" d="M150 0H243.75V18.75H150V0ZM131.25 37.5V18.75H150V37.5H131.25ZM112.5 56.25V37.5H131.25V56.25H112.5ZM112.5 150H93.75V56.25H112.5V150ZM131.25 168.75H112.5V150H131.25V168.75ZM150 187.5H131.25V168.75H150V187.5ZM243.75 187.5V206.25H150V187.5H243.75ZM243.75 168.75H262.5V187.5H243.75V168.75ZM262.5 150H281.25V168.75H262.5V150ZM281.25 56.25H300V150H281.25V56.25ZM262.5 37.5H281.25V56.25H262.5V37.5ZM262.5 37.5V18.75H243.75V37.5H262.5ZM262.5 150V93.75H225V112.5H206.25V131.25H187.5V168.75H243.75V150H262.5ZM150 56.25H187.5V93.75H150V56.25ZM75 187.5H112.5V225H93.75V243.75H75V262.5H56.25V281.25H37.5V300H18.75V281.25H0V262.5H18.75V243.75H37.5V225H56.25V206.25H75V187.5Z" fill="#fff"/>
</svg>
