<svg width="300" height="300" viewBox="0 0 300 300" fill="none" xmlns="http://www.w3.org/2000/svg">
<path fill-rule="evenodd" clip-rule="evenodd" d="M37.5 0V18.75H18.75V37.5H0V300H37.5V56.25H56.25V37.5H243.75V56.25H262.5V300H300V37.5H281.25V18.75H262.5V0H37.5ZM75 56.25H168.75V150H150V243.75H168.75V300H56.25V262.5H75V243.75H93.75V225H75V206.25H56.25V150H75V131.25H93.75V112.5H75V93.75H56.25V75H75V56.25ZM75 112.5H56.25V131.25H75V112.5ZM75 225H56.25V243.75H75V225ZM187.5 206.25H168.75V225H206.25V150H168.75V168.75H187.5V206.25Z" fill="white"/>
</svg>
