<svg width="300" height="300" viewBox="0 0 300 300" fill="none" xmlns="http://www.w3.org/2000/svg">
<path fill-rule="evenodd" clip-rule="evenodd" d="M188.556 90.0189L193.903 81.7056L206.914 90.0741L201.567 98.3874L214.578 106.756L198.537 131.696L211.548 140.065L195.507 165.005L208.518 173.373L192.477 198.313L205.488 206.682L189.447 231.622L124.391 189.779L172.515 114.959L159.504 106.59L175.545 81.6504L188.556 90.0189ZM130.452 123.162L146.493 98.2219L159.504 106.59L143.463 131.531L130.452 123.162ZM101.399 139.734L117.441 114.793L130.452 123.162L114.411 148.102L101.399 139.734ZM101.399 139.734L88.3885 131.365L72.3474 156.305L85.3584 164.674L101.399 139.734Z" fill="#fff"/>
<path fill-rule="evenodd" clip-rule="evenodd" d="M192.857 21.4286H107.143V0H192.857V21.4286ZM235.714 42.8571H192.857V21.4286H235.714V42.8571ZM257.143 64.2857H235.714V42.8571H257.143V64.2857ZM278.571 107.143H257.143V64.2857H278.571V107.143ZM278.571 192.857V107.143H300V192.857H278.571ZM257.143 235.714V192.857H278.571V235.714H257.143ZM235.714 257.143V235.714H257.143V257.143H235.714ZM192.857 278.571V257.143H235.714V278.571H192.857ZM107.143 278.571H192.857V300H107.143V278.571ZM64.2857 257.143H107.143V278.571H64.2857V257.143ZM42.8571 235.714H64.2857V257.143H42.8571V235.714ZM21.4286 192.857H42.8571V235.714H21.4286V192.857ZM21.4286 107.143V192.857H0V107.143H21.4286ZM42.8571 64.2857V107.143H21.4286V64.2857H42.8571ZM64.2857 42.8571V64.2857H42.8571V42.8571H64.2857ZM64.2857 42.8571V21.4286H107.143V42.8571H64.2857Z" fill="#fff"/>
</svg>
