<svg width="300" height="280" viewBox="0 0 300 280" fill="none" xmlns="http://www.w3.org/2000/svg">
<path fill-rule="evenodd" clip-rule="evenodd" d="M280 99.7253H300V219.396H280V239.341H260V259.286H240V279.231H80V259.286H60V239.341H40V219.396H20V199.451H140V179.505H160V159.56H140V179.505H80V159.56H60V139.615H40V119.67H20V99.7253H0V79.7802H100V99.7253H120V119.67H140V59.8352H160V39.8901H180V99.7253H240V39.8901H180V19.9451H260V0H280V19.9451H300V39.8901H280V99.7253ZM220 79.7802H200V59.8352H220V79.7802Z" fill="white"/>
</svg>
