<svg width="663" height="662" viewBox="0 0 663 662" fill="none" xmlns="http://www.w3.org/2000/svg">
<rect x="0.720703" width="661.667" height="661.667" rx="330.834" fill="#252525"/>
<rect x="490.299" y="470.896" width="26.5223" height="26.5223" fill="white"/>
<rect x="463.775" y="470.896" width="26.5223" height="26.5223" fill="white"/>
<rect x="437.254" y="470.896" width="26.5223" height="26.5223" fill="white"/>
<rect x="410.732" y="470.896" width="26.5223" height="26.5223" fill="white"/>
<rect x="384.21" y="470.896" width="26.5223" height="26.5223" fill="white"/>
<rect x="251.598" y="470.896" width="26.5223" height="26.5223" fill="white"/>
<rect x="225.076" y="470.896" width="26.5223" height="26.5223" fill="white"/>
<rect x="198.554" y="470.896" width="26.5223" height="26.5223" fill="white"/>
<rect x="172.031" y="470.896" width="26.5223" height="26.5223" fill="white"/>
<rect x="145.509" y="470.896" width="26.5223" height="26.5223" fill="white"/>
<rect x="490.299" y="444.374" width="26.5223" height="26.5223" fill="white"/>
<rect x="463.775" y="444.374" width="26.5223" height="26.5223" fill="white"/>
<rect x="437.254" y="444.374" width="26.5223" height="26.5223" fill="white"/>
<rect x="410.732" y="444.374" width="26.5223" height="26.5223" fill="white"/>
<rect x="384.21" y="444.374" width="26.5223" height="26.5223" fill="white"/>
<rect x="251.598" y="444.374" width="26.5223" height="26.5223" fill="white"/>
<rect x="225.076" y="444.374" width="26.5223" height="26.5223" fill="white"/>
<rect x="198.554" y="444.374" width="26.5223" height="26.5223" fill="white"/>
<rect x="172.031" y="444.374" width="26.5223" height="26.5223" fill="white"/>
<rect x="145.509" y="444.374" width="26.5223" height="26.5223" fill="white"/>
<rect x="490.299" y="417.851" width="26.5223" height="26.5223" fill="white"/>
<rect x="463.775" y="417.851" width="26.5223" height="26.5223" fill="white"/>
<rect x="410.732" y="417.851" width="26.5223" height="26.5223" fill="white"/>
<rect x="384.21" y="417.851" width="26.5223" height="26.5223" fill="white"/>
<rect x="251.598" y="417.851" width="26.5223" height="26.5223" fill="white"/>
<rect x="225.076" y="417.851" width="26.5223" height="26.5223" fill="white"/>
<rect x="172.031" y="417.851" width="26.5223" height="26.5223" fill="white"/>
<rect x="145.509" y="417.851" width="26.5223" height="26.5223" fill="white"/>
<rect x="490.299" y="391.329" width="26.5223" height="26.5223" fill="white"/>
<rect x="463.775" y="391.329" width="26.5223" height="26.5223" fill="white"/>
<rect x="437.254" y="391.329" width="26.5223" height="26.5223" fill="white"/>
<rect x="410.732" y="391.329" width="26.5223" height="26.5223" fill="white"/>
<rect x="384.21" y="391.329" width="26.5223" height="26.5223" fill="white"/>
<rect x="251.598" y="391.329" width="26.5223" height="26.5223" fill="white"/>
<rect x="225.076" y="391.329" width="26.5223" height="26.5223" fill="white"/>
<rect x="198.554" y="391.329" width="26.5223" height="26.5223" fill="white"/>
<rect x="172.031" y="391.329" width="26.5223" height="26.5223" fill="white"/>
<rect x="145.509" y="391.329" width="26.5223" height="26.5223" fill="white"/>
<rect x="490.299" y="364.807" width="26.5223" height="26.5223" fill="white"/>
<rect x="463.775" y="364.807" width="26.5223" height="26.5223" fill="white"/>
<rect x="437.254" y="364.807" width="26.5223" height="26.5223" fill="white"/>
<rect x="410.732" y="364.807" width="26.5223" height="26.5223" fill="white"/>
<rect x="384.21" y="364.807" width="26.5223" height="26.5223" fill="white"/>
<rect x="251.598" y="364.807" width="26.5223" height="26.5223" fill="white"/>
<rect x="225.076" y="364.807" width="26.5223" height="26.5223" fill="white"/>
<rect x="198.554" y="364.807" width="26.5223" height="26.5223" fill="white"/>
<rect x="172.031" y="364.807" width="26.5223" height="26.5223" fill="white"/>
<rect x="145.509" y="364.807" width="26.5223" height="26.5223" fill="white"/>
<rect x="490.299" y="338.284" width="26.5223" height="26.5223" fill="white"/>
<rect x="437.254" y="338.284" width="26.5223" height="26.5223" fill="white"/>
<rect x="410.732" y="338.284" width="26.5223" height="26.5223" fill="white"/>
<rect x="384.21" y="338.284" width="26.5223" height="26.5223" fill="white"/>
<rect x="357.687" y="338.284" width="26.5223" height="26.5223" fill="white"/>
<rect x="278.12" y="338.284" width="26.5223" height="26.5223" fill="white"/>
<rect x="251.598" y="338.284" width="26.5223" height="26.5223" fill="white"/>
<rect x="225.076" y="338.284" width="26.5223" height="26.5223" fill="white"/>
<rect x="198.554" y="338.284" width="26.5223" height="26.5223" fill="white"/>
<rect x="145.509" y="338.284" width="26.5223" height="26.5223" fill="white"/>
<rect x="490.299" y="311.762" width="26.5223" height="26.5223" fill="white"/>
<rect x="410.732" y="311.762" width="26.5223" height="26.5223" fill="white"/>
<rect x="384.21" y="311.762" width="26.5223" height="26.5223" fill="white"/>
<rect x="357.687" y="311.762" width="26.5223" height="26.5223" fill="white"/>
<rect x="331.165" y="311.762" width="26.5223" height="26.5223" fill="white"/>
<rect x="304.643" y="311.762" width="26.5223" height="26.5223" fill="white"/>
<rect x="278.12" y="311.762" width="26.5223" height="26.5223" fill="white"/>
<rect x="251.598" y="311.762" width="26.5223" height="26.5223" fill="white"/>
<rect x="225.076" y="311.762" width="26.5223" height="26.5223" fill="white"/>
<rect x="145.509" y="311.762" width="26.5223" height="26.5223" fill="white"/>
<rect x="384.21" y="285.24" width="26.5223" height="26.5223" fill="white"/>
<rect x="357.687" y="285.24" width="26.5223" height="26.5223" fill="white"/>
<rect x="331.165" y="285.24" width="26.5223" height="26.5223" fill="white"/>
<rect x="304.643" y="285.24" width="26.5223" height="26.5223" fill="white"/>
<rect x="278.12" y="285.24" width="26.5223" height="26.5223" fill="white"/>
<rect x="251.598" y="285.24" width="26.5223" height="26.5223" fill="white"/>
<rect x="357.687" y="258.717" width="26.5223" height="26.5223" fill="white"/>
<rect x="331.165" y="258.717" width="26.5223" height="26.5223" fill="white"/>
<rect x="304.643" y="258.717" width="26.5223" height="26.5223" fill="white"/>
<rect x="278.12" y="258.717" width="26.5223" height="26.5223" fill="white"/>
<rect x="357.687" y="232.195" width="26.5223" height="26.5223" fill="white"/>
<rect x="331.165" y="232.195" width="26.5223" height="26.5223" fill="white"/>
<rect x="304.643" y="232.195" width="26.5223" height="26.5223" fill="white"/>
<rect x="278.12" y="232.195" width="26.5223" height="26.5223" fill="white"/>
<rect x="357.687" y="205.673" width="26.5223" height="26.5223" fill="white"/>
<rect x="331.165" y="205.673" width="26.5223" height="26.5223" fill="white"/>
<rect x="304.643" y="205.673" width="26.5223" height="26.5223" fill="white"/>
<rect x="278.12" y="205.673" width="26.5223" height="26.5223" fill="white"/>
<rect x="331.165" y="179.151" width="26.5223" height="26.5223" fill="white"/>
<rect x="304.643" y="179.151" width="26.5223" height="26.5223" fill="white"/>
<rect x="357.687" y="152.628" width="26.5223" height="26.5223" fill="white"/>
<rect x="278.12" y="152.628" width="26.5223" height="26.5223" fill="white"/>
<rect x="331.165" y="126.106" width="26.5223" height="26.5223" fill="white"/>
<rect x="304.643" y="126.106" width="26.5223" height="26.5223" fill="white"/>
</svg>
