<?xml version="1.0" encoding="UTF-8" standalone="no"?><!-- Generator: Gravit.io --><svg xmlns="http://www.w3.org/2000/svg" xmlns:xlink="http://www.w3.org/1999/xlink" style="isolation:isolate" viewBox="0 0 48 48" width="48pt" height="48pt"><defs><clipPath id="_clipPath_nngwaSZ6pofxrgufYi90OcrJXa6lSqav"><rect width="48" height="48"/></clipPath></defs><g clip-path="url(#_clipPath_nngwaSZ6pofxrgufYi90OcrJXa6lSqav)"><path d=" M 20.64 0 L 27.52 0.16 L 27.68 3.52 L 30.72 3.68 L 30.56 6.72 L 27.52 6.88 L 27.68 10.24 L 30.72 10.4 L 30.88 20.48 L 34.24 20.64 L 34.4 24 L 37.76 24.16 L 37.92 27.52 L 41.28 27.68 L 41.44 30.72 L 44.48 30.56 L 44.64 24 L 48 24.16 L 47.84 48 L 30.72 47.84 L 30.56 30.72 L 27.52 30.56 L 27.36 27.52 L 20.48 27.68 L 20.32 30.72 L 17.28 30.88 L 17.12 48 L 0 47.84 L 0.16 24 L 3.52 24.16 L 3.68 30.72 L 6.72 30.56 L 6.88 27.52 L 10.24 27.36 L 10.4 24 L 13.76 23.84 L 13.92 20.48 L 17.28 20.32 L 17.44 10.24 L 20.48 10.08 L 20.32 6.72 L 17.28 6.56 L 17.44 3.52 L 20.48 3.36 L 20.64 0 Z  M 6.88 36.16 L 10.24 36.32 L 10.08 39.36 L 6.72 39.2 L 6.88 36.16 L 6.88 36.16 Z  M 37.92 36.16 L 41.28 36.32 L 41.12 39.36 L 37.76 39.2 L 37.92 36.16 L 37.92 36.16 Z " fill-rule="evenodd" fill="rgb(251,251,251)"/><g/></g></svg>