<svg width="145" height="155" viewBox="0 0 145 155" fill="none" xmlns="http://www.w3.org/2000/svg">
<path d="M122.118 88.3132V77.3111H133.165V66.3089H144.211V22.3002H133.165V11.2981H122.118V0.295898H77.931V11.2981H66.8843V22.3002H55.8375V55.3067H66.8843V66.3089H55.8375V77.3111H44.7908V88.3132H33.7441V99.3154H22.6974V110.318H11.6507V121.32H0.604004V143.324H22.6974V132.322H33.7441V154.326H44.7908V143.324H55.8375V132.322H66.8843V121.32H44.7908V110.318H55.8375V99.3154H66.8843V88.3132H77.931V77.3111H88.9777V88.3132H122.118ZM77.931 55.3067V33.3024H88.9777V22.3002H111.071V33.3024H122.118V55.3067H111.071V66.3089H88.9777V55.3067H77.931Z" fill="white"/>
<path fill-rule="evenodd" clip-rule="evenodd" d="M111.071 33.7344H99.4273V44.4824H88.6792V55.2306H99.4273V55.2307H111.071V33.7344Z" fill="white"/>
</svg>