<svg width="165" height="143" viewBox="0 0 165 143" fill="none" xmlns="http://www.w3.org/2000/svg">
<path d="M131.683 71.4435H159.047V137.118H71.4809V71.4435H98.8454M115.264 55.0249V76.9164M87.8996 93.3351H142.629M87.8996 115.227H142.629M5.80615 115.227V137.118H49.5893V71.4435H5.80615V93.3351M5.80615 115.227H33.1706M5.80615 115.227V93.3351M5.80615 93.3351H33.1706M16.7519 49.552H5.80615V38.6062M16.7519 49.552V38.6062M16.7519 49.552H27.6977M16.7519 38.6062H5.80615M16.7519 38.6062H27.6977V49.552M5.80615 38.6062V27.6604V16.7146H16.7519V5.76879H38.6435V16.7146H49.5893V49.552H27.6977M60.5351 0.295898V11.2417M71.4809 11.2417V38.6062M159.047 11.2417V38.6062M159.047 38.6062V49.552H137.156V38.6062H93.3725V49.552H71.4809V38.6062M159.047 38.6062H71.4809M76.9538 5.76879H93.3725M93.3725 5.76879H126.21V16.7146H142.629H93.3725V5.76879ZM148.101 0.295898V11.2417" stroke="white" stroke-width="10.9458"/>
</svg>