<svg width="15" height="15" viewBox="0 0 15 15" fill="none" xmlns="http://www.w3.org/2000/svg">
<path d="M1 9H2V8H0V10H1V9Z" fill="white"/>
<path d="M3 4H4V3H5V2H6V1H8V2H9V3H11V4H9V3H8V2H6V3H5V4H4V10H3V9H2V10H1V11H3V13H4V14H5V15H13V14H14V13H15V10H14V7H13V6H11V5H13V6H14V4H13V3H12V2H11V1H12V0H4V1H3V2H2V8H3V4ZM13 12H12V13H8V12H7V11H8V12H12V11H13V12ZM9 8V9H7V8H9ZM9 6H7V7H6V6H7V5H9V6ZM13 9H11V8H13V9Z" fill="white"/>
<path d="M14 2H13V3H14V2Z" fill="white"/>
<path d="M13 1H12V2H13V1Z" fill="white"/>
</svg>
