<svg width="16" height="15" viewBox="0 0 16 15" fill="none" xmlns="http://www.w3.org/2000/svg">
<path d="M15 8H14V9H13V11H12V10H11V11H10V10H9V11H8V10H7V9H6V8H5V10H6V11H7V12H13V13H7V12H6V11H5V10H4V8H2V9H1V10H3V11H1V13H2V14H4V12H5V15H7V14H11V15H13V14H15V13H16V9H15V8Z" fill="white"/>
<path d="M13 9V8H14V5H13V7H12V5H9V7H8V5H4V6H5V7H7V9H13ZM11 7V8H10V7H11Z" fill="white"/>
<path d="M3 7V5H1V6H0V8H2V7H3Z" fill="white"/>
<path d="M1 4H3V2H2V1H0V3H1V4Z" fill="white"/>
<path d="M6 0V1H5V2H4V4H14V2H13V1H12V0H6Z" fill="white"/>
</svg>
