<svg width="15" height="18" viewBox="0 0 15 18" fill="none" xmlns="http://www.w3.org/2000/svg">
<path d="M5 16H4V17H5V16Z" fill="white"/>
<path d="M6 15H5V16H6V15Z" fill="white"/>
<path d="M8 13H7V14H8V13Z" fill="white"/>
<path d="M11 11H10V13H9V14H8V15H7V16H6V17H5V18H8V17H9V16H10V15H11V13H12V10H11V11Z" fill="white"/>
<path d="M10 10H9V11H10V10Z" fill="white"/>
<path d="M6 10H4V11H6V10Z" fill="white"/>
<path d="M3 10H2V11H3V10Z" fill="white"/>
<path d="M1 10H0V11H1V10Z" fill="white"/>
<path d="M8 7V4H5V5H6V6H5V7H8Z" fill="white"/>
<path d="M14 2H13V1H12V0H5V1H4V2H3V3H2V7H3V8H2V7H1V8H0V9H1V10H2V9H3V10H4V9H6V10H8V9H10V10H11V9H12V10H14V9H15V3H14V2ZM5 8V7H4V4H5V3H8V4H9V7H8V8H5Z" fill="white"/>
</svg>
