<svg width="12" height="15" viewBox="0 0 12 15" fill="none" xmlns="http://www.w3.org/2000/svg">
<path d="M9 13H8V15H9V13Z" fill="white"/>
<path d="M4 13H3V15H4V13Z" fill="white"/>
<path d="M11 11H10V13H11V11Z" fill="white"/>
<path d="M7 12H5V13H7V12Z" fill="white"/>
<path d="M2 11H1V13H2V11Z" fill="white"/>
<path d="M10 10H9V11H10V10Z" fill="white"/>
<path d="M8 10H4V11H8V10Z" fill="white"/>
<path d="M3 10H2V11H3V10Z" fill="white"/>
<path d="M11 6H12V2H11V1H10V0H2V1H1V2H0V6H1V7H3V9H9V8H4V7H11V6ZM2 6V3H4V6H2ZM5 6V5H7V6H5ZM8 6V3H10V6H8Z" fill="white"/>
</svg>
