<svg width="14" height="14" viewBox="0 0 14 14" fill="none" xmlns="http://www.w3.org/2000/svg">
<path d="M8 13H6V14H8V13Z" fill="white"/>
<path d="M8 12V13H9V11H12V10H13V7H1V10H2V11H5V13H6V12H8ZM11 8V9H10V10H9V8H11ZM4 10V9H3V8H5V10H4Z" fill="white"/>
<path d="M13 5H1V6H13V5Z" fill="white"/>
<path d="M13 3H11V4H13V3Z" fill="white"/>
<path d="M9 2H5V4H9V2Z" fill="white"/>
<path d="M3 3H1V4H3V3Z" fill="white"/>
<path d="M14 0H13V3H14V0Z" fill="white"/>
<path d="M11 2H10V3H11V2Z" fill="white"/>
<path d="M4 2H3V3H4V2Z" fill="white"/>
<path d="M1 0H0V3H1V0Z" fill="white"/>
<path d="M10 0H9V2H10V0Z" fill="white"/>
<path d="M5 0H4V2H5V0Z" fill="white"/>
</svg>
