<svg xmlns="http://www.w3.org/2000/svg" width="198.042" height="178.453" viewBox="0 0 198.042 178.453">
  <g id="arbirtum_logo" data-name="arbirtum logo" transform="translate(-856.479 -718)">
    <g id="Group_1" data-name="Group 1" transform="translate(892.902 717.726)">
      <path id="Polygon_1" data-name="Polygon 1" d="M103.926,0a20,20,0,0,1,17.341,10.035l27.007,47a20,20,0,0,1,0,19.929l-27.007,47A20,20,0,0,1,103.926,134H50.074a20,20,0,0,1-17.341-10.035l-27.007-47a20,20,0,0,1,0-19.929l27.007-47A20,20,0,0,1,50.074,0Z" transform="translate(134.098 0.274) rotate(90)" fill="#1d86cc"/>
    </g>
    <g id="arbitrum" transform="translate(-1311.275 228.562)">
      <path id="Path_83" data-name="Path 83" d="M2332.2,502.9,2285.8,529.7a11.6,11.6,0,0,0-5.8,10.05l.029,53.659a11.6,11.6,0,0,0,5.794,10.035l46.454,26.854a11.6,11.6,0,0,0,11.6,0l46.4-26.792a11.6,11.6,0,0,0,5.8-10.05l-.029-53.659a11.6,11.6,0,0,0-5.794-10.034L2343.8,502.908a11.6,11.6,0,0,0-11.6,0Z" transform="translate(-66.718 -0.217)" fill="#fff"/>
      <path id="Path_84" data-name="Path 84" d="M2328.247,623.553a2.171,2.171,0,0,1,.456-.951q20.82-35.328,41.647-70.653c.193-.327.372-.663.536-.956-.122-.213-.261-.169-.379-.169-5.932.021-11.864.059-17.8.052a1.242,1.242,0,0,0-1.179.79q-6.712,11.1-13.441,22.194-14.255,23.519-28.513,47.037c-.084.139-.172.275-.247.418-.168.324-.359.375-.7.177-1.475-.871-2.966-1.714-4.533-2.615l42.3-67.842c-.091-.276-.278-.207-.422-.212-2.267-.068-4.535-.166-6.8-.186a25.133,25.133,0,0,0-9.344,1.506,13.194,13.194,0,0,0-6.586,5.347q-11.593,18.082-23.274,36.108c-.122.19-.252.376-.378.564-.446,0-.38-.368-.421-.625a7.519,7.519,0,0,1-.028-1.165c0-13.292.046-26.584-.041-39.875a5.732,5.732,0,0,1,3.282-5.536c10.221-5.827,20.376-11.774,30.564-17.66,4.547-2.627,9.108-5.229,13.622-7.911a5.153,5.153,0,0,1,5.742,0c8.3,4.871,16.674,9.629,25.017,14.431q9.439,5.435,18.887,10.851c.451.257.89.532,1.343.785a4.369,4.369,0,0,1,2.312,4.1q.018,21.688,0,43.376a2.807,2.807,0,0,1-.114,1.055c-.5.483-.681-.059-.863-.316-.75-1.055-1.423-2.166-2.12-3.258q-8.372-13.105-16.8-26.175c-1.888-2.945-3.8-5.878-5.668-8.835-.436-.69-.515-.7-.951.041q-4.228,7.154-8.451,14.311a1.454,1.454,0,0,0,.172,1.7q3.482,5.618,6.951,11.244l11.857,19.18q2.4,3.888,4.808,7.769a1.965,1.965,0,0,1,.474,1.244c-.321.638-.99.817-1.547,1.107a11.693,11.693,0,0,1-2.983,1.557c-.574-.143-.777-.661-1.049-1.085-3.671-5.726-7.295-11.481-10.942-17.221-3.751-5.9-7.484-11.822-11.251-17.716-.483-.756-.56-.761-1.014,0-3.277,5.513-6.509,11.052-9.794,16.559a1.468,1.468,0,0,0,.081,1.714c4.425,6.82,8.748,13.7,13.126,20.554,1.221,1.91,2.451,3.813,3.65,5.737.234.374.554.747.342,1.253a20.777,20.777,0,0,1-3.7,2.3q-6.134,3.569-12.274,7.128a4.056,4.056,0,0,1-4.4,0q-9.044-5.232-18.121-10.417A2.362,2.362,0,0,1,2328.247,623.553Z" transform="translate(-78.08 -11.609)" fill="#2d374b"/>
      <path id="Path_85" data-name="Path 85" d="M2388.3,584.524c.009-.357.027-.713.027-1.069q0-21.639.014-43.276a4.5,4.5,0,0,0-2.458-4.277q-22.722-13.026-45.411-26.111a4.216,4.216,0,0,0-4.58-.012q-12.6,7.323-25.232,14.608-10.135,5.867-20.269,11.737a4.221,4.221,0,0,0-2.271,3.98q.052,20.763.059,41.526c0,.308-.125.651.144.923-1.6,2.664-3.358,5.224-5.043,7.831q-1.266,1.958-2.542,3.909c-.136.208-.293.4-.562.771-.02-.436-.041-.677-.041-.917q0-27.381.01-54.762a11.032,11.032,0,0,1,5.764-9.937c5.874-3.488,11.826-6.846,17.739-10.272,4.989-2.889,9.961-5.8,14.947-8.694,4.65-2.7,9.253-5.481,13.982-8.034a11.576,11.576,0,0,1,11.781.306c3.8,2.156,7.584,4.352,11.373,6.53q5.346,3.077,10.691,6.158,4.926,2.836,9.855,5.666,4.887,2.807,9.775,5.611c1.432.823,2.863,1.647,4.286,2.485a12.02,12.02,0,0,1,5.95,8.562,8.645,8.645,0,0,1,.062,1.553q0,26.943.007,53.887a11.572,11.572,0,0,1-4.162,8.952,13.867,13.867,0,0,1-2.4,1.471q-7.3,4.259-14.621,8.483-7.779,4.5-15.565,8.985-7.481,4.334-14.946,8.7a11.106,11.106,0,0,1-4.1,1.691,11.561,11.561,0,0,1-7.2-.916c-2.482-1.331-4.9-2.775-7.347-4.177q-4.929-2.828-9.853-5.667-1.391-.8-2.784-1.591c-.341-.194-.574-.391-.308-.836,1.228-2.057,2.437-4.126,3.659-6.187.043-.075.153-.11.232-.165a28.636,28.636,0,0,1,3.3,1.815q8.043,4.6,16.061,9.245a3.789,3.789,0,0,0,4.118-.044c5.077-2.979,10.18-5.915,15.272-8.866.252-.146.51-.279.766-.417a4.2,4.2,0,0,1,1.852-1.351c4.6-2.636,9.166-5.324,13.765-7.953.384-.219.73-.557,1.23-.5l4.506-2.61c.275-.576.862-.762,1.354-1.046,2.267-1.309,4.513-2.654,6.8-3.921a3.886,3.886,0,0,0,2.069-3.674c.023-2.294,0-4.589.011-6.884A1.689,1.689,0,0,1,2388.3,584.524Z" transform="translate(-66.804)" fill="#96bedc"/>
      <path id="Path_86" data-name="Path 86" d="M2602.427,884.559V879.5c0-.259-.007-.519.005-.778.065-1.348.423-1.75,1.744-1.817.872-.044,1.749,0,2.624.014a1.784,1.784,0,0,1,1.716,1.2c.578,1.338,1.166,2.67,1.744,4.007q1.179,2.717,2.353,5.438c.077.178.15.359.234.534.1.21.225.394.5.379s.382-.2.473-.421c.1-.239.213-.472.316-.71q1.854-4.278,3.706-8.558c.116-.267.241-.531.362-.8a1.68,1.68,0,0,1,1.5-1.065,16.02,16.02,0,0,1,3.106.019c.865.111,1.169.442,1.285,1.315a8.906,8.906,0,0,1,.067,1.163q.007,5.349,0,10.7c0,.162-.006.324,0,.487.011.44-.18.657-.64.644-.616-.017-1.232-.006-1.848-.006a.469.469,0,0,1-.533-.536c0-.227,0-.454,0-.681,0-3.112,0-6.225-.008-9.337,0-.255.172-.646-.23-.734-.386-.084-.434.31-.548.561q-1.926,4.246-3.844,8.5-.182.4-.377.788a2.644,2.644,0,0,1-2.415,1.478,3.306,3.306,0,0,1-3.731-2.359c-1.107-2.693-2.376-5.32-3.576-7.975-.067-.148-.128-.3-.2-.442-.122-.249-.172-.645-.558-.542s-.217.489-.218.749c-.011,3.08-.007,6.16-.008,9.24,0,.26,0,.519-.005.778,0,.365-.2.521-.551.52-.487,0-.973,0-1.46,0-.979-.007-.986-.009-.989-.959-.006-1.589,0-3.177,0-4.766Z" transform="translate(-258.376 -223.429)" fill="#2d364d"/>
      <path id="Path_87" data-name="Path 87" d="M2533.572,882.119c0-1.394,0-2.788,0-4.183,0-.971.06-1.021,1.064-1.033.454-.005.908-.018,1.362,0,.626.032.707.125.742.759.012.226,0,.454,0,.681,0,2.432-.024,4.864.008,7.295.028,2.143.612,2.691,2.752,2.7,1.881.005,3.761,0,5.642,0a7.212,7.212,0,0,0,.777-.026,1.781,1.781,0,0,0,1.832-1.87c.044-.516.041-1.036.043-1.555,0-2.271,0-4.539,0-6.809,0-1.156.021-1.172,1.212-1.176.324,0,.649,0,.973,0,.935.017,1,.072,1,.994.006,2.464,0,4.928.006,7.393a17.31,17.31,0,0,1-.13,2.133,3.832,3.832,0,0,1-3.417,3.664,7.364,7.364,0,0,1-1.445.17h-7.393a7.87,7.87,0,0,1-1.638-.2,3.813,3.813,0,0,1-3.239-3.409,12.325,12.325,0,0,1-.167-2.13C2533.584,884.388,2533.572,883.254,2533.572,882.119Z" transform="translate(-217.445 -223.447)" fill="#2d364d"/>
      <path id="Path_88" data-name="Path 88" d="M2411.352,876.909c2.5,0,4.994,0,7.49,0,1.014,0,1.037.035,1.044,1.035,0,.389.01.778,0,1.167-.021.685-.1.78-.8.786-1.653.017-3.308.006-4.961.006-.227,0-.454.008-.681,0-.337-.012-.461.162-.452.477.006.227,0,.454,0,.681v8.95c0,.227,0,.454-.005.681-.008.388-.183.6-.6.589-.649-.011-1.3-.013-1.947,0-.467.009-.636-.231-.626-.661.006-.227,0-.454,0-.681V880.7c0-.782-.01-.79-.794-.792-1.686-.005-3.373,0-5.058,0-1,0-1.011-.023-1.019-1.055q0-.437,0-.875c.008-1.055.009-1.063,1.11-1.065Q2407.706,876.9,2411.352,876.909Z" transform="translate(-139.803 -223.454)" fill="#2d364d"/>
      <path id="Path_89" data-name="Path 89" d="M2373.946,884.159c0,2.068,0,4.141,0,6.211,0,.9-.02.906-.933.917-.518.006-1.035-.01-1.553,0-.438.012-.673-.157-.655-.619.01-.226,0-.453,0-.679V878.249c0-.226.01-.453,0-.679-.017-.391.15-.631.549-.64.679-.015,1.359-.018,2.037,0,.546.014.562.406.561.825C2373.941,879.889,2373.946,882.024,2373.946,884.159Z" transform="translate(-120.696 -223.46)" fill="#2d364d"/>
      <path id="Path_90" data-name="Path 90" d="M2495.207,648.594c.012,2.848.075,5.7.011,8.544a3.61,3.61,0,0,1-1.889,3.27c-2.868,1.624-5.684,3.34-8.578,4.92-1.151-2.1-2.48-4.1-3.738-6.14q-9.8-15.884-19.622-31.75c-.392-.634-.751-1.292-1.189-1.891a.958.958,0,0,1,0-1.223c1.563-2.614,3.1-5.243,4.647-7.868l4.294-7.284a.817.817,0,0,1,.379-.4c.747,1.151,1.5,2.312,2.252,3.474q6.776,10.55,13.549,21.1,4.593,7.158,9.185,14.317A2.913,2.913,0,0,0,2495.207,648.594Z" transform="translate(-173.706 -64.071)" fill="#28a0f0"/>
      <path id="Path_91" data-name="Path 91" d="M2459.274,700.394c-1.865,1.224-3.843,2.265-5.765,3.4-3.485,2.049-6.992,4.06-10.489,6.086-.2.113-.4.219-.593.328a1.651,1.651,0,0,0-.4-.871q-4.671-7.341-9.343-14.679-3.839-6.026-7.7-12.04a1.237,1.237,0,0,1-.068-1.5q5.161-8.692,10.279-17.41c.081-.134.146-.29.347-.333.28.063.348.343.481.552q9.3,14.649,18.6,29.3c1.319,2.079,2.632,4.163,3.959,6.238a3.076,3.076,0,0,0,.69.931Z" transform="translate(-152.735 -96.527)" fill="#28a0f0"/>
      <path id="Path_92" data-name="Path 92" d="M2319.991,883.9a3.452,3.452,0,0,0,1.241-3.331c-.015-.259-.007-.519-.026-.777a2.705,2.705,0,0,0-2.6-2.752,14.349,14.349,0,0,0-1.841-.127c-3.469-.012-6.936-.006-10.406,0-.259,0-.519,0-.777.017a.622.622,0,0,0-.639.7c0,.195,0,.389,0,.584v12.352c0,.464.2.738.7.721.162-.005.324,0,.487,0H2317.5a10.105,10.105,0,0,0,1.069-.041,2.788,2.788,0,0,0,2.7-2.478,11.717,11.717,0,0,0,.086-1.841A3.139,3.139,0,0,0,2319.991,883.9ZM2308.1,880.36c-.011-.4.112-.581.547-.579,2.748.014,5.5-.01,8.245.017.992.01,1.322.433,1.33,1.5.009,1.122-.318,1.541-1.361,1.573-1.357.041-2.718.01-4.074.01v0c-1.358,0-2.717-.016-4.074.009-.454.008-.643-.116-.617-.6.033-.646.021-1.294.005-1.94Zm10.008,7.458a.884.884,0,0,1-.655.522,7.483,7.483,0,0,1-1.154.122q-3.637.016-7.273,0c-.913,0-.915-.011-.922-.9,0-.582.026-1.165-.009-1.744-.028-.49.119-.683.643-.67,1.324.032,2.65.011,3.975.011v0c1.292,0,2.586-.026,3.878.007a1.7,1.7,0,0,1,1.515,2.646Z" transform="translate(-81.541 -223.455)" fill="#2d364d"/>
      <path id="Path_93" data-name="Path 93" d="M2255.482,890.087c-.938-1.194-1.9-2.369-2.88-3.587.249-.095.421-.172.6-.227a3.116,3.116,0,0,0,2.259-2.652,10.653,10.653,0,0,0,.007-3.675,3.213,3.213,0,0,0-2.948-2.891,13.756,13.756,0,0,0-1.84-.136c-3.273-.013-6.546-.006-9.82-.006-.129,0-.26-.005-.388,0-.771.041-.908.174-.945.912-.007.129,0,.259,0,.389v12.445c0,.449.225.638.667.628.551-.012,1.1.006,1.653,0,.79-.013.835-.047.846-.815.015-1,.019-2.009,0-3.013-.01-.471.1-.7.642-.687,1.814.032,3.629.025,5.444,0a.967.967,0,0,1,.878.466c.57.786,1.155,1.564,1.76,2.324.442.556.734,1.31,1.36,1.619a4.67,4.67,0,0,0,2.109.093c.387-.005.93.248,1.136-.221C2256.192,890.655,2255.713,890.379,2255.482,890.087Zm-3.065-7.666c-.062,1.327-.537,1.8-1.86,1.825-1.2.02-2.4,0-3.6,0s-2.4-.023-3.6.011c-.511.014-.682-.153-.668-.659.028-1.068.021-2.138,0-3.207-.008-.45.143-.631.617-.627,2.462.018,4.924-.006,7.385.016a1.475,1.475,0,0,1,1.695,1.57,7.73,7.73,0,0,1,.022,1.066Z" transform="translate(-42.661 -223.455)" fill="#2d364d"/>
      <path id="Path_94" data-name="Path 94" d="M2485.281,890.437c-.849-1.064-1.71-2.117-2.557-3.182a1.859,1.859,0,0,1-.532-.807c.126-.041.246-.088.369-.122a3.166,3.166,0,0,0,2.429-2.839,10.666,10.666,0,0,0-.067-3.768,3.16,3.16,0,0,0-2.837-2.661,11.934,11.934,0,0,0-1.741-.144q-5.055-.02-10.11,0c-1.105,0-1.155.057-1.156,1.153q0,6.076,0,12.152c0,.162.006.324,0,.487-.014.409.181.588.587.581.583-.01,1.167.009,1.75,0,.73-.016.783-.063.794-.769.016-.973.006-1.944,0-2.916,0-.857-.033-.82.768-.818,1.717,0,3.435.024,5.151-.013a1.21,1.21,0,0,1,1.118.582c.838,1.152,1.725,2.271,2.569,3.418a1.138,1.138,0,0,0,1.059.527c.679-.031,1.361,0,2.041-.011.215,0,.484.084.615-.165C2485.69,890.816,2485.435,890.629,2485.281,890.437Zm-3.374-7.594a1.44,1.44,0,0,1-1.391,1.372,5.509,5.509,0,0,1-.773.029q-3.393,0-6.785,0c-.73,0-.736-.011-.741-.741q-.011-1.454,0-2.908c.005-.815.012-.819.879-.823,1.163,0,2.326,0,3.488,0s2.326-.012,3.488,0c1.313.017,1.822.516,1.865,1.811a7.314,7.314,0,0,1-.031,1.256Z" transform="translate(-179.111 -223.452)" fill="#2d364d"/>
      <path id="Path_95" data-name="Path 95" d="M2186.965,890.66c-.122-.229-.246-.456-.371-.683l-5.3-9.608c-.391-.708-.791-1.411-1.174-2.124a2.642,2.642,0,0,0-2.283-1.4,3.272,3.272,0,0,0-3.589,1.992c-1.968,3.79-4.065,7.513-6.111,11.263-.093.17-.2.335-.277.512-.207.472-.148.593.349.608.777.021,1.555-.009,2.332.013a.821.821,0,0,0,.821-.545c.29-.578.644-1.126.9-1.717a1.032,1.032,0,0,1,1.123-.675c2.365.032,4.729.011,7.094.015a4.124,4.124,0,0,1,1.63.072c.505.236.629.942.923,1.44.978,1.657.406,1.369,2.163,1.4.608,0,1.029,0,1.449,0S2187.147,891,2186.965,890.66Zm-6.2-4.757h-6.629c-.135-.233.027-.388.113-.55q1.3-2.443,2.607-4.879a3.176,3.176,0,0,1,.305-.493.306.306,0,0,1,.5-.014,1.008,1.008,0,0,1,.149.247q1.478,2.731,2.951,5.464c.025.047,0,.119,0,.225Z" transform="translate(0 -223.404)" fill="#2d364d"/>
    </g>
  </g>
</svg>
