<?xml version="1.0" encoding="UTF-8" standalone="no"?><!-- Generator: Gravit.io --><svg xmlns="http://www.w3.org/2000/svg" xmlns:xlink="http://www.w3.org/1999/xlink" style="isolation:isolate" viewBox="0 0 100 100" width="100pt" height="100pt"><defs><clipPath id="_clipPath_I6qRTyrGHCYi1FwPoo94qIP08U2VSimL"><rect width="100" height="100"/></clipPath></defs><g clip-path="url(#_clipPath_I6qRTyrGHCYi1FwPoo94qIP08U2VSimL)"><g><g><path d=" M 95.311 68.21 C 95.311 73.052 92.723 77.525 88.525 79.937 L 56.739 98.202 C 52.567 100.599 47.434 100.599 43.261 98.202 L 11.476 79.937 C 7.277 77.525 4.689 73.052 4.689 68.21 L 4.689 31.79 C 4.689 26.948 7.277 22.475 11.475 20.063 L 43.261 1.798 C 47.433 -0.599 52.566 -0.599 56.739 1.798 L 88.524 20.063 C 92.723 22.475 95.311 26.948 95.311 31.79 L 95.311 68.21 Z " fill="rgb(29,134,204)"/></g><g><path d=" M 46.082 6.883 L 14.703 25.008 C 12.274 26.41 10.779 29.001 10.78 31.804 L 10.8 68.093 C 10.801 70.893 12.295 73.479 14.718 74.88 L 46.134 93.041 C 48.562 94.442 51.552 94.442 53.979 93.041 L 85.359 74.922 C 87.787 73.52 89.282 70.929 89.281 68.125 L 89.262 31.836 C 89.26 29.037 87.767 26.451 85.343 25.05 L 53.927 6.889 C 51.5 5.487 48.509 5.487 46.082 6.889 L 46.082 6.883 Z " fill="rgb(255,255,255)"/><path d=" M 35.725 80.775 C 35.773 80.539 35.879 80.318 36.033 80.132 Q 50.114 56.24 64.199 32.35 C 64.329 32.129 64.45 31.902 64.561 31.704 C 64.479 31.56 64.385 31.589 64.305 31.589 C 60.293 31.604 56.281 31.629 52.267 31.625 C 51.916 31.618 51.597 31.832 51.47 32.159 Q 46.93 39.666 42.38 47.168 Q 32.739 63.074 23.097 78.979 C 23.04 79.073 22.98 79.165 22.93 79.262 C 22.816 79.481 22.687 79.515 22.456 79.381 C 21.459 78.792 20.45 78.222 19.391 77.613 L 47.998 31.732 C 47.936 31.545 47.81 31.592 47.712 31.589 C 46.179 31.543 44.645 31.476 43.113 31.463 C 40.961 31.399 38.817 31.745 36.794 32.481 C 34.952 33.164 33.386 34.435 32.34 36.098 Q 24.5 48.326 16.6 60.517 C 16.518 60.645 16.43 60.771 16.345 60.898 C 16.043 60.898 16.088 60.65 16.06 60.476 C 16.033 60.214 16.027 59.951 16.041 59.688 C 16.041 50.699 16.072 41.709 16.013 32.721 C 15.917 31.136 16.796 29.653 18.233 28.977 C 25.145 25.036 32.013 21.014 38.903 17.034 C 41.978 15.257 45.062 13.497 48.115 11.684 C 49.29 10.896 50.824 10.896 51.998 11.684 C 57.612 14.978 63.275 18.196 68.917 21.443 Q 75.301 25.119 81.69 28.781 C 81.995 28.955 82.292 29.141 82.598 29.312 C 83.615 29.853 84.226 30.935 84.162 32.085 Q 84.174 46.752 84.162 61.42 C 84.182 61.66 84.156 61.903 84.085 62.133 C 83.747 62.46 83.624 62.093 83.501 61.92 C 82.994 61.206 82.539 60.455 82.068 59.716 Q 76.406 50.853 70.706 42.014 C 69.429 40.023 68.136 38.039 66.873 36.039 C 66.578 35.573 66.524 35.566 66.23 36.067 Q 63.37 40.905 60.514 45.745 C 60.3 46.113 60.347 46.578 60.631 46.895 Q 62.985 50.695 65.331 54.499 L 73.35 67.471 Q 74.973 70.1 76.602 72.725 C 76.803 72.959 76.917 73.257 76.922 73.566 C 76.705 73.997 76.253 74.118 75.876 74.315 C 75.258 74.761 74.578 75.116 73.859 75.368 C 73.471 75.271 73.333 74.921 73.149 74.634 C 70.667 70.761 68.216 66.869 65.749 62.987 C 63.213 58.997 60.688 54.992 58.14 51.006 C 57.814 50.495 57.762 50.492 57.455 51.006 C 55.239 54.735 53.053 58.481 50.831 62.205 C 50.598 62.563 50.62 63.03 50.886 63.364 C 53.879 67.976 56.802 72.629 59.763 77.265 C 60.589 78.556 61.42 79.843 62.231 81.144 C 62.39 81.397 62.606 81.65 62.463 81.992 C 61.685 82.597 60.847 83.118 59.96 83.547 Q 55.812 85.961 51.66 88.368 C 50.754 88.953 49.59 88.953 48.684 88.368 Q 42.568 84.829 36.429 81.323 C 36.147 81.211 35.903 81.021 35.725 80.775 Z " fill="rgb(45,55,75)"/><path d=" M 83.964 62.231 C 83.97 61.99 83.982 61.749 83.982 61.508 Q 83.982 46.874 83.992 32.241 C 84.062 31.032 83.41 29.896 82.329 29.349 Q 66.963 20.54 51.618 11.69 C 50.677 11.078 49.465 11.075 48.521 11.682 Q 40 16.635 31.457 21.561 Q 24.603 25.529 17.749 29.499 C 16.752 30.016 16.151 31.069 16.213 32.191 Q 16.249 46.232 16.253 60.274 C 16.253 60.482 16.169 60.714 16.351 60.898 C 15.269 62.7 14.08 64.431 12.94 66.194 Q 12.084 67.519 11.221 68.838 C 11.129 68.979 11.023 69.109 10.841 69.359 C 10.827 69.065 10.813 68.902 10.813 68.739 Q 10.813 50.222 10.82 31.704 C 10.759 28.911 12.263 26.318 14.718 24.984 C 18.691 22.625 22.716 20.354 26.715 18.037 C 30.089 16.084 33.451 14.115 36.823 12.158 C 39.968 10.332 43.081 8.451 46.279 6.724 C 48.774 5.335 51.827 5.414 54.246 6.931 C 56.816 8.389 59.375 9.875 61.938 11.347 Q 65.553 13.428 69.168 15.512 Q 72.499 17.43 75.833 19.344 Q 79.138 21.242 82.444 23.139 C 83.412 23.695 84.38 24.252 85.342 24.819 C 87.494 26.037 88.975 28.168 89.366 30.609 C 89.412 30.958 89.426 31.309 89.408 31.66 Q 89.408 49.881 89.413 68.103 C 89.426 70.44 88.393 72.66 86.598 74.157 C 86.092 74.543 85.548 74.876 84.975 75.152 Q 80.038 78.032 75.087 80.889 Q 69.826 83.932 64.56 86.965 Q 59.501 89.896 54.453 92.849 C 53.615 93.413 52.672 93.802 51.68 93.993 C 50.032 94.314 48.325 94.097 46.811 93.373 C 45.132 92.473 43.497 91.496 41.842 90.548 Q 38.509 88.636 35.178 86.716 Q 34.238 86.175 33.296 85.64 C 33.065 85.508 32.908 85.375 33.087 85.074 C 33.918 83.683 34.736 82.284 35.562 80.89 C 35.591 80.839 35.665 80.816 35.719 80.779 C 36.489 81.138 37.234 81.548 37.951 82.006 Q 43.39 85.117 48.812 88.258 C 49.666 88.798 50.756 88.786 51.597 88.229 C 55.031 86.214 58.482 84.228 61.926 82.233 C 62.096 82.134 62.271 82.044 62.444 81.951 C 62.768 81.536 63.202 81.219 63.696 81.037 C 66.807 79.254 69.895 77.436 73.005 75.658 C 73.265 75.51 73.499 75.282 73.837 75.32 L 76.884 73.555 C 77.07 73.166 77.467 73.04 77.8 72.848 C 79.333 71.962 80.852 71.053 82.399 70.196 C 83.313 69.715 83.861 68.743 83.798 67.711 C 83.814 66.16 83.798 64.608 83.806 63.056 C 83.752 62.771 83.808 62.476 83.964 62.231 Z " fill="rgb(150,190,220)"/><path d=" M 83.967 62.231 C 83.975 64.157 84.018 66.086 83.975 68.009 C 83.999 68.928 83.505 69.782 82.697 70.22 C 80.758 71.319 78.853 72.479 76.896 73.548 C 76.118 72.127 75.219 70.775 74.368 69.395 Q 67.74 58.653 61.098 47.923 C 60.833 47.494 60.59 47.049 60.294 46.644 C 60.095 46.404 60.095 46.057 60.294 45.817 C 61.351 44.049 62.39 42.271 63.436 40.496 L 66.34 35.57 C 66.392 35.453 66.483 35.357 66.597 35.3 C 67.102 36.078 67.611 36.863 68.12 37.649 Q 72.702 44.784 77.283 51.919 Q 80.389 56.759 83.494 61.601 C 83.608 61.841 83.769 62.055 83.967 62.231 L 83.967 62.231 Z " fill="rgb(40,160,240)"/><path d=" M 73.849 75.313 C 72.587 76.141 71.25 76.845 69.95 77.612 C 67.593 78.998 65.221 80.358 62.856 81.728 C 62.721 81.804 62.586 81.876 62.455 81.95 C 62.425 81.731 62.331 81.526 62.185 81.361 Q 59.026 76.396 55.866 71.434 Q 53.27 67.358 50.659 63.291 C 50.416 63.002 50.398 62.586 50.613 62.277 Q 54.103 56.398 57.564 50.502 C 57.619 50.412 57.663 50.306 57.799 50.277 C 57.988 50.32 58.034 50.509 58.124 50.651 Q 64.414 60.558 70.703 70.466 C 71.595 71.872 72.483 73.281 73.381 74.684 C 73.495 74.922 73.653 75.136 73.847 75.314 L 73.849 75.313 Z " fill="rgb(40,160,240)"/></g></g></g></svg>