<svg width="64" height="64" viewBox="0 0 64 64" fill="none" xmlns="http://www.w3.org/2000/svg">
<g clip-path="url(#clip0_1194_52)">
<path d="M0 32C0 49.6731 14.3269 64 32 64C49.6731 64 64 49.6731 64 32C64 14.3269 49.6731 0 32 0C14.3269 0 0 14.3269 0 32Z" fill="black"/>
<path fill-rule="evenodd" clip-rule="evenodd" d="M33.7048 13.4304C32.6448 12.8565 31.3553 12.8565 30.2953 13.4304L15.8011 21.2785C14.6893 21.8805 14 23.0213 14 24.2593V39.7407C14 40.9788 14.6893 42.1196 15.8011 42.7217L30.2953 50.5696C31.3553 51.1435 32.6448 51.1435 33.7048 50.5696L48.199 42.7217C49.3109 42.1196 50 40.9788 50 39.7407V24.2593C50 23.0213 49.3109 21.8805 48.199 21.2785L33.7048 13.4304ZM33.7349 21.7664C32.9638 20.4669 31.0361 20.4669 30.265 21.7664L21.5903 36.3859C20.8192 37.6855 21.7831 39.3097 23.3253 39.3097H40.6747C42.2168 39.3097 43.1806 37.6855 42.4096 36.3859L33.7349 21.7664Z" fill="white"/>
</g>
<defs>
<clipPath id="clip0_1194_52">
<rect width="64" height="64" fill="white"/>
</clipPath>
</defs>
</svg>
