<?xml version="1.0" encoding="utf-8"?>
<!-- Generator: Adobe Illustrator 25.3.1, SVG Export Plug-In . SVG Version: 6.00 Build 0)  -->
<svg version="1.1" id="Layer_1" xmlns="http://www.w3.org/2000/svg" xmlns:xlink="http://www.w3.org/1999/xlink" x="0px" y="0px"
	 viewBox="0 0 192.21 260.71" style="enable-background:new 0 0 192.21 260.71;" xml:space="preserve">
<style type="text/css">
	.st0{fill:#CCFF00;}
	.st1{fill:#1CD8D2;}
</style>
<g>
	<g>
		<g>
			<g>
				<path class="st0" d="M69.54,162.64c-3.15,0-5.81-2.25-6.34-5.36L45.27,51.86c-0.29-1.7,0.1-3.4,1.1-4.8
					c1-1.4,2.48-2.33,4.17-2.62c3.5-0.59,6.83,1.77,7.43,5.27l17.93,105.42c0.29,1.7-0.1,3.4-1.1,4.8c-1,1.4-2.48,2.33-4.17,2.62
					C70.28,162.61,69.91,162.64,69.54,162.64z"/>
			</g>
		</g>
	</g>
	<g>
		<path class="st0" d="M69.54,162.64c-3.15,0-5.81-2.25-6.34-5.36L45.27,51.86c-0.29-1.7,0.1-3.4,1.1-4.8c1-1.4,2.48-2.33,4.17-2.62
			c3.5-0.59,6.83,1.77,7.43,5.27l17.93,105.42c0.29,1.7-0.1,3.4-1.1,4.8c-1,1.4-2.48,2.33-4.17,2.62
			C70.28,162.61,69.91,162.64,69.54,162.64z"/>
	</g>
	<path class="st0" d="M99.59,114.02c-10.25,0-19.78,3.07-27.75,8.34l2.17,12.76c6.85-5.97,15.8-9.6,25.58-9.6
		c21.51,0,39.01,17.5,39.01,39.01c0,21.51-17.5,39.01-39.01,39.01c-21.51,0-39.01-17.5-39.01-39.01c0-2.87,0.32-5.66,0.91-8.35
		l-3.46-20.31c-5.64,8.15-8.95,18.03-8.95,28.67c0,27.85,22.66,50.51,50.51,50.51s50.51-22.66,50.51-50.51
		S127.45,114.02,99.59,114.02z"/>
	<g>
		<g>
			<circle class="st1" cx="96.83" cy="187.13" r="6.88"/>
		</g>
		<g>
			<circle class="st1" cx="118.32" cy="179.12" r="6.88"/>
		</g>
		<g>
			<circle class="st1" cx="101.43" cy="164.37" r="6.88"/>
		</g>
		<g>
			<circle class="st1" cx="80.07" cy="171.4" r="6.88"/>
		</g>
		<g>
			<circle class="st1" cx="122.72" cy="157.32" r="6.88"/>
		</g>
		<g>
			<circle class="st1" cx="106.02" cy="141.61" r="6.88"/>
		</g>
		<g>
			<circle class="st1" cx="84.46" cy="149.61" r="6.88"/>
		</g>
	</g>
</g>
</svg>
