<?xml version="1.0" encoding="utf-8"?>
<!-- Generator: Adobe Illustrator 25.0.0, SVG Export Plug-In . SVG Version: 6.00 Build 0)  -->
<svg version="1.1" id="katman_1" xmlns="http://www.w3.org/2000/svg" xmlns:xlink="http://www.w3.org/1999/xlink" x="0px" y="0px"
	 viewBox="0 0 3730.2 2770.2" style="enable-background:new 0 0 3730.2 2770.2;" xml:space="preserve">
<style type="text/css">
	.st0{fill:#F3BA2F;}
</style>
<g id="Layer_2">
	<g id="Layer_1-2">
		<path class="st0" d="M1379.6,1185.6l485.5-485.5l485.8,485.7l282.5-282.5l-768.3-768.2l-768,768L1379.6,1185.6 M615.1,1385.1
			l282.5-282.5l282.5,282.5l-282.5,282.5L615.1,1385.1z M1379.6,1584.6l485.5,485.5l485.7-485.7l282.7,282.3l-0.1,0.2l-768.3,768.2
			l-768-768l-0.4-0.4L1379.6,1584.6 M2550.1,1385.2l282.5-282.5l282.5,282.5l-282.5,282.5L2550.1,1385.2z"/>
		<path class="st0" d="M2151.6,1385h0.1l-286.6-286.7l-211.9,211.8l0,0l-24.3,24.3l-50.2,50.2l-0.4,0.4l0.4,0.4l286.4,286.5
			l286.7-286.7l0.1-0.2L2151.6,1385"/>
	</g>
</g>
</svg>
