<svg xmlns="http://www.w3.org/2000/svg" xmlns:xlink="http://www.w3.org/1999/xlink" viewBox="0 0 32 32"><defs><style>.cls-1{fill:#fff;fill-rule:evenodd;}.cls-2{fill:#13b5ec;}.cls-3{mask:url(#mask);}</style><mask id="mask" x="10" y="6" width="93.1" height="20" maskUnits="userSpaceOnUse"><g id="a"><path class="cls-1" d="M10,6h93.1V26H10Z"/></g></mask></defs><title>fa</title><g id="Layer_2" data-name="Layer 2"><g id="Layer_1-2" data-name="Layer 1"><circle class="cls-2" cx="16" cy="16" r="16"/><g class="cls-3"><path class="cls-1" d="M17.2,12.9l3.6-2.1V15Zm3.6,9L16,24.7l-4.8-2.8V17L16,19.8,20.8,17ZM11.2,10.8l3.6,2.1L11.2,15Zm5.4,3.1L20.2,16l-3.6,2.1Zm-1.2,4.2L11.8,16l3.6-2.1Zm4.8-8.3L16,12.2,11.8,9.8,16,7.3ZM10,9.4V22.5l6,3.4,6-3.4V9.4L16,6Z"/></g></g></g></svg>