<svg width="70" height="70" viewBox="0 0 70 70" fill="none" xmlns="http://www.w3.org/2000/svg">
<mask id="mask0_248_453" style="mask-type:alpha" maskUnits="userSpaceOnUse" x="0" y="0" width="70" height="70">
<path fill-rule="evenodd" clip-rule="evenodd" d="M0 0H70V70H0V0Z" fill="white"/>
</mask>
<g mask="url(#mask0_248_453)">
<path fill-rule="evenodd" clip-rule="evenodd" d="M35 69.9995C15.75 69.9995 0 54.2495 0 34.8244C0.175 15.5744 15.75 -0.17557 35.175 -0.000569784C54.425 0.17443 70 15.7494 70 35.3494C69.825 54.4244 54.25 69.9995 35 69.9995Z" fill="#0090FF"/>
<path fill-rule="evenodd" clip-rule="evenodd" d="M38.325 30.8001L37.275 36.4001L47.25 37.8001L46.55 40.4251L36.75 39.0251C36.05 41.3001 35.7 43.7501 34.825 45.8501C33.95 48.3001 33.075 50.7501 32.025 53.0251C30.625 56.0001 28.175 58.1001 24.85 58.6251C22.925 58.9751 20.825 58.8001 19.25 57.5751C18.725 57.2251 18.2 56.5251 18.2 56.0001C18.2 55.3001 18.55 54.4251 19.075 54.0751C19.425 53.9001 20.3 54.0751 20.825 54.2501C21.35 54.7751 21.875 55.4751 22.225 56.1751C23.275 57.5751 24.675 57.7501 26.075 56.7001C27.65 55.3001 28.525 53.3751 29.05 51.4501C30.1 47.2501 31.15 43.2251 32.025 39.0251V38.3251L22.75 36.9251L23.1 34.3001L32.725 35.7001L33.95 30.2751L23.975 28.7001L24.325 25.9001L34.65 27.3001C35 26.2501 35.1749 25.3751 35.525 24.5001C36.4 21.3501 37.275 18.2001 39.375 15.4001C41.475 12.6001 43.925 10.8501 47.6 11.0251C49.175 11.0251 50.75 11.5501 51.8 12.7751C51.975 12.9501 52.325 13.3001 52.325 13.6501C52.325 14.3501 52.325 15.2251 51.8 15.7501C51.1 16.2751 50.2249 16.1001 49.525 15.4001C49 14.8751 48.65 14.3501 48.125 13.8251C47.075 12.4251 45.5 12.2501 44.275 13.4751C43.4 14.3501 42.525 15.5751 42 16.8001C40.775 20.4751 39.9 24.3251 38.675 28.1751L48.3 29.5751L47.6 32.2001L38.325 30.8001Z" fill="white"/>
</g>
</svg>
