<svg width="64" height="64" viewBox="0 0 64 64" fill="none" xmlns="http://www.w3.org/2000/svg">
<g clip-path="url(#clip0_1293_60)">
<path d="M0 32C0 49.6731 14.3269 64 32 64C49.6731 64 64 49.6731 64 32C64 14.3269 49.6731 0 32 0C14.3269 0 0 14.3269 0 32Z" fill="black"/>
<path d="M21.9989 35.01C21.9758 35.0099 21.9527 35.0109 21.9297 35.0132C21.7216 35.0329 21.6633 35.1042 21.6633 35.3242C21.6633 39.2405 21.6642 43.158 21.6661 47.0767C21.6661 47.5573 21.3187 48.0013 20.7617 47.9953C19.3288 47.9796 17.8956 47.9839 16.4628 47.993C15.8983 47.9965 15.5791 47.6618 15.5787 47.1063C15.5771 43.1293 15.5783 39.1524 15.5822 35.1756C15.5822 34.615 15.8224 34.3457 16.4084 34.3406C17.5862 34.3303 18.764 34.3406 19.9418 34.3354C20.1882 34.3397 20.4286 34.2582 20.6224 34.1048C20.8548 33.9203 20.9123 33.6605 20.915 33.3951C20.9252 32.4387 20.9252 31.4823 20.915 30.5261C20.9163 30.4065 20.8937 30.2878 20.8485 30.1772C20.8033 30.0666 20.7365 29.9663 20.652 29.8822C20.5676 29.7982 20.4672 29.7322 20.3568 29.6881C20.2465 29.644 20.1285 29.6227 20.0099 29.6256C18.9306 29.639 17.8506 29.6319 16.771 29.628C16.5636 29.6302 16.3564 29.6153 16.1514 29.5834C15.9092 29.544 15.7211 29.4096 15.6558 29.1529C15.6202 29.0098 15.5811 28.8623 15.5807 28.7168C15.576 26.8701 15.576 25.0234 15.5807 23.1767C15.5807 22.9181 15.6041 22.646 15.8338 22.4722C15.9362 22.3933 16.0685 22.3231 16.1928 22.3145C16.6208 22.2837 17.0507 22.275 17.4802 22.2699C18.0493 22.2632 18.6185 22.2727 19.188 22.2664C19.5009 22.2628 19.8115 22.2506 20.1221 22.2269C20.3682 22.2072 20.5571 22.055 20.7449 21.9088C20.9737 21.7306 21.201 21.5508 21.4317 21.3753C21.6864 21.1818 21.7408 20.9066 21.7412 20.6117C21.7427 19.3059 21.7427 18.0001 21.7412 16.6943C21.7412 16.328 22.0095 16.0576 22.378 16.0572H26.186C33.6964 16.0446 41.7482 16.0122 49.2648 16C49.285 15.9999 49.305 16.0039 49.3236 16.0117C49.3423 16.0194 49.3592 16.0308 49.3735 16.0451C49.3878 16.0595 49.3991 16.0765 49.4068 16.0953C49.4146 16.1141 49.4186 16.1342 49.4186 16.1546V16.5417C49.4184 16.5827 49.4023 16.6219 49.3735 16.6509C49.3448 16.6798 49.3059 16.6962 49.2652 16.6963H45.0637C44.9057 16.695 44.7491 16.7258 44.6031 16.7867C44.4572 16.8477 44.3249 16.9376 44.2141 17.0511C42.9526 18.3234 41.693 19.5996 40.4229 20.8652C40.0454 21.2417 39.6406 21.5906 39.2392 21.9419C38.9713 22.1765 38.6388 22.2648 38.293 22.2652C34.2619 22.2691 30.231 22.2706 26.2005 22.2695C25.0121 22.2695 23.8237 22.2877 22.6354 22.3113C22.3068 22.318 21.9704 22.3606 21.7955 22.7107C21.7482 22.8053 21.7298 22.9153 21.704 23.0194C21.6995 23.0587 21.6995 23.0984 21.704 23.1377L21.6649 27.3838C21.6606 27.7781 21.2894 28.1235 20.8708 28.1239C19.5686 28.1239 18.2664 28.1239 16.9642 28.1262C16.8487 28.1274 16.7336 28.1406 16.6208 28.1657C16.4045 28.2126 16.2797 28.3482 16.2863 28.5118C16.2937 28.6159 16.338 28.7137 16.4111 28.7875C16.4843 28.8613 16.5813 28.9061 16.6845 28.9136C16.7428 28.9191 16.8019 28.9136 16.8613 28.9136L46.4484 28.9073C46.8818 28.9017 47.2746 29.3051 47.2699 29.7265C47.2546 31.2302 47.264 32.734 47.264 34.2377C47.264 34.6954 46.9511 35.0076 46.4969 35.0076L21.9989 35.01Z" fill="white"/>
</g>
<defs>
<clipPath id="clip0_1293_60">
<rect width="64" height="64" fill="white"/>
</clipPath>
</defs>
</svg>
