<?xml version="1.0" encoding="UTF-8" standalone="no"?><!-- Generator: Gravit.io --><svg xmlns="http://www.w3.org/2000/svg" xmlns:xlink="http://www.w3.org/1999/xlink" style="isolation:isolate" viewBox="0 0 48 48" width="48pt" height="48pt"><defs><clipPath id="_clipPath_fmaIcwI71lVgUAK2Aisg6tDQhEGRqvr2"><rect width="48" height="48"/></clipPath></defs><g clip-path="url(#_clipPath_fmaIcwI71lVgUAK2Aisg6tDQhEGRqvr2)"><circle vector-effect="non-scaling-stroke" cx="23.99992620369838" cy="24.000000000000007" r="23.999926203698372" fill="rgb(235,235,235)"/><g><path d=" M 14.132 27.316 C 15.565 27.316 16.888 26.838 17.954 26.011 L 9.207 17.267 C 8.38 18.315 7.902 19.637 7.902 21.088 C 7.884 24.524 10.677 27.316 14.132 27.316 Z " fill="rgb(4,121,91)"/><path d=" M 40.152 21.07 C 40.152 19.637 39.675 18.315 38.848 17.249 L 30.101 25.993 C 31.148 26.82 32.471 27.297 33.923 27.297 C 37.359 27.316 40.152 24.524 40.152 21.07 Z " fill="rgb(4,121,91)"/><path d=" M 44.563 11.573 L 40.685 15.449 C 41.972 16.992 42.744 18.939 42.744 21.107 C 42.744 25.975 38.793 29.924 33.923 29.924 C 31.773 29.924 29.806 29.153 28.263 27.867 L 24.018 32.11 L 19.773 27.867 C 18.229 29.153 16.281 29.924 14.113 29.924 C 9.243 29.924 5.292 25.975 5.292 21.107 C 5.292 18.958 6.064 16.992 7.351 15.449 L 5.366 13.465 L 3.473 11.573 C 1.268 15.21 0 19.454 0 24.009 C 0 37.272 10.75 48 24 48 C 37.249 48 47.999 37.254 47.999 24.009 C 48.036 19.435 46.768 15.192 44.563 11.573 Z " fill="rgb(4,121,91)"/><path d=" M 41.384 7.44 C 37.028 2.866 30.854 0 24.018 0 C 17.182 0 11.026 2.866 6.652 7.44 C 6.064 8.064 5.495 8.726 4.962 9.405 L 24 28.436 L 43.037 9.387 C 42.56 8.726 41.99 8.046 41.384 7.44 Z  M 24.018 3.123 C 29.641 3.123 34.86 5.29 38.774 9.24 L 24.018 23.991 L 9.262 9.24 C 13.194 5.29 18.395 3.123 24.018 3.123 Z " fill="rgb(4,121,91)"/></g></g></svg>