<svg width="64" height="64" viewBox="0 0 64 64" fill="none" xmlns="http://www.w3.org/2000/svg">
<g clip-path="url(#clip0_1384_46)">
<path d="M0 32C0 49.6731 14.3269 64 32 64C49.6731 64 64 49.6731 64 32C64 14.3269 49.6731 0 32 0C14.3269 0 0 14.3269 0 32Z" fill="#0D0E1D"/>
<path d="M41.8738 16.0364C43.2682 16.0364 44.3985 14.9089 44.3985 13.5182C44.3985 12.1274 43.2682 11 41.8738 11C40.4795 11 39.3491 12.1274 39.3491 13.5182C39.3491 14.9089 40.4795 16.0364 41.8738 16.0364Z" fill="white"/>
<path d="M44.7142 51.6057C46.1086 51.6057 47.2389 50.4783 47.2389 49.0875C47.2389 47.6967 46.1086 46.5693 44.7142 46.5693C43.3199 46.5693 42.1895 47.6967 42.1895 49.0875C42.1895 50.4783 43.3199 51.6057 44.7142 51.6057Z" fill="white"/>
<path d="M42.5956 22.3325C43.7658 22.3325 44.7145 21.3862 44.7145 20.219C44.7145 19.0517 43.7658 18.1055 42.5956 18.1055C41.4253 18.1055 40.4766 19.0517 40.4766 20.219C40.4766 21.3862 41.4253 22.3325 42.5956 22.3325Z" fill="white"/>
<path d="M48.2312 23.1411C49.4015 23.1411 50.3502 22.1948 50.3502 21.0276C50.3502 19.8603 49.4015 18.9141 48.2312 18.9141C47.061 18.9141 46.1123 19.8603 46.1123 21.0276C46.1123 22.1948 47.061 23.1411 48.2312 23.1411Z" fill="white"/>
<path d="M41.8741 27.6833C42.8701 27.6833 43.6775 26.878 43.6775 25.8846C43.6775 24.8912 42.8701 24.0859 41.8741 24.0859C40.8782 24.0859 40.0708 24.8912 40.0708 25.8846C40.0708 26.878 40.8782 27.6833 41.8741 27.6833Z" fill="white"/>
<path d="M47.5098 28.448C48.5058 28.448 49.3132 27.6427 49.3132 26.6493C49.3132 25.6559 48.5058 24.8506 47.5098 24.8506C46.5138 24.8506 45.7065 25.6559 45.7065 26.6493C45.7065 27.6427 46.5138 28.448 47.5098 28.448Z" fill="white"/>
<path d="M52.0182 30.2009C53.0141 30.2009 53.8215 29.3956 53.8215 28.4022C53.8215 27.4088 53.0141 26.6035 52.0182 26.6035C51.0222 26.6035 50.2148 27.4088 50.2148 28.4022C50.2148 29.3956 51.0222 30.2009 52.0182 30.2009Z" fill="white"/>
<path d="M45.8411 32.7649C46.7126 32.7649 47.419 32.0603 47.419 31.1911C47.419 30.3218 46.7126 29.6172 45.8411 29.6172C44.9696 29.6172 44.2632 30.3218 44.2632 31.1911C44.2632 32.0603 44.9696 32.7649 45.8411 32.7649Z" fill="white"/>
<path d="M40.2063 31.9994C41.0778 31.9994 41.7842 31.2947 41.7842 30.4255C41.7842 29.5563 41.0778 28.8516 40.2063 28.8516C39.3348 28.8516 38.6284 29.5563 38.6284 30.4255C38.6284 31.2947 39.3348 31.9994 40.2063 31.9994Z" fill="white"/>
<path d="M50.3949 34.5179C51.2663 34.5179 51.9728 33.8132 51.9728 32.944C51.9728 32.0748 51.2663 31.3701 50.3949 31.3701C49.5234 31.3701 48.8169 32.0748 48.8169 32.944C48.8169 33.8132 49.5234 34.5179 50.3949 34.5179Z" fill="white"/>
<path d="M43.5874 36.0467C44.3343 36.0467 44.9399 35.4427 44.9399 34.6977C44.9399 33.9526 44.3343 33.3486 43.5874 33.3486C42.8404 33.3486 42.2349 33.9526 42.2349 34.6977C42.2349 35.4427 42.8404 36.0467 43.5874 36.0467Z" fill="white"/>
<path d="M48.1411 37.7557C48.8881 37.7557 49.4937 37.1517 49.4937 36.4066C49.4937 35.6616 48.8881 35.0576 48.1411 35.0576C47.3942 35.0576 46.7886 35.6616 46.7886 36.4066C46.7886 37.1517 47.3942 37.7557 48.1411 37.7557Z" fill="white"/>
<path d="M37.9966 35.2371C38.7435 35.2371 39.3491 34.6331 39.3491 33.8881C39.3491 33.143 38.7435 32.5391 37.9966 32.5391C37.2496 32.5391 36.644 33.143 36.644 33.8881C36.644 34.6331 37.2496 35.2371 37.9966 35.2371Z" fill="white"/>
<path d="M41.1076 38.2504C41.7301 38.2504 42.2347 37.7471 42.2347 37.1262C42.2347 36.5053 41.7301 36.002 41.1076 36.002C40.4851 36.002 39.9805 36.5053 39.9805 37.1262C39.9805 37.7471 40.4851 38.2504 41.1076 38.2504Z" fill="white"/>
<path d="M43.046 41.3536C43.5938 41.3536 44.0379 40.9107 44.0379 40.3643C44.0379 39.818 43.5938 39.375 43.046 39.375C42.4983 39.375 42.0542 39.818 42.0542 40.3643C42.0542 40.9107 42.4983 41.3536 43.046 41.3536Z" fill="white"/>
<path d="M40.6567 41.9831C41.1049 41.9831 41.4682 41.6207 41.4682 41.1737C41.4682 40.7267 41.1049 40.3643 40.6567 40.3643C40.2085 40.3643 39.8452 40.7267 39.8452 41.1737C39.8452 41.6207 40.2085 41.9831 40.6567 41.9831Z" fill="white"/>
<path d="M38.5377 39.6446C39.0855 39.6446 39.5296 39.2016 39.5296 38.6553C39.5296 38.1089 39.0855 37.666 38.5377 37.666C37.99 37.666 37.5459 38.1089 37.5459 38.6553C37.5459 39.2016 37.99 39.6446 38.5377 39.6446Z" fill="white"/>
<path d="M35.4723 37.4867C36.0948 37.4867 36.5994 36.9834 36.5994 36.3625C36.5994 35.7416 36.0948 35.2383 35.4723 35.2383C34.8498 35.2383 34.3452 35.7416 34.3452 36.3625C34.3452 36.9834 34.8498 37.4867 35.4723 37.4867Z" fill="white"/>
<path d="M35.4269 29.0316C36.0494 29.0316 36.554 28.5283 36.554 27.9074C36.554 27.2865 36.0494 26.7832 35.4269 26.7832C34.8044 26.7832 34.2998 27.2865 34.2998 27.9074C34.2998 28.5283 34.8044 29.0316 35.4269 29.0316Z" fill="white"/>
<path d="M35.9231 25.0742C36.4709 25.0742 36.9149 24.6313 36.9149 24.085C36.9149 23.5386 36.4709 23.0957 35.9231 23.0957C35.3753 23.0957 34.9312 23.5386 34.9312 24.085C34.9312 24.6313 35.3753 25.0742 35.9231 25.0742Z" fill="white"/>
<path d="M37.0049 21.8367C37.4531 21.8367 37.8164 21.4743 37.8164 21.0273C37.8164 20.5802 37.4531 20.2178 37.0049 20.2178C36.5567 20.2178 36.1934 20.5802 36.1934 21.0273C36.1934 21.4743 36.5567 21.8367 37.0049 21.8367Z" fill="white"/>
<path d="M35.1115 20.3087C35.6592 20.3087 36.1033 19.8658 36.1033 19.3194C36.1033 18.7731 35.6592 18.3301 35.1115 18.3301C34.5637 18.3301 34.1196 18.7731 34.1196 19.3194C34.1196 19.8658 34.5637 20.3087 35.1115 20.3087Z" fill="white"/>
<path d="M45.6159 39.9584C46.2383 39.9584 46.743 39.4551 46.743 38.8342C46.743 38.2134 46.2383 37.71 45.6159 37.71C44.9934 37.71 44.4888 38.2134 44.4888 38.8342C44.4888 39.4551 44.9934 39.9584 45.6159 39.9584Z" fill="white"/>
<path d="M32.5416 19.0042C33.1641 19.0042 33.6688 18.5009 33.6688 17.8801C33.6688 17.2592 33.1641 16.7559 32.5416 16.7559C31.9192 16.7559 31.4146 17.2592 31.4146 17.8801C31.4146 18.5009 31.9192 19.0042 32.5416 19.0042Z" fill="white"/>
<path d="M33.3083 23.7709C33.9308 23.7709 34.4354 23.2675 34.4354 22.6467C34.4354 22.0258 33.9308 21.5225 33.3083 21.5225C32.6858 21.5225 32.1812 22.0258 32.1812 22.6467C32.1812 23.2675 32.6858 23.7709 33.3083 23.7709Z" fill="white"/>
<path d="M32.0463 28.3123C32.7933 28.3123 33.3988 27.7084 33.3988 26.9633C33.3988 26.2183 32.7933 25.6143 32.0463 25.6143C31.2993 25.6143 30.6938 26.2183 30.6938 26.9633C30.6938 27.7084 31.2993 28.3123 32.0463 28.3123Z" fill="white"/>
<path d="M27.9431 28.3119C28.8146 28.3119 29.5211 27.6072 29.5211 26.738C29.5211 25.8688 28.8146 25.1641 27.9431 25.1641C27.0717 25.1641 26.3652 25.8688 26.3652 26.738C26.3652 27.6072 27.0717 28.3119 27.9431 28.3119Z" fill="white"/>
<path d="M23.1646 29.3923C24.1606 29.3923 24.968 28.587 24.968 27.5936C24.968 26.6002 24.1606 25.7949 23.1646 25.7949C22.1687 25.7949 21.3613 26.6002 21.3613 27.5936C21.3613 28.587 22.1687 29.3923 23.1646 29.3923Z" fill="white"/>
<path d="M17.9348 31.9555C19.1051 31.9555 20.0538 31.0092 20.0538 29.842C20.0538 28.6747 19.1051 27.7285 17.9348 27.7285C16.7646 27.7285 15.8159 28.6747 15.8159 29.842C15.8159 31.0092 16.7646 31.9555 17.9348 31.9555Z" fill="white"/>
<path d="M12.5246 36.2717C13.919 36.2717 15.0493 35.1443 15.0493 33.7536C15.0493 32.3628 13.919 31.2354 12.5246 31.2354C11.1303 31.2354 10 32.3628 10 33.7536C10 35.1443 11.1303 36.2717 12.5246 36.2717Z" fill="white"/>
<path d="M15.8162 26.6938C16.9865 26.6938 17.9351 25.7475 17.9351 24.5803C17.9351 23.413 16.9865 22.4668 15.8162 22.4668C14.6459 22.4668 13.6973 23.413 13.6973 24.5803C13.6973 25.7475 14.6459 26.6938 15.8162 26.6938Z" fill="white"/>
<path d="M21.045 24.1306C22.041 24.1306 22.8484 23.3253 22.8484 22.3319C22.8484 21.3385 22.041 20.5332 21.045 20.5332C20.0491 20.5332 19.2417 21.3385 19.2417 22.3319C19.2417 23.3253 20.0491 24.1306 21.045 24.1306Z" fill="white"/>
<path d="M20.279 19.364C21.275 19.364 22.0823 18.5587 22.0823 17.5653C22.0823 16.5719 21.275 15.7666 20.279 15.7666C19.283 15.7666 18.4756 16.5719 18.4756 17.5653C18.4756 18.5587 19.283 19.364 20.279 19.364Z" fill="white"/>
<path d="M25.0579 18.2845C25.9294 18.2845 26.6358 17.5798 26.6358 16.7106C26.6358 15.8414 25.9294 15.1367 25.0579 15.1367C24.1864 15.1367 23.48 15.8414 23.48 16.7106C23.48 17.5798 24.1864 18.2845 25.0579 18.2845Z" fill="white"/>
<path d="M29.1601 18.2849C29.9071 18.2849 30.5126 17.6809 30.5126 16.9359C30.5126 16.1909 29.9071 15.5869 29.1601 15.5869C28.4132 15.5869 27.8076 16.1909 27.8076 16.9359C27.8076 17.6809 28.4132 18.2849 29.1601 18.2849Z" fill="white"/>
<path d="M29.9267 23.0505C30.6737 23.0505 31.2793 22.4466 31.2793 21.7015C31.2793 20.9565 30.6737 20.3525 29.9267 20.3525C29.1798 20.3525 28.5742 20.9565 28.5742 21.7015C28.5742 22.4466 29.1798 23.0505 29.9267 23.0505Z" fill="white"/>
<path d="M25.8245 23.0959C26.696 23.0959 27.4024 22.3913 27.4024 21.5221C27.4024 20.6529 26.696 19.9482 25.8245 19.9482C24.953 19.9482 24.2466 20.6529 24.2466 21.5221C24.2466 22.3913 24.953 23.0959 25.8245 23.0959Z" fill="white"/>
<path d="M21.3608 35.0574C21.809 35.0574 22.1723 34.695 22.1723 34.2479C22.1723 33.8009 21.809 33.4385 21.3608 33.4385C20.9126 33.4385 20.5493 33.8009 20.5493 34.2479C20.5493 34.695 20.9126 35.0574 21.3608 35.0574Z" fill="white"/>
<path d="M24.6071 34.6533C25.1549 34.6533 25.5989 34.2104 25.5989 33.664C25.5989 33.1177 25.1549 32.6748 24.6071 32.6748C24.0593 32.6748 23.6152 33.1177 23.6152 33.664C23.6152 34.2104 24.0593 34.6533 24.6071 34.6533Z" fill="white"/>
<path d="M28.1686 33.3041C28.791 33.3041 29.2956 32.8008 29.2956 32.1799C29.2956 31.559 28.791 31.0557 28.1686 31.0557C27.5461 31.0557 27.0415 31.559 27.0415 32.1799C27.0415 32.8008 27.5461 33.3041 28.1686 33.3041Z" fill="white"/>
<path d="M29.0249 36.9012C29.7718 36.9012 30.3774 36.2972 30.3774 35.5522C30.3774 34.8071 29.7718 34.2031 29.0249 34.2031C28.2779 34.2031 27.6724 34.8071 27.6724 35.5522C27.6724 36.2972 28.2779 36.9012 29.0249 36.9012Z" fill="white"/>
<path d="M24.6974 37.7552C25.3199 37.7552 25.8245 37.2518 25.8245 36.631C25.8245 36.0101 25.3199 35.5068 24.6974 35.5068C24.0749 35.5068 23.5703 36.0101 23.5703 36.631C23.5703 37.2518 24.0749 37.7552 24.6974 37.7552Z" fill="white"/>
<path d="M20.8648 37.71C21.4126 37.71 21.8567 37.2671 21.8567 36.7207C21.8567 36.1744 21.4126 35.7314 20.8648 35.7314C20.3171 35.7314 19.873 36.1744 19.873 36.7207C19.873 37.2671 20.3171 37.71 20.8648 37.71Z" fill="white"/>
<path d="M20.9098 40.8138C21.5323 40.8138 22.0369 40.3105 22.0369 39.6896C22.0369 39.0687 21.5323 38.5654 20.9098 38.5654C20.2873 38.5654 19.7827 39.0687 19.7827 39.6896C19.7827 40.3105 20.2873 40.8138 20.9098 40.8138Z" fill="white"/>
<path d="M25.5088 41.3982C26.2558 41.3982 26.8613 40.7943 26.8613 40.0492C26.8613 39.3042 26.2558 38.7002 25.5088 38.7002C24.7618 38.7002 24.1562 39.3042 24.1562 40.0492C24.1562 40.7943 24.7618 41.3982 25.5088 41.3982Z" fill="white"/>
<path d="M30.8738 40.8137C31.7453 40.8137 32.4518 40.1091 32.4518 39.2399C32.4518 38.3706 31.7453 37.666 30.8738 37.666C30.0024 37.666 29.2959 38.3706 29.2959 39.2399C29.2959 40.1091 30.0024 40.8137 30.8738 40.8137Z" fill="white"/>
<path d="M34.0295 44.7254C35.0254 44.7254 35.8328 43.92 35.8328 42.9266C35.8328 41.9332 35.0254 41.1279 34.0295 41.1279C33.0335 41.1279 32.2261 41.9332 32.2261 42.9266C32.2261 43.92 33.0335 44.7254 34.0295 44.7254Z" fill="white"/>
<path d="M27.4021 45.2649C28.2736 45.2649 28.9801 44.5602 28.9801 43.691C28.9801 42.8218 28.2736 42.1172 27.4021 42.1172C26.5307 42.1172 25.8242 42.8218 25.8242 43.691C25.8242 44.5602 26.5307 45.2649 27.4021 45.2649Z" fill="white"/>
<path d="M23.66 48.3225C24.5314 48.3225 25.2379 47.6179 25.2379 46.7486C25.2379 45.8794 24.5314 45.1748 23.66 45.1748C22.7885 45.1748 22.082 45.8794 22.082 46.7486C22.082 47.6179 22.7885 48.3225 23.66 48.3225Z" fill="white"/>
<path d="M26.7706 52.28C27.7666 52.28 28.574 51.4747 28.574 50.4813C28.574 49.4879 27.7666 48.6826 26.7706 48.6826C25.7747 48.6826 24.9673 49.4879 24.9673 50.4813C24.9673 51.4747 25.7747 52.28 26.7706 52.28Z" fill="white"/>
<path d="M35.0667 53.0003C36.237 53.0003 37.1857 52.0541 37.1857 50.8869C37.1857 49.7196 36.237 48.7734 35.0667 48.7734C33.8965 48.7734 32.9478 49.7196 32.9478 50.8869C32.9478 52.0541 33.8965 53.0003 35.0667 53.0003Z" fill="white"/>
<path d="M30.5128 49.2224C31.5088 49.2224 32.3162 48.4171 32.3162 47.4237C32.3162 46.4303 31.5088 45.625 30.5128 45.625C29.5169 45.625 28.7095 46.4303 28.7095 47.4237C28.7095 48.4171 29.5169 49.2224 30.5128 49.2224Z" fill="white"/>
<path d="M38.5379 48.5033C39.7081 48.5033 40.6568 47.5571 40.6568 46.3898C40.6568 45.2226 39.7081 44.2764 38.5379 44.2764C37.3676 44.2764 36.4189 45.2226 36.4189 46.3898C36.4189 47.5571 37.3676 48.5033 38.5379 48.5033Z" fill="white"/>
<path d="M21.7666 44.4558C22.5136 44.4558 23.1191 43.8518 23.1191 43.1068C23.1191 42.3617 22.5136 41.7578 21.7666 41.7578C21.0197 41.7578 20.4141 42.3617 20.4141 43.1068C20.4141 43.8518 21.0197 44.4558 21.7666 44.4558Z" fill="white"/>
</g>
<defs>
<clipPath id="clip0_1384_46">
<rect width="64" height="64" fill="white"/>
</clipPath>
</defs>
</svg>
