<svg width="64" height="64" viewBox="0 0 64 64" fill="none" xmlns="http://www.w3.org/2000/svg">
<g clip-path="url(#clip0_1276_46)">
<path d="M0 32C0 49.6731 14.3269 64 32 64C49.6731 64 64 49.6731 64 32C64 14.3269 49.6731 0 32 0C14.3269 0 0 14.3269 0 32Z" fill="white"/>
<g clip-path="url(#clip1_1276_46)">
<path d="M28.3297 53.9351L33.9854 47.4787C34.0807 47.3819 34.0172 47.2205 33.8583 47.2205H27.6307C27.5989 47.2205 27.5354 47.1882 27.5036 47.1559L22.2292 41.1515C22.1974 41.0869 22.1657 41.0224 22.1974 40.9578L31.0305 25.5594C31.0623 25.4949 31.0623 25.4303 31.0305 25.398L27.3765 19.0062C27.313 18.9094 27.1541 18.9094 27.0906 19.0062L14.0316 41.7971C13.9999 41.8617 13.9999 41.9263 14.0316 41.9908L24.5169 53.9673C24.5487 53.9996 24.5805 54.0319 24.644 54.0319H28.2026C28.2344 53.9996 28.298 53.9673 28.3297 53.9351Z" fill="#0C152E"/>
<path d="M32.2061 10.0968L28.5204 16.4886C28.4886 16.5532 28.4886 16.6178 28.5204 16.65L32.3332 23.3001L42.4372 40.9259C42.469 40.9905 42.469 41.055 42.4054 41.1196L37.0675 47.1886L31.38 53.7095C31.2847 53.8063 31.3483 53.9677 31.5071 53.9677H40.0224C40.0542 53.9677 40.1178 53.9354 40.1495 53.9032L50.6348 41.9266C50.6666 41.8621 50.6983 41.7975 50.6666 41.7329L32.4603 10.0968C32.4286 9.96772 32.2697 9.96772 32.2061 10.0968Z" fill="#0C152E"/>
</g>
</g>
<defs>
<clipPath id="clip0_1276_46">
<rect width="64" height="64" fill="white"/>
</clipPath>
<clipPath id="clip1_1276_46">
<rect width="36.6667" height="44" fill="white" transform="translate(14 10)"/>
</clipPath>
</defs>
</svg>
