<svg xmlns="http://www.w3.org/2000/svg" width="200" height="200" viewBox="0 0 200 200">
  <g id="logo-symbol" transform="translate(-442 -265)">
    <rect id="Rectangle_38" data-name="Rectangle 38" width="200" height="200" transform="translate(442 265)" fill="none"/>
    <g id="symbol" transform="translate(231.196 -160.618)">
      <path id="Path_207" data-name="Path 207" d="M414.045,475.63A71.868,71.868,0,0,0,342.177,547.5a72.791,72.791,0,0,0,1.274,13.532l9.284-6.359c16.322-11.194,42.8-11.194,59.118,0l9.742,6.672,5.28,3.629c14.712,10.08,38.545,10.08,53.243,0l4.332-2.966a71.914,71.914,0,0,0-70.379-86.347Z" transform="translate(-105.039 -46.012)" fill="#f2b705"/>
      <path id="Path_208" data-name="Path 208" d="M455.125,566.762c-10.828,0-21.182-2.938-28.978-8.281l-15.01-10.287c-7.186-4.94-16.836-7.66-27.147-7.66s-19.964,2.7-27.15,7.66l-9.705,6.645a4.216,4.216,0,1,1-4.764-6.957l9.7-6.645c8.581-5.887,19.909-9.123,31.915-9.123s23.332,3.236,31.913,9.123l15.01,10.287a46.384,46.384,0,0,0,48.425,0l5.7-3.9a4.215,4.215,0,1,1,4.762,6.955l-5.7,3.9C476.265,563.84,465.954,566.762,455.125,566.762Z" transform="translate(-105.732 -22.104)" fill="#53cbc8"/>
      <path id="Path_209" data-name="Path 209" d="M370.851,591.707V551.1a16.161,16.161,0,0,1,.108-2.558,4.572,4.572,0,0,1,4.547-4.059,4.426,4.426,0,0,1,4.291,4.059,24.513,24.513,0,0,1,.148,4.25v80.961c-.243,3-2.123,4.981-4.655,4.927s-4.36-2.111-4.371-5.156V606.539Z" transform="translate(-92.907 -16.867)" fill="#53cbc8"/>
      <path id="Path_210" data-name="Path 210" d="M367.541,571.035v20.179c0,3.453-1.842,5.739-4.452,5.657s-4.588-2.408-4.6-5.7V550.83c0-3.534,2.058-5.918,4.737-5.781s4.278,2.274,4.291,5.805C367.554,557.582,367.541,564.308,367.541,571.035Z" transform="translate(-98.136 -16.632)" fill="#53cbc8"/>
      <path id="Path_211" data-name="Path 211" d="M383.276,569.114V554.93c0-3.289,1.745-5.413,4.344-5.413s4.6,2.192,4.63,5.29q.147,14.483,0,28.952c0,3.288-1.937,5.263-4.6,5.238s-4.369-2.047-4.4-5.414V569.1Z" transform="translate(-87.654 -14.738)" fill="#53cbc8"/>
      <path id="Path_212" data-name="Path 212" d="M346.132,571.187V557c0-3.287,1.746-5.412,4.344-5.412s4.6,2.192,4.631,5.29q.133,14.483,0,28.952c0,3.288-1.951,5.263-4.6,5.237s-4.371-2.047-4.4-5.414V571.174Z" transform="translate(-103.376 -13.861)" fill="#53cbc8"/>
      <path id="Path_213" data-name="Path 213" d="M400.074,556.876h.013a4.455,4.455,0,0,1,4.453,4.455v7.714a4.454,4.454,0,0,1-4.453,4.453h-.013a4.455,4.455,0,0,1-4.455-4.453v-7.714A4.456,4.456,0,0,1,400.074,556.876Z" transform="translate(-82.419 -11.623)" fill="#53cbc8"/>
      <path id="Path_214" data-name="Path 214" d="M412.473,561.622h.013a4.455,4.455,0,0,1,4.453,4.455v43.267a4.452,4.452,0,0,1-4.453,4.452h-.013a4.451,4.451,0,0,1-4.452-4.452V566.077A4.454,4.454,0,0,1,412.473,561.622Z" transform="translate(-77.168 -9.614)" fill="#53cbc8"/>
      <path id="Path_215" data-name="Path 215" d="M424.787,562.8h.013a4.455,4.455,0,0,1,4.455,4.453v36.773a4.453,4.453,0,0,1-4.455,4.451h-.013a4.45,4.45,0,0,1-4.452-4.451V567.254A4.452,4.452,0,0,1,424.787,562.8Z" transform="translate(-71.956 -9.115)" fill="#53cbc8"/>
      <path id="Path_216" data-name="Path 216" d="M437.273,559.853h.013a4.453,4.453,0,0,1,4.453,4.453v15.861a4.454,4.454,0,0,1-4.453,4.453h-.013a4.452,4.452,0,0,1-4.452-4.453V564.307A4.452,4.452,0,0,1,437.273,559.853Z" transform="translate(-66.671 -10.363)" fill="#53cbc8"/>
    </g>
  </g>
</svg>