<svg width="64" height="64" viewBox="0 0 64 64" fill="none" xmlns="http://www.w3.org/2000/svg">
<g clip-path="url(#clip0_1260_46)">
<path d="M0 32C0 49.6731 14.3269 64 32 64C49.6731 64 64 49.6731 64 32C64 14.3269 49.6731 0 32 0C14.3269 0 0 14.3269 0 32Z" fill="white"/>
<path fill-rule="evenodd" clip-rule="evenodd" d="M46.3504 21.3343C43.622 17.7584 39.6535 15.4961 35.2243 15.4961C26.685 15.4961 20.4488 23.6696 20.4488 32.5364C20.4488 38.7031 24.4173 43.3372 28.8464 43.3372C29.2717 43.3372 29.6614 43.3008 30.0866 43.2277C27.1102 40.9654 25.1968 36.8787 25.1968 32.5C25.1968 25.4941 29.8031 20.0572 35.2243 20.0572C41.1417 20.0572 45.2519 26.1144 45.2519 32.5C45.2519 37.2436 43.5865 41.9507 40.7166 45.4171C38.2007 48.4458 34.9409 50.3797 31.3621 50.9634C31.3621 50.9634 31.6457 51 32.0354 51C41.9566 51 50 42.7169 50 32.5C50 28.3038 48.6535 24.4359 46.3504 21.3343ZM43.622 32.5C43.622 26.3333 39.6535 21.6992 35.2243 21.6992C34.7992 21.6992 34.4094 21.7357 33.9842 21.8087C36.9606 24.0345 38.8385 28.0849 38.8385 32.5C38.8385 39.5059 34.2322 44.9427 28.811 44.9427C22.8937 44.9427 18.7835 38.8856 18.7835 32.5C18.7835 27.7564 20.4488 23.0493 23.3189 19.5828C25.8346 16.5542 29.0945 14.6203 32.6732 14.0365C32.6732 14.0365 32.3898 14 31.9645 14C22.0433 14 14 22.283 14 32.5C14 36.6962 15.3464 40.5641 17.6496 43.6657C20.3779 47.2416 24.3819 49.5039 28.7756 49.5039C37.3858 49.5404 43.622 41.3668 43.622 32.5Z" fill="#3333C9"/>
</g>
<defs>
<clipPath id="clip0_1260_46">
<rect width="64" height="64" fill="white"/>
</clipPath>
</defs>
</svg>
