<svg width="64" height="64" viewBox="0 0 64 64" fill="none" xmlns="http://www.w3.org/2000/svg">
<g clip-path="url(#clip0_1213_46)">
<path d="M0 32C0 49.6731 14.3269 64 32 64C49.6731 64 64 49.6731 64 32C64 14.3269 49.6731 0 32 0C14.3269 0 0 14.3269 0 32Z" fill="white"/>
<path d="M44.2501 43.3519L49 48.1017V31.9001C49 27.7359 47.4384 23.5716 44.2501 20.4484C37.9386 14.137 27.6581 14.137 21.3467 20.4484L44.2501 43.3519Z" fill="#48A3FF"/>
<path d="M19.85 20.4481L15.1001 15.6982V31.8998C15.1001 36.0641 16.6617 40.2283 19.85 43.3515C26.1614 49.663 36.4419 49.663 42.7534 43.3515L19.85 20.4481Z" fill="#48A3FF"/>
</g>
<defs>
<clipPath id="clip0_1213_46">
<rect width="64" height="64" fill="white"/>
</clipPath>
</defs>
</svg>
