<svg width="64" height="64" viewBox="0 0 64 64" fill="none" xmlns="http://www.w3.org/2000/svg">
<path fill-rule="evenodd" clip-rule="evenodd" d="M9 4.925V44.4063C9 45.1438 9.1673 45.875 9.48949 46.5375C9.81169 47.2 10.2826 47.7875 10.865 48.25L29.6703 63.1875C30.3332 63.7125 31.1511 64 32 64C32.8489 64 33.6668 63.7125 34.3297 63.1875L53.135 48.25C53.7174 47.7875 54.1883 47.2 54.5105 46.5375C54.8327 45.875 55 45.1438 55 44.4063V4.925C55 3.61875 54.4733 2.3625 53.5439 1.44375C52.6083 0.51875 51.3443 0 50.0245 0H13.9755C12.6557 0 11.3917 0.51875 10.4561 1.44375C9.52667 2.3625 9 3.61875 9 4.925Z" fill="#004DE5"/>
<path d="M44.9937 22.8745V14.2915C44.9937 13.1533 44.5356 12.0649 43.7259 11.2564C42.9163 10.454 41.818 10 40.6757 10H22.318C21.1757 10 20.0774 10.454 19.2678 11.2564C18.4582 12.0649 18 13.1533 18 14.2915V39.2009C18 39.8416 18.1444 40.476 18.4268 41.0606C18.7092 41.639 19.1172 42.149 19.6192 42.5471L26.3033 47.8835C26.3849 47.9457 26.4791 47.983 26.5795 47.9954C26.6799 48.0079 26.7866 47.9954 26.8745 47.9519C26.9686 47.9084 27.0439 47.8337 27.1004 47.7529C27.1569 47.6658 27.182 47.5663 27.182 47.4605V29.8529C27.182 29.7099 27.2385 29.573 27.3389 29.4735C27.4393 29.374 27.5774 29.318 27.7218 29.318H32.5795C33.4393 29.318 34.2615 29.6539 34.8703 30.2572C35.4791 30.8605 35.818 31.6815 35.818 32.5335V47.4605C35.818 47.5663 35.8494 47.6658 35.9059 47.7466C35.9561 47.8337 36.0314 47.9021 36.1255 47.9457C36.2197 47.9892 36.3201 48.0079 36.4205 47.9954C36.5209 47.983 36.6151 47.9457 36.6967 47.8835L43.3808 42.5471C43.8828 42.149 44.2908 41.639 44.5732 41.0606C44.8556 40.476 45 39.8416 45 39.2009V31.4638C45 30.3256 44.5418 29.2309 43.7322 28.4286C42.9226 27.6201 41.8243 27.1723 40.682 27.1723C41.8243 27.166 42.9226 26.712 43.7322 25.9097C44.5356 25.1074 44.9937 24.0127 44.9937 22.8745ZM32.5732 25.0265H27.7155C27.5711 25.0265 27.4393 24.9643 27.3326 24.8648C27.2322 24.7653 27.1757 24.6285 27.1757 24.4854V14.8264C27.1757 14.6896 27.2322 14.5527 27.3326 14.4532C27.4393 14.3475 27.5711 14.2915 27.7155 14.2915H35.272C35.4163 14.2915 35.5544 14.3475 35.6548 14.4532C35.7552 14.5527 35.8117 14.6896 35.8117 14.8264V21.8048C35.8117 22.6569 35.4728 23.4778 34.864 24.0811C34.2615 24.6844 33.4331 25.0265 32.5732 25.0265Z" fill="white"/>
</svg>
