<svg width="64" height="64" viewBox="0 0 64 64" fill="none" xmlns="http://www.w3.org/2000/svg">
<path d="M31.8916 17.5905C36.7491 17.5905 40.6869 13.6528 40.6869 8.79527C40.6869 3.93778 36.7491 0 31.8916 0C27.0341 0 23.0963 3.93778 23.0963 8.79527C23.0963 13.6528 27.0341 17.5905 31.8916 17.5905Z" fill="#FF931E"/>
<path d="M56.3468 35.9843C52.1377 33.5579 46.7603 35.0028 44.334 39.212C43.4986 40.6603 43.1234 42.2462 43.159 43.8032C43.2473 47.6796 39.7615 49.6967 36.4471 47.6949C36.3164 47.6151 36.1822 47.537 36.0464 47.464C32.6947 45.5928 32.6964 41.6078 36.0498 39.7384C38.7954 38.251 40.6614 35.3424 40.6614 32.0009C40.6614 31.933 40.658 31.8668 40.6563 31.8006L40.6597 31.8057C40.5731 27.9242 44.0674 25.9087 47.3852 27.9259C50.0424 29.5389 53.4756 29.69 56.357 28.0244C60.5628 25.5946 62.0026 20.2139 59.5729 16.0081C57.1432 11.8023 51.7624 10.3625 47.5567 12.7922C44.677 14.4562 43.0962 17.5006 43.1624 20.6061C43.249 24.4791 39.7666 26.4945 36.4556 24.4961C35.1193 23.6777 33.5505 23.2056 31.8695 23.2056C30.1886 23.2056 28.6197 23.6777 27.2851 24.4944C23.9809 26.486 20.5087 24.474 20.597 20.6095C20.6649 17.4972 19.0756 14.446 16.1874 12.7838C11.9766 10.3625 6.59923 11.8125 4.17798 16.0234C1.75673 20.2343 3.20676 25.6116 7.41763 28.0329C10.2956 29.6883 13.7186 29.5338 16.3708 27.9259C19.6801 25.9172 23.1659 27.931 23.0776 31.8023L23.081 31.7972C23.081 31.8651 23.0759 31.933 23.0759 32.0026C23.0759 35.3458 24.9403 38.2527 27.6875 39.7401C31.0426 41.6112 31.0409 45.6013 27.6841 47.469C27.5483 47.5421 27.4158 47.6202 27.2851 47.7C23.9809 49.6882 20.5104 47.6745 20.5986 43.81C20.636 42.2462 20.2574 40.6519 19.4169 39.1984C16.9821 34.9944 11.6013 33.5613 7.39725 35.9944C3.18469 38.4276 1.75164 43.8083 4.18477 48.0124C6.6196 52.2165 12.0003 53.6495 16.2044 51.2164C16.2587 51.1841 16.3114 51.1502 16.3657 51.1179L16.3606 51.1247C19.6733 49.1143 23.1591 51.1298 23.0691 55.0028L23.0725 54.9977C23.0725 55.069 23.0674 55.142 23.0674 55.2133C23.0725 60.0711 27.0134 64.0052 31.8712 64.0001C36.729 63.995 40.6631 60.0541 40.658 55.1963C40.658 55.1318 40.6546 55.0673 40.6529 55.0028L40.6563 55.0078C40.568 51.1247 44.064 49.1075 47.3835 51.1247L47.3784 51.1162C47.4395 51.1535 47.4972 51.1909 47.5584 51.2266C51.7675 53.6529 57.1449 52.208 59.5712 47.9988C61.9976 43.7896 60.5526 38.4123 56.3435 35.986L56.3468 35.9843Z" fill="#FF931E"/>
</svg>
