<svg width="64" height="64" viewBox="0 0 64 64" fill="none" xmlns="http://www.w3.org/2000/svg">
<g clip-path="url(#clip0_801_335)">
<circle cx="32" cy="32" r="32" fill="white"/>
<path d="M48.9816 39.0397V16.1064C48.9389 14.1864 47.4243 12.6504 45.5043 12.6504H21.5683C16.4056 12.7357 12.2456 16.9597 12.2456 22.1437C12.2456 23.8931 12.7149 25.3864 13.4403 26.7091C14.0376 27.7971 14.9976 28.8211 15.9363 29.6104C16.1923 29.8237 16.0643 29.7384 16.8749 30.2504C18.0056 30.9331 19.2856 31.2744 19.2856 31.2744V44.9917C19.3069 45.6317 19.3923 46.2717 19.5416 46.8477C20.0749 48.7677 21.4189 50.2611 23.2323 50.9864C24.0003 51.2851 24.8536 51.4984 25.7709 51.4984L44.8856 51.5624C48.7043 51.5624 51.7976 48.4691 51.7976 44.6504C51.7976 42.3251 50.6883 40.2984 48.9816 39.0397Z" fill="#FFEEDA"/>
<path d="M49.4293 44.7568C49.344 47.2101 47.3387 49.1728 44.8853 49.1728L31.7227 49.1301C32.768 47.9141 33.408 46.3355 33.408 44.6288C33.408 41.9195 31.7867 40.0635 31.7867 40.0635H44.8853C47.4027 40.0635 49.4293 42.1115 49.4293 44.6288V44.7568Z" fill="#EBC28E"/>
<path d="M17.1521 27.6262C15.6375 26.1969 14.5708 24.3409 14.5708 22.1222V21.8876C14.6988 18.1329 17.7921 15.1036 21.5468 14.9756H45.4828C46.1015 14.9969 46.6135 15.4449 46.6135 16.0849V36.3302C47.1681 36.4369 47.4241 36.5009 47.9575 36.6929C48.3628 36.8422 48.9601 37.1836 48.9601 37.1836V16.0849C48.9175 14.1649 47.4028 12.6289 45.4828 12.6289H21.5468C16.3841 12.7142 12.2241 16.9382 12.2241 22.1222C12.2241 25.1302 13.5895 27.7116 15.8508 29.5249C16.0001 29.6529 16.1495 29.8022 16.5548 29.8022C17.2588 29.8022 17.7495 29.2476 17.7281 28.6289C17.7068 28.1169 17.4935 27.9249 17.1521 27.6262Z" fill="#190602"/>
<path d="M44.8854 37.6958H26.1121C24.8534 37.6958 23.8294 38.7412 23.8294 39.9998V42.6878C23.8721 43.9252 24.9388 45.0132 26.1761 45.0132H27.5628V42.6878H26.1761V40.0425C26.1761 40.0425 26.5174 40.0425 26.9441 40.0425C29.3121 40.0425 31.0614 42.2398 31.0614 44.6078C31.0614 46.6985 29.1628 49.3652 25.9841 49.1518C23.1468 48.9598 21.6321 46.4425 21.6321 44.6078V21.7172C21.6321 20.6932 20.8001 19.8398 19.7548 19.8398H17.8774V22.1865H19.2641V44.6078C19.2001 49.1732 22.5068 51.4772 25.9628 51.4772L44.8854 51.5412C48.7041 51.5412 51.7974 48.4478 51.7974 44.6292C51.7974 40.8105 48.7041 37.6958 44.8854 37.6958ZM49.4294 44.7572C49.3441 47.2105 47.3388 49.1732 44.8854 49.1732L31.7228 49.1305C32.7681 47.9145 33.4081 46.3358 33.4081 44.6292C33.4081 41.9198 31.7868 40.0638 31.7868 40.0638H44.8854C47.4028 40.0638 49.4294 42.1118 49.4294 44.6292V44.7572Z" fill="#190602"/>
<path d="M39.9789 22.5919H25.6855V20.2666H39.9789C40.5549 20.2666 41.0029 20.7359 41.0029 21.2906V21.5679C41.0029 22.1439 40.5335 22.5919 39.9789 22.5919Z" fill="#190602"/>
<path d="M39.9789 33.6212H25.6855V31.2959H39.9789C40.5549 31.2959 41.0029 31.7652 41.0029 32.3199V32.5972C41.0029 33.1519 40.5335 33.6212 39.9789 33.6212Z" fill="#190602"/>
<path d="M42.4534 28.1173H25.6641V25.792H42.4534C43.0294 25.792 43.4774 26.2613 43.4774 26.816V27.0933C43.4987 27.648 43.0294 28.1173 42.4534 28.1173Z" fill="#190602"/>
</g>
<defs>
<clipPath id="clip0_801_335">
<rect width="64" height="64" fill="white"/>
</clipPath>
</defs>
</svg>
