<svg width="120" height="120" viewBox="0 0 120 120" fill="none" xmlns="http://www.w3.org/2000/svg">
<path d="M89.3418 30.98C75.7999 16.6146 53.5443 16.305 39.6328 30.2886C25.7213 44.2723 25.4217 67.2537 38.9636 81.619L47.8664 72.6705C39.133 63.3498 39.3434 48.4829 48.3495 39.4301C57.3556 30.3773 71.7533 30.5604 80.5411 39.8263L89.3418 30.98Z" fill="#00E0CA"/>
<path d="M30.2024 90.4491C43.7443 104.814 65.9995 105.124 79.9109 91.1399C93.8223 77.1563 94.122 54.1751 80.5803 39.8098L71.6785 48.7578C80.4118 58.0785 80.2014 72.9454 71.1953 81.9982C62.1893 91.051 47.7916 90.8679 39.0038 81.602L30.2024 90.4491Z" fill="#00E0CA"/>
</svg>
