<svg width="64" height="64" viewBox="0 0 64 64" fill="none" xmlns="http://www.w3.org/2000/svg">
<g clip-path="url(#clip0_1386_49)">
<path d="M0 32C0 49.6731 14.3269 64 32 64C49.6731 64 64 49.6731 64 32C64 14.3269 49.6731 0 32 0C14.3269 0 0 14.3269 0 32Z" fill="#EB5440"/>
<path d="M35.9803 36.8387L35.9859 36.835C35.9859 36.835 35.9803 36.8387 35.9766 36.8406C35.9784 36.8406 35.9803 36.8406 35.9822 36.8406L35.9803 36.8387Z" fill="#F5F5F5"/>
<path d="M35.9767 36.8408C27.8224 39.2901 21.0792 42.8629 16.8549 47.0471L16.6685 47.2335C17.792 48.2962 19.0236 49.2473 20.3545 50.0556L20.6402 49.7054C21.7934 48.2962 23.0302 46.9357 24.3175 45.6536C27.7719 42.2114 31.7227 39.2326 35.9767 36.8408Z" fill="#F5F5F5"/>
<path d="M36.919 33.21H10C10.3258 37.5771 11.9475 41.582 14.4926 44.8395L14.6093 44.7228C17.224 42.1429 20.6279 39.7982 24.7338 37.7548C28.3327 35.9623 32.4647 34.4241 36.919 33.21Z" fill="#F5F5F5"/>
<path d="M26.5996 15.2608C33.8968 22.5319 43.0805 27.3398 53.1545 29.1637C51.9403 18.3842 42.7652 10 31.6165 10C28.6725 10 25.8662 10.5871 23.3037 11.6462C24.3437 12.8987 25.4551 14.1181 26.5996 15.2626V15.2608Z" fill="#F5F5F5"/>
<path d="M16.8551 16.1512C21.0794 20.3424 27.8261 23.91 35.9821 26.3645C31.7247 23.9675 27.7704 20.9905 24.3143 17.5465C23.0304 16.2679 21.7953 14.9074 20.6369 13.4947L20.3512 13.1445C19.0204 13.9528 17.7888 14.9022 16.6704 15.9648L16.8568 16.1512H16.8551Z" fill="#F5F5F5"/>
<path d="M26.5996 47.9366C25.4498 49.0811 24.3402 50.3005 23.3037 51.553C25.8627 52.6121 28.6725 53.1991 31.6165 53.1991C42.7652 53.1991 51.9403 44.8132 53.158 34.0303C43.0858 35.8541 33.902 40.662 26.603 47.9331L26.5996 47.9366Z" fill="#F5F5F5"/>
<path d="M24.7285 25.4369V25.4404C20.6261 23.397 17.224 21.0505 14.6093 18.4741L14.4926 18.3574C11.9475 21.6149 10.3258 25.6198 10 29.987H36.9138C32.4612 28.7728 28.3327 27.2346 24.7285 25.4369Z" fill="#F5F5F5"/>
</g>
<defs>
<clipPath id="clip0_1386_49">
<rect width="64" height="64" fill="white"/>
</clipPath>
</defs>
</svg>
