<svg width="64" height="64" viewBox="0 0 64 64" fill="none" xmlns="http://www.w3.org/2000/svg">
<g clip-path="url(#clip0_1389_46)">
<path d="M0 32C0 49.6731 14.3269 64 32 64C49.6731 64 64 49.6731 64 32C64 14.3269 49.6731 0 32 0C14.3269 0 0 14.3269 0 32Z" fill="white"/>
<mask id="mask0_1389_46" style="mask-type:luminance" maskUnits="userSpaceOnUse" x="7" y="20" width="50" height="24">
<path d="M56.9765 20.1689H7.02344V43.6666H56.9765V20.1689Z" fill="white"/>
</mask>
<g mask="url(#mask0_1389_46)">
<path d="M56.2984 31.8799C55.9312 36.9164 43.1622 39.0641 35.0488 39.2292C34.8663 39.2292 34.5902 39.2623 34.5736 39.128C34.555 38.9814 34.8454 38.9732 35.0467 38.965C42.1022 38.744 49.8983 37.6227 54.2134 34.4901C60.9951 28.5718 44.5336 24.9353 35.3807 24.9003C35.084 24.8919 34.5654 24.9497 34.5964 24.7267C34.6214 24.5389 35.1068 24.6255 35.3973 24.6318C43.4196 24.8031 55.9249 26.9074 56.3004 31.8799H56.2984Z" fill="#222222"/>
<path d="M34.9055 39.9043C34.1546 39.9043 33.9451 39.5327 33.9035 39.2168C33.8744 39.0021 33.9367 38.7934 34.0736 38.6282C34.3288 38.3247 34.7271 38.3062 34.9906 38.2937H35.0154C46.0521 37.9447 51.3153 35.7517 53.7922 33.9634C55.4975 32.4643 55.1469 31.5308 55.0307 31.2232C53.867 28.1297 43.3282 25.6022 35.3786 25.5713C35.3122 25.5713 35.2562 25.5713 35.198 25.5713C34.8432 25.5754 34.4014 25.5795 34.1151 25.2594C33.9658 25.0901 33.8953 24.865 33.9263 24.6379C34.0281 23.8614 34.9077 23.9254 35.2374 23.9481C35.2997 23.9522 35.3599 23.9563 35.4118 23.9585C40.0753 24.0576 45.1186 24.7493 48.8983 25.8067C54.064 27.2521 56.7817 29.28 56.9724 31.8302L56.9767 31.8798L56.9724 31.9294C56.7838 34.5086 54.0224 36.5611 48.7614 38.0295C44.9048 39.1053 39.7828 39.8074 35.0633 39.9024H35.0527H35.0424C35.0176 39.9024 34.9906 39.9024 34.9615 39.9024C34.9428 39.9024 34.9242 39.9024 34.9055 39.9024V39.9043Z" fill="#222222"/>
<path d="M7.70178 31.9584C8.06898 26.9219 20.8378 24.7742 28.9513 24.6091C29.1339 24.6091 29.4098 24.576 29.4264 24.7103C29.4451 24.8569 29.1546 24.8651 28.9535 24.8733C21.8979 25.0943 14.1018 26.2156 9.78671 29.3482C3.00501 35.2665 19.4665 38.903 28.6194 38.938C28.9162 38.9464 29.4348 38.8886 29.4037 39.1116C29.3787 39.2994 28.8933 39.2128 28.6028 39.2065C20.5806 39.0351 8.07519 36.9309 7.69971 31.9584H7.70178Z" fill="#222222"/>
<path d="M29.0386 39.8997C28.9306 39.8997 28.8332 39.8936 28.7627 39.8873C28.7004 39.8832 28.6403 39.8791 28.5884 39.877C23.9227 39.7779 18.8815 39.0861 15.1017 38.0289C9.93611 36.5834 7.21845 34.5575 7.02759 32.0072L7.02344 31.9578L7.02759 31.9082C7.21636 29.329 9.9776 27.2763 15.2386 25.8081C19.0953 24.7323 24.2173 24.0302 28.9369 23.9352H28.9472H28.9576C28.9826 23.9352 29.0095 23.9352 29.0386 23.9352C29.829 23.9167 30.0529 24.2987 30.0965 24.6229C30.1256 24.8377 30.0633 25.0482 29.9264 25.2135C29.6712 25.517 29.2729 25.5355 29.0095 25.548H28.9845C17.948 25.8969 12.6849 28.09 10.2079 29.8783C8.50259 31.3774 8.85318 32.3109 8.96937 32.6185C10.1332 35.7118 20.672 38.2394 28.6216 38.2704C28.6879 38.2704 28.744 38.2704 28.802 38.2704C29.1567 38.2663 29.5986 38.2622 29.885 38.5823C30.0344 38.7516 30.1049 38.9767 30.0738 39.2038C29.9928 39.8131 29.4348 39.9059 29.0386 39.9059V39.8997Z" fill="#222222"/>
<path d="M31.9981 42.9952C32.1322 42.9952 32.2409 38.036 32.2409 31.9186C32.2409 25.8011 32.1322 20.8418 31.9981 20.8418C31.8642 20.8418 31.7554 25.8011 31.7554 31.9186C31.7554 38.036 31.8642 42.9952 31.9981 42.9952Z" fill="#222222"/>
<path d="M31.9981 43.6664C31.3073 43.6664 31.2763 43.0655 31.2285 42.159C31.1994 41.5953 31.1724 40.7898 31.1496 39.7656C31.1041 37.6676 31.0791 34.8819 31.0791 31.9187C31.0791 28.9554 31.1041 26.1697 31.1496 24.0717C31.1724 23.0475 31.1994 22.2421 31.2285 21.6784C31.2763 20.7697 31.3073 20.1709 31.9981 20.1709C32.6889 20.1709 32.7202 20.7718 32.7678 21.6784C32.7969 22.2421 32.8238 23.0475 32.8467 24.0717C32.8922 26.1676 32.9172 28.9554 32.9172 31.9187C32.9172 34.8819 32.8922 37.6698 32.8467 39.7656C32.8238 40.7898 32.7969 41.5953 32.7678 42.159C32.7202 43.0676 32.6889 43.6664 31.9981 43.6664Z" fill="#222222"/>
<path d="M31.999 32.16C38.1447 32.16 43.1268 32.0517 43.1268 31.9183C43.1268 31.7849 38.1447 31.6768 31.999 31.6768C25.8531 31.6768 20.8711 31.7849 20.8711 31.9183C20.8711 32.0517 25.8531 32.16 31.999 32.16Z" fill="#222222"/>
<path d="M31.998 32.8336C29.0211 32.8336 26.2204 32.8088 24.1147 32.7633C23.0857 32.7406 22.2766 32.7138 21.7103 32.6849C20.7975 32.6374 20.1958 32.6063 20.1958 31.9187C20.1958 31.2312 20.7995 31.2001 21.7103 31.1526C22.2766 31.1237 23.0857 31.0969 24.1147 31.0741C26.2204 31.0287 29.0211 31.0039 31.998 31.0039C34.975 31.0039 37.7735 31.0287 39.8812 31.0741C40.9102 31.0969 41.7193 31.1237 42.2857 31.1526C43.1985 31.2001 43.8001 31.2312 43.8001 31.9187C43.8001 32.6063 43.1964 32.6374 42.2857 32.6849C41.7193 32.7138 40.9102 32.7406 39.8812 32.7633C37.7757 32.8088 34.975 32.8336 31.998 32.8336Z" fill="#222222"/>
</g>
</g>
<defs>
<clipPath id="clip0_1389_46">
<rect width="64" height="64" fill="white"/>
</clipPath>
</defs>
</svg>
