<svg width="426" height="426" viewBox="0 0 426 426" fill="none" xmlns="http://www.w3.org/2000/svg">
<g clip-path="url(#clip0_1_69)">
<path d="M360.873 212.267C358.638 242.918 280.93 255.988 231.554 256.993C230.443 256.993 228.763 257.194 228.662 256.377C228.549 255.485 230.316 255.435 231.541 255.385C274.479 254.04 321.924 247.216 348.184 228.152C389.456 192.135 289.276 170.004 233.574 169.791C231.768 169.74 228.612 170.092 228.801 168.735C228.953 167.592 231.907 168.119 233.675 168.157C282.496 169.2 358.6 182.006 360.885 212.267H360.873Z" fill="#222222"/>
<path d="M230.682 261.102C226.112 261.102 224.837 258.84 224.584 256.918C224.407 255.611 224.786 254.341 225.619 253.336C227.172 251.489 229.596 251.376 231.2 251.3H231.351C298.517 249.176 330.547 235.83 345.621 224.947C355.999 215.824 353.865 210.143 353.158 208.271C346.076 189.445 281.94 174.063 233.561 173.875C233.157 173.875 232.816 173.875 232.462 173.875C230.303 173.9 227.614 173.925 225.872 171.977C224.963 170.947 224.534 169.577 224.723 168.195C225.342 163.469 230.695 163.859 232.702 163.997C233.081 164.022 233.447 164.047 233.763 164.06C262.144 164.663 292.836 168.873 315.838 175.308C347.275 184.104 363.814 196.445 364.975 211.965L365.001 212.267L364.975 212.569C363.827 228.265 347.022 240.756 315.005 249.692C291.535 256.239 260.364 260.512 231.642 261.09H231.578H231.515C231.364 261.09 231.2 261.09 231.023 261.09C230.909 261.09 230.796 261.09 230.682 261.09V261.102Z" fill="#222222"/>
<path d="M65.1282 212.745C67.3629 182.094 145.07 169.024 194.447 168.019C195.558 168.019 197.237 167.818 197.338 168.635C197.452 169.527 195.684 169.577 194.46 169.627C151.522 170.972 104.077 177.796 77.8165 196.86C36.545 232.877 136.725 255.008 192.427 255.221C194.233 255.272 197.389 254.92 197.2 256.277C197.048 257.42 194.094 256.893 192.326 256.855C143.505 255.812 67.4007 243.006 65.1156 212.745H65.1282Z" fill="#222222"/>
<path d="M194.978 261.077C194.321 261.077 193.728 261.04 193.299 261.002C192.92 260.977 192.554 260.952 192.238 260.939C163.844 260.336 133.165 256.126 110.162 249.692C78.7257 240.895 62.1868 228.566 61.0253 213.046L61 212.745L61.0253 212.443C62.1741 196.747 78.9782 184.255 110.995 175.32C134.466 168.773 165.637 164.5 194.359 163.922H194.422H194.485C194.637 163.922 194.801 163.922 194.978 163.922C199.788 163.809 201.151 166.134 201.416 168.107C201.593 169.414 201.214 170.695 200.381 171.701C198.828 173.548 196.404 173.661 194.801 173.737H194.649C127.484 175.86 95.4539 189.207 80.3795 200.09C70.0017 209.213 72.1353 214.894 72.8424 216.766C79.925 235.591 144.061 250.973 192.44 251.162C192.844 251.162 193.185 251.162 193.538 251.162C195.697 251.137 198.386 251.112 200.129 253.06C201.038 254.09 201.467 255.46 201.278 256.842C200.785 260.55 197.389 261.115 194.978 261.115V261.077Z" fill="#222222"/>
<path d="M212.988 279.915C213.804 279.915 214.466 249.735 214.466 212.506C214.466 175.277 213.804 145.096 212.988 145.096C212.173 145.096 211.511 175.277 211.511 212.506C211.511 249.735 212.173 279.915 212.988 279.915Z" fill="#222222"/>
<path d="M212.989 283.999C208.785 283.999 208.596 280.342 208.305 274.825C208.128 271.395 207.964 266.493 207.825 260.26C207.548 247.492 207.396 230.539 207.396 212.506C207.396 194.472 207.548 177.519 207.825 164.751C207.964 158.518 208.128 153.617 208.305 150.186C208.596 144.656 208.785 141.012 212.989 141.012C217.193 141.012 217.383 144.669 217.673 150.186C217.85 153.617 218.014 158.518 218.153 164.751C218.43 177.506 218.582 194.472 218.582 212.506C218.582 230.539 218.43 247.505 218.153 260.26C218.014 266.493 217.85 271.395 217.673 274.825C217.383 280.355 217.193 283.999 212.989 283.999Z" fill="#222222"/>
<path d="M212.993 213.977C250.394 213.977 280.714 213.318 280.714 212.506C280.714 211.694 250.394 211.036 212.993 211.036C175.591 211.036 145.272 211.694 145.272 212.506C145.272 213.318 175.591 213.977 212.993 213.977Z" fill="#222222"/>
<path d="M212.989 218.074C194.872 218.074 177.828 217.923 165.013 217.646C158.751 217.508 153.827 217.345 150.381 217.169C144.826 216.88 141.164 216.691 141.164 212.506C141.164 208.322 144.838 208.133 150.381 207.844C153.827 207.668 158.751 207.505 165.013 207.366C177.828 207.09 194.872 206.939 212.989 206.939C231.106 206.939 248.137 207.09 260.964 207.366C267.226 207.505 272.15 207.668 275.597 207.844C281.152 208.133 284.813 208.322 284.813 212.506C284.813 216.691 281.139 216.88 275.597 217.169C272.15 217.345 267.226 217.508 260.964 217.646C248.15 217.923 231.106 218.074 212.989 218.074Z" fill="#222222"/>
</g>
<defs>
<clipPath id="clip0_1_69">
<rect width="304" height="143" fill="white" transform="translate(61 141)"/>
</clipPath>
</defs>
</svg>
