<svg width="64" height="64" viewBox="0 0 64 64" fill="none" xmlns="http://www.w3.org/2000/svg">
<g clip-path="url(#clip0_1249_48)">
<path d="M0 32C0 49.6731 14.3269 64 32 64C49.6731 64 64 49.6731 64 32C64 14.3269 49.6731 0 32 0C14.3269 0 0 14.3269 0 32Z" fill="white"/>
<path d="M52.0028 40.5425L44.8233 30.7883C44.0435 29.7283 42.8885 29.0933 41.6587 28.9533C41.3787 28.921 41.1287 28.7585 40.9887 28.5135C40.8462 28.2685 40.8312 27.971 40.9437 27.711C41.4362 26.5762 41.4662 25.2587 40.9362 24.0538L36.0792 12.9598C35.3592 11.3124 33.7318 10.25 31.9345 10.25C30.1372 10.25 28.5098 11.3149 27.7898 12.9598L22.9328 24.0538C22.4053 25.2587 22.4328 26.5762 22.9253 27.711C23.0377 27.971 23.0202 28.2685 22.8803 28.5135C22.7378 28.7585 22.4903 28.921 22.2103 28.9533C20.9804 29.0933 19.8255 29.7283 19.0456 30.7883L11.8662 40.5425C10.8013 41.9898 10.6938 43.9297 11.5912 45.487C12.4911 47.0418 14.226 47.9193 16.0108 47.7218L28.0473 46.382C29.3547 46.237 30.4822 45.5545 31.217 44.5597C31.3845 44.3322 31.652 44.1972 31.9345 44.1972C32.217 44.1972 32.482 44.3322 32.652 44.5597C33.3868 45.5545 34.5143 46.237 35.8217 46.382L47.8582 47.7218C49.643 47.9218 51.3778 47.0443 52.2778 45.487C53.1752 43.9297 53.0677 41.9898 52.0028 40.5425ZM26.0725 25.4462L30.937 14.3396C31.112 13.9422 31.5045 13.6847 31.937 13.6847C32.3695 13.6847 32.7618 13.9422 32.9368 14.3396L37.8015 25.4462C37.954 25.7962 37.9215 26.2012 37.7115 26.5212C37.5015 26.8412 37.1465 27.0335 36.7615 27.0335H27.1098C26.7275 27.0335 26.37 26.8412 26.16 26.5212C25.95 26.2012 25.9175 25.7962 26.07 25.4462H26.0725ZM28.5698 42.3548C28.3973 42.6973 28.0623 42.9272 27.6823 42.9697L15.6334 44.3097C15.2034 44.3572 14.7834 44.1472 14.566 43.7722C14.3485 43.3972 14.376 42.9297 14.6335 42.5798L21.8203 32.8157C22.0478 32.5082 22.4128 32.3332 22.7953 32.3557C23.1777 32.3757 23.5227 32.5882 23.7152 32.9205L23.7227 32.933L28.5348 41.2673L28.5423 41.2798C28.7348 41.6123 28.7448 42.0173 28.5723 42.3573L28.5698 42.3548ZM32.9243 38.5852C32.7195 38.9375 32.3445 39.1575 31.9345 39.1575C31.527 39.1575 31.1495 38.94 30.9445 38.5877L27.2473 32.1857C27.0423 31.8332 27.0423 31.3957 27.2473 31.0432C27.4523 30.6908 27.8273 30.4708 28.2373 30.4708H35.6292C36.0367 30.4708 36.4142 30.6858 36.6192 31.0407C36.824 31.3957 36.824 31.8307 36.6192 32.1832L32.9243 38.5852ZM49.3055 43.7722C49.088 44.1472 48.6705 44.3597 48.2382 44.3122L36.1892 42.9722C35.8092 42.9297 35.4742 42.6998 35.3017 42.3573C35.1292 42.0148 35.1392 41.6098 35.3317 41.2798L35.3392 41.2673L40.1513 32.933L40.1588 32.9205C40.3513 32.5882 40.6962 32.3757 41.0787 32.3557C41.4612 32.3357 41.8262 32.5082 42.0537 32.8157L49.2405 42.5798C49.498 42.9297 49.523 43.3972 49.308 43.7722H49.3055Z" fill="#E81899"/>
</g>
<defs>
<clipPath id="clip0_1249_48">
<rect width="64" height="64" fill="white"/>
</clipPath>
</defs>
</svg>
