<svg width="64" height="64" viewBox="0 0 64 64" fill="none" xmlns="http://www.w3.org/2000/svg">
  <g clip-path="url(#clip0_1323_46)">
  <path d="M0 32C0 49.6731 14.3269 64 32 64C49.6731 64 64 49.6731 64 32C64 14.3269 49.6731 0 32 0C14.3269 0 0 14.3269 0 32Z" fill="black"/>
  <mask id="mask0_1323_46" style="mask-type:luminance" maskUnits="userSpaceOnUse" x="-4" y="-4" width="72" height="72">
  <path d="M68 -4H-4V68H68V-4Z" fill="white"/>
  </mask>
  <g mask="url(#mask0_1323_46)">
  <path d="M32.0003 10.3818H31.8621C19.9757 10.4647 10.3818 20.1046 10.3818 32.0003C10.3818 43.8959 20.0678 53.6187 32.0003 53.6187C43.9327 53.6187 53.6187 43.9327 53.6187 32.0003C53.6187 20.0678 43.9327 10.3818 32.0003 10.3818ZM11.8366 32.6816H17.3148C17.3977 36.6499 18.2079 40.3788 19.5614 43.546H15.455C13.2913 40.4432 11.9747 36.7051 11.8366 32.6816ZM39.9829 31.2361C39.9 30.4074 39.6974 29.588 39.366 28.833C39.0253 28.032 38.565 27.2954 37.9757 26.6417C37.8284 24.4135 37.5798 22.3327 37.2575 20.4453H42.7542C44.1721 23.5205 45.0376 27.2309 45.1297 31.2453H39.9736L39.9829 31.2361ZM31.945 11.8182H31.9726C32.3409 11.8182 32.8657 12.1128 33.4826 13.1256C34.0811 14.0923 34.6519 15.5471 35.1399 17.4069C35.278 17.9133 35.3977 18.4381 35.5174 18.9997H28.4095C28.5292 18.4381 28.6581 17.9133 28.787 17.4069C29.2749 15.5471 29.8458 14.1015 30.4442 13.1256C31.0427 12.1312 31.5767 11.8366 31.9358 11.8182H31.945ZM35.7936 20.4268C36.0514 21.9092 36.2724 23.5297 36.4289 25.2514C36.0054 24.966 35.5726 24.7174 35.0939 24.5148C34.0995 24.0913 33.0407 23.8795 31.9542 23.8795C30.8678 23.8795 29.8089 24.1005 28.8146 24.5148C28.3358 24.7174 27.9031 24.9476 27.4795 25.233C27.6268 23.502 27.8478 21.8908 28.1148 20.4084H35.7844C35.7844 20.4176 35.7844 20.4176 35.7844 20.4176L35.7936 20.4268ZM38.4453 31.1992H29.2841C29.6064 29.9102 30.7941 28.9527 32.1844 28.9527H37.7823C38.1506 29.6432 38.3716 30.4074 38.4453 31.1992ZM27.323 27.3322C28.5568 26.0985 30.2049 25.4171 31.945 25.4171C33.6852 25.4171 35.3332 26.0985 36.567 27.3322C36.6038 27.369 36.6315 27.3967 36.6775 27.4427H32.166C30.9598 27.4427 29.8274 27.9031 28.9711 28.7593C28.2898 29.4407 27.857 30.2785 27.7189 31.19H25.4355C25.6289 29.7353 26.2826 28.3726 27.323 27.3322ZM36.9905 18.9905C36.8524 18.3092 36.7051 17.6555 36.5394 17.0294C36.033 15.1143 35.4253 13.4939 34.7072 12.3522C34.6795 12.3153 34.6519 12.2693 34.6243 12.2325C37.1102 13.0243 39.3844 14.8933 41.189 17.6003C41.4744 18.033 41.7598 18.4933 42.0176 18.9721H36.9905C36.9905 18.9813 36.9905 18.9905 36.9905 18.9905ZM29.2013 12.3614C28.4923 13.5031 27.8846 15.1051 27.369 17.0386C27.2033 17.6463 27.056 18.3 26.9179 18.9997H21.8908C22.1486 18.521 22.434 18.0606 22.7194 17.6279C24.524 14.921 26.7982 13.0427 29.2841 12.2601C29.2565 12.2877 29.2289 12.3245 29.2013 12.3706V12.3614ZM26.6601 20.4268C26.3378 22.3051 26.0893 24.3859 25.9419 26.6141C25.3527 27.277 24.8923 28.0135 24.5424 28.8146C24.2202 29.5788 24.0084 30.389 23.944 31.2176H18.7788C18.8708 27.1941 19.7455 23.4928 21.1542 20.4176H26.6601V20.4268ZM17.3148 31.2361H11.8366C11.9839 27.2217 13.3005 23.5112 15.4642 20.4361H19.5706C18.2263 23.5757 17.4069 27.277 17.3148 31.2361ZM18.7696 32.6816H23.9348C23.9992 33.5102 24.211 34.3297 24.5332 35.1031C24.8739 35.9041 25.3527 36.6499 25.9327 37.3036C26.08 39.5501 26.3286 41.6401 26.6509 43.5276H21.145C19.7179 40.4432 18.8432 36.7143 18.7696 32.6724V32.6816ZM31.9634 52.1363C31.5951 52.1363 31.0703 51.8509 30.4442 50.8289C29.8458 49.8621 29.2749 48.4074 28.787 46.5476C28.6488 46.0412 28.5292 45.5164 28.4095 44.9547H35.5174C35.3977 45.5164 35.2688 46.0412 35.1399 46.5476C34.6519 48.4074 34.0811 49.8529 33.4826 50.8289C32.8657 51.8509 32.3225 52.1363 31.9726 52.1363H31.9634ZM28.1148 43.5276C27.857 42.0361 27.6361 40.3972 27.4795 38.657C27.9031 38.9424 28.3542 39.1726 28.8146 39.366C29.8089 39.7895 30.8678 40.0013 31.9542 40.0013C33.0407 40.0013 34.0903 39.7803 35.0939 39.366C35.5726 39.1634 36.0146 38.9148 36.4381 38.6478C36.2724 40.4064 36.0698 42.0361 35.8028 43.5276H28.124H28.1148ZM36.5854 36.5946C35.3517 37.8284 33.7036 38.5097 31.9634 38.5097C30.2233 38.5097 28.5752 37.8284 27.3414 36.5946C26.2826 35.5358 25.6381 34.1731 25.4632 32.7184H27.7465C27.8939 33.6299 28.3358 34.4678 28.9987 35.1491C29.855 36.0054 30.9875 36.4657 32.1936 36.4657H36.7051C36.6499 36.521 36.6222 36.5486 36.5854 36.5854V36.5946ZM37.7823 34.965H32.1844C30.7941 34.965 29.6248 34.0166 29.2841 32.7184H38.4453C38.3624 33.5102 38.1322 34.2652 37.7823 34.965ZM26.9271 44.9823C27.0652 45.6637 27.2125 46.3174 27.3783 46.9435C27.8846 48.8586 28.4923 50.479 29.2105 51.6207C29.2381 51.6575 29.2657 51.7036 29.2933 51.7404C26.8074 50.9486 24.5332 49.0795 22.7286 46.3726C22.4432 45.9399 22.1578 45.4795 21.9 45.0008H26.9271C26.9271 44.9916 26.9271 44.9823 26.9271 44.9823ZM34.7072 51.6115C35.4161 50.4698 36.0238 48.8678 36.5394 46.9343C36.7051 46.3174 36.8524 45.6729 36.9905 44.9731H42.0361C41.7783 45.4519 41.4928 45.9123 41.2074 46.345C39.4028 49.0519 37.1286 50.9302 34.6427 51.7128C34.6519 51.6852 34.6795 51.6483 34.7072 51.6023V51.6115ZM37.2667 43.5276C37.589 41.6217 37.8376 39.5317 38.0033 37.2852C38.5834 36.6315 39.0529 35.8857 39.3936 35.0846C39.7159 34.3112 39.9276 33.5102 39.9921 32.6816H45.1573C45.0652 36.7235 44.1905 40.4616 42.7818 43.546H37.276C37.276 43.5368 37.276 43.5276 37.276 43.5276H37.2667ZM46.5936 32.6816H52.1731C52.035 36.7051 50.7276 40.4432 48.5731 43.546H44.3563C45.7005 40.3788 46.5199 36.6499 46.6028 32.6816H46.5936ZM46.5936 31.2361C46.5015 27.277 45.7005 23.5849 44.3471 20.4361H48.5363C50.7 23.5205 52.0166 27.2217 52.1639 31.2361H46.5844H46.5936ZM47.4222 18.9905H43.6657C43.2698 18.2263 42.8463 17.5082 42.4043 16.8176C41.4376 15.3721 40.3327 14.1291 39.1174 13.1072C42.3675 14.3409 45.2217 16.3849 47.4222 18.9905ZM24.7266 13.1808C23.5297 14.1752 22.4524 15.4089 21.5133 16.8084C21.0621 17.4898 20.6386 18.2079 20.2519 18.9813H16.5783C18.7419 16.4125 21.5409 14.3962 24.7266 13.1716V13.1808ZM16.5506 44.9823H20.2519C20.6478 45.7465 21.0713 46.4647 21.5133 47.1552C22.48 48.6008 23.5849 49.8437 24.8002 50.8657C21.5593 49.6136 18.7327 47.5788 16.5506 44.9823ZM39.0345 50.9118C40.2867 49.8898 41.4284 48.61 42.4043 47.146C42.8555 46.4647 43.279 45.7465 43.6657 44.9731H47.4499C45.2217 47.6248 42.3399 49.6872 39.0345 50.9118Z" fill="white"/>
  </g>
  </g>
  <defs>
  <clipPath id="clip0_1323_46">
  <rect width="64" height="64" fill="white"/>
  </clipPath>
  </defs>
  </svg>