<svg width="220" height="220" viewBox="0 0 220 220" fill="none" xmlns="http://www.w3.org/2000/svg">
<g clip-path="url(#clip0_6120_1157)">
<path d="M110 220C49.2504 220 0 170.75 0 110C0 49.2504 49.2504 -1.52588e-05 110 -1.52588e-05C170.75 -1.52588e-05 220 49.2504 220 110C220 170.75 170.761 220 110 220Z" fill="#FE5161"/>
<path d="M110.501 51C72.164 51 57 74.4285 57 108.926C57 143.423 72.164 168 110.501 168C148.838 168 164 143.421 164 108.926C164 74.4303 148.838 51 110.501 51ZM110.506 149.095C93.0205 149.095 83.9643 138.834 81.2308 121.564C81.0249 120.262 82.0207 119.079 83.3342 119.079H137.408C138.717 119.079 139.712 120.255 139.514 121.555C136.855 138.83 127.997 149.095 110.508 149.095H110.506ZM83.107 100.352C81.813 100.352 80.8243 99.2019 80.9983 97.9124C83.423 79.9521 92.4915 69.9055 110.506 69.9055C128.521 69.9055 137.382 79.9557 139.735 97.9213C139.904 99.2072 138.917 100.352 137.625 100.352H83.107Z" fill="white"/>
</g>
<defs>
<clipPath id="clip0_6120_1157">
<rect width="220" height="220" fill="white"/>
</clipPath>
</defs>
</svg>
