<?xml version="1.0" encoding="UTF-8" standalone="no"?><!-- Generator: Gravit.io --><svg xmlns="http://www.w3.org/2000/svg" xmlns:xlink="http://www.w3.org/1999/xlink" style="isolation:isolate" viewBox="0 0 32 32" width="32pt" height="32pt"><defs><clipPath id="_clipPath_dMNKgNiFz51eZACH2vOxIR8VKEq53idv"><rect width="32" height="32"/></clipPath></defs><g clip-path="url(#_clipPath_dMNKgNiFz51eZACH2vOxIR8VKEq53idv)"><path d=" M 27.069 23.412 L 21.969 26.356 L 16.869 29.301 C 16.372 29.588 15.566 29.588 15.069 29.301 L 9.969 26.356 L 4.869 23.412 C 4.372 23.125 3.969 22.427 3.969 21.853 L 3.969 15.964 L 3.969 10.075 C 3.969 9.501 4.372 8.803 4.869 8.516 L 9.969 5.572 L 15.069 2.627 C 15.566 2.34 16.372 2.34 16.869 2.627 L 21.969 5.572 L 27.069 8.516 C 27.566 8.803 27.969 9.501 27.969 10.075 L 27.969 15.964 L 27.969 21.853 C 27.969 22.427 27.566 23.125 27.069 23.412 Z " fill="none" vector-effect="non-scaling-stroke" stroke-width="2" stroke="#ffffff" stroke-linejoin="round" stroke-linecap="round" stroke-miterlimit="3"/><circle vector-effect="non-scaling-stroke" cx="15.968790584484031" cy="15.96396247110121" r="6.03603752889879" fill="none" stroke-width="2" stroke="#ffffff" stroke-linejoin="round" stroke-linecap="round" stroke-miterlimit="3"/></g></svg>