<?xml version="1.0" encoding="UTF-8" standalone="no"?><!-- Generator: Gravit.io --><svg xmlns="http://www.w3.org/2000/svg" xmlns:xlink="http://www.w3.org/1999/xlink" style="isolation:isolate" viewBox="0 0 48 48" width="48pt" height="48pt"><defs><clipPath id="_clipPath_0pxTja3BPDMOXVwUKEhMISyXxGcVF3IQ"><rect width="48" height="48"/></clipPath></defs><g clip-path="url(#_clipPath_0pxTja3BPDMOXVwUKEhMISyXxGcVF3IQ)"><path d=" M 26.009 8.81 L 26.039 8.81 C 26.049 8.81 26.059 8.81 26.069 8.81 C 26.499 8.83 26.919 8.95 27.289 9.17 C 27.289 9.17 27.299 9.17 27.309 9.18 L 37.709 15.18 C 38.129 15.42 38.439 15.82 38.569 16.29 C 38.579 16.34 38.589 16.38 38.599 16.43 L 38.629 16.67 C 38.639 16.72 38.639 16.76 38.639 16.8 C 38.639 17.13 38.559 17.44 38.399 17.72 C 38.159 18.16 37.749 18.47 37.269 18.61 C 37.229 18.62 37.179 18.63 37.129 18.64 L 36.889 18.67 C 36.849 18.67 36.799 18.68 36.759 18.68 C 36.439 18.68 36.119 18.59 35.839 18.44 C 35.839 18.44 35.839 18.44 35.839 18.44 L 35.129 18.03 L 35.129 30.86 C 35.129 30.87 35.129 30.87 35.129 30.87 C 35.119 31.37 34.929 31.84 34.579 32.2 C 34.219 32.55 33.749 32.74 33.249 32.74 C 32.749 32.74 32.269 32.55 31.919 32.2 C 31.569 31.84 31.369 31.37 31.369 30.87 C 31.369 30.87 31.369 30.87 31.369 30.86 L 31.369 15.87 L 27.459 13.7 L 27.459 22.95 L 28.969 22.95 C 28.979 22.95 28.979 22.95 28.979 22.95 C 29.479 22.96 29.949 23.15 30.309 23.5 C 30.649 23.86 30.849 24.33 30.849 24.83 C 30.849 25.33 30.649 25.81 30.309 26.16 C 29.949 26.51 29.479 26.71 28.979 26.71 C 28.979 26.71 28.979 26.71 28.969 26.71 L 27.459 26.71 L 27.459 37.31 C 27.459 37.31 27.459 37.31 27.459 37.31 C 27.459 37.8 27.259 38.28 26.909 38.63 C 26.559 38.99 26.079 39.19 25.579 39.19 C 25.079 39.19 24.599 38.99 24.249 38.63 C 23.899 38.28 23.699 37.8 23.699 37.31 C 23.699 37.31 23.699 37.31 23.699 37.31 L 23.699 24.83 L 23.699 24.83 L 23.699 11.26 L 23.699 11.23 C 23.699 11.22 23.699 11.22 23.699 11.21 C 23.699 10.67 23.879 10.14 24.199 9.7 C 24.629 9.14 25.289 8.81 25.999 8.81 C 25.999 8.81 26.009 8.81 26.009 8.81 Z " fill="white"/><path d=" M 13.389 23.79 L 13.389 30.86 C 13.389 30.87 13.389 30.87 13.389 30.87 C 13.389 31.37 13.189 31.84 12.849 32.2 C 12.489 32.55 12.009 32.74 11.519 32.74 C 11.019 32.74 10.539 32.55 10.179 32.2 C 9.839 31.84 9.639 31.37 9.639 30.87 C 9.639 30.87 9.639 30.87 9.639 30.86 L 9.639 17.71 L 9.639 17.65 C 9.629 17.64 9.629 17.63 9.629 17.63 C 9.629 17.35 9.679 17.09 9.759 16.83 C 10.009 15.99 10.789 15.41 11.669 15.4 C 12.239 15.4 12.789 15.65 13.169 16.07 C 13.339 16.24 13.479 16.43 13.589 16.64 L 18.309 26.49 L 18.309 12.41 C 18.309 12.4 18.309 12.4 18.309 12.4 C 18.309 11.9 18.509 11.43 18.849 11.07 C 19.209 10.73 19.689 10.53 20.179 10.53 C 20.679 10.53 21.159 10.73 21.519 11.07 C 21.859 11.43 22.059 11.9 22.059 12.4 C 22.059 12.4 22.059 12.4 22.059 12.41 L 22.059 32.58 L 22.059 32.64 C 22.059 32.64 22.059 32.65 22.059 32.66 C 22.069 32.93 22.019 33.2 21.939 33.46 C 21.679 34.3 20.909 34.88 20.029 34.89 C 19.459 34.88 18.909 34.63 18.519 34.21 C 18.359 34.04 18.219 33.85 18.109 33.64 L 13.389 23.79 Z " fill="white"/><path d=" M 39.424 34.095 L 32.145 38.297 L 24.866 42.5 C 24.388 42.776 23.612 42.776 23.134 42.5 L 15.855 38.297 L 8.576 34.095 C 8.098 33.819 7.71 33.147 7.71 32.595 L 7.71 24.19 L 7.71 15.785 C 7.71 15.233 8.098 14.561 8.576 14.285 L 15.855 10.082 L 23.134 5.88 C 23.612 5.604 24.388 5.604 24.866 5.88 L 32.145 10.082 L 39.424 14.285 C 39.902 14.561 40.29 15.233 40.29 15.785 L 40.29 24.19 L 40.29 32.595 C 40.29 33.147 39.902 33.819 39.424 34.095 Z  M 41.42 37.56 L 34.15 41.76 L 26.87 45.96 C 26.83 45.98 26.8 46 26.77 46.02 C 25.92 46.48 24.97 46.72 24 46.71 C 23.03 46.72 22.08 46.48 21.23 46.02 C 21.2 46 21.17 45.98 21.13 45.96 L 13.85 41.76 L 6.58 37.56 C 6.54 37.54 6.51 37.52 6.48 37.5 C 5.66 37 4.98 36.29 4.5 35.45 C 4.01 34.62 3.74 33.67 3.71 32.7 C 3.71 32.67 3.71 32.63 3.71 32.59 L 3.71 24.19 L 3.71 15.78 C 3.71 15.75 3.71 15.71 3.71 15.68 C 3.74 14.71 4.01 13.76 4.5 12.93 C 4.98 12.09 5.66 11.38 6.48 10.88 C 6.51 10.86 6.54 10.84 6.58 10.82 L 13.85 6.62 L 21.13 2.42 C 21.17 2.4 21.2 2.38 21.23 2.36 C 22.08 1.9 23.03 1.66 24 1.67 C 24.97 1.66 25.92 1.9 26.77 2.36 C 26.8 2.38 26.83 2.4 26.87 2.42 L 34.15 6.62 L 41.42 10.82 C 41.46 10.84 41.49 10.86 41.52 10.88 C 42.34 11.38 43.02 12.09 43.5 12.93 C 43.99 13.76 44.26 14.71 44.29 15.68 C 44.29 15.71 44.29 15.75 44.29 15.78 L 44.29 24.19 L 44.29 32.59 C 44.29 32.63 44.29 32.67 44.29 32.7 C 44.26 33.67 43.99 34.62 43.5 35.45 C 43.02 36.29 42.34 37 41.52 37.5 C 41.49 37.52 41.46 37.54 41.42 37.56 Z " fill-rule="evenodd" fill="white"/></g></svg>