<?xml version="1.0" encoding="UTF-8" standalone="no"?><!-- Generator: Gravit.io --><svg xmlns="http://www.w3.org/2000/svg" xmlns:xlink="http://www.w3.org/1999/xlink" style="isolation:isolate" viewBox="0 0 48 48" width="48pt" height="48pt"><defs><clipPath id="_clipPath_TmT191pKJ3MjpoLJUjiifBfB0ysP9DSa"><rect width="48" height="48"/></clipPath></defs><g clip-path="url(#_clipPath_TmT191pKJ3MjpoLJUjiifBfB0ysP9DSa)"><path d=" M 16.253 31.747 Q 16.253 30.935 16.253 30.624 C 16.253 30.072 16.7 29.653 17.251 29.688 Q 22.777 30.046 25.533 30.046 L 25.533 30.046 L 25.533 30.046 Q 26.179 30.046 26.559 29.666 L 26.559 29.666 L 26.559 29.666 Q 26.938 29.286 26.938 28.64 L 26.938 28.64 L 26.938 25.828 L 21.624 25.828 L 21.624 25.828 Q 18.671 25.828 17.336 24.492 L 17.336 24.492 L 17.336 24.492 Q 16 23.156 16 20.204 L 16 20.204 L 16 19.641 L 16 19.641 Q 16 16.689 17.336 15.353 L 17.336 15.353 L 17.336 15.353 Q 18.671 14.018 21.624 14.018 L 21.624 14.018 L 22.186 14.018 L 22.016 12.481 C 21.955 11.932 22.353 11.487 22.905 11.487 L 25.123 11.487 C 25.675 11.487 26.074 11.932 26.013 12.481 L 25.842 14.018 L 29.341 14.018 C 29.893 14.018 30.341 14.466 30.341 15.018 L 30.341 16.954 C 30.341 17.506 29.893 17.954 29.341 17.954 L 22.749 17.954 L 22.749 17.954 Q 21.062 17.954 21.062 19.641 L 21.062 19.641 L 21.062 20.204 L 21.062 20.204 Q 21.062 21.891 22.749 21.891 L 22.749 21.891 L 26.657 21.891 L 26.657 21.891 Q 29.413 21.891 30.707 23.185 L 30.707 23.185 L 30.707 23.185 Q 32 24.478 32 27.234 L 32 27.234 L 32 28.64 L 32 28.64 Q 32 31.395 30.721 32.689 L 30.721 32.689 L 30.721 32.689 Q 29.441 33.982 26.685 33.982 L 26.685 33.982 L 25.898 33.982 L 26.034 35.517 C 26.083 36.067 25.675 36.513 25.123 36.513 L 22.905 36.513 C 22.353 36.513 21.952 36.068 22.01 35.519 L 22.186 33.842 L 22.186 33.842 Q 18.924 33.673 17.249 33.514 C 16.699 33.462 16.253 33.017 16.253 32.521 Q 16.253 32.521 16.253 31.747 Z " fill="white"/><path d=" M 7 24 C 7 14.617 14.617 7 24 7 C 33.383 7 41 14.617 41 24 C 41 33.383 33.383 41 24 41 C 14.617 41 7 33.383 7 24 Z  M 3 24 C 3 18.43 5.21 13.09 9.15 9.15 C 13.09 5.21 18.43 3 24 3 C 29.57 3 34.91 5.21 38.85 9.15 C 42.79 13.09 45 18.43 45 24 L 45 24 C 45 29.57 42.79 34.91 38.85 38.85 C 34.91 42.79 29.57 45 24 45 C 18.43 45 13.09 42.79 9.15 38.85 C 5.21 34.91 3 29.57 3 24 Z " fill-rule="evenodd" fill="white"/></g></svg>