<?xml version="1.0" encoding="UTF-8" standalone="no"?><!-- Generator: Gravit.io --><svg xmlns="http://www.w3.org/2000/svg" xmlns:xlink="http://www.w3.org/1999/xlink" style="isolation:isolate" viewBox="0 0 48 48" width="48pt" height="48pt"><defs><clipPath id="_clipPath_W4W3VDPBtjn4LUDgXMS8iccDNe23T5IR"><rect width="48" height="48"/></clipPath></defs><g clip-path="url(#_clipPath_W4W3VDPBtjn4LUDgXMS8iccDNe23T5IR)"><path d=" M 8 5 L 40 5 L 40 43 L 8 43 L 8 5 Z  M 6 1 L 42 1 C 43.104 1 44 1.896 44 3 L 44 45 C 44 46.104 43.104 47 42 47 L 6 47 C 4.896 47 4 46.104 4 45 L 4 3 C 4 1.896 4.896 1 6 1 Z " fill-rule="evenodd" fill="rgb(0,0,0)"/><path d=" M 35 8 C 35.53 8 36.04 8.21 36.41 8.59 C 36.79 8.96 37 9.47 37 10 C 37 10.53 36.79 11.04 36.41 11.41 C 36.04 11.79 35.53 12 35 12 L 13 12 C 12.47 12 11.96 11.79 11.59 11.41 C 11.21 11.04 11 10.53 11 10 C 11 9.47 11.21 8.96 11.59 8.59 C 11.96 8.21 12.47 8 13 8 L 35 8 Z " fill="rgb(0,0,0)"/><path d=" M 35 15 C 35.53 15 36.04 15.21 36.41 15.59 C 36.79 15.96 37 16.47 37 17 C 37 17.53 36.79 18.04 36.41 18.41 C 36.04 18.79 35.53 19 35 19 L 13 19 C 12.47 19 11.96 18.79 11.59 18.41 C 11.21 18.04 11 17.53 11 17 C 11 16.47 11.21 15.96 11.59 15.59 C 11.96 15.21 12.47 15 13 15 L 35 15 Z " fill="rgb(0,0,0)"/><path d=" M 29.3 23.95 C 29.57 23.5 30.02 23.18 30.54 23.05 C 31.05 22.93 31.6 23.02 32.05 23.3 C 32.5 23.57 32.82 24.02 32.95 24.54 C 33.07 25.05 32.98 25.6 32.7 26.05 L 24.952 38.645 C 24.084 40.055 22.429 40.249 21.259 39.079 L 16.59 34.41 C 16.21 34.04 16 33.53 16 33 C 16 32.47 16.21 31.96 16.59 31.59 C 16.96 31.21 17.47 31 18 31 C 18.53 31 19.04 31.21 19.41 31.59 L 22.62 34.8 L 29.3 23.95 Z " fill="rgb(0,0,0)"/></g></svg>