<svg width="15" height="16" viewBox="0 0 15 16" fill="none" xmlns="http://www.w3.org/2000/svg">
<path d="M1 15H2V16H13V15H14V14H15V7H14V1H13V0H10V1H9V5H6V1H5V0H2V1H1V7H0V14H1V15ZM6 13H9V14H6V13ZM14 12H13V13H10V12H9V9H10V8H13V9H14V12ZM10 2H11V1H12V2H13V6H11V5H10V2ZM2 2H3V1H4V2H5V5H4V6H2V2ZM1 9H2V8H5V9H6V12H5V13H2V12H1V9Z" fill="white"/>
<path d="M13 10H12V11H11V12H13V10Z" fill="white"/>
<path d="M5 10H4V11H3V12H5V10Z" fill="white"/>
<path d="M11 9H10V10H11V9Z" fill="white"/>
<path d="M3 9H2V10H3V9Z" fill="white"/>
</svg>
