<svg width="15" height="15" viewBox="0 0 15 15" fill="none" xmlns="http://www.w3.org/2000/svg">
<path d="M10 14H9V15H10V14Z" fill="white"/>
<path d="M6 14H5V15H6V14Z" fill="white"/>
<path d="M3 14V13H4V11H2V12H1V14H3Z" fill="white"/>
<path d="M10 11H5V13H10V11Z" fill="white"/>
<path d="M11 11V13H12V14H14V12H13V11H11Z" fill="white"/>
<path d="M1 7H3V9H4V10H11V9H12V7H14V6H15V1H14V0H12V2H13V3H12V4H11V3H10V2H5V3H4V4H3V3H2V2H3V0H1V1H0V6H1V7ZM4 6H6V8H5V7H4V6ZM10 7V8H9V6H11V7H10Z" fill="white"/>
</svg>
