<svg width="13" height="16" viewBox="0 0 13 16" fill="none" xmlns="http://www.w3.org/2000/svg">
<path d="M7 16H10V15H12V14H13V11H12V10H4V11H3V15H4V16H6V14H5V12H6V14H7V16ZM9 11V13H10V14H9V13H8V11H9Z" fill="white"/>
<path d="M11 8H10V9H11V8Z" fill="white"/>
<path d="M12 7H11V8H12V7Z" fill="white"/>
<path d="M2 7H1V8H2V7Z" fill="white"/>
<path d="M11 0H10V1H11V0Z" fill="white"/>
<path d="M2 1H1V2H3V3H4V5H2V4H1V2H0V7H1V6H2V7H3V6H6V7H7V6H9V7H8V8H6V7H5V8H4V7H3V8H2V9H9V8H10V7H11V5H12V7H13V2H12V1H11V2H10V1H9V0H6V1H5V2H4V1H5V0H2V1ZM9 4H8V5H6V3H7V2H9V4Z" fill="white"/>
</svg>
