<svg width="15" height="15" viewBox="0 0 15 15" fill="none" xmlns="http://www.w3.org/2000/svg">
<path d="M2 13H1V14H2V13Z" fill="white"/>
<path d="M6 12H5V13H6V12Z" fill="white"/>
<path d="M3 12H2V13H3V12Z" fill="white"/>
<path d="M1 12H0V13H1V12Z" fill="white"/>
<path d="M12 10H11V11H12V10Z" fill="white"/>
<path d="M10 10H9V12H8V13H6V14H5V13H3V14H2V15H9V14H10V13H11V11H10V10Z" fill="white"/>
<path d="M6 10H4V11H6V10Z" fill="white"/>
<path d="M3 10H2V11H3V10Z" fill="white"/>
<path d="M1 10H0V11H1V10Z" fill="white"/>
<path d="M8 7V4H5V5H6V6H5V7H8Z" fill="white"/>
<path d="M14 2H13V1H12V0H5V1H4V2H3V3H2V7H3V8H2V7H1V8H0V9H1V10H2V9H3V10H4V9H6V10H8V9H10V10H11V9H12V10H14V9H15V3H14V2ZM5 8V7H4V4H5V3H8V4H9V7H8V8H5Z" fill="white"/>
</svg>
