<svg width="14" height="13" viewBox="0 0 14 13" fill="none" xmlns="http://www.w3.org/2000/svg">
<path d="M10 12H4V13H10V12Z" fill="white"/>
<path d="M11 11H10V12H11V11Z" fill="white"/>
<path d="M4 11H3V12H4V11Z" fill="white"/>
<path d="M12 10H11V11H12V10Z" fill="white"/>
<path d="M3 10H2V11H3V10Z" fill="white"/>
<path d="M14 4H13V7H14V4Z" fill="white"/>
<path d="M11 7H10V8H8V7H6V8H4V7H3V5H2V8H3V9H5V11H9V9H11V8H12V5H11V7Z" fill="white"/>
<path d="M1 4H0V7H1V4Z" fill="white"/>
<path d="M5 5V6H9V5H11V4H10V2H8V3H6V2H4V4H3V5H5Z" fill="white"/>
<path d="M12 2H11V4H12V2Z" fill="white"/>
<path d="M3 2H2V4H3V2Z" fill="white"/>
<path d="M11 1H10V2H11V1Z" fill="white"/>
<path d="M4 1H3V2H4V1Z" fill="white"/>
<path d="M10 0H4V1H10V0Z" fill="white"/>
</svg>
