<svg width="16" height="15" viewBox="0 0 16 15" fill="none" xmlns="http://www.w3.org/2000/svg">
<path d="M1 15H4V10H1V11H0V14H1V15Z" fill="white"/>
<path d="M13 10V15H14V14H15V11H14V10H13Z" fill="white"/>
<path d="M5 10V13H6V14H11V13H12V10H11V11H10V10H8V11H7V10H5ZM10 12V13H8V12H10Z" fill="white"/>
<path d="M16 8H0V9H16V8Z" fill="white"/>
<path d="M13 5H11V7H13V5Z" fill="white"/>
<path d="M10 6H9V7H10V6Z" fill="white"/>
<path d="M9 5H8V6H9V5Z" fill="white"/>
<path d="M7 5H3V7H7V5Z" fill="white"/>
<path d="M12 4V3H11V2H10V1H9V0H4V1H6V2H5V3H4V4H12Z" fill="white"/>
<path d="M4 1H3V2H4V1Z" fill="white"/>
</svg>
