<svg width="320" height="450" viewBox="0 0 320 450" fill="none" xmlns="http://www.w3.org/2000/svg">
<g clip-path="url(#clip0_301_4)">
<path d="M33.3333 56.0003H36.6667V52.667H30V59.3337H33.3333V56.0003Z" fill="white" fill-opacity="0.6"/>
<path d="M40.0002 39.3333H43.3335V36H46.6668V32.6667H50.0002V29.3333H56.6668V32.6667H60.0002V36H66.6668V39.3333H60.0002V36H56.6668V32.6667H50.0002V36H46.6668V39.3333H43.3335V59.3333H40.0002V56H36.6668V59.3333H33.3335V62.6667H40.0002V69.3333H43.3335V72.6667H46.6668V76H73.3335V72.6667H76.6668V69.3333H80.0002V59.3333H76.6668V49.3333H73.3335V46H66.6668V42.6667H73.3335V46H76.6668V39.3333H73.3335V36H70.0002V32.6667H66.6668V29.3333H70.0002V26H43.3335V29.3333H40.0002V32.6667H36.6668V52.6667H40.0002V39.3333ZM73.3335 66H70.0002V69.3333H56.6668V66H53.3335V62.6667H56.6668V66H70.0002V62.6667H73.3335V66ZM60.0002 52.6667V56H53.3335V52.6667H60.0002ZM60.0002 46H53.3335V49.3333H50.0002V46H53.3335V42.6667H60.0002V46ZM73.3335 56H66.6668V52.6667H73.3335V56Z" fill="white" fill-opacity="0.6"/>
<path d="M76.6668 32.667H73.3335V36.0003H76.6668V32.667Z" fill="white" fill-opacity="0.6"/>
<path d="M73.3333 29.333H70V32.6663H73.3333V29.333Z" fill="white" fill-opacity="0.6"/>
</g>
<g clip-path="url(#clip1_301_4)">
<path d="M107.143 61.1424V68.2853H110.714V71.8567H114.286V75.4282H146.429V71.8567H150V64.7139H146.429V53.9996H142.857V61.1424H139.286V53.9996H135.714V50.4282H146.429V46.8567H125V43.2853H121.429V39.7139H114.286V43.2853H110.714V53.9996H107.143V57.571H103.571V53.9996H107.143V50.4282H100V61.1424H107.143ZM139.286 68.2853H135.714V71.8567H125V68.2853H121.429V64.7139H125V68.2853H135.714V64.7139H139.286V68.2853ZM128.571 50.4282V53.9996H125V61.1424H121.429V53.9996H117.857V50.4282H128.571Z" fill="white" fill-opacity="0.6"/>
<path d="M114.286 39.7143V36.1429H121.428V39.7143H125V43.2857H150V36.1429H146.428V32.5714H142.857V29H107.143V32.5714H103.571V46.8571H107.143V43.2857H110.714V39.7143H114.286Z" fill="white" fill-opacity="0.6"/>
</g>
<g clip-path="url(#clip2_301_4)">
<path d="M205.714 76H202.143V79.5714H205.714V76Z" fill="white" fill-opacity="0.6"/>
<path d="M187.857 76H184.286V79.5714H187.857V76Z" fill="white" fill-opacity="0.6"/>
<path d="M198.572 72.4287H191.429V76.0001H198.572V72.4287Z" fill="white" fill-opacity="0.6"/>
<path d="M187.857 65.2861V72.429H191.428V68.8576H198.571V72.429H202.143V65.2861H187.857Z" fill="white" fill-opacity="0.6"/>
<path d="M173.571 61.7144H177.143V72.4287H180.714V76.0001H184.286V65.2859H187.857V61.7144H202.143V65.2859H205.714V76.0001H209.286V72.4287H212.857V61.7144H216.429V58.143H220V47.4287H216.429V51.0001H212.857V58.143H198.571V51.0001H191.429V58.143H177.143V51.0001H173.571V47.4287H170V58.143H173.571V61.7144Z" fill="white" fill-opacity="0.6"/>
<path d="M212.857 47.4283V33.1426H209.286V36.714H205.714V40.2854H184.286V36.714H180.714V33.1426H177.143V47.4283H212.857Z" fill="white" fill-opacity="0.6"/>
<path d="M184.286 36.7143H205.714V33.1429H209.286V29.5714H205.714V26H184.286V29.5714H180.714V33.1429H184.286V36.7143Z" fill="white" fill-opacity="0.6"/>
</g>
<g clip-path="url(#clip3_301_4)">
<path d="M252.5 67.5V70.625H249.375V73.75H246.25V76.875H283.75V73.75H280.625V70.625H277.5V67.5H252.5Z" fill="white" fill-opacity="0.6"/>
<path d="M252.5 45.625V48.75H249.375V51.875H246.25V58.125H249.375V61.25H252.5V64.375H277.5V61.25H280.625V58.125H283.75V51.875H280.625V48.75H277.5V45.625H274.375V42.5H271.25V39.375H258.75V42.5H255.625V45.625H252.5ZM261.875 61.25V58.125H258.75V55H261.875V51.875H268.125V55H271.25V58.125H268.125V61.25H261.875ZM274.375 51.875H271.25V48.75H274.375V51.875ZM258.75 48.75V51.875H255.625V48.75H258.75Z" fill="white" fill-opacity="0.6"/>
<path d="M243.125 45.625H252.5V42.5H249.375V39.375H246.25V36.25H252.5V42.5H255.625V33.125H252.5V30H243.125V33.125H240V42.5H243.125V45.625Z" fill="white" fill-opacity="0.6"/>
<path d="M277.5 36.25H283.75V39.375H280.625V42.5H277.5V45.625H286.875V42.5H290V33.125H286.875V30H277.5V33.125H274.375V42.5H277.5V36.25Z" fill="white" fill-opacity="0.6"/>
</g>
<g clip-path="url(#clip4_301_4)">
<path d="M103.571 204.143H107.143V211.286H110.714V214.858H139.286V211.286H142.857V197H139.286V200.572H135.714V197H132.143V193.429H128.571V189.858H125V186.286H114.286V189.858H110.714V200.572H107.143V193.429H100V200.572H103.571V204.143ZM117.857 193.429H121.429V200.572H117.857V193.429ZM125 211.286V207.715H121.429V204.143H125V207.715H132.143V211.286H125Z" fill="white" fill-opacity="0.6"/>
<path d="M114.286 186.286V182.714H125V186.286H128.571V189.857H132.143V193.429H150V182.714H146.428V179.143H142.857V175.571H139.286V172H107.143V175.571H103.571V189.857H110.714V186.286H114.286Z" fill="white" fill-opacity="0.6"/>
</g>
<g clip-path="url(#clip5_301_4)">
<path d="M185.385 146.154H208.462V138.462H193.077V134.615H189.231V130.769H193.077V134.615H212.308V130.769H216.154V126.923H212.308V123.077H208.462V119.231H204.615V126.923H200.769V119.231H204.615V115.385H200.769V111.538H185.385V103.846H181.538V100H173.846V103.846H170V119.231H173.846V123.077H181.538V142.308H185.385V146.154ZM196.923 126.923H193.077V119.231H196.923V126.923ZM177.692 119.231V111.538H173.846V107.692H177.692V111.538H181.538V119.231H177.692Z" fill="white" fill-opacity="0.6"/>
<path d="M181.538 142.308H173.846V146.154H181.538V142.308Z" fill="white" fill-opacity="0.6"/>
<path d="M173.846 134.615H170V142.308H173.846V134.615Z" fill="white" fill-opacity="0.6"/>
<path d="M220 130.77H216.154V134.616H220V130.77Z" fill="white" fill-opacity="0.6"/>
<path d="M177.692 130.77H173.846V134.616H177.692V130.77Z" fill="white" fill-opacity="0.6"/>
<path d="M204.615 115.385H208.461V119.231H212.307V103.846H208.461V100H200.769V103.846H196.923V107.692H200.769V111.538H204.615V115.385Z" fill="white" fill-opacity="0.6"/>
</g>
<g clip-path="url(#clip6_301_4)">
<path d="M33.3333 146H36.6667V149.333H73.3333V146H76.6667V142.667H80V119.333H76.6667V99.3333H73.3333V96H63.3333V99.3333H60V112.667H50V99.3333H46.6667V96H36.6667V99.3333H33.3333V119.333H30V142.667H33.3333V146ZM50 139.333H60V142.667H50V139.333ZM76.6667 136H73.3333V139.333H63.3333V136H60V126H63.3333V122.667H73.3333V126H76.6667V136ZM63.3333 102.667H66.6667V99.3333H70V102.667H73.3333V116H66.6667V112.667H63.3333V102.667ZM36.6667 102.667H40V99.3333H43.3333V102.667H46.6667V112.667H43.3333V116H36.6667V102.667ZM33.3333 126H36.6667V122.667H46.6667V126H50V136H46.6667V139.333H36.6667V136H33.3333V126Z" fill="white" fill-opacity="0.6"/>
<path d="M73.3332 129.333H69.9998V132.666H66.6665V136H73.3332V129.333Z" fill="white" fill-opacity="0.6"/>
<path d="M46.6667 129.333H43.3333V132.666H40V136H46.6667V129.333Z" fill="white" fill-opacity="0.6"/>
<path d="M66.6668 126H63.3335V129.333H66.6668V126Z" fill="white" fill-opacity="0.6"/>
<path d="M39.9998 126H36.6665V129.333H39.9998V126Z" fill="white" fill-opacity="0.6"/>
</g>
<g clip-path="url(#clip7_301_4)">
<path d="M243.846 351.154H247.692V355H282.308V351.154H286.154V347.308H290V308.846H286.154V305H278.462V308.846H274.615V316.538H270.769V312.692H259.231V316.538H255.385V308.846H251.538V305H243.846V308.846H240V347.308H243.846V351.154ZM263.077 351.154V347.308H266.923V351.154H263.077ZM286.154 343.462H282.308V347.308H270.769V343.462H266.923V331.923H270.769V328.077H282.308V331.923H286.154V343.462ZM282.308 316.538V312.692H286.154V320.385H278.462V316.538H282.308ZM243.846 312.692H247.692V316.538H251.538V320.385H243.846V312.692ZM243.846 343.462V331.923H247.692V328.077H259.231V331.923H263.077V343.462H259.231V347.308H247.692V343.462H243.846Z" fill="white" fill-opacity="0.6"/>
<path d="M259.231 343.461V331.923H247.692V343.461H259.231ZM251.539 335.769H255.385V339.615H251.539V335.769Z" fill="white" fill-opacity="0.6"/>
<path d="M282.308 331.923H270.769V343.461H282.308V331.923ZM274.615 339.615V335.769H278.461V339.615H274.615Z" fill="white" fill-opacity="0.6"/>
</g>
<g clip-path="url(#clip8_301_4)">
<path d="M103.571 140.857H107.143V144.429H110.714V148H139.286V144.429H142.857V140.857H146.429V137.286H150V108.714H146.429V105.143H142.857V101.571H139.286V98H110.714V101.571H107.143V105.143H103.571V108.714H100V137.286H103.571V140.857ZM135.714 133.714V137.286H132.143V140.857H117.857V137.286H114.286V133.714H110.714V123H139.286V133.714H135.714ZM135.714 119.429H132.143V108.714H135.714V119.429ZM117.857 108.714V119.429H114.286V108.714H117.857Z" fill="white" fill-opacity="0.6"/>
<path d="M132.143 126.571H128.571V130.143H121.428V126.571H117.857V137.286H132.143V126.571Z" fill="white" fill-opacity="0.6"/>
</g>
<g clip-path="url(#clip9_301_4)">
<path d="M175.571 347.857H179.143V351.429H182.714V355H211.286V351.429H214.857V347.857H218.429V344.286H222V315.714H218.429V312.143H214.857V308.571H211.286V305H182.714V308.571H179.143V312.143H175.571V315.714H172V344.286H175.571V347.857ZM186.286 319.286H189.857V330H186.286V319.286ZM207.714 330H204.143V319.286H207.714V330ZM200.571 337.143V333.571H204.143V337.143H200.571V340.714H193.429V337.143H189.857V333.571H193.429V337.143H200.571Z" fill="white" fill-opacity="0.6"/>
</g>
<g clip-path="url(#clip10_301_4)">
<path d="M60.3332 401.667V398.333H53.6665V395H46.9998V398.333H43.6665V411.667H40.3332V405H33.6665V411.667H36.9998V418.333H40.3332V421.667H73.6665V418.333H76.9998V411.667H73.6665V405H66.9998V411.667H63.6665V405H66.9998V401.667H60.3332ZM50.3332 405H53.6665V411.667H50.3332V405ZM66.9998 415V418.333H60.3332V415H66.9998Z" fill="white" fill-opacity="0.6"/>
<path d="M30.3333 388.333H33.6667V385H37V381.666H40.3333V378.333H33.6667V381.666H30.3333V385H27V391.666H30.3333V388.333Z" fill="white" fill-opacity="0.6"/>
<path d="M36.9998 385V388.334H33.6665V401.667H40.3332V398.334H43.6665V395H46.9998V391.667H53.6665V395H60.3332V398.334H66.9998V401.667H76.9998V388.334H73.6665V385H70.3332V381.667H40.3332V385H36.9998Z" fill="white" fill-opacity="0.6"/>
<path d="M60.3333 375H47V378.333H60.3333V375Z" fill="white" fill-opacity="0.6"/>
</g>
<g clip-path="url(#clip11_301_4)">
<path d="M243.571 196.571H254.286V200.143H247.143V203.714H243.571V210.857H250.714V207.286H254.286V210.857H250.714V214.429H257.857V210.857H272.143V214.429H279.286V210.857H275.714V207.286H279.286V210.857H286.429V203.714H282.857V200.143H272.143V196.571H282.857V193H286.429V175.143H282.857V171.571H279.286V168H250.714V171.571H247.143V175.143H243.571V185.857H240V193H243.571V196.571ZM268.571 182.286H265V175.143H268.571V182.286ZM261.429 185.857V189.429H254.286V185.857H261.429ZM254.286 175.143V182.286H250.714V175.143H254.286Z" fill="white" fill-opacity="0.6"/>
<path d="M286.428 175.143H290V168H282.857V171.571H286.428V175.143Z" fill="white" fill-opacity="0.6"/>
<path d="M247.143 171.571V168H240V175.143H243.571V171.571H247.143Z" fill="white" fill-opacity="0.6"/>
</g>
<g clip-path="url(#clip12_301_4)">
<path d="M73.4284 277.857H69.8569V281.429H73.4284V277.857Z" fill="white" fill-opacity="0.6"/>
<path d="M34.1427 277.857H30.5713V281.429H34.1427V277.857Z" fill="white" fill-opacity="0.6"/>
<path d="M37.7143 274.286V267.143H34.1429V263.571H37.7143V267.143H41.2857V274.286H37.7143V281.429H34.1429V285H69.8571V281.429H66.2857V274.286H62.7143V267.143H66.2857V263.571H69.8571V267.143H66.2857V274.286H77V263.571H73.4286V260H69.8571V242.143H66.2857V238.571H62.7143V235H41.2857V238.571H37.7143V242.143H34.1429V260H30.5714V263.571H27V274.286H37.7143ZM48.4286 274.286H52V277.857H48.4286V274.286ZM52 270.714H48.4286V267.143H52V270.714ZM37.7143 249.286H41.2857V245.714H44.8571V242.143H59.1429V245.714H62.7143V249.286H66.2857V256.429H62.7143V260H52V263.571H48.4286V260H41.2857V256.429H37.7143V249.286Z" fill="white" fill-opacity="0.6"/>
<path d="M44.8571 249.286H41.2856V256.429H44.8571V249.286Z" fill="white" fill-opacity="0.6"/>
<path d="M62.7145 249.286H59.1431V256.429H62.7145V249.286Z" fill="white" fill-opacity="0.6"/>
<path d="M48.4284 249.285V256.428H55.5712V249.285H59.1426V245.714H44.8569V249.285H48.4284Z" fill="white" fill-opacity="0.6"/>
</g>
<g clip-path="url(#clip13_301_4)">
<path d="M199 193V189H191V193H187V197H171V209H175V213H179V217H211V213H215V209H219V197H203V193H199ZM203 205H199V209H191V205H187V201H191V205H199V201H203V205Z" fill="white" fill-opacity="0.6"/>
<path d="M203 193H215V189H219V173H215V169H203V173H199V189H203V193ZM203 177H211V185H203V177Z" fill="white" fill-opacity="0.6"/>
<path d="M191 189V173H187V169H175V173H171V189H175V193H187V189H191ZM179 185V177H187V185H179Z" fill="white" fill-opacity="0.6"/>
</g>
<g clip-path="url(#clip14_301_4)">
<path d="M99.8462 328.077H96V335.769H99.8462V328.077Z" fill="white" fill-opacity="0.6"/>
<path d="M103.692 335.769H99.8462V339.615H107.538V347.308H111.385V351.154H115.231V355H149.846V351.154H153.692V343.462H149.846V335.769H146V339.615H142.154V335.769H146V331.923H149.846V328.077H146V324.231H138.308V328.077H134.462V324.231H138.308V320.385H146V324.231H149.846V316.538H146V312.692H142.154V308.846H138.308V305H111.385V308.846H107.538V312.692H103.692V324.231H99.8462V328.077H103.692V335.769ZM130.615 335.769H126.769V331.923H130.615V335.769ZM142.154 347.308H138.308V351.154H130.615V347.308H126.769V343.462H130.615V347.308H138.308V343.462H142.154V347.308ZM138.308 331.923V335.769H134.462V331.923H138.308ZM130.615 328.077H126.769V324.231H115.231V335.769H119.077V339.615H115.231V335.769H111.385V324.231H115.231V320.385H126.769V324.231H130.615V328.077Z" fill="white" fill-opacity="0.6"/>
</g>
<g clip-path="url(#clip15_301_4)">
<path d="M254.286 277.286H247.143V280.858H254.286V277.286Z" fill="white" fill-opacity="0.6"/>
<path d="M247.143 273.714H243.571V277.285H247.143V273.714Z" fill="white" fill-opacity="0.6"/>
<path d="M243.571 266.571H247.143V263H254.286V259.429H257.857V255.857H286.429V259.429H290V245.143H286.429V241.571H282.857V238H247.143V241.571H243.571V245.143H240V273.714H243.571V266.571ZM257.857 241.571V245.143H261.429V248.714H257.857V252.286H254.286V248.714H250.714V245.143H254.286V241.571H257.857Z" fill="white" fill-opacity="0.6"/>
<path d="M254.286 263V270.143H250.714V266.572H247.143V273.714H254.286V277.286H257.857V280.857H279.286V277.286H282.857V266.572H275.714V263H282.857V259.429H257.857V263H254.286ZM275.714 273.714H268.572V270.143H275.714V273.714ZM268.572 263V266.572H261.429V263H268.572Z" fill="white" fill-opacity="0.6"/>
</g>
<g clip-path="url(#clip16_301_4)">
<path d="M103.571 277.857H107.143V281.429H110.714V285H139.286V281.429H142.857V277.857H146.429V274.286H150V245.714H146.429V242.143H142.857V238.571H139.286V235H110.714V238.571H107.143V242.143H103.571V245.714H100V274.286H103.571V277.857ZM107.143 270.714V263.571H142.857V270.714H139.286V274.286H135.714V277.857H114.286V274.286H110.714V270.714H107.143ZM135.714 256.429H132.143V245.714H135.714V256.429ZM117.857 245.714V256.429H114.286V245.714H117.857Z" fill="white" fill-opacity="0.6"/>
<path d="M135.714 267.143H114.286V270.714H135.714V267.143Z" fill="white" fill-opacity="0.6"/>
</g>
<g clip-path="url(#clip17_301_4)">
<path d="M31.5714 215.429H74.4286V211.857H78V201.143H74.4286V197.571H70.8571V186.857H74.4286V172.571H70.8571V169H63.7143V172.571H60.1429V183.286H45.8571V172.571H42.2857V169H35.1429V172.571H31.5714V186.857H35.1429V197.571H31.5714V201.143H28V211.857H31.5714V215.429ZM45.8571 194H49.4286V201.143H56.5714V194H60.1429V201.143H56.5714V204.714H49.4286V201.143H45.8571V194ZM67.2857 183.286V176.143H70.8571V183.286H67.2857V186.857H63.7143V183.286H67.2857ZM35.1429 183.286V176.143H38.7143V183.286H42.2857V186.857H38.7143V183.286H35.1429Z" fill="white" fill-opacity="0.6"/>
</g>
<g clip-path="url(#clip18_301_4)">
<path d="M204 248.333H200.667V251.666H204V248.333Z" fill="white" fill-opacity="0.6"/>
<path d="M190.667 248.333H187.333V251.666H190.667V248.333Z" fill="white" fill-opacity="0.6"/>
<path d="M177.333 241.667V261.667H180.667V265H187.333V268.333H184V285H194V278.333H190.667V275H194V278.333H197.333V275H200.667V278.333H197.333V285H204V281.667H207.333V278.333H214V281.667H207.333V285H217.333V271.667H214V268.333H204V265H214V261.667H217.333V241.667H214V238.333H210.667V235H184V238.333H180.667V241.667H177.333ZM194 245V255H197.333V245H210.667V251.667H207.333V255H197.333V258.333H200.667V261.667H197.333V258.333H194V261.667H190.667V258.333H194V255H184V251.667H180.667V245H194Z" fill="white" fill-opacity="0.6"/>
<path d="M217.333 241.667H220.667V235H214V238.333H217.333V241.667Z" fill="white" fill-opacity="0.6"/>
<path d="M177.333 238.333H180.667V235H174V241.667H177.333V238.333Z" fill="white" fill-opacity="0.6"/>
</g>
<g clip-path="url(#clip19_301_4)">
<path d="M286.875 128.125H283.75V134.375H286.875V128.125Z" fill="white" fill-opacity="0.6"/>
<path d="M246.25 128.125H243.125V134.375H246.25V128.125Z" fill="white" fill-opacity="0.6"/>
<path d="M249.375 128.125V140.625H252.5V143.75H255.625V146.875H274.375V143.75H277.5V140.625H280.625V128.125H274.375V131.25H271.25V128.125H258.75V131.25H255.625V128.125H249.375ZM271.25 134.375V137.5H258.75V134.375H271.25Z" fill="white" fill-opacity="0.6"/>
<path d="M277.5 118.75V103.125H274.375V100H268.125V103.125H261.875V100H255.625V103.125H252.5V118.75H277.5ZM271.25 106.25V109.375H268.125V112.5H261.875V109.375H268.125V106.25H271.25Z" fill="white" fill-opacity="0.6"/>
<path d="M286.875 112.5H280.625V118.75H277.5V121.875H252.5V118.75H249.375V112.5H243.125V115.625H240V121.875H243.125V125H286.875V121.875H290V115.625H286.875V112.5Z" fill="white" fill-opacity="0.6"/>
</g>
<g clip-path="url(#clip20_301_4)">
<path d="M30.5714 347.857H34.1429V351.429H37.7143V355H66.2857V351.429H69.8571V347.857H73.4286V344.286H77V322.857H73.4286V330H69.8571V333.572H59.1429V330H55.5714V322.857H48.4286V330H44.8571V333.572H34.1429V330H30.5714V322.857H27V344.286H30.5714V347.857ZM59.1429 340.715H55.5714V344.286H48.4286V340.715H55.5714V337.143H59.1429V340.715Z" fill="white" fill-opacity="0.6"/>
<path d="M62.7145 322.857H59.1431V326.429H62.7145V322.857Z" fill="white" fill-opacity="0.6"/>
<path d="M37.7145 322.857H34.1431V326.429H37.7145V322.857Z" fill="white" fill-opacity="0.6"/>
<path d="M77 319.286V315.714H73.4286V312.143H69.8571V308.571H66.2857V305H37.7143V308.571H34.1429V312.143H30.5714V315.714H27V319.286H77Z" fill="white" fill-opacity="0.6"/>
</g>
<g clip-path="url(#clip21_301_4)">
<path d="M206.375 410.5H187.625V413.625H206.375V410.5Z" fill="white" fill-opacity="0.6"/>
<path d="M218.875 398H215.75V388.625H212.625V385.5H209.5V382.375H203.25V388.625H200.125V379.25H203.25V373H197V376.125H193.875V388.625H197V391.75H193.875V388.625H190.75V382.375H184.5V385.5H181.375V388.625H178.25V398H175.125V401.125H172V407.375H175.125V410.5H178.25V419.875H181.375V423H212.625V419.875H215.75V410.5H218.875V407.375H222V401.125H218.875V398ZM190.75 401.125H193.875V404.25H190.75V401.125ZM200.125 401.125H203.25V404.25H200.125V401.125ZM206.375 398H200.125V394.875H206.375V398H209.5V404.25H206.375V398ZM193.875 398H187.625V404.25H184.5V398H187.625V394.875H193.875V398ZM187.625 419.875V416.75H184.5V410.5H187.625V407.375H206.375V410.5H209.5V416.75H206.375V419.875H187.625Z" fill="white" fill-opacity="0.6"/>
</g>
<g clip-path="url(#clip22_301_4)">
<path d="M103.571 415.857V423H121.428V419.428H125V423H128.571V419.428H132.143V423H135.714V412.285H132.143V408.714H110.714V412.285H107.143V415.857H103.571Z" fill="white" fill-opacity="0.6"/>
<path d="M100 408.714V415.857H103.571V412.285H107.143V408.714H100Z" fill="white" fill-opacity="0.6"/>
<path d="M150 390.857H146.429V394.429H139.286V390.857H135.714V383.714H139.286V390.857H142.857V380.143H139.286V376.571H135.714V373H107.143V376.571H103.571V380.143H100V401.571H103.571V405.143H114.286V383.714H117.857V405.143H146.429V401.571H132.143V398H150V390.857ZM125 390.857V383.714H128.571V390.857H125Z" fill="white" fill-opacity="0.6"/>
</g>
<g clip-path="url(#clip23_301_4)">
<path d="M243.571 413.143H247.143V416.714H257.857V420.286H261.429V423.857H268.571V420.286H272.143V416.714H282.857V413.143H286.429V409.571H290V388.143H286.429V384.571H282.857V381H272.143V384.571H268.571V388.143H261.429V384.571H257.857V381H247.143V384.571H243.571V388.143H240V409.571H243.571V413.143ZM261.429 409.571V406H257.857V402.429H261.429V406H268.571V402.429H272.143V406H268.571V409.571H261.429ZM279.286 391.714V402.429H275.714V391.714H279.286ZM254.286 391.714V402.429H250.714V391.714H254.286Z" fill="white" fill-opacity="0.6"/>
</g>
<defs>
<clipPath id="clip0_301_4">
<rect width="50" height="50" fill="white" transform="translate(30 26)"/>
</clipPath>
<clipPath id="clip1_301_4">
<rect width="50" height="46.4286" fill="white" transform="translate(100 29)"/>
</clipPath>
<clipPath id="clip2_301_4">
<rect width="50" height="53.5714" fill="white" transform="translate(170 26)"/>
</clipPath>
<clipPath id="clip3_301_4">
<rect width="50" height="46.875" fill="white" transform="translate(240 30)"/>
</clipPath>
<clipPath id="clip4_301_4">
<rect width="50" height="42.8571" fill="white" transform="translate(100 172)"/>
</clipPath>
<clipPath id="clip5_301_4">
<rect width="50" height="46.1538" fill="white" transform="translate(170 100)"/>
</clipPath>
<clipPath id="clip6_301_4">
<rect width="50" height="53.3333" fill="white" transform="translate(30 96)"/>
</clipPath>
<clipPath id="clip7_301_4">
<rect width="50" height="50" fill="white" transform="translate(240 305)"/>
</clipPath>
<clipPath id="clip8_301_4">
<rect width="50" height="50" fill="white" transform="translate(100 98)"/>
</clipPath>
<clipPath id="clip9_301_4">
<rect width="50" height="50" fill="white" transform="translate(172 305)"/>
</clipPath>
<clipPath id="clip10_301_4">
<rect width="50" height="46.6667" fill="white" transform="translate(27 375)"/>
</clipPath>
<clipPath id="clip11_301_4">
<rect width="50" height="46.4286" fill="white" transform="translate(240 168)"/>
</clipPath>
<clipPath id="clip12_301_4">
<rect width="50" height="50" fill="white" transform="translate(27 235)"/>
</clipPath>
<clipPath id="clip13_301_4">
<rect width="48" height="48" fill="white" transform="translate(171 169)"/>
</clipPath>
<clipPath id="clip14_301_4">
<rect width="57.6923" height="50" fill="white" transform="translate(96 305)"/>
</clipPath>
<clipPath id="clip15_301_4">
<rect width="50" height="42.8571" fill="white" transform="translate(240 238)"/>
</clipPath>
<clipPath id="clip16_301_4">
<rect width="50" height="50" fill="white" transform="translate(100 235)"/>
</clipPath>
<clipPath id="clip17_301_4">
<rect width="50" height="46.4286" fill="white" transform="translate(28 169)"/>
</clipPath>
<clipPath id="clip18_301_4">
<rect width="46.6667" height="50" fill="white" transform="translate(174 235)"/>
</clipPath>
<clipPath id="clip19_301_4">
<rect width="50" height="46.875" fill="white" transform="translate(240 100)"/>
</clipPath>
<clipPath id="clip20_301_4">
<rect width="50" height="50" fill="white" transform="translate(27 305)"/>
</clipPath>
<clipPath id="clip21_301_4">
<rect width="50" height="50" fill="white" transform="translate(172 373)"/>
</clipPath>
<clipPath id="clip22_301_4">
<rect width="50" height="50" fill="white" transform="translate(100 373)"/>
</clipPath>
<clipPath id="clip23_301_4">
<rect width="50" height="42.8571" fill="white" transform="translate(240 381)"/>
</clipPath>
</defs>
</svg>
