<svg width="30" height="30" viewBox="0 0 30 30" fill="none" xmlns="http://www.w3.org/2000/svg">
<path fill-rule="evenodd" clip-rule="evenodd" d="M3.79974 0.0664062H26.1997V1.93307H28.0664V3.79974H29.9331V20.5997H28.0664V22.4664H26.1997V24.3331H24.3331V26.1997H22.4664V28.0664H20.5997V29.9331H14.9997V24.3331H3.79974V22.4664H1.93307V20.5997H0.0664062V3.79974H1.93307V1.93307H3.79974V0.0664062ZM3.79974 3.79974V5.66641H1.93307V18.7331H3.79974V20.5997H5.66641V22.4664H16.8664V28.0664H18.7331V26.1997H20.5997V24.3331H22.4664V22.4664H24.3331V20.5997H26.1997V18.7331H28.0664V5.66641H26.1997V3.79974H24.3331V1.93307H5.66641V3.79974H3.79974Z" fill="#252525"/>
<path d="M6.59961 15.933V10.333H23.3996V15.933H6.59961Z" fill="#252525"/>
<path fill-rule="evenodd" clip-rule="evenodd" d="M5.66602 9.40039H24.3327V16.8671H5.66602V9.40039ZM7.53268 11.2671V15.0004H22.466V11.2671H7.53268Z" fill="#252525"/>
<path fill-rule="evenodd" clip-rule="evenodd" d="M5.66693 1.93262H24.3336V3.79928H26.2003V5.66595H28.0669V18.7326H26.2003V20.5993H24.3336V22.466H22.4669V24.3326H20.6003V26.1993H18.7336V28.066H16.8669V22.466H5.66693V20.5993H3.80026V18.7326H1.93359V5.66595H3.80026V3.79928H5.66693V1.93262ZM7.53359 11.266V14.9993H11.2669V11.266H7.53359ZM13.1336 11.266V14.9993H16.8669V11.266H13.1336ZM18.7336 11.266V14.9993H22.4669V11.266H18.7336Z" fill="white"/>
</svg>
