<svg width="195" height="85" viewBox="0 0 195 85" fill="none" xmlns="http://www.w3.org/2000/svg">
<mask id="mask0" mask-type="alpha" maskUnits="userSpaceOnUse" x="0" y="0" width="195" height="85">
<rect width="195" height="85" fill="#C4C4C4"/>
</mask>
<g mask="url(#mask0)">
<path d="M22.705 42.004C21.9957 42.2561 21.2189 42.2624 20.5109 42.0218L7.87229 37.7076C6.98155 37.4056 6.28109 36.7399 5.95974 35.89L-0.298588 19.3496C-0.49672 18.82 -0.318169 18.2249 0.145179 17.8703C6.90408 12.6982 15.2122 9.74633 23.8197 9.45873C24.4118 9.43911 24.9464 9.78393 25.1469 10.3147L31.4042 26.8525C31.7265 27.7022 31.637 28.6491 31.1596 29.4382L24.4066 40.6389C24.0232 41.2698 23.4206 41.7533 22.705 42.004Z" fill="white"/>
<path d="M19.8235 29.7126L14.8168 28.751L20.944 32.8453L23.1606 25.9511L19.8235 29.7126Z" fill="#52D2BC"/>
<path d="M14.4341 27.7331L14.4573 27.7248L19.4144 28.4982L22.7439 24.9385L22.7653 24.9339L22.752 24.9325L22.7647 24.9155L16.3239 19.817L14.4232 27.7215L14.4461 27.7226L14.4341 27.7331Z" fill="#52D2BC"/>
<path d="M25.4282 10.2746C16.907 10.5395 8.6897 13.4587 2.0115 18.5934C1.14959 19.2567 0.820468 20.373 1.19361 21.3674L7.24012 37.3446C7.67852 38.503 8.63029 39.411 9.83771 39.8229L21.9705 44.0191C23.9409 44.7005 26.143 43.9178 27.1913 42.1637L33.6501 31.3652C34.2885 30.2984 34.4047 29.0168 33.9676 27.8654L27.9211 11.8882C27.5451 10.8847 26.538 10.2329 25.4282 10.2746ZM32.7854 28.2774C33.0974 29.098 33.014 30.0116 32.5577 30.7713L26.0989 41.5698C25.355 42.8207 23.7889 43.3829 22.3832 42.9036L10.2462 38.6964C9.38871 38.4 8.71468 37.7512 8.4068 36.9259L2.3603 20.9486C2.16486 20.4358 2.33467 19.8582 2.78123 19.517C9.2503 14.5452 17.2087 11.7178 25.4617 11.4594C26.0319 11.4372 26.5502 11.7705 26.7461 12.2852L32.7854 28.2774Z" fill="#6535FF"/>
<path opacity="0.44" d="M33.7628 27.3321L27.6696 11.2306C27.2916 10.2266 26.2824 9.57384 25.1656 9.61098C21.6315 9.72723 18.1249 10.2935 14.7381 11.2949C16.3392 12.3636 17.6904 13.7388 18.7077 15.335C19.9729 17.2399 20.8689 19.343 21.7576 21.4269C22.2847 22.5357 22.6695 23.7027 22.9038 24.9026C23.3483 27.827 21.9892 30.749 21.9281 33.7113C21.871 36.1283 22.7041 38.4946 23.9544 40.5831C24.4721 41.4363 25.0478 42.2557 25.6778 43.036C26.1618 42.6911 26.5675 42.2551 26.8696 41.7551L33.4314 30.8538C34.0784 29.7795 34.1997 28.4905 33.7628 27.3321Z" fill="#BBC4EF"/>
<path opacity="0.18" d="M11.1217 33.5732L4.16219 34.2422C3.67396 34.4174 3.14046 34.1994 2.97058 33.7553L1.87838 30.8122C1.70851 30.368 1.96658 29.8659 2.45481 29.6907L9.41727 29.0206C9.56993 28.9667 9.73896 29.0003 9.84776 29.1061C9.95657 29.2119 9.98446 29.3698 9.9188 29.5083L7.8919 30.9644C7.80647 31.1462 7.8853 31.3523 8.07236 31.4362L11.1939 32.8857C11.336 32.9524 11.418 33.0926 11.4023 33.2422C11.3866 33.3917 11.2762 33.5219 11.1217 33.5732ZM26.7433 22.7291L32.4987 18.9063C32.7353 18.8213 32.9955 18.8274 33.221 18.9233C33.4464 19.0191 33.6181 19.1967 33.6975 19.4161L34.8021 22.3916C34.9739 22.8406 34.7179 23.3465 34.2305 23.5215L28.4722 27.3453C28.3197 27.3991 28.1506 27.3646 28.0413 27.2573C27.9321 27.1501 27.9035 26.9906 27.9686 26.8511L29.3991 23.7762C29.4837 23.5931 29.404 23.3847 29.2166 23.2992L26.6917 23.4165C26.5523 23.35 26.47 23.2125 26.4811 23.0646C26.4922 22.9167 26.5947 22.7856 26.7433 22.7291Z" fill="#070707"/>
<path d="M34.2247 24.582L28.2007 26.696C28.0563 26.747 27.895 26.7116 27.7899 26.6059C27.6848 26.5001 27.6559 26.3442 27.7163 26.2088L29.0471 23.2224C29.1242 23.0435 29.0462 22.8396 28.8674 22.7525L25.8771 21.284M7.37563 30.8851L10.3392 32.4729C10.4766 32.544 10.5606 32.6906 10.5516 32.8437C10.5426 32.9967 10.4425 33.1258 10.2983 33.1701L4.45266 35.2181C4.2351 35.2963 3.99248 35.2818 3.77926 35.1779C3.56603 35.0741 3.40005 34.8896 3.3186 34.6659L1.5739 30.0078L7.37563 30.8851Z" stroke="#6535FF" stroke-linecap="round" stroke-linejoin="round"/>
<path d="M11.0358 37.8008L21.9016 41.5935" stroke="#BBC4EF" stroke-width="1.76" stroke-linecap="round" stroke-linejoin="round"/>
<path d="M10.6461 32.3457L4.28925 34.5788C3.80177 34.7538 3.26899 34.5359 3.09926 34.0921L1.41353 29.5799C1.2438 29.1361 1.50139 28.6345 1.98887 28.4596L8.34865 26.2254C8.50108 26.1716 8.66989 26.2052 8.77856 26.3109C8.88724 26.4166 8.91512 26.5744 8.84958 26.7127L7.41451 29.7408C7.32925 29.9224 7.40801 30.1283 7.59481 30.2122L10.7121 31.661C10.853 31.7272 10.9348 31.8658 10.9205 32.0142C10.9061 32.1626 10.7985 32.2927 10.6461 32.3457ZM25.6879 19.9527L32.0435 17.7169C32.2807 17.6317 32.5411 17.6368 32.766 17.731C32.9909 17.8253 33.1613 18.0007 33.239 18.2178L34.921 22.7203C35.0903 23.1631 34.8325 23.6639 34.345 23.8389L27.9854 26.0731C27.833 26.1269 27.6642 26.0935 27.5557 25.988C27.4471 25.8826 27.4194 25.7252 27.485 25.5871L28.9274 22.5435C29.0128 22.3622 28.9342 22.1568 28.7475 22.0731L25.6223 20.6297C25.4858 20.5623 25.4074 20.4262 25.4215 20.2809C25.4356 20.1356 25.5395 20.0075 25.6879 19.9527Z" fill="#FCCDD3"/>
<path opacity="0.32" d="M184.138 36.9109L191.104 23.0048C191.745 21.73 191.629 20.218 190.799 19.0411L181.765 6.20206C180.938 5.02749 179.527 4.3642 178.064 4.46204L162.066 5.5339C160.598 5.63052 159.3 6.47752 158.663 7.75436L151.689 21.6767C151.046 22.9521 151.162 24.4656 151.993 25.6436L161.028 38.4794C161.854 39.654 163.265 40.3173 164.729 40.2194L180.729 39.1524C182.204 39.0538 183.506 38.1978 184.138 36.9109Z" fill="#6534FF"/>
<path d="M185.616 35.8216L192.58 21.9181C193.222 20.643 193.105 19.1308 192.276 17.9538L183.252 5.10107C182.426 3.92644 181.015 3.26328 179.551 3.36141L163.552 4.43481C162.083 4.53028 160.784 5.37719 160.146 6.65473L153.175 20.5712C152.534 21.8473 152.651 23.3603 153.482 24.5371L162.513 37.3769C163.339 38.5515 164.749 39.2147 166.213 39.1165L182.213 38.0431C183.68 37.9462 184.979 37.0988 185.616 35.8216Z" fill="#FCCDD3"/>
<path d="M192.92 21.24C193.565 19.9579 193.452 18.4395 192.624 17.2592L183.62 4.37723C182.796 3.19934 181.386 2.53639 179.921 2.63812L163.893 3.75263C162.423 3.85169 161.12 4.70507 160.479 5.98949L153.473 19.9745C152.829 21.2575 152.943 22.7768 153.772 23.9568" stroke="#6535FF" stroke-width="1.2" stroke-linecap="round" stroke-linejoin="round"/>
<path d="M181.788 28.5584L184.575 26.7363L184.328 23.4875L185.795 20.5588L183.902 17.8597L183.656 14.6118L180.626 13.1876L178.734 10.4889L175.374 10.7186L172.341 9.29282L169.555 11.1149L166.195 11.3446L164.728 14.2733L161.941 16.0963L162.188 19.3442L160.721 22.2729L162.614 24.972L162.86 28.2199L165.893 29.6457L167.786 32.3447L171.145 32.1147L174.175 33.5389L176.961 31.7168L180.321 31.4871L181.788 28.5584Z" fill="white"/>
<path fill-rule="evenodd" clip-rule="evenodd" d="M178.31 8.91661C178.49 8.90426 178.664 8.98567 178.765 9.13029L180.582 11.7217L183.494 13.0906C183.656 13.167 183.764 13.3214 183.777 13.4959L184.014 16.6146L185.832 19.2025C185.989 19.4265 185.929 19.7315 185.698 19.8839C185.467 20.0363 185.152 19.9783 184.995 19.7543L183.101 17.0577C183.051 16.9864 183.021 16.9037 183.014 16.8177L182.789 13.8497L180.018 12.5469C179.938 12.5094 179.87 12.4523 179.82 12.3812L178.091 9.91495L175.022 10.1255C174.933 10.1315 174.845 10.115 174.765 10.0775L171.994 8.77475L169.448 10.4402C169.374 10.4885 169.289 10.5171 169.2 10.5231L166.134 10.7305L164.794 13.4047C164.755 13.4824 164.696 13.5488 164.622 13.5971L162.077 15.2614L162.302 18.2288C162.308 18.3149 162.291 18.4011 162.252 18.4788L160.913 21.1533L162.641 23.6186C162.691 23.6898 162.72 23.7725 162.727 23.8583L162.951 26.8258L165.723 28.1286C165.974 28.2468 166.079 28.5402 165.957 28.7839C165.835 29.0276 165.532 29.1293 165.281 29.011L162.247 27.5849C162.084 27.5085 161.976 27.354 161.963 27.1795L161.727 24.061L159.911 21.4697C159.809 21.3246 159.795 21.1379 159.874 20.9801L161.282 18.1691L161.046 15.0499C161.032 14.8746 161.117 14.7058 161.267 14.6075L163.943 12.8579L165.351 10.047C165.43 9.88901 165.59 9.78407 165.771 9.77184L168.994 9.55377L171.669 7.8037C171.818 7.70576 172.01 7.69249 172.173 7.76888L175.085 9.13781L178.31 8.91661Z" fill="#6535FF"/>
<path d="M171.057 24.881C173.348 25.9584 176.105 25.0379 177.213 22.8251C178.322 20.6123 177.362 17.9451 175.071 16.8677C172.779 15.7904 170.022 16.7108 168.914 18.9236C167.806 21.1365 168.765 23.8037 171.057 24.881Z" fill="#62BCF9"/>
<path fill-rule="evenodd" clip-rule="evenodd" d="M177.177 20.3291C176.221 18.318 173.777 17.4639 171.706 18.4132C169.64 19.3605 168.713 21.7514 169.632 23.7737C169.748 24.0272 169.631 24.3302 169.371 24.4504C169.112 24.5706 168.808 24.4626 168.693 24.2091C167.543 21.6804 168.703 18.6808 171.293 17.4935C173.879 16.3082 176.92 17.374 178.11 19.8786C178.23 20.1301 178.118 20.4348 177.86 20.5592C177.602 20.6836 177.297 20.5805 177.177 20.3291Z" fill="#6535FF"/>
<path opacity="0.32" d="M192.292 17.9396L183.322 5.1015C183.014 4.66159 182.618 4.28601 182.158 3.99704C181.624 4.41261 181.147 4.89253 180.738 5.42516C179.364 7.23491 178.743 9.47488 178.35 11.6897C177.957 13.9046 177.765 16.1624 177.101 18.3142C176.197 21.2686 174.462 23.9205 172.089 25.9734C169.002 28.6406 164.945 30.1946 162.211 33.2045C161.712 33.7564 161.263 34.35 160.872 34.9784L162.558 37.3976C163.379 38.5709 164.784 39.2314 166.244 39.1303L182.198 38.025C183.662 37.9371 184.965 37.098 185.614 35.825L192.587 21.9043C193.23 20.6275 193.117 19.1152 192.292 17.9396Z" fill="#6534FF"/>
<path fill-rule="evenodd" clip-rule="evenodd" d="M182.972 36.4983C182.989 36.7779 182.773 37.0239 182.49 37.0479L167.889 38.2849C167.605 38.3089 167.361 38.1018 167.344 37.8222C167.327 37.5427 167.543 37.2966 167.826 37.2726L182.427 36.0357C182.711 36.0117 182.955 36.2188 182.972 36.4983Z" fill="#6535FF"/>
<g opacity="0.61">
<path opacity="0.61" d="M112.972 62.6539C115.065 63.4528 115.059 63.4508 114.371 65.3906C113.951 66.5751 113.476 67.7404 113.141 68.9487C112.805 70.1571 112.22 70.7252 110.865 70.0282C110.628 69.9348 110.381 69.8696 110.129 69.834C109.748 69.5255 109.267 69.3564 108.776 69.3587L108.319 69.1983L105.007 67.7734C106.333 67.1222 107.413 66.5535 108.519 66.0519C109.264 65.6968 109.553 65.3157 109.113 64.4806C108.545 63.3968 108.134 62.2521 107.54 60.8568C108.321 61.1312 108.827 61.3089 109.339 61.4886C109.851 61.6683 110.513 61.8426 111.1 62.0196L112.965 62.6746L112.972 62.6539Z" fill="#6534FF"/>
<path opacity="0.61" d="M86.1727 61.5584C83.811 60.4845 83.8147 60.4916 84.7065 58.0809C85.0111 57.2217 85.3157 56.3625 85.624 55.493C86.358 53.4227 86.358 53.4227 88.549 54.0874C88.8622 54.4278 89.3077 54.6308 89.7749 54.6459C90.7383 54.9842 91.6961 55.3555 92.6485 55.7249C92.9183 55.8197 93.3055 55.8625 93.3091 56.2363C93.3128 56.6101 92.9495 56.6571 92.6999 56.7848C92.0008 57.1504 91.3053 57.5406 90.5676 57.8402C89.518 58.269 89.5088 58.9235 89.9896 59.8024C90.5871 60.7653 91.0028 61.816 91.2172 62.905C90.0354 62.8858 89.1546 62.0003 88.0334 62.1944L87.4829 62.001C87.1973 61.5839 86.6535 61.4002 86.1727 61.5584Z" fill="#6534FF"/>
<path opacity="0.61" d="M85.9442 61.6302C86.4282 61.4776 86.9708 61.6681 87.2514 62.0892C85.9442 68.7328 87.1099 74.6295 93.4293 78.9712L92.9587 80.2988C89.7925 78.7321 87.9079 76.1051 86.6576 73.0536C85.1481 69.2813 85.1701 65.4578 85.9442 61.6302Z" fill="#6534FF"/>
<path opacity="0.61" d="M92.7801 80.0891C92.9364 79.6484 93.0945 79.2025 93.2507 78.7618C100.197 79.2132 105.758 75.9129 108.715 69.5823C109.208 69.58 109.69 69.7495 110.072 70.0587C108.109 73.5845 105.673 76.6761 101.885 78.6339C99.0484 80.0749 96.0632 80.7989 92.7801 80.0891Z" fill="#6534FF"/>
<path opacity="0.61" d="M113.162 62.5727L111.771 62.0844C112.336 60.4929 112.902 58.8963 113.466 57.3048C114.305 54.9382 113.479 53.2419 110.921 52.1055L110.177 51.7281C110.408 51.0771 109.747 51.0424 109.43 50.8032C107.867 49.6153 105.924 49.1309 104.228 48.1807L104.526 47.3385C108.59 48.4892 112.233 50.7817 114.967 53.9096C115.586 54.5178 115.76 55.4132 115.405 56.1609C114.62 58.2853 113.913 60.4367 113.162 62.5727Z" fill="#6534FF"/>
<path opacity="0.61" d="M104.721 47.5243L104.422 48.3667C104.175 48.3147 103.924 48.2731 103.678 48.1985C100.561 47.2608 97.4001 46.7262 94.1932 47.1925C93.004 47.2531 92.0188 48.0386 91.7541 49.1372C91.2226 50.9322 90.5006 52.672 89.8739 54.4395C89.4074 54.4244 88.9625 54.2217 88.6497 53.8818C89.3827 51.8146 90.1304 49.7061 90.8323 47.6047C91.0062 46.8458 91.6522 46.2808 92.4633 46.1783C96.553 45.4277 100.831 45.8975 104.721 47.5243Z" fill="#6534FF"/>
<path opacity="0.61" d="M89.5788 54.4967C90.409 54.6598 90.4568 54.017 90.6299 53.5466C91.1324 52.1295 91.7012 50.7356 92.1356 49.3004C92.3131 48.531 92.9908 47.9728 93.8199 47.913C95.7797 47.6137 97.7904 47.6329 99.7674 47.9699C103.469 48.6358 107.02 49.9936 110.212 51.9638L110.959 52.343C111.04 53.1828 111.878 53.4827 112.375 54.0074C113.312 54.9726 113.704 55.8458 113.124 57.1482C112.381 58.7725 111.926 60.5274 111.328 62.2144C110.739 62.0368 110.146 61.8696 109.56 61.6815C108.975 61.4935 108.539 61.3229 107.755 61.0475C108.358 62.4269 108.763 63.5965 109.334 64.6841C109.776 65.5221 109.518 65.9161 108.738 66.2608C107.628 66.7642 106.543 67.335 105.213 67.9884L108.537 69.4183C106.417 73.2268 103.689 76.4717 99.1418 77.7355C94.3282 79.0516 93.3728 78.6286 90.3189 75.0698C89.6719 74.2773 89.1449 73.4042 88.7542 72.4774C87.1803 69.0705 87.2595 65.5902 87.8503 62.0852C88.9732 61.8957 89.855 62.789 91.0441 62.7979C90.829 61.7058 90.412 60.652 89.8126 59.6863C89.3303 58.8048 89.3395 58.1485 90.3924 57.7185C91.1287 57.3933 91.8301 57.0266 92.5314 56.6599C92.7817 56.5319 93.1481 56.462 93.1425 56.1099C93.137 55.7577 92.7468 55.7024 92.4799 55.597C91.5061 55.2084 90.5378 54.8568 89.5788 54.4967Z" fill="#6534FF"/>
</g>
<path d="M112.995 60.4147C115.082 61.1907 115.076 61.1889 114.364 63.1505C113.929 64.3485 113.438 65.5277 113.088 66.7484C112.737 67.9692 112.144 68.5489 110.794 67.8655C110.558 67.7746 110.311 67.7122 110.06 67.6798C109.682 67.3743 109.202 67.2106 108.71 67.2195L108.254 67.0641L104.953 65.6742C106.289 65.001 107.379 64.4141 108.493 63.8944C109.243 63.527 109.538 63.1396 109.107 62.3049C108.551 61.2216 108.153 60.0749 107.575 58.6784C108.354 58.9441 108.859 59.1163 109.369 59.2903C109.88 59.4643 110.541 59.6309 111.127 59.8012L112.987 60.4356L112.995 60.4147Z" fill="#52D2BC"/>
<path d="M85.6612 59.3621C83.2079 58.2825 83.2118 58.2896 84.1223 55.8891C84.4332 55.0335 84.744 54.178 85.0585 53.3121C85.8075 51.2504 85.8075 51.2504 88.0815 51.9214C88.408 52.2621 88.8707 52.4662 89.3549 52.483C90.355 52.8239 91.3497 53.1978 92.3386 53.5697C92.6187 53.6652 93.0201 53.7094 93.026 54.0821C93.0319 54.4548 92.6557 54.5003 92.3978 54.6267C91.6754 54.9887 90.9569 55.3751 90.1942 55.6711C89.109 56.0947 89.1032 56.7473 89.6063 57.6255C90.2309 58.5879 90.6676 59.6372 90.8958 60.7239C89.6712 60.7002 88.7535 59.8139 87.5928 60.0033L87.0213 59.8084C86.723 59.3914 86.1585 59.2062 85.6612 59.3621Z" fill="#52D2BC"/>
<path d="M85.2543 59.4663C85.7356 59.3062 86.2698 59.4884 86.5415 59.9052C85.1517 66.5705 86.2203 72.4502 92.412 76.6947L91.927 78.0298C88.816 76.512 86.9887 73.9138 85.7954 70.8811C84.3559 67.1314 84.4329 63.3068 85.2543 59.4663Z" fill="white"/>
<path d="M91.927 78.0302C92.0901 77.5812 92.2551 77.1269 92.4183 76.6778C99.2491 76.9821 104.794 73.5232 107.839 67.0572C108.324 67.0441 108.796 67.2049 109.165 67.5092C107.158 71.1173 104.695 74.2968 100.923 76.3594C98.0997 77.8786 95.1449 78.676 91.927 78.0302Z" fill="white"/>
<path d="M111.88 60.0349L110.55 59.5815C111.164 57.8925 111.78 56.1981 112.393 54.5091C113.305 51.9976 112.573 50.2565 110.137 49.1733L109.43 48.8091C109.681 48.1182 109.041 48.1093 108.743 47.8722C107.275 46.6937 105.409 46.2672 103.801 45.3431L104.126 44.4493C108.024 45.4851 111.465 47.7334 113.99 50.8936C114.566 51.5045 114.698 52.4344 114.322 53.2317C113.473 55.4875 112.698 57.7684 111.88 60.0349Z" fill="white"/>
<path d="M104.128 44.4451L103.803 45.3386C103.562 45.2935 103.318 45.2594 103.08 45.1905C100.057 44.3265 96.9769 43.8862 93.814 44.4958C92.6453 44.6043 91.6497 45.4641 91.3488 46.6246C90.7602 48.5245 89.9867 50.3738 89.3057 52.2484C88.8488 52.2503 88.42 52.0549 88.126 51.7107C88.9225 49.5182 89.7349 47.2818 90.5021 45.0546C90.7012 44.2533 91.356 43.6372 92.1553 43.4991C96.1948 42.5584 100.373 42.8886 104.128 44.4451Z" fill="white"/>
<path d="M89.0872 52.2726C89.916 52.4252 89.9723 51.7768 90.1515 51.3003C90.6729 49.8652 91.2602 48.4526 91.7136 47.0003C91.9012 46.2224 92.5867 45.6503 93.4173 45.5784C95.3827 45.249 97.3948 45.24 99.3691 45.5515C103.065 46.1702 106.601 47.4883 109.771 49.4285L110.514 49.8C110.584 50.6451 111.418 50.9355 111.909 51.4572C112.834 52.4166 113.215 53.2909 112.618 54.6115C111.853 56.2588 111.375 58.0337 110.754 59.7421C110.167 59.5714 109.576 59.4113 108.993 59.2301C108.409 59.0489 107.975 58.8831 107.193 58.6167C107.78 59.9982 108.17 61.171 108.727 62.2589C109.158 63.0971 108.895 63.4978 108.11 63.8562C106.992 64.3791 105.9 64.9696 104.559 65.6469L107.868 67.0408C105.696 70.9085 102.924 74.2169 98.3568 75.5548C93.5221 76.949 92.5714 76.5363 89.5611 72.9933C88.9238 72.2039 88.4077 71.3315 88.0287 70.4032C86.4977 66.9923 86.6221 63.4841 87.2589 59.9438C88.3852 59.737 89.2561 60.6247 90.4461 60.6169C90.245 59.5194 89.8413 58.4634 89.2539 57.4988C88.7827 56.6174 88.8004 55.9558 89.8598 55.5076C90.6009 55.1695 91.3076 54.7901 92.0143 54.4107C92.2665 54.2781 92.634 54.2025 92.6331 53.8478C92.6321 53.493 92.2422 53.4428 91.9765 53.3403C91.0069 52.9625 90.0424 52.6219 89.0872 52.2726Z" fill="#FCCDD3"/>
<path d="M52.9988 57.1854C51.6079 53.4361 52.5053 54.3288 48.7362 52.9004C52.5053 51.5168 51.6079 52.4095 52.9988 48.6602C54.3898 52.4095 53.4924 51.5168 57.2615 52.9004C53.5373 54.3288 54.4347 53.4361 52.9988 57.1854Z" fill="#5CBEFF"/>
<path d="M118.488 28.0318L118.542 20.9703C118.544 20.7069 118.653 20.4549 118.845 20.2699C119.038 20.0849 119.298 19.9822 119.569 19.9844L125.225 20.0258C125.496 20.0273 125.755 20.1335 125.945 20.3211C126.135 20.5087 126.24 20.7621 126.238 21.0255L126.184 28.0871C126.182 28.256 126.078 28.4078 125.919 28.4747C125.759 28.5415 125.574 28.5108 125.447 28.3964L122.65 25.8446C122.482 25.6941 122.224 25.6941 122.057 25.8446L119.22 28.3577C119.091 28.4732 118.903 28.5021 118.743 28.431C118.583 28.3599 118.483 28.2027 118.488 28.0318Z" fill="#3E1EC4"/>
<path d="M64.0452 21.3691H61.5882L60.3615 23.4081L61.5882 25.447H64.0452L65.2755 23.4081L64.0452 21.3691Z" fill="#F9879A"/>
<path d="M139.997 48.3975H137.54L136.313 50.4364L137.54 52.4753H139.997L141.227 50.4364L139.997 48.3975Z" fill="#F9879A"/>
</g>
</svg>
