<svg width="79" height="100" viewBox="0 0 79 100" fill="none" xmlns="http://www.w3.org/2000/svg">
<g clip-path="url(#clip0_21646_36)">
<g clip-path="url(#clip1_21646_36)">
<path fill-rule="evenodd" clip-rule="evenodd" d="M0.0136719 38.6731L3.26161 47.5228C3.49771 48.1232 4.33731 48.1754 4.62591 47.575L6.75111 43.059C6.90851 42.6935 7.35451 42.5108 7.72191 42.6935L12.2609 44.808C12.8643 45.069 13.494 44.4947 13.2841 43.8943L10.2625 35.6611C10.0834 35.8028 9.89494 35.9319 9.6985 36.0475L12.471 43.6333C12.5235 43.7378 12.471 43.8683 12.3923 43.9466C12.3136 44.0249 12.1824 44.051 12.0774 43.9988L7.98439 42.0932C7.77459 41.9888 7.53839 41.9627 7.32849 41.9627C6.80379 41.9888 6.35769 42.3281 6.12159 42.8241L4.23249 46.8181C4.18009 46.9486 4.07509 47.0008 3.97019 47.0008C3.83899 47.0008 3.73399 46.9225 3.70779 46.8181L0.705178 38.616C0.476256 38.6508 0.245086 38.6695 0.0136719 38.6731ZM0.953501 38.5718L3.94389 46.7136C3.94389 46.7136 3.94389 46.7397 3.97019 46.7397C3.9833 46.7397 3.98985 46.7397 3.99312 46.7364C3.99639 46.7331 3.99639 46.7266 3.99639 46.7136L5.88549 42.7197C6.17409 42.1193 6.72509 41.7277 7.32849 41.7016C7.61709 41.6755 7.87949 41.7277 8.11559 41.8582L12.2086 43.7639H12.2349V43.7378L9.46408 36.1772C8.75958 36.5428 7.96574 36.7421 7.14409 36.7421H5.72729C4.99259 36.7421 4.28419 36.9248 3.65449 37.2903L2.42139 37.9951C1.96257 38.2784 1.46561 38.4668 0.953501 38.5718Z" fill="black"/>
<path d="M-0.0713997 38.6734C-0.9373 38.6734 -1.8031 38.4646 -2.564 38.0208L-3.7971 37.316C-4.4268 36.9505 -5.1352 36.7678 -5.8698 36.7678H-7.2866C-9.0708 36.7678 -10.7237 35.828 -11.6158 34.2879L-12.3242 33.061C-12.6915 32.4345 -13.2162 31.9124 -13.8459 31.547L-15.0791 30.8421C-16.627 29.9546 -17.5716 28.31 -17.5716 26.5349V25.1253C-17.5716 24.3944 -17.7552 23.6896 -18.1226 23.0631L-18.831 21.8362C-19.723 20.296 -19.723 18.3904 -18.831 16.8764L-18.1226 15.6495C-17.7552 15.023 -17.5716 14.3182 -17.5716 13.5872V12.1776C-17.5716 10.4025 -16.627 8.75797 -15.0791 7.87042L-13.8459 7.16561C-13.2162 6.77405 -12.6915 6.25196 -12.3242 5.62546L-11.6158 4.39856C-10.7237 2.85841 -9.0708 1.91866 -7.2866 1.91866H-5.8698C-5.1352 1.91866 -4.4268 1.73593 -3.7971 1.37047L-2.564 0.665658C-1.016 -0.221886 0.899301 -0.221886 2.4211 0.665658L3.6542 1.37047C4.2839 1.73593 4.9923 1.91866 5.727 1.91866H7.1438C8.9279 1.91866 10.5808 2.85841 11.4729 4.39856L12.1813 5.62546C12.5486 6.25196 13.0734 6.77405 13.703 7.13951L14.9362 7.84432C16.4842 8.73186 17.4287 10.3764 17.4287 12.1515V13.5611C17.4287 14.2921 17.6124 14.9969 17.9797 15.6234L18.6881 16.8503C19.5802 18.3904 19.5802 20.296 18.6881 21.8101L17.9797 23.037C17.6124 23.6635 17.4287 24.3683 17.4287 25.0992V26.5088C17.4287 28.2839 16.4842 29.9285 14.9362 30.816L13.703 31.5209C13.0734 31.8863 12.5486 32.4084 12.1813 33.0349L11.4729 34.2618C10.5808 35.8019 8.9279 36.7417 7.1438 36.7417H5.727C4.9923 36.7417 4.2839 36.9244 3.6542 37.2899L2.4211 37.9947C1.6602 38.4646 0.7944 38.6734 -0.0713997 38.6734ZM-7.2866 2.754C-8.7559 2.754 -10.1202 3.53712 -10.8811 4.81623L-11.5895 6.04313C-12.0355 6.80015 -12.6652 7.42665 -13.4261 7.87042L-14.6593 8.57524C-15.9449 9.30616 -16.732 10.6636 -16.732 12.1515V13.5611C-16.732 14.4226 -16.9681 15.284 -17.3879 16.041L-18.0963 17.2679C-18.831 18.5471 -18.831 20.1133 -18.0963 21.3924L-17.3879 22.6193C-16.9419 23.3763 -16.732 24.2378 -16.732 25.0992V26.5088C-16.732 27.9707 -15.9449 29.3281 -14.6593 30.0851L-13.4261 30.7899C-12.6652 31.2337 -12.0355 31.8602 -11.5895 32.6172L-10.8811 33.8441C-10.1465 35.1232 -8.7821 35.9064 -7.2866 35.9064H-5.8698C-5.004 35.9064 -4.1382 36.1413 -3.3773 36.559L-2.1442 37.2638C-0.858499 37.9947 0.715701 37.9947 2.0013 37.2638L3.2344 36.559C3.9953 36.1152 4.8611 35.9064 5.727 35.9064H7.1438C8.6131 35.9064 9.9774 35.1232 10.7383 33.8441L11.4467 32.6172C11.8927 31.8602 12.5224 31.2337 13.2833 30.7899L14.5164 30.0851C15.802 29.3542 16.5891 27.9968 16.5891 26.5088V25.0992C16.5891 24.2378 16.8253 23.3763 17.2451 22.6193L17.9535 21.3924C18.6881 20.1133 18.6881 18.5471 17.9535 17.2679L17.2451 16.041C16.799 15.284 16.5891 14.4226 16.5891 13.5611V12.1515C16.5891 10.6897 15.802 9.33226 14.5164 8.57524L13.2833 7.87042C12.5224 7.42665 11.8927 6.80015 11.4467 6.04313L10.7383 4.81623C10.0036 3.53712 8.6393 2.754 7.1438 2.754H5.727C4.8611 2.754 3.9953 2.51906 3.2344 2.10139L2.0013 1.39658C0.715701 0.665658 -0.858499 0.665658 -2.1442 1.39658L-3.3773 2.10139C-4.1382 2.54516 -5.004 2.754 -5.8698 2.754H-7.2866Z" fill="black"/>
<path d="M0.742292 23.6893C0.689792 23.6893 0.663594 23.6632 0.611094 23.611C0.584894 23.5588 0.558594 23.5066 0.558594 23.4544C0.558594 23.4283 0.558594 23.3761 0.558594 23.3238L2.76249 16.1713C2.78879 16.093 2.81499 16.0408 2.86749 15.9886C2.91999 15.9363 2.97239 15.9102 3.05119 15.9102H3.65459C3.73329 15.9102 3.81199 15.9363 3.83829 15.9886C3.89069 16.0408 3.91699 16.093 3.94319 16.1713L6.14709 23.3238C6.14709 23.3761 6.17339 23.4022 6.17339 23.4544C6.17339 23.5066 6.14709 23.5588 6.12089 23.611C6.09469 23.6632 6.04219 23.6893 5.98969 23.6893H5.54369C5.46499 23.6893 5.41249 23.6632 5.38629 23.611C5.35999 23.5588 5.33379 23.5327 5.30749 23.4805L4.88769 22.0969C4.83529 21.9925 4.75659 21.9142 4.62539 21.9142H2.08039C1.97539 21.9142 1.87049 21.9925 1.84419 22.0969L1.39819 23.5066C1.39819 23.5327 1.37199 23.5849 1.34569 23.6371C1.31949 23.6893 1.26699 23.7154 1.18829 23.7154H0.742292V23.6893ZM2.29029 20.9745H4.41549C4.49419 20.9745 4.52039 20.8962 4.52039 20.8439L3.44469 17.3721C3.41849 17.2677 3.28729 17.2677 3.26099 17.3721L2.18529 20.8439C2.18529 20.8962 2.23779 20.9745 2.29029 20.9745Z" fill="black"/>
<path d="M12.364 16.9806C12.1804 16.6413 11.9442 16.3541 11.6031 16.1975C11.2883 16.0148 10.8947 15.9365 10.4487 15.9365H8.69082C8.29732 15.9365 7.98242 16.2497 7.98242 16.6413V17.0328V23.4284C7.98242 23.5067 8.00872 23.5589 8.03492 23.6111C8.06112 23.6633 8.11362 23.6894 8.19232 23.6894H8.66462C8.71712 23.6894 8.76952 23.6633 8.82202 23.6111C8.84832 23.5589 8.87452 23.5067 8.87452 23.4284V20.8702C8.87452 20.7396 8.97942 20.6613 9.08442 20.6613H10.4487C10.8947 20.6613 11.2621 20.583 11.6031 20.4003C11.918 20.2176 12.1804 19.9565 12.364 19.6172C12.5477 19.2778 12.6264 18.834 12.6264 18.312C12.6264 17.7899 12.5477 17.3461 12.364 16.9806ZM11.4195 19.3561C11.2096 19.5911 10.8685 19.7216 10.4225 19.7216H9.11062C8.97942 19.7216 8.87452 19.6172 8.87452 19.4866V17.059C8.87452 16.9284 8.97942 16.824 9.11062 16.824H10.4225C10.8685 16.824 11.2096 16.9545 11.4195 17.1895C11.6294 17.4505 11.7343 17.7899 11.7343 18.2597C11.7343 18.7818 11.6294 19.1212 11.4195 19.3561Z" fill="black"/>
</g>
<g clip-path="url(#clip2_21646_36)">
<path fill-rule="evenodd" clip-rule="evenodd" d="M39.3119 58.6716C39.0808 58.6666 38.8501 58.6466 38.6217 58.6111L35.6176 66.8172C35.5914 66.9216 35.4864 66.9999 35.3552 66.9999C35.2503 66.9999 35.1453 66.9477 35.0929 66.8172L33.2038 62.8232C32.9677 62.3272 32.5216 61.9879 31.9969 61.9618C31.787 61.9618 31.5508 61.9879 31.341 62.0923L27.248 63.9979C27.143 64.0501 27.0118 64.024 26.9331 63.9457C26.8544 63.8674 26.8019 63.7369 26.8544 63.6324L29.6249 56.0521C29.429 55.9346 29.2412 55.8037 29.0629 55.6602L26.0412 63.8935C25.8313 64.4939 26.461 65.0682 27.0644 64.8072L31.6034 62.6927C31.9708 62.51 32.4168 62.6927 32.5742 63.0582L34.6994 67.5742C34.988 68.1746 35.8276 68.1224 36.0637 67.522L39.3119 58.6716ZM29.8585 56.1838L27.0905 63.7369V63.763H27.1168L31.2098 61.8573C31.4459 61.7268 31.7083 61.6746 31.9969 61.7007C32.6003 61.7268 33.1513 62.1184 33.4399 62.7188L35.329 66.7127C35.329 66.7258 35.329 66.7323 35.3322 66.7356C35.3355 66.7388 35.342 66.7388 35.3552 66.7388C35.3815 66.7388 35.3815 66.7127 35.3815 66.7127L38.3736 58.5662C37.8725 58.4627 37.3863 58.2825 36.9368 58.0203L35.7037 57.3155C35.074 56.95 34.3656 56.7673 33.631 56.7673H32.2142C31.3787 56.7673 30.5719 56.5612 29.8585 56.1838Z" fill="black"/>
<path fill-rule="evenodd" clip-rule="evenodd" d="M39.5137 58.6731L42.7616 67.5228C42.9977 68.1232 43.8373 68.1754 44.1259 67.575L46.2511 63.059C46.4085 62.6935 46.8545 62.5108 47.2219 62.6935L51.7609 64.808C52.3643 65.069 52.994 64.4947 52.7841 63.8943L49.7625 55.6611C49.5834 55.8028 49.3949 55.9319 49.1985 56.0475L51.971 63.6333C52.0235 63.7378 51.971 63.8683 51.8923 63.9466C51.8136 64.0249 51.6824 64.051 51.5774 63.9988L47.4844 62.0932C47.2746 61.9888 47.0384 61.9627 46.8285 61.9627C46.3038 61.9888 45.8577 62.3281 45.6216 62.8241L43.7325 66.8181C43.6801 66.9486 43.5751 67.0008 43.4702 67.0008C43.339 67.0008 43.234 66.9225 43.2078 66.8181L40.2052 58.616C39.9763 58.6508 39.7451 58.6695 39.5137 58.6731ZM40.4535 58.5718L43.4439 66.7136C43.4439 66.7136 43.4439 66.7397 43.4702 66.7397C43.4833 66.7397 43.4899 66.7397 43.4931 66.7364C43.4964 66.7331 43.4964 66.7266 43.4964 66.7136L45.3855 62.7197C45.6741 62.1193 46.2251 61.7277 46.8285 61.7016C47.1171 61.6755 47.3795 61.7277 47.6156 61.8582L51.7086 63.7639H51.7349V63.7378L48.9641 56.1772C48.2596 56.5428 47.4657 56.7421 46.6441 56.7421H45.2273C44.4926 56.7421 43.7842 56.9248 43.1545 57.2903L41.9214 57.9951C41.4626 58.2784 40.9656 58.4668 40.4535 58.5718Z" fill="black"/>
<path d="M39.4286 58.6734C38.5627 58.6734 37.6969 58.4646 36.936 58.0208L35.7029 57.316C35.0732 56.9505 34.3648 56.7678 33.6302 56.7678H32.2134C30.4292 56.7678 28.7763 55.828 27.8842 54.2879L27.1758 53.061C26.8085 52.4345 26.2838 51.9124 25.6541 51.547L24.4209 50.8421C22.873 49.9546 21.9284 48.31 21.9284 46.5349V45.1253C21.9284 44.3944 21.7448 43.6896 21.3774 43.0631L20.669 41.8362C19.777 40.296 19.777 38.3904 20.669 36.8764L21.3774 35.6495C21.7448 35.023 21.9284 34.3182 21.9284 33.5872V32.1776C21.9284 30.4025 22.873 28.758 24.4209 27.8704L25.6541 27.1656C26.2838 26.774 26.8085 26.252 27.1758 25.6255L27.8842 24.3986C28.7763 22.8584 30.4292 21.9187 32.2134 21.9187H33.6302C34.3648 21.9187 35.0732 21.7359 35.7029 21.3705L36.936 20.6657C38.484 19.7781 40.3993 19.7781 41.9211 20.6657L43.1542 21.3705C43.7839 21.7359 44.4923 21.9187 45.227 21.9187H46.6438C48.4279 21.9187 50.0808 22.8584 50.9729 24.3986L51.6813 25.6255C52.0486 26.252 52.5734 26.7741 53.203 27.1395L54.4362 27.8443C55.9842 28.7319 56.9287 30.3764 56.9287 32.1515V33.5611C56.9287 34.2921 57.1124 34.9969 57.4797 35.6234L58.1881 36.8503C59.0802 38.3904 59.0802 40.296 58.1881 41.8101L57.4797 43.037C57.1124 43.6635 56.9287 44.3683 56.9287 45.0992V46.5088C56.9287 48.2839 55.9842 49.9285 54.4362 50.816L53.203 51.5209C52.5734 51.8863 52.0486 52.4084 51.6813 53.0349L50.9729 54.2618C50.0808 55.8019 48.4279 56.7417 46.6438 56.7417H45.227C44.4923 56.7417 43.7839 56.9244 43.1542 57.2899L41.9211 57.9947C41.1602 58.4646 40.2944 58.6734 39.4286 58.6734ZM32.2134 22.754C30.7441 22.754 29.3798 23.5371 28.6189 24.8162L27.9105 26.0431C27.4645 26.8001 26.8348 27.4266 26.0739 27.8704L24.8407 28.5752C23.5551 29.3062 22.768 30.6636 22.768 32.1515V33.5611C22.768 34.4226 22.5319 35.284 22.1121 36.041L21.4037 37.2679C20.669 38.5471 20.669 40.1133 21.4037 41.3924L22.1121 42.6193C22.5581 43.3763 22.768 44.2378 22.768 45.0992V46.5088C22.768 47.9707 23.5551 49.3281 24.8407 50.0851L26.0739 50.7899C26.8348 51.2337 27.4645 51.8602 27.9105 52.6172L28.6189 53.8441C29.3535 55.1232 30.7179 55.9064 32.2134 55.9064H33.6302C34.496 55.9064 35.3618 56.1413 36.1227 56.559L37.3558 57.2638C38.6415 57.9947 40.2157 57.9947 41.5013 57.2638L42.7344 56.559C43.4953 56.1152 44.3611 55.9064 45.227 55.9064H46.6438C48.1131 55.9064 49.4774 55.1232 50.2383 53.8441L50.9467 52.6172C51.3927 51.8602 52.0224 51.2337 52.7833 50.7899L54.0164 50.0851C55.302 49.3542 56.0891 47.9968 56.0891 46.5088V45.0992C56.0891 44.2378 56.3253 43.3763 56.7451 42.6193L57.4535 41.3924C58.1881 40.1133 58.1881 38.5471 57.4535 37.2679L56.7451 36.041C56.299 35.284 56.0891 34.4226 56.0891 33.5611V32.1515C56.0891 30.6897 55.302 29.3323 54.0164 28.5752L52.7833 27.8704C52.0224 27.4266 51.3927 26.8001 50.9467 26.0431L50.2383 24.8162C49.5036 23.5371 48.1393 22.754 46.6438 22.754H45.227C44.3611 22.754 43.4953 22.5191 42.7344 22.1014L41.5013 21.3966C40.2157 20.6657 38.6415 20.6657 37.3558 21.3966L36.1227 22.1014C35.3618 22.5452 34.496 22.754 33.6302 22.754H32.2134Z" fill="black"/>
<path d="M31.7675 36.9806C31.5838 36.6413 31.3477 36.3541 31.0066 36.1975C30.6918 36.0148 30.2982 35.9365 29.8522 35.9365H28.1205C27.7269 35.9365 27.4121 36.2497 27.4121 36.6413V37.0328V43.4284C27.4121 43.5067 27.4383 43.5589 27.4646 43.6111C27.4908 43.6633 27.5433 43.6894 27.622 43.6894H28.0943C28.1467 43.6894 28.1992 43.6633 28.2517 43.6111C28.2779 43.5589 28.3042 43.5067 28.3042 43.4284V40.8702C28.3042 40.7396 28.4091 40.6613 28.5141 40.6613H29.8784C30.3245 40.6613 30.6918 40.583 31.0329 40.4003C31.374 40.2176 31.6101 39.9565 31.7937 39.6172C31.9774 39.2778 32.0561 38.834 32.0561 38.312C32.0299 37.7899 31.9249 37.3461 31.7675 36.9806ZM30.7967 39.3561C30.5868 39.5911 30.2458 39.7216 29.7997 39.7216H28.4878C28.3566 39.7216 28.2517 39.6172 28.2517 39.4866V37.059C28.2517 36.9284 28.3566 36.824 28.4878 36.824H29.7997C30.2458 36.824 30.5868 36.9545 30.7967 37.1895C31.0066 37.4505 31.1116 37.7899 31.1116 38.2597C31.1378 38.7818 31.0329 39.1212 30.7967 39.3561Z" fill="black"/>
<path d="M40.2423 43.6893C40.1898 43.6893 40.1636 43.6632 40.1111 43.611C40.0849 43.5588 40.0586 43.5066 40.0586 43.4544C40.0586 43.4283 40.0586 43.3761 40.0586 43.3238L42.2625 36.1713C42.2888 36.093 42.315 36.0408 42.3675 35.9886C42.42 35.9363 42.4724 35.9102 42.5512 35.9102H43.1546C43.2333 35.9102 43.312 35.9363 43.3383 35.9886C43.3907 36.0408 43.417 36.093 43.4432 36.1713L45.6471 43.3238C45.6471 43.3761 45.6734 43.4022 45.6734 43.4544C45.6734 43.5066 45.6471 43.5588 45.6209 43.611C45.5947 43.6632 45.5422 43.6893 45.4897 43.6893H45.0437C44.965 43.6893 44.9125 43.6632 44.8863 43.611C44.86 43.5588 44.8338 43.5327 44.8075 43.4805L44.3877 42.0969C44.3353 41.9925 44.2566 41.9142 44.1254 41.9142H41.5804C41.4754 41.9142 41.3705 41.9925 41.3442 42.0969L40.8982 43.5066C40.8982 43.5327 40.872 43.5849 40.8457 43.6371C40.8195 43.6893 40.767 43.7154 40.6883 43.7154H40.2423V43.6893ZM41.7903 40.9745H43.9155C43.9942 40.9745 44.0204 40.8962 44.0204 40.8439L42.9447 37.3721C42.9185 37.2677 42.7873 37.2677 42.761 37.3721L41.6853 40.8439C41.6853 40.8962 41.7378 40.9745 41.7903 40.9745Z" fill="black"/>
<path fill-rule="evenodd" clip-rule="evenodd" d="M33.7608 40.1392L35.7024 43.4283C35.9123 43.7416 36.3845 43.7416 36.5682 43.4544L38.4573 40.1653C38.6147 39.852 38.6147 39.4866 38.431 39.1733L36.5157 36.0669C36.332 35.7537 35.8598 35.7537 35.6761 36.0669L33.7608 39.1472C33.5771 39.4344 33.5771 39.8259 33.7608 40.1392ZM34.6017 39.7475L35.9923 42.123C36.071 42.2274 36.2022 42.2274 36.2809 42.123L37.6452 39.7475C37.6715 39.6953 37.6715 39.6431 37.6452 39.5909L36.2547 37.346C36.2022 37.2415 36.0448 37.2415 35.9923 37.346L34.6017 39.5909C34.5755 39.6431 34.5755 39.6953 34.6017 39.7475Z" fill="black"/>
<path d="M51.864 36.9806C51.6804 36.6413 51.4442 36.3541 51.1031 36.1975C50.7883 36.0148 50.3947 35.9365 49.9487 35.9365H48.1908C47.7973 35.9365 47.4824 36.2497 47.4824 36.6413V37.0328V43.4284C47.4824 43.5067 47.5087 43.5589 47.5349 43.6111C47.5611 43.6633 47.6136 43.6894 47.6923 43.6894H48.1646C48.2171 43.6894 48.2695 43.6633 48.322 43.6111C48.3483 43.5589 48.3745 43.5067 48.3745 43.4284V40.8702C48.3745 40.7396 48.4794 40.6613 48.5844 40.6613H49.9487C50.3947 40.6613 50.7621 40.583 51.1031 40.4003C51.418 40.2176 51.6804 39.9565 51.864 39.6172C52.0477 39.2778 52.1264 38.834 52.1264 38.312C52.1264 37.7899 52.0477 37.3461 51.864 36.9806ZM50.9195 39.3561C50.7096 39.5911 50.3685 39.7216 49.9225 39.7216H48.6106C48.4794 39.7216 48.3745 39.6172 48.3745 39.4866V37.059C48.3745 36.9284 48.4794 36.824 48.6106 36.824H49.9225C50.3685 36.824 50.7096 36.9545 50.9195 37.1895C51.1294 37.4505 51.2343 37.7899 51.2343 38.2597C51.2343 38.7818 51.1294 39.1212 50.9195 39.3561Z" fill="black"/>
</g>
<g clip-path="url(#clip3_21646_36)">
<path fill-rule="evenodd" clip-rule="evenodd" d="M0.0136719 88.6731L3.26161 97.5228C3.49771 98.1232 4.33731 98.1754 4.62591 97.575L6.75111 93.059C6.90851 92.6935 7.35451 92.5108 7.72191 92.6935L12.2609 94.808C12.8643 95.069 13.494 94.4947 13.2841 93.8943L10.2625 85.6611C10.0834 85.8028 9.89494 85.9319 9.6985 86.0475L12.471 93.6333C12.5235 93.7378 12.471 93.8683 12.3923 93.9466C12.3136 94.0249 12.1824 94.051 12.0774 93.9988L7.98439 92.0932C7.77459 91.9888 7.53839 91.9627 7.32849 91.9627C6.80379 91.9888 6.35769 92.3281 6.12159 92.8241L4.23249 96.8181C4.18009 96.9486 4.07509 97.0008 3.97019 97.0008C3.83899 97.0008 3.73399 96.9225 3.70779 96.8181L0.705178 88.616C0.476256 88.6508 0.245086 88.6695 0.0136719 88.6731ZM0.953501 88.5718L3.94389 96.7136C3.94389 96.7136 3.94389 96.7397 3.97019 96.7397C3.9833 96.7397 3.98985 96.7397 3.99312 96.7364C3.99639 96.7331 3.99639 96.7266 3.99639 96.7136L5.88549 92.7197C6.17409 92.1193 6.72509 91.7277 7.32849 91.7016C7.61709 91.6755 7.87949 91.7277 8.11559 91.8582L12.2086 93.7639H12.2349V93.7378L9.46408 86.1772C8.75958 86.5428 7.96574 86.7421 7.14409 86.7421H5.72729C4.99259 86.7421 4.28419 86.9248 3.65449 87.2903L2.42139 87.9951C1.96257 88.2784 1.46561 88.4668 0.953501 88.5718Z" fill="black"/>
<path d="M-0.0713997 88.6734C-0.9373 88.6734 -1.8031 88.4646 -2.564 88.0208L-3.7971 87.316C-4.4268 86.9505 -5.1352 86.7678 -5.8698 86.7678H-7.2866C-9.0708 86.7678 -10.7237 85.828 -11.6158 84.2879L-12.3242 83.061C-12.6915 82.4345 -13.2162 81.9124 -13.8459 81.547L-15.0791 80.8421C-16.627 79.9546 -17.5716 78.31 -17.5716 76.5349V75.1253C-17.5716 74.3944 -17.7552 73.6896 -18.1226 73.0631L-18.831 71.8362C-19.723 70.296 -19.723 68.3904 -18.831 66.8764L-18.1226 65.6495C-17.7552 65.023 -17.5716 64.3182 -17.5716 63.5872V62.1776C-17.5716 60.4025 -16.627 58.758 -15.0791 57.8704L-13.8459 57.1656C-13.2162 56.774 -12.6915 56.252 -12.3242 55.6255L-11.6158 54.3986C-10.7237 52.8584 -9.0708 51.9187 -7.2866 51.9187H-5.8698C-5.1352 51.9187 -4.4268 51.7359 -3.7971 51.3705L-2.564 50.6657C-1.016 49.7781 0.899301 49.7781 2.4211 50.6657L3.6542 51.3705C4.2839 51.7359 4.9923 51.9187 5.727 51.9187H7.1438C8.9279 51.9187 10.5808 52.8584 11.4729 54.3986L12.1813 55.6255C12.5486 56.252 13.0734 56.7741 13.703 57.1395L14.9362 57.8443C16.4842 58.7319 17.4287 60.3764 17.4287 62.1515V63.5611C17.4287 64.2921 17.6124 64.9969 17.9797 65.6234L18.6881 66.8503C19.5802 68.3904 19.5802 70.296 18.6881 71.8101L17.9797 73.037C17.6124 73.6635 17.4287 74.3683 17.4287 75.0992V76.5088C17.4287 78.2839 16.4842 79.9285 14.9362 80.816L13.703 81.5209C13.0734 81.8863 12.5486 82.4084 12.1813 83.0349L11.4729 84.2618C10.5808 85.8019 8.9279 86.7417 7.1438 86.7417H5.727C4.9923 86.7417 4.2839 86.9244 3.6542 87.2899L2.4211 87.9947C1.6602 88.4646 0.7944 88.6734 -0.0713997 88.6734ZM-7.2866 52.754C-8.7559 52.754 -10.1202 53.5371 -10.8811 54.8162L-11.5895 56.0431C-12.0355 56.8001 -12.6652 57.4266 -13.4261 57.8704L-14.6593 58.5752C-15.9449 59.3062 -16.732 60.6636 -16.732 62.1515V63.5611C-16.732 64.4226 -16.9681 65.284 -17.3879 66.041L-18.0963 67.2679C-18.831 68.5471 -18.831 70.1133 -18.0963 71.3924L-17.3879 72.6193C-16.9419 73.3763 -16.732 74.2378 -16.732 75.0992V76.5088C-16.732 77.9707 -15.9449 79.3281 -14.6593 80.0851L-13.4261 80.7899C-12.6652 81.2337 -12.0355 81.8602 -11.5895 82.6172L-10.8811 83.8441C-10.1465 85.1232 -8.7821 85.9064 -7.2866 85.9064H-5.8698C-5.004 85.9064 -4.1382 86.1413 -3.3773 86.559L-2.1442 87.2638C-0.858499 87.9947 0.715701 87.9947 2.0013 87.2638L3.2344 86.559C3.9953 86.1152 4.8611 85.9064 5.727 85.9064H7.1438C8.6131 85.9064 9.9774 85.1232 10.7383 83.8441L11.4467 82.6172C11.8927 81.8602 12.5224 81.2337 13.2833 80.7899L14.5164 80.0851C15.802 79.3542 16.5891 77.9968 16.5891 76.5088V75.0992C16.5891 74.2378 16.8253 73.3763 17.2451 72.6193L17.9535 71.3924C18.6881 70.1133 18.6881 68.5471 17.9535 67.2679L17.2451 66.041C16.799 65.284 16.5891 64.4226 16.5891 63.5611V62.1515C16.5891 60.6897 15.802 59.3323 14.5164 58.5752L13.2833 57.8704C12.5224 57.4266 11.8927 56.8001 11.4467 56.0431L10.7383 54.8162C10.0036 53.5371 8.6393 52.754 7.1438 52.754H5.727C4.8611 52.754 3.9953 52.5191 3.2344 52.1014L2.0013 51.3966C0.715701 50.6657 -0.858499 50.6657 -2.1442 51.3966L-3.3773 52.1014C-4.1382 52.5452 -5.004 52.754 -5.8698 52.754H-7.2866Z" fill="black"/>
<path d="M0.742292 73.6893C0.689792 73.6893 0.663594 73.6632 0.611094 73.611C0.584894 73.5588 0.558594 73.5066 0.558594 73.4544C0.558594 73.4283 0.558594 73.3761 0.558594 73.3238L2.76249 66.1713C2.78879 66.093 2.81499 66.0408 2.86749 65.9886C2.91999 65.9363 2.97239 65.9102 3.05119 65.9102H3.65459C3.73329 65.9102 3.81199 65.9363 3.83829 65.9886C3.89069 66.0408 3.91699 66.093 3.94319 66.1713L6.14709 73.3238C6.14709 73.3761 6.17339 73.4022 6.17339 73.4544C6.17339 73.5066 6.14709 73.5588 6.12089 73.611C6.09469 73.6632 6.04219 73.6893 5.98969 73.6893H5.54369C5.46499 73.6893 5.41249 73.6632 5.38629 73.611C5.35999 73.5588 5.33379 73.5327 5.30749 73.4805L4.88769 72.0969C4.83529 71.9925 4.75659 71.9142 4.62539 71.9142H2.08039C1.97539 71.9142 1.87049 71.9925 1.84419 72.0969L1.39819 73.5066C1.39819 73.5327 1.37199 73.5849 1.34569 73.6371C1.31949 73.6893 1.26699 73.7154 1.18829 73.7154H0.742292V73.6893ZM2.29029 70.9745H4.41549C4.49419 70.9745 4.52039 70.8962 4.52039 70.8439L3.44469 67.3721C3.41849 67.2677 3.28729 67.2677 3.26099 67.3721L2.18529 70.8439C2.18529 70.8962 2.23779 70.9745 2.29029 70.9745Z" fill="black"/>
<path d="M12.364 66.9806C12.1804 66.6413 11.9442 66.3541 11.6031 66.1975C11.2883 66.0148 10.8947 65.9365 10.4487 65.9365H8.69082C8.29732 65.9365 7.98242 66.2497 7.98242 66.6413V67.0328V73.4284C7.98242 73.5067 8.00872 73.5589 8.03492 73.6111C8.06112 73.6633 8.11362 73.6894 8.19232 73.6894H8.66462C8.71712 73.6894 8.76952 73.6633 8.82202 73.6111C8.84832 73.5589 8.87452 73.5067 8.87452 73.4284V70.8702C8.87452 70.7396 8.97942 70.6613 9.08442 70.6613H10.4487C10.8947 70.6613 11.2621 70.583 11.6031 70.4003C11.918 70.2176 12.1804 69.9565 12.364 69.6172C12.5477 69.2778 12.6264 68.834 12.6264 68.312C12.6264 67.7899 12.5477 67.3461 12.364 66.9806ZM11.4195 69.3561C11.2096 69.5911 10.8685 69.7216 10.4225 69.7216H9.11062C8.97942 69.7216 8.87452 69.6172 8.87452 69.4866V67.059C8.87452 66.9284 8.97942 66.824 9.11062 66.824H10.4225C10.8685 66.824 11.2096 66.9545 11.4195 67.1895C11.6294 67.4505 11.7343 67.7899 11.7343 68.2597C11.7343 68.7818 11.6294 69.1212 11.4195 69.3561Z" fill="black"/>
</g>
<g clip-path="url(#clip4_21646_36)">
<path d="M39.4286 108.673C38.5627 108.673 37.6969 108.465 36.936 108.021L35.7029 107.316C35.0732 106.951 34.3648 106.768 33.6302 106.768H32.2134C30.4292 106.768 28.7763 105.828 27.8842 104.288L27.1758 103.061C26.8085 102.435 26.2838 101.912 25.6541 101.547L24.4209 100.842C22.873 99.9546 21.9284 98.31 21.9284 96.5349V95.1253C21.9284 94.3944 21.7448 93.6896 21.3774 93.0631L20.669 91.8362C19.777 90.296 19.777 88.3904 20.669 86.8764L21.3774 85.6495C21.7448 85.023 21.9284 84.3182 21.9284 83.5872V82.1776C21.9284 80.4025 22.873 78.758 24.4209 77.8704L25.6541 77.1656C26.2838 76.774 26.8085 76.252 27.1758 75.6255L27.8842 74.3986C28.7763 72.8584 30.4292 71.9187 32.2134 71.9187H33.6302C34.3648 71.9187 35.0732 71.7359 35.7029 71.3705L36.936 70.6657C38.484 69.7781 40.3993 69.7781 41.9211 70.6657L43.1542 71.3705C43.7839 71.7359 44.4923 71.9187 45.227 71.9187H46.6438C48.4279 71.9187 50.0808 72.8584 50.9729 74.3986L51.6813 75.6255C52.0486 76.252 52.5734 76.7741 53.203 77.1395L54.4362 77.8443C55.9842 78.7319 56.9287 80.3764 56.9287 82.1515V83.5611C56.9287 84.2921 57.1124 84.9969 57.4797 85.6234L58.1881 86.8503C59.0802 88.3904 59.0802 90.296 58.1881 91.8101L57.4797 93.037C57.1124 93.6635 56.9287 94.3683 56.9287 95.0992V96.5088C56.9287 98.2839 55.9842 99.9285 54.4362 100.816L53.203 101.521C52.5734 101.886 52.0486 102.408 51.6813 103.035L50.9729 104.262C50.0808 105.802 48.4279 106.742 46.6438 106.742H45.227C44.4923 106.742 43.7839 106.924 43.1542 107.29L41.9211 107.995C41.1602 108.465 40.2944 108.673 39.4286 108.673ZM32.2134 72.754C30.7441 72.754 29.3798 73.5371 28.6189 74.8162L27.9105 76.0431C27.4645 76.8001 26.8348 77.4266 26.0739 77.8704L24.8407 78.5752C23.5551 79.3062 22.768 80.6636 22.768 82.1515V83.5611C22.768 84.4226 22.5319 85.284 22.1121 86.041L21.4037 87.2679C20.669 88.5471 20.669 90.1133 21.4037 91.3924L22.1121 92.6193C22.5581 93.3763 22.768 94.2378 22.768 95.0992V96.5088C22.768 97.9707 23.5551 99.3281 24.8407 100.085L26.0739 100.79C26.8348 101.234 27.4645 101.86 27.9105 102.617L28.6189 103.844C29.3535 105.123 30.7179 105.906 32.2134 105.906H33.6302C34.496 105.906 35.3618 106.141 36.1227 106.559L37.3558 107.264C38.6415 107.995 40.2157 107.995 41.5013 107.264L42.7344 106.559C43.4953 106.115 44.3611 105.906 45.227 105.906H46.6438C48.1131 105.906 49.4774 105.123 50.2383 103.844L50.9467 102.617C51.3927 101.86 52.0224 101.234 52.7833 100.79L54.0164 100.085C55.302 99.3542 56.0891 97.9968 56.0891 96.5088V95.0992C56.0891 94.2378 56.3253 93.3763 56.7451 92.6193L57.4535 91.3924C58.1881 90.1133 58.1881 88.5471 57.4535 87.2679L56.7451 86.041C56.299 85.284 56.0891 84.4226 56.0891 83.5611V82.1515C56.0891 80.6897 55.302 79.3323 54.0164 78.5752L52.7833 77.8704C52.0224 77.4266 51.3927 76.8001 50.9467 76.0431L50.2383 74.8162C49.5036 73.5371 48.1393 72.754 46.6438 72.754H45.227C44.3611 72.754 43.4953 72.5191 42.7344 72.1014L41.5013 71.3966C40.2157 70.6657 38.6415 70.6657 37.3558 71.3966L36.1227 72.1014C35.3618 72.5452 34.496 72.754 33.6302 72.754H32.2134Z" fill="black"/>
<path d="M31.7675 86.9806C31.5838 86.6413 31.3477 86.3541 31.0066 86.1975C30.6918 86.0148 30.2982 85.9365 29.8522 85.9365H28.1205C27.7269 85.9365 27.4121 86.2497 27.4121 86.6413V87.0328V93.4284C27.4121 93.5067 27.4383 93.5589 27.4646 93.6111C27.4908 93.6633 27.5433 93.6894 27.622 93.6894H28.0943C28.1467 93.6894 28.1992 93.6633 28.2517 93.6111C28.2779 93.5589 28.3042 93.5067 28.3042 93.4284V90.8702C28.3042 90.7396 28.4091 90.6613 28.5141 90.6613H29.8784C30.3245 90.6613 30.6918 90.583 31.0329 90.4003C31.374 90.2176 31.6101 89.9565 31.7937 89.6172C31.9774 89.2778 32.0561 88.834 32.0561 88.312C32.0299 87.7899 31.9249 87.3461 31.7675 86.9806ZM30.7967 89.3561C30.5868 89.5911 30.2458 89.7216 29.7997 89.7216H28.4878C28.3566 89.7216 28.2517 89.6172 28.2517 89.4866V87.059C28.2517 86.9284 28.3566 86.824 28.4878 86.824H29.7997C30.2458 86.824 30.5868 86.9545 30.7967 87.1895C31.0066 87.4505 31.1116 87.7899 31.1116 88.2597C31.1378 88.7818 31.0329 89.1212 30.7967 89.3561Z" fill="black"/>
<path d="M40.2423 93.6893C40.1898 93.6893 40.1636 93.6632 40.1111 93.611C40.0849 93.5588 40.0586 93.5066 40.0586 93.4544C40.0586 93.4283 40.0586 93.3761 40.0586 93.3238L42.2625 86.1713C42.2888 86.093 42.315 86.0408 42.3675 85.9886C42.42 85.9363 42.4724 85.9102 42.5512 85.9102H43.1546C43.2333 85.9102 43.312 85.9363 43.3383 85.9886C43.3907 86.0408 43.417 86.093 43.4432 86.1713L45.6471 93.3238C45.6471 93.3761 45.6734 93.4022 45.6734 93.4544C45.6734 93.5066 45.6471 93.5588 45.6209 93.611C45.5947 93.6632 45.5422 93.6893 45.4897 93.6893H45.0437C44.965 93.6893 44.9125 93.6632 44.8863 93.611C44.86 93.5588 44.8338 93.5327 44.8075 93.4805L44.3877 92.0969C44.3353 91.9925 44.2566 91.9142 44.1254 91.9142H41.5804C41.4754 91.9142 41.3705 91.9925 41.3442 92.0969L40.8982 93.5066C40.8982 93.5327 40.872 93.5849 40.8457 93.6371C40.8195 93.6893 40.767 93.7154 40.6883 93.7154H40.2423V93.6893ZM41.7903 90.9745H43.9155C43.9942 90.9745 44.0204 90.8962 44.0204 90.8439L42.9447 87.3721C42.9185 87.2677 42.7873 87.2677 42.761 87.3721L41.6853 90.8439C41.6853 90.8962 41.7378 90.9745 41.7903 90.9745Z" fill="black"/>
<path fill-rule="evenodd" clip-rule="evenodd" d="M33.7608 90.1392L35.7024 93.4283C35.9123 93.7416 36.3845 93.7416 36.5682 93.4544L38.4573 90.1653C38.6147 89.852 38.6147 89.4866 38.431 89.1733L36.5157 86.0669C36.332 85.7537 35.8598 85.7537 35.6761 86.0669L33.7608 89.1472C33.5771 89.4344 33.5771 89.8259 33.7608 90.1392ZM34.6017 89.7475L35.9923 92.123C36.071 92.2274 36.2022 92.2274 36.2809 92.123L37.6452 89.7475C37.6715 89.6953 37.6715 89.6431 37.6452 89.5909L36.2547 87.346C36.2022 87.2415 36.0448 87.2415 35.9923 87.346L34.6017 89.5909C34.5755 89.6431 34.5755 89.6953 34.6017 89.7475Z" fill="black"/>
<path d="M51.864 86.9806C51.6804 86.6413 51.4442 86.3541 51.1031 86.1975C50.7883 86.0148 50.3947 85.9365 49.9487 85.9365H48.1908C47.7973 85.9365 47.4824 86.2497 47.4824 86.6413V87.0328V93.4284C47.4824 93.5067 47.5087 93.5589 47.5349 93.6111C47.5611 93.6633 47.6136 93.6894 47.6923 93.6894H48.1646C48.2171 93.6894 48.2695 93.6633 48.322 93.6111C48.3483 93.5589 48.3745 93.5067 48.3745 93.4284V90.8702C48.3745 90.7396 48.4794 90.6613 48.5844 90.6613H49.9487C50.3947 90.6613 50.7621 90.583 51.1031 90.4003C51.418 90.2176 51.6804 89.9565 51.864 89.6172C52.0477 89.2778 52.1264 88.834 52.1264 88.312C52.1264 87.7899 52.0477 87.3461 51.864 86.9806ZM50.9195 89.3561C50.7096 89.5911 50.3685 89.7216 49.9225 89.7216H48.6106C48.4794 89.7216 48.3745 89.6172 48.3745 89.4866V87.059C48.3745 86.9284 48.4794 86.824 48.6106 86.824H49.9225C50.3685 86.824 50.7096 86.9545 50.9195 87.1895C51.1294 87.4505 51.2343 87.7899 51.2343 88.2597C51.2343 88.7818 51.1294 89.1212 50.9195 89.3561Z" fill="black"/>
</g>
<g clip-path="url(#clip5_21646_36)">
<path fill-rule="evenodd" clip-rule="evenodd" d="M39.3119 8.67165C39.0808 8.66659 38.8501 8.64657 38.6217 8.61108L35.6176 16.8172C35.5914 16.9216 35.4864 16.9999 35.3552 16.9999C35.2503 16.9999 35.1453 16.9477 35.0929 16.8172L33.2038 12.8232C32.9677 12.3272 32.5216 11.9879 31.9969 11.9618C31.787 11.9618 31.5508 11.9879 31.341 12.0923L27.248 13.9979C27.143 14.0501 27.0118 14.024 26.9331 13.9457C26.8544 13.8674 26.8019 13.7369 26.8544 13.6324L29.6249 6.05208C29.429 5.93459 29.2412 5.80369 29.0629 5.66016L26.0412 13.8935C25.8313 14.4939 26.461 15.0682 27.0644 14.8072L31.6034 12.6927C31.9708 12.51 32.4168 12.6927 32.5742 13.0582L34.6994 17.5742C34.988 18.1746 35.8276 18.1224 36.0637 17.522L39.3119 8.67165ZM29.8585 6.18383L27.0905 13.7369V13.763H27.1168L31.2098 11.8573C31.4459 11.7268 31.7083 11.6746 31.9969 11.7007C32.6003 11.7268 33.1513 12.1184 33.4399 12.7188L35.329 16.7127C35.329 16.7258 35.329 16.7323 35.3322 16.7356C35.3355 16.7388 35.342 16.7388 35.3552 16.7388C35.3815 16.7388 35.3815 16.7127 35.3815 16.7127L38.3736 8.56623C37.8725 8.46268 37.3863 8.28251 36.9368 8.02034L35.7037 7.31554C35.074 6.95004 34.3656 6.76733 33.631 6.76733H32.2142C31.3787 6.76733 30.5719 6.56121 29.8585 6.18383Z" fill="black"/>
<path fill-rule="evenodd" clip-rule="evenodd" d="M39.5137 8.67312L42.7616 17.5228C42.9977 18.1232 43.8373 18.1754 44.1259 17.575L46.2511 13.059C46.4085 12.6935 46.8545 12.5108 47.2219 12.6935L51.7609 14.808C52.3643 15.069 52.994 14.4947 52.7841 13.8943L49.7625 5.66113C49.5834 5.80283 49.3949 5.93189 49.1985 6.04755L51.971 13.6333C52.0235 13.7378 51.971 13.8683 51.8923 13.9466C51.8136 14.0249 51.6824 14.051 51.5774 13.9988L47.4844 12.0932C47.2746 11.9888 47.0384 11.9627 46.8285 11.9627C46.3038 11.9888 45.8577 12.3281 45.6216 12.8241L43.7325 16.8181C43.6801 16.9486 43.5751 17.0008 43.4702 17.0008C43.339 17.0008 43.234 16.9225 43.2078 16.8181L40.2052 8.61601C39.9763 8.65076 39.7451 8.66946 39.5137 8.67312ZM40.4535 8.57179L43.4439 16.7136C43.4439 16.7136 43.4439 16.7397 43.4702 16.7397C43.4833 16.7397 43.4899 16.7397 43.4931 16.7364C43.4964 16.7331 43.4964 16.7266 43.4964 16.7136L45.3855 12.7197C45.6741 12.1193 46.2251 11.7277 46.8285 11.7016C47.1171 11.6755 47.3795 11.7277 47.6156 11.8582L51.7086 13.7639H51.7349V13.7378L48.9641 6.17725C48.2596 6.54275 47.4657 6.74208 46.6441 6.74208H45.2273C44.4926 6.74208 43.7842 6.92479 43.1545 7.29029L41.9214 7.99509C41.4626 8.27844 40.9656 8.46685 40.4535 8.57179Z" fill="black"/>
<path d="M39.4286 8.6734C38.5627 8.6734 37.6969 8.4646 36.936 8.0208L35.7029 7.316C35.0732 6.9505 34.3648 6.7678 33.6302 6.7678H32.2134C30.4292 6.7678 28.7763 5.828 27.8842 4.2879L27.1758 3.061C26.8085 2.4345 26.2838 1.9124 25.6541 1.547L24.4209 0.8421C22.873 -0.0453998 21.9284 -1.69 21.9284 -3.4651V-4.8747C21.9284 -5.6056 21.7448 -6.3104 21.3774 -6.9369L20.669 -8.1638C19.777 -9.704 19.777 -11.6096 20.669 -13.1236L21.3774 -14.3505C21.7448 -14.977 21.9284 -15.6818 21.9284 -16.4128V-17.8224C21.9284 -19.5975 22.873 -21.242 24.4209 -22.1296L25.6541 -22.8344C26.2838 -23.226 26.8085 -23.748 27.1758 -24.3745L27.8842 -25.6014C28.7763 -27.1416 30.4292 -28.0813 32.2134 -28.0813H33.6302C34.3648 -28.0813 35.0732 -28.2641 35.7029 -28.6295L36.936 -29.3343C38.484 -30.2219 40.3993 -30.2219 41.9211 -29.3343L43.1542 -28.6295C43.7839 -28.2641 44.4923 -28.0813 45.227 -28.0813H46.6438C48.4279 -28.0813 50.0808 -27.1416 50.9729 -25.6014L51.6813 -24.3745C52.0486 -23.748 52.5734 -23.2259 53.203 -22.8605L54.4362 -22.1557C55.9842 -21.2681 56.9287 -19.6236 56.9287 -17.8485V-16.4389C56.9287 -15.7079 57.1124 -15.0031 57.4797 -14.3766L58.1881 -13.1497C59.0802 -11.6096 59.0802 -9.704 58.1881 -8.1899L57.4797 -6.963C57.1124 -6.3365 56.9287 -5.6317 56.9287 -4.9008V-3.4912C56.9287 -1.7161 55.9842 -0.0715 54.4362 0.816L53.203 1.5209C52.5734 1.8863 52.0486 2.4084 51.6813 3.0349L50.9729 4.2618C50.0808 5.8019 48.4279 6.7417 46.6438 6.7417H45.227C44.4923 6.7417 43.7839 6.9244 43.1542 7.2899L41.9211 7.9947C41.1602 8.4646 40.2944 8.6734 39.4286 8.6734ZM32.2134 -27.246C30.7441 -27.246 29.3798 -26.4629 28.6189 -25.1838L27.9105 -23.9569C27.4645 -23.1999 26.8348 -22.5734 26.0739 -22.1296L24.8407 -21.4248C23.5551 -20.6938 22.768 -19.3364 22.768 -17.8485V-16.4389C22.768 -15.5774 22.5319 -14.716 22.1121 -13.959L21.4037 -12.7321C20.669 -11.4529 20.669 -9.8867 21.4037 -8.6076L22.1121 -7.3807C22.5581 -6.6237 22.768 -5.7622 22.768 -4.9008V-3.4912C22.768 -2.0293 23.5551 -0.6719 24.8407 0.0851002L26.0739 0.7899C26.8348 1.2337 27.4645 1.8602 27.9105 2.6172L28.6189 3.8441C29.3535 5.1232 30.7179 5.9064 32.2134 5.9064H33.6302C34.496 5.9064 35.3618 6.1413 36.1227 6.559L37.3558 7.2638C38.6415 7.9947 40.2157 7.9947 41.5013 7.2638L42.7344 6.559C43.4953 6.1152 44.3611 5.9064 45.227 5.9064H46.6438C48.1131 5.9064 49.4774 5.1232 50.2383 3.8441L50.9467 2.6172C51.3927 1.8602 52.0224 1.2337 52.7833 0.7899L54.0164 0.0851002C55.302 -0.6458 56.0891 -2.0032 56.0891 -3.4912V-4.9008C56.0891 -5.7622 56.3253 -6.6237 56.7451 -7.3807L57.4535 -8.6076C58.1881 -9.8867 58.1881 -11.4529 57.4535 -12.7321L56.7451 -13.959C56.299 -14.716 56.0891 -15.5774 56.0891 -16.4389V-17.8485C56.0891 -19.3103 55.302 -20.6677 54.0164 -21.4248L52.7833 -22.1296C52.0224 -22.5734 51.3927 -23.1999 50.9467 -23.9569L50.2383 -25.1838C49.5036 -26.4629 48.1393 -27.246 46.6438 -27.246H45.227C44.3611 -27.246 43.4953 -27.4809 42.7344 -27.8986L41.5013 -28.6034C40.2157 -29.3343 38.6415 -29.3343 37.3558 -28.6034L36.1227 -27.8986C35.3618 -27.4548 34.496 -27.246 33.6302 -27.246H32.2134Z" fill="black"/>
</g>
<g clip-path="url(#clip6_21646_36)">
<path fill-rule="evenodd" clip-rule="evenodd" d="M78.8119 38.6716C78.5808 38.6666 78.3501 38.6466 78.1217 38.6111L75.1176 46.8172C75.0914 46.9216 74.9864 46.9999 74.8552 46.9999C74.7503 46.9999 74.6453 46.9477 74.5929 46.8172L72.7038 42.8232C72.4677 42.3272 72.0216 41.9879 71.4969 41.9618C71.287 41.9618 71.0508 41.9879 70.841 42.0923L66.748 43.9979C66.643 44.0501 66.5118 44.024 66.4331 43.9457C66.3544 43.8674 66.3019 43.7369 66.3544 43.6324L69.1249 36.0521C68.929 35.9346 68.7412 35.8037 68.5629 35.6602L65.5412 43.8935C65.3313 44.4939 65.961 45.0682 66.5644 44.8072L71.1034 42.6927C71.4708 42.51 71.9168 42.6927 72.0742 43.0582L74.1994 47.5742C74.488 48.1746 75.3276 48.1224 75.5637 47.522L78.8119 38.6716ZM69.3585 36.1838L66.5905 43.7369V43.763H66.6168L70.7098 41.8573C70.9459 41.7268 71.2083 41.6746 71.4969 41.7007C72.1003 41.7268 72.6513 42.1184 72.9399 42.7188L74.829 46.7127C74.829 46.7258 74.829 46.7323 74.8322 46.7356C74.8355 46.7388 74.842 46.7388 74.8552 46.7388C74.8815 46.7388 74.8815 46.7127 74.8815 46.7127L77.8736 38.5662C77.3725 38.4627 76.8863 38.2825 76.4368 38.0203L75.2037 37.3155C74.574 36.95 73.8656 36.7673 73.131 36.7673H71.7142C70.8787 36.7673 70.0719 36.5612 69.3585 36.1838Z" fill="black"/>
<path d="M78.9286 38.6734C78.0627 38.6734 77.1969 38.4646 76.436 38.0208L75.2029 37.316C74.5732 36.9505 73.8648 36.7678 73.1302 36.7678H71.7134C69.9292 36.7678 68.2763 35.828 67.3842 34.2879L66.6758 33.061C66.3085 32.4345 65.7838 31.9124 65.1541 31.547L63.9209 30.8421C62.373 29.9546 61.4284 28.31 61.4284 26.5349V25.1253C61.4284 24.3944 61.2448 23.6896 60.8774 23.0631L60.169 21.8362C59.277 20.296 59.277 18.3904 60.169 16.8764L60.8774 15.6495C61.2448 15.023 61.4284 14.3182 61.4284 13.5872V12.1776C61.4284 10.4025 62.373 8.75797 63.9209 7.87042L65.1541 7.16561C65.7838 6.77405 66.3085 6.25196 66.6758 5.62546L67.3842 4.39856C68.2763 2.85841 69.9292 1.91866 71.7134 1.91866H73.1302C73.8648 1.91866 74.5732 1.73593 75.2029 1.37047L76.436 0.665658C77.984 -0.221886 79.8993 -0.221886 81.4211 0.665658L82.6542 1.37047C83.2839 1.73593 83.9923 1.91866 84.727 1.91866H86.1438C87.9279 1.91866 89.5808 2.85841 90.4729 4.39856L91.1813 5.62546C91.5486 6.25196 92.0734 6.77405 92.703 7.13951L93.9362 7.84432C95.4842 8.73186 96.4287 10.3764 96.4287 12.1515V13.5611C96.4287 14.2921 96.6124 14.9969 96.9797 15.6234L97.6881 16.8503C98.5802 18.3904 98.5802 20.296 97.6881 21.8101L96.9797 23.037C96.6124 23.6635 96.4287 24.3683 96.4287 25.0992V26.5088C96.4287 28.2839 95.4842 29.9285 93.9362 30.816L92.703 31.5209C92.0734 31.8863 91.5486 32.4084 91.1813 33.0349L90.4729 34.2618C89.5808 35.8019 87.9279 36.7417 86.1438 36.7417H84.727C83.9923 36.7417 83.2839 36.9244 82.6542 37.2899L81.4211 37.9947C80.6602 38.4646 79.7944 38.6734 78.9286 38.6734ZM71.7134 2.754C70.2441 2.754 68.8798 3.53712 68.1189 4.81623L67.4105 6.04313C66.9645 6.80015 66.3348 7.42665 65.5739 7.87042L64.3407 8.57524C63.0551 9.30616 62.268 10.6636 62.268 12.1515V13.5611C62.268 14.4226 62.0319 15.284 61.6121 16.041L60.9037 17.2679C60.169 18.5471 60.169 20.1133 60.9037 21.3924L61.6121 22.6193C62.0581 23.3763 62.268 24.2378 62.268 25.0992V26.5088C62.268 27.9707 63.0551 29.3281 64.3407 30.0851L65.5739 30.7899C66.3348 31.2337 66.9645 31.8602 67.4105 32.6172L68.1189 33.8441C68.8535 35.1232 70.2179 35.9064 71.7134 35.9064H73.1302C73.996 35.9064 74.8618 36.1413 75.6227 36.559L76.8558 37.2638C78.1415 37.9947 79.7157 37.9947 81.0013 37.2638L82.2344 36.559C82.9953 36.1152 83.8611 35.9064 84.727 35.9064H86.1438C87.6131 35.9064 88.9774 35.1232 89.7383 33.8441L90.4467 32.6172C90.8927 31.8602 91.5224 31.2337 92.2833 30.7899L93.5164 30.0851C94.802 29.3542 95.5891 27.9968 95.5891 26.5088V25.0992C95.5891 24.2378 95.8253 23.3763 96.2451 22.6193L96.9535 21.3924C97.6881 20.1133 97.6881 18.5471 96.9535 17.2679L96.2451 16.041C95.799 15.284 95.5891 14.4226 95.5891 13.5611V12.1515C95.5891 10.6897 94.802 9.33226 93.5164 8.57524L92.2833 7.87042C91.5224 7.42665 90.8927 6.80015 90.4467 6.04313L89.7383 4.81623C89.0036 3.53712 87.6393 2.754 86.1438 2.754H84.727C83.8611 2.754 82.9953 2.51906 82.2344 2.10139L81.0013 1.39658C79.7157 0.665658 78.1415 0.665658 76.8558 1.39658L75.6227 2.10139C74.8618 2.54516 73.996 2.754 73.1302 2.754H71.7134Z" fill="black"/>
<path d="M71.2675 16.9806C71.0838 16.6413 70.8477 16.3541 70.5066 16.1975C70.1918 16.0148 69.7982 15.9365 69.3522 15.9365H67.6205C67.2269 15.9365 66.9121 16.2497 66.9121 16.6413V17.0328V23.4284C66.9121 23.5067 66.9383 23.5589 66.9646 23.6111C66.9908 23.6633 67.0433 23.6894 67.122 23.6894H67.5943C67.6467 23.6894 67.6992 23.6633 67.7517 23.6111C67.7779 23.5589 67.8042 23.5067 67.8042 23.4284V20.8702C67.8042 20.7396 67.9091 20.6613 68.0141 20.6613H69.3784C69.8245 20.6613 70.1918 20.583 70.5329 20.4003C70.874 20.2176 71.1101 19.9565 71.2937 19.6172C71.4774 19.2778 71.5561 18.834 71.5561 18.312C71.5299 17.7899 71.4249 17.3461 71.2675 16.9806ZM70.2967 19.3561C70.0868 19.5911 69.7458 19.7216 69.2997 19.7216H67.9878C67.8566 19.7216 67.7517 19.6172 67.7517 19.4866V17.059C67.7517 16.9284 67.8566 16.824 67.9878 16.824H69.2997C69.7458 16.824 70.0868 16.9545 70.2967 17.1895C70.5066 17.4505 70.6116 17.7899 70.6116 18.2597C70.6378 18.7818 70.5329 19.1212 70.2967 19.3561Z" fill="black"/>
<path fill-rule="evenodd" clip-rule="evenodd" d="M73.2608 20.1392L75.2024 23.4283C75.4123 23.7416 75.8845 23.7416 76.0682 23.4544L77.9573 20.1653C78.1147 19.852 78.1147 19.4866 77.931 19.1733L76.0157 16.0669C75.832 15.7537 75.3598 15.7537 75.1761 16.0669L73.2608 19.1472C73.0771 19.4344 73.0771 19.8259 73.2608 20.1392ZM74.1017 19.7475L75.4923 22.123C75.571 22.2274 75.7022 22.2274 75.7809 22.123L77.1452 19.7475C77.1715 19.6953 77.1715 19.6431 77.1452 19.5909L75.7547 17.346C75.7022 17.2415 75.5448 17.2415 75.4923 17.346L74.1017 19.5909C74.0755 19.6431 74.0755 19.6953 74.1017 19.7475Z" fill="black"/>
</g>
<g clip-path="url(#clip7_21646_36)">
<path fill-rule="evenodd" clip-rule="evenodd" d="M78.8119 88.6716C78.5808 88.6666 78.3501 88.6466 78.1217 88.6111L75.1176 96.8172C75.0914 96.9216 74.9864 96.9999 74.8552 96.9999C74.7503 96.9999 74.6453 96.9477 74.5929 96.8172L72.7038 92.8232C72.4677 92.3272 72.0216 91.9879 71.4969 91.9618C71.287 91.9618 71.0508 91.9879 70.841 92.0923L66.748 93.9979C66.643 94.0501 66.5118 94.024 66.4331 93.9457C66.3544 93.8674 66.3019 93.7369 66.3544 93.6324L69.1249 86.0521C68.929 85.9346 68.7412 85.8037 68.5629 85.6602L65.5412 93.8935C65.3313 94.4939 65.961 95.0682 66.5644 94.8072L71.1034 92.6927C71.4708 92.51 71.9168 92.6927 72.0742 93.0582L74.1994 97.5742C74.488 98.1746 75.3276 98.1224 75.5637 97.522L78.8119 88.6716ZM69.3585 86.1838L66.5905 93.7369V93.763H66.6168L70.7098 91.8573C70.9459 91.7268 71.2083 91.6746 71.4969 91.7007C72.1003 91.7268 72.6513 92.1184 72.9399 92.7188L74.829 96.7127C74.829 96.7258 74.829 96.7323 74.8322 96.7356C74.8355 96.7388 74.842 96.7388 74.8552 96.7388C74.8815 96.7388 74.8815 96.7127 74.8815 96.7127L77.8736 88.5662C77.3725 88.4627 76.8863 88.2825 76.4368 88.0203L75.2037 87.3155C74.574 86.95 73.8656 86.7673 73.131 86.7673H71.7142C70.8787 86.7673 70.0719 86.5612 69.3585 86.1838Z" fill="black"/>
<path d="M78.9286 88.6734C78.0627 88.6734 77.1969 88.4646 76.436 88.0208L75.2029 87.316C74.5732 86.9505 73.8648 86.7678 73.1302 86.7678H71.7134C69.9292 86.7678 68.2763 85.828 67.3842 84.2879L66.6758 83.061C66.3085 82.4345 65.7838 81.9124 65.1541 81.547L63.9209 80.8421C62.373 79.9546 61.4284 78.31 61.4284 76.5349V75.1253C61.4284 74.3944 61.2448 73.6896 60.8774 73.0631L60.169 71.8362C59.277 70.296 59.277 68.3904 60.169 66.8764L60.8774 65.6495C61.2448 65.023 61.4284 64.3182 61.4284 63.5872V62.1776C61.4284 60.4025 62.373 58.758 63.9209 57.8704L65.1541 57.1656C65.7838 56.774 66.3085 56.252 66.6758 55.6255L67.3842 54.3986C68.2763 52.8584 69.9292 51.9187 71.7134 51.9187H73.1302C73.8648 51.9187 74.5732 51.7359 75.2029 51.3705L76.436 50.6657C77.984 49.7781 79.8993 49.7781 81.4211 50.6657L82.6542 51.3705C83.2839 51.7359 83.9923 51.9187 84.727 51.9187H86.1438C87.9279 51.9187 89.5808 52.8584 90.4729 54.3986L91.1813 55.6255C91.5486 56.252 92.0734 56.7741 92.703 57.1395L93.9362 57.8443C95.4842 58.7319 96.4287 60.3764 96.4287 62.1515V63.5611C96.4287 64.2921 96.6124 64.9969 96.9797 65.6234L97.6881 66.8503C98.5802 68.3904 98.5802 70.296 97.6881 71.8101L96.9797 73.037C96.6124 73.6635 96.4287 74.3683 96.4287 75.0992V76.5088C96.4287 78.2839 95.4842 79.9285 93.9362 80.816L92.703 81.5209C92.0734 81.8863 91.5486 82.4084 91.1813 83.0349L90.4729 84.2618C89.5808 85.8019 87.9279 86.7417 86.1438 86.7417H84.727C83.9923 86.7417 83.2839 86.9244 82.6542 87.2899L81.4211 87.9947C80.6602 88.4646 79.7944 88.6734 78.9286 88.6734ZM71.7134 52.754C70.2441 52.754 68.8798 53.5371 68.1189 54.8162L67.4105 56.0431C66.9645 56.8001 66.3348 57.4266 65.5739 57.8704L64.3407 58.5752C63.0551 59.3062 62.268 60.6636 62.268 62.1515V63.5611C62.268 64.4226 62.0319 65.284 61.6121 66.041L60.9037 67.2679C60.169 68.5471 60.169 70.1133 60.9037 71.3924L61.6121 72.6193C62.0581 73.3763 62.268 74.2378 62.268 75.0992V76.5088C62.268 77.9707 63.0551 79.3281 64.3407 80.0851L65.5739 80.7899C66.3348 81.2337 66.9645 81.8602 67.4105 82.6172L68.1189 83.8441C68.8535 85.1232 70.2179 85.9064 71.7134 85.9064H73.1302C73.996 85.9064 74.8618 86.1413 75.6227 86.559L76.8558 87.2638C78.1415 87.9947 79.7157 87.9947 81.0013 87.2638L82.2344 86.559C82.9953 86.1152 83.8611 85.9064 84.727 85.9064H86.1438C87.6131 85.9064 88.9774 85.1232 89.7383 83.8441L90.4467 82.6172C90.8927 81.8602 91.5224 81.2337 92.2833 80.7899L93.5164 80.0851C94.802 79.3542 95.5891 77.9968 95.5891 76.5088V75.0992C95.5891 74.2378 95.8253 73.3763 96.2451 72.6193L96.9535 71.3924C97.6881 70.1133 97.6881 68.5471 96.9535 67.2679L96.2451 66.041C95.799 65.284 95.5891 64.4226 95.5891 63.5611V62.1515C95.5891 60.6897 94.802 59.3323 93.5164 58.5752L92.2833 57.8704C91.5224 57.4266 90.8927 56.8001 90.4467 56.0431L89.7383 54.8162C89.0036 53.5371 87.6393 52.754 86.1438 52.754H84.727C83.8611 52.754 82.9953 52.5191 82.2344 52.1014L81.0013 51.3966C79.7157 50.6657 78.1415 50.6657 76.8558 51.3966L75.6227 52.1014C74.8618 52.5452 73.996 52.754 73.1302 52.754H71.7134Z" fill="black"/>
<path d="M71.2675 66.9806C71.0838 66.6413 70.8477 66.3541 70.5066 66.1975C70.1918 66.0148 69.7982 65.9365 69.3522 65.9365H67.6205C67.2269 65.9365 66.9121 66.2497 66.9121 66.6413V67.0328V73.4284C66.9121 73.5067 66.9383 73.5589 66.9646 73.6111C66.9908 73.6633 67.0433 73.6894 67.122 73.6894H67.5943C67.6467 73.6894 67.6992 73.6633 67.7517 73.6111C67.7779 73.5589 67.8042 73.5067 67.8042 73.4284V70.8702C67.8042 70.7396 67.9091 70.6613 68.0141 70.6613H69.3784C69.8245 70.6613 70.1918 70.583 70.5329 70.4003C70.874 70.2176 71.1101 69.9565 71.2937 69.6172C71.4774 69.2778 71.5561 68.834 71.5561 68.312C71.5299 67.7899 71.4249 67.3461 71.2675 66.9806ZM70.2967 69.3561C70.0868 69.5911 69.7458 69.7216 69.2997 69.7216H67.9878C67.8566 69.7216 67.7517 69.6172 67.7517 69.4866V67.059C67.7517 66.9284 67.8566 66.824 67.9878 66.824H69.2997C69.7458 66.824 70.0868 66.9545 70.2967 67.1895C70.5066 67.4505 70.6116 67.7899 70.6116 68.2597C70.6378 68.7818 70.5329 69.1212 70.2967 69.3561Z" fill="black"/>
<path fill-rule="evenodd" clip-rule="evenodd" d="M73.2608 70.1392L75.2024 73.4283C75.4123 73.7416 75.8845 73.7416 76.0682 73.4544L77.9573 70.1653C78.1147 69.852 78.1147 69.4866 77.931 69.1733L76.0157 66.0669C75.832 65.7537 75.3598 65.7537 75.1761 66.0669L73.2608 69.1472C73.0771 69.4344 73.0771 69.8259 73.2608 70.1392ZM74.1017 69.7475L75.4923 72.123C75.571 72.2274 75.7022 72.2274 75.7809 72.123L77.1452 69.7475C77.1715 69.6953 77.1715 69.6431 77.1452 69.5909L75.7547 67.346C75.7022 67.2415 75.5448 67.2415 75.4923 67.346L74.1017 69.5909C74.0755 69.6431 74.0755 69.6953 74.1017 69.7475Z" fill="black"/>
</g>
</g>
<defs>
<clipPath id="clip0_21646_36">
<rect width="79" height="100" fill="white"/>
</clipPath>
<clipPath id="clip1_21646_36">
<rect width="39" height="48" fill="white" transform="translate(-19.5)"/>
</clipPath>
<clipPath id="clip2_21646_36">
<rect width="39" height="48" fill="white" transform="translate(20 20)"/>
</clipPath>
<clipPath id="clip3_21646_36">
<rect width="39" height="48" fill="white" transform="translate(-19.5 50)"/>
</clipPath>
<clipPath id="clip4_21646_36">
<rect width="39" height="48" fill="white" transform="translate(20 70)"/>
</clipPath>
<clipPath id="clip5_21646_36">
<rect width="39" height="48" fill="white" transform="translate(20 -30)"/>
</clipPath>
<clipPath id="clip6_21646_36">
<rect width="39" height="48" fill="white" transform="translate(59.5)"/>
</clipPath>
<clipPath id="clip7_21646_36">
<rect width="39" height="48" fill="white" transform="translate(59.5 50)"/>
</clipPath>
</defs>
</svg>
