<svg width="307" height="63" viewBox="0 0 307 63" fill="none" xmlns="http://www.w3.org/2000/svg">
<path d="M254 9C254 6.23858 256.239 4 259 4H299.066C302.745 4 305.164 7.83862 303.577 11.1573L297.032 24.8427C296.379 26.2069 296.379 27.7931 297.032 29.1573L303.577 42.8427C305.164 46.1614 302.745 50 299.066 50H259C256.239 50 254 47.7614 254 45V9Z" fill="#CBA46C"/>
<path d="M252 9.05669C252 5.12205 256.334 2.72909 259.664 4.82552L276.664 15.5292C278.118 16.4446 279 18.0423 279 19.7604V58C279 60.7614 276.761 63 274 63H257C254.239 63 252 60.7614 252 58V9.05669Z" fill="#C29452"/>
<path d="M53 9C53 6.23858 50.7614 4 48 4H7.93372C4.25504 4 1.83586 7.83862 3.42305 11.1573L9.96826 24.8427C10.6207 26.2069 10.6207 27.7931 9.96826 29.1573L3.42304 42.8427C1.83586 46.1614 4.25504 50 7.93372 50H48C50.7614 50 53 47.7614 53 45V9Z" fill="#CBA46C"/>
<path d="M55 9.05669C55 5.12205 50.6656 2.72909 47.3359 4.82552L30.3359 15.5292C28.8821 16.4446 28 18.0423 28 19.7604V58C28 60.7614 30.2386 63 33 63H50C52.7614 63 55 60.7614 55 58V9.05669Z" fill="#C29452"/>
<rect x="27" y="17" width="254" height="46" rx="5" fill="#D0AD7A"/>
</svg>
