<svg width="16" height="16" viewBox="0 0 16 16" fill="none" xmlns="http://www.w3.org/2000/svg">
<path fill-rule="evenodd" clip-rule="evenodd" d="M2.84616 5.06124C2.84616 4.74564 3.08724 4.48981 3.38462 4.48981H12.6154C12.9128 4.48981 13.1539 4.74564 13.1539 5.06124V7.02042C13.1539 7.33601 12.9128 7.59185 12.6154 7.59185H3.38462C3.08724 7.59185 2.84616 7.33601 2.84616 7.02042V5.06124ZM3.92308 5.63266V6.44899H12.0769V5.63266H3.92308Z" fill="currentColor"/>
<path fill-rule="evenodd" clip-rule="evenodd" d="M2.84616 8.97957C2.84616 8.66398 3.08724 8.40814 3.38462 8.40814H12.6154C12.9128 8.40814 13.1539 8.66398 13.1539 8.97957V14.8571C13.1539 15.058 13.0544 15.2442 12.892 15.3474C12.7295 15.4506 12.5279 15.4557 12.3611 15.3608L7.99963 12.8805L3.63899 15.3608C3.47211 15.4557 3.27051 15.4506 3.10806 15.3474C2.9456 15.2442 2.84616 15.0581 2.84616 14.8571V8.97957ZM3.92308 9.551V13.9025L7.74525 11.7286C7.90412 11.6382 8.09506 11.6382 8.25394 11.7285L12.0769 13.9026V9.551H3.92308Z" fill="currentColor"/>
<path fill-rule="evenodd" clip-rule="evenodd" d="M2.84616 1.14284C2.84616 0.827248 3.08724 0.571411 3.38462 0.571411H12.6154C12.9128 0.571411 13.1539 0.827248 13.1539 1.14284V3.10202C13.1539 3.41761 12.9128 3.67345 12.6154 3.67345H3.38462C3.08724 3.67345 2.84616 3.41761 2.84616 3.10202V1.14284ZM3.92308 1.71427V2.5306H12.0769V1.71427H3.92308Z" fill="currentColor"/>
</svg>
