<svg width="14" height="14" viewBox="0 0 14 14" fill="none" xmlns="http://www.w3.org/2000/svg">
<path d="M13 12H12V13H13V12Z" fill="white"/>
<path d="M2 12H1V13H2V12Z" fill="white"/>
<path d="M3 11V9H2V8H3V9H4V11H3V13H2V14H12V13H11V11H10V9H11V8H12V9H11V11H14V8H13V7H12V2H11V1H10V0H4V1H3V2H2V7H1V8H0V11H3ZM6 11H7V12H6V11ZM7 10H6V9H7V10ZM3 4H4V3H5V2H9V3H10V4H11V6H10V7H7V8H6V7H4V6H3V4Z" fill="white"/>
<path d="M5 4H4V6H5V4Z" fill="white"/>
<path d="M10 4H9V6H10V4Z" fill="white"/>
<path d="M6 4V6H8V4H9V3H5V4H6Z" fill="white"/>
</svg>
