<svg width="14" height="15" viewBox="0 0 14 15" fill="none" xmlns="http://www.w3.org/2000/svg">
<path d="M10 14H8V15H10V14Z" fill="white"/>
<path d="M6 14H4V15H6V14Z" fill="white"/>
<path d="M11 11H10V10H9V9H5V10H4V11H3V10H2V11H1V12H2V13H12V12H13V11H12V10H11V11Z" fill="white"/>
<path d="M1 10H2V9H3V10H4V5H5V4H7V0H3V1H2V2H1V6H0V9H1V10Z" fill="white"/>
<path d="M5 5V6H6V7H5V8H9V7H8V6H9V5H8V4H7V5H5Z" fill="white"/>
<path d="M9 5H10V10H11V9H12V10H13V9H14V6H13V2H12V1H11V0H8V4H9V5Z" fill="white"/>
</svg>
