<svg width="14" height="15" viewBox="0 0 14 15" fill="none" xmlns="http://www.w3.org/2000/svg">
<path d="M10 14H9V15H10V14Z" fill="white"/>
<path d="M5 14H4V15H5V14Z" fill="white"/>
<path d="M8 13H6V14H8V13Z" fill="white"/>
<path d="M5 11V13H6V12H8V13H9V11H5Z" fill="white"/>
<path d="M1 10H2V13H3V14H4V11H5V10H9V11H10V14H11V13H12V10H13V9H14V6H13V7H12V9H8V7H6V9H2V7H1V6H0V9H1V10Z" fill="white"/>
<path d="M12 6V2H11V3H10V4H4V3H3V2H2V6H12Z" fill="white"/>
<path d="M4 3H10V2H11V1H10V0H4V1H3V2H4V3Z" fill="white"/>
</svg>
