<svg width="16" height="14" viewBox="0 0 16 14" fill="none" xmlns="http://www.w3.org/2000/svg">
<path d="M1 12H0V13H1V12Z" fill="white"/>
<path d="M13 11H12V12H13V11Z" fill="white"/>
<path d="M8 6H7V7H8V6Z" fill="white"/>
<path d="M3 6H2V7H3V6Z" fill="white"/>
<path d="M15 1H14V0H5V1H4V2H3V3H2V4H3V5H4V7H3V8H4V9H3V8H1V9H0V11H1V10H2V11H5V10H6V11H8V9H10V12H9V13H7V12H5V13H4V12H2V13H1V14H11V13H12V12H11V10H13V11H14V10H15V9H16V2H15V1ZM5 9V8H6V9H5ZM7 8V7H6V5H7V4H10V5H11V7H10V8H7ZM14 3H13V5H12V3H13V2H14V3Z" fill="white"/>
</svg>
