<svg width="15" height="15" viewBox="0 0 15 15" fill="none" xmlns="http://www.w3.org/2000/svg">
<path d="M12 10H3V12H5V11H10V12H12V10Z" fill="white"/>
<path d="M1 13H2V14H3V15H12V14H13V13H14V9H15V7H14V8H12V9H13V12H12V13H10V12H5V13H3V12H2V9H3V8H1V7H0V9H1V13Z" fill="white"/>
<path d="M11 8H10V9H11V8Z" fill="white"/>
<path d="M9 8H6V9H9V8Z" fill="white"/>
<path d="M5 8H4V9H5V8Z" fill="white"/>
<path d="M14 5H1V7H14V5Z" fill="white"/>
<path d="M12 2V1H4V2H3V4H12V3H10V2H12Z" fill="white"/>
<path d="M15 0H13V2H15V0Z" fill="white"/>
</svg>
