<svg width="43" height="22" viewBox="0 0 43 22" fill="none" xmlns="http://www.w3.org/2000/svg">
<path d="M0 6.23529H8.88312M8.88312 6.23529V11V15.7648M8.88312 6.23529V2H21.7143C24.6753 2 29.2883 5.07054 29.4314 11M0 15.7648H8.88312M8.88312 15.7648V20.0001L21.7143 20C24.1818 20.0001 29.2883 16.9294 29.4314 11M29.4314 11C29.4314 12.3807 30.5507 13.5 31.9314 13.5C33.3121 13.5 34.4314 12.3807 34.4314 11M29.4314 11C29.4314 9.61926 30.5507 8.49997 31.9314 8.49997C33.3121 8.49997 34.4314 9.61926 34.4314 11M42.3758 11H34.4314" stroke="white" stroke-width="2.5" stroke-linejoin="round"/>
</svg>
