<svg width="16" height="16" viewBox="0 0 16 16" fill="none" xmlns="http://www.w3.org/2000/svg">
<g clip-path="url(#clip0_510_335)">
<path d="M15.516 14.176L15.352 14.252C14.368 14.704 13.24 14.824 12.18 14.584C11.608 14.456 11.076 14.232 10.592 13.924C11.552 14.176 12.6 14.056 13.484 13.588C13.524 13.568 13.568 13.544 13.608 13.52L13.78 13.424L13.3 12.58L13.128 12.68C13.096 12.7 13.064 12.716 13.032 12.732C12.076 13.236 10.948 13.2 10.016 12.64C9.188 12.144 8.652 11.324 8.52 10.392C9.66 10.288 12.456 9.8 14.7 7.556C14.76 7.496 14.82 7.436 14.876 7.376C15.496 6.72 15.792 5.94 15.728 5.116C15.672 4.392 15.34 3.692 14.796 3.148C14.252 2.604 13.548 2.268 12.828 2.216C12.184 2.164 11.552 2.34 10.996 2.72C10.872 2.056 10.552 1.492 10.06 1.068C9.508 0.595998 8.78 0.335999 8.008 0.335999C7.236 0.335999 6.504 0.595998 5.956 1.068C5.464 1.492 5.144 2.056 5.02 2.72C4.464 2.34 3.836 2.164 3.188 2.216C2.464 2.272 1.764 2.604 1.22 3.148C0.672 3.696 0.34 4.396 0.288 5.116C0.224 5.94 0.52 6.72 1.14 7.376C1.196 7.436 1.256 7.496 1.316 7.556C3.56 9.8 6.352 10.288 7.496 10.392C7.364 11.324 6.824 12.144 6 12.64C5.064 13.204 3.936 13.236 2.984 12.732C2.952 12.716 2.92 12.696 2.888 12.68L2.716 12.58L2.236 13.424L2.408 13.52C2.448 13.544 2.492 13.568 2.532 13.588C3.42 14.056 4.468 14.176 5.424 13.924C4.944 14.232 4.408 14.456 3.836 14.584C2.776 14.824 1.648 14.704 0.664 14.252L0.5 14.176L0 15.016L0.196 15.108C1.372 15.66 2.756 15.812 4.036 15.528C5.364 15.228 6.516 14.508 7.368 13.444C7.42 13.38 7.468 13.312 7.52 13.248V15.676H8.488V13.24C8.54 13.308 8.588 13.38 8.644 13.444C9.496 14.508 10.648 15.228 11.976 15.528C12.404 15.624 12.844 15.672 13.284 15.672C14.16 15.672 15.032 15.476 15.816 15.108L16 15.016L15.516 14.176ZM5.92 3.684C5.92 3.628 5.916 3.572 5.916 3.512C5.916 3.436 5.916 3.36 5.92 3.288C5.956 1.92 7.024 1.296 8 1.296C8.976 1.296 10.044 1.92 10.08 3.288C10.084 3.364 10.084 3.44 10.084 3.512C10.084 3.572 10.084 3.628 10.08 3.688L10.044 4.992L10.952 4.032C10.988 3.992 11.024 3.956 11.064 3.916C11.116 3.864 11.172 3.812 11.224 3.76C12.216 2.82 13.412 3.132 14.104 3.824C14.796 4.516 15.108 5.708 14.168 6.704C14.116 6.76 14.064 6.812 14.012 6.864C11.48 9.404 8.032 9.448 8 9.448C7.964 9.448 4.524 9.404 1.988 6.868C1.936 6.816 1.884 6.76 1.832 6.708C0.892 5.712 1.204 4.52 1.896 3.828C2.312 3.412 2.86 3.172 3.396 3.172C3.896 3.172 4.36 3.372 4.776 3.764C4.832 3.816 4.884 3.868 4.936 3.92C4.976 3.964 5.016 4.004 5.06 4.048L5.96 4.996L5.92 3.684Z" fill="currentColor"/>
</g>
<defs>
<clipPath id="clip0_510_335">
<rect width="16" height="16" />
</clipPath>
</defs>
</svg>
