<svg width="64" height="64" viewBox="0 0 64 64" fill="none" xmlns="http://www.w3.org/2000/svg">
<path fill-rule="evenodd" clip-rule="evenodd" d="M34.9701 0.724967C33.1966 -0.241656 31.0389 -0.241656 29.2653 0.724967L5.01359 13.9427C3.15337 14.9566 2 16.878 2 18.963V45.037C2 47.1221 3.15337 49.0435 5.01359 50.0575L29.2653 63.2752C31.0389 64.2416 33.1966 64.2416 34.9701 63.2752L59.2219 50.0575C61.0822 49.0435 62.2353 47.1221 62.2353 45.037V18.963C62.2353 16.878 61.0822 14.9566 59.2219 13.9427L34.9701 0.724967ZM35.0205 14.7645C33.7303 12.5758 30.5049 12.5758 29.2147 14.7645L14.7002 39.3868C13.41 41.5756 15.0227 44.3111 17.6031 44.3111H46.6322C49.2124 44.3111 50.8251 41.5756 49.535 39.3868L35.0205 14.7645Z" fill="white"/>
</svg>
