<?xml version="1.0" encoding="UTF-8" standalone="no"?><!-- Generator: Gravit.io --><svg xmlns="http://www.w3.org/2000/svg" xmlns:xlink="http://www.w3.org/1999/xlink" style="isolation:isolate" viewBox="0 0 48 48" width="48pt" height="48pt"><defs><clipPath id="_clipPath_m0oMoAfAS5y62g2NNq5tNGtM6wWT5yrl"><rect width="48" height="48"/></clipPath></defs><g clip-path="url(#_clipPath_m0oMoAfAS5y62g2NNq5tNGtM6wWT5yrl)"><circle vector-effect="non-scaling-stroke" cx="24" cy="24.000000000000014" r="24" fill="rgb(0,0,0)"/><g><g><g><g><path d=" M 17.416 31.719 C 16.678 31.719 16.054 31.192 15.93 30.463 L 11.729 5.76 C 11.661 5.362 11.752 4.963 11.986 4.635 C 12.221 4.307 12.568 4.089 12.964 4.021 C 13.784 3.883 14.564 4.436 14.705 5.256 L 18.906 29.959 C 18.974 30.357 18.883 30.756 18.648 31.084 C 18.414 31.412 18.067 31.63 17.671 31.698 C 17.589 31.712 17.502 31.719 17.416 31.719 Z " fill="rgb(204,255,0)"/></g></g></g><g><path d=" M 17.416 31.719 C 16.678 31.719 16.054 31.192 15.93 30.463 L 11.729 5.76 C 11.661 5.362 11.752 4.963 11.986 4.635 C 12.221 4.307 12.568 4.089 12.964 4.021 C 13.784 3.883 14.564 4.436 14.705 5.256 L 18.906 29.959 C 18.974 30.357 18.883 30.756 18.648 31.084 C 18.414 31.412 18.067 31.63 17.671 31.698 C 17.589 31.712 17.502 31.719 17.416 31.719 Z " fill="rgb(204,255,0)"/></g><path d=" M 24.457 20.326 C 22.055 20.326 19.822 21.045 17.955 22.28 L 18.463 25.27 C 20.068 23.871 22.166 23.021 24.457 23.021 C 29.498 23.021 33.599 27.121 33.599 32.162 C 33.599 37.202 29.498 41.303 24.457 41.303 C 19.417 41.303 15.316 37.202 15.316 32.162 C 15.316 31.489 15.391 30.835 15.529 30.205 L 14.719 25.446 C 13.397 27.356 12.621 29.671 12.621 32.164 C 12.621 38.69 17.931 44 24.457 44 C 30.983 44 36.293 38.69 36.293 32.164 C 36.293 25.638 30.986 20.326 24.457 20.326 Z " fill="rgb(204,255,0)"/><g><g><circle vector-effect="non-scaling-stroke" cx="23.810597686086787" cy="37.45754311143122" r="1.6121813536301275" fill="rgb(28,216,210)"/></g><g><circle vector-effect="non-scaling-stroke" cx="28.84632112932976" cy="35.580570343614745" r="1.6121813536301275" fill="rgb(28,216,210)"/></g><g><circle vector-effect="non-scaling-stroke" cx="24.888509637641828" cy="32.12422223808504" r="1.6121813536301275" fill="rgb(28,216,210)"/></g><g><circle vector-effect="non-scaling-stroke" cx="19.883248923464592" cy="33.771552894483264" r="1.6121813536301275" fill="rgb(28,216,210)"/></g><g><circle vector-effect="non-scaling-stroke" cx="29.87736734386065" cy="30.4722050079844" r="1.6121813536301275" fill="rgb(28,216,210)"/></g><g><circle vector-effect="non-scaling-stroke" cx="25.964078302345676" cy="26.790901364738854" r="1.6121813536301275" fill="rgb(28,216,210)"/></g><g><circle vector-effect="non-scaling-stroke" cx="20.91195185114424" cy="28.665530845704126" r="1.6121813536301275" fill="rgb(28,216,210)"/></g></g></g></g></svg>