<?xml version="1.0" encoding="UTF-8" standalone="no"?><!-- Generator: Gravit.io --><svg xmlns="http://www.w3.org/2000/svg" xmlns:xlink="http://www.w3.org/1999/xlink" style="isolation:isolate" viewBox="0 0 48 48" width="48pt" height="48pt"><defs><clipPath id="_clipPath_f2ULPnJnSgZCIB6jCLidozce67GEwE3j"><rect width="48" height="48"/></clipPath></defs><g clip-path="url(#_clipPath_f2ULPnJnSgZCIB6jCLidozce67GEwE3j)"><g><path d=" M 24.008 0 L 3.227 12.004 L 3.227 36.004 L 24.008 48 L 44.773 36.004 L 44.773 12.004 L 24.008 0 Z  M 38.621 32.448 L 24.008 40.888 L 9.387 32.448 L 9.387 15.552 L 24.008 7.112 L 38.621 15.552 L 38.621 32.448 Z " fill="rgb(255,255,255)"/><path d=" M 24.008 48 L 44.773 36.004 L 44.773 12.004 L 24.008 0 L 24.008 7.12 L 38.621 15.56 L 38.621 32.456 L 24.008 40.888 L 24.008 48 Z " fill="rgb(255,255,255)"/><path d=" M 23.992 0 L 3.227 11.996 L 3.227 35.996 L 23.992 48 L 23.992 40.88 L 9.379 32.44 L 9.379 15.544 L 23.992 7.112 L 23.992 0 Z " fill="rgb(255,255,255)"/><path d=" M 33.699 29.608 L 24 35.208 L 14.293 29.608 L 14.293 18.4 L 24 12.792 L 33.699 18.4 L 29.662 20.733 L 24 17.459 L 18.338 20.733 L 18.338 27.266 L 24 30.541 L 29.662 27.266 L 33.699 29.608 Z " fill="rgb(255,255,255)"/></g></g></svg>