<svg xmlns="http://www.w3.org/2000/svg" width="55.619" height="70.505" viewBox="0 0 55.619 70.505">
  <g id="Group_69" data-name="Group 69" transform="translate(-521 -926)">
    <path id="explorer-logo" d="M24.753.675a7.082,7.082,0,0,1,6.032,0l17.479,9.2a2.947,2.947,0,0,1,1.7,2.186h.018V58.238a2.878,2.878,0,0,1-1.719,2.4L30.785,69.831a7.082,7.082,0,0,1-6.032,0l-17.479-9.2a2.847,2.847,0,0,1-1.68-2.4c0-.079,0-.146,0-.2V12.047a2.843,2.843,0,0,1,1.68-2.177ZM47.229,37.818,30.785,46.455a7.07,7.07,0,0,1-6.032,0L8.344,37.837V58.147l16.409,8.581A8.056,8.056,0,0,0,27.4,67.744l.375.023a6.924,6.924,0,0,0,2.9-.962L47.24,58.069V37.818ZM2.752,57.234a8.475,8.475,0,0,0,.617,3.753,4.789,4.789,0,0,0,1.78,1.83l.053.035c.206.137.432.282.705.451l.324.2.992.6L5.8,66.44l-1.11-.67L4.5,65.656c-.323-.2-.589-.367-.837-.529C1.01,63.341.019,61.4,0,57.357v-.123H2.75Zm23.637-31.8a2.9,2.9,0,0,0-.353.15L8.561,34.777l-.053.03H8.493l.028.018.041.021L26.04,44.035a2.585,2.585,0,0,0,.353.15Zm2.759,0V44.192a2.584,2.584,0,0,0,.353-.15l17.479-9.189.053-.03h.016l-.028-.014-.041-.023L29.5,25.6a2.584,2.584,0,0,0-.353-.15Zm18.081-10.1L31.541,23.577l15.688,8.242V15.326Zm-38.885.019V31.8l15.642-8.223ZM29.5,3.1a4.375,4.375,0,0,0-3.462,0L8.56,12.285l-.053.028-.016.009.028.016.041.019,17.479,9.189a4.347,4.347,0,0,0,3.462,0l17.479-9.189.053-.019.016-.009-.028-.016-.041-.021ZM49.81,4.114l1.11.668.2.1c.321.2.587.368.836.529,2.656,1.78,3.645,3.725,3.666,7.766V13.3H52.861a8.484,8.484,0,0,0-.617-3.754,4.78,4.78,0,0,0-1.782-1.828l-.053-.035c-.2-.139-.43-.282-.705-.451l-.323-.185-.992-.6L49.813,4.11Z" transform="translate(521 926)" fill="#1f6af8"/>
  </g>
</svg>
