<svg width="64" height="64" viewBox="0 0 64 64" fill="none" xmlns="http://www.w3.org/2000/svg">
<g clip-path="url(#clip0_1192_89)">
<path d="M0 32C0 49.6731 14.3269 64 32 64C49.6731 64 64 49.6731 64 32C64 14.3269 49.6731 0 32 0C14.3269 0 0 14.3269 0 32Z" fill="white"/>
<path d="M22.5829 27.2189L17.7284 24.7471C17.3475 25.4927 17.0274 26.2747 16.7681 27.073L21.9508 28.7506C22.121 28.2238 22.3317 27.7092 22.5829 27.2189Z" fill="black"/>
<path d="M26.7039 22.8623L29.3905 27.4939C29.7835 27.267 30.2049 27.0927 30.6385 26.9752L29.2486 21.8046C29.6012 21.7114 29.9618 21.6304 30.3265 21.5737L29.4715 16.1924C28.6449 16.3221 27.8223 16.5206 27.028 16.7799L28.6894 21.8776C28.1586 22.0518 27.644 22.2666 27.1496 22.5178L24.7102 17.7484C23.9687 18.1293 23.2474 18.571 22.5747 19.0654L25.784 23.462C26.0798 23.2472 26.3878 23.0487 26.7039 22.8623Z" fill="black"/>
<path d="M41.1336 26.6996L36.502 29.3903C36.7289 29.7833 36.9072 30.2047 37.0247 30.6383L42.1953 29.2444C42.2925 29.5969 42.3695 29.9576 42.4262 30.3182L47.8075 29.4632C47.6778 28.6366 47.4793 27.814 47.2159 27.0197L42.1223 28.6892C41.9481 28.1584 41.7333 27.6438 41.4821 27.1494L46.2515 24.7019C45.8706 23.9604 45.4289 23.2391 44.9345 22.5664L40.5379 25.7798C40.7486 26.0756 40.9472 26.3836 41.1336 26.6996Z" fill="black"/>
<path d="M39.2456 17.724C38.5 17.3431 37.7179 17.023 36.9196 16.7637L35.2461 21.9464C35.7688 22.1166 36.2834 22.3273 36.7778 22.5785L39.2456 17.724Z" fill="black"/>
<path d="M37.3084 22.7693L34.5894 27.4901C34.9824 27.717 35.3471 27.9966 35.6672 28.3167L43.2934 20.6622C42.7018 20.0706 42.0575 19.5235 41.3848 19.0332L38.2404 23.3731C37.9405 23.1543 37.6325 22.9517 37.3084 22.7693Z" fill="black"/>
<path d="M22.7692 26.6834L27.4859 29.4065C27.7128 29.0134 27.9924 28.6487 28.3125 28.3246L20.6661 20.6943C20.0745 21.286 19.5274 21.9302 19.0371 22.6029L23.3729 25.7514C23.1582 26.0513 22.9556 26.3633 22.7692 26.6834Z" fill="black"/>
<path d="M33.6493 21.4808L34.4719 16.1846C33.6574 16.059 32.8267 15.9941 31.996 15.9941H31.9839V26.7972H31.996C32.4499 26.7972 32.9037 26.854 33.3373 26.9715L34.7353 21.7077C34.3787 21.6105 34.0181 21.5375 33.6493 21.4808Z" fill="black"/>
<path d="M26.9715 30.6589L21.7077 29.2568C21.6145 29.6134 21.5375 29.9781 21.4808 30.3428L16.1846 29.5162C16.059 30.3307 15.9941 31.1695 15.9941 32.0002H26.7972C26.7972 31.5423 26.858 31.0925 26.9715 30.6589Z" fill="black"/>
<path d="M41.4175 36.7817L46.272 39.2535C46.6529 38.5079 46.973 37.7259 47.2323 36.9276L42.0496 35.25C41.8794 35.7768 41.6687 36.2914 41.4175 36.7817Z" fill="black"/>
<path d="M37.2926 41.1336L34.606 36.502C34.2129 36.7289 33.7915 36.9031 33.3579 37.0206L34.7478 42.1912C34.3953 42.2844 34.0346 42.3654 33.6699 42.4222L34.5249 47.8035C35.3516 47.6738 36.1742 47.4752 36.9684 47.2159L35.307 42.1183C35.8378 41.944 36.3525 41.7293 36.8468 41.478L39.2903 46.2474C40.0318 45.8665 40.7531 45.4248 41.4258 44.9305L38.2165 40.5298C37.9207 40.7527 37.6127 40.9512 37.2926 41.1336Z" fill="black"/>
<path d="M22.8668 37.3002L27.4984 34.6055C27.2715 34.2124 27.0932 33.791 26.9757 33.3574L21.8051 34.7514C21.7079 34.3988 21.6309 34.0382 21.5742 33.6775L16.1929 34.5326C16.3225 35.3592 16.5211 36.1818 16.7845 36.976L21.8781 35.3106C22.0523 35.8374 22.2671 36.356 22.5183 36.8504L17.7489 39.2979C18.1298 40.0395 18.5715 40.7607 19.0659 41.4334L23.4625 38.22C23.2518 37.9242 23.0532 37.6163 22.8668 37.3002Z" fill="black"/>
<path d="M24.7549 46.2764C25.5005 46.6573 26.2825 46.9774 27.0808 47.2367L28.7544 42.054C28.2316 41.8838 27.717 41.6731 27.2227 41.4219L24.7549 46.2764Z" fill="black"/>
<path d="M26.6877 41.231L29.4067 36.5102C29.0136 36.2833 28.6489 36.0037 28.3288 35.6836L20.7026 43.3381C21.2943 43.9298 21.9385 44.4768 22.6112 44.9671L25.7557 40.6272C26.0556 40.842 26.3676 41.0446 26.6877 41.231Z" fill="black"/>
<path d="M41.227 37.3168L36.5102 34.5938C36.2833 34.9868 36.0037 35.3515 35.6836 35.6757L43.3341 43.3059C43.9257 42.7143 44.4728 42.07 44.9631 41.3973L40.6272 38.2488C40.842 37.9449 41.0446 37.6369 41.227 37.3168Z" fill="black"/>
<path d="M30.6587 37.0293L29.2607 42.2931C29.6173 42.3863 29.982 42.4633 30.3467 42.52L29.5241 47.8162C30.3386 47.9418 31.1693 48.0066 32 48.0066H32.0122V37.2035H32C31.5462 37.2035 31.0923 37.1428 30.6587 37.0293Z" fill="black"/>
<path d="M37.2031 32C37.2031 32.4579 37.1463 32.9077 37.0288 33.3413L42.2926 34.7433C42.3858 34.3867 42.4628 34.022 42.5195 33.6573L47.8157 34.484C47.9413 33.6695 48.0061 32.8307 48.0061 32H37.2031Z" fill="black"/>
</g>
<defs>
<clipPath id="clip0_1192_89">
<rect width="64" height="64" fill="white"/>
</clipPath>
</defs>
</svg>
