<?xml version="1.0" encoding="UTF-8" standalone="no"?><!-- Generator: Gravit.io --><svg xmlns="http://www.w3.org/2000/svg" xmlns:xlink="http://www.w3.org/1999/xlink" style="isolation:isolate" viewBox="0 0 48 48" width="48pt" height="48pt"><clipPath id="_clipPath_apahYbqlOicBqRqDBzSABEPrwk9On1CK"><rect x="0" y="0" width="48" height="48" transform="matrix(1,0,0,1,0,0)" fill="rgb(255,255,255)"/></clipPath><g clip-path="url(#_clipPath_apahYbqlOicBqRqDBzSABEPrwk9On1CK)"><g><path d=" M 47.995 23.512 C 47.714 10.145 36.575 -0.432 23.167 0.029 C 10.081 0.471 -0.275 11.429 0.006 24.536 C 0.206 34.21 6.127 42.439 14.457 46.051 C 15.641 44.546 16.624 41.857 17.106 40.351 C 17.588 39.127 18.109 37.923 18.651 36.759 C 21.08 37.602 24.351 36.799 26.158 34.852 L 26.238 34.772 L 26.238 34.772 C 24.07 33.828 21.08 34.31 19.113 35.835 C 19.775 34.451 20.498 33.106 21.24 31.801 C 23.629 32.765 26.941 32.102 28.807 30.256 L 28.887 30.175 L 28.887 30.175 C 26.8 29.152 23.85 29.473 21.823 30.838 C 22.565 29.614 23.328 28.409 24.131 27.285 C 26.619 28.048 29.891 27.105 31.597 25.078 L 31.657 24.997 L 31.657 24.997 C 29.63 24.214 26.981 24.676 25.094 26.001 C 25.154 25.92 25.235 25.82 25.295 25.74 C 25.776 25.118 26.278 24.495 26.78 23.893 C 29.71 23.07 32.32 20.08 32.741 16.989 L 32.761 16.869 L 32.741 16.869 C 29.71 17.471 26.9 20.461 26.338 23.612 C 25.857 24.194 25.375 24.776 24.913 25.379 C 25.676 23.331 25.536 20.823 24.432 19.096 L 24.432 19.096 L 24.371 19.177 C 22.706 21.284 22.445 24.716 23.729 27.004 C 22.967 28.088 22.224 29.192 21.521 30.356 C 21.963 28.028 21.22 25.318 19.575 23.793 L 19.575 23.793 L 19.534 23.893 C 18.451 26.322 19.033 29.674 20.819 31.58 C 20.116 32.805 19.454 34.069 18.812 35.374 C 19.193 32.945 18.33 30.135 16.604 28.63 L 16.604 28.63 L 16.564 28.73 C 15.581 31.279 16.343 34.732 18.25 36.578 C 17.828 37.481 17.427 38.384 17.046 39.328 C 16.945 39.227 16.825 39.167 16.684 39.107 C 16.183 38.966 15.5 38.706 14.738 38.244 C 14.236 37.943 13.694 37.702 13.152 37.521 C 10.984 36.819 11.305 35.775 10.181 33.668 C 10.101 33.527 9.218 32.604 9.017 32.423 C 8.977 32.383 8.395 32.042 8.114 31.44 C 7.853 30.878 7.693 30.356 7.653 29.854 C 7.572 29.172 7.291 28.73 6.629 28.49 C 3.438 27.386 4.863 23.251 4.983 22.709 C 5.083 22.248 4.662 21.224 4.522 20.662 C 4.501 20.602 4.481 20.521 4.461 20.401 C 4.241 19.297 4.742 18.354 5.124 17.972 C 5.505 17.591 6.83 16.969 7.111 16.608 C 7.392 16.246 7.592 15.845 7.873 15.504 C 8.255 15.042 9.379 14.139 10.924 13.316 C 11.847 12.814 12.008 11.53 12.369 11.128 C 12.971 10.446 13.895 10.446 14.577 9.844 C 14.918 9.543 15.42 9.382 15.741 9.061 C 17.327 7.435 19.434 6.793 21.521 6.392 C 22.926 6.131 24.492 6.532 25.977 6.793 C 26.198 6.833 26.399 6.873 26.599 6.934 C 29.911 7.054 33.885 7.736 35.33 9.141 C 36.233 10.024 36.675 10.968 36.876 11.63 C 37.116 12.373 37.438 13.075 37.839 13.717 L 38.722 15.163 C 39.284 16.066 39.465 17.17 39.224 18.213 C 39.083 18.815 39.023 19.438 39.184 19.779 C 39.465 20.321 40.308 21.204 40.809 21.706 C 41.05 21.946 41.331 22.167 41.612 22.348 C 42.295 22.769 43.579 23.612 43.579 23.673 C 43.579 23.773 43.68 24.174 43.118 24.676 C 42.556 25.178 41.472 25.961 41.472 25.961 C 41.472 25.961 41.532 26.322 41.673 26.603 C 41.833 26.884 42.194 27.325 42.074 27.707 C 41.953 28.088 41.171 28.409 41.392 28.831 C 41.612 29.272 42.174 29.393 42.014 29.794 C 41.853 30.175 41.07 30.858 41.151 31.139 C 41.231 31.42 41.873 34.109 40.388 34.571 C 39.284 34.932 36.233 35.113 34.808 35.193 C 34.186 35.233 33.644 35.575 33.343 36.116 C 33.122 36.518 32.902 37.08 32.801 37.822 C 32.52 39.709 30.654 44.064 30.654 44.064 C 30.654 44.064 30.593 44.185 30.513 44.366 C 30.353 44.767 30.112 45.369 30.152 45.63 C 30.172 45.791 30.393 46.112 30.714 46.493 C 30.975 46.794 31.396 46.915 31.778 46.794 C 41.392 43.422 48.216 34.21 47.995 23.512 Z " fill="rgb(247,247,247)"/></g></g></svg>