<svg width="64" height="64" viewBox="0 0 64 64" fill="none" xmlns="http://www.w3.org/2000/svg">
<g clip-path="url(#clip0_1176_46)">
<path d="M59.9115 0H34.1228L38.421 6.12766C39.2596 5.91817 40.2031 5.81342 41.0942 5.81342C47.5938 5.81342 52.8354 11.0507 52.8354 17.545C52.8354 24.0393 47.5938 29.2766 41.0942 29.2766C34.5946 29.2766 29.353 24.0393 29.353 17.545C29.353 15.3453 29.982 13.3028 31.0303 11.5221L22.9582 0H4.08845C1.83456 0 0 1.83306 0 4.08511V59.9149C0 62.1669 1.83456 64 4.08845 64H29.8771L25.579 57.8723C24.688 58.0818 23.7969 58.1866 22.9058 58.1866C16.4062 58.1866 11.1646 52.9493 11.1646 46.455C11.1646 39.9607 16.4062 34.7234 22.9058 34.7234C29.4054 34.7234 34.5946 39.9083 34.5946 46.4026C34.5946 48.6023 33.9656 50.6448 32.9173 52.4255L40.9893 63.9476H59.9115C62.1654 63.9476 64 62.1146 64 59.8625V4.08511C64 1.83306 62.1654 0 59.9115 0Z" fill="url(#paint0_linear_1176_46)"/>
</g>
<defs>
<linearGradient id="paint0_linear_1176_46" x1="31.5359" y1="1.28833" x2="32.4622" y2="64.0419" gradientUnits="userSpaceOnUse">
<stop stop-color="#DF42AB"/>
<stop offset="1" stop-color="#B028D1"/>
</linearGradient>
<clipPath id="clip0_1176_46">
<rect width="64" height="64" fill="white"/>
</clipPath>
</defs>
</svg>
