<svg viewBox="0 0 28 28" fill="none" xmlns="http://www.w3.org/2000/svg">
  <path fill-rule="evenodd" clip-rule="evenodd" d="M15.051 3.571c0 .027 0 .053-.002.079h3.026c3.678 0 6.577 1.63 6.67 5.177.047 1.782-.817 2.57-1.49 3.185-.474.433-.853.78-.747 1.325.102.525.471.989.881 1.504.622.781 1.338 1.68 1.356 3.086.031 2.332 0 2.039 0 2.039 0 2.816-2.367 5.099-5.287 5.099h-4.494c.004.039.006.078.006.118 0 .65-.546 1.176-1.22 1.176-.674 0-1.22-.527-1.22-1.176 0-.04.002-.08.006-.118H9.642c-.244 0-1.04-.038-1.022-.057-3.112-.316-5.43-1.956-5.513-5.12-.047-1.782.818-2.571 1.49-3.185.475-.434.854-.78.748-1.326-.102-.525-.472-.988-.882-1.504-.622-.78-1.337-1.68-1.356-3.085-.03-2.333 0-2.04 0-2.04 0-2.816 2.368-5.098 5.288-5.098h4.219a1.199 1.199 0 0 1-.003-.079c0-.65.546-1.176 1.22-1.176.674 0 1.22.526 1.22 1.176Z" fill="#fff"/>
  <path fill-rule="evenodd" clip-rule="evenodd" d="M0 6.23C0 2.79 2.876 0 6.423 0h15.154C25.124 0 28 2.79 28 6.23v15.54c0 3.44-2.875 6.23-6.423 6.23H6.423C2.876 28 0 25.21 0 21.77V6.23Zm15.01-1.82c0 .024 0 .047-.002.07-.037.547-.507.98-1.08.98-.574 0-1.043-.433-1.08-.98a1.046 1.046 0 0 1-.003-.053V4.41c0-.58.485-1.05 1.083-1.05a1.094 1.094 0 0 1 .727.272c.115.102.208.227.27.37.055.125.085.263.085.408Zm.937.07c-.038 1.05-.927 1.89-2.02 1.89-.187 0-.368-.025-.54-.071a.816.816 0 0 1-.1-.036c-.066-.027-.127-.052-.19-.033a.717.717 0 0 0-.208.14l-.365.35s-.184.175-.148.245c.036.07.289.07.289.07l5.278.03s.149.009.279-.03c.095-.028.117-.04.151-.056l.046-.02a2.03 2.03 0 0 1 .813-.169c1.096 0 1.985.862 1.985 1.925 0 1.063-.889 1.925-1.985 1.925-.594 0-1.044-.299-1.407-.7a1.552 1.552 0 0 1-.13-.169c-.05-.075-.096-.14-.159-.181-.108-.07-.65-.07-.65-.07H10.32s-.145 0-.253.07c-.108.07-.325.415-.325.742 0 .503.365.924.852 1.026v.001l2.154.94s.21.115.386.126a.94.94 0 0 0 .323-.036l.064-.016A2.16 2.16 0 0 1 14 12.32c1.156 0 2.093.909 2.093 2.03 0 .027 0 .07.036.105.036.035.233.126.233.126l1.639.714s.06.011.131.021c.055.007.115.014.162.014.04 0 .117-.02.213-.044a2.44 2.44 0 0 1 .566-.096c1.164 0 2.107.915 2.107 2.044v1.981c0 1.024-.856 1.855-1.912 1.855h-1.01c-.1 0-.289 0-.397.07l-2.018 1.782-.039.038s-.036.035-.036.07c0 .046.011.075.023.107a.552.552 0 0 1 .02.055c.034.128.056.26.063.398h3.046c2.59 0 4.69-2.037 4.69-4.55 0 0 .028.262 0-1.82-.016-1.254-.65-2.056-1.203-2.753-.363-.46-.69-.874-.781-1.342-.095-.488.242-.796.663-1.183.596-.548 1.363-1.252 1.321-2.842-.083-3.164-2.654-4.62-5.917-4.62h-1.746ZM12.78 23.59c-.004.035-.006.07-.006.105 0 .58.485 1.05 1.083 1.05s1.082-.47 1.082-1.05a1.07 1.07 0 0 0-1.082-1.05 1.07 1.07 0 0 0-1.078.945Zm-.941 0h-1.626c-.217 0-.923-.034-.907-.05-2.76-.283-4.817-1.746-4.89-4.57-.042-1.59.724-2.294 1.32-2.842.422-.387.758-.695.664-1.183-.09-.468-.418-.882-.782-1.342-.552-.697-1.186-1.499-1.203-2.753-.027-2.082 0-1.82 0-1.82 0-2.513 2.1-4.55 4.691-4.55h2.803c.005.15.027.295.065.433a.554.554 0 0 0 .02.055c.011.032.022.06.022.107 0 .035-.036.07-.036.07l-.038.038-1.838 1.677c-.108.07-.298.07-.397.07h-1.01c-1.056 0-1.912.83-1.912 1.855v1.981c0 1.129.943 2.044 2.106 2.044.19 0 .405-.055.566-.096.096-.024.174-.044.214-.044.047 0 .107.007.161.014.072.01.132.021.132.021l1.639.714s.341.126.377.301c.023.11.006.157-.016.216-.013.035-.028.075-.036.134-.013.091-.02.185-.02.28 0 1.121.937 2.03 2.093 2.03.474 0 .912-.153 1.263-.411l.008-.006a.522.522 0 0 1 .208-.108c.094-.022.25.07.25.07l1.641.715v.002c.487.102.852.523.852 1.026 0 .327-.217.672-.325.742-.108.07-.253.07-.253.07h-6.567s-.54 0-.65-.07c-.063-.04-.107-.106-.159-.181a1.553 1.553 0 0 0-.129-.169c-.364-.401-.813-.7-1.407-.7-1.096 0-1.985.862-1.985 1.925 0 1.063.889 1.925 1.985 1.925.29 0 .565-.06.813-.168l.046-.021a.835.835 0 0 1 .151-.056c.13-.039.279-.03.279-.03l5.278.03s.253 0 .289.07c.036.07-.148.245-.148.245l-.545.455s-.117.111-.21.14c-.062.02-.123-.006-.19-.033-.03-.013-.064-.027-.098-.036a2.083 2.083 0 0 0-.541-.071c-1.08 0-1.962.821-2.018 1.855Z" fill="url(#a)"/>
  <defs>
    <linearGradient id="a" x1="26.25" y1="1.313" x2="2.188" y2="25.813" gradientUnits="userSpaceOnUse">
      <stop stop-color="#FF4357"/>
      <stop offset="1" stop-color="#B0002C"/>
    </linearGradient>
  </defs>
</svg>
