<svg width="64" height="64" viewBox="0 0 64 64" fill="none" xmlns="http://www.w3.org/2000/svg">
<path d="M63.9804 11.4966C63.9789 11.488 63.9795 11.4793 63.9776 11.4699C63.9761 11.4649 63.9755 11.4598 63.974 11.4547C63.9691 11.4352 63.9593 11.4172 63.9522 11.3977C63.9381 11.3586 63.9255 11.3189 63.9051 11.2828C63.8974 11.269 63.8876 11.2582 63.879 11.2452C63.8686 11.23 63.8579 11.2155 63.8466 11.2011C63.8298 11.1787 63.815 11.1556 63.7961 11.1353C63.7792 11.118 63.7574 11.1043 63.7391 11.0884C63.7144 11.0681 63.6934 11.0443 63.6659 11.0277L48.0179 1.10731C47.7914 0.96423 47.5053 0.96423 47.2787 1.10731L31.9972 10.7935L16.7191 1.10731C16.4934 0.96423 16.2064 0.96423 15.9807 1.10731L0.334074 11.0269C0.126596 11.1585 0 11.3912 0 11.6419V51.3248C0 51.5755 0.126596 51.8082 0.334074 51.9396L15.9814 61.8593C15.9856 61.8621 15.9905 61.863 15.9947 61.8652C15.9997 61.8686 16.0032 61.873 16.0081 61.876C16.0419 61.8954 16.0784 61.9062 16.1136 61.9201C16.1291 61.9258 16.1445 61.936 16.16 61.941C16.1628 61.9416 16.1656 61.9416 16.1684 61.9425C16.2254 61.9577 16.2831 61.9655 16.3415 61.9662C16.3443 61.9662 16.3471 61.9677 16.3499 61.9677H16.3506C16.3794 61.9677 16.4076 61.9599 16.4364 61.9562C16.4659 61.9525 16.4962 61.9525 16.525 61.9447C16.5278 61.9438 16.5306 61.9416 16.5342 61.941C16.5517 61.936 16.5686 61.9258 16.5855 61.9201C16.6214 61.9071 16.6579 61.8954 16.691 61.876C16.6917 61.876 16.6924 61.876 16.6931 61.8752C16.698 61.8723 16.7023 61.868 16.7072 61.8643C16.7114 61.8621 16.7163 61.8615 16.7205 61.8587L63.6659 32.0998C63.8735 31.9682 64 31.7355 64 31.4848V11.6419C63.9985 11.5928 63.9896 11.5444 63.9804 11.4966ZM17.0532 21.9691L31.2939 12.9369V31.0816L17.0532 40.1108V21.9691ZM32.7006 31.8896L46.9453 22.858V41.0004L32.7006 50.0305V31.8896ZM17.0532 41.8084L31.2939 32.7805V50.9214L17.0532 59.9493V41.8084ZM62.592 31.0823L48.352 40.1095V21.9662L62.592 12.9376V31.0823Z" fill="#AAED4A"/>
</svg>
