<svg width="38" height="22" viewBox="0 0 38 22" fill="none" xmlns="http://www.w3.org/2000/svg">
<path d="M4.18535 20L3.78786 18.8149C3.20703 19.0097 2.85299 19.5967 2.95168 20.2014C3.05038 20.806 3.57272 21.25 4.18535 21.25L4.18535 20ZM4.18535 2V0.75C3.57273 0.75 3.05038 1.194 2.95168 1.79862C2.85299 2.40325 3.20703 2.9903 3.78786 3.18512L4.18535 2ZM0 7.74997H9.13323V5.24997H0V7.74997ZM9.13323 7.74997H9.15448V5.24997H9.13323V7.74997ZM0.210071 16.75H9.13327V14.25H0.210071V16.75ZM9.13327 16.75H9.15446V14.25H9.13327V16.75ZM4.58285 21.1851C6.19923 20.643 8.7675 19.0307 10.2516 16.0584L8.01493 14.9416C6.87271 17.2292 4.88209 18.4479 3.78786 18.8149L4.58285 21.1851ZM10.2516 16.0584C10.9503 14.6591 11.3983 12.9767 11.3983 11.0001H8.89828C8.89828 12.5865 8.54159 13.8869 8.01493 14.9416L10.2516 16.0584ZM3.78786 3.18512C4.88206 3.55211 6.87266 4.7708 8.01489 7.05838L10.2516 5.94156C8.76746 2.96929 6.19924 1.35703 4.58285 0.814884L3.78786 3.18512ZM8.01489 7.05838C8.54157 8.11318 8.89828 9.41358 8.89828 11.0001H11.3983C11.3983 9.02338 10.9503 7.3409 10.2516 5.94156L8.01489 7.05838ZM26.0976 10.3095C23.8801 6.96257 16.5334 0.75 4.18535 0.75V3.25C15.689 3.25 22.2558 9.03735 24.0136 11.6903L26.0976 10.3095ZM24.0136 10.3095C22.2558 12.9625 15.689 18.75 4.18535 18.75V21.25C16.5334 21.25 23.8801 15.0373 26.0976 11.6903L24.0136 10.3095ZM28.8056 10.9999C28.8056 11.6903 28.2459 12.2499 27.5556 12.2499V14.7499C29.6267 14.7499 31.3056 13.071 31.3056 10.9999H28.8056ZM27.5556 12.2499C26.8652 12.2499 26.3056 11.6903 26.3056 10.9999H23.8056C23.8056 13.071 25.4845 14.7499 27.5556 14.7499V12.2499ZM26.3056 10.9999C26.3056 10.3096 26.8652 9.74994 27.5556 9.74994V7.24994C25.4845 7.24994 23.8056 8.92888 23.8056 10.9999H26.3056ZM27.5556 9.74994C28.2459 9.74994 28.8056 10.3096 28.8056 10.9999H31.3056C31.3056 8.92888 29.6267 7.24994 27.5556 7.24994V9.74994ZM30.0556 12.2499H38V9.74994H30.0556V12.2499Z" fill="white"/>
</svg>
