<svg width="720" height="720" viewBox="0 0 720 720" fill="none" xmlns="http://www.w3.org/2000/svg">
<path d="M719.46 340.29C718.15 315.9 714.41 292.15 708.47 269.29C704.93 255.62 700.6 242.27 695.53 229.29C670.07 163.96 626.07 107.89 570 67.57C533.25 41.12 491.31 21.44 446 10.34C418.44 3.58 389.64 0 360 0C330.36 0 301.56 3.58 274 10.34C228.69 21.44 186.75 41.13 150 67.57C93.93 107.9 49.93 163.96 24.47 229.29C19.41 242.27 15.07 255.62 11.53 269.29C5.59 292.15 1.84999 315.9 0.539993 340.29C0.179993 346.82 0 353.39 0 360C0 366.81 0.190007 373.57 0.570007 380.29C1.88001 403.97 5.48 427.05 11.16 449.29C14.65 462.95 18.92 476.3 23.93 489.29C49.3 555.23 93.52 611.81 150 652.43C186.75 678.87 228.69 698.56 274 709.66C301.56 716.42 330.36 720 360 720C389.64 720 418.44 716.42 446 709.66C491.31 698.56 533.25 678.88 570 652.43C626.48 611.81 670.7 555.23 696.08 489.29C701.09 476.3 705.35 462.95 708.84 449.29C714.52 427.05 718.12 403.97 719.43 380.29C719.81 373.57 720 366.81 720 360C720 353.39 719.82 346.82 719.46 340.29Z" fill="black"/>
<path d="M248.979 342.319L342.319 248.979C350.129 241.169 350.129 228.509 342.319 220.699C334.509 212.889 321.849 212.889 314.039 220.699L220.699 314.039C212.889 321.849 212.889 334.509 220.699 342.319C228.509 350.129 241.169 350.129 248.979 342.319Z" fill="white"/>
<path d="M469.6 376.26L376.26 469.6C368.45 477.41 368.45 490.07 376.26 497.88C384.07 505.69 396.73 505.69 404.54 497.88L497.88 404.54C505.69 396.73 505.69 384.07 497.88 376.26C490.08 368.45 477.41 368.45 469.6 376.26Z" fill="white"/>
<path d="M480.21 211.51L211.51 480.21C203.7 488.02 203.7 500.68 211.51 508.49C219.32 516.3 231.98 516.3 239.79 508.49L508.49 239.79C516.3 231.98 516.3 219.32 508.49 211.51C500.68 203.7 488.02 203.7 480.21 211.51Z" fill="white"/>
</svg>
