<svg width="548" height="548" viewBox="0 0 548 548" fill="none" xmlns="http://www.w3.org/2000/svg">
<rect width="548" height="548" rx="274" fill="black"/>
<path fill-rule="evenodd" clip-rule="evenodd" d="M124 424L393.058 199.952C396.354 197.079 399.024 193.559 400.903 189.611C402.782 185.662 403.83 181.37 403.982 177C404.134 172.631 403.386 168.276 401.785 164.207C400.184 160.138 397.765 156.442 394.676 153.346C391.58 150.251 387.881 147.826 383.808 146.222C379.734 144.617 375.375 143.867 371 144.019C366.625 144.171 362.327 145.221 358.375 147.104C354.423 148.987 350.9 151.662 348.026 154.964L124 424ZM253.796 185.358L140.508 270.317L225.474 157.039C227.211 154.723 229.426 152.807 231.968 151.42C234.51 150.034 237.321 149.209 240.209 149.002C243.098 148.795 245.996 149.21 248.71 150.22C251.424 151.229 253.889 152.81 255.94 154.854C257.994 156.902 259.583 159.368 260.6 162.084C261.618 164.8 262.038 167.703 261.835 170.596C261.632 173.489 260.809 176.305 259.422 178.852C258.035 181.399 256.116 183.618 253.796 185.358ZM390.958 322.534L277.67 407.492L362.636 294.214C364.374 291.898 366.589 289.982 369.131 288.595C371.673 287.209 374.482 286.384 377.371 286.177C380.259 285.97 383.158 286.385 385.872 287.395C388.586 288.404 391.052 289.985 393.102 292.029C395.156 294.077 396.746 296.543 397.763 299.259C398.78 301.975 399.201 304.878 398.997 307.771C398.794 310.664 397.97 313.48 396.583 316.027C395.196 318.574 393.278 320.793 390.958 322.534Z" fill="white"/>
</svg>
