<svg width="438" height="450" viewBox="0 0 438 450" fill="none" xmlns="http://www.w3.org/2000/svg">
<path d="M119.309 314.832C102.234 285.262 102.33 250.539 116.4 222.113L48.9588 183.194C47.2894 182.24 45.7632 181.143 44.1415 180.094C43.283 185.34 42.7107 190.634 42.7107 196.119V351.844C42.7107 406.073 86.6379 450 140.867 450C193.141 450 235.781 409.078 238.738 357.52C194.572 374.165 143.586 357.043 119.214 314.785L119.309 314.832Z" fill="#6F3FF5"/>
<path d="M140.963 97.9624C175.113 97.9624 205.113 115.419 222.712 141.842L290.153 102.923C291.823 101.969 293.54 101.158 295.257 100.299C291.155 96.9608 286.815 93.8129 282.093 91.0466L147.211 13.1605C100.279 -13.9303 40.2308 2.14292 13.14 49.0749C-12.997 94.3376 1.12077 151.715 44.2849 180.046C51.9638 133.495 92.2662 97.9147 141.011 97.9147L140.963 97.9624Z" fill="#FFCC00"/>
<path d="M116.448 222.112C124.747 205.371 137.863 190.776 155.272 180.76L222.713 141.794C205.113 115.371 175.065 97.9141 140.963 97.9141C92.2188 97.9141 51.8686 133.495 44.2374 180.045C45.8114 181.094 47.3853 182.191 49.0546 183.145L116.496 222.064L116.448 222.112Z" fill="#8C65F7"/>
<path d="M424.224 138.789C398.087 93.5266 341.33 77.0717 295.209 100.252C331.695 130.156 342.331 182.907 317.959 225.118C300.884 254.689 270.789 271.954 239.071 274.005V351.843C239.071 353.751 238.881 355.659 238.785 357.567C243.746 355.707 248.658 353.513 253.38 350.794L388.262 272.908C435.194 245.817 451.315 185.769 424.176 138.837L424.224 138.789Z" fill="#02E2AC"/>
<path d="M239.12 274.006C220.471 275.198 201.297 271.096 183.889 261.08L116.448 222.113C102.33 250.54 102.282 285.309 119.357 314.833C143.729 357.043 194.715 374.213 238.881 357.567C238.976 355.66 239.167 353.799 239.167 351.844V274.006H239.12Z" fill="#5BF1CD"/>
<path d="M222.712 141.794C233.062 157.343 239.12 175.992 239.12 196.071V273.957C270.789 271.954 300.932 254.641 318.007 225.07C342.379 182.86 331.743 130.157 295.257 100.204C293.54 101.063 291.823 101.826 290.153 102.827L222.712 141.747V141.794Z" fill="#FFDB4C"/>
<path d="M222.713 141.795L155.272 180.762C137.863 190.825 124.747 205.373 116.448 222.114L183.889 261.08C201.298 271.144 220.471 275.198 239.12 274.006V196.12C239.12 176.04 233.063 157.391 222.713 141.843V141.795Z" fill="white"/>
</svg>
