<svg width="64" height="64" viewBox="0 0 64 64" fill="none" xmlns="http://www.w3.org/2000/svg">
<g clip-path="url(#clip0_603_335)">
<circle cx="32" cy="32" r="32" fill="white"/>
<g clip-path="url(#clip1_603_335)">
<path d="M24.075 43.9811C22.2038 40.6956 22.2143 36.8375 23.7562 33.679L16.3654 29.3547C16.1824 29.2487 16.0152 29.1268 15.8375 29.0103C15.7434 29.5931 15.6807 30.1814 15.6807 30.7908V48.0936C15.6807 54.119 20.4946 58.9998 26.4375 58.9998C32.1662 58.9998 36.8391 54.4529 37.1631 48.7243C32.323 50.5737 26.7355 48.6713 24.0646 43.9759L24.075 43.9811Z" fill="#6F3FF5"/>
<path d="M26.448 19.8847C30.1905 19.8847 33.4781 21.8243 35.4068 24.7602L42.7976 20.4359C42.9806 20.3299 43.1688 20.2398 43.3569 20.1443C42.9074 19.7734 42.4318 19.4237 41.9143 19.1163L27.1327 10.4623C21.9895 7.45219 15.4089 9.2381 12.44 14.4528C9.57567 19.482 11.1228 25.8572 15.8531 29.0051C16.6947 23.8328 21.1114 19.8794 26.4533 19.8794L26.448 19.8847Z" fill="#FFCC00"/>
<path d="M23.7614 33.6792C24.6709 31.8191 26.1082 30.1974 28.0161 29.0845L35.4069 24.7549C33.4781 21.8191 30.1852 19.8794 26.448 19.8794C21.1061 19.8794 16.6842 23.8328 15.8479 29.005C16.0204 29.1216 16.1929 29.2435 16.3758 29.3495L23.7667 33.6738L23.7614 33.6792Z" fill="#8C65F7"/>
<path d="M57.4903 24.4212C54.626 19.392 48.406 17.5637 43.3517 20.1393C47.3501 23.462 48.5157 29.3232 45.8448 34.0133C43.9736 37.299 40.6755 39.2173 37.1996 39.4452V48.0939C37.1996 48.3059 37.1787 48.5179 37.1682 48.7299C37.7119 48.5232 38.2502 48.2794 38.7677 47.9773L53.5493 39.3233C58.6925 36.3132 60.4592 29.6412 57.485 24.4265L57.4903 24.4212Z" fill="#02E2AC"/>
<path d="M37.2049 39.4451C35.1612 39.5775 33.06 39.1218 31.1522 38.0089L23.7614 33.6792C22.2143 36.8378 22.209 40.701 24.0802 43.9814C26.7511 48.6714 32.3386 50.5792 37.1788 48.7296C37.1892 48.5178 37.2101 48.311 37.2101 48.0938V39.4451H37.2049Z" fill="#5BF1CD"/>
<path d="M35.4067 24.7549C36.541 26.4826 37.2049 28.5547 37.2049 30.7857V39.4397C40.6754 39.2171 43.9788 37.2935 45.85 34.0078C48.5209 29.3178 47.3553 23.4619 43.3569 20.1338C43.1687 20.2292 42.9805 20.314 42.7975 20.4252L35.4067 24.7497V24.7549Z" fill="#FFDB4C"/>
<path d="M35.407 24.7549L28.0162 29.0845C26.1083 30.2027 24.671 31.8191 23.7615 33.6792L31.1523 38.0088C33.0601 39.127 35.1613 39.5774 37.205 39.445V30.791C37.205 28.5599 36.5412 26.4878 35.407 24.7602V24.7549Z" fill="white"/>
</g>
</g>
<defs>
<clipPath id="clip0_603_335">
<rect width="64" height="64" fill="white"/>
</clipPath>
<clipPath id="clip1_603_335">
<rect width="48" height="50" fill="white" transform="translate(11 9)"/>
</clipPath>
</defs>
</svg>
