<svg width="64" height="64" viewBox="0 0 64 64" fill="none" xmlns="http://www.w3.org/2000/svg">
<circle cx="32" cy="32" r="32" fill="white"/>
<path fill-rule="evenodd" clip-rule="evenodd" d="M46.9765 39.463L51.8058 48.1927C52.3084 49.0143 51.8058 49.5931 50.6406 49.5931L46.391 49.7569C45.4771 49.7569 44.3062 50.5813 43.9749 51.321L41.7245 55.443C41.6579 55.6075 41.543 55.7484 41.3946 55.8477C41.2463 55.9469 41.0712 56 40.892 56C40.7129 56 40.5378 55.9469 40.3894 55.8477C40.241 55.7484 40.1261 55.6075 40.0595 55.443C40.0595 55.443 37.0609 50.0053 35.2274 46.4649C35.7015 46.3293 36.0642 46.1402 36.3612 45.9849L36.5611 45.8861L46.9736 39.463H46.9765ZM13.1514 48.1927L17.9836 39.463L28.3133 45.8861C28.4675 45.9482 28.6103 46.0188 28.7588 46.095C29.013 46.2249 29.2786 46.3604 29.6441 46.462C28.0659 49.4712 26.456 52.4641 24.8148 55.4402C24.7476 55.6044 24.6323 55.745 24.4838 55.844C24.3352 55.943 24.1601 55.9959 23.9809 55.9959C23.8017 55.9959 23.6266 55.943 23.4781 55.844C23.3295 55.745 23.2142 55.6044 23.147 55.4402L20.8994 51.321C20.5653 50.4994 19.4001 49.7569 18.4805 49.7569L14.2338 49.5931C12.9829 49.5931 12.8173 48.9324 13.1485 48.1927H13.1514ZM49.7238 31.8006C49.7238 34.1072 48.3073 36.4957 46.2254 37.6505L35.9785 43.2519C34.8896 43.7853 33.6924 44.0672 32.4772 44.0763C31.312 44.0763 30.0611 43.9098 28.9787 43.2519L18.7318 37.5686C16.647 36.4167 15.2333 34.0282 15.2333 31.7215V20.3548C15.2333 18.0482 16.6499 15.6597 18.7318 14.5077L28.9787 8.81876C29.9754 8.3275 31.2291 8 32.4772 8C33.6452 8 34.7276 8.16375 35.9785 8.82159L46.2254 14.5049C48.473 15.6625 49.7238 17.8816 49.7238 20.352V31.8006ZM29.8954 38.5568C30.7265 39.0508 31.5604 39.1327 32.4772 39.1327C33.391 39.1327 34.3078 38.9661 35.0589 38.5568L42.4756 34.4375C44.0578 33.5341 45.0573 31.8853 45.0573 30.1546V21.919C45.0573 20.0245 44.1406 18.4604 42.4756 17.636L35.0589 13.5168C34.145 13.0227 33.3939 12.9408 32.4772 12.9408C31.5604 12.9408 30.6437 13.1893 29.8954 13.5168L22.4787 17.636C20.8966 18.5394 19.897 20.1883 19.897 21.919V30.1546C19.897 31.8853 20.9794 33.616 22.4787 34.4375L29.8954 38.5568ZM28.4304 22.4808C28.4269 22.2775 28.3627 22.0797 28.2458 21.9124C28.1289 21.745 27.9645 21.6156 27.7734 21.5405C27.5823 21.4653 27.3729 21.4477 27.1717 21.49C26.9704 21.5322 26.7864 21.6323 26.6426 21.7778L23.6468 24.827C23.4606 25.0176 23.3558 25.2718 23.3542 25.5367C23.3526 25.8017 23.4543 26.0571 23.6382 26.2499L26.6369 29.381C26.8313 29.5592 27.087 29.6574 27.3521 29.6558C27.6172 29.6542 27.8717 29.5527 28.0639 29.3721C28.256 29.1916 28.3713 28.9454 28.3863 28.6837C28.4014 28.4221 28.315 28.1646 28.1448 27.9637L25.8372 25.5526L28.1362 23.212C28.3283 23.0164 28.434 22.7534 28.4304 22.4808ZM37.1465 21.5463C36.9884 21.6109 36.8489 21.7131 36.7404 21.8439C36.6318 21.9746 36.5576 22.1298 36.5243 22.2957C36.4909 22.4616 36.4995 22.633 36.5493 22.7949C36.5991 22.9567 36.6884 23.1038 36.8095 23.2233L39.1656 25.5526L36.801 27.9524C36.7014 28.0483 36.6223 28.163 36.5682 28.2896C36.5142 28.4162 36.4863 28.5523 36.4862 28.6897C36.4861 28.8271 36.5139 28.9632 36.5678 29.0899C36.6217 29.2166 36.7007 29.3313 36.8001 29.4274C36.8996 29.5234 37.0175 29.5988 37.1468 29.6492C37.2762 29.6995 37.4144 29.7238 37.5534 29.7205C37.6924 29.7172 37.8293 29.6865 37.9561 29.6301C38.0829 29.5738 38.197 29.4929 38.2917 29.3923L41.3732 26.2612C41.564 26.0673 41.6699 25.8071 41.6683 25.5367C41.6667 25.2663 41.5577 25.0073 41.3647 24.8157L38.2803 21.7665C38.1346 21.623 37.949 21.5255 37.7472 21.4863C37.5454 21.4471 37.3364 21.468 37.1465 21.5463ZM34.9475 21.679C34.8491 21.5839 34.7326 21.5091 34.6048 21.4588H34.6077C34.4809 21.4077 34.3452 21.3819 34.2084 21.3828C34.0715 21.3837 33.9362 21.4113 33.8102 21.464C33.6841 21.5167 33.5699 21.5935 33.4739 21.69C33.378 21.7865 33.3023 21.9008 33.2511 22.0262L30.5866 28.534C30.5352 28.6593 30.5093 28.7934 30.5103 28.9286C30.5114 29.0638 30.5393 29.1975 30.5926 29.3221C30.6459 29.4466 30.7235 29.5595 30.821 29.6544C30.9184 29.7493 31.0338 29.8243 31.1606 29.8751C31.2874 29.9259 31.423 29.9515 31.5598 29.9504C31.6966 29.9494 31.8318 29.9218 31.9578 29.8691C32.0837 29.8164 32.198 29.7397 32.2939 29.6433C32.3899 29.547 32.4658 29.4329 32.5171 29.3076L35.1817 22.7998C35.2591 22.611 35.2781 22.4038 35.2365 22.2043C35.1948 22.0048 35.0942 21.822 34.9475 21.679Z" fill="#17457C"/>
</svg>
