<svg width="101" height="101" viewBox="0 0 101 101" fill="none" xmlns="http://www.w3.org/2000/svg">
<rect x="0.783691" y="0.313477" width="100" height="100" rx="50" fill="#252525"/>
<rect x="78.4286" y="73.4287" width="4.57143" height="4.57143" fill="white"/>
<rect x="73.8569" y="73.4287" width="4.57143" height="4.57143" fill="white"/>
<rect x="69.2856" y="73.4287" width="4.57143" height="4.57143" fill="white"/>
<rect x="64.7144" y="73.4287" width="4.57143" height="4.57143" fill="white"/>
<rect x="60.1429" y="73.4287" width="4.57143" height="4.57143" fill="white"/>
<rect x="37.2855" y="73.4287" width="4.57143" height="4.57143" fill="white"/>
<rect x="32.7144" y="73.4287" width="4.57143" height="4.57143" fill="white"/>
<rect x="28.1428" y="73.4287" width="4.57143" height="4.57143" fill="white"/>
<rect x="23.5714" y="73.4287" width="4.57143" height="4.57143" fill="white"/>
<rect x="19" y="73.4287" width="4.57143" height="4.57143" fill="white"/>
<rect x="78.4286" y="68.8569" width="4.57143" height="4.57143" fill="white"/>
<rect x="73.8569" y="68.8569" width="4.57143" height="4.57143" fill="white"/>
<rect x="69.2856" y="68.8569" width="4.57143" height="4.57143" fill="white"/>
<rect x="64.7144" y="68.8569" width="4.57143" height="4.57143" fill="white"/>
<rect x="60.1429" y="68.8569" width="4.57143" height="4.57143" fill="white"/>
<rect x="37.2855" y="68.8569" width="4.57143" height="4.57143" fill="white"/>
<rect x="32.7144" y="68.8569" width="4.57143" height="4.57143" fill="white"/>
<rect x="28.1428" y="68.8569" width="4.57143" height="4.57143" fill="white"/>
<rect x="23.5714" y="68.8569" width="4.57143" height="4.57143" fill="white"/>
<rect x="19" y="68.8569" width="4.57143" height="4.57143" fill="white"/>
<rect x="78.4286" y="64.2856" width="4.57143" height="4.57143" fill="white"/>
<rect x="73.8569" y="64.2856" width="4.57143" height="4.57143" fill="white"/>
<rect x="64.7144" y="64.2856" width="4.57143" height="4.57143" fill="white"/>
<rect x="60.1429" y="64.2856" width="4.57143" height="4.57143" fill="white"/>
<rect x="37.2855" y="64.2856" width="4.57143" height="4.57143" fill="white"/>
<rect x="32.7144" y="64.2856" width="4.57143" height="4.57143" fill="white"/>
<rect x="23.5714" y="64.2856" width="4.57143" height="4.57143" fill="white"/>
<rect x="19" y="64.2856" width="4.57143" height="4.57143" fill="white"/>
<rect x="78.4286" y="59.7144" width="4.57143" height="4.57143" fill="white"/>
<rect x="73.8569" y="59.7144" width="4.57143" height="4.57143" fill="white"/>
<rect x="69.2856" y="59.7144" width="4.57143" height="4.57143" fill="white"/>
<rect x="64.7144" y="59.7144" width="4.57143" height="4.57143" fill="white"/>
<rect x="60.1429" y="59.7144" width="4.57143" height="4.57143" fill="white"/>
<rect x="37.2855" y="59.7144" width="4.57143" height="4.57143" fill="white"/>
<rect x="32.7144" y="59.7144" width="4.57143" height="4.57143" fill="white"/>
<rect x="28.1428" y="59.7144" width="4.57143" height="4.57143" fill="white"/>
<rect x="23.5714" y="59.7144" width="4.57143" height="4.57143" fill="white"/>
<rect x="19" y="59.7144" width="4.57143" height="4.57143" fill="white"/>
<rect x="78.4286" y="55.1431" width="4.57143" height="4.57143" fill="white"/>
<rect x="73.8569" y="55.1431" width="4.57143" height="4.57143" fill="white"/>
<rect x="69.2856" y="55.1431" width="4.57143" height="4.57143" fill="white"/>
<rect x="64.7144" y="55.1431" width="4.57143" height="4.57143" fill="white"/>
<rect x="60.1429" y="55.1431" width="4.57143" height="4.57143" fill="white"/>
<rect x="37.2855" y="55.1431" width="4.57143" height="4.57143" fill="white"/>
<rect x="32.7144" y="55.1431" width="4.57143" height="4.57143" fill="white"/>
<rect x="28.1428" y="55.1431" width="4.57143" height="4.57143" fill="white"/>
<rect x="23.5714" y="55.1431" width="4.57143" height="4.57143" fill="white"/>
<rect x="19" y="55.1431" width="4.57143" height="4.57143" fill="white"/>
<rect x="78.4286" y="50.5713" width="4.57143" height="4.57143" fill="white"/>
<rect x="69.2856" y="50.5713" width="4.57143" height="4.57143" fill="white"/>
<rect x="64.7144" y="50.5713" width="4.57143" height="4.57143" fill="white"/>
<rect x="60.1429" y="50.5713" width="4.57143" height="4.57143" fill="white"/>
<rect x="55.5713" y="50.5713" width="4.57143" height="4.57143" fill="white"/>
<rect x="41.8572" y="50.5713" width="4.57143" height="4.57143" fill="white"/>
<rect x="37.2855" y="50.5713" width="4.57143" height="4.57143" fill="white"/>
<rect x="32.7144" y="50.5713" width="4.57143" height="4.57143" fill="white"/>
<rect x="28.1428" y="50.5713" width="4.57143" height="4.57143" fill="white"/>
<rect x="19" y="50.5713" width="4.57143" height="4.57143" fill="white"/>
<rect x="78.4286" y="46" width="4.57143" height="4.57143" fill="white"/>
<rect x="64.7144" y="46" width="4.57143" height="4.57143" fill="white"/>
<rect x="60.1429" y="46" width="4.57143" height="4.57143" fill="white"/>
<rect x="55.5713" y="46" width="4.57143" height="4.57143" fill="white"/>
<rect x="51" y="46" width="4.57143" height="4.57143" fill="white"/>
<rect x="46.4286" y="46" width="4.57143" height="4.57143" fill="white"/>
<rect x="41.8572" y="46" width="4.57143" height="4.57143" fill="white"/>
<rect x="37.2855" y="46" width="4.57143" height="4.57143" fill="white"/>
<rect x="32.7144" y="46" width="4.57143" height="4.57143" fill="white"/>
<rect x="19" y="46" width="4.57143" height="4.57143" fill="white"/>
<rect x="60.1429" y="41.4287" width="4.57143" height="4.57143" fill="white"/>
<rect x="55.5713" y="41.4287" width="4.57143" height="4.57143" fill="white"/>
<rect x="51" y="41.4287" width="4.57143" height="4.57143" fill="white"/>
<rect x="46.4286" y="41.4287" width="4.57143" height="4.57143" fill="white"/>
<rect x="41.8572" y="41.4287" width="4.57143" height="4.57143" fill="white"/>
<rect x="37.2855" y="41.4287" width="4.57143" height="4.57143" fill="white"/>
<rect x="55.5713" y="36.8569" width="4.57143" height="4.57143" fill="white"/>
<rect x="51" y="36.8569" width="4.57143" height="4.57143" fill="white"/>
<rect x="46.4286" y="36.8569" width="4.57143" height="4.57143" fill="white"/>
<rect x="41.8572" y="36.8569" width="4.57143" height="4.57143" fill="white"/>
<rect x="55.5713" y="32.2856" width="4.57143" height="4.57143" fill="white"/>
<rect x="51" y="32.2856" width="4.57143" height="4.57143" fill="white"/>
<rect x="46.4286" y="32.2856" width="4.57143" height="4.57143" fill="white"/>
<rect x="41.8572" y="32.2856" width="4.57143" height="4.57143" fill="white"/>
<rect x="55.5713" y="27.7144" width="4.57143" height="4.57143" fill="white"/>
<rect x="51" y="27.7144" width="4.57143" height="4.57143" fill="white"/>
<rect x="46.4286" y="27.7144" width="4.57143" height="4.57143" fill="white"/>
<rect x="41.8572" y="27.7144" width="4.57143" height="4.57143" fill="white"/>
<rect x="51" y="23.1431" width="4.57143" height="4.57143" fill="white"/>
<rect x="46.4286" y="23.1431" width="4.57143" height="4.57143" fill="white"/>
<rect x="55.5713" y="18.5713" width="4.57143" height="4.57143" fill="white"/>
<rect x="41.8572" y="18.5713" width="4.57143" height="4.57143" fill="white"/>
<rect x="51" y="14" width="4.57143" height="4.57143" fill="white"/>
<rect x="46.4286" y="14" width="4.57143" height="4.57143" fill="white"/>
</svg>
