<svg width="64" height="64" viewBox="0 0 64 64" fill="none" xmlns="http://www.w3.org/2000/svg">
<g clip-path="url(#clip0_1388_46)">
<path d="M0 32C0 49.6731 14.3269 64 32 64C49.6731 64 64 49.6731 64 32C64 14.3269 49.6731 0 32 0C14.3269 0 0 14.3269 0 32Z" fill="#1B1133"/>
<path d="M33.5685 31.9993L18.0122 47.5554L21.9012 51.4444C23.8457 53.389 27.7347 53.389 29.6792 51.4445L45.2354 35.8883C47.1799 33.9438 47.1801 30.0546 45.2354 28.1103L37.4576 20.332L29.6795 28.1102L33.5685 31.9993Z" fill="#BEA0EB"/>
<path d="M18.0127 16.4431L21.9017 12.5541C23.8463 10.6096 27.7353 10.6096 29.6798 12.5541L33.5689 16.4431L25.7908 24.2212L18.0127 16.4431Z" fill="#D35CFF"/>
</g>
<defs>
<clipPath id="clip0_1388_46">
<rect width="64" height="64" fill="white"/>
</clipPath>
</defs>
</svg>
