<svg width="64" height="64" viewBox="0 0 64 64" fill="none" xmlns="http://www.w3.org/2000/svg">
<g clip-path="url(#clip0_1278_46)">
<g clip-path="url(#clip1_1278_46)">
<path d="M63.2768 0H0.723164C0.323771 0 0 0.323771 0 0.723164V63.2768C0 63.6762 0.323771 64 0.723164 64H63.2768C63.6762 64 64 63.6762 64 63.2768V0.723164C64 0.323771 63.6762 0 63.2768 0Z" fill="#DBCCF3"/>
<path fill-rule="evenodd" clip-rule="evenodd" d="M39.3812 25.9986C40.9726 24.671 42.7479 24.1659 44.4506 24.2936C46.2668 24.4298 47.9475 25.2811 49.2029 26.5177C50.4579 27.7543 51.3203 29.4084 51.4584 31.1936C51.5976 32.995 50.9945 34.8817 49.4043 36.5375C49.2589 36.69 49.1103 36.8405 48.9585 36.9891C41.7456 44.0942 32.1646 44.113 32.0666 44.113H32.0661C32.0171 44.113 22.4057 44.1126 15.1742 36.9884L15.1727 36.9865C15.0234 36.8387 14.8764 36.6897 14.7316 36.54L14.7304 36.5385C13.1394 34.8842 12.5357 32.9979 12.6745 31.1965C12.8121 29.4117 13.6739 27.7574 14.9288 26.5203C16.1835 25.2833 17.8641 24.4313 19.6806 24.2945C21.3832 24.1663 23.1589 24.6708 24.751 25.9978C24.9222 23.9511 25.8141 22.3581 27.1089 21.263C28.4897 20.095 30.2892 19.5254 32.0661 19.5254C33.8431 19.5254 35.6426 20.095 37.0234 21.263C38.3182 22.3583 39.2102 23.9515 39.3812 25.9986ZM32.3963 43.3927L32.396 43.3837H32.3966L32.3963 43.3927ZM31.736 43.3927L31.7357 43.3837H31.7363L31.736 43.3927ZM37.4851 33.5267C37.2877 33.5267 37.2193 33.8075 37.3452 33.9562C37.5679 34.2196 37.7021 34.5585 37.7021 34.9283C37.7021 35.7673 37.0118 36.4474 36.1603 36.4474C35.3086 36.4474 34.6182 35.7673 34.6182 34.9283C34.6182 34.8834 34.5587 34.8611 34.5319 34.8975C34.2887 35.2265 34.1245 35.596 34.057 35.9839C34.019 36.2023 33.8388 36.3834 33.6123 36.3834H33.4873C33.1917 36.3834 32.9479 36.1472 32.9915 35.8612C33.2905 33.9011 35.2514 32.4794 37.4851 32.4794C39.7186 32.4794 41.6795 33.9011 41.9785 35.8612C42.0219 36.1472 41.7782 36.3834 41.4828 36.3834C41.187 36.3834 40.953 36.146 40.8887 35.8637C40.5965 34.5789 39.2413 33.5267 37.4851 33.5267ZM23.7919 34.9283C23.7919 34.8691 23.714 34.8373 23.6774 34.8844C23.4174 35.2186 23.2403 35.5971 23.1653 35.996C23.121 36.2316 22.9264 36.4275 22.6816 36.4275H22.5898C22.2943 36.4275 22.0504 36.1914 22.094 35.9054C22.3929 33.9442 24.354 32.5236 26.5875 32.5236C28.821 32.5236 30.7821 33.9442 31.0809 35.9054C31.1246 36.1914 30.8807 36.4275 30.5851 36.4275C30.2896 36.4275 30.0556 36.1903 29.9914 35.908C29.6992 34.6224 28.344 33.5709 26.5875 33.5709C26.4278 33.5709 26.3694 33.7918 26.4763 33.9078C26.7246 34.1775 26.8759 34.5355 26.8759 34.9283C26.8759 35.7673 26.1856 36.4474 25.3339 36.4474C24.4823 36.4474 23.7919 35.7673 23.7919 34.9283ZM33.7816 38.592C33.9905 38.3873 34.3133 38.2879 34.5726 38.4264C34.832 38.5652 34.9304 38.887 34.7435 39.1112C34.1347 39.8405 33.1491 40.303 32.062 40.303C30.9755 40.303 29.9877 39.8456 29.3782 39.1105C29.1919 38.8859 29.2916 38.5641 29.5514 38.4264C29.8113 38.2886 30.1336 38.3895 30.3422 38.5941C30.744 38.989 31.3537 39.2558 32.062 39.2558C32.7685 39.2558 33.3789 38.9861 33.7816 38.592Z" fill="#3D4B41"/>
</g>
</g>
<defs>
<clipPath id="clip0_1278_46">
<rect width="64" height="64" rx="32" fill="white"/>
</clipPath>
<clipPath id="clip1_1278_46">
<rect width="64" height="64" fill="white"/>
</clipPath>
</defs>
</svg>
