<svg width="500" height="500" viewBox="0 0 500 500" fill="none" xmlns="http://www.w3.org/2000/svg">
<rect width="500" height="500" rx="250" fill="#7854F7"/>
<path d="M334.442 148C294.237 148 273.926 169.852 261.794 182.913C257.193 187.866 252.844 192.546 250.274 192.546C247.595 192.546 243.318 188.01 238.372 182.762C226.132 169.758 205.634 148 165.573 148C109.305 148 70 189.76 70 249.621C70 278.205 79.4104 304.067 96.496 322.456C113.74 341.025 138.177 351.256 165.299 351.256C205.274 351.256 225.923 329.433 238.257 316.394C242.973 311.411 247.422 306.702 250 306.702C252.578 306.702 256.919 311.238 261.83 316.487C273.998 329.49 294.366 351.256 334.427 351.256C390.702 351.256 430 309.496 430 249.628C430 189.76 390.717 148 334.442 148ZM394.518 249.621C394.518 290.826 369.815 319.605 334.442 319.605C306.362 319.605 292.509 303.635 280.269 289.545C271.211 279.119 262.665 269.277 250.029 269.277C237.53 269.277 229.005 279.076 219.976 289.437C207.678 303.57 193.732 319.59 165.602 319.59C130.228 319.59 105.525 290.79 105.525 249.606C105.525 208.422 130.228 179.63 165.602 179.63C193.739 179.63 207.678 195.563 219.983 209.618C229.012 219.935 237.537 229.677 250.029 229.677C262.672 229.677 271.226 219.892 280.269 209.517C292.509 195.506 306.383 179.622 334.449 179.622C369.815 179.644 394.518 208.415 394.518 249.621Z" fill="white"/>
</svg>
