<?xml version="1.0" encoding="UTF-8"?>
<svg width="100px" height="131px" viewBox="0 0 100 131" version="1.1" xmlns="http://www.w3.org/2000/svg" xmlns:xlink="http://www.w3.org/1999/xlink">
    <!-- Generator: Sketch 54.1 (76490) - https://sketchapp.com -->
    <title>Logo</title>
    <desc>Created with Sketch.</desc>
    <defs>
        <polygon id="path-1" points="0 0.163694772 99.8094923 0.163694772 99.8094923 100.10196 0 100.10196"></polygon>
    </defs>
    <g id="app-Mobile" stroke="none" stroke-width="1" fill="none" fill-rule="evenodd">
        <g id="m-05" transform="translate(-24.000000, -24.000000)">
            <g id="Header">
                <g id="Logo" transform="translate(24.000000, 24.000000)">
                    <path d="M77.9950331,90.5544901 C79.6703091,94.509232 81.3484547,98.4626486 83.0197572,102.419158 C84.9197572,106.917782 86.7932671,111.427893 88.7210817,115.914809 C89.3855408,117.461404 89.5071744,118.944598 88.3261589,120.235379 C87.1771523,121.491256 85.7166667,121.544053 84.1645695,120.996195 C80.4619205,119.688846 76.7378587,118.441805 73.0451435,117.106622 C72.139404,116.779232 71.7672185,117.016269 71.3864238,117.848219 C69.6881898,121.556424 67.936755,125.24033 66.1775938,128.920259 C65.4753863,130.388873 64.2422737,130.938498 62.6488962,130.820753 C61.2336645,130.716483 60.3610375,129.921426 59.8400662,128.681676 C57.0948124,122.148244 54.361479,115.609731 51.6206402,109.074532 C51.4943709,108.772989 51.3354305,108.485143 51.1100442,108.02366 C50.1672185,110.247126 49.2773731,112.321697 48.4062914,114.404443 C46.4228477,119.14651 44.4555188,123.895205 42.4663355,128.634622 C41.8714128,130.052205 40.8371965,130.816777 39.233223,130.832461 C37.6204194,130.848367 36.6407285,130.065681 35.9844371,128.669525 C34.249117,124.977888 32.4709713,121.306353 30.7433775,117.611181 C30.4241722,116.928126 30.0983444,116.823856 29.3826711,117.077682 C25.4747241,118.465001 21.547351,119.798197 17.6193157,121.127637 C16.2471302,121.592212 14.9334437,121.348989 13.9738411,120.280445 C13.0131347,119.210353 12.734989,117.919352 13.337638,116.489176 C16.545585,108.876154 19.7259382,101.251424 22.9219647,93.6333214 C23.0775938,93.2624125 23.2915011,92.9158037 23.4780353,92.5581494 C23.968543,92.7629336 24.4279249,93.0118998 24.742053,93.4636621 C23.161479,97.2969032 21.5915011,101.134563 19.9970199,104.961839 C18.3586093,108.894048 16.6917219,112.814328 15.0475717,116.743886 C14.6890728,117.600799 14.5669978,118.477814 15.2956954,119.211237 C15.9672185,119.886782 16.742936,119.683986 17.5435982,119.40365 C21.630574,117.971266 25.736755,116.593004 29.8126932,115.130355 C30.8539735,114.756795 31.3619205,114.951859 31.8318985,115.98307 C33.6451435,119.962333 35.551766,123.89874 37.4186534,127.853703 C37.7877483,128.635063 38.3104857,129.243451 39.2354305,129.229976 C40.1047461,129.217605 40.6431567,128.65848 40.962362,127.896117 C43.8831126,120.918655 46.7714128,113.927276 49.7407285,106.970579 C50.2034216,105.885908 50.1259382,105.050203 49.4791391,104.15176 C49.1793598,104.331139 49.1301325,104.590267 49.0327815,104.821782 C46.1433775,111.693428 43.254415,118.565515 40.359713,125.435173 C40.1672185,125.891795 40.1084989,126.539063 39.4581678,126.552318 C38.7683223,126.566677 38.644702,125.896213 38.4058499,125.421256 C36.4224062,121.478001 34.4294702,117.539385 32.4901766,113.574482 C32.1431567,112.864917 31.8135762,112.698571 31.0652318,112.96035 C28.9184327,113.711004 26.7462472,114.389863 24.5811258,115.087498 C22.3809051,115.796401 20.1758278,116.49006 17.9762693,117.201171 C17.6091611,117.3198 17.2546358,117.425396 16.9592715,117.094251 C16.7047461,116.808834 16.7809051,116.48277 16.9142384,116.162008 C17.0270419,115.89073 17.1204194,115.611498 17.2338852,115.340441 C20.2009934,108.262465 23.1696468,101.18493 26.1378587,94.1071747 C28.6175497,94.7599656 31.1581678,94.6939133 33.6665563,94.5379504 C36.9828918,94.3318408 39.8140177,95.3884563 42.5096026,97.1926334 C44.6956954,98.6557245 46.9458057,100.067785 49.7221854,100.125664 C53.5460265,109.270922 57.3753863,118.41375 61.1853201,127.564972 C61.5453642,128.429837 61.9654525,129.199932 63.0023179,129.227767 C64.0378587,129.255822 64.53234,128.5129 64.9274834,127.671451 C66.6919426,123.912878 68.4449227,120.149003 70.2502208,116.410311 C71.0928256,114.665117 70.6775938,114.553558 72.9316777,115.3305 C76.8864238,116.694181 80.8440397,118.049689 84.7901766,119.437891 C85.657947,119.74319 86.4345475,119.805928 87.1040839,119.076703 C87.7824503,118.337977 87.5888521,117.563023 87.2383002,116.730632 C83.7612583,108.47476 80.3036424,100.210714 76.8405077,91.9488779 C77.1948124,91.4586772 77.4822296,90.913028 77.9950331,90.5544901" id="Fill-1" fill="#FCCDD3"></path>
                    <g id="Group-5" transform="translate(0.000000, 0.057216)">
                        <mask id="mask-2" fill="white">
                            <use xlink:href="#path-1"></use>
                        </mask>
                        <g id="Clip-4"></g>
                        <path d="M33.4731567,7.70454519 C31.6872848,7.70454519 30.47117,7.65528212 29.260574,7.7151489 C27.0574834,7.82427875 25.2210596,8.64606627 23.9078146,10.525132 C22.8919205,11.9787239 22.0517439,13.5281911 21.2548344,15.1001911 C19.8239294,17.9234288 17.7188521,20.0317998 14.892362,21.4529179 C13.6460044,22.0796413 12.4464459,22.799589 11.2318764,23.4883884 C8.69147903,24.9287256 7.49898455,27.1356228 7.52415011,30.0361793 C7.5402649,31.9134777 7.52437086,33.7909971 7.55350993,35.6678538 C7.58596026,37.7470646 7.05483444,39.6672197 6.00207506,41.4475384 C5.16013245,42.8713074 4.3201766,44.2970646 3.44732892,45.7020562 C1.64335541,48.6059263 1.55218543,51.4996346 3.42083885,54.4118993 C3.85748344,55.0920831 4.21002208,55.8299246 4.680883,56.4838201 C6.8983223,59.5641978 7.88750552,62.9679887 7.56256071,66.7669887 C7.46233996,67.9369314 7.51863135,69.121675 7.52878587,70.2991287 C7.54997792,72.8099988 8.41686534,74.9018015 10.6009713,76.3006076 C11.4354084,76.8352113 12.2621192,77.4097998 13.161457,77.8107526 C17.1912583,79.6065351 20.2106843,82.3979617 22.0082561,86.4735418 C22.377351,87.3105722 22.885298,88.0875148 23.3442384,88.8836767 C24.7824283,91.3781995 26.9828698,92.5282602 29.8223841,92.5271556 C31.7718322,92.5264929 33.7215011,92.5218538 35.6709492,92.5026346 C37.7508609,92.4823108 39.6552759,93.0776649 41.4303311,94.123014 C42.8554967,94.9622535 44.2788962,95.8056902 45.682649,96.6798336 C48.4864018,98.4259111 51.2793377,98.4480022 54.08883,96.7028083 C55.1504194,96.043611 56.2451214,95.4365486 57.2908168,94.7534929 C59.698543,93.181272 62.287947,92.3292197 65.199426,92.4902636 C66.7766887,92.5773024 68.3618985,92.5231793 69.9435762,92.5280393 C72.8274614,92.5364339 75.0581457,91.3786413 76.5007506,88.8297745 C77.18883,87.6141034 77.9106843,86.4147796 78.5365121,85.1672973 C79.9550552,82.3400831 82.0340839,80.2076329 84.873819,78.7942467 C86.1554967,78.1562568 87.3969978,77.4323327 88.6274614,76.6984676 C90.6245916,75.5082012 91.9645475,73.8639634 92.1930243,71.4443293 C92.4049448,69.2012029 92.2581457,66.9582973 92.2517439,64.7162754 C92.2453422,62.4422214 92.8126711,60.359697 93.987064,58.4256245 C94.8457837,57.0115755 95.6850773,55.5858184 96.5384989,54.1686767 C98.1190728,51.5440376 98.1983223,48.895761 96.6490949,46.2333462 C95.964989,45.0576599 95.2762472,43.8830781 94.5382781,42.7411911 C92.9572627,40.2963732 92.0797792,37.676815 92.2506402,34.7219145 C92.3442384,33.1074997 92.3069316,31.4833648 92.284415,29.8643108 C92.2499779,27.4033664 91.39766,25.3550831 89.2678587,23.9399297 C87.8252539,22.9809567 86.3089183,22.1571809 84.7718322,21.3716228 C82.0616777,19.9860713 80.0283444,17.9486126 78.6347461,15.241353 C77.9451214,13.9021927 77.1956733,12.5921927 76.4334216,11.2923546 C75.2473289,9.26969696 73.5378366,7.98200894 71.1521854,7.76374924 C70.2393819,7.68024503 69.3164238,7.71117251 68.39766,7.69482513 C66.4137748,7.65903761 64.4201766,7.85896172 62.4468874,7.58967167 C60.0086976,7.25698027 57.9181898,6.02474081 56.0018543,4.60958735 C51.9086976,1.58664637 47.9552759,1.54423153 43.8616777,4.59544907 C40.6298896,7.00425852 37.0203974,8.31492125 33.4731567,7.70454519 M24.7420309,93.4063799 C24.4279029,92.9546177 23.968521,92.7056514 23.4780132,92.5010882 C21.366755,90.0167273 20.0811038,87.0202956 18.380883,84.2810039 C17.3139956,82.5620983 15.6749227,81.5176329 13.9477704,80.57567 C12.2713907,79.6613209 10.5444592,78.8313597 9.01046358,77.6717998 C6.781766,75.9871354 5.63430464,73.7382653 5.54821192,70.958326 C5.50737307,69.6346295 5.44313466,68.2985621 5.56807947,66.9852484 C5.90163355,63.4809432 4.93783664,60.3866481 2.94225166,57.5329246 C2.18706402,56.4528926 1.54335541,55.2818454 0.961456954,54.0966599 C-0.354878587,51.4163513 -0.295496689,48.7119634 0.991479029,46.021272 C1.72370861,44.4896987 2.65549669,43.0758707 3.55969095,41.6485671 C4.93518764,39.4776784 5.72392936,37.1746852 5.57448124,34.5633007 C5.48419426,32.9851152 5.55284768,31.3985351 5.53342163,29.8159314 C5.48927152,26.2497712 7.07558499,23.6090056 10.0934658,21.7988639 C11.2588079,21.0999027 12.4367329,20.4122079 13.6559382,19.8157492 C16.3336424,18.5059702 18.3027373,16.5409702 19.6256954,13.8597779 C20.5340839,12.018046 21.477351,10.1847088 22.8402649,8.60674418 C24.5126711,6.67046256 26.6515232,5.79101737 29.1557174,5.71900051 C30.4418102,5.68210843 31.7411479,5.60125514 33.0146578,5.73313879 C36.6082561,6.10471046 39.7464459,5.03550304 42.6526269,3.00224165 C43.6122296,2.33111518 44.6616777,1.77972226 45.7027373,1.23650304 C48.5162031,-0.231889882 51.3362914,-0.158105734 54.1634437,1.24445582 C55.6173068,1.96572901 56.9784547,2.84031417 58.3356291,3.71512024 C60.5360706,5.13314553 62.896777,5.86060422 65.5283444,5.7459516 C67.1071523,5.67702749 68.690596,5.72275599 70.2718322,5.70883862 C73.8426932,5.6772484 76.4524062,7.31021973 78.2378366,10.3393462 C78.9654305,11.5737948 79.6919205,12.8137661 80.3274614,14.096815 C81.566755,16.5988487 83.4285651,18.4330696 85.9181898,19.677901 C87.4618985,20.4497627 88.9830905,21.2706666 90.4093598,22.2528352 C92.9612362,24.0104002 94.2449007,26.4441725 94.2775717,29.5373631 C94.2901545,30.7519297 94.3696247,31.9759954 94.2526269,33.1795165 C93.9078146,36.7215975 94.8777925,39.8576447 96.9111258,42.7321337 C97.5455629,43.6290309 98.070287,44.6087695 98.5943488,45.5781253 C100.338499,48.8051877 100.164106,51.9946953 98.3354084,55.1280916 C97.4272406,56.6839651 96.5027373,58.2298976 95.5819868,59.7780393 C94.6563797,61.3345755 94.2327594,63.0187981 94.2535099,64.8269516 C94.2749227,66.6671371 94.2532892,68.5082062 94.2846358,70.3481708 C94.3453422,73.9174238 92.765872,76.5637121 89.7652097,78.3902012 C88.4788962,79.1733293 87.1552759,79.8992417 85.8190728,80.5942265 C83.6440177,81.7255098 81.8570419,83.2374221 80.7075938,85.4494002 C79.8270199,87.1440056 78.9020751,88.8156363 77.9961148,90.4972079 C77.4822075,90.8557459 77.1947903,91.4013951 76.8404857,91.8915958 C76.3740397,92.1549212 76.0184106,92.541073 75.6766887,92.9431304 C73.7073731,94.2650595 71.5098013,94.6110056 69.1883885,94.530815 C67.5382781,94.4738201 65.8848565,94.518444 64.2327594,94.5142467 C63.083532,94.5109331 61.976468,94.7234491 60.9252539,95.1853732 C57.6574834,96.6217341 54.9139956,99.0729583 51.4349669,100.10196 C50.866755,99.9398116 50.2934658,100.066173 49.7221634,100.068382 C46.9457837,100.010724 44.6956733,98.5984423 42.5098013,97.1353513 C39.8139956,95.3311742 36.9828698,94.2745587 33.6665342,94.4806683 C31.1581457,94.6368521 28.6175276,94.7026835 26.1376159,94.0501135 C25.7175276,93.7370831 25.2722737,93.4797223 24.7420309,93.4063799" id="Fill-3" fill="#6534FF" mask="url(#mask-2)"></path>
                    </g>
                    <path d="M64.0137969,60.5694295 C64.9076159,60.5961597 65.5093819,59.8558882 65.248234,58.9399927 C63.6577263,53.3677432 62.0444812,47.8021209 60.435872,42.2349523 C60.1879691,41.3773772 59.5343267,41.2039624 58.7844371,41.3822373 C58.1716336,41.5275965 58.0100442,42.1061614 57.850883,42.6436369 C56.8193157,46.1247465 55.7866446,49.6056352 54.752649,53.0860821 C54.1884106,54.9843671 53.5981236,56.8751411 53.0656733,58.7820417 C52.8462472,59.5680417 53.0133554,60.2985931 53.9230684,60.5256892 C54.7157837,60.7236251 55.261479,60.4048511 55.4749448,59.5503688 C55.6791391,58.7329995 55.9868653,57.9414767 56.1923841,57.1243283 C56.3343267,56.5607853 56.6268212,56.3590939 57.2018764,56.3741159 C58.4864238,56.4074734 59.7731788,56.4068106 61.0577263,56.3745577 C61.6634658,56.3595358 61.9965784,56.5203587 62.1248344,57.1749169 C62.2795806,57.9633469 62.5530905,58.7299067 62.7970199,59.4988966 C62.9848786,60.0902744 63.2833333,60.5826841 64.0137969,60.5694295 M35.1277042,51.0011277 C35.0407285,51.9145931 35.3049669,52.7779118 35.7318985,53.6147212 C36.5502208,55.2183115 37.3656733,56.8243317 38.1424945,58.4484666 C38.76766,59.7560366 39.7133554,60.5318747 41.2062914,60.5829051 C42.7775938,60.6368073 43.7400662,59.8136943 44.3850993,58.4776268 C45.231457,56.7242592 46.1122517,54.987018 46.9369757,53.2237094 C47.6466887,51.7064953 47.6418322,50.1634346 46.9043046,48.6482086 C45.9877483,46.7649455 45.0826711,44.875497 44.1210817,43.0154295 C42.9687638,40.7868831 39.766777,40.626502 38.5162252,42.8104245 C37.3504415,44.8465577 36.4001104,47.0070636 35.3862031,49.1280265 C35.1151214,49.695325 35.0687638,50.3333148 35.1277042,51.0011277 M70.8775938,50.6235914 C70.8775938,53.4196572 70.8884106,56.2159438 70.8711921,59.0120096 C70.865894,59.9228241 71.1884106,60.5475594 72.163245,60.5592676 C73.2758278,60.5723013 73.444702,59.7270973 73.4630243,58.880126 C73.4970199,57.2986268 73.5007726,55.7153604 73.461479,54.1345239 C73.444702,53.4587583 73.6716336,53.239615 74.3442605,53.254416 C76.0714128,53.2926336 77.8005519,53.2955054 79.5277042,53.2579506 C81.5837748,53.2135476 83.1453642,51.670045 83.2082781,49.6096116 C83.255298,48.0658882 83.2583885,46.5181884 83.2071744,44.9744649 C83.1378587,42.8727212 81.5155629,41.3420315 79.4186534,41.3362879 C76.9186534,41.3292187 74.4179912,41.3658899 71.9188742,41.3164059 C71.1149007,41.3002794 70.8398455,41.4933553 70.8568433,42.3458494 C70.9122517,45.1041395 70.8775938,47.8641968 70.8775938,50.6235914 M17.2352097,50.6578325 C17.2352097,53.3803351 17.2336645,56.1028376 17.2371965,58.825561 C17.237638,59.1184885 17.1976821,59.4363789 17.2948124,59.6990417 C17.5213024,60.3107432 17.9835541,60.6290754 18.665011,60.5663368 C19.5155629,60.4881344 19.7775938,59.8603064 19.8012141,59.1761462 C19.8572848,57.5593013 19.8678808,55.9380383 19.8142384,54.3211934 C19.7875276,53.5186251 19.9892936,53.2144312 20.8469095,53.2475678 C22.5354305,53.3133992 24.2292494,53.2974936 25.9195364,53.2561833 C27.9188742,53.2073621 29.4848786,51.6850669 29.5619205,49.6856049 C29.6226269,48.105873 29.6208609,46.5203975 29.5630243,44.9404447 C29.4862031,42.8440029 27.857064,41.3407061 25.742053,41.335846 C23.242053,41.3303233 20.74117,41.3725172 18.2424945,41.3135341 C17.3850993,41.2934312 17.2038631,41.580615 17.2173289,42.3798696 C17.2636865,45.1383806 17.2352097,47.8984379 17.2352097,50.6578325 M33.4731788,7.76184941 C37.0204194,8.37222546 40.6299117,7.06156273 43.8616998,4.65253238 C47.9550773,1.60131484 51.9087196,1.64395059 56.0018764,4.66689157 C57.9182119,6.08182411 60.0084989,7.31406358 62.4469095,7.64697589 C64.4201987,7.91604503 66.4137969,7.71634182 68.3976821,7.75190843 C69.3164459,7.76847673 70.239404,7.73754924 71.1522075,7.82105346 C73.5378587,8.03931315 75.247351,9.32700118 76.4334437,11.3496589 C77.1956954,12.649497 77.9451435,13.9592761 78.6345475,15.2986572 C80.0283664,18.0059169 82.0616998,20.0433755 84.7718543,21.4287061 C86.3089404,22.2144852 87.8252759,23.0382609 89.2678808,23.997013 C91.3976821,25.4123874 92.25,27.4606707 92.2842163,29.9213941 C92.3069536,31.540669 92.3442605,33.164583 92.2506623,34.7792187 C92.0798013,37.7338983 92.9572848,40.3534565 94.5380795,42.7984953 C95.2762693,43.9401614 95.965011,45.1149641 96.649117,46.2906504 C98.1981236,48.9530653 98.1190949,51.6011209 96.538521,54.22576 C95.6850993,55.6429017 94.8458057,57.0686589 93.9870861,58.4827078 C92.8126932,60.4170012 92.2453642,62.4995256 92.251766,64.7735796 C92.2581678,67.0153806 92.4049669,69.2585071 92.1930464,71.5016336 C91.9645695,73.9212676 90.6246137,75.5652845 88.6274834,76.7557718 C87.3970199,77.489416 86.1555188,78.213561 84.8738411,78.85133 C82.034106,80.2649371 79.9550773,82.3973874 78.5365342,85.2246015 C77.9107064,86.4718629 77.1888521,87.6714076 76.5005519,88.8870788 C75.0581678,91.4357246 72.8274834,92.5935172 69.9435982,92.5851226 C68.3619205,92.5804835 66.7767108,92.6346066 65.1994481,92.5473469 C62.2879691,92.3865239 59.6985651,93.2383553 57.2908389,94.8105762 C56.2451435,95.4936319 55.1504415,96.1006943 54.0888521,96.7601125 C51.2791391,98.5050855 48.4864238,98.4832153 45.6826711,96.7369169 C44.2789183,95.8627735 42.8555188,95.0195577 41.4303532,94.1803182 C39.655298,93.1349691 37.750883,92.5393941 35.6707506,92.5599388 C33.7215232,92.579158 31.7718543,92.5835762 29.8224062,92.584239 C26.9828918,92.5853435 24.7824503,91.4352828 23.3442605,88.94076 C22.8853201,88.1448191 22.3773731,87.3678764 22.0082781,86.530846 C20.2107064,82.4552659 17.1912804,79.6638393 13.161479,77.8678359 C12.2619205,77.467104 11.4354305,76.8922946 10.6009934,76.3576909 C8.41688742,74.9588848 7.55,72.8670821 7.52880795,70.356212 C7.51865342,69.1787583 7.46236203,67.9942356 7.56258278,66.8242929 C7.88752759,63.0252929 6.89834437,59.621502 4.68090508,56.5411243 C4.21004415,55.8870079 3.85750552,55.1493874 3.42086093,54.4689826 C1.55220751,51.5569388 1.64315673,48.6632305 3.44735099,45.7591395 C4.32019868,44.3543688 5.16015453,42.9286116 6.00209713,41.5048427 C7.05485651,39.724303 7.58598234,37.8041479 7.55353201,35.725158 C7.52439294,33.8483013 7.54028698,31.970782 7.52417219,30.0934835 C7.49900662,27.192927 8.6915011,24.9860298 11.2318985,23.5454717 C12.446468,22.8568933 13.6460265,22.1367246 14.8921634,21.5102221 C17.7188742,20.089104 19.8239514,17.9805121 21.2548565,15.1574953 C22.051766,13.5852744 22.8919426,12.0360282 23.9078366,10.5822153 C25.2210817,8.70314958 27.0572848,7.88136206 29.2603753,7.77245312 C30.4711921,7.71258634 31.6873068,7.76184941 33.4731788,7.76184941" id="Fill-10" fill="#FEFEFE"></path>
                    <path d="M75.6767108,93.0002578 C78.3937086,99.5018784 81.1104857,106.003278 83.8274834,112.504899 C84.2945916,113.622485 84.7751656,114.73455 85.2230684,115.859647 C85.3800221,116.253752 85.654415,116.687841 85.2822296,117.099177 C84.9023179,117.519128 84.4689845,117.259337 84.057064,117.126791 C79.7976821,115.756482 75.5301325,114.409811 71.2857616,112.993995 C70.4409492,112.711892 70.0945916,112.893039 69.7124724,113.677492 C67.7811258,117.64328 65.7839956,121.577035 63.8056291,125.52029 C63.5961369,125.93759 63.4601545,126.428233 62.8316777,126.424477 C62.1778146,126.42028 62.0945916,125.879711 61.9213024,125.467713 C58.4941501,117.314344 55.0791391,109.155452 51.66766,100.995234 C51.5568433,100.730141 51.5111479,100.437877 51.4352097,100.158646 C54.9140177,99.1300858 57.6575055,96.6788616 60.9252759,95.2425007 C61.9762693,94.7807975 63.0835541,94.5682815 64.2327815,94.5713742 C65.8848786,94.5757924 67.5383002,94.5311685 69.1881898,94.5879425 C71.5098234,94.668354 73.7073951,94.322187 75.6767108,93.0002578" id="Fill-12" fill="#FCCDD3"></path>
                    <path d="M19.7239956,47.2620607 C19.7239956,48.1801653 19.7412141,49.0984907 19.7173731,50.0159325 C19.7036865,50.546118 19.8299558,50.8302091 20.4456291,50.8191636 C22.1696909,50.7886779 23.8946358,50.813199 25.6191391,50.805688 C26.5601987,50.8014907 27.0590949,50.2664452 27.0906623,49.3730826 C27.1385651,48.0160287 27.1462914,46.6547774 27.0933113,45.2983862 C27.0575497,44.3723288 26.5743267,43.8076813 25.5533554,43.8198314 C23.902362,43.8394924 22.2504857,43.8470034 20.5999338,43.8149713 C19.9182561,43.8014958 19.6884547,44.0747622 19.7158278,44.7288786 C19.7509272,45.5718735 19.7242163,46.4175194 19.7239956,47.2620607 M17.2352539,50.6578988 C17.2352539,47.8982833 17.2635099,45.1384469 17.2173731,42.3799359 C17.2036865,41.5806813 17.3851435,41.2932766 18.2425386,41.3136003 C20.7409934,41.3725835 23.2420971,41.3301686 25.7420971,41.3359123 C27.8571082,41.3405514 29.4862472,42.8440691 29.5628477,44.940511 C29.6209051,46.5204637 29.6226711,48.1059393 29.5619647,49.6856712 C29.4849227,51.6851332 27.9189183,53.2074283 25.9193598,53.2562496 C24.2292936,53.2975599 22.5354746,53.3134654 20.8467329,53.2476341 C19.9893377,53.2142766 19.7875717,53.5186914 19.8142826,54.3212597 C19.8679249,55.9378836 19.8573289,57.5593676 19.8012583,59.1762125 C19.777638,59.8603727 19.5156071,60.4882007 18.6650552,60.566403 C17.9835982,60.6289207 17.5213466,60.3105885 17.2948565,59.698887 C17.1977263,59.4364452 17.2374614,59.1183339 17.2370199,58.8256273 C17.2337086,56.1029039 17.2352539,53.3804013 17.2352539,50.6578988" id="Fill-14" fill="#6534FF"></path>
                    <path d="M73.3666004,47.3070381 C73.3666004,48.2251427 73.3906623,49.1439099 73.3579912,50.060689 C73.3370199,50.6430094 73.5699117,50.8263653 74.1330464,50.8179707 C75.8204636,50.7927868 77.508543,50.8060415 79.1964018,50.8091342 C80.19,50.8109015 80.7083223,50.2778442 80.7374614,49.3281494 C80.7787417,47.9708745 80.7930905,46.6094024 80.7312804,45.2536739 C80.6888962,44.3174546 80.1593157,43.8005238 79.1507064,43.8177548 C77.5367991,43.8451477 75.9211258,43.8513332 74.30766,43.8131157 C73.585585,43.7958847 73.3189183,44.0576637 73.3560044,44.773856 C73.3994923,45.6161882 73.3661589,46.4624968 73.3666004,47.3070381 M70.877638,50.6235693 C70.877638,47.8641747 70.9122958,45.1041174 70.8568874,42.3458273 C70.8398896,41.4935541 71.1149448,41.3004782 71.9186976,41.3163838 C74.4180353,41.3658678 76.9186976,41.3291966 79.4186976,41.3362658 C81.5156071,41.3420094 83.1379029,42.8726992 83.2072185,44.9744428 C83.2584327,46.5181663 83.2553422,48.0658661 83.2083223,49.6095895 C83.1454084,51.6700229 81.583819,53.2135255 79.5277483,53.2579285 C77.800596,53.2954833 76.071457,53.2926115 74.3443046,53.2543939 C73.6716777,53.2395929 73.4447461,53.4587363 73.4615232,54.1345019 C73.500596,55.7155592 73.497064,57.2986047 73.4630684,58.8801039 C73.4447461,59.7270752 73.275872,60.5722793 72.1632892,60.5592455 C71.1884547,60.5477582 70.8659382,59.922802 70.8712362,59.0119875 C70.888234,56.2159218 70.877638,53.4196351 70.877638,50.6235693" id="Fill-16" fill="#6534FF"></path>
                    <path d="M44.8943046,50.9719012 C44.8227815,50.6149096 44.8203532,50.2247815 44.6680353,49.9064492 C43.7801766,48.0512418 42.8837086,46.1989062 41.9335982,44.3750681 C41.5199117,43.5808944 40.8675938,43.5886263 40.4503753,44.3993683 C39.5428698,46.1622351 38.6923179,47.9549248 37.847947,49.7493818 C37.4119647,50.6758809 37.5280795,51.6145302 37.9709051,52.5125319 C38.7669316,54.1271676 39.5786313,55.7340715 40.3812804,57.3456145 C40.5651656,57.7145352 40.7512583,58.1075352 41.2366887,58.085886 C41.6539073,58.0675504 41.8413245,57.7266853 42.0113024,57.386483 C42.849713,55.7108759 43.6973951,54.0399079 44.535585,52.3643008 C44.7521413,51.9315369 44.8786313,51.4724847 44.8943046,50.9719012 M35.127638,51.0010614 C35.0689183,50.3332486 35.1152759,49.6952587 35.3863576,49.1279602 C36.4000442,47.0072182 37.350596,44.8464914 38.5161589,42.8105791 C39.7667108,40.6264358 42.9686976,40.7868169 44.1210155,43.0153632 C45.0826049,44.8754307 45.9876821,46.7651002 46.9042384,48.6481423 C47.641766,50.1633683 47.6468433,51.706429 46.9369095,53.2236432 C46.1121854,54.9869518 45.2313907,56.7241929 44.3850331,58.4775605 C43.74,59.813628 42.7777483,60.636741 41.2062252,60.5828388 C39.7132892,60.5318084 38.7678146,59.7559703 38.1424283,58.4486212 C37.3658278,56.8242654 36.5503753,55.2182452 35.7318322,53.614655 C35.3049007,52.7778455 35.040883,51.9147477 35.127638,51.0010614" id="Fill-18" fill="#6534FF"></path>
                    <path d="M59.3334216,47.5793988 C59.2387196,47.5816079 59.1440177,47.5835961 59.0490949,47.5858052 C58.7111258,48.7321105 58.3451214,49.8711256 58.0433554,51.0267091 C57.7969978,51.9706602 56.8716115,53.2364781 57.5135541,53.7768255 C58.1400442,54.3039182 59.5382781,53.9051745 60.5974393,53.9281492 C61.0579249,53.9383111 61.1460044,53.7845573 61.0109051,53.3378761 C60.4323179,51.4243482 59.8894923,49.4997749 59.3334216,47.5793988 M64.0144371,60.5687226 C63.283532,60.58264 62.9848565,60.0902302 62.7969978,59.4990734 C62.5530684,58.7298626 62.2795585,57.9633027 62.1250331,57.1748727 C61.9965563,56.5203145 61.6634437,56.3594916 61.0579249,56.3745135 C59.7731567,56.4067664 58.4864018,56.4074292 57.2018543,56.3742926 C56.6267991,56.3592707 56.3343046,56.5609621 56.192362,57.1242841 C55.9868433,57.9414325 55.679117,58.7329553 55.4749227,59.5503246 C55.261457,60.4050278 54.7157616,60.7235809 53.9230464,60.525645 C53.0133333,60.2987698 52.8462252,59.5682184 53.0656512,58.7819975 C53.5983223,56.875097 54.1883885,54.9843229 54.7526269,53.0860379 C55.7868433,49.6055911 56.8192936,46.1249233 57.8508609,42.6435927 C58.0100221,42.1063381 58.1716115,41.5275523 58.784415,41.3821931 C59.5343046,41.2041391 60.187947,41.3773331 60.4358499,42.2349081 C62.0444592,47.8020767 63.6577042,53.367699 65.2482119,58.9399486 C65.5095806,59.855844 64.9075938,60.5961155 64.0144371,60.5687226" id="Fill-20" fill="#6534FF"></path>
                    <path d="M19.724106,47.2620607 C19.7243267,46.4175194 19.7508168,45.5718735 19.7157174,44.7288786 C19.6885651,44.0747622 19.9183664,43.8014958 20.6000442,43.8149713 C22.250596,43.8470034 23.9022517,43.8394924 25.553245,43.8198314 C26.5744371,43.8076813 27.0574393,44.3723288 27.0934216,45.2983862 C27.146181,46.6547774 27.1384547,48.0160287 27.0905519,49.3730826 C27.0592053,50.2664452 26.5603091,50.8014907 25.6192494,50.805688 C23.8947461,50.813199 22.1695806,50.7886779 20.4457395,50.8191636 C19.8298455,50.8302091 19.7035762,50.546118 19.7172627,50.0159325 C19.7413245,49.0984907 19.724106,48.1801653 19.724106,47.2620607" id="Fill-22" fill="#FEFEFE"></path>
                    <path d="M73.3663797,47.3070381 C73.3661589,46.4624968 73.3994923,45.6161882 73.3560044,44.773856 C73.3189183,44.0576637 73.585585,43.7958847 74.30766,43.8131157 C75.9211258,43.8513332 77.5367991,43.8451477 79.1507064,43.8177548 C80.1590949,43.8005238 80.6888962,44.3174546 80.7312804,45.2536739 C80.7930905,46.6094024 80.7787417,47.9708745 80.7374614,49.3281494 C80.7083223,50.2778442 80.19,50.8109015 79.1964018,50.8091342 C77.508543,50.8060415 75.8204636,50.7927868 74.1330464,50.8179707 C73.5699117,50.8263653 73.3370199,50.6430094 73.3579912,50.060689 C73.3906623,49.1439099 73.3666004,48.2251427 73.3663797,47.3070381" id="Fill-24" fill="#FEFEFE"></path>
                    <path d="M44.8943046,50.9719012 C44.8786313,51.4724847 44.7521413,51.9315369 44.535585,52.3643008 C43.6973951,54.0399079 42.849713,55.7108759 42.0113024,57.386483 C41.8413245,57.7266853 41.6539073,58.0675504 41.2366887,58.085886 C40.7512583,58.1075352 40.5651656,57.7145352 40.3812804,57.3456145 C39.5786313,55.7340715 38.7669316,54.1271676 37.9709051,52.5125319 C37.5280795,51.6145302 37.4119647,50.6758809 37.847947,49.7493818 C38.6923179,47.9549248 39.5428698,46.1622351 40.4503753,44.3993683 C40.8675938,43.5886263 41.5199117,43.5808944 41.9335982,44.3750681 C42.8837086,46.1989062 43.7801766,48.0512418 44.6680353,49.9064492 C44.8203532,50.2247815 44.8227815,50.6149096 44.8943046,50.9719012" id="Fill-26" fill="#FEFEFE"></path>
                    <path d="M59.3334216,47.5793988 C59.8894923,49.4997749 60.4323179,51.4243482 61.0109051,53.3378761 C61.1460044,53.7845573 61.0579249,53.9383111 60.5974393,53.9281492 C59.5382781,53.9051745 58.1400442,54.3039182 57.5135541,53.7768255 C56.8716115,53.2364781 57.7969978,51.9706602 58.0433554,51.0267091 C58.3451214,49.8711256 58.7111258,48.7321105 59.0490949,47.5858052 C59.1440177,47.5835961 59.2387196,47.5816079 59.3334216,47.5793988" id="Fill-28" fill="#FEFEFE"></path>
                </g>
            </g>
        </g>
    </g>
</svg>