<svg width="96" height="96" viewBox="0 0 96 96" fill="none" xmlns="http://www.w3.org/2000/svg">
<rect width="96" height="96" rx="48" fill="#7B3FE4"/>
<g clip-path="url(#clip0_1209_46)">
<mask id="mask0_1209_46" style="mask-type:luminance" maskUnits="userSpaceOnUse" x="8" y="8" width="80" height="80">
<path d="M88 8H8V88H88V8Z" fill="white"/>
</mask>
<g mask="url(#mask0_1209_46)">
<path d="M72.3747 35.2719C71.4824 33.7345 70.2014 32.4565 68.659 31.5646L65.3647 29.6768C65.5466 30.586 65.6385 31.5107 65.6393 32.4377V35.8524L66.0412 36.0865C66.7864 36.5232 67.4046 37.1456 67.8342 37.8924C68.2641 38.6391 68.4908 39.4844 68.4924 40.3451V57.467C68.4957 58.3265 68.2709 59.1718 67.8405 59.917C67.41 60.6623 66.7893 61.2811 66.0412 61.7109L66.0805 61.7792C65.8647 61.8284 65.658 61.9107 65.4678 62.0231L63.7029 63.0524C63.1339 63.3759 62.4988 63.5675 61.8451 63.6133C61.8141 63.618 61.7827 63.618 61.7519 63.6133C61.2998 63.6555 60.8436 63.6192 60.4038 63.506C60.225 63.4682 60.0496 63.4159 59.8793 63.3499L55.1733 60.7207L54.6832 60.4475L54.2615 60.1987L51.3203 58.506L40.8102 52.4377L35.668 55.4865L56.1047 67.2963C56.3587 67.5117 56.6516 67.6772 56.9675 67.7841C56.977 67.7874 56.9874 67.7874 56.9969 67.7841C58.4447 68.5246 60.0565 68.8914 61.684 68.8504C63.3113 68.8094 64.9023 68.3622 66.3109 67.5499L68.0756 66.5353C68.2668 66.4229 68.4432 66.2869 68.6001 66.1304L68.649 66.2231C70.9804 64.8781 72.6799 62.6676 73.3747 60.0768C73.61 59.2284 73.7287 58.3521 73.7277 57.4719V40.3304C73.7275 38.5558 73.2611 36.8118 72.3747 35.2719Z" fill="white"/>
<path d="M28.8452 41.3987V40.3304C28.8477 39.4699 29.0748 38.625 29.5045 37.8785C29.9344 37.1318 30.5517 36.5093 31.2963 36.0719L40.0709 31.0328L45.1496 28.1304L46.2036 27.5158C46.955 27.0909 47.8048 26.8672 48.6692 26.8672C49.5338 26.8672 50.3833 27.0909 51.1349 27.5158L52.8998 28.5353C53.4862 28.866 53.9896 29.3251 54.3716 29.8777C54.7539 30.4305 55.0048 31.0623 55.1057 31.7255L55.1449 32.0377C55.1623 32.0779 55.1722 32.1208 55.1744 32.1645C55.1818 32.2522 55.1818 32.3404 55.1744 32.428V54.7304L60.4097 57.6572V33.506V32.4377C60.4091 31.9013 60.3615 31.3659 60.2676 30.8377C60.0339 29.4241 59.4881 28.0797 58.6696 26.9012C57.8485 25.7205 56.7712 24.7387 55.5176 24.028L53.7527 23.0134C52.4719 22.2776 51.045 21.8287 49.5718 21.6981C48.0986 21.5675 46.6145 21.7583 45.2231 22.2573C44.6674 22.4655 44.1297 22.7184 43.6151 23.0134L38.2768 26.0573L28.6834 31.5645C27.1406 32.4594 25.8604 33.7411 24.9702 35.2816C24.08 36.8221 23.611 38.5679 23.6099 40.345V44.7353C24.3116 44.1406 25.0645 43.6085 25.8599 43.145L28.8452 41.3987Z" fill="white"/>
<path d="M50.9685 70.3552C50.2311 70.7421 49.4073 70.9365 48.574 70.9203C47.7408 70.9041 46.9252 70.6777 46.2036 70.2625L34.0907 63.2869L32.6885 62.4918L31.316 61.6967C30.5687 61.2672 29.9484 60.6492 29.5182 59.9048C29.0877 59.1605 28.8624 58.3164 28.8649 57.4576V56.0332C28.8628 55.4042 28.9948 54.7819 29.2526 54.2075C29.5104 53.633 29.8879 53.1197 30.3601 52.7015C30.4149 52.6371 30.4776 52.58 30.5465 52.5308C30.5656 52.4953 30.5968 52.4676 30.6347 52.4527C30.7236 52.3731 30.8204 52.3029 30.9238 52.243L34.0317 50.4088L35.6397 49.4723L39.3408 47.3357L49.939 41.1113V35.0674L29.2376 47.1796L29.1443 47.2332L28.4778 47.6235C27.9978 47.8976 27.5506 48.225 27.1444 48.5991C26.0331 49.5007 25.1387 50.6389 24.5271 51.9294C23.9155 53.2202 23.6021 54.6307 23.61 56.0576V57.4771V58.0674C23.6092 58.2732 23.6356 58.4781 23.6884 58.6771C23.8658 60.0709 24.3316 61.4129 25.0563 62.6186C25.7811 63.8243 26.7491 64.8674 27.8992 65.682C28.1496 65.8721 28.4114 66.0465 28.6836 66.204L29.8651 66.8771L43.5908 74.7552C45.1363 75.6436 46.8895 76.1113 48.6743 76.1113C50.459 76.1113 52.2124 75.6436 53.7578 74.7552L56.4981 73.1893C55.614 72.8957 54.763 72.5115 53.9588 72.043L50.9685 70.3552Z" fill="white"/>
</g>
</g>
<defs>
<clipPath id="clip0_1209_46">
<rect width="80" height="80" fill="white" transform="translate(8 8)"/>
</clipPath>
</defs>
</svg>
