<svg width="41" height="41" viewBox="0 0 41 41" fill="none" xmlns="http://www.w3.org/2000/svg">
<g clip-path="url(#clip0_9427_5408)">
<path d="M32.9919 13.9771C32.5346 13.1892 31.8781 12.5342 31.0876 12.0771L29.3993 11.1096C29.4925 11.5756 29.5396 12.0495 29.54 12.5246V14.2746L29.746 14.3946C30.1279 14.6184 30.4447 14.9374 30.6649 15.3201C30.8852 15.7028 31.0014 16.136 31.0022 16.5771V25.3521C31.0039 25.7926 30.8887 26.2258 30.6681 26.6077C30.4475 26.9897 30.1294 27.3068 29.746 27.5271L29.7661 27.5621C29.6555 27.5873 29.5496 27.6295 29.4521 27.6871L28.5476 28.2146C28.256 28.3804 27.9305 28.4786 27.5955 28.5021C27.5796 28.5045 27.5635 28.5045 27.5477 28.5021C27.316 28.5237 27.0822 28.5051 26.8568 28.4471C26.7652 28.4277 26.6753 28.4009 26.588 28.3671L24.1762 27.0196L23.925 26.8796L23.7089 26.7521L22.2015 25.8846L16.8151 22.7746L14.1797 24.3371L24.6535 30.3896C24.7837 30.5 24.9338 30.5848 25.0957 30.6396C25.1006 30.6413 25.1059 30.6413 25.1108 30.6396C25.8528 31.0191 26.6788 31.2071 27.5129 31.1861C28.3469 31.1651 29.1623 30.9359 29.8842 30.5196L30.7886 29.9996C30.8866 29.942 30.977 29.8723 31.0574 29.7921L31.0825 29.8396C32.2773 29.1503 33.1483 28.0174 33.5044 26.6896C33.625 26.2548 33.6858 25.8057 33.6853 25.3546V16.5696C33.6852 15.6601 33.4462 14.7663 32.9919 13.9771Z" fill="#7B3FE4"/>
<path d="M10.6831 17.117V16.5695C10.6844 16.1285 10.8008 15.6955 11.021 15.3129C11.2413 14.9302 11.5577 14.6112 11.9393 14.387L16.4363 11.8045L19.0391 10.317L19.5793 10.002C19.9644 9.78423 20.3999 9.66963 20.8429 9.66963C21.286 9.66963 21.7214 9.78423 22.1066 10.002L23.0111 10.5245C23.3116 10.694 23.5696 10.9293 23.7654 11.2125C23.9613 11.4958 24.0899 11.8196 24.1416 12.1595L24.1617 12.3195C24.1706 12.3401 24.1757 12.3621 24.1768 12.3845C24.1806 12.4294 24.1806 12.4746 24.1768 12.5195V23.9495L26.8599 25.4495V13.072V12.5245C26.8596 12.2496 26.8352 11.9752 26.7871 11.7045C26.6673 10.98 26.3876 10.291 25.9681 9.68703C25.5473 9.08193 24.9952 8.57873 24.3527 8.21453L23.4482 7.69453C22.7918 7.31743 22.0605 7.08738 21.3055 7.02045C20.5505 6.95352 19.7899 7.05132 19.0768 7.30703C18.792 7.41373 18.5164 7.54333 18.2527 7.69453L15.5168 9.25453L10.6002 12.077C9.80951 12.5356 9.15339 13.1925 8.69716 13.982C8.24094 14.7715 8.00057 15.6662 8 16.577V18.827C8.35962 18.5222 8.74549 18.2495 9.15315 18.012L10.6831 17.117Z" fill="#7B3FE4"/>
<path d="M22.0213 31.9571C21.6434 32.1554 21.2212 32.255 20.7941 32.2467C20.3671 32.2384 19.9491 32.1224 19.5793 31.9096L13.3714 28.3346L12.6528 27.9271L11.9494 27.5196C11.5664 27.2995 11.2485 26.9828 11.028 26.6013C10.8074 26.2198 10.6919 25.7872 10.6932 25.3471V24.6171C10.6921 24.2947 10.7598 23.9758 10.8919 23.6814C11.024 23.387 11.2175 23.1239 11.4595 22.9096C11.4876 22.8766 11.5197 22.8473 11.555 22.8221C11.5648 22.8039 11.5808 22.7897 11.6002 22.7821C11.6458 22.7413 11.6954 22.7053 11.7484 22.6746L13.3412 21.7346L14.1653 21.2546L16.0621 20.1596L21.4937 16.9696V13.8721L10.8842 20.0796L10.8364 20.1071L10.4948 20.3071C10.2488 20.4476 10.0196 20.6154 9.81143 20.8071C9.24188 21.2692 8.78354 21.8525 8.47009 22.5139C8.15664 23.1754 7.99604 23.8983 8.00007 24.6296V25.3571V25.6596C7.99967 25.7651 8.01318 25.8701 8.04027 25.9721C8.13117 26.6864 8.36987 27.3742 8.74131 27.9921C9.11275 28.61 9.60883 29.1446 10.1983 29.5621C10.3266 29.6595 10.4608 29.7489 10.6003 29.8296L11.2058 30.1746L18.2402 34.2121C19.0323 34.6674 19.9308 34.9071 20.8455 34.9071C21.7602 34.9071 22.6588 34.6674 23.4508 34.2121L24.8552 33.4096C24.4021 33.2591 23.966 33.0622 23.5538 32.8221L22.0213 31.9571Z" fill="#7B3FE4"/>
</g>
<defs>
<clipPath id="clip0_9427_5408">
<rect width="41" height="41" fill="white"/>
</clipPath>
</defs>
</svg>
