<svg xmlns="http://www.w3.org/2000/svg" width="30" height="29" fill="none" viewBox="0 0 30 29" data-v-3ee80f0d=""><path fill="#aaed4a" d="M29.9908 4.83179C29.9901 4.8278 29.9904 4.82381 29.9895 4.81949C29.9888 4.81716 29.9885 4.81483 29.9878 4.8125C29.9855 4.80352 29.9809 4.7952 29.9776 4.78622C29.971 4.76826 29.9651 4.74996 29.9555 4.73333C29.9519 4.72701 29.9473 4.72202 29.9433 4.71603C29.9384 4.70905 29.9334 4.70239 29.9281 4.69574C29.9202 4.68543 29.9133 4.67479 29.9044 4.66547C29.8965 4.65749 29.8863 4.65117 29.8777 4.64385C29.8661 4.63454 29.8563 4.62356 29.8434 4.61591L22.5084 0.0493973C22.4022 -0.0164658 22.2681 -0.0164658 22.1619 0.0493973L14.9987 4.50813L7.83709 0.0493973C7.73127 -0.0164658 7.59676 -0.0164658 7.49093 0.0493973L0.156597 4.61558C0.059342 4.67612 0 4.78323 0 4.89865V23.1654C0 23.2808 0.059342 23.3879 0.156597 23.4484L7.49126 28.0146C7.49324 28.0159 7.49555 28.0163 7.49753 28.0173C7.49984 28.0189 7.50148 28.0209 7.50379 28.0223C7.51962 28.0312 7.53676 28.0362 7.55324 28.0426C7.5605 28.0452 7.56775 28.0499 7.575 28.0522C7.57632 28.0525 7.57764 28.0525 7.57896 28.0529C7.60566 28.0599 7.6327 28.0635 7.66006 28.0638C7.66138 28.0638 7.6627 28.0645 7.66401 28.0645H7.66434C7.67786 28.0645 7.69105 28.0609 7.70456 28.0592C7.71841 28.0575 7.73259 28.0575 7.7461 28.0539C7.74742 28.0535 7.74874 28.0525 7.75039 28.0522C7.75863 28.0499 7.76654 28.0452 7.77446 28.0426C7.79127 28.0366 7.80841 28.0312 7.82391 28.0223C7.82424 28.0223 7.82457 28.0223 7.8249 28.0219C7.8272 28.0206 7.82918 28.0186 7.83149 28.0169C7.83347 28.0159 7.83578 28.0156 7.83775 28.0143L29.8434 14.3158C29.9407 14.2552 30 14.1481 30 14.0327V4.89865C29.9993 4.87603 29.9951 4.85375 29.9908 4.83179ZM7.99369 9.65244L14.669 5.49475V13.8471L7.99369 18.0034V9.65244ZM15.3284 14.219L22.0056 10.0616V18.4129L15.3284 22.5696V14.219ZM7.99369 18.7848L14.669 14.6291V22.9797L7.99369 27.1354V18.7848ZM29.34 13.8474L22.665 18.0028V9.65111L29.34 5.49508V13.8474Z"></path></svg>