<svg width="64" height="64" viewBox="0 0 64 64" fill="none" xmlns="http://www.w3.org/2000/svg">
<g clip-path="url(#clip0_436_338)">
<circle cx="32" cy="32" r="32" fill="#10041D"/>
<path d="M50.989 21.8315C50.9881 21.8267 50.9885 21.8218 50.9874 21.8166C50.9866 21.8138 50.9862 21.811 50.9854 21.8082C50.9826 21.7974 50.9771 21.7873 50.9731 21.7765C50.9652 21.7548 50.9581 21.7327 50.9466 21.7126C50.9423 21.705 50.9368 21.699 50.932 21.6918C50.9261 21.6833 50.9201 21.6753 50.9137 21.6673C50.9042 21.6548 50.896 21.642 50.8853 21.6307C50.8758 21.6211 50.8636 21.6135 50.8532 21.6046C50.8393 21.5934 50.8276 21.5802 50.8121 21.5709L42.0101 16.0596C41.8826 15.9801 41.7217 15.9801 41.5943 16.0596L32.9984 21.4408L24.4045 16.0596C24.2775 15.9801 24.1161 15.9801 23.9891 16.0596L15.1879 21.5705C15.0712 21.6436 15 21.7729 15 21.9122V43.9582C15 44.0975 15.0712 44.2268 15.1879 44.2998L23.9895 49.8107C23.9919 49.8123 23.9947 49.8128 23.997 49.814C23.9998 49.8159 24.0018 49.8183 24.0045 49.82C24.0235 49.8308 24.0441 49.8368 24.0639 49.8445C24.0726 49.8477 24.0813 49.8533 24.09 49.8561C24.0916 49.8565 24.0932 49.8565 24.0948 49.8569C24.1268 49.8654 24.1592 49.8697 24.1921 49.8701C24.1937 49.8701 24.1952 49.8709 24.1968 49.8709H24.1972C24.2134 49.8709 24.2293 49.8666 24.2455 49.8646C24.2621 49.8625 24.2791 49.8625 24.2953 49.8582C24.2969 49.8577 24.2985 49.8565 24.3005 49.8561C24.3104 49.8533 24.3198 49.8477 24.3294 49.8445C24.3495 49.8373 24.3701 49.8308 24.3887 49.82C24.3891 49.82 24.3895 49.82 24.3899 49.8195C24.3926 49.818 24.395 49.8156 24.3978 49.8135C24.4002 49.8123 24.4029 49.8119 24.4053 49.8104L50.8121 33.2777C50.9288 33.2046 51 33.0753 51 32.936V21.9122C50.9992 21.8849 50.9941 21.858 50.989 21.8315ZM24.5924 27.6495L32.6028 22.6316V32.712L24.5924 37.7282V27.6495ZM33.3941 33.1609L41.4067 28.1433V38.2225L33.3941 43.2392V33.1609ZM24.5924 38.6713L32.6028 33.6558V43.7341L24.5924 48.7496V38.6713ZM50.208 32.7124L42.198 37.7275V27.6479L50.208 22.632V32.7124Z" fill="#AAED4A"/>
</g>
<defs>
<clipPath id="clip0_436_338">
<rect width="64" height="64" fill="white"/>
</clipPath>
</defs>
</svg>
