<svg width="664" height="664" viewBox="0 0 664 664" fill="none" xmlns="http://www.w3.org/2000/svg">
<rect width="664" height="664" rx="332" fill="white"/>
<g clip-path="url(#clip0_1_12)">
<path d="M457.144 180.77C457.727 170.542 459.119 163.796 461.918 157.635C463.025 155.196 464.063 153.2 464.223 153.2C464.383 153.2 463.902 155 463.153 157.2C461.118 163.179 460.784 171.357 462.186 180.872C463.965 192.945 464.976 194.687 477.782 207.728C483.788 213.845 490.775 221.559 493.307 224.871L497.912 230.894L493.307 226.59C487.676 221.327 474.724 211.062 471.863 209.595C469.945 208.61 469.66 208.627 468.477 209.801C467.387 210.882 467.157 212.507 467.005 220.189C466.77 232.16 465.132 239.845 461.18 247.528C459.042 251.684 458.705 250.797 460.64 246.106C462.084 242.604 462.231 241.064 462.22 229.475C462.198 206.189 459.424 200.591 443.153 191.001C439.032 188.571 432.24 185.067 428.062 183.214C423.883 181.361 420.564 179.747 420.685 179.626C421.146 179.169 437.013 183.784 443.399 186.232C452.899 189.873 454.467 190.345 455.621 189.906C456.394 189.611 456.768 187.367 457.144 180.77Z" fill="#F50DB4"/>
<path d="M256.431 146.893C250.795 146.024 250.557 145.922 253.209 145.516C258.292 144.739 270.292 145.798 278.562 147.754C297.867 152.318 315.434 164.01 334.186 184.775L339.168 190.292L346.295 189.152C376.318 184.354 406.861 188.167 432.407 199.905C439.435 203.134 450.516 209.562 451.9 211.214C452.341 211.74 453.151 215.129 453.699 218.745C455.597 231.255 454.647 240.843 450.8 248.005C448.707 251.903 448.59 253.138 449.997 256.473C451.121 259.135 454.253 261.105 457.355 261.1C463.703 261.092 470.536 250.885 473.702 236.683L474.96 231.042L477.452 233.849C491.117 249.248 501.85 270.248 503.694 285.196L504.174 289.093L501.877 285.55C497.924 279.454 493.952 275.303 488.866 271.956C479.697 265.922 470.002 263.868 444.327 262.523C421.139 261.307 408.015 259.337 395.002 255.117C372.861 247.937 361.699 238.375 335.399 204.056C323.717 188.812 316.497 180.378 309.314 173.586C292.994 158.154 276.958 150.06 256.431 146.893Z" fill="#F50DB4"/>
<path d="M267.377 220.713C255.937 205.047 248.858 181.029 250.391 163.074L250.864 157.518L253.469 157.991C258.359 158.878 266.791 161.999 270.739 164.384C281.574 170.929 286.265 179.546 291.037 201.672C292.435 208.153 294.269 215.487 295.113 217.97C296.472 221.967 301.605 231.302 305.779 237.365C308.785 241.731 306.788 243.8 300.143 243.204C289.994 242.293 276.246 232.856 267.377 220.713Z" fill="#F50DB4"/>
<path d="M443.254 337.301C389.789 315.891 370.958 297.307 370.958 265.95C370.958 261.336 371.118 257.56 371.313 257.56C371.507 257.56 373.576 259.083 375.909 260.945C386.751 269.593 398.891 273.287 432.501 278.164C452.279 281.034 463.408 283.352 473.675 286.738C506.308 297.502 526.497 319.345 531.312 349.098C532.711 357.743 531.891 373.955 529.623 382.5C527.832 389.248 522.367 401.413 520.918 401.879C520.516 402.009 520.122 400.477 520.019 398.393C519.469 387.221 513.793 376.345 504.26 368.197C493.421 358.934 478.859 351.559 443.254 337.301Z" fill="#F50DB4"/>
<path d="M405.719 346.195C405.049 342.231 403.888 337.168 403.138 334.944L401.773 330.901L404.307 333.73C407.814 337.645 410.585 342.654 412.933 349.325C414.726 354.417 414.927 355.932 414.914 364.206C414.9 372.33 414.676 374.032 413.021 378.616C410.411 385.843 407.172 390.967 401.737 396.468C391.971 406.354 379.415 411.828 361.295 414.098C358.145 414.492 348.965 415.157 340.895 415.574C320.556 416.626 307.17 418.8 295.142 423C293.412 423.605 291.868 423.972 291.711 423.816C291.225 423.334 299.414 418.479 306.178 415.238C315.716 410.668 325.211 408.175 346.484 404.651C356.992 402.91 367.844 400.799 370.6 399.958C396.624 392.023 410.001 371.544 405.719 346.195Z" fill="#F50DB4"/>
<path d="M430.228 389.486C423.125 374.299 421.493 359.635 425.385 345.959C425.802 344.498 426.471 343.302 426.874 343.302C427.276 343.302 428.953 344.203 430.598 345.305C433.872 347.496 440.437 351.188 457.928 360.672C479.754 372.507 492.198 381.672 500.66 392.142C508.071 401.312 512.658 411.755 514.865 424.49C516.115 431.704 515.383 449.061 513.521 456.325C507.653 479.229 494.015 497.22 474.562 507.718C471.712 509.256 469.153 510.519 468.876 510.524C468.599 510.53 469.638 507.904 471.184 504.688C477.728 491.083 478.473 477.849 473.526 463.118C470.496 454.099 464.32 443.094 451.849 424.493C437.35 402.868 433.795 397.113 430.228 389.486Z" fill="#F50DB4"/>
<path d="M229.408 471.432C249.249 454.771 273.935 442.934 296.422 439.301C306.113 437.735 322.257 438.357 331.231 440.641C345.616 444.302 358.484 452.503 365.176 462.273C371.716 471.823 374.522 480.144 377.443 498.659C378.596 505.962 379.849 513.296 380.228 514.957C382.422 524.552 386.691 532.222 391.982 536.074C400.385 542.191 414.854 542.571 429.087 537.049C431.503 536.111 433.6 535.464 433.748 535.61C434.264 536.12 427.097 540.892 422.04 543.404C415.237 546.784 409.827 548.09 402.638 548.09C389.602 548.09 378.779 541.495 369.748 528.046C367.971 525.399 363.976 517.471 360.871 510.429C351.336 488.799 346.628 482.21 335.556 474.998C325.922 468.723 313.496 467.599 304.148 472.158C291.87 478.146 288.444 493.752 297.238 503.642C300.733 507.573 307.251 510.964 312.581 511.623C322.552 512.856 331.121 505.312 331.121 495.299C331.121 488.798 328.609 485.088 322.284 482.249C313.646 478.372 304.36 482.904 304.405 490.975C304.424 494.417 305.931 496.578 309.4 498.139C311.625 499.14 311.677 499.22 309.862 498.845C301.936 497.21 300.079 487.707 306.452 481.398C314.103 473.824 329.924 477.166 335.357 487.504C337.64 491.847 337.905 500.495 335.915 505.717C331.461 517.405 318.475 523.552 305.302 520.207C296.333 517.93 292.681 515.464 281.867 504.386C263.077 485.135 255.782 481.405 228.693 477.198L223.502 476.393L229.408 471.432Z" fill="#F50DB4"/>
<path fill-rule="evenodd" clip-rule="evenodd" d="M141.241 126.878C203.993 202.627 247.213 233.88 252.016 240.483C255.981 245.935 254.489 250.836 247.695 254.678C243.917 256.813 236.15 258.977 232.261 258.977C227.862 258.977 226.352 257.29 226.352 257.29C223.802 254.884 222.365 255.305 209.269 232.183C191.086 204.122 175.869 180.844 175.454 180.454C174.494 179.553 174.511 179.584 207.415 238.138C212.731 250.342 208.472 254.822 208.472 256.56C208.472 260.096 207.502 261.955 203.116 266.82C195.805 274.933 192.537 284.047 190.178 302.911C187.533 324.058 180.096 338.995 159.485 364.56C147.42 379.526 145.446 382.269 142.402 388.3C138.567 395.896 137.513 400.15 137.086 409.742C136.634 419.883 137.514 426.434 140.629 436.13C143.356 444.619 146.203 450.224 153.48 461.435C159.76 471.109 163.377 478.299 163.377 481.111C163.377 483.349 163.806 483.352 173.538 481.166C196.828 475.936 215.74 466.736 226.376 455.462C232.958 448.483 234.503 444.63 234.554 435.067C234.587 428.812 234.365 427.503 232.665 423.904C229.898 418.048 224.86 413.178 213.757 405.629C199.208 395.737 192.994 387.774 191.278 376.822C189.87 367.836 191.503 361.496 199.552 344.719C207.882 327.353 209.947 319.953 211.343 302.449C212.245 291.141 213.494 286.681 216.761 283.101C220.168 279.368 223.235 278.104 231.668 276.958C245.414 275.09 254.168 271.552 261.363 264.958C267.605 259.238 270.217 253.725 270.618 245.427L270.922 239.138L267.434 235.093C254.802 220.445 132.782 115.363 132.005 115.363C131.839 115.363 135.995 120.545 141.241 126.878ZM170.467 421.217C173.323 416.186 171.806 409.719 167.029 406.56C162.515 403.574 155.503 404.98 155.503 408.87C155.503 410.057 156.163 410.921 157.65 411.683C160.155 412.965 160.337 414.406 158.366 417.352C156.37 420.335 156.532 422.958 158.821 424.741C162.51 427.614 167.732 426.034 170.467 421.217Z" fill="#F50DB4"/>
<path fill-rule="evenodd" clip-rule="evenodd" d="M279.597 280.257C273.144 282.228 266.87 289.031 264.928 296.164C263.744 300.515 264.416 308.149 266.19 310.506C269.057 314.314 271.829 315.317 279.336 315.264C294.033 315.162 306.809 308.893 308.294 301.056C309.512 294.632 303.901 285.729 296.172 281.82C292.183 279.804 283.701 279.004 279.597 280.257ZM296.778 293.619C299.044 290.416 298.053 286.954 294.198 284.613C286.858 280.155 275.757 283.844 275.757 290.741C275.757 294.174 281.546 297.92 286.852 297.92C290.384 297.92 295.217 295.825 296.778 293.619Z" fill="#F50DB4"/>
</g>
<defs>
<clipPath id="clip0_1_12">
<rect width="400" height="434" fill="white" transform="translate(132 115)"/>
</clipPath>
</defs>
</svg>
