<svg width="64" height="64" viewBox="0 0 64 64" fill="none" xmlns="http://www.w3.org/2000/svg">
<g clip-path="url(#clip0_1334_46)">
<path d="M0 32C0 49.6731 14.3269 64 32 64C49.6731 64 64 49.6731 64 32C64 14.3269 49.6731 0 32 0C14.3269 0 0 14.3269 0 32Z" fill="black"/>
<g clip-path="url(#clip1_1334_46)">
<mask id="mask0_1334_46" style="mask-type:luminance" maskUnits="userSpaceOnUse" x="10" y="10" width="44" height="44">
<path d="M54 10H10V54H54V10Z" fill="white"/>
</mask>
<g mask="url(#mask0_1334_46)">
<path d="M52.268 23.437C51.1587 20.8156 49.5733 18.4662 47.5536 16.4464C45.5339 14.4267 43.1792 12.8412 40.563 11.732C37.8473 10.5808 34.9694 10 31.9974 10C29.0306 10 26.1475 10.5808 23.4318 11.732C20.8103 12.8412 18.4609 14.4267 16.4412 16.4464C14.4214 18.4662 12.836 20.8208 11.7267 23.437C10.5808 26.1475 10 29.0306 10 31.9974C10 34.9642 10.5808 37.8473 11.7319 40.563C12.8412 43.1844 14.4267 45.5339 16.4464 47.5536C18.4662 49.5733 20.8208 51.1587 23.437 52.268C26.1527 53.414 29.0306 54 32.0026 54C34.9694 54 37.8525 53.4192 40.5682 52.268C43.1897 51.1587 45.539 49.5733 47.5588 47.5536C49.5785 45.5339 51.164 43.1792 52.2733 40.563C53.4192 37.8473 54.0052 34.9694 54.0052 31.9974C54 29.0306 53.414 26.1475 52.268 23.437ZM24.6928 29.9305C25.6085 26.4143 28.8108 23.8138 32.6148 23.8138H47.8885C48.8722 25.7132 49.5001 27.78 49.746 29.9305H24.6928ZM49.746 34.0642C49.5001 36.2148 48.8669 38.2816 47.8885 40.181H32.6148C28.816 40.181 25.6137 37.5804 24.6928 34.0642H49.746ZM19.3662 19.3662C22.7411 15.9912 27.2253 14.1337 31.9974 14.1337C36.7694 14.1337 41.2537 15.9912 44.6286 19.3662C44.7333 19.4708 44.8327 19.5754 44.9321 19.6801H32.6148C29.3236 19.6801 26.2312 20.9621 23.9027 23.2905C22.0714 25.1219 20.8888 27.4294 20.465 29.9358H14.254C14.7092 25.9434 16.4831 22.2493 19.3662 19.3662ZM31.9974 49.8663C27.2253 49.8663 22.7411 48.0088 19.3662 44.6338C16.4831 41.7507 14.7092 38.0566 14.254 34.0695H20.465C20.8836 36.5758 22.0714 38.8833 23.9027 40.7147C26.2312 43.0431 29.3236 44.3252 32.6148 44.3252H44.9373C44.8379 44.4297 44.7333 44.5344 44.6338 44.6391C41.2589 48.0035 36.7694 49.8663 31.9974 49.8663Z" fill="white"/>
</g>
</g>
</g>
<defs>
<clipPath id="clip0_1334_46">
<rect width="64" height="64" fill="white"/>
</clipPath>
<clipPath id="clip1_1334_46">
<rect width="44" height="44" fill="white" transform="translate(10 10)"/>
</clipPath>
</defs>
</svg>
