<svg width="64" height="64" viewBox="0 0 64 64" fill="none" xmlns="http://www.w3.org/2000/svg">
<g clip-path="url(#clip0_437_335)">
<circle cx="32" cy="32" r="32" fill="white"/>
<path d="M23.399 28.4817C19.5882 28.5803 16.3542 25.8025 15.8399 22.1607C15.7884 21.7374 16.1128 21.3783 16.5239 21.3676L17.8316 21.3337C18.2611 21.3227 18.6079 21.6276 18.6962 22.0314C19.122 24.1433 21.045 25.7366 23.3054 25.6781C25.5657 25.6197 27.3796 23.9482 27.6631 21.7995C27.7242 21.3918 28.05 21.0695 28.4796 21.0584L29.7873 21.0247C30.217 21.0135 30.5656 21.3737 30.5231 21.781C30.2528 25.4431 27.1912 28.3837 23.399 28.4817Z" fill="black"/>
<path d="M47.5994 26.4345L46.2917 26.4684C45.8621 26.4795 45.5153 26.1746 45.4271 25.7708C45.0013 23.6588 43.0783 22.0656 40.8178 22.124C38.5575 22.1825 36.7437 23.8539 36.4602 26.0026C36.399 26.4104 36.0733 26.7326 35.6436 26.7437L34.3359 26.7775C33.9062 26.7887 33.5577 26.4284 33.6002 26.0212C33.8704 22.359 36.9133 19.419 40.7242 19.3204C44.5351 19.2219 47.769 21.9996 48.2834 25.6415C48.3343 26.0463 48.0104 26.4239 47.5994 26.4345Z" fill="black"/>
<path d="M15.4788 34.2987C15.1986 34.306 15.0011 34.5511 15.0284 34.8088C15.7819 40.0137 18.8839 44.4378 23.1983 47.0954L22.7643 34.1104L15.4788 34.2987Z" fill="#FF0B4A"/>
<path d="M22.7646 34.1103L23.1986 47.0953C25.8905 48.7609 29.0635 49.7128 32.4477 49.7175L31.9184 33.8735L22.7646 34.1103Z" fill="#FF9C00"/>
<path d="M32.4478 49.7173C32.5972 49.7135 32.766 49.7276 32.9154 49.7237C36.0725 49.6421 39.0151 48.7353 41.507 47.2124L41.0534 33.6372L31.8997 33.8739L32.4291 49.7179L32.4478 49.7173Z" fill="#F6C900"/>
<path d="M49.7942 33.8841C49.8225 33.6042 49.5891 33.387 49.3066 33.3942L41.0027 33.609L41.46 47.295C46.152 44.4564 49.3611 39.5346 49.7942 33.8841Z" fill="#00E586"/>
<path d="M33.3639 52.5183C22.0121 52.9965 12.3959 43.8671 12.0205 32.6344L12.0094 32.3024C11.9965 31.9151 12.3036 31.5933 12.6959 31.5832L51.8885 30.5696C52.2808 30.5595 52.6089 30.8648 52.6218 31.2521L52.6452 31.9531C53.0293 42.8902 44.3981 52.0483 33.3639 52.5183ZM15.479 34.2987C15.1988 34.306 15.0013 34.5511 15.0286 34.8088C16.2878 43.3973 23.9291 49.9378 32.9146 49.7054C41.9002 49.473 49.0915 42.549 49.7752 33.9102C49.8032 33.6327 49.5718 33.4171 49.2915 33.4243L15.479 34.2987Z" fill="black"/>
</g>
<defs>
<clipPath id="clip0_437_335">
<rect width="64" height="64" fill="white"/>
</clipPath>
</defs>
</svg>
