<svg width="517" height="514" viewBox="0 0 517 514" fill="none" xmlns="http://www.w3.org/2000/svg">
<path d="M172.95 185.439C137.128 186.377 106.729 159.937 101.894 125.272C101.41 121.243 104.46 117.825 108.324 117.723L120.616 117.401C124.654 117.296 127.914 120.198 128.744 124.042C132.746 144.144 150.822 159.31 172.07 158.753C193.317 158.197 210.368 142.287 213.032 121.834C213.607 117.954 216.669 114.886 220.708 114.78L233 114.459C237.039 114.353 240.316 117.781 239.916 121.658C237.376 156.516 208.597 184.506 172.95 185.439Z" fill="black"/>
<path d="M400.435 165.952L388.142 166.274C384.104 166.38 380.844 163.478 380.015 159.634C376.012 139.531 357.936 124.366 336.688 124.922C315.441 125.479 298.391 141.388 295.726 161.841C295.151 165.722 292.089 168.789 288.05 168.895L275.758 169.217C271.719 169.323 268.443 165.894 268.842 162.018C271.382 127.159 299.985 99.1742 335.808 98.2362C371.63 97.2981 402.029 123.738 406.864 158.404C407.343 162.257 404.298 165.851 400.435 165.952Z" fill="black"/>
<path d="M98.5017 240.807C95.8677 240.876 94.0114 243.209 94.2681 245.662C101.351 295.205 130.51 337.316 171.065 362.612L166.986 239.014L98.5017 240.807Z" fill="#FF0B4A"/>
<path d="M166.987 239.014L171.066 362.612C196.37 378.466 226.196 387.526 258.008 387.571L253.032 236.76L166.987 239.014Z" fill="#FF9C00"/>
<path d="M258.009 387.571C259.413 387.534 261 387.669 262.404 387.632C292.081 386.855 319.741 378.223 343.165 363.728L338.901 234.512L252.856 236.765L257.833 387.576L258.009 387.571Z" fill="#F6C900"/>
<path d="M421.065 236.86C421.331 234.196 419.137 232.128 416.482 232.197L338.425 234.241L342.724 364.512C386.829 337.493 416.994 290.644 421.065 236.86Z" fill="#00E586"/>
<path d="M266.62 414.23C159.913 418.782 69.5206 331.884 65.9924 224.965L65.8881 221.805C65.7665 218.118 68.6532 215.055 72.3408 214.959L440.751 205.311C444.439 205.215 447.523 208.121 447.644 211.808L447.864 218.48C451.475 322.585 370.342 409.757 266.62 414.23ZM98.5021 240.807C95.8681 240.876 94.0118 243.209 94.2685 245.662C106.105 327.412 177.933 389.668 262.397 387.456C346.861 385.244 414.46 319.337 420.886 237.109C421.15 234.467 418.974 232.415 416.34 232.484L98.5021 240.807Z" fill="black"/>
</svg>
