<svg width="149" height="159" viewBox="0 0 149 159" fill="none" xmlns="http://www.w3.org/2000/svg">
<path d="M119.186 129.13H89.3871V158.929H129.119V148.996H119.186V129.13Z" fill="white"/>
<path d="M59.5982 129.13H39.7321V139.063H29.799V158.929H69.5312V148.996H59.5982V129.13Z" fill="white"/>
<path d="M149 119.197H129.124V129.135H149V119.197Z" fill="white"/>
<path d="M39.7286 59.598H19.8625V129.129H39.7286V59.598Z" fill="white"/>
<path d="M49.6622 59.598V109.263H148.993V59.598H49.6622ZM139.06 99.3302H129.127V79.4641H59.5953V69.5311H139.06V99.3302Z" fill="white"/>
<path d="M9.93305 59.598H0V109.263H9.93305V59.598Z" fill="white"/>
<path d="M139.055 49.6652V0H39.7249V49.6652H139.055ZM79.4571 39.7322V29.7991H99.3232V39.7322H79.4571ZM119.189 9.93305V29.7991H109.256V9.93305H119.189ZM69.5241 9.93305V29.7991H59.591V9.93305H69.5241Z" fill="white"/>
<path d="M29.7912 0H9.92514V49.6652H29.7912V0Z" fill="white"/>
</svg>
